<?xml version="1.0" encoding="UTF-8" standalone="no"?>
<!-- Created with Inkscape (http://www.inkscape.org/) -->

<svg
   version="1.1"
   id="svg2"
   width="340.70465"
   height="55.402664"
   viewBox="0 0 340.70465 55.402664"
   sodipodi:docname="optimiste.svg"
   inkscape:version="1.2.2 (b0a8486541, 2022-12-01)"
   xmlns:inkscape="http://www.inkscape.org/namespaces/inkscape"
   xmlns:sodipodi="http://sodipodi.sourceforge.net/DTD/sodipodi-0.dtd"
   xmlns="http://www.w3.org/2000/svg"
   xmlns:svg="http://www.w3.org/2000/svg">
  <defs
     id="defs6">
    <clipPath
       clipPathUnits="userSpaceOnUse"
       id="clipPath118">
      <path
         d="M 0,0 H 612 V 792 H 0 Z"
         id="path116" />
    </clipPath>
    <clipPath
       clipPathUnits="userSpaceOnUse"
       id="clipPath150">
      <path
         d="M 0,0 H 612 V 792 H 0 Z"
         id="path148" />
    </clipPath>
    <clipPath
       clipPathUnits="userSpaceOnUse"
       id="clipPath166">
      <path
         d="m 19.44,140.342 h 83.52 V 300.96 H 19.44 Z"
         id="path164" />
    </clipPath>
    <clipPath
       clipPathUnits="userSpaceOnUse"
       id="clipPath430">
      <path
         d="M 24.354,164.011 H 102.96 V 289.182 H 24.354 Z"
         id="path428" />
    </clipPath>
    <clipPath
       clipPathUnits="userSpaceOnUse"
       id="clipPath446">
      <path
         d="m 19.44,140.342 h 83.52 V 300.96 H 19.44 Z"
         id="path444" />
    </clipPath>
    <clipPath
       clipPathUnits="userSpaceOnUse"
       id="clipPath934">
      <path
         d="M 24.354,164.011 H 102.96 V 289.182 H 24.354 Z"
         id="path932" />
    </clipPath>
    <clipPath
       clipPathUnits="userSpaceOnUse"
       id="clipPath950">
      <path
         d="m 19.44,140.342 h 83.52 V 300.96 H 19.44 Z"
         id="path948" />
    </clipPath>
    <clipPath
       clipPathUnits="userSpaceOnUse"
       id="clipPath1168">
      <path
         d="M 24.354,164.011 H 102.96 V 289.182 H 24.354 Z"
         id="path1166" />
    </clipPath>
    <clipPath
       clipPathUnits="userSpaceOnUse"
       id="clipPath1184">
      <path
         d="m 19.44,140.342 h 83.52 V 300.96 H 19.44 Z"
         id="path1182" />
    </clipPath>
    <clipPath
       clipPathUnits="userSpaceOnUse"
       id="clipPath1284">
      <path
         d="m 198.541,242.901 c -0.258,0 -0.463,0.088 -0.541,0.256 -0.139,0.297 0.169,0.734 0.688,0.975 0.225,0.105 0.452,0.156 0.65,0.156 0.257,0 0.462,-0.087 0.541,-0.256 0.138,-0.297 -0.17,-0.734 -0.69,-0.975 -0.224,-0.105 -0.451,-0.156 -0.648,-0.156"
         id="path1282" />
    </clipPath>
    <clipPath
       clipPathUnits="userSpaceOnUse"
       id="clipPath1620">
      <path
         d="M 150.48,158.4 H 219.6 V 284.458 H 150.48 Z"
         id="path1618" />
    </clipPath>
    <clipPath
       clipPathUnits="userSpaceOnUse"
       id="clipPath1884">
      <path
         d="M 150.48,167.668 H 219.6 V 284.457 H 150.48 Z"
         id="path1882" />
    </clipPath>
    <clipPath
       clipPathUnits="userSpaceOnUse"
       id="clipPath1900">
      <path
         d="M 150.48,158.4 H 219.6 V 284.458 H 150.48 Z"
         id="path1898" />
    </clipPath>
    <clipPath
       clipPathUnits="userSpaceOnUse"
       id="clipPath2388">
      <path
         d="M 150.48,167.668 H 219.6 V 284.457 H 150.48 Z"
         id="path2386" />
    </clipPath>
    <clipPath
       clipPathUnits="userSpaceOnUse"
       id="clipPath2404">
      <path
         d="M 150.48,158.4 H 219.6 V 284.458 H 150.48 Z"
         id="path2402" />
    </clipPath>
    <clipPath
       clipPathUnits="userSpaceOnUse"
       id="clipPath2622">
      <path
         d="M 150.48,167.668 H 219.6 V 284.457 H 150.48 Z"
         id="path2620" />
    </clipPath>
    <clipPath
       clipPathUnits="userSpaceOnUse"
       id="clipPath2638">
      <path
         d="M 150.48,158.4 H 219.6 V 284.458 H 150.48 Z"
         id="path2636" />
    </clipPath>
    <clipPath
       clipPathUnits="userSpaceOnUse"
       id="clipPath2738">
      <path
         d="m 23.346,246.559 c -0.257,0 -0.462,0.087 -0.541,0.255 -0.138,0.297 0.17,0.734 0.689,0.976 0.225,0.105 0.452,0.156 0.649,0.156 0.257,0 0.463,-0.088 0.541,-0.256 0.138,-0.297 -0.17,-0.734 -0.689,-0.976 -0.225,-0.104 -0.452,-0.155 -0.649,-0.155"
         id="path2736" />
    </clipPath>
    <clipPath
       clipPathUnits="userSpaceOnUse"
       id="clipPath3074">
      <path
         d="M 306,101.005 H 473.962 V 427.68 H 306 Z"
         id="path3072" />
    </clipPath>
    <clipPath
       clipPathUnits="userSpaceOnUse"
       id="clipPath3338">
      <path
         d="M 306,137.156 H 473.962 V 377.485 H 306 Z"
         id="path3336" />
    </clipPath>
    <clipPath
       clipPathUnits="userSpaceOnUse"
       id="clipPath3354">
      <path
         d="M 306,101.005 H 473.962 V 427.68 H 306 Z"
         id="path3352" />
    </clipPath>
    <clipPath
       clipPathUnits="userSpaceOnUse"
       id="clipPath3842">
      <path
         d="M 306,137.156 H 473.962 V 377.485 H 306 Z"
         id="path3840" />
    </clipPath>
    <clipPath
       clipPathUnits="userSpaceOnUse"
       id="clipPath3858">
      <path
         d="M 306,101.005 H 473.962 V 427.68 H 306 Z"
         id="path3856" />
    </clipPath>
    <clipPath
       clipPathUnits="userSpaceOnUse"
       id="clipPath4076">
      <path
         d="M 306,137.156 H 473.962 V 377.485 H 306 Z"
         id="path4074" />
    </clipPath>
    <clipPath
       clipPathUnits="userSpaceOnUse"
       id="clipPath4092">
      <path
         d="M 306,101.005 H 473.962 V 427.68 H 306 Z"
         id="path4090" />
    </clipPath>
    <clipPath
       clipPathUnits="userSpaceOnUse"
       id="clipPath4192">
      <path
         d="m 363.551,290.991 c -0.997,-0.464 -1.589,-1.303 -1.323,-1.873 v 0 c 0.151,-0.323 0.545,-0.491 1.038,-0.491 v 0 c 0.379,0 0.815,0.098 1.246,0.299 v 0 c 0.997,0.464 1.588,1.302 1.324,1.873 v 0 c -0.152,0.323 -0.546,0.491 -1.039,0.491 v 0 c -0.379,0 -0.815,-0.098 -1.246,-0.299"
         id="path4190" />
    </clipPath>
    <clipPath
       clipPathUnits="userSpaceOnUse"
       id="clipPath4202">
      <path
         d="M 306,101.005 H 473.962 V 427.68 H 306 Z"
         id="path4200" />
    </clipPath>
    <clipPath
       clipPathUnits="userSpaceOnUse"
       id="clipPath4536">
      <path
         d="M 427.356,0 H 612 V 299.52 H 427.356 Z"
         id="path4534" />
    </clipPath>
    <clipPath
       clipPathUnits="userSpaceOnUse"
       id="clipPath4800">
      <path
         d="M 427.356,30.903 H 596.371 V 299.52 H 427.356 Z"
         id="path4798" />
    </clipPath>
    <clipPath
       clipPathUnits="userSpaceOnUse"
       id="clipPath4816">
      <path
         d="M 427.356,0 H 612 V 299.52 H 427.356 Z"
         id="path4814" />
    </clipPath>
    <clipPath
       clipPathUnits="userSpaceOnUse"
       id="clipPath5304">
      <path
         d="M 427.356,30.903 H 596.371 V 299.52 H 427.356 Z"
         id="path5302" />
    </clipPath>
    <clipPath
       clipPathUnits="userSpaceOnUse"
       id="clipPath5320">
      <path
         d="M 427.356,0 H 612 V 299.52 H 427.356 Z"
         id="path5318" />
    </clipPath>
    <clipPath
       clipPathUnits="userSpaceOnUse"
       id="clipPath5538">
      <path
         d="M 427.356,30.903 H 596.371 V 299.52 H 427.356 Z"
         id="path5536" />
    </clipPath>
    <clipPath
       clipPathUnits="userSpaceOnUse"
       id="clipPath5554">
      <path
         d="M 427.356,0 H 612 V 299.52 H 427.356 Z"
         id="path5552" />
    </clipPath>
    <clipPath
       clipPathUnits="userSpaceOnUse"
       id="clipPath5654">
      <path
         d="m -7.468,212.353 c -0.591,0 -1.063,0.201 -1.244,0.587 -0.318,0.684 0.391,1.689 1.584,2.244 0.517,0.241 1.04,0.358 1.493,0.358 0.592,0 1.064,-0.201 1.245,-0.588 0.317,-0.683 -0.391,-1.688 -1.586,-2.244 -0.516,-0.24 -1.038,-0.357 -1.492,-0.357"
         id="path5652" />
    </clipPath>
    <clipPath
       clipPathUnits="userSpaceOnUse"
       id="clipPath5994">
      <path
         d="m 88.56,57.542 h 74.88 V 198 H 88.56 Z"
         id="path5992" />
    </clipPath>
    <clipPath
       clipPathUnits="userSpaceOnUse"
       id="clipPath6258">
      <path
         d="m 88.56,78.949 h 74.88 V 198 H 88.56 Z"
         id="path6256" />
    </clipPath>
    <clipPath
       clipPathUnits="userSpaceOnUse"
       id="clipPath6274">
      <path
         d="m 88.56,57.542 h 74.88 V 198 H 88.56 Z"
         id="path6272" />
    </clipPath>
    <clipPath
       clipPathUnits="userSpaceOnUse"
       id="clipPath6762">
      <path
         d="m 88.56,78.949 h 74.88 V 198 H 88.56 Z"
         id="path6760" />
    </clipPath>
    <clipPath
       clipPathUnits="userSpaceOnUse"
       id="clipPath6778">
      <path
         d="m 88.56,57.542 h 74.88 V 198 H 88.56 Z"
         id="path6776" />
    </clipPath>
    <clipPath
       clipPathUnits="userSpaceOnUse"
       id="clipPath6996">
      <path
         d="m 88.56,78.949 h 74.88 V 198 H 88.56 Z"
         id="path6994" />
    </clipPath>
    <clipPath
       clipPathUnits="userSpaceOnUse"
       id="clipPath7012">
      <path
         d="m 88.56,57.542 h 74.88 V 198 H 88.56 Z"
         id="path7010" />
    </clipPath>
    <clipPath
       clipPathUnits="userSpaceOnUse"
       id="clipPath7112">
      <path
         d="m 187.448,157.84 c -0.257,0 -0.462,0.087 -0.541,0.255 -0.138,0.297 0.17,0.734 0.689,0.976 0.224,0.105 0.452,0.156 0.649,0.156 0.257,0 0.463,-0.088 0.541,-0.256 0.138,-0.297 -0.17,-0.734 -0.689,-0.976 -0.225,-0.104 -0.452,-0.155 -0.649,-0.155"
         id="path7110" />
    </clipPath>
    <clipPath
       clipPathUnits="userSpaceOnUse"
       id="clipPath7448">
      <path
         d="m 218.16,69.782 h 74.88 V 210.24 h -74.88 z"
         id="path7446" />
    </clipPath>
    <clipPath
       clipPathUnits="userSpaceOnUse"
       id="clipPath7712">
      <path
         d="m 218.16,95.149 h 74.88 V 210.24 h -74.88 z"
         id="path7710" />
    </clipPath>
    <clipPath
       clipPathUnits="userSpaceOnUse"
       id="clipPath7728">
      <path
         d="m 218.16,69.782 h 74.88 V 210.24 h -74.88 z"
         id="path7726" />
    </clipPath>
    <clipPath
       clipPathUnits="userSpaceOnUse"
       id="clipPath8216">
      <path
         d="m 218.16,95.149 h 74.88 V 210.24 h -74.88 z"
         id="path8214" />
    </clipPath>
    <clipPath
       clipPathUnits="userSpaceOnUse"
       id="clipPath8232">
      <path
         d="m 218.16,69.782 h 74.88 V 210.24 h -74.88 z"
         id="path8230" />
    </clipPath>
    <clipPath
       clipPathUnits="userSpaceOnUse"
       id="clipPath8450">
      <path
         d="m 218.16,95.149 h 74.88 V 210.24 h -74.88 z"
         id="path8448" />
    </clipPath>
    <clipPath
       clipPathUnits="userSpaceOnUse"
       id="clipPath8466">
      <path
         d="m 218.16,69.782 h 74.88 V 210.24 h -74.88 z"
         id="path8464" />
    </clipPath>
    <clipPath
       clipPathUnits="userSpaceOnUse"
       id="clipPath8566">
      <path
         d="m 167.706,174.04 c -0.257,0 -0.462,0.087 -0.541,0.255 -0.138,0.297 0.17,0.734 0.689,0.976 0.225,0.105 0.452,0.156 0.649,0.156 0.257,0 0.463,-0.088 0.541,-0.256 0.138,-0.297 -0.17,-0.734 -0.689,-0.976 -0.225,-0.104 -0.452,-0.155 -0.649,-0.155"
         id="path8564" />
    </clipPath>
  </defs>
  <sodipodi:namedview
     id="namedview4"
     pagecolor="#ffffff"
     bordercolor="#000000"
     borderopacity="0.25"
     inkscape:showpageshadow="2"
     inkscape:pageopacity="0.0"
     inkscape:pagecheckerboard="0"
     inkscape:deskcolor="#d1d1d1"
     showgrid="false"
     inkscape:zoom="1.1597623"
     inkscape:cx="-65.099549"
     inkscape:cy="47.423513"
     inkscape:window-width="1890"
     inkscape:window-height="991"
     inkscape:window-x="1095"
     inkscape:window-y="882"
     inkscape:window-maximized="0"
     inkscape:current-layer="g10" />
  <g
     id="g10"
     inkscape:groupmode="layer"
     inkscape:label="Page 1"
     transform="matrix(1.3333333,0,0,-1.3333333,-40.578132,564.31519)">
    <text
       xml:space="preserve"
       transform="matrix(1,0,0,-1,84.6046,388.5819)"
       style="font-variant:normal;font-weight:300;font-stretch:normal;font-size:22.3656px;font-family:Bliss;-inkscape-font-specification:Bliss-Light;writing-mode:lr-tb;fill:#656263;fill-opacity:1;fill-rule:nonzero;stroke:none"
       id="text130"><tspan
         x="0 16.595276 27.643881 35.292915 40.437004 58.329483 63.473572 71.815941 79.464973 89.77552 95.36692 106.05768 113.70671 124.01725 132.13597 143.00565 154.30028 164.61081 171.61125 181.92178 190.26416"
         y="0"
         sodipodi:role="line"
         id="tspan128">Optimiste Ste-Thérèse</tspan></text>
    <text
       xml:space="preserve"
       transform="matrix(1,0,0,-1,86.6379,407.8017)"
       style="font-variant:normal;font-weight:300;font-stretch:normal;font-size:17.0792px;font-family:Bliss;-inkscape-font-specification:Bliss-Light;writing-mode:lr-tb;fill:#656263;fill-opacity:1;fill-rule:nonzero;stroke:none"
       id="text134"><tspan
         x="0 6.9853926 15.695785 24.320782 32.8433 40.699734 46.540821 50.469036 59.179428"
         y="0"
         sodipodi:role="line"
         id="tspan132">Fondation</tspan></text>
    <g
       id="g136"
       transform="translate(79.5449,419.4286)"
       style="stroke-width:1.05;stroke-dasharray:none">
      <path
         d="M 0,0 V -36.619"
         style="fill:none;stroke:#656263;stroke-width:1.05;stroke-linecap:butt;stroke-linejoin:miter;stroke-miterlimit:10;stroke-dasharray:none;stroke-opacity:1"
         id="path138" />
    </g>
    <g
       id="g140"
       transform="translate(59.8156,381.6844)">
      <path
         d="m 0,0 h -17.211 l -12.171,12.17 v 17.212 l 12.171,12.17 H 0 L 12.17,29.382 V 12.17 Z M -15.684,3.687 H -1.527 L 8.484,13.697 V 27.854 L -1.527,37.865 H -15.684 L -25.695,27.854 V 13.697 Z"
         style="fill:#24488a;fill-opacity:1;fill-rule:nonzero;stroke:none"
         id="path142" />
    </g>
    <g
       id="g144">
      <g
         id="g146"
         clip-path="url(#clipPath150)">
        <g
           id="g152"
           transform="translate(39.2195,403.2952)">
          <path
             d="m 0,0 c 0,4.167 1.154,7.652 3.461,10.456 2.308,2.804 5.146,4.205 8.516,4.205 3.388,0 6.235,-1.407 8.543,-4.222 C 22.827,7.624 23.981,4.144 23.981,0 c 0,-4.588 -1.172,-8.195 -3.516,-10.821 -2.344,-2.626 -5.174,-3.939 -8.488,-3.939 -3.315,0 -6.14,1.335 -8.475,4.005 C 1.167,-8.084 0,-4.499 0,0 m 4.565,-0.166 c 0,-4.832 0.651,-8.217 1.953,-10.157 1.302,-1.939 3.125,-2.908 5.472,-2.908 2.402,0 4.24,0.969 5.514,2.908 1.275,1.94 1.912,5.325 1.912,10.157 0,4.787 -0.633,8.2 -1.898,10.239 -1.265,2.039 -3.108,3.059 -5.528,3.059 -2.401,0 -4.239,-1.014 -5.514,-3.042 C 5.202,8.062 4.565,4.643 4.565,-0.166"
             style="fill:#24488a;fill-opacity:1;fill-rule:nonzero;stroke:none"
             id="path154" />
        </g>
        <g
           id="g156"
           transform="translate(45.6173,410.1741)">
          <path
             d="M 0,0 V 2.23 H 11.108 V 0 H 10.783 C 9.74,0 9.06,-0.251 8.745,-0.753 8.43,-1.255 8.273,-2.116 8.273,-3.335 v -16.111 c 0,-1.245 0.163,-2.113 0.488,-2.602 0.325,-0.489 0.999,-0.733 2.022,-0.733 h 0.325 v -2.23 H 0 v 2.23 c 1.116,0 1.856,0.221 2.223,0.663 0.367,0.442 0.55,1.332 0.55,2.672 v 16.111 c 0,1.299 -0.173,2.18 -0.519,2.642 C 1.908,-0.231 1.157,0 0,0"
             style="fill:#24488a;fill-opacity:1;fill-rule:nonzero;stroke:none"
             id="path158" />
        </g>
      </g>
    </g>
  </g>
</svg>
