M48
METRIC,LZ,000.000
;FILE_FORMAT=3:3
;TYPE=PLATED
;Layer: PTH_Through
;EasyEDA v6.5.42, 2024-05-08 18:12:25
;be8ffc033df6498d868a6c16453b8217,f8c0e07f684e49ff84154c9ab2af1557,10
;Gerber Generator version 0.2
;Holesize 1 = 0.310 mm
T01C0.310
;Holesize 2 = 0.920 mm
T02C0.920
;Holesize 3 = 1.000 mm
T03C1.000
;Holesize 4 = 2.101 mm
T04C2.101
;Holesize 5 = 2.600 mm
T05C2.600
%
G05
G90
T01
X062611Y-028646
X062611Y-020890
X062611Y-022290
X067437Y-024146
X067691Y-027432
X054229Y-028702
X040832Y-028702
X063089Y-025019
X022662Y-032427
X040950Y-032427
X062611Y-020890
X022662Y-032427
T02
X047950Y-032427
X045450Y-032427
X043450Y-032427
X040950Y-032427
X029662Y-032427
X027162Y-032427
X025162Y-032427
X022662Y-032427
T03
X069739Y-021646
X069739Y-024146
X069739Y-026146
X069739Y-028646
T04
X037450Y-035137
X051450Y-035137
X019162Y-035137
X033162Y-035137
T05
X071739Y-019146
X071739Y-031146
M30
