G04 Layer: TopSilkscreenLayer*
G04 EasyEDA v6.5.42, 2024-05-08 18:12:25*
G04 be8ffc033df6498d868a6c16453b8217,f8c0e07f684e49ff84154c9ab2af1557,10*
G04 Gerber Generator version 0.2*
G04 Scale: 100 percent, Rotated: No, Reflected: No *
G04 Dimensions in millimeters *
G04 leading zeros omitted , absolute positions ,4 integer and 5 decimal *
%FSLAX45Y45*%
%MOMM*%

%ADD10C,0.1524*%
%ADD11C,0.2540*%
%ADD12C,0.1520*%
%ADD13C,0.3000*%

%LPD*%
D10*
X3960622Y-3061207D02*
G01*
X3965956Y-3071621D01*
X3976370Y-3082036D01*
X3986529Y-3087115D01*
X4007358Y-3087115D01*
X4017772Y-3082036D01*
X4028186Y-3071621D01*
X4033520Y-3061207D01*
X4038600Y-3045460D01*
X4038600Y-3019552D01*
X4033520Y-3004057D01*
X4028186Y-2993644D01*
X4017772Y-2983229D01*
X4007358Y-2978150D01*
X3986529Y-2978150D01*
X3976370Y-2983229D01*
X3965956Y-2993644D01*
X3960622Y-3004057D01*
X3915918Y-3087115D02*
G01*
X3858768Y-3087115D01*
X3890009Y-3045460D01*
X3874515Y-3045460D01*
X3864102Y-3040379D01*
X3858768Y-3035300D01*
X3853688Y-3019552D01*
X3853688Y-3009137D01*
X3858768Y-2993644D01*
X3869181Y-2983229D01*
X3884929Y-2978150D01*
X3900424Y-2978150D01*
X3915918Y-2983229D01*
X3921252Y-2988310D01*
X3926331Y-2998723D01*
X6742506Y-2526817D02*
G01*
X6820484Y-2526817D01*
X6835978Y-2521737D01*
X6846392Y-2511323D01*
X6851472Y-2495575D01*
X6851472Y-2485161D01*
X6846392Y-2469667D01*
X6835978Y-2459253D01*
X6820484Y-2454173D01*
X6742506Y-2454173D01*
X6758000Y-2346985D02*
G01*
X6747586Y-2357399D01*
X6742506Y-2373147D01*
X6742506Y-2393721D01*
X6747586Y-2409469D01*
X6758000Y-2419883D01*
X6768414Y-2419883D01*
X6778828Y-2414549D01*
X6784162Y-2409469D01*
X6789242Y-2399055D01*
X6799656Y-2367813D01*
X6804736Y-2357399D01*
X6810070Y-2352319D01*
X6820484Y-2346985D01*
X6835978Y-2346985D01*
X6846392Y-2357399D01*
X6851472Y-2373147D01*
X6851472Y-2393721D01*
X6846392Y-2409469D01*
X6835978Y-2419883D01*
X6742506Y-2312695D02*
G01*
X6851472Y-2312695D01*
X6742506Y-2312695D02*
G01*
X6742506Y-2265959D01*
X6747586Y-2250465D01*
X6752920Y-2245131D01*
X6763334Y-2240051D01*
X6773748Y-2240051D01*
X6784162Y-2245131D01*
X6789242Y-2250465D01*
X6794322Y-2265959D01*
X6794322Y-2312695D02*
G01*
X6794322Y-2265959D01*
X6799656Y-2250465D01*
X6804736Y-2245131D01*
X6815150Y-2240051D01*
X6830898Y-2240051D01*
X6841312Y-2245131D01*
X6846392Y-2250465D01*
X6851472Y-2265959D01*
X6851472Y-2312695D01*
X6804736Y-2205761D02*
G01*
X6804736Y-2112289D01*
X6742506Y-2077999D02*
G01*
X6851472Y-2077999D01*
X6742506Y-2077999D02*
G01*
X6851472Y-2036343D01*
X6742506Y-1994687D02*
G01*
X6851472Y-2036343D01*
X6742506Y-1994687D02*
G01*
X6851472Y-1994687D01*
X6742506Y-1918995D02*
G01*
X6851472Y-1960397D01*
X6742506Y-1918995D02*
G01*
X6851472Y-1877339D01*
X6815150Y-1944903D02*
G01*
X6815150Y-1893087D01*
X6742506Y-1843049D02*
G01*
X6851472Y-1843049D01*
X6742506Y-1808759D02*
G01*
X6851472Y-1808759D01*
X6742506Y-1808759D02*
G01*
X6851472Y-1736115D01*
X6742506Y-1736115D02*
G01*
X6851472Y-1736115D01*
X6452108Y-2211578D02*
G01*
X6462522Y-2206244D01*
X6472936Y-2195829D01*
X6478015Y-2185670D01*
X6478015Y-2164842D01*
X6472936Y-2154428D01*
X6462522Y-2144013D01*
X6452108Y-2138679D01*
X6436359Y-2133600D01*
X6410452Y-2133600D01*
X6394958Y-2138679D01*
X6384543Y-2144013D01*
X6374129Y-2154428D01*
X6369050Y-2164842D01*
X6369050Y-2185670D01*
X6374129Y-2195829D01*
X6384543Y-2206244D01*
X6394958Y-2211578D01*
X6457188Y-2245868D02*
G01*
X6462522Y-2256281D01*
X6478015Y-2271776D01*
X6369050Y-2271776D01*
X2131822Y-3086607D02*
G01*
X2137156Y-3097021D01*
X2147570Y-3107436D01*
X2157729Y-3112515D01*
X2178558Y-3112515D01*
X2188972Y-3107436D01*
X2199386Y-3097021D01*
X2204720Y-3086607D01*
X2209800Y-3070860D01*
X2209800Y-3044952D01*
X2204720Y-3029457D01*
X2199386Y-3019044D01*
X2188972Y-3008629D01*
X2178558Y-3003550D01*
X2157729Y-3003550D01*
X2147570Y-3008629D01*
X2137156Y-3019044D01*
X2131822Y-3029457D01*
X2092452Y-3086607D02*
G01*
X2092452Y-3091687D01*
X2087118Y-3102102D01*
X2082038Y-3107436D01*
X2071624Y-3112515D01*
X2050795Y-3112515D01*
X2040381Y-3107436D01*
X2035302Y-3102102D01*
X2029968Y-3091687D01*
X2029968Y-3081273D01*
X2035302Y-3070860D01*
X2045715Y-3055365D01*
X2097531Y-3003550D01*
X2024888Y-3003550D01*
X6008877Y-2399792D02*
G01*
X6003543Y-2389378D01*
X5993129Y-2378963D01*
X5982970Y-2373884D01*
X5962141Y-2373884D01*
X5951727Y-2378963D01*
X5941313Y-2389378D01*
X5935979Y-2399792D01*
X5930900Y-2415539D01*
X5930900Y-2441447D01*
X5935979Y-2456942D01*
X5941313Y-2467355D01*
X5951727Y-2477770D01*
X5962141Y-2482850D01*
X5982970Y-2482850D01*
X5993129Y-2477770D01*
X6003543Y-2467355D01*
X6008877Y-2456942D01*
X6094984Y-2373884D02*
G01*
X6043168Y-2446528D01*
X6121145Y-2446528D01*
X6094984Y-2373884D02*
G01*
X6094984Y-2482850D01*
X6046977Y-1879092D02*
G01*
X6041643Y-1868678D01*
X6031229Y-1858263D01*
X6021070Y-1853184D01*
X6000241Y-1853184D01*
X5989827Y-1858263D01*
X5979413Y-1868678D01*
X5974079Y-1879092D01*
X5969000Y-1894839D01*
X5969000Y-1920747D01*
X5974079Y-1936242D01*
X5979413Y-1946655D01*
X5989827Y-1957070D01*
X6000241Y-1962150D01*
X6021070Y-1962150D01*
X6031229Y-1957070D01*
X6041643Y-1946655D01*
X6046977Y-1936242D01*
X6143497Y-1853184D02*
G01*
X6091681Y-1853184D01*
X6086347Y-1899920D01*
X6091681Y-1894839D01*
X6107175Y-1889505D01*
X6122670Y-1889505D01*
X6138418Y-1894839D01*
X6148831Y-1905000D01*
X6153911Y-1920747D01*
X6153911Y-1931162D01*
X6148831Y-1946655D01*
X6138418Y-1957070D01*
X6122670Y-1962150D01*
X6107175Y-1962150D01*
X6091681Y-1957070D01*
X6086347Y-1951989D01*
X6081268Y-1941576D01*
X6403301Y-2259584D02*
G01*
X6403301Y-2368550D01*
X6403301Y-2259584D02*
G01*
X6439623Y-2259584D01*
X6455371Y-2264663D01*
X6465531Y-2275078D01*
X6470865Y-2285492D01*
X6475945Y-2301239D01*
X6475945Y-2327147D01*
X6470865Y-2342642D01*
X6465531Y-2353055D01*
X6455371Y-2363470D01*
X6439623Y-2368550D01*
X6403301Y-2368550D01*
X6515569Y-2285492D02*
G01*
X6515569Y-2280412D01*
X6520649Y-2269997D01*
X6525983Y-2264663D01*
X6536397Y-2259584D01*
X6556971Y-2259584D01*
X6567385Y-2264663D01*
X6572719Y-2269997D01*
X6577799Y-2280412D01*
X6577799Y-2290826D01*
X6572719Y-2301239D01*
X6562305Y-2316734D01*
X6510235Y-2368550D01*
X6583133Y-2368550D01*
X5245100Y-1624584D02*
G01*
X5245100Y-1702562D01*
X5250179Y-1718055D01*
X5260593Y-1728470D01*
X5276341Y-1733550D01*
X5286756Y-1733550D01*
X5302250Y-1728470D01*
X5312663Y-1718055D01*
X5317743Y-1702562D01*
X5317743Y-1624584D01*
X5362447Y-1624584D02*
G01*
X5419597Y-1624584D01*
X5388609Y-1666239D01*
X5404104Y-1666239D01*
X5414518Y-1671320D01*
X5419597Y-1676400D01*
X5424931Y-1692147D01*
X5424931Y-1702562D01*
X5419597Y-1718055D01*
X5409184Y-1728470D01*
X5393690Y-1733550D01*
X5378195Y-1733550D01*
X5362447Y-1728470D01*
X5357368Y-1723389D01*
X5352034Y-1712976D01*
X4430801Y-2915780D02*
G01*
X4430801Y-2993758D01*
X4435881Y-3009252D01*
X4446295Y-3019666D01*
X4462043Y-3024746D01*
X4472457Y-3024746D01*
X4487951Y-3019666D01*
X4498365Y-3009252D01*
X4503445Y-2993758D01*
X4503445Y-2915780D01*
X4610633Y-2931274D02*
G01*
X4600219Y-2920860D01*
X4584471Y-2915780D01*
X4563897Y-2915780D01*
X4548149Y-2920860D01*
X4537735Y-2931274D01*
X4537735Y-2941688D01*
X4543069Y-2952102D01*
X4548149Y-2957436D01*
X4558563Y-2962516D01*
X4589805Y-2972930D01*
X4600219Y-2978010D01*
X4605299Y-2983344D01*
X4610633Y-2993758D01*
X4610633Y-3009252D01*
X4600219Y-3019666D01*
X4584471Y-3024746D01*
X4563897Y-3024746D01*
X4548149Y-3019666D01*
X4537735Y-3009252D01*
X4644923Y-2915780D02*
G01*
X4644923Y-3024746D01*
X4644923Y-2915780D02*
G01*
X4691659Y-2915780D01*
X4707153Y-2920860D01*
X4712487Y-2926194D01*
X4717567Y-2936608D01*
X4717567Y-2947022D01*
X4712487Y-2957436D01*
X4707153Y-2962516D01*
X4691659Y-2967596D01*
X4644923Y-2967596D02*
G01*
X4691659Y-2967596D01*
X4707153Y-2972930D01*
X4712487Y-2978010D01*
X4717567Y-2988424D01*
X4717567Y-3004172D01*
X4712487Y-3014586D01*
X4707153Y-3019666D01*
X4691659Y-3024746D01*
X4644923Y-3024746D01*
X4751857Y-2936608D02*
G01*
X4762271Y-2931274D01*
X4777765Y-2915780D01*
X4777765Y-3024746D01*
X2602001Y-2915780D02*
G01*
X2602001Y-2993758D01*
X2607081Y-3009252D01*
X2617495Y-3019666D01*
X2633243Y-3024746D01*
X2643657Y-3024746D01*
X2659151Y-3019666D01*
X2669565Y-3009252D01*
X2674645Y-2993758D01*
X2674645Y-2915780D01*
X2781833Y-2931274D02*
G01*
X2771419Y-2920860D01*
X2755671Y-2915780D01*
X2735097Y-2915780D01*
X2719349Y-2920860D01*
X2708935Y-2931274D01*
X2708935Y-2941688D01*
X2714269Y-2952102D01*
X2719349Y-2957436D01*
X2729763Y-2962516D01*
X2761005Y-2972930D01*
X2771419Y-2978010D01*
X2776499Y-2983344D01*
X2781833Y-2993758D01*
X2781833Y-3009252D01*
X2771419Y-3019666D01*
X2755671Y-3024746D01*
X2735097Y-3024746D01*
X2719349Y-3019666D01*
X2708935Y-3009252D01*
X2816123Y-2915780D02*
G01*
X2816123Y-3024746D01*
X2816123Y-2915780D02*
G01*
X2862859Y-2915780D01*
X2878353Y-2920860D01*
X2883687Y-2926194D01*
X2888767Y-2936608D01*
X2888767Y-2947022D01*
X2883687Y-2957436D01*
X2878353Y-2962516D01*
X2862859Y-2967596D01*
X2816123Y-2967596D02*
G01*
X2862859Y-2967596D01*
X2878353Y-2972930D01*
X2883687Y-2978010D01*
X2888767Y-2988424D01*
X2888767Y-3004172D01*
X2883687Y-3014586D01*
X2878353Y-3019666D01*
X2862859Y-3024746D01*
X2816123Y-3024746D01*
X2928391Y-2941688D02*
G01*
X2928391Y-2936608D01*
X2933471Y-2926194D01*
X2938551Y-2920860D01*
X2948965Y-2915780D01*
X2969793Y-2915780D01*
X2980207Y-2920860D01*
X2985541Y-2926194D01*
X2990621Y-2936608D01*
X2990621Y-2947022D01*
X2985541Y-2957436D01*
X2975127Y-2972930D01*
X2923057Y-3024746D01*
X2995701Y-3024746D01*
G36*
X6318199Y-2421636D02*
G01*
X6318199Y-2456891D01*
X6348679Y-2456891D01*
X6348679Y-2421636D01*
G37*
G36*
X6318199Y-2546908D02*
G01*
X6318199Y-2582164D01*
X6348679Y-2582164D01*
X6348679Y-2546908D01*
G37*
D11*
X3874198Y-2910177D02*
G01*
X3874198Y-2830174D01*
X3985173Y-2941162D02*
G01*
X3905176Y-2941162D01*
X3985173Y-2799196D02*
G01*
X3905176Y-2799196D01*
X4042763Y-2941744D02*
G01*
X4122762Y-2941744D01*
X4153745Y-2910761D02*
G01*
X4153745Y-2830763D01*
X4042763Y-2799783D02*
G01*
X4122762Y-2799783D01*
X7483665Y-3115335D02*
G01*
X7483665Y-1913968D01*
X8955130Y-1913968D02*
G01*
X7353658Y-1913968D01*
X8955130Y-1913968D02*
G01*
X8955130Y-3115335D01*
X7353112Y-3115335D01*
X8438781Y-2337826D02*
G01*
X8438781Y-2091578D01*
X8438781Y-2091578D02*
G01*
X8238782Y-2091578D01*
X8238782Y-2337826D01*
X8438781Y-2337826D02*
G01*
X8238782Y-2337826D01*
X8438781Y-2691477D02*
G01*
X8438781Y-2936219D01*
X8438781Y-2936219D02*
G01*
X8238782Y-2936219D01*
X8238782Y-2691477D01*
X8438781Y-2691477D02*
G01*
X8238782Y-2691477D01*
X7083714Y-2926283D02*
G01*
X7083714Y-2904462D01*
X7083714Y-2824772D02*
G01*
X7083714Y-2654449D01*
X7083714Y-2574759D02*
G01*
X7083714Y-2454450D01*
X7083714Y-2374760D02*
G01*
X7083714Y-2204402D01*
X7083714Y-2124834D02*
G01*
X7083714Y-2102952D01*
X6301077Y-2298001D02*
G01*
X6221074Y-2298001D01*
X6332062Y-2187026D02*
G01*
X6332062Y-2267023D01*
X6190096Y-2187026D02*
G01*
X6190096Y-2267023D01*
X6332644Y-2129436D02*
G01*
X6332644Y-2049437D01*
X6301661Y-2018454D02*
G01*
X6221663Y-2018454D01*
X6190683Y-2129436D02*
G01*
X6190683Y-2049437D01*
X2045398Y-2935577D02*
G01*
X2045398Y-2855574D01*
X2156373Y-2966562D02*
G01*
X2076376Y-2966562D01*
X2156373Y-2824596D02*
G01*
X2076376Y-2824596D01*
X2213963Y-2967144D02*
G01*
X2293962Y-2967144D01*
X2324945Y-2936161D02*
G01*
X2324945Y-2856163D01*
X2213963Y-2825183D02*
G01*
X2293962Y-2825183D01*
X6120701Y-2220622D02*
G01*
X6120701Y-2300625D01*
X6009726Y-2189637D02*
G01*
X6089723Y-2189637D01*
X6009726Y-2331603D02*
G01*
X6089723Y-2331603D01*
X5952136Y-2189055D02*
G01*
X5872137Y-2189055D01*
X5841154Y-2220038D02*
G01*
X5841154Y-2300036D01*
X5952136Y-2331016D02*
G01*
X5872137Y-2331016D01*
X6133401Y-2030122D02*
G01*
X6133401Y-2110125D01*
X6022426Y-1999137D02*
G01*
X6102423Y-1999137D01*
X6022426Y-2141103D02*
G01*
X6102423Y-2141103D01*
X5964836Y-1998555D02*
G01*
X5884837Y-1998555D01*
X5853854Y-2029538D02*
G01*
X5853854Y-2109536D01*
X5964836Y-2140516D02*
G01*
X5884837Y-2140516D01*
D12*
X6516324Y-2574521D02*
G01*
X6516324Y-2553898D01*
X6516324Y-2429278D02*
G01*
X6516324Y-2448900D01*
D10*
X6341079Y-2429278D02*
G01*
X6516324Y-2429278D01*
X6341079Y-2574521D02*
G01*
X6516324Y-2574521D01*
X6381523Y-2429278D02*
G01*
X6381523Y-2574521D01*
X5156860Y-1791080D02*
G01*
X5511139Y-1791080D01*
X5511139Y-2806319D01*
X5156860Y-2806319D01*
X5156860Y-1791080D01*
D11*
X4815824Y-3847223D02*
G01*
X4757409Y-4352688D01*
X4571987Y-4352688D01*
X4513821Y-3847988D01*
X4547097Y-3845445D01*
X4612624Y-4301888D01*
X4706609Y-4301888D01*
X4785344Y-3842146D01*
X4815824Y-3847223D01*
X4556744Y-3938666D02*
G01*
X4765024Y-3938666D01*
X4589767Y-4113923D02*
G01*
X4734544Y-4113923D01*
X4142724Y-4119003D02*
G01*
X4287509Y-4119003D01*
X4109709Y-3943746D02*
G01*
X4317987Y-3943746D01*
X4368787Y-3852303D02*
G01*
X4338309Y-3847223D01*
X4259567Y-4306966D01*
X4165587Y-4306966D01*
X4100055Y-3850530D01*
X4066778Y-3853065D01*
X4124944Y-4357766D01*
X4310367Y-4357766D01*
X4368787Y-3852303D01*
X3733800Y-3090303D02*
G01*
X5156200Y-3090303D01*
X5156200Y-4512703D01*
X3733800Y-4512703D01*
X3733800Y-3090303D01*
X2987024Y-3847223D02*
G01*
X2928609Y-4352688D01*
X2743187Y-4352688D01*
X2685021Y-3847988D01*
X2718297Y-3845445D01*
X2783824Y-4301888D01*
X2877809Y-4301888D01*
X2956544Y-3842146D01*
X2987024Y-3847223D01*
X2727944Y-3938666D02*
G01*
X2936224Y-3938666D01*
X2760967Y-4113923D02*
G01*
X2905744Y-4113923D01*
X2313924Y-4119003D02*
G01*
X2458709Y-4119003D01*
X2280909Y-3943746D02*
G01*
X2489187Y-3943746D01*
X2539987Y-3852303D02*
G01*
X2509509Y-3847223D01*
X2430767Y-4306966D01*
X2336787Y-4306966D01*
X2271255Y-3850530D01*
X2237978Y-3853065D01*
X2296144Y-4357766D01*
X2481567Y-4357766D01*
X2539987Y-3852303D01*
X1905000Y-3090303D02*
G01*
X3327400Y-3090303D01*
X3327400Y-4512703D01*
X1905000Y-4512703D01*
X1905000Y-3090303D01*
G75*
G01*
X4153751Y-2910761D02*
G02*
X4122768Y-2941744I-30983J0D01*
G75*
G01*
X4122768Y-2799778D02*
G02*
X4153751Y-2830764I0J-30983D01*
G75*
G01*
X3905181Y-2941163D02*
G02*
X3874199Y-2910177I0J30983D01*
G75*
G01*
X3874199Y-2830180D02*
G02*
X3905181Y-2799197I30982J0D01*
G75*
G01*
X6301661Y-2018449D02*
G02*
X6332644Y-2049432I0J-30983D01*
G75*
G01*
X6190678Y-2049432D02*
G02*
X6221664Y-2018449I30983J0D01*
G75*
G01*
X6332063Y-2267019D02*
G02*
X6301077Y-2298001I-30983J0D01*
G75*
G01*
X6221080Y-2298001D02*
G02*
X6190097Y-2267019I0J30982D01*
G75*
G01*
X2324951Y-2936161D02*
G02*
X2293968Y-2967144I-30983J0D01*
G75*
G01*
X2293968Y-2825178D02*
G02*
X2324951Y-2856164I0J-30983D01*
G75*
G01*
X2076381Y-2966563D02*
G02*
X2045399Y-2935577I0J30983D01*
G75*
G01*
X2045399Y-2855580D02*
G02*
X2076381Y-2824597I30982J0D01*
G75*
G01*
X5841149Y-2220039D02*
G02*
X5872132Y-2189056I30983J0D01*
G75*
G01*
X5872132Y-2331022D02*
G02*
X5841149Y-2300036I0J30983D01*
G75*
G01*
X6089719Y-2189637D02*
G02*
X6120701Y-2220623I0J-30983D01*
G75*
G01*
X6120701Y-2300620D02*
G02*
X6089719Y-2331603I-30982J0D01*
G75*
G01*
X5853849Y-2029539D02*
G02*
X5884832Y-1998556I30983J0D01*
G75*
G01*
X5884832Y-2140522D02*
G02*
X5853849Y-2109536I0J30983D01*
G75*
G01*
X6102419Y-1999137D02*
G02*
X6133401Y-2030123I0J-30983D01*
G75*
G01*
X6133401Y-2110120D02*
G02*
X6102419Y-2141103I-30982J0D01*
D13*
G75*
G01
X5247107Y-1854200D02*
G03X5247107Y-1854200I-15011J0D01*
G75*
G01
X5061763Y-1780972D02*
G03X5061763Y-1780972I-15011J0D01*
M02*
