%TF.GenerationSoftware,KiCad,Pcbnew,8.0.8*%
%TF.CreationDate,2025-05-01T15:14:40+05:30*%
%TF.ProjectId,smart_ringfinal,736d6172-745f-4726-996e-6766696e616c,rev?*%
%TF.SameCoordinates,Original*%
%TF.FileFunction,Drillmap*%
%TF.FilePolarity,Positive*%
%FSLAX45Y45*%
G04 Gerber Fmt 4.5, Leading zero omitted, Abs format (unit mm)*
G04 Created by KiCad (PCBNEW 8.0.8) date 2025-05-01 15:14:40*
%MOMM*%
%LPD*%
G01*
G04 APERTURE LIST*
%ADD10C,0.050000*%
%ADD11C,0.200000*%
G04 APERTURE END LIST*
D10*
X10604500Y-11703000D02*
X14206500Y-11703000D01*
X14206500Y-18040500D01*
X10604500Y-18040500D01*
X10604500Y-11703000D01*
D11*
X10862777Y-18354484D02*
X10862777Y-18154484D01*
X10862777Y-18154484D02*
X10910396Y-18154484D01*
X10910396Y-18154484D02*
X10938967Y-18164008D01*
X10938967Y-18164008D02*
X10958015Y-18183055D01*
X10958015Y-18183055D02*
X10967539Y-18202103D01*
X10967539Y-18202103D02*
X10977063Y-18240198D01*
X10977063Y-18240198D02*
X10977063Y-18268770D01*
X10977063Y-18268770D02*
X10967539Y-18306865D01*
X10967539Y-18306865D02*
X10958015Y-18325912D01*
X10958015Y-18325912D02*
X10938967Y-18344960D01*
X10938967Y-18344960D02*
X10910396Y-18354484D01*
X10910396Y-18354484D02*
X10862777Y-18354484D01*
X11062777Y-18354484D02*
X11062777Y-18221150D01*
X11062777Y-18259246D02*
X11072301Y-18240198D01*
X11072301Y-18240198D02*
X11081824Y-18230674D01*
X11081824Y-18230674D02*
X11100872Y-18221150D01*
X11100872Y-18221150D02*
X11119920Y-18221150D01*
X11186586Y-18354484D02*
X11186586Y-18221150D01*
X11186586Y-18154484D02*
X11177063Y-18164008D01*
X11177063Y-18164008D02*
X11186586Y-18173531D01*
X11186586Y-18173531D02*
X11196110Y-18164008D01*
X11196110Y-18164008D02*
X11186586Y-18154484D01*
X11186586Y-18154484D02*
X11186586Y-18173531D01*
X11310396Y-18354484D02*
X11291348Y-18344960D01*
X11291348Y-18344960D02*
X11281824Y-18325912D01*
X11281824Y-18325912D02*
X11281824Y-18154484D01*
X11415158Y-18354484D02*
X11396110Y-18344960D01*
X11396110Y-18344960D02*
X11386586Y-18325912D01*
X11386586Y-18325912D02*
X11386586Y-18154484D01*
X11643729Y-18354484D02*
X11643729Y-18154484D01*
X11643729Y-18154484D02*
X11710396Y-18297341D01*
X11710396Y-18297341D02*
X11777062Y-18154484D01*
X11777062Y-18154484D02*
X11777062Y-18354484D01*
X11958015Y-18354484D02*
X11958015Y-18249722D01*
X11958015Y-18249722D02*
X11948491Y-18230674D01*
X11948491Y-18230674D02*
X11929443Y-18221150D01*
X11929443Y-18221150D02*
X11891348Y-18221150D01*
X11891348Y-18221150D02*
X11872301Y-18230674D01*
X11958015Y-18344960D02*
X11938967Y-18354484D01*
X11938967Y-18354484D02*
X11891348Y-18354484D01*
X11891348Y-18354484D02*
X11872301Y-18344960D01*
X11872301Y-18344960D02*
X11862777Y-18325912D01*
X11862777Y-18325912D02*
X11862777Y-18306865D01*
X11862777Y-18306865D02*
X11872301Y-18287817D01*
X11872301Y-18287817D02*
X11891348Y-18278293D01*
X11891348Y-18278293D02*
X11938967Y-18278293D01*
X11938967Y-18278293D02*
X11958015Y-18268770D01*
X12053253Y-18221150D02*
X12053253Y-18421150D01*
X12053253Y-18230674D02*
X12072301Y-18221150D01*
X12072301Y-18221150D02*
X12110396Y-18221150D01*
X12110396Y-18221150D02*
X12129443Y-18230674D01*
X12129443Y-18230674D02*
X12138967Y-18240198D01*
X12138967Y-18240198D02*
X12148491Y-18259246D01*
X12148491Y-18259246D02*
X12148491Y-18316389D01*
X12148491Y-18316389D02*
X12138967Y-18335436D01*
X12138967Y-18335436D02*
X12129443Y-18344960D01*
X12129443Y-18344960D02*
X12110396Y-18354484D01*
X12110396Y-18354484D02*
X12072301Y-18354484D01*
X12072301Y-18354484D02*
X12053253Y-18344960D01*
X12234205Y-18335436D02*
X12243729Y-18344960D01*
X12243729Y-18344960D02*
X12234205Y-18354484D01*
X12234205Y-18354484D02*
X12224682Y-18344960D01*
X12224682Y-18344960D02*
X12234205Y-18335436D01*
X12234205Y-18335436D02*
X12234205Y-18354484D01*
X12234205Y-18230674D02*
X12243729Y-18240198D01*
X12243729Y-18240198D02*
X12234205Y-18249722D01*
X12234205Y-18249722D02*
X12224682Y-18240198D01*
X12224682Y-18240198D02*
X12234205Y-18230674D01*
X12234205Y-18230674D02*
X12234205Y-18249722D01*
M02*
