<?xml version="1.0" standalone="no"?>
<!DOCTYPE svg PUBLIC "-//W3C//DTD SVG 1.1//EN" "http://www.w3.org/Graphics/SVG/1.1/DTD/svg11.dtd">
<svg width="70mm" height="13mm" viewBox="0 -10 70 13" xmlns="http://www.w3.org/2000/svg" version="1.1">
<title>OpenSCAD Model</title>
<path d="
M 5.49008,-0.0240784 L 5.97545,-0.0960846 L 6.45142,-0.215302 L 6.91341,-0.380615 L 7.35698,-0.590408 L 7.77785,-0.842667
 L 8.17195,-1.13495 L 8.53552,-1.46448 L 8.86505,-1.82805 L 9.15733,-2.22215 L 9.40959,-2.64302 L 9.61938,-3.08659
 L 9.7847,-3.54858 L 9.90392,-4.02455 L 9.97592,-4.50992 L 10,-5 L 9.97592,-5.49008 L 9.90392,-5.97545
 L 9.7847,-6.45142 L 9.61938,-6.91341 L 9.40959,-7.35698 L 9.15733,-7.77785 L 8.86505,-8.17195 L 8.53552,-8.53552
 L 8.17195,-8.86505 L 7.77785,-9.15733 L 7.35698,-9.40959 L 6.91341,-9.61938 L 6.45142,-9.7847 L 5.97545,-9.90392
 L 5.49008,-9.97592 L 5,-10 L 4.50992,-9.97592 L 4.02455,-9.90392 L 3.54858,-9.7847 L 3.08659,-9.61938
 L 2.64302,-9.40959 L 2.22215,-9.15733 L 1.82805,-8.86505 L 1.46448,-8.53552 L 1.13495,-8.17195 L 0.842667,-7.77785
 L 0.590408,-7.35698 L 0.380615,-6.91341 L 0.215302,-6.45142 L 0.0960846,-5.97545 L 0.0240784,-5.49008 L 0,-5
 L 0.0240784,-4.50992 L 0.0960846,-4.02455 L 0.215302,-3.54858 L 0.380615,-3.08659 L 0.590408,-2.64302 L 0.842667,-2.22215
 L 1.13495,-1.82805 L 1.46448,-1.46448 L 1.82805,-1.13495 L 2.22215,-0.842667 L 2.64302,-0.590408 L 3.08659,-0.380615
 L 3.54858,-0.215302 L 4.02455,-0.0960846 L 4.50992,-0.0240784 L 5,-0 z
M 3.5,-2.40193 L 2,-5 L 3.5,-7.59807 L 6.5,-7.59807 L 8,-5 L 6.5,-2.40193
 z
M 62.4641,-2.76599 L 66.8181,-2.76599 L 67.9101,-0 L 69.2321,-0 L 65.3941,-9.536 L 63.9221,-9.536
 L 60.0231,-0 L 61.3661,-0 z
M 62.8581,-3.77599 L 64.0781,-6.922 L 64.234,-7.34355 L 64.3696,-7.72523 L 64.485,-8.06706 L 64.5801,-8.36899
 L 64.6411,-8.55899 L 64.8241,-7.995 L 64.9191,-7.70712 L 65.0141,-7.43449 L 65.1091,-7.17712 L 65.2041,-6.935
 L 66.4311,-3.77599 z
M 55.5854,-0.0368042 L 56.2159,-0.147247 L 56.8058,-0.331299 L 57.3552,-0.588989 L 57.854,-0.915802 L 58.2927,-1.30724
 L 58.671,-1.76331 L 58.9892,-2.284 L 59.2416,-2.86049 L 59.4219,-3.48299 L 59.5301,-4.15149 L 59.5662,-4.866
 L 59.4837,-5.92194 L 59.2364,-6.84975 L 58.8242,-7.64943 L 58.2472,-8.321 L 57.5184,-8.85255 L 56.6509,-9.23224
 L 55.6449,-9.46005 L 54.5002,-9.536 L 51.3402,-9.536 L 51.3402,-0 L 54.9142,-0 z
M 52.6352,-1.03799 L 52.6352,-8.49799 L 54.4732,-8.49799 L 55.3412,-8.43987 L 56.1002,-8.26549 L 56.7502,-7.97487
 L 57.2912,-7.56799 L 57.7169,-7.05037 L 58.0209,-6.42749 L 58.2034,-5.69937 L 58.2642,-4.866 L 58.2374,-4.29694
 L 58.1572,-3.76674 L 58.0234,-3.27544 L 57.8362,-2.823 L 57.5995,-2.4158 L 57.3167,-2.05925 L 56.9875,-1.75331
 L 56.6122,-1.49799 L 56.1982,-1.29674 L 55.7524,-1.153 L 55.2747,-1.06674 L 54.7652,-1.03799 z
M 49.8203,-1.058 L 43.5883,-1.058 L 43.5883,-4.396 L 49.1363,-4.396 L 49.1363,-5.43999 L 43.5883,-5.43999
 L 43.5883,-8.478 L 49.5423,-8.478 L 49.5423,-9.536 L 42.2933,-9.536 L 42.2933,-0 L 49.8203,-0
 z
M 19.666,-1.058 L 13.434,-1.058 L 13.434,-4.396 L 18.982,-4.396 L 18.982,-5.43999 L 13.434,-5.43999
 L 13.434,-8.478 L 19.388,-8.478 L 19.388,-9.536 L 12.139,-9.536 L 12.139,-0 L 19.666,-0
 z
M 23.2816,0.106186 L 23.6756,0.040741 L 24.0361,-0.0682983 L 24.3629,-0.220993 L 24.6634,-0.426743 L 24.9449,-0.693985
 L 25.2074,-1.02274 L 25.4509,-1.41299 L 25.4919,-1.41299 L 25.5291,-1.05724 L 25.5996,-0.751999 L 25.7036,-0.497238
 L 25.8409,-0.292999 L 26.0184,-0.13681 L 26.2421,-0.025238 L 26.5119,0.041687 L 26.8279,0.0639954 L 27.0676,0.0571747
 L 27.3046,0.0367432 L 27.5391,0.00268555 L 27.7709,-0.0449982 L 27.7709,-0.803986 L 27.6619,-0.783432 L 27.5589,-0.768738
 L 27.4619,-0.759933 L 27.3709,-0.756989 L 27.1869,-0.774185 L 27.0351,-0.825745 L 26.9154,-0.911682 L 26.8279,-1.032
 L 26.7657,-1.18631 L 26.7214,-1.37424 L 26.6947,-1.59581 L 26.6859,-1.851 L 26.6859,-5.01599 L 26.6422,-5.58156
 L 26.5111,-6.07625 L 26.2927,-6.50006 L 25.9869,-6.853 L 25.595,-7.1308 L 25.1174,-7.32924 L 24.554,-7.4483
 L 23.9049,-7.48799 L 22.7343,-7.36324 L 21.8536,-6.989 L 21.2628,-6.36525 L 20.9619,-5.49199 L 22.2369,-5.37599
 L 22.293,-5.66443 L 22.3864,-5.91074 L 22.517,-6.11493 L 22.6849,-6.27699 L 22.8993,-6.40036 L 23.1696,-6.48849
 L 23.4958,-6.54137 L 23.8779,-6.55899 L 24.2577,-6.53468 L 24.5834,-6.46175 L 24.8547,-6.34018 L 25.0719,-6.17
 L 25.2381,-5.94398 L 25.3569,-5.65399 L 25.4281,-5.29999 L 25.4519,-4.88199 L 25.4519,-4.48 L 23.8039,-4.45299
 L 23.0272,-4.39693 L 22.3654,-4.26974 L 21.8182,-4.07143 L 21.3859,-3.80199 L 21.0582,-3.46399 L 20.8241,-3.06
 L 20.6837,-2.59 L 20.6369,-2.05399 L 20.6716,-1.57306 L 20.7759,-1.14624 L 20.9496,-0.77356 L 21.1929,-0.454987
 L 21.5052,-0.199936 L 21.8861,-0.017746 L 22.3357,0.0915527 L 22.8539,0.127991 z
M 22.8516,-0.807312 L 22.6046,-0.86824 L 22.3921,-0.969803 L 22.2139,-1.112 L 22.073,-1.29149 L 21.9724,-1.50499
 L 21.912,-1.75249 L 21.8919,-2.034 L 21.9067,-2.2953 L 21.9511,-2.53024 L 22.0252,-2.7388 L 22.1289,-2.92099
 L 22.2607,-3.07944 L 22.4184,-3.21574 L 22.6017,-3.32993 L 22.8109,-3.422 L 23.0589,-3.49419 L 23.3591,-3.54774
 L 23.7114,-3.58269 L 24.1159,-3.599 L 25.4519,-3.62599 L 25.4519,-3.02299 L 25.433,-2.74387 L 25.3764,-2.46849
 L 25.282,-2.19687 L 25.1499,-1.92899 L 24.9851,-1.67719 L 24.7929,-1.45374 L 24.5731,-1.25868 L 24.3259,-1.092
 L 24.0556,-0.958557 L 23.7666,-0.863235 L 23.4591,-0.806061 L 23.1329,-0.786987 z
M 31.7211,0.0929871 L 32.3088,-0.0119934 L 32.8181,-0.186996 L 33.2488,-0.431992 L 33.5914,-0.741562 L 33.8361,-1.11024
 L 33.9829,-1.53806 L 34.0318,-2.02499 L 34.0233,-2.22874 L 33.9978,-2.42099 L 33.9553,-2.60175 L 33.8958,-2.771
 L 33.8213,-2.92969 L 33.7326,-3.07874 L 33.6298,-3.21819 L 33.5128,-3.34799 L 33.378,-3.47018 L 33.2206,-3.58675
 L 33.0405,-3.69768 L 32.8378,-3.80299 L 32.5905,-3.90831 L 32.2753,-4.01825 L 31.8925,-4.13281 L 31.4418,-4.252
 L 30.9739,-4.37024 L 30.5941,-4.47499 L 30.3024,-4.56624 L 30.0988,-4.644 L 29.9491,-4.71875 L 29.8188,-4.80099
 L 29.7081,-4.89075 L 29.6168,-4.98799 L 29.546,-5.09618 L 29.4953,-5.21774 L 29.465,-5.35268 L 29.4548,-5.50099
 L 29.4794,-5.737 L 29.5531,-5.94099 L 29.6759,-6.11299 L 29.8478,-6.25299 L 30.0719,-6.36192 L 30.3501,-6.43974
 L 30.6824,-6.48643 L 31.0688,-6.502 L 31.423,-6.48569 L 31.7393,-6.43674 L 32.018,-6.35518 L 32.2588,-6.241
 L 32.4595,-6.09624 L 32.6173,-5.92299 L 32.7325,-5.72124 L 32.8048,-5.491 L 33.9028,-5.627 L 33.775,-6.06581
 L 33.5813,-6.44025 L 33.322,-6.75031 L 32.9968,-6.99599 L 32.6082,-7.18324 L 32.1573,-7.31699 L 31.6442,-7.39725
 L 31.0688,-7.424 L 30.4247,-7.39131 L 29.8623,-7.29324 L 29.3817,-7.12981 L 28.9828,-6.90099 L 28.67,-6.60974
 L 28.4466,-6.25899 L 28.3125,-5.84874 L 28.2678,-5.379 L 28.2835,-5.11955 L 28.3306,-4.88124 L 28.409,-4.66406
 L 28.5188,-4.46799 L 28.6564,-4.28943 L 28.8181,-4.12474 L 29.0039,-3.97392 L 29.2138,-3.83699 L 29.4738,-3.70636
 L 29.8096,-3.57449 L 30.2213,-3.44136 L 30.7088,-3.30699 L 31.5838,-3.077 L 31.893,-2.98355 L 32.1563,-2.87823
 L 32.374,-2.76105 L 32.5458,-2.63199 L 32.6767,-2.48686 L 32.7701,-2.32149 L 32.8261,-2.13586 L 32.8448,-1.92999
 L 32.8179,-1.66556 L 32.7371,-1.43625 L 32.6024,-1.24205 L 32.4138,-1.08299 L 32.1676,-0.95961 L 31.8591,-0.87149
 L 31.4881,-0.818619 L 31.0548,-0.800995 L 30.6446,-0.818176 L 30.2818,-0.869736 L 29.9666,-0.955673 L 29.6988,-1.07599
 L 29.4756,-1.23318 L 29.2938,-1.42975 L 29.1536,-1.66568 L 29.0548,-1.94099 L 27.9768,-1.73099 L 28.1212,-1.28412
 L 28.3303,-0.900497 L 28.6042,-0.580124 L 28.9428,-0.322998 L 29.3535,-0.125687 L 29.8423,0.0152435 L 30.4095,0.0998077
 L 31.0548,0.127991 z
M 35.9612,2.86243 L 36.2396,2.80974 L 36.5022,2.72192 L 36.7491,2.599 L 36.9828,2.44025 L 37.2058,2.245
 L 37.4182,2.01324 L 37.6201,1.745 L 37.8208,1.42105 L 38.0291,1.02225 L 38.2448,0.548553 L 38.4681,-0
 L 41.2891,-7.35999 L 40.0001,-7.35999 L 38.3931,-2.67 L 37.9191,-1.32899 L 37.8942,-1.41475 L 37.8396,-1.584
 L 37.7552,-1.83675 L 37.6411,-2.17299 L 37.5252,-2.51199 L 37.4356,-2.77299 L 37.3722,-2.95599 L 37.3124,-3.12512
 L 37.2719,-3.23912 L 37.2541,-3.28899 L 35.7081,-7.35999 L 34.4061,-7.35999 L 37.3151,-0.0339966 L 37.2001,0.256989
 L 36.8379,0.989365 L 36.4166,1.5125 L 35.9359,1.82637 L 35.3961,1.931 L 35.2434,1.92844 L 35.0976,1.92075
 L 34.9584,1.90793 L 34.8261,1.89 L 34.8261,2.80499 L 35.0058,2.8378 L 35.2058,2.86124 L 35.4263,2.87531
 L 35.6671,2.87999 z
" stroke="black" fill="lightgray" stroke-width="0.5"/>
</svg>
