G04 #@! TF.GenerationSoftware,KiCad,Pcbnew,6.0.11-2627ca5db0~126~ubuntu22.04.1*
G04 #@! TF.CreationDate,2023-06-19T15:46:02-07:00*
G04 #@! TF.ProjectId,VL53L1x_pwm,564c3533-4c31-4785-9f70-776d2e6b6963,rev?*
G04 #@! TF.SameCoordinates,Original*
G04 #@! TF.FileFunction,Legend,Bot*
G04 #@! TF.FilePolarity,Positive*
%FSLAX46Y46*%
G04 Gerber Fmt 4.6, Leading zero omitted, Abs format (unit mm)*
G04 Created by KiCad (PCBNEW 6.0.11-2627ca5db0~126~ubuntu22.04.1) date 2023-06-19 15:46:02*
%MOMM*%
%LPD*%
G01*
G04 APERTURE LIST*
%ADD10C,0.187500*%
%ADD11C,0.312500*%
%ADD12C,0.125000*%
%ADD13C,0.250000*%
%ADD14C,0.010000*%
G04 APERTURE END LIST*
D10*
X137678571Y-103589285D02*
X137214285Y-103589285D01*
X137464285Y-103875000D01*
X137357142Y-103875000D01*
X137285714Y-103910714D01*
X137250000Y-103946428D01*
X137214285Y-104017857D01*
X137214285Y-104196428D01*
X137250000Y-104267857D01*
X137285714Y-104303571D01*
X137357142Y-104339285D01*
X137571428Y-104339285D01*
X137642857Y-104303571D01*
X137678571Y-104267857D01*
X136964285Y-103839285D02*
X136785714Y-104339285D01*
X136607142Y-103839285D01*
X135178571Y-103839285D02*
X135750000Y-104053571D01*
X135178571Y-104267857D01*
X134357142Y-103589285D02*
X134107142Y-104339285D01*
X133857142Y-103589285D01*
X133178571Y-104267857D02*
X133214285Y-104303571D01*
X133321428Y-104339285D01*
X133392857Y-104339285D01*
X133500000Y-104303571D01*
X133571428Y-104232142D01*
X133607142Y-104160714D01*
X133642857Y-104017857D01*
X133642857Y-103910714D01*
X133607142Y-103767857D01*
X133571428Y-103696428D01*
X133500000Y-103625000D01*
X133392857Y-103589285D01*
X133321428Y-103589285D01*
X133214285Y-103625000D01*
X133178571Y-103660714D01*
X132428571Y-104267857D02*
X132464285Y-104303571D01*
X132571428Y-104339285D01*
X132642857Y-104339285D01*
X132750000Y-104303571D01*
X132821428Y-104232142D01*
X132857142Y-104160714D01*
X132892857Y-104017857D01*
X132892857Y-103910714D01*
X132857142Y-103767857D01*
X132821428Y-103696428D01*
X132750000Y-103625000D01*
X132642857Y-103589285D01*
X132571428Y-103589285D01*
X132464285Y-103625000D01*
X132428571Y-103660714D01*
X130964285Y-103839285D02*
X131535714Y-104053571D01*
X130964285Y-104267857D01*
X129642857Y-104339285D02*
X130071428Y-104339285D01*
X129857142Y-104339285D02*
X129857142Y-103589285D01*
X129928571Y-103696428D01*
X130000000Y-103767857D01*
X130071428Y-103803571D01*
X129000000Y-103589285D02*
X129142857Y-103589285D01*
X129214285Y-103625000D01*
X129250000Y-103660714D01*
X129321428Y-103767857D01*
X129357142Y-103910714D01*
X129357142Y-104196428D01*
X129321428Y-104267857D01*
X129285714Y-104303571D01*
X129214285Y-104339285D01*
X129071428Y-104339285D01*
X129000000Y-104303571D01*
X128964285Y-104267857D01*
X128928571Y-104196428D01*
X128928571Y-104017857D01*
X128964285Y-103946428D01*
X129000000Y-103910714D01*
X129071428Y-103875000D01*
X129214285Y-103875000D01*
X129285714Y-103910714D01*
X129321428Y-103946428D01*
X129357142Y-104017857D01*
X128678571Y-103839285D02*
X128500000Y-104339285D01*
X128321428Y-103839285D01*
D11*
X129875000Y-110702380D02*
X129934523Y-110821428D01*
X129934523Y-111000000D01*
X129875000Y-111178571D01*
X129755952Y-111297619D01*
X129636904Y-111357142D01*
X129398809Y-111416666D01*
X129220238Y-111416666D01*
X128982142Y-111357142D01*
X128863095Y-111297619D01*
X128744047Y-111178571D01*
X128684523Y-111000000D01*
X128684523Y-110880952D01*
X128744047Y-110702380D01*
X128803571Y-110642857D01*
X129220238Y-110642857D01*
X129220238Y-110880952D01*
X128684523Y-110107142D02*
X129934523Y-110107142D01*
X128684523Y-109392857D01*
X129934523Y-109392857D01*
X128684523Y-108797619D02*
X129934523Y-108797619D01*
X129934523Y-108500000D01*
X129875000Y-108321428D01*
X129755952Y-108202380D01*
X129636904Y-108142857D01*
X129398809Y-108083333D01*
X129220238Y-108083333D01*
X128982142Y-108142857D01*
X128863095Y-108202380D01*
X128744047Y-108321428D01*
X128684523Y-108500000D01*
X128684523Y-108797619D01*
X133934523Y-111505952D02*
X135184523Y-111505952D01*
X135184523Y-111029761D01*
X135125000Y-110910714D01*
X135065476Y-110851190D01*
X134946428Y-110791666D01*
X134767857Y-110791666D01*
X134648809Y-110851190D01*
X134589285Y-110910714D01*
X134529761Y-111029761D01*
X134529761Y-111505952D01*
X135184523Y-110375000D02*
X133934523Y-110077380D01*
X134827380Y-109839285D01*
X133934523Y-109601190D01*
X135184523Y-109303571D01*
X133934523Y-108827380D02*
X135184523Y-108827380D01*
X134291666Y-108410714D01*
X135184523Y-107994047D01*
X133934523Y-107994047D01*
D12*
X147926309Y-103976190D02*
X148426309Y-103976190D01*
X148426309Y-103857142D01*
X148402500Y-103785714D01*
X148354880Y-103738095D01*
X148307261Y-103714285D01*
X148212023Y-103690476D01*
X148140595Y-103690476D01*
X148045357Y-103714285D01*
X147997738Y-103738095D01*
X147950119Y-103785714D01*
X147926309Y-103857142D01*
X147926309Y-103976190D01*
X147926309Y-103404761D02*
X147950119Y-103452380D01*
X147973928Y-103476190D01*
X148021547Y-103500000D01*
X148164404Y-103500000D01*
X148212023Y-103476190D01*
X148235833Y-103452380D01*
X148259642Y-103404761D01*
X148259642Y-103333333D01*
X148235833Y-103285714D01*
X148212023Y-103261904D01*
X148164404Y-103238095D01*
X148021547Y-103238095D01*
X147973928Y-103261904D01*
X147950119Y-103285714D01*
X147926309Y-103333333D01*
X147926309Y-103404761D01*
X148259642Y-103023809D02*
X147926309Y-103023809D01*
X148212023Y-103023809D02*
X148235833Y-103000000D01*
X148259642Y-102952380D01*
X148259642Y-102880952D01*
X148235833Y-102833333D01*
X148188214Y-102809523D01*
X147926309Y-102809523D01*
X148426309Y-102547619D02*
X148331071Y-102595238D01*
X148259642Y-102404761D02*
X148259642Y-102214285D01*
X148426309Y-102333333D02*
X147997738Y-102333333D01*
X147950119Y-102309523D01*
X147926309Y-102261904D01*
X147926309Y-102214285D01*
X148259642Y-101738095D02*
X148259642Y-101547619D01*
X147926309Y-101666666D02*
X148354880Y-101666666D01*
X148402500Y-101642857D01*
X148426309Y-101595238D01*
X148426309Y-101547619D01*
X147926309Y-101309523D02*
X147950119Y-101357142D01*
X147973928Y-101380952D01*
X148021547Y-101404761D01*
X148164404Y-101404761D01*
X148212023Y-101380952D01*
X148235833Y-101357142D01*
X148259642Y-101309523D01*
X148259642Y-101238095D01*
X148235833Y-101190476D01*
X148212023Y-101166666D01*
X148164404Y-101142857D01*
X148021547Y-101142857D01*
X147973928Y-101166666D01*
X147950119Y-101190476D01*
X147926309Y-101238095D01*
X147926309Y-101309523D01*
X147926309Y-100928571D02*
X148259642Y-100928571D01*
X148164404Y-100928571D02*
X148212023Y-100904761D01*
X148235833Y-100880952D01*
X148259642Y-100833333D01*
X148259642Y-100785714D01*
X148259642Y-100404761D02*
X147854880Y-100404761D01*
X147807261Y-100428571D01*
X147783452Y-100452380D01*
X147759642Y-100500000D01*
X147759642Y-100571428D01*
X147783452Y-100619047D01*
X147950119Y-100404761D02*
X147926309Y-100452380D01*
X147926309Y-100547619D01*
X147950119Y-100595238D01*
X147973928Y-100619047D01*
X148021547Y-100642857D01*
X148164404Y-100642857D01*
X148212023Y-100619047D01*
X148235833Y-100595238D01*
X148259642Y-100547619D01*
X148259642Y-100452380D01*
X148235833Y-100404761D01*
X147950119Y-99976190D02*
X147926309Y-100023809D01*
X147926309Y-100119047D01*
X147950119Y-100166666D01*
X147997738Y-100190476D01*
X148188214Y-100190476D01*
X148235833Y-100166666D01*
X148259642Y-100119047D01*
X148259642Y-100023809D01*
X148235833Y-99976190D01*
X148188214Y-99952380D01*
X148140595Y-99952380D01*
X148092976Y-100190476D01*
X148259642Y-99809523D02*
X148259642Y-99619047D01*
X148426309Y-99738095D02*
X147997738Y-99738095D01*
X147950119Y-99714285D01*
X147926309Y-99666666D01*
X147926309Y-99619047D01*
X148259642Y-99142857D02*
X148259642Y-98952380D01*
X148426309Y-99071428D02*
X147997738Y-99071428D01*
X147950119Y-99047619D01*
X147926309Y-99000000D01*
X147926309Y-98952380D01*
X147926309Y-98714285D02*
X147950119Y-98761904D01*
X147973928Y-98785714D01*
X148021547Y-98809523D01*
X148164404Y-98809523D01*
X148212023Y-98785714D01*
X148235833Y-98761904D01*
X148259642Y-98714285D01*
X148259642Y-98642857D01*
X148235833Y-98595238D01*
X148212023Y-98571428D01*
X148164404Y-98547619D01*
X148021547Y-98547619D01*
X147973928Y-98571428D01*
X147950119Y-98595238D01*
X147926309Y-98642857D01*
X147926309Y-98714285D01*
X147926309Y-97952380D02*
X148259642Y-97952380D01*
X148164404Y-97952380D02*
X148212023Y-97928571D01*
X148235833Y-97904761D01*
X148259642Y-97857142D01*
X148259642Y-97809523D01*
X147950119Y-97452380D02*
X147926309Y-97500000D01*
X147926309Y-97595238D01*
X147950119Y-97642857D01*
X147997738Y-97666666D01*
X148188214Y-97666666D01*
X148235833Y-97642857D01*
X148259642Y-97595238D01*
X148259642Y-97500000D01*
X148235833Y-97452380D01*
X148188214Y-97428571D01*
X148140595Y-97428571D01*
X148092976Y-97666666D01*
X147926309Y-97214285D02*
X148259642Y-97214285D01*
X148212023Y-97214285D02*
X148235833Y-97190476D01*
X148259642Y-97142857D01*
X148259642Y-97071428D01*
X148235833Y-97023809D01*
X148188214Y-97000000D01*
X147926309Y-97000000D01*
X148188214Y-97000000D02*
X148235833Y-96976190D01*
X148259642Y-96928571D01*
X148259642Y-96857142D01*
X148235833Y-96809523D01*
X148188214Y-96785714D01*
X147926309Y-96785714D01*
X147926309Y-96476190D02*
X147950119Y-96523809D01*
X147973928Y-96547619D01*
X148021547Y-96571428D01*
X148164404Y-96571428D01*
X148212023Y-96547619D01*
X148235833Y-96523809D01*
X148259642Y-96476190D01*
X148259642Y-96404761D01*
X148235833Y-96357142D01*
X148212023Y-96333333D01*
X148164404Y-96309523D01*
X148021547Y-96309523D01*
X147973928Y-96333333D01*
X147950119Y-96357142D01*
X147926309Y-96404761D01*
X147926309Y-96476190D01*
X148259642Y-96142857D02*
X147926309Y-96023809D01*
X148259642Y-95904761D01*
X147950119Y-95523809D02*
X147926309Y-95571428D01*
X147926309Y-95666666D01*
X147950119Y-95714285D01*
X147997738Y-95738095D01*
X148188214Y-95738095D01*
X148235833Y-95714285D01*
X148259642Y-95666666D01*
X148259642Y-95571428D01*
X148235833Y-95523809D01*
X148188214Y-95500000D01*
X148140595Y-95500000D01*
X148092976Y-95738095D01*
X147454642Y-102595238D02*
X146954642Y-102595238D01*
X147430833Y-102595238D02*
X147454642Y-102547619D01*
X147454642Y-102452380D01*
X147430833Y-102404761D01*
X147407023Y-102380952D01*
X147359404Y-102357142D01*
X147216547Y-102357142D01*
X147168928Y-102380952D01*
X147145119Y-102404761D01*
X147121309Y-102452380D01*
X147121309Y-102547619D01*
X147145119Y-102595238D01*
X147121309Y-102142857D02*
X147454642Y-102142857D01*
X147359404Y-102142857D02*
X147407023Y-102119047D01*
X147430833Y-102095238D01*
X147454642Y-102047619D01*
X147454642Y-102000000D01*
X147121309Y-101761904D02*
X147145119Y-101809523D01*
X147168928Y-101833333D01*
X147216547Y-101857142D01*
X147359404Y-101857142D01*
X147407023Y-101833333D01*
X147430833Y-101809523D01*
X147454642Y-101761904D01*
X147454642Y-101690476D01*
X147430833Y-101642857D01*
X147407023Y-101619047D01*
X147359404Y-101595238D01*
X147216547Y-101595238D01*
X147168928Y-101619047D01*
X147145119Y-101642857D01*
X147121309Y-101690476D01*
X147121309Y-101761904D01*
X147454642Y-101452380D02*
X147454642Y-101261904D01*
X147621309Y-101380952D02*
X147192738Y-101380952D01*
X147145119Y-101357142D01*
X147121309Y-101309523D01*
X147121309Y-101261904D01*
X147145119Y-100904761D02*
X147121309Y-100952380D01*
X147121309Y-101047619D01*
X147145119Y-101095238D01*
X147192738Y-101119047D01*
X147383214Y-101119047D01*
X147430833Y-101095238D01*
X147454642Y-101047619D01*
X147454642Y-100952380D01*
X147430833Y-100904761D01*
X147383214Y-100880952D01*
X147335595Y-100880952D01*
X147287976Y-101119047D01*
X147145119Y-100452380D02*
X147121309Y-100500000D01*
X147121309Y-100595238D01*
X147145119Y-100642857D01*
X147168928Y-100666666D01*
X147216547Y-100690476D01*
X147359404Y-100690476D01*
X147407023Y-100666666D01*
X147430833Y-100642857D01*
X147454642Y-100595238D01*
X147454642Y-100500000D01*
X147430833Y-100452380D01*
X147454642Y-100309523D02*
X147454642Y-100119047D01*
X147621309Y-100238095D02*
X147192738Y-100238095D01*
X147145119Y-100214285D01*
X147121309Y-100166666D01*
X147121309Y-100119047D01*
X147121309Y-99952380D02*
X147454642Y-99952380D01*
X147621309Y-99952380D02*
X147597500Y-99976190D01*
X147573690Y-99952380D01*
X147597500Y-99928571D01*
X147621309Y-99952380D01*
X147573690Y-99952380D01*
X147454642Y-99761904D02*
X147121309Y-99642857D01*
X147454642Y-99523809D01*
X147145119Y-99142857D02*
X147121309Y-99190476D01*
X147121309Y-99285714D01*
X147145119Y-99333333D01*
X147192738Y-99357142D01*
X147383214Y-99357142D01*
X147430833Y-99333333D01*
X147454642Y-99285714D01*
X147454642Y-99190476D01*
X147430833Y-99142857D01*
X147383214Y-99119047D01*
X147335595Y-99119047D01*
X147287976Y-99357142D01*
X147454642Y-98595238D02*
X147454642Y-98404761D01*
X147621309Y-98523809D02*
X147192738Y-98523809D01*
X147145119Y-98500000D01*
X147121309Y-98452380D01*
X147121309Y-98404761D01*
X147121309Y-98023809D02*
X147383214Y-98023809D01*
X147430833Y-98047619D01*
X147454642Y-98095238D01*
X147454642Y-98190476D01*
X147430833Y-98238095D01*
X147145119Y-98023809D02*
X147121309Y-98071428D01*
X147121309Y-98190476D01*
X147145119Y-98238095D01*
X147192738Y-98261904D01*
X147240357Y-98261904D01*
X147287976Y-98238095D01*
X147311785Y-98190476D01*
X147311785Y-98071428D01*
X147335595Y-98023809D01*
X147454642Y-97785714D02*
X146954642Y-97785714D01*
X147430833Y-97785714D02*
X147454642Y-97738095D01*
X147454642Y-97642857D01*
X147430833Y-97595238D01*
X147407023Y-97571428D01*
X147359404Y-97547619D01*
X147216547Y-97547619D01*
X147168928Y-97571428D01*
X147145119Y-97595238D01*
X147121309Y-97642857D01*
X147121309Y-97738095D01*
X147145119Y-97785714D01*
X147145119Y-97142857D02*
X147121309Y-97190476D01*
X147121309Y-97285714D01*
X147145119Y-97333333D01*
X147192738Y-97357142D01*
X147383214Y-97357142D01*
X147430833Y-97333333D01*
X147454642Y-97285714D01*
X147454642Y-97190476D01*
X147430833Y-97142857D01*
X147383214Y-97119047D01*
X147335595Y-97119047D01*
X147287976Y-97357142D01*
X147168928Y-96904761D02*
X147145119Y-96880952D01*
X147121309Y-96904761D01*
X147145119Y-96928571D01*
X147168928Y-96904761D01*
X147121309Y-96904761D01*
X147311785Y-96904761D02*
X147597500Y-96928571D01*
X147621309Y-96904761D01*
X147597500Y-96880952D01*
X147311785Y-96904761D01*
X147621309Y-96904761D01*
D11*
X136434523Y-110880952D02*
X137684523Y-110880952D01*
X136434523Y-110285714D02*
X137684523Y-110285714D01*
X136434523Y-109571428D01*
X137684523Y-109571428D01*
X137684523Y-109154761D02*
X137684523Y-108440476D01*
X136434523Y-108797619D02*
X137684523Y-108797619D01*
X132434523Y-111416666D02*
X131184523Y-111000000D01*
X132434523Y-110583333D01*
X131303571Y-109452380D02*
X131244047Y-109511904D01*
X131184523Y-109690476D01*
X131184523Y-109809523D01*
X131244047Y-109988095D01*
X131363095Y-110107142D01*
X131482142Y-110166666D01*
X131720238Y-110226190D01*
X131898809Y-110226190D01*
X132136904Y-110166666D01*
X132255952Y-110107142D01*
X132375000Y-109988095D01*
X132434523Y-109809523D01*
X132434523Y-109690476D01*
X132375000Y-109511904D01*
X132315476Y-109452380D01*
X131303571Y-108202380D02*
X131244047Y-108261904D01*
X131184523Y-108440476D01*
X131184523Y-108559523D01*
X131244047Y-108738095D01*
X131363095Y-108857142D01*
X131482142Y-108916666D01*
X131720238Y-108976190D01*
X131898809Y-108976190D01*
X132136904Y-108916666D01*
X132255952Y-108857142D01*
X132375000Y-108738095D01*
X132434523Y-108559523D01*
X132434523Y-108440476D01*
X132375000Y-108261904D01*
X132315476Y-108202380D01*
D13*
X143761904Y-86897380D02*
X143428571Y-87897380D01*
X143095238Y-86897380D01*
X142380952Y-87849761D02*
X142476190Y-87897380D01*
X142666666Y-87897380D01*
X142761904Y-87849761D01*
X142809523Y-87754523D01*
X142809523Y-87373571D01*
X142761904Y-87278333D01*
X142666666Y-87230714D01*
X142476190Y-87230714D01*
X142380952Y-87278333D01*
X142333333Y-87373571D01*
X142333333Y-87468809D01*
X142809523Y-87564047D01*
X141904761Y-87897380D02*
X141904761Y-87230714D01*
X141904761Y-87421190D02*
X141857142Y-87325952D01*
X141809523Y-87278333D01*
X141714285Y-87230714D01*
X141619047Y-87230714D01*
X141333333Y-87849761D02*
X141238095Y-87897380D01*
X141047619Y-87897380D01*
X140952380Y-87849761D01*
X140904761Y-87754523D01*
X140904761Y-87706904D01*
X140952380Y-87611666D01*
X141047619Y-87564047D01*
X141190476Y-87564047D01*
X141285714Y-87516428D01*
X141333333Y-87421190D01*
X141333333Y-87373571D01*
X141285714Y-87278333D01*
X141190476Y-87230714D01*
X141047619Y-87230714D01*
X140952380Y-87278333D01*
X140476190Y-87897380D02*
X140476190Y-87230714D01*
X140476190Y-86897380D02*
X140523809Y-86945000D01*
X140476190Y-86992619D01*
X140428571Y-86945000D01*
X140476190Y-86897380D01*
X140476190Y-86992619D01*
X139857142Y-87897380D02*
X139952380Y-87849761D01*
X140000000Y-87802142D01*
X140047619Y-87706904D01*
X140047619Y-87421190D01*
X140000000Y-87325952D01*
X139952380Y-87278333D01*
X139857142Y-87230714D01*
X139714285Y-87230714D01*
X139619047Y-87278333D01*
X139571428Y-87325952D01*
X139523809Y-87421190D01*
X139523809Y-87706904D01*
X139571428Y-87802142D01*
X139619047Y-87849761D01*
X139714285Y-87897380D01*
X139857142Y-87897380D01*
X139095238Y-87230714D02*
X139095238Y-87897380D01*
X139095238Y-87325952D02*
X139047619Y-87278333D01*
X138952380Y-87230714D01*
X138809523Y-87230714D01*
X138714285Y-87278333D01*
X138666666Y-87373571D01*
X138666666Y-87897380D01*
X137238095Y-86897380D02*
X137142857Y-86897380D01*
X137047619Y-86945000D01*
X137000000Y-86992619D01*
X136952380Y-87087857D01*
X136904761Y-87278333D01*
X136904761Y-87516428D01*
X136952380Y-87706904D01*
X137000000Y-87802142D01*
X137047619Y-87849761D01*
X137142857Y-87897380D01*
X137238095Y-87897380D01*
X137333333Y-87849761D01*
X137380952Y-87802142D01*
X137428571Y-87706904D01*
X137476190Y-87516428D01*
X137476190Y-87278333D01*
X137428571Y-87087857D01*
X137380952Y-86992619D01*
X137333333Y-86945000D01*
X137238095Y-86897380D01*
X136476190Y-87802142D02*
X136428571Y-87849761D01*
X136476190Y-87897380D01*
X136523809Y-87849761D01*
X136476190Y-87802142D01*
X136476190Y-87897380D01*
X135476190Y-87897380D02*
X136047619Y-87897380D01*
X135761904Y-87897380D02*
X135761904Y-86897380D01*
X135857142Y-87040238D01*
X135952380Y-87135476D01*
X136047619Y-87183095D01*
X134285714Y-87897380D02*
X134285714Y-86897380D01*
X134047619Y-86897380D01*
X133904761Y-86945000D01*
X133809523Y-87040238D01*
X133761904Y-87135476D01*
X133714285Y-87325952D01*
X133714285Y-87468809D01*
X133761904Y-87659285D01*
X133809523Y-87754523D01*
X133904761Y-87849761D01*
X134047619Y-87897380D01*
X134285714Y-87897380D01*
X133285714Y-87373571D02*
X132952380Y-87373571D01*
X132809523Y-87897380D02*
X133285714Y-87897380D01*
X133285714Y-86897380D01*
X132809523Y-86897380D01*
X132523809Y-86897380D02*
X132190476Y-87897380D01*
X131857142Y-86897380D01*
X131523809Y-87373571D02*
X131190476Y-87373571D01*
X131047619Y-87897380D02*
X131523809Y-87897380D01*
X131523809Y-86897380D01*
X131047619Y-86897380D01*
X130142857Y-87897380D02*
X130619047Y-87897380D01*
X130619047Y-86897380D01*
X129619047Y-86897380D02*
X129428571Y-86897380D01*
X129333333Y-86945000D01*
X129238095Y-87040238D01*
X129190476Y-87230714D01*
X129190476Y-87564047D01*
X129238095Y-87754523D01*
X129333333Y-87849761D01*
X129428571Y-87897380D01*
X129619047Y-87897380D01*
X129714285Y-87849761D01*
X129809523Y-87754523D01*
X129857142Y-87564047D01*
X129857142Y-87230714D01*
X129809523Y-87040238D01*
X129714285Y-86945000D01*
X129619047Y-86897380D01*
X128761904Y-87897380D02*
X128761904Y-86897380D01*
X128380952Y-86897380D01*
X128285714Y-86945000D01*
X128238095Y-86992619D01*
X128190476Y-87087857D01*
X128190476Y-87230714D01*
X128238095Y-87325952D01*
X128285714Y-87373571D01*
X128380952Y-87421190D01*
X128761904Y-87421190D01*
X127761904Y-87897380D02*
X127761904Y-86897380D01*
X127428571Y-87611666D01*
X127095238Y-86897380D01*
X127095238Y-87897380D01*
X126619047Y-87373571D02*
X126285714Y-87373571D01*
X126142857Y-87897380D02*
X126619047Y-87897380D01*
X126619047Y-86897380D01*
X126142857Y-86897380D01*
X125714285Y-87897380D02*
X125714285Y-86897380D01*
X125142857Y-87897380D01*
X125142857Y-86897380D01*
X124809523Y-86897380D02*
X124238095Y-86897380D01*
X124523809Y-87897380D02*
X124523809Y-86897380D01*
X137476190Y-88507380D02*
X137476190Y-89221666D01*
X137523809Y-89364523D01*
X137619047Y-89459761D01*
X137761904Y-89507380D01*
X137857142Y-89507380D01*
X136571428Y-88840714D02*
X136571428Y-89507380D01*
X137000000Y-88840714D02*
X137000000Y-89364523D01*
X136952380Y-89459761D01*
X136857142Y-89507380D01*
X136714285Y-89507380D01*
X136619047Y-89459761D01*
X136571428Y-89412142D01*
X136095238Y-88840714D02*
X136095238Y-89507380D01*
X136095238Y-88935952D02*
X136047619Y-88888333D01*
X135952380Y-88840714D01*
X135809523Y-88840714D01*
X135714285Y-88888333D01*
X135666666Y-88983571D01*
X135666666Y-89507380D01*
X134809523Y-89459761D02*
X134904761Y-89507380D01*
X135095238Y-89507380D01*
X135190476Y-89459761D01*
X135238095Y-89364523D01*
X135238095Y-88983571D01*
X135190476Y-88888333D01*
X135095238Y-88840714D01*
X134904761Y-88840714D01*
X134809523Y-88888333D01*
X134761904Y-88983571D01*
X134761904Y-89078809D01*
X135238095Y-89174047D01*
X133619047Y-88602619D02*
X133571428Y-88555000D01*
X133476190Y-88507380D01*
X133238095Y-88507380D01*
X133142857Y-88555000D01*
X133095238Y-88602619D01*
X133047619Y-88697857D01*
X133047619Y-88793095D01*
X133095238Y-88935952D01*
X133666666Y-89507380D01*
X133047619Y-89507380D01*
X132428571Y-88507380D02*
X132333333Y-88507380D01*
X132238095Y-88555000D01*
X132190476Y-88602619D01*
X132142857Y-88697857D01*
X132095238Y-88888333D01*
X132095238Y-89126428D01*
X132142857Y-89316904D01*
X132190476Y-89412142D01*
X132238095Y-89459761D01*
X132333333Y-89507380D01*
X132428571Y-89507380D01*
X132523809Y-89459761D01*
X132571428Y-89412142D01*
X132619047Y-89316904D01*
X132666666Y-89126428D01*
X132666666Y-88888333D01*
X132619047Y-88697857D01*
X132571428Y-88602619D01*
X132523809Y-88555000D01*
X132428571Y-88507380D01*
X131714285Y-88602619D02*
X131666666Y-88555000D01*
X131571428Y-88507380D01*
X131333333Y-88507380D01*
X131238095Y-88555000D01*
X131190476Y-88602619D01*
X131142857Y-88697857D01*
X131142857Y-88793095D01*
X131190476Y-88935952D01*
X131761904Y-89507380D01*
X131142857Y-89507380D01*
X130809523Y-88507380D02*
X130190476Y-88507380D01*
X130523809Y-88888333D01*
X130380952Y-88888333D01*
X130285714Y-88935952D01*
X130238095Y-88983571D01*
X130190476Y-89078809D01*
X130190476Y-89316904D01*
X130238095Y-89412142D01*
X130285714Y-89459761D01*
X130380952Y-89507380D01*
X130666666Y-89507380D01*
X130761904Y-89459761D01*
X130809523Y-89412142D01*
G04 #@! TO.C,REF\u002A\u002A*
G36*
X145146135Y-97530105D02*
G01*
X145145076Y-97624584D01*
X145141436Y-97690414D01*
X145133892Y-97736394D01*
X145121122Y-97771321D01*
X145101803Y-97803995D01*
X145097050Y-97810775D01*
X145046759Y-97864231D01*
X144989457Y-97904547D01*
X144960032Y-97917629D01*
X144854299Y-97939450D01*
X144749734Y-97925336D01*
X144653368Y-97877105D01*
X144572235Y-97796579D01*
X144565385Y-97785791D01*
X144543097Y-97723153D01*
X144528079Y-97635935D01*
X144520792Y-97535210D01*
X144521611Y-97442037D01*
X144718796Y-97442037D01*
X144720349Y-97571114D01*
X144720974Y-97579420D01*
X144730077Y-97650643D01*
X144746288Y-97695809D01*
X144773660Y-97726752D01*
X144819553Y-97755737D01*
X144864942Y-97757261D01*
X144911692Y-97723846D01*
X144919824Y-97715053D01*
X144935754Y-97688741D01*
X144945159Y-97650520D01*
X144949632Y-97591349D01*
X144950769Y-97502182D01*
X144948822Y-97418664D01*
X144939105Y-97339095D01*
X144919047Y-97288808D01*
X144886240Y-97262513D01*
X144838280Y-97254923D01*
X144820016Y-97256432D01*
X144768848Y-97284107D01*
X144735035Y-97346172D01*
X144718796Y-97442037D01*
X144521611Y-97442037D01*
X144521699Y-97432052D01*
X144531262Y-97337533D01*
X144549943Y-97262727D01*
X144573951Y-97212905D01*
X144641536Y-97135409D01*
X144733114Y-97087256D01*
X144845213Y-97070703D01*
X144875151Y-97071599D01*
X144963315Y-97089929D01*
X145035733Y-97136104D01*
X145102192Y-97215648D01*
X145106147Y-97221548D01*
X145124040Y-97253288D01*
X145135678Y-97289163D01*
X145142371Y-97337906D01*
X145145426Y-97408249D01*
X145146106Y-97502182D01*
X145146154Y-97508923D01*
X145146135Y-97530105D01*
G37*
D14*
X145146135Y-97530105D02*
X145145076Y-97624584D01*
X145141436Y-97690414D01*
X145133892Y-97736394D01*
X145121122Y-97771321D01*
X145101803Y-97803995D01*
X145097050Y-97810775D01*
X145046759Y-97864231D01*
X144989457Y-97904547D01*
X144960032Y-97917629D01*
X144854299Y-97939450D01*
X144749734Y-97925336D01*
X144653368Y-97877105D01*
X144572235Y-97796579D01*
X144565385Y-97785791D01*
X144543097Y-97723153D01*
X144528079Y-97635935D01*
X144520792Y-97535210D01*
X144521611Y-97442037D01*
X144718796Y-97442037D01*
X144720349Y-97571114D01*
X144720974Y-97579420D01*
X144730077Y-97650643D01*
X144746288Y-97695809D01*
X144773660Y-97726752D01*
X144819553Y-97755737D01*
X144864942Y-97757261D01*
X144911692Y-97723846D01*
X144919824Y-97715053D01*
X144935754Y-97688741D01*
X144945159Y-97650520D01*
X144949632Y-97591349D01*
X144950769Y-97502182D01*
X144948822Y-97418664D01*
X144939105Y-97339095D01*
X144919047Y-97288808D01*
X144886240Y-97262513D01*
X144838280Y-97254923D01*
X144820016Y-97256432D01*
X144768848Y-97284107D01*
X144735035Y-97346172D01*
X144718796Y-97442037D01*
X144521611Y-97442037D01*
X144521699Y-97432052D01*
X144531262Y-97337533D01*
X144549943Y-97262727D01*
X144573951Y-97212905D01*
X144641536Y-97135409D01*
X144733114Y-97087256D01*
X144845213Y-97070703D01*
X144875151Y-97071599D01*
X144963315Y-97089929D01*
X145035733Y-97136104D01*
X145102192Y-97215648D01*
X145106147Y-97221548D01*
X145124040Y-97253288D01*
X145135678Y-97289163D01*
X145142371Y-97337906D01*
X145145426Y-97408249D01*
X145146106Y-97502182D01*
X145146154Y-97508923D01*
X145146135Y-97530105D01*
G36*
X138013936Y-97119911D02*
G01*
X138055807Y-97130547D01*
X138094791Y-97157062D01*
X138144965Y-97206420D01*
X138177232Y-97241279D01*
X138210844Y-97286534D01*
X138226003Y-97328951D01*
X138229539Y-97382768D01*
X138229539Y-97470850D01*
X138169470Y-97439787D01*
X138121867Y-97401936D01*
X138089261Y-97350950D01*
X138083661Y-97337088D01*
X138040992Y-97283358D01*
X137981707Y-97256417D01*
X137917061Y-97259039D01*
X137858308Y-97294000D01*
X137833450Y-97322394D01*
X137818970Y-97358718D01*
X137834470Y-97391046D01*
X137882667Y-97423565D01*
X137966274Y-97460461D01*
X137978962Y-97465557D01*
X138055078Y-97498907D01*
X138120396Y-97531793D01*
X138161953Y-97557769D01*
X138203576Y-97604167D01*
X138231247Y-97678211D01*
X138228310Y-97757670D01*
X138195571Y-97832868D01*
X138133841Y-97894131D01*
X138083858Y-97920210D01*
X137987303Y-97938470D01*
X137933647Y-97936007D01*
X137883976Y-97922687D01*
X137864919Y-97894739D01*
X137872045Y-97848710D01*
X137874118Y-97842624D01*
X137890556Y-97810349D01*
X137917926Y-97798133D01*
X137970068Y-97798950D01*
X138006884Y-97800061D01*
X138049961Y-97790528D01*
X138079475Y-97762026D01*
X138096286Y-97726935D01*
X138098161Y-97690175D01*
X138098074Y-97689961D01*
X138076279Y-97670098D01*
X138029632Y-97641192D01*
X137969278Y-97608886D01*
X137906360Y-97578823D01*
X137852023Y-97556646D01*
X137817410Y-97548000D01*
X137812260Y-97556467D01*
X137805778Y-97596309D01*
X137801339Y-97661371D01*
X137799692Y-97743385D01*
X137799309Y-97800153D01*
X137797505Y-97871648D01*
X137794558Y-97920610D01*
X137790843Y-97938769D01*
X137771424Y-97932667D01*
X137732227Y-97916095D01*
X137682462Y-97893420D01*
X137682462Y-97602509D01*
X137682780Y-97527940D01*
X137685789Y-97414701D01*
X137693454Y-97330692D01*
X137707562Y-97269520D01*
X137729899Y-97224795D01*
X137762253Y-97190124D01*
X137806410Y-97159117D01*
X137862667Y-97133528D01*
X137966540Y-97118154D01*
X138013936Y-97119911D01*
G37*
X138013936Y-97119911D02*
X138055807Y-97130547D01*
X138094791Y-97157062D01*
X138144965Y-97206420D01*
X138177232Y-97241279D01*
X138210844Y-97286534D01*
X138226003Y-97328951D01*
X138229539Y-97382768D01*
X138229539Y-97470850D01*
X138169470Y-97439787D01*
X138121867Y-97401936D01*
X138089261Y-97350950D01*
X138083661Y-97337088D01*
X138040992Y-97283358D01*
X137981707Y-97256417D01*
X137917061Y-97259039D01*
X137858308Y-97294000D01*
X137833450Y-97322394D01*
X137818970Y-97358718D01*
X137834470Y-97391046D01*
X137882667Y-97423565D01*
X137966274Y-97460461D01*
X137978962Y-97465557D01*
X138055078Y-97498907D01*
X138120396Y-97531793D01*
X138161953Y-97557769D01*
X138203576Y-97604167D01*
X138231247Y-97678211D01*
X138228310Y-97757670D01*
X138195571Y-97832868D01*
X138133841Y-97894131D01*
X138083858Y-97920210D01*
X137987303Y-97938470D01*
X137933647Y-97936007D01*
X137883976Y-97922687D01*
X137864919Y-97894739D01*
X137872045Y-97848710D01*
X137874118Y-97842624D01*
X137890556Y-97810349D01*
X137917926Y-97798133D01*
X137970068Y-97798950D01*
X138006884Y-97800061D01*
X138049961Y-97790528D01*
X138079475Y-97762026D01*
X138096286Y-97726935D01*
X138098161Y-97690175D01*
X138098074Y-97689961D01*
X138076279Y-97670098D01*
X138029632Y-97641192D01*
X137969278Y-97608886D01*
X137906360Y-97578823D01*
X137852023Y-97556646D01*
X137817410Y-97548000D01*
X137812260Y-97556467D01*
X137805778Y-97596309D01*
X137801339Y-97661371D01*
X137799692Y-97743385D01*
X137799309Y-97800153D01*
X137797505Y-97871648D01*
X137794558Y-97920610D01*
X137790843Y-97938769D01*
X137771424Y-97932667D01*
X137732227Y-97916095D01*
X137682462Y-97893420D01*
X137682462Y-97602509D01*
X137682780Y-97527940D01*
X137685789Y-97414701D01*
X137693454Y-97330692D01*
X137707562Y-97269520D01*
X137729899Y-97224795D01*
X137762253Y-97190124D01*
X137806410Y-97159117D01*
X137862667Y-97133528D01*
X137966540Y-97118154D01*
X138013936Y-97119911D01*
G36*
X138937998Y-97124034D02*
G01*
X138980850Y-97140829D01*
X139030615Y-97163503D01*
X139030615Y-97818533D01*
X138968785Y-97880363D01*
X138954662Y-97894228D01*
X138915536Y-97925046D01*
X138876078Y-97935028D01*
X138817362Y-97930433D01*
X138793456Y-97927462D01*
X138731801Y-97921176D01*
X138688692Y-97918672D01*
X138675905Y-97919055D01*
X138623446Y-97923200D01*
X138560022Y-97930433D01*
X138539730Y-97932918D01*
X138488610Y-97933895D01*
X138451207Y-97918462D01*
X138408599Y-97880363D01*
X138346769Y-97818533D01*
X138346769Y-97468343D01*
X138347251Y-97364857D01*
X138348753Y-97266192D01*
X138351089Y-97188068D01*
X138354071Y-97136662D01*
X138357509Y-97118154D01*
X138358230Y-97118204D01*
X138383203Y-97127413D01*
X138425399Y-97147707D01*
X138482549Y-97177261D01*
X138487928Y-97484746D01*
X138493308Y-97792231D01*
X138610539Y-97792231D01*
X138615885Y-97455192D01*
X138617579Y-97363574D01*
X138620005Y-97265649D01*
X138622634Y-97187906D01*
X138625246Y-97136642D01*
X138627623Y-97118154D01*
X138628306Y-97118219D01*
X138651996Y-97125020D01*
X138695546Y-97139604D01*
X138757077Y-97161054D01*
X138757376Y-97457104D01*
X138757676Y-97508532D01*
X138759754Y-97608466D01*
X138763470Y-97691925D01*
X138768430Y-97751377D01*
X138774240Y-97779287D01*
X138795024Y-97794214D01*
X138837440Y-97798825D01*
X138884077Y-97792231D01*
X138889423Y-97455192D01*
X138891336Y-97369546D01*
X138895303Y-97268172D01*
X138900491Y-97188655D01*
X138906499Y-97136736D01*
X138912927Y-97118154D01*
X138937998Y-97124034D01*
G37*
X138937998Y-97124034D02*
X138980850Y-97140829D01*
X139030615Y-97163503D01*
X139030615Y-97818533D01*
X138968785Y-97880363D01*
X138954662Y-97894228D01*
X138915536Y-97925046D01*
X138876078Y-97935028D01*
X138817362Y-97930433D01*
X138793456Y-97927462D01*
X138731801Y-97921176D01*
X138688692Y-97918672D01*
X138675905Y-97919055D01*
X138623446Y-97923200D01*
X138560022Y-97930433D01*
X138539730Y-97932918D01*
X138488610Y-97933895D01*
X138451207Y-97918462D01*
X138408599Y-97880363D01*
X138346769Y-97818533D01*
X138346769Y-97468343D01*
X138347251Y-97364857D01*
X138348753Y-97266192D01*
X138351089Y-97188068D01*
X138354071Y-97136662D01*
X138357509Y-97118154D01*
X138358230Y-97118204D01*
X138383203Y-97127413D01*
X138425399Y-97147707D01*
X138482549Y-97177261D01*
X138487928Y-97484746D01*
X138493308Y-97792231D01*
X138610539Y-97792231D01*
X138615885Y-97455192D01*
X138617579Y-97363574D01*
X138620005Y-97265649D01*
X138622634Y-97187906D01*
X138625246Y-97136642D01*
X138627623Y-97118154D01*
X138628306Y-97118219D01*
X138651996Y-97125020D01*
X138695546Y-97139604D01*
X138757077Y-97161054D01*
X138757376Y-97457104D01*
X138757676Y-97508532D01*
X138759754Y-97608466D01*
X138763470Y-97691925D01*
X138768430Y-97751377D01*
X138774240Y-97779287D01*
X138795024Y-97794214D01*
X138837440Y-97798825D01*
X138884077Y-97792231D01*
X138889423Y-97455192D01*
X138891336Y-97369546D01*
X138895303Y-97268172D01*
X138900491Y-97188655D01*
X138906499Y-97136736D01*
X138912927Y-97118154D01*
X138937998Y-97124034D01*
G36*
X141726923Y-96881806D02*
G01*
X141726923Y-97416455D01*
X141726660Y-97555094D01*
X141725958Y-97679805D01*
X141724883Y-97785557D01*
X141723500Y-97867322D01*
X141721874Y-97920069D01*
X141720070Y-97938769D01*
X141719364Y-97938706D01*
X141695387Y-97931912D01*
X141651685Y-97917320D01*
X141590154Y-97895870D01*
X141590154Y-97620617D01*
X141589763Y-97512466D01*
X141587946Y-97434026D01*
X141583767Y-97380647D01*
X141576286Y-97345256D01*
X141564567Y-97320779D01*
X141547671Y-97300144D01*
X141536152Y-97289170D01*
X141473864Y-97258775D01*
X141405211Y-97261466D01*
X141342298Y-97297406D01*
X141333139Y-97306325D01*
X141318471Y-97324844D01*
X141308433Y-97349326D01*
X141302151Y-97386393D01*
X141298748Y-97442667D01*
X141297349Y-97524771D01*
X141297077Y-97639329D01*
X141296947Y-97697430D01*
X141296099Y-97792993D01*
X141294594Y-97869526D01*
X141292585Y-97920345D01*
X141290223Y-97938769D01*
X141289518Y-97938706D01*
X141265541Y-97931912D01*
X141221839Y-97917320D01*
X141160308Y-97895870D01*
X141160338Y-97619358D01*
X141160384Y-97594742D01*
X141162970Y-97466419D01*
X141170913Y-97369384D01*
X141186155Y-97297057D01*
X141210636Y-97242855D01*
X141246298Y-97200198D01*
X141295082Y-97162505D01*
X141342661Y-97138910D01*
X141418732Y-97120672D01*
X141493556Y-97119636D01*
X141551077Y-97137378D01*
X141555402Y-97139829D01*
X141568738Y-97139566D01*
X141577851Y-97119039D01*
X141584428Y-97071980D01*
X141590154Y-96992120D01*
X141599923Y-96828236D01*
X141726923Y-96881806D01*
G37*
X141726923Y-96881806D02*
X141726923Y-97416455D01*
X141726660Y-97555094D01*
X141725958Y-97679805D01*
X141724883Y-97785557D01*
X141723500Y-97867322D01*
X141721874Y-97920069D01*
X141720070Y-97938769D01*
X141719364Y-97938706D01*
X141695387Y-97931912D01*
X141651685Y-97917320D01*
X141590154Y-97895870D01*
X141590154Y-97620617D01*
X141589763Y-97512466D01*
X141587946Y-97434026D01*
X141583767Y-97380647D01*
X141576286Y-97345256D01*
X141564567Y-97320779D01*
X141547671Y-97300144D01*
X141536152Y-97289170D01*
X141473864Y-97258775D01*
X141405211Y-97261466D01*
X141342298Y-97297406D01*
X141333139Y-97306325D01*
X141318471Y-97324844D01*
X141308433Y-97349326D01*
X141302151Y-97386393D01*
X141298748Y-97442667D01*
X141297349Y-97524771D01*
X141297077Y-97639329D01*
X141296947Y-97697430D01*
X141296099Y-97792993D01*
X141294594Y-97869526D01*
X141292585Y-97920345D01*
X141290223Y-97938769D01*
X141289518Y-97938706D01*
X141265541Y-97931912D01*
X141221839Y-97917320D01*
X141160308Y-97895870D01*
X141160338Y-97619358D01*
X141160384Y-97594742D01*
X141162970Y-97466419D01*
X141170913Y-97369384D01*
X141186155Y-97297057D01*
X141210636Y-97242855D01*
X141246298Y-97200198D01*
X141295082Y-97162505D01*
X141342661Y-97138910D01*
X141418732Y-97120672D01*
X141493556Y-97119636D01*
X141551077Y-97137378D01*
X141555402Y-97139829D01*
X141568738Y-97139566D01*
X141577851Y-97119039D01*
X141584428Y-97071980D01*
X141590154Y-96992120D01*
X141599923Y-96828236D01*
X141726923Y-96881806D01*
G36*
X144399763Y-97748269D02*
G01*
X144400300Y-97791802D01*
X144402019Y-97937344D01*
X144402365Y-98048711D01*
X144400277Y-98129804D01*
X144394698Y-98184522D01*
X144384567Y-98216761D01*
X144368826Y-98230422D01*
X144346417Y-98229403D01*
X144316280Y-98217603D01*
X144277355Y-98198920D01*
X144269038Y-98194933D01*
X144234402Y-98175419D01*
X144216314Y-98152202D01*
X144209392Y-98113492D01*
X144208256Y-98047497D01*
X144208205Y-97929000D01*
X144086141Y-97929000D01*
X144011055Y-97925712D01*
X143952015Y-97912377D01*
X143902986Y-97885423D01*
X143899330Y-97882788D01*
X143849581Y-97838286D01*
X143814959Y-97784523D01*
X143793123Y-97714154D01*
X143781737Y-97619830D01*
X143778959Y-97513271D01*
X143973846Y-97513271D01*
X143973880Y-97531131D01*
X143975735Y-97611748D01*
X143981693Y-97664447D01*
X143993506Y-97698668D01*
X144012923Y-97723846D01*
X144014133Y-97725049D01*
X144061858Y-97757628D01*
X144108110Y-97754417D01*
X144160350Y-97714965D01*
X144173128Y-97701482D01*
X144191949Y-97673837D01*
X144202562Y-97637880D01*
X144207252Y-97583364D01*
X144208308Y-97500042D01*
X144207394Y-97449598D01*
X144197477Y-97357857D01*
X144174842Y-97297752D01*
X144137238Y-97264900D01*
X144082416Y-97254923D01*
X144059317Y-97257050D01*
X144019350Y-97278147D01*
X143992926Y-97325161D01*
X143978330Y-97402175D01*
X143973846Y-97513271D01*
X143778959Y-97513271D01*
X143778462Y-97494206D01*
X143779187Y-97402536D01*
X143782490Y-97333098D01*
X143789828Y-97284945D01*
X143802655Y-97248866D01*
X143822423Y-97215648D01*
X143840569Y-97190261D01*
X143906461Y-97121727D01*
X143981114Y-97084505D01*
X144074904Y-97072722D01*
X144182240Y-97084467D01*
X144275031Y-97126595D01*
X144348421Y-97200898D01*
X144353954Y-97208764D01*
X144366857Y-97229668D01*
X144376742Y-97253555D01*
X144384093Y-97285582D01*
X144389394Y-97330905D01*
X144393127Y-97394679D01*
X144395778Y-97482060D01*
X144396096Y-97500042D01*
X144397828Y-97598205D01*
X144399763Y-97748269D01*
G37*
X144399763Y-97748269D02*
X144400300Y-97791802D01*
X144402019Y-97937344D01*
X144402365Y-98048711D01*
X144400277Y-98129804D01*
X144394698Y-98184522D01*
X144384567Y-98216761D01*
X144368826Y-98230422D01*
X144346417Y-98229403D01*
X144316280Y-98217603D01*
X144277355Y-98198920D01*
X144269038Y-98194933D01*
X144234402Y-98175419D01*
X144216314Y-98152202D01*
X144209392Y-98113492D01*
X144208256Y-98047497D01*
X144208205Y-97929000D01*
X144086141Y-97929000D01*
X144011055Y-97925712D01*
X143952015Y-97912377D01*
X143902986Y-97885423D01*
X143899330Y-97882788D01*
X143849581Y-97838286D01*
X143814959Y-97784523D01*
X143793123Y-97714154D01*
X143781737Y-97619830D01*
X143778959Y-97513271D01*
X143973846Y-97513271D01*
X143973880Y-97531131D01*
X143975735Y-97611748D01*
X143981693Y-97664447D01*
X143993506Y-97698668D01*
X144012923Y-97723846D01*
X144014133Y-97725049D01*
X144061858Y-97757628D01*
X144108110Y-97754417D01*
X144160350Y-97714965D01*
X144173128Y-97701482D01*
X144191949Y-97673837D01*
X144202562Y-97637880D01*
X144207252Y-97583364D01*
X144208308Y-97500042D01*
X144207394Y-97449598D01*
X144197477Y-97357857D01*
X144174842Y-97297752D01*
X144137238Y-97264900D01*
X144082416Y-97254923D01*
X144059317Y-97257050D01*
X144019350Y-97278147D01*
X143992926Y-97325161D01*
X143978330Y-97402175D01*
X143973846Y-97513271D01*
X143778959Y-97513271D01*
X143778462Y-97494206D01*
X143779187Y-97402536D01*
X143782490Y-97333098D01*
X143789828Y-97284945D01*
X143802655Y-97248866D01*
X143822423Y-97215648D01*
X143840569Y-97190261D01*
X143906461Y-97121727D01*
X143981114Y-97084505D01*
X144074904Y-97072722D01*
X144182240Y-97084467D01*
X144275031Y-97126595D01*
X144348421Y-97200898D01*
X144353954Y-97208764D01*
X144366857Y-97229668D01*
X144376742Y-97253555D01*
X144384093Y-97285582D01*
X144389394Y-97330905D01*
X144393127Y-97394679D01*
X144395778Y-97482060D01*
X144396096Y-97500042D01*
X144397828Y-97598205D01*
X144399763Y-97748269D01*
G36*
X136900413Y-97584449D02*
G01*
X136895641Y-97687047D01*
X136883150Y-97762126D01*
X136860121Y-97817748D01*
X136823732Y-97861975D01*
X136771162Y-97902869D01*
X136737714Y-97921466D01*
X136684098Y-97933991D01*
X136608780Y-97933003D01*
X136566672Y-97929035D01*
X136515879Y-97916920D01*
X136475280Y-97890585D01*
X136428049Y-97841514D01*
X136421738Y-97834346D01*
X136379277Y-97779189D01*
X136359018Y-97731150D01*
X136353846Y-97674184D01*
X136353846Y-97590471D01*
X136412346Y-97612552D01*
X136454994Y-97638364D01*
X136492064Y-97698928D01*
X136499803Y-97718320D01*
X136543074Y-97773235D01*
X136601976Y-97800879D01*
X136666111Y-97798393D01*
X136725077Y-97762923D01*
X136745342Y-97740805D01*
X136763720Y-97707436D01*
X136757971Y-97677117D01*
X136724887Y-97645913D01*
X136661261Y-97609887D01*
X136563885Y-97565103D01*
X136363615Y-97477445D01*
X136358301Y-97390607D01*
X136360299Y-97335296D01*
X136490783Y-97335296D01*
X136500688Y-97369538D01*
X136545756Y-97406096D01*
X136627557Y-97447692D01*
X136641092Y-97453718D01*
X136705818Y-97481753D01*
X136754247Y-97501472D01*
X136776751Y-97508923D01*
X136780161Y-97503438D01*
X136781529Y-97469948D01*
X136776651Y-97416116D01*
X136764364Y-97363473D01*
X136726041Y-97297151D01*
X136670720Y-97259780D01*
X136604640Y-97254721D01*
X136534040Y-97285339D01*
X136514474Y-97300648D01*
X136490783Y-97335296D01*
X136360299Y-97335296D01*
X136360647Y-97325663D01*
X136390186Y-97243590D01*
X136427472Y-97198361D01*
X136504776Y-97147838D01*
X136596478Y-97122316D01*
X136691274Y-97124336D01*
X136777859Y-97156440D01*
X136796920Y-97168767D01*
X136840640Y-97206912D01*
X136870540Y-97255167D01*
X136888968Y-97320710D01*
X136898270Y-97410720D01*
X136899499Y-97469948D01*
X136900794Y-97532376D01*
X136900413Y-97584449D01*
G37*
X136900413Y-97584449D02*
X136895641Y-97687047D01*
X136883150Y-97762126D01*
X136860121Y-97817748D01*
X136823732Y-97861975D01*
X136771162Y-97902869D01*
X136737714Y-97921466D01*
X136684098Y-97933991D01*
X136608780Y-97933003D01*
X136566672Y-97929035D01*
X136515879Y-97916920D01*
X136475280Y-97890585D01*
X136428049Y-97841514D01*
X136421738Y-97834346D01*
X136379277Y-97779189D01*
X136359018Y-97731150D01*
X136353846Y-97674184D01*
X136353846Y-97590471D01*
X136412346Y-97612552D01*
X136454994Y-97638364D01*
X136492064Y-97698928D01*
X136499803Y-97718320D01*
X136543074Y-97773235D01*
X136601976Y-97800879D01*
X136666111Y-97798393D01*
X136725077Y-97762923D01*
X136745342Y-97740805D01*
X136763720Y-97707436D01*
X136757971Y-97677117D01*
X136724887Y-97645913D01*
X136661261Y-97609887D01*
X136563885Y-97565103D01*
X136363615Y-97477445D01*
X136358301Y-97390607D01*
X136360299Y-97335296D01*
X136490783Y-97335296D01*
X136500688Y-97369538D01*
X136545756Y-97406096D01*
X136627557Y-97447692D01*
X136641092Y-97453718D01*
X136705818Y-97481753D01*
X136754247Y-97501472D01*
X136776751Y-97508923D01*
X136780161Y-97503438D01*
X136781529Y-97469948D01*
X136776651Y-97416116D01*
X136764364Y-97363473D01*
X136726041Y-97297151D01*
X136670720Y-97259780D01*
X136604640Y-97254721D01*
X136534040Y-97285339D01*
X136514474Y-97300648D01*
X136490783Y-97335296D01*
X136360299Y-97335296D01*
X136360647Y-97325663D01*
X136390186Y-97243590D01*
X136427472Y-97198361D01*
X136504776Y-97147838D01*
X136596478Y-97122316D01*
X136691274Y-97124336D01*
X136777859Y-97156440D01*
X136796920Y-97168767D01*
X136840640Y-97206912D01*
X136870540Y-97255167D01*
X136888968Y-97320710D01*
X136898270Y-97410720D01*
X136899499Y-97469948D01*
X136900794Y-97532376D01*
X136900413Y-97584449D01*
G36*
X140870458Y-97139228D02*
G01*
X140937622Y-97178389D01*
X140967169Y-97208902D01*
X141023948Y-97300110D01*
X141043077Y-97399548D01*
X141043077Y-97467960D01*
X140980191Y-97441518D01*
X140936700Y-97414837D01*
X140902426Y-97359446D01*
X140898907Y-97348024D01*
X140861028Y-97289838D01*
X140803936Y-97258407D01*
X140738383Y-97257058D01*
X140675117Y-97289116D01*
X140665672Y-97297383D01*
X140634087Y-97333311D01*
X140628871Y-97364635D01*
X140652765Y-97395391D01*
X140708510Y-97429617D01*
X140798846Y-97471350D01*
X140804956Y-97473993D01*
X140905241Y-97520755D01*
X140973735Y-97562181D01*
X141015899Y-97603542D01*
X141037193Y-97650111D01*
X141043077Y-97707160D01*
X141035366Y-97770408D01*
X140996430Y-97851364D01*
X140927932Y-97909522D01*
X140878388Y-97926983D01*
X140808469Y-97936537D01*
X140740575Y-97934496D01*
X140692093Y-97920082D01*
X140686943Y-97916493D01*
X140673267Y-97891416D01*
X140682757Y-97847218D01*
X140699246Y-97812527D01*
X140725687Y-97798084D01*
X140775834Y-97798803D01*
X140845453Y-97794660D01*
X140890943Y-97766054D01*
X140906308Y-97713104D01*
X140906294Y-97711582D01*
X140896983Y-97680845D01*
X140865311Y-97652643D01*
X140803731Y-97620136D01*
X140719986Y-97580998D01*
X140664518Y-97559706D01*
X140632497Y-97561079D01*
X140617534Y-97589203D01*
X140613242Y-97648170D01*
X140613231Y-97742068D01*
X140612752Y-97800031D01*
X140610556Y-97871612D01*
X140606986Y-97920606D01*
X140602491Y-97938769D01*
X140601290Y-97938646D01*
X140575319Y-97928802D01*
X140532305Y-97908028D01*
X140472859Y-97877287D01*
X140479923Y-97600298D01*
X140480414Y-97581928D01*
X140486025Y-97452992D01*
X140495938Y-97355814D01*
X140512175Y-97283925D01*
X140536759Y-97230852D01*
X140571715Y-97190127D01*
X140619064Y-97155279D01*
X140619940Y-97154733D01*
X140696499Y-97126303D01*
X140785044Y-97121500D01*
X140870458Y-97139228D01*
G37*
X140870458Y-97139228D02*
X140937622Y-97178389D01*
X140967169Y-97208902D01*
X141023948Y-97300110D01*
X141043077Y-97399548D01*
X141043077Y-97467960D01*
X140980191Y-97441518D01*
X140936700Y-97414837D01*
X140902426Y-97359446D01*
X140898907Y-97348024D01*
X140861028Y-97289838D01*
X140803936Y-97258407D01*
X140738383Y-97257058D01*
X140675117Y-97289116D01*
X140665672Y-97297383D01*
X140634087Y-97333311D01*
X140628871Y-97364635D01*
X140652765Y-97395391D01*
X140708510Y-97429617D01*
X140798846Y-97471350D01*
X140804956Y-97473993D01*
X140905241Y-97520755D01*
X140973735Y-97562181D01*
X141015899Y-97603542D01*
X141037193Y-97650111D01*
X141043077Y-97707160D01*
X141035366Y-97770408D01*
X140996430Y-97851364D01*
X140927932Y-97909522D01*
X140878388Y-97926983D01*
X140808469Y-97936537D01*
X140740575Y-97934496D01*
X140692093Y-97920082D01*
X140686943Y-97916493D01*
X140673267Y-97891416D01*
X140682757Y-97847218D01*
X140699246Y-97812527D01*
X140725687Y-97798084D01*
X140775834Y-97798803D01*
X140845453Y-97794660D01*
X140890943Y-97766054D01*
X140906308Y-97713104D01*
X140906294Y-97711582D01*
X140896983Y-97680845D01*
X140865311Y-97652643D01*
X140803731Y-97620136D01*
X140719986Y-97580998D01*
X140664518Y-97559706D01*
X140632497Y-97561079D01*
X140617534Y-97589203D01*
X140613242Y-97648170D01*
X140613231Y-97742068D01*
X140612752Y-97800031D01*
X140610556Y-97871612D01*
X140606986Y-97920606D01*
X140602491Y-97938769D01*
X140601290Y-97938646D01*
X140575319Y-97928802D01*
X140532305Y-97908028D01*
X140472859Y-97877287D01*
X140479923Y-97600298D01*
X140480414Y-97581928D01*
X140486025Y-97452992D01*
X140495938Y-97355814D01*
X140512175Y-97283925D01*
X140536759Y-97230852D01*
X140571715Y-97190127D01*
X140619064Y-97155279D01*
X140619940Y-97154733D01*
X140696499Y-97126303D01*
X140785044Y-97121500D01*
X140870458Y-97139228D01*
G36*
X142676372Y-97081684D02*
G01*
X142767629Y-97124569D01*
X142842416Y-97198729D01*
X142857917Y-97221944D01*
X142870774Y-97248256D01*
X142879893Y-97281420D01*
X142886102Y-97327881D01*
X142890233Y-97394082D01*
X142893116Y-97486468D01*
X142895579Y-97611485D01*
X142901697Y-97958278D01*
X142850303Y-97938738D01*
X142803246Y-97920787D01*
X142768015Y-97903511D01*
X142745017Y-97881242D01*
X142731655Y-97847165D01*
X142725328Y-97794463D01*
X142723437Y-97716323D01*
X142723385Y-97605928D01*
X142723117Y-97517935D01*
X142721521Y-97433502D01*
X142717712Y-97375834D01*
X142710820Y-97337988D01*
X142699975Y-97313024D01*
X142684308Y-97294000D01*
X142645792Y-97267153D01*
X142581091Y-97257034D01*
X142517081Y-97282606D01*
X142512856Y-97285880D01*
X142499689Y-97301007D01*
X142489975Y-97325268D01*
X142482903Y-97364650D01*
X142477656Y-97425141D01*
X142473421Y-97512729D01*
X142469385Y-97633402D01*
X142459615Y-97956515D01*
X142293539Y-97882065D01*
X142293539Y-97587062D01*
X142293883Y-97506919D01*
X142296847Y-97395431D01*
X142304351Y-97312421D01*
X142318190Y-97251199D01*
X142340155Y-97205075D01*
X142372039Y-97167358D01*
X142415633Y-97131358D01*
X142478336Y-97095089D01*
X142577117Y-97071412D01*
X142676372Y-97081684D01*
G37*
X142676372Y-97081684D02*
X142767629Y-97124569D01*
X142842416Y-97198729D01*
X142857917Y-97221944D01*
X142870774Y-97248256D01*
X142879893Y-97281420D01*
X142886102Y-97327881D01*
X142890233Y-97394082D01*
X142893116Y-97486468D01*
X142895579Y-97611485D01*
X142901697Y-97958278D01*
X142850303Y-97938738D01*
X142803246Y-97920787D01*
X142768015Y-97903511D01*
X142745017Y-97881242D01*
X142731655Y-97847165D01*
X142725328Y-97794463D01*
X142723437Y-97716323D01*
X142723385Y-97605928D01*
X142723117Y-97517935D01*
X142721521Y-97433502D01*
X142717712Y-97375834D01*
X142710820Y-97337988D01*
X142699975Y-97313024D01*
X142684308Y-97294000D01*
X142645792Y-97267153D01*
X142581091Y-97257034D01*
X142517081Y-97282606D01*
X142512856Y-97285880D01*
X142499689Y-97301007D01*
X142489975Y-97325268D01*
X142482903Y-97364650D01*
X142477656Y-97425141D01*
X142473421Y-97512729D01*
X142469385Y-97633402D01*
X142459615Y-97956515D01*
X142293539Y-97882065D01*
X142293539Y-97587062D01*
X142293883Y-97506919D01*
X142296847Y-97395431D01*
X142304351Y-97312421D01*
X142318190Y-97251199D01*
X142340155Y-97205075D01*
X142372039Y-97167358D01*
X142415633Y-97131358D01*
X142478336Y-97095089D01*
X142577117Y-97071412D01*
X142676372Y-97081684D01*
G36*
X140767575Y-90787693D02*
G01*
X140903371Y-90787807D01*
X141005576Y-90788472D01*
X141079122Y-90790182D01*
X141128942Y-90793429D01*
X141159967Y-90798706D01*
X141177129Y-90806507D01*
X141185361Y-90817325D01*
X141189594Y-90831654D01*
X141189716Y-90832168D01*
X141196672Y-90865851D01*
X141209320Y-90930917D01*
X141226360Y-91020542D01*
X141246496Y-91127904D01*
X141268429Y-91246178D01*
X141270218Y-91255856D01*
X141292083Y-91370650D01*
X141312430Y-91471480D01*
X141329934Y-91552217D01*
X141343271Y-91606734D01*
X141351116Y-91628901D01*
X141351158Y-91628936D01*
X141375884Y-91641200D01*
X141426631Y-91661576D01*
X141492462Y-91685674D01*
X141496169Y-91686983D01*
X141580331Y-91718791D01*
X141678230Y-91758685D01*
X141769435Y-91798353D01*
X141919407Y-91866420D01*
X142251499Y-91639639D01*
X142274889Y-91623688D01*
X142375080Y-91555890D01*
X142464480Y-91496208D01*
X142537745Y-91448156D01*
X142589527Y-91415250D01*
X142614480Y-91401004D01*
X142631577Y-91404270D01*
X142670395Y-91429571D01*
X142730385Y-91479675D01*
X142813210Y-91555989D01*
X142920535Y-91659922D01*
X142930139Y-91669382D01*
X143015302Y-91754145D01*
X143090949Y-91830937D01*
X143152449Y-91894947D01*
X143195173Y-91941361D01*
X143214489Y-91965369D01*
X143214552Y-91965485D01*
X143217006Y-91983763D01*
X143207956Y-92013411D01*
X143185119Y-92058486D01*
X143146213Y-92123044D01*
X143088954Y-92211140D01*
X143011059Y-92326830D01*
X142997785Y-92346357D01*
X142930652Y-92445278D01*
X142871410Y-92532848D01*
X142823588Y-92603831D01*
X142790715Y-92652991D01*
X142776318Y-92675095D01*
X142775232Y-92679777D01*
X142782044Y-92714710D01*
X142802450Y-92771753D01*
X142833123Y-92841172D01*
X142874808Y-92931959D01*
X142921352Y-93039686D01*
X142960877Y-93137192D01*
X142970676Y-93162430D01*
X142996340Y-93226870D01*
X143015193Y-93271763D01*
X143023710Y-93288616D01*
X143033111Y-93289875D01*
X143075363Y-93297159D01*
X143144521Y-93309739D01*
X143233387Y-93326246D01*
X143334768Y-93345312D01*
X143441467Y-93365569D01*
X143546288Y-93385647D01*
X143642036Y-93404179D01*
X143721516Y-93419795D01*
X143777530Y-93431127D01*
X143802885Y-93436807D01*
X143807088Y-93438408D01*
X143817334Y-93447045D01*
X143824957Y-93465433D01*
X143830338Y-93498460D01*
X143833859Y-93551013D01*
X143835901Y-93627979D01*
X143836847Y-93734246D01*
X143837077Y-93874701D01*
X143837077Y-94301845D01*
X143734500Y-94322091D01*
X143722092Y-94324518D01*
X143656199Y-94337088D01*
X143565084Y-94354170D01*
X143459104Y-94373829D01*
X143348615Y-94394132D01*
X143305105Y-94402299D01*
X143207882Y-94422167D01*
X143126858Y-94440954D01*
X143069477Y-94456859D01*
X143043187Y-94468079D01*
X143031273Y-94486411D01*
X143009583Y-94534916D01*
X142987395Y-94597692D01*
X142979585Y-94621200D01*
X142950835Y-94698366D01*
X142913752Y-94789694D01*
X142874375Y-94880093D01*
X142853315Y-94927310D01*
X142823311Y-94997837D01*
X142802692Y-95050655D01*
X142795026Y-95076912D01*
X142795452Y-95078894D01*
X142809993Y-95106751D01*
X142842783Y-95160510D01*
X142890493Y-95234963D01*
X142949798Y-95324897D01*
X143017369Y-95425104D01*
X143239713Y-95751416D01*
X142947601Y-96044016D01*
X142919349Y-96072171D01*
X142832961Y-96156449D01*
X142755756Y-96229128D01*
X142692258Y-96286112D01*
X142646990Y-96323307D01*
X142624474Y-96336616D01*
X142600023Y-96326490D01*
X142548819Y-96297421D01*
X142476747Y-96252896D01*
X142389460Y-96196411D01*
X142292612Y-96131462D01*
X142197486Y-96067314D01*
X142111669Y-96010827D01*
X142041652Y-95966184D01*
X141992876Y-95936855D01*
X141970783Y-95926308D01*
X141969488Y-95926404D01*
X141940139Y-95936802D01*
X141888093Y-95961012D01*
X141823708Y-95994249D01*
X141823032Y-95994613D01*
X141737521Y-96037441D01*
X141678926Y-96058365D01*
X141642571Y-96058423D01*
X141623775Y-96038654D01*
X141615819Y-96019195D01*
X141594347Y-95967080D01*
X141561273Y-95886964D01*
X141518356Y-95783107D01*
X141467356Y-95659767D01*
X141410033Y-95521201D01*
X141348146Y-95371670D01*
X141292052Y-95235636D01*
X141234977Y-95096050D01*
X141184479Y-94971315D01*
X141142254Y-94865672D01*
X141109995Y-94783365D01*
X141089397Y-94728635D01*
X141082154Y-94705726D01*
X141095986Y-94684718D01*
X141134412Y-94649642D01*
X141188807Y-94608887D01*
X141319395Y-94502267D01*
X141436260Y-94366025D01*
X141521780Y-94216118D01*
X141575431Y-94056971D01*
X141596684Y-93893012D01*
X141585014Y-93728667D01*
X141539894Y-93568361D01*
X141460797Y-93416520D01*
X141347197Y-93277572D01*
X141287965Y-93223460D01*
X141146054Y-93127782D01*
X140994206Y-93065405D01*
X140836861Y-93034844D01*
X140678456Y-93034615D01*
X140523429Y-93063232D01*
X140376220Y-93119210D01*
X140241266Y-93201064D01*
X140123005Y-93307309D01*
X140025877Y-93436459D01*
X139954318Y-93587031D01*
X139912769Y-93757539D01*
X139905143Y-93839722D01*
X139915634Y-94017775D01*
X139962882Y-94186704D01*
X140045489Y-94343522D01*
X140162059Y-94485245D01*
X140311193Y-94608887D01*
X140363561Y-94647982D01*
X140402832Y-94683443D01*
X140417846Y-94705692D01*
X140411859Y-94725088D01*
X140392432Y-94777059D01*
X140361194Y-94857002D01*
X140319839Y-94960673D01*
X140270061Y-95083832D01*
X140213553Y-95222234D01*
X140152009Y-95371637D01*
X140096008Y-95507020D01*
X140038184Y-95646852D01*
X139986500Y-95771872D01*
X139942718Y-95877822D01*
X139908597Y-95960441D01*
X139885898Y-96015472D01*
X139876380Y-96038654D01*
X139876269Y-96038928D01*
X139857228Y-96058503D01*
X139820694Y-96058279D01*
X139761954Y-96037210D01*
X139676292Y-95994249D01*
X139669549Y-95990631D01*
X139605938Y-95958087D01*
X139555707Y-95935050D01*
X139529218Y-95926308D01*
X139507506Y-95936639D01*
X139458984Y-95965788D01*
X139389163Y-96010287D01*
X139303484Y-96066668D01*
X139207388Y-96131462D01*
X139112706Y-96194984D01*
X139025132Y-96251705D01*
X138952642Y-96296547D01*
X138900889Y-96326016D01*
X138875526Y-96336616D01*
X138871206Y-96335270D01*
X138841092Y-96314056D01*
X138789640Y-96270237D01*
X138721375Y-96207909D01*
X138640820Y-96131170D01*
X138552500Y-96044116D01*
X138260488Y-95751617D01*
X138715360Y-95082525D01*
X138646208Y-94932916D01*
X138646003Y-94932473D01*
X138604477Y-94837101D01*
X138562044Y-94730896D01*
X138527858Y-94636769D01*
X138522684Y-94621588D01*
X138496601Y-94551109D01*
X138473081Y-94496342D01*
X138456677Y-94468079D01*
X138449996Y-94464088D01*
X138409892Y-94450697D01*
X138341795Y-94433373D01*
X138253145Y-94413917D01*
X138151385Y-94394132D01*
X138120904Y-94388551D01*
X138010628Y-94368233D01*
X137907731Y-94349095D01*
X137822569Y-94333070D01*
X137765500Y-94322091D01*
X137662923Y-94301845D01*
X137662923Y-93874701D01*
X137662946Y-93822180D01*
X137663379Y-93694047D01*
X137664659Y-93598420D01*
X137667168Y-93530411D01*
X137671286Y-93485133D01*
X137677395Y-93457697D01*
X137685878Y-93443218D01*
X137697115Y-93436807D01*
X137707994Y-93434209D01*
X137752347Y-93425022D01*
X137823106Y-93410991D01*
X137913074Y-93393486D01*
X138015056Y-93373874D01*
X138121857Y-93353525D01*
X138226281Y-93333807D01*
X138321132Y-93316089D01*
X138399214Y-93301738D01*
X138453332Y-93292124D01*
X138476291Y-93288616D01*
X138477842Y-93286497D01*
X138490325Y-93259006D01*
X138511927Y-93206406D01*
X138539123Y-93137192D01*
X138576866Y-93043937D01*
X138623328Y-92936159D01*
X138666878Y-92841172D01*
X138676858Y-92819851D01*
X138704862Y-92753086D01*
X138721641Y-92701590D01*
X138723854Y-92675095D01*
X138722713Y-92673218D01*
X138704584Y-92645565D01*
X138668644Y-92591849D01*
X138618418Y-92517303D01*
X138557430Y-92427162D01*
X138489205Y-92326657D01*
X138412330Y-92212470D01*
X138354663Y-92123770D01*
X138315426Y-92058721D01*
X138292350Y-92013295D01*
X138283166Y-91983463D01*
X138285604Y-91965195D01*
X138286424Y-91963825D01*
X138308477Y-91937205D01*
X138353436Y-91888697D01*
X138416673Y-91823108D01*
X138493559Y-91745247D01*
X138579465Y-91659922D01*
X138668579Y-91573334D01*
X138755872Y-91491947D01*
X138820018Y-91437035D01*
X138862679Y-91407190D01*
X138885521Y-91401004D01*
X138888505Y-91402394D01*
X138919936Y-91421127D01*
X138976997Y-91457733D01*
X139054343Y-91508697D01*
X139146626Y-91570504D01*
X139248502Y-91639639D01*
X139580593Y-91866420D01*
X139730566Y-91798353D01*
X139734923Y-91796381D01*
X139827000Y-91756491D01*
X139924683Y-91716818D01*
X140007539Y-91685674D01*
X140007905Y-91685545D01*
X140073685Y-91661456D01*
X140124323Y-91641110D01*
X140148884Y-91628901D01*
X140149282Y-91628458D01*
X140157619Y-91603456D01*
X140171341Y-91546598D01*
X140189123Y-91464014D01*
X140209641Y-91361831D01*
X140231571Y-91246178D01*
X140232336Y-91242033D01*
X140254229Y-91124019D01*
X140274281Y-91017151D01*
X140291192Y-90928252D01*
X140303667Y-90864145D01*
X140310406Y-90831654D01*
X140310837Y-90829853D01*
X140315273Y-90815944D01*
X140324263Y-90805489D01*
X140342737Y-90797996D01*
X140375628Y-90792972D01*
X140427868Y-90789922D01*
X140504388Y-90788355D01*
X140610122Y-90787776D01*
X140750000Y-90787692D01*
X140767575Y-90787693D01*
G37*
X140767575Y-90787693D02*
X140903371Y-90787807D01*
X141005576Y-90788472D01*
X141079122Y-90790182D01*
X141128942Y-90793429D01*
X141159967Y-90798706D01*
X141177129Y-90806507D01*
X141185361Y-90817325D01*
X141189594Y-90831654D01*
X141189716Y-90832168D01*
X141196672Y-90865851D01*
X141209320Y-90930917D01*
X141226360Y-91020542D01*
X141246496Y-91127904D01*
X141268429Y-91246178D01*
X141270218Y-91255856D01*
X141292083Y-91370650D01*
X141312430Y-91471480D01*
X141329934Y-91552217D01*
X141343271Y-91606734D01*
X141351116Y-91628901D01*
X141351158Y-91628936D01*
X141375884Y-91641200D01*
X141426631Y-91661576D01*
X141492462Y-91685674D01*
X141496169Y-91686983D01*
X141580331Y-91718791D01*
X141678230Y-91758685D01*
X141769435Y-91798353D01*
X141919407Y-91866420D01*
X142251499Y-91639639D01*
X142274889Y-91623688D01*
X142375080Y-91555890D01*
X142464480Y-91496208D01*
X142537745Y-91448156D01*
X142589527Y-91415250D01*
X142614480Y-91401004D01*
X142631577Y-91404270D01*
X142670395Y-91429571D01*
X142730385Y-91479675D01*
X142813210Y-91555989D01*
X142920535Y-91659922D01*
X142930139Y-91669382D01*
X143015302Y-91754145D01*
X143090949Y-91830937D01*
X143152449Y-91894947D01*
X143195173Y-91941361D01*
X143214489Y-91965369D01*
X143214552Y-91965485D01*
X143217006Y-91983763D01*
X143207956Y-92013411D01*
X143185119Y-92058486D01*
X143146213Y-92123044D01*
X143088954Y-92211140D01*
X143011059Y-92326830D01*
X142997785Y-92346357D01*
X142930652Y-92445278D01*
X142871410Y-92532848D01*
X142823588Y-92603831D01*
X142790715Y-92652991D01*
X142776318Y-92675095D01*
X142775232Y-92679777D01*
X142782044Y-92714710D01*
X142802450Y-92771753D01*
X142833123Y-92841172D01*
X142874808Y-92931959D01*
X142921352Y-93039686D01*
X142960877Y-93137192D01*
X142970676Y-93162430D01*
X142996340Y-93226870D01*
X143015193Y-93271763D01*
X143023710Y-93288616D01*
X143033111Y-93289875D01*
X143075363Y-93297159D01*
X143144521Y-93309739D01*
X143233387Y-93326246D01*
X143334768Y-93345312D01*
X143441467Y-93365569D01*
X143546288Y-93385647D01*
X143642036Y-93404179D01*
X143721516Y-93419795D01*
X143777530Y-93431127D01*
X143802885Y-93436807D01*
X143807088Y-93438408D01*
X143817334Y-93447045D01*
X143824957Y-93465433D01*
X143830338Y-93498460D01*
X143833859Y-93551013D01*
X143835901Y-93627979D01*
X143836847Y-93734246D01*
X143837077Y-93874701D01*
X143837077Y-94301845D01*
X143734500Y-94322091D01*
X143722092Y-94324518D01*
X143656199Y-94337088D01*
X143565084Y-94354170D01*
X143459104Y-94373829D01*
X143348615Y-94394132D01*
X143305105Y-94402299D01*
X143207882Y-94422167D01*
X143126858Y-94440954D01*
X143069477Y-94456859D01*
X143043187Y-94468079D01*
X143031273Y-94486411D01*
X143009583Y-94534916D01*
X142987395Y-94597692D01*
X142979585Y-94621200D01*
X142950835Y-94698366D01*
X142913752Y-94789694D01*
X142874375Y-94880093D01*
X142853315Y-94927310D01*
X142823311Y-94997837D01*
X142802692Y-95050655D01*
X142795026Y-95076912D01*
X142795452Y-95078894D01*
X142809993Y-95106751D01*
X142842783Y-95160510D01*
X142890493Y-95234963D01*
X142949798Y-95324897D01*
X143017369Y-95425104D01*
X143239713Y-95751416D01*
X142947601Y-96044016D01*
X142919349Y-96072171D01*
X142832961Y-96156449D01*
X142755756Y-96229128D01*
X142692258Y-96286112D01*
X142646990Y-96323307D01*
X142624474Y-96336616D01*
X142600023Y-96326490D01*
X142548819Y-96297421D01*
X142476747Y-96252896D01*
X142389460Y-96196411D01*
X142292612Y-96131462D01*
X142197486Y-96067314D01*
X142111669Y-96010827D01*
X142041652Y-95966184D01*
X141992876Y-95936855D01*
X141970783Y-95926308D01*
X141969488Y-95926404D01*
X141940139Y-95936802D01*
X141888093Y-95961012D01*
X141823708Y-95994249D01*
X141823032Y-95994613D01*
X141737521Y-96037441D01*
X141678926Y-96058365D01*
X141642571Y-96058423D01*
X141623775Y-96038654D01*
X141615819Y-96019195D01*
X141594347Y-95967080D01*
X141561273Y-95886964D01*
X141518356Y-95783107D01*
X141467356Y-95659767D01*
X141410033Y-95521201D01*
X141348146Y-95371670D01*
X141292052Y-95235636D01*
X141234977Y-95096050D01*
X141184479Y-94971315D01*
X141142254Y-94865672D01*
X141109995Y-94783365D01*
X141089397Y-94728635D01*
X141082154Y-94705726D01*
X141095986Y-94684718D01*
X141134412Y-94649642D01*
X141188807Y-94608887D01*
X141319395Y-94502267D01*
X141436260Y-94366025D01*
X141521780Y-94216118D01*
X141575431Y-94056971D01*
X141596684Y-93893012D01*
X141585014Y-93728667D01*
X141539894Y-93568361D01*
X141460797Y-93416520D01*
X141347197Y-93277572D01*
X141287965Y-93223460D01*
X141146054Y-93127782D01*
X140994206Y-93065405D01*
X140836861Y-93034844D01*
X140678456Y-93034615D01*
X140523429Y-93063232D01*
X140376220Y-93119210D01*
X140241266Y-93201064D01*
X140123005Y-93307309D01*
X140025877Y-93436459D01*
X139954318Y-93587031D01*
X139912769Y-93757539D01*
X139905143Y-93839722D01*
X139915634Y-94017775D01*
X139962882Y-94186704D01*
X140045489Y-94343522D01*
X140162059Y-94485245D01*
X140311193Y-94608887D01*
X140363561Y-94647982D01*
X140402832Y-94683443D01*
X140417846Y-94705692D01*
X140411859Y-94725088D01*
X140392432Y-94777059D01*
X140361194Y-94857002D01*
X140319839Y-94960673D01*
X140270061Y-95083832D01*
X140213553Y-95222234D01*
X140152009Y-95371637D01*
X140096008Y-95507020D01*
X140038184Y-95646852D01*
X139986500Y-95771872D01*
X139942718Y-95877822D01*
X139908597Y-95960441D01*
X139885898Y-96015472D01*
X139876380Y-96038654D01*
X139876269Y-96038928D01*
X139857228Y-96058503D01*
X139820694Y-96058279D01*
X139761954Y-96037210D01*
X139676292Y-95994249D01*
X139669549Y-95990631D01*
X139605938Y-95958087D01*
X139555707Y-95935050D01*
X139529218Y-95926308D01*
X139507506Y-95936639D01*
X139458984Y-95965788D01*
X139389163Y-96010287D01*
X139303484Y-96066668D01*
X139207388Y-96131462D01*
X139112706Y-96194984D01*
X139025132Y-96251705D01*
X138952642Y-96296547D01*
X138900889Y-96326016D01*
X138875526Y-96336616D01*
X138871206Y-96335270D01*
X138841092Y-96314056D01*
X138789640Y-96270237D01*
X138721375Y-96207909D01*
X138640820Y-96131170D01*
X138552500Y-96044116D01*
X138260488Y-95751617D01*
X138715360Y-95082525D01*
X138646208Y-94932916D01*
X138646003Y-94932473D01*
X138604477Y-94837101D01*
X138562044Y-94730896D01*
X138527858Y-94636769D01*
X138522684Y-94621588D01*
X138496601Y-94551109D01*
X138473081Y-94496342D01*
X138456677Y-94468079D01*
X138449996Y-94464088D01*
X138409892Y-94450697D01*
X138341795Y-94433373D01*
X138253145Y-94413917D01*
X138151385Y-94394132D01*
X138120904Y-94388551D01*
X138010628Y-94368233D01*
X137907731Y-94349095D01*
X137822569Y-94333070D01*
X137765500Y-94322091D01*
X137662923Y-94301845D01*
X137662923Y-93874701D01*
X137662946Y-93822180D01*
X137663379Y-93694047D01*
X137664659Y-93598420D01*
X137667168Y-93530411D01*
X137671286Y-93485133D01*
X137677395Y-93457697D01*
X137685878Y-93443218D01*
X137697115Y-93436807D01*
X137707994Y-93434209D01*
X137752347Y-93425022D01*
X137823106Y-93410991D01*
X137913074Y-93393486D01*
X138015056Y-93373874D01*
X138121857Y-93353525D01*
X138226281Y-93333807D01*
X138321132Y-93316089D01*
X138399214Y-93301738D01*
X138453332Y-93292124D01*
X138476291Y-93288616D01*
X138477842Y-93286497D01*
X138490325Y-93259006D01*
X138511927Y-93206406D01*
X138539123Y-93137192D01*
X138576866Y-93043937D01*
X138623328Y-92936159D01*
X138666878Y-92841172D01*
X138676858Y-92819851D01*
X138704862Y-92753086D01*
X138721641Y-92701590D01*
X138723854Y-92675095D01*
X138722713Y-92673218D01*
X138704584Y-92645565D01*
X138668644Y-92591849D01*
X138618418Y-92517303D01*
X138557430Y-92427162D01*
X138489205Y-92326657D01*
X138412330Y-92212470D01*
X138354663Y-92123770D01*
X138315426Y-92058721D01*
X138292350Y-92013295D01*
X138283166Y-91983463D01*
X138285604Y-91965195D01*
X138286424Y-91963825D01*
X138308477Y-91937205D01*
X138353436Y-91888697D01*
X138416673Y-91823108D01*
X138493559Y-91745247D01*
X138579465Y-91659922D01*
X138668579Y-91573334D01*
X138755872Y-91491947D01*
X138820018Y-91437035D01*
X138862679Y-91407190D01*
X138885521Y-91401004D01*
X138888505Y-91402394D01*
X138919936Y-91421127D01*
X138976997Y-91457733D01*
X139054343Y-91508697D01*
X139146626Y-91570504D01*
X139248502Y-91639639D01*
X139580593Y-91866420D01*
X139730566Y-91798353D01*
X139734923Y-91796381D01*
X139827000Y-91756491D01*
X139924683Y-91716818D01*
X140007539Y-91685674D01*
X140007905Y-91685545D01*
X140073685Y-91661456D01*
X140124323Y-91641110D01*
X140148884Y-91628901D01*
X140149282Y-91628458D01*
X140157619Y-91603456D01*
X140171341Y-91546598D01*
X140189123Y-91464014D01*
X140209641Y-91361831D01*
X140231571Y-91246178D01*
X140232336Y-91242033D01*
X140254229Y-91124019D01*
X140274281Y-91017151D01*
X140291192Y-90928252D01*
X140303667Y-90864145D01*
X140310406Y-90831654D01*
X140310837Y-90829853D01*
X140315273Y-90815944D01*
X140324263Y-90805489D01*
X140342737Y-90797996D01*
X140375628Y-90792972D01*
X140427868Y-90789922D01*
X140504388Y-90788355D01*
X140610122Y-90787776D01*
X140750000Y-90787692D01*
X140767575Y-90787693D01*
G36*
X137361501Y-97126476D02*
G01*
X137442167Y-97156440D01*
X137475714Y-97178954D01*
X137509687Y-97211212D01*
X137533919Y-97252246D01*
X137550001Y-97308108D01*
X137559521Y-97384851D01*
X137564068Y-97488525D01*
X137565231Y-97625184D01*
X137565003Y-97695805D01*
X137563860Y-97792308D01*
X137561919Y-97869323D01*
X137559365Y-97920319D01*
X137556381Y-97938769D01*
X137536962Y-97932667D01*
X137497766Y-97916095D01*
X137496589Y-97915558D01*
X137476235Y-97904903D01*
X137462546Y-97890282D01*
X137454199Y-97864673D01*
X137449874Y-97821054D01*
X137448248Y-97752403D01*
X137448000Y-97651698D01*
X137447500Y-97587813D01*
X137442164Y-97467751D01*
X137429945Y-97379809D01*
X137409552Y-97319375D01*
X137379695Y-97281836D01*
X137339082Y-97262581D01*
X137333448Y-97261239D01*
X137257378Y-97260191D01*
X137198052Y-97294271D01*
X137157077Y-97362598D01*
X137149770Y-97382351D01*
X137133114Y-97426066D01*
X137124679Y-97446155D01*
X137107356Y-97443387D01*
X137069525Y-97428365D01*
X137034240Y-97403556D01*
X137018154Y-97356670D01*
X137022952Y-97323087D01*
X137052431Y-97254967D01*
X137100098Y-97191134D01*
X137155839Y-97146988D01*
X137179193Y-97136782D01*
X137267619Y-97119718D01*
X137361501Y-97126476D01*
G37*
X137361501Y-97126476D02*
X137442167Y-97156440D01*
X137475714Y-97178954D01*
X137509687Y-97211212D01*
X137533919Y-97252246D01*
X137550001Y-97308108D01*
X137559521Y-97384851D01*
X137564068Y-97488525D01*
X137565231Y-97625184D01*
X137565003Y-97695805D01*
X137563860Y-97792308D01*
X137561919Y-97869323D01*
X137559365Y-97920319D01*
X137556381Y-97938769D01*
X137536962Y-97932667D01*
X137497766Y-97916095D01*
X137496589Y-97915558D01*
X137476235Y-97904903D01*
X137462546Y-97890282D01*
X137454199Y-97864673D01*
X137449874Y-97821054D01*
X137448248Y-97752403D01*
X137448000Y-97651698D01*
X137447500Y-97587813D01*
X137442164Y-97467751D01*
X137429945Y-97379809D01*
X137409552Y-97319375D01*
X137379695Y-97281836D01*
X137339082Y-97262581D01*
X137333448Y-97261239D01*
X137257378Y-97260191D01*
X137198052Y-97294271D01*
X137157077Y-97362598D01*
X137149770Y-97382351D01*
X137133114Y-97426066D01*
X137124679Y-97446155D01*
X137107356Y-97443387D01*
X137069525Y-97428365D01*
X137034240Y-97403556D01*
X137018154Y-97356670D01*
X137022952Y-97323087D01*
X137052431Y-97254967D01*
X137100098Y-97191134D01*
X137155839Y-97146988D01*
X137179193Y-97136782D01*
X137267619Y-97119718D01*
X137361501Y-97126476D01*
G36*
X139712839Y-97604652D02*
G01*
X139701810Y-97708507D01*
X139677814Y-97786333D01*
X139638043Y-97845760D01*
X139579688Y-97894418D01*
X139524100Y-97922546D01*
X139430751Y-97938199D01*
X139337530Y-97921084D01*
X139253272Y-97873388D01*
X139186818Y-97797294D01*
X139178793Y-97783262D01*
X139168196Y-97758679D01*
X139160335Y-97727309D01*
X139154807Y-97683769D01*
X139151206Y-97622678D01*
X139149128Y-97538655D01*
X139149064Y-97531200D01*
X139284615Y-97531200D01*
X139285077Y-97602316D01*
X139287999Y-97666641D01*
X139295221Y-97708166D01*
X139308561Y-97736067D01*
X139329836Y-97759517D01*
X139334821Y-97764025D01*
X139398863Y-97797295D01*
X139466625Y-97793890D01*
X139529734Y-97754042D01*
X139548526Y-97733398D01*
X139564254Y-97706029D01*
X139573039Y-97668192D01*
X139576859Y-97610355D01*
X139577692Y-97522986D01*
X139577281Y-97456319D01*
X139574434Y-97391245D01*
X139567256Y-97349251D01*
X139553889Y-97321063D01*
X139532472Y-97297406D01*
X139519890Y-97286753D01*
X139454699Y-97258057D01*
X139386400Y-97262575D01*
X139327098Y-97300144D01*
X139314333Y-97315040D01*
X139298764Y-97343089D01*
X139289762Y-97382258D01*
X139285617Y-97441858D01*
X139284615Y-97531200D01*
X139149064Y-97531200D01*
X139148167Y-97426320D01*
X139147919Y-97280289D01*
X139147846Y-96826963D01*
X139211346Y-96853564D01*
X139228136Y-96860845D01*
X139254859Y-96877287D01*
X139270156Y-96902187D01*
X139278563Y-96945732D01*
X139284615Y-97018106D01*
X139290144Y-97083089D01*
X139297450Y-97125750D01*
X139307918Y-97141670D01*
X139323692Y-97137400D01*
X139363890Y-97122397D01*
X139435728Y-97118678D01*
X139513010Y-97132572D01*
X139579688Y-97162505D01*
X139616371Y-97190211D01*
X139663472Y-97244269D01*
X139693638Y-97313577D01*
X139709678Y-97405765D01*
X139714191Y-97522986D01*
X139714401Y-97528462D01*
X139712839Y-97604652D01*
G37*
X139712839Y-97604652D02*
X139701810Y-97708507D01*
X139677814Y-97786333D01*
X139638043Y-97845760D01*
X139579688Y-97894418D01*
X139524100Y-97922546D01*
X139430751Y-97938199D01*
X139337530Y-97921084D01*
X139253272Y-97873388D01*
X139186818Y-97797294D01*
X139178793Y-97783262D01*
X139168196Y-97758679D01*
X139160335Y-97727309D01*
X139154807Y-97683769D01*
X139151206Y-97622678D01*
X139149128Y-97538655D01*
X139149064Y-97531200D01*
X139284615Y-97531200D01*
X139285077Y-97602316D01*
X139287999Y-97666641D01*
X139295221Y-97708166D01*
X139308561Y-97736067D01*
X139329836Y-97759517D01*
X139334821Y-97764025D01*
X139398863Y-97797295D01*
X139466625Y-97793890D01*
X139529734Y-97754042D01*
X139548526Y-97733398D01*
X139564254Y-97706029D01*
X139573039Y-97668192D01*
X139576859Y-97610355D01*
X139577692Y-97522986D01*
X139577281Y-97456319D01*
X139574434Y-97391245D01*
X139567256Y-97349251D01*
X139553889Y-97321063D01*
X139532472Y-97297406D01*
X139519890Y-97286753D01*
X139454699Y-97258057D01*
X139386400Y-97262575D01*
X139327098Y-97300144D01*
X139314333Y-97315040D01*
X139298764Y-97343089D01*
X139289762Y-97382258D01*
X139285617Y-97441858D01*
X139284615Y-97531200D01*
X139149064Y-97531200D01*
X139148167Y-97426320D01*
X139147919Y-97280289D01*
X139147846Y-96826963D01*
X139211346Y-96853564D01*
X139228136Y-96860845D01*
X139254859Y-96877287D01*
X139270156Y-96902187D01*
X139278563Y-96945732D01*
X139284615Y-97018106D01*
X139290144Y-97083089D01*
X139297450Y-97125750D01*
X139307918Y-97141670D01*
X139323692Y-97137400D01*
X139363890Y-97122397D01*
X139435728Y-97118678D01*
X139513010Y-97132572D01*
X139579688Y-97162505D01*
X139616371Y-97190211D01*
X139663472Y-97244269D01*
X139693638Y-97313577D01*
X139709678Y-97405765D01*
X139714191Y-97522986D01*
X139714401Y-97528462D01*
X139712839Y-97604652D01*
G36*
X143654574Y-97601643D02*
G01*
X143651066Y-97633021D01*
X143624927Y-97744705D01*
X143577694Y-97829642D01*
X143505862Y-97894741D01*
X143501802Y-97897428D01*
X143410487Y-97935634D01*
X143315144Y-97939034D01*
X143223274Y-97909939D01*
X143142379Y-97850660D01*
X143079962Y-97763510D01*
X143078914Y-97761409D01*
X143058173Y-97707289D01*
X143042980Y-97645781D01*
X143034921Y-97588039D01*
X143035582Y-97545215D01*
X143046548Y-97528462D01*
X143056290Y-97529480D01*
X143102877Y-97548009D01*
X143155682Y-97582081D01*
X143200603Y-97621522D01*
X143223535Y-97656155D01*
X143247373Y-97703133D01*
X143296230Y-97745862D01*
X143352963Y-97762923D01*
X143373758Y-97757990D01*
X143414804Y-97733157D01*
X143450557Y-97698685D01*
X143465846Y-97667411D01*
X143465842Y-97667295D01*
X143448495Y-97652933D01*
X143402247Y-97627025D01*
X143334067Y-97593210D01*
X143250923Y-97555129D01*
X143250466Y-97554927D01*
X143160138Y-97514709D01*
X143099592Y-97485733D01*
X143062888Y-97463474D01*
X143044086Y-97443407D01*
X143037246Y-97421009D01*
X143036429Y-97391756D01*
X143042113Y-97336363D01*
X143235000Y-97336363D01*
X143254911Y-97353777D01*
X143304521Y-97379872D01*
X143305976Y-97380610D01*
X143364506Y-97408483D01*
X143416868Y-97430719D01*
X143450086Y-97440126D01*
X143463410Y-97427552D01*
X143465846Y-97384468D01*
X143455724Y-97330847D01*
X143420631Y-97282119D01*
X143369823Y-97256856D01*
X143313181Y-97259406D01*
X143260584Y-97294120D01*
X143239910Y-97318107D01*
X143235000Y-97336363D01*
X143042113Y-97336363D01*
X143043622Y-97321654D01*
X143079184Y-97226412D01*
X143138714Y-97151567D01*
X143215746Y-97099745D01*
X143303815Y-97073573D01*
X143396454Y-97075676D01*
X143487198Y-97108681D01*
X143569579Y-97175215D01*
X143615222Y-97241055D01*
X143648008Y-97335036D01*
X143653339Y-97384468D01*
X143660787Y-97453536D01*
X143654574Y-97601643D01*
G37*
X143654574Y-97601643D02*
X143651066Y-97633021D01*
X143624927Y-97744705D01*
X143577694Y-97829642D01*
X143505862Y-97894741D01*
X143501802Y-97897428D01*
X143410487Y-97935634D01*
X143315144Y-97939034D01*
X143223274Y-97909939D01*
X143142379Y-97850660D01*
X143079962Y-97763510D01*
X143078914Y-97761409D01*
X143058173Y-97707289D01*
X143042980Y-97645781D01*
X143034921Y-97588039D01*
X143035582Y-97545215D01*
X143046548Y-97528462D01*
X143056290Y-97529480D01*
X143102877Y-97548009D01*
X143155682Y-97582081D01*
X143200603Y-97621522D01*
X143223535Y-97656155D01*
X143247373Y-97703133D01*
X143296230Y-97745862D01*
X143352963Y-97762923D01*
X143373758Y-97757990D01*
X143414804Y-97733157D01*
X143450557Y-97698685D01*
X143465846Y-97667411D01*
X143465842Y-97667295D01*
X143448495Y-97652933D01*
X143402247Y-97627025D01*
X143334067Y-97593210D01*
X143250923Y-97555129D01*
X143250466Y-97554927D01*
X143160138Y-97514709D01*
X143099592Y-97485733D01*
X143062888Y-97463474D01*
X143044086Y-97443407D01*
X143037246Y-97421009D01*
X143036429Y-97391756D01*
X143042113Y-97336363D01*
X143235000Y-97336363D01*
X143254911Y-97353777D01*
X143304521Y-97379872D01*
X143305976Y-97380610D01*
X143364506Y-97408483D01*
X143416868Y-97430719D01*
X143450086Y-97440126D01*
X143463410Y-97427552D01*
X143465846Y-97384468D01*
X143455724Y-97330847D01*
X143420631Y-97282119D01*
X143369823Y-97256856D01*
X143313181Y-97259406D01*
X143260584Y-97294120D01*
X143239910Y-97318107D01*
X143235000Y-97336363D01*
X143042113Y-97336363D01*
X143043622Y-97321654D01*
X143079184Y-97226412D01*
X143138714Y-97151567D01*
X143215746Y-97099745D01*
X143303815Y-97073573D01*
X143396454Y-97075676D01*
X143487198Y-97108681D01*
X143569579Y-97175215D01*
X143615222Y-97241055D01*
X143648008Y-97335036D01*
X143653339Y-97384468D01*
X143660787Y-97453536D01*
X143654574Y-97601643D01*
G36*
X140221892Y-97147167D02*
G01*
X140228060Y-97150581D01*
X140278447Y-97189692D01*
X140323498Y-97239975D01*
X140331355Y-97251339D01*
X140346376Y-97277860D01*
X140357107Y-97309336D01*
X140364486Y-97352591D01*
X140369452Y-97414449D01*
X140372942Y-97501733D01*
X140375893Y-97621269D01*
X140376311Y-97641478D01*
X140377654Y-97772499D01*
X140375761Y-97865296D01*
X140370605Y-97920507D01*
X140362158Y-97938769D01*
X140336594Y-97933301D01*
X140293166Y-97916733D01*
X140282940Y-97911888D01*
X140266967Y-97900920D01*
X140255954Y-97882890D01*
X140248750Y-97851396D01*
X140244208Y-97800036D01*
X140241180Y-97722410D01*
X140238516Y-97612115D01*
X140237785Y-97579875D01*
X140234965Y-97478050D01*
X140231304Y-97406788D01*
X140225694Y-97359332D01*
X140217029Y-97328925D01*
X140204202Y-97308810D01*
X140186105Y-97292229D01*
X140132525Y-97263161D01*
X140066612Y-97257564D01*
X140007635Y-97279807D01*
X139965203Y-97325859D01*
X139948923Y-97391692D01*
X139948470Y-97409587D01*
X139939578Y-97441982D01*
X139913325Y-97446925D01*
X139861919Y-97427633D01*
X139850013Y-97421446D01*
X139817835Y-97385058D01*
X139817198Y-97330954D01*
X139847856Y-97256128D01*
X139875978Y-97215350D01*
X139947883Y-97157421D01*
X140036638Y-97124670D01*
X140131542Y-97120212D01*
X140221892Y-97147167D01*
G37*
X140221892Y-97147167D02*
X140228060Y-97150581D01*
X140278447Y-97189692D01*
X140323498Y-97239975D01*
X140331355Y-97251339D01*
X140346376Y-97277860D01*
X140357107Y-97309336D01*
X140364486Y-97352591D01*
X140369452Y-97414449D01*
X140372942Y-97501733D01*
X140375893Y-97621269D01*
X140376311Y-97641478D01*
X140377654Y-97772499D01*
X140375761Y-97865296D01*
X140370605Y-97920507D01*
X140362158Y-97938769D01*
X140336594Y-97933301D01*
X140293166Y-97916733D01*
X140282940Y-97911888D01*
X140266967Y-97900920D01*
X140255954Y-97882890D01*
X140248750Y-97851396D01*
X140244208Y-97800036D01*
X140241180Y-97722410D01*
X140238516Y-97612115D01*
X140237785Y-97579875D01*
X140234965Y-97478050D01*
X140231304Y-97406788D01*
X140225694Y-97359332D01*
X140217029Y-97328925D01*
X140204202Y-97308810D01*
X140186105Y-97292229D01*
X140132525Y-97263161D01*
X140066612Y-97257564D01*
X140007635Y-97279807D01*
X139965203Y-97325859D01*
X139948923Y-97391692D01*
X139948470Y-97409587D01*
X139939578Y-97441982D01*
X139913325Y-97446925D01*
X139861919Y-97427633D01*
X139850013Y-97421446D01*
X139817835Y-97385058D01*
X139817198Y-97330954D01*
X139847856Y-97256128D01*
X139875978Y-97215350D01*
X139947883Y-97157421D01*
X140036638Y-97124670D01*
X140131542Y-97120212D01*
X140221892Y-97147167D01*
G04 #@! TD*
M02*
