G04 #@! TF.GenerationSoftware,KiCad,Pcbnew,7.0.5-7.0.5~ubuntu22.04.1*
G04 #@! TF.CreationDate,2023-06-22T22:23:24-07:00*
G04 #@! TF.ProjectId,VL53L1x_pwm,564c3533-4c31-4785-9f70-776d2e6b6963,rev?*
G04 #@! TF.SameCoordinates,Original*
G04 #@! TF.FileFunction,Legend,Top*
G04 #@! TF.FilePolarity,Positive*
%FSLAX46Y46*%
G04 Gerber Fmt 4.6, Leading zero omitted, Abs format (unit mm)*
G04 Created by KiCad (PCBNEW 7.0.5-7.0.5~ubuntu22.04.1) date 2023-06-22 22:23:24*
%MOMM*%
%LPD*%
G01*
G04 APERTURE LIST*
%ADD10C,0.125000*%
%ADD11C,0.312500*%
%ADD12C,0.250000*%
%ADD13C,0.120000*%
G04 APERTURE END LIST*
D10*
X132178571Y-90474809D02*
X132178571Y-89974809D01*
X132464285Y-90474809D02*
X132250000Y-90189095D01*
X132464285Y-89974809D02*
X132178571Y-90260523D01*
X132678571Y-90212904D02*
X132845238Y-90212904D01*
X132916666Y-90474809D02*
X132678571Y-90474809D01*
X132678571Y-90474809D02*
X132678571Y-89974809D01*
X132678571Y-89974809D02*
X132916666Y-89974809D01*
X133226190Y-90236714D02*
X133226190Y-90474809D01*
X133059524Y-89974809D02*
X133226190Y-90236714D01*
X133226190Y-90236714D02*
X133392857Y-89974809D01*
D11*
X128621547Y-110702381D02*
X128562023Y-110821428D01*
X128562023Y-110821428D02*
X128562023Y-111000000D01*
X128562023Y-111000000D02*
X128621547Y-111178571D01*
X128621547Y-111178571D02*
X128740595Y-111297619D01*
X128740595Y-111297619D02*
X128859642Y-111357142D01*
X128859642Y-111357142D02*
X129097738Y-111416666D01*
X129097738Y-111416666D02*
X129276309Y-111416666D01*
X129276309Y-111416666D02*
X129514404Y-111357142D01*
X129514404Y-111357142D02*
X129633452Y-111297619D01*
X129633452Y-111297619D02*
X129752500Y-111178571D01*
X129752500Y-111178571D02*
X129812023Y-111000000D01*
X129812023Y-111000000D02*
X129812023Y-110880952D01*
X129812023Y-110880952D02*
X129752500Y-110702381D01*
X129752500Y-110702381D02*
X129692976Y-110642857D01*
X129692976Y-110642857D02*
X129276309Y-110642857D01*
X129276309Y-110642857D02*
X129276309Y-110880952D01*
X129812023Y-110107142D02*
X128562023Y-110107142D01*
X128562023Y-110107142D02*
X129812023Y-109392857D01*
X129812023Y-109392857D02*
X128562023Y-109392857D01*
X129812023Y-108797618D02*
X128562023Y-108797618D01*
X128562023Y-108797618D02*
X128562023Y-108499999D01*
X128562023Y-108499999D02*
X128621547Y-108321428D01*
X128621547Y-108321428D02*
X128740595Y-108202380D01*
X128740595Y-108202380D02*
X128859642Y-108142857D01*
X128859642Y-108142857D02*
X129097738Y-108083333D01*
X129097738Y-108083333D02*
X129276309Y-108083333D01*
X129276309Y-108083333D02*
X129514404Y-108142857D01*
X129514404Y-108142857D02*
X129633452Y-108202380D01*
X129633452Y-108202380D02*
X129752500Y-108321428D01*
X129752500Y-108321428D02*
X129812023Y-108499999D01*
X129812023Y-108499999D02*
X129812023Y-108797618D01*
X135062023Y-111505951D02*
X133812023Y-111505951D01*
X133812023Y-111505951D02*
X133812023Y-111029761D01*
X133812023Y-111029761D02*
X133871547Y-110910713D01*
X133871547Y-110910713D02*
X133931071Y-110851190D01*
X133931071Y-110851190D02*
X134050119Y-110791666D01*
X134050119Y-110791666D02*
X134228690Y-110791666D01*
X134228690Y-110791666D02*
X134347738Y-110851190D01*
X134347738Y-110851190D02*
X134407261Y-110910713D01*
X134407261Y-110910713D02*
X134466785Y-111029761D01*
X134466785Y-111029761D02*
X134466785Y-111505951D01*
X133812023Y-110374999D02*
X135062023Y-110077380D01*
X135062023Y-110077380D02*
X134169166Y-109839285D01*
X134169166Y-109839285D02*
X135062023Y-109601190D01*
X135062023Y-109601190D02*
X133812023Y-109303571D01*
X135062023Y-108827380D02*
X133812023Y-108827380D01*
X133812023Y-108827380D02*
X134704880Y-108410714D01*
X134704880Y-108410714D02*
X133812023Y-107994047D01*
X133812023Y-107994047D02*
X135062023Y-107994047D01*
X137562023Y-110880951D02*
X136312023Y-110880951D01*
X137562023Y-110285713D02*
X136312023Y-110285713D01*
X136312023Y-110285713D02*
X137562023Y-109571428D01*
X137562023Y-109571428D02*
X136312023Y-109571428D01*
X136312023Y-109154761D02*
X136312023Y-108440475D01*
X137562023Y-108797618D02*
X136312023Y-108797618D01*
D10*
X129797621Y-103201000D02*
X129869049Y-103224809D01*
X129869049Y-103224809D02*
X129988097Y-103224809D01*
X129988097Y-103224809D02*
X130035716Y-103201000D01*
X130035716Y-103201000D02*
X130059525Y-103177190D01*
X130059525Y-103177190D02*
X130083335Y-103129571D01*
X130083335Y-103129571D02*
X130083335Y-103081952D01*
X130083335Y-103081952D02*
X130059525Y-103034333D01*
X130059525Y-103034333D02*
X130035716Y-103010523D01*
X130035716Y-103010523D02*
X129988097Y-102986714D01*
X129988097Y-102986714D02*
X129892859Y-102962904D01*
X129892859Y-102962904D02*
X129845240Y-102939095D01*
X129845240Y-102939095D02*
X129821430Y-102915285D01*
X129821430Y-102915285D02*
X129797621Y-102867666D01*
X129797621Y-102867666D02*
X129797621Y-102820047D01*
X129797621Y-102820047D02*
X129821430Y-102772428D01*
X129821430Y-102772428D02*
X129845240Y-102748619D01*
X129845240Y-102748619D02*
X129892859Y-102724809D01*
X129892859Y-102724809D02*
X130011906Y-102724809D01*
X130011906Y-102724809D02*
X130083335Y-102748619D01*
X130226192Y-102724809D02*
X130511906Y-102724809D01*
X130369049Y-103224809D02*
X130369049Y-102724809D01*
X130678572Y-103224809D02*
X130678572Y-102724809D01*
X130678572Y-102724809D02*
X130845239Y-103081952D01*
X130845239Y-103081952D02*
X131011905Y-102724809D01*
X131011905Y-102724809D02*
X131011905Y-103224809D01*
X131202382Y-102724809D02*
X131511906Y-102724809D01*
X131511906Y-102724809D02*
X131345239Y-102915285D01*
X131345239Y-102915285D02*
X131416668Y-102915285D01*
X131416668Y-102915285D02*
X131464287Y-102939095D01*
X131464287Y-102939095D02*
X131488096Y-102962904D01*
X131488096Y-102962904D02*
X131511906Y-103010523D01*
X131511906Y-103010523D02*
X131511906Y-103129571D01*
X131511906Y-103129571D02*
X131488096Y-103177190D01*
X131488096Y-103177190D02*
X131464287Y-103201000D01*
X131464287Y-103201000D02*
X131416668Y-103224809D01*
X131416668Y-103224809D02*
X131273811Y-103224809D01*
X131273811Y-103224809D02*
X131226192Y-103201000D01*
X131226192Y-103201000D02*
X131202382Y-103177190D01*
X131702382Y-102772428D02*
X131726191Y-102748619D01*
X131726191Y-102748619D02*
X131773810Y-102724809D01*
X131773810Y-102724809D02*
X131892858Y-102724809D01*
X131892858Y-102724809D02*
X131940477Y-102748619D01*
X131940477Y-102748619D02*
X131964286Y-102772428D01*
X131964286Y-102772428D02*
X131988096Y-102820047D01*
X131988096Y-102820047D02*
X131988096Y-102867666D01*
X131988096Y-102867666D02*
X131964286Y-102939095D01*
X131964286Y-102939095D02*
X131678572Y-103224809D01*
X131678572Y-103224809D02*
X131988096Y-103224809D01*
X132440476Y-103224809D02*
X132202381Y-103224809D01*
X132202381Y-103224809D02*
X132202381Y-102724809D01*
X132702381Y-102724809D02*
X132750000Y-102724809D01*
X132750000Y-102724809D02*
X132797619Y-102748619D01*
X132797619Y-102748619D02*
X132821429Y-102772428D01*
X132821429Y-102772428D02*
X132845238Y-102820047D01*
X132845238Y-102820047D02*
X132869048Y-102915285D01*
X132869048Y-102915285D02*
X132869048Y-103034333D01*
X132869048Y-103034333D02*
X132845238Y-103129571D01*
X132845238Y-103129571D02*
X132821429Y-103177190D01*
X132821429Y-103177190D02*
X132797619Y-103201000D01*
X132797619Y-103201000D02*
X132750000Y-103224809D01*
X132750000Y-103224809D02*
X132702381Y-103224809D01*
X132702381Y-103224809D02*
X132654762Y-103201000D01*
X132654762Y-103201000D02*
X132630953Y-103177190D01*
X132630953Y-103177190D02*
X132607143Y-103129571D01*
X132607143Y-103129571D02*
X132583334Y-103034333D01*
X132583334Y-103034333D02*
X132583334Y-102915285D01*
X132583334Y-102915285D02*
X132607143Y-102820047D01*
X132607143Y-102820047D02*
X132630953Y-102772428D01*
X132630953Y-102772428D02*
X132654762Y-102748619D01*
X132654762Y-102748619D02*
X132702381Y-102724809D01*
X133345238Y-103224809D02*
X133059524Y-103224809D01*
X133202381Y-103224809D02*
X133202381Y-102724809D01*
X133202381Y-102724809D02*
X133154762Y-102796238D01*
X133154762Y-102796238D02*
X133107143Y-102843857D01*
X133107143Y-102843857D02*
X133059524Y-102867666D01*
X133821428Y-103224809D02*
X133535714Y-103224809D01*
X133678571Y-103224809D02*
X133678571Y-102724809D01*
X133678571Y-102724809D02*
X133630952Y-102796238D01*
X133630952Y-102796238D02*
X133583333Y-102843857D01*
X133583333Y-102843857D02*
X133535714Y-102867666D01*
X134035713Y-103224809D02*
X134035713Y-102724809D01*
X134035713Y-102724809D02*
X134154761Y-102724809D01*
X134154761Y-102724809D02*
X134226189Y-102748619D01*
X134226189Y-102748619D02*
X134273808Y-102796238D01*
X134273808Y-102796238D02*
X134297618Y-102843857D01*
X134297618Y-102843857D02*
X134321427Y-102939095D01*
X134321427Y-102939095D02*
X134321427Y-103010523D01*
X134321427Y-103010523D02*
X134297618Y-103105761D01*
X134297618Y-103105761D02*
X134273808Y-103153380D01*
X134273808Y-103153380D02*
X134226189Y-103201000D01*
X134226189Y-103201000D02*
X134154761Y-103224809D01*
X134154761Y-103224809D02*
X134035713Y-103224809D01*
X134749999Y-102891476D02*
X134749999Y-103224809D01*
X134630951Y-102701000D02*
X134511904Y-103058142D01*
X134511904Y-103058142D02*
X134821427Y-103058142D01*
X135011903Y-103224809D02*
X135011903Y-102724809D01*
X135011903Y-102724809D02*
X135202379Y-102724809D01*
X135202379Y-102724809D02*
X135249998Y-102748619D01*
X135249998Y-102748619D02*
X135273808Y-102772428D01*
X135273808Y-102772428D02*
X135297617Y-102820047D01*
X135297617Y-102820047D02*
X135297617Y-102891476D01*
X135297617Y-102891476D02*
X135273808Y-102939095D01*
X135273808Y-102939095D02*
X135249998Y-102962904D01*
X135249998Y-102962904D02*
X135202379Y-102986714D01*
X135202379Y-102986714D02*
X135011903Y-102986714D01*
X135464284Y-103224809D02*
X135726189Y-102891476D01*
X135464284Y-102891476D02*
X135726189Y-103224809D01*
D12*
X124404761Y-87394619D02*
X124404761Y-86394619D01*
X124404761Y-86394619D02*
X124785713Y-86394619D01*
X124785713Y-86394619D02*
X124880951Y-86442238D01*
X124880951Y-86442238D02*
X124928570Y-86489857D01*
X124928570Y-86489857D02*
X124976189Y-86585095D01*
X124976189Y-86585095D02*
X124976189Y-86727952D01*
X124976189Y-86727952D02*
X124928570Y-86823190D01*
X124928570Y-86823190D02*
X124880951Y-86870809D01*
X124880951Y-86870809D02*
X124785713Y-86918428D01*
X124785713Y-86918428D02*
X124404761Y-86918428D01*
X125309523Y-86394619D02*
X125547618Y-87394619D01*
X125547618Y-87394619D02*
X125738094Y-86680333D01*
X125738094Y-86680333D02*
X125928570Y-87394619D01*
X125928570Y-87394619D02*
X126166666Y-86394619D01*
X126547618Y-87394619D02*
X126547618Y-86394619D01*
X126547618Y-86394619D02*
X126880951Y-87108904D01*
X126880951Y-87108904D02*
X127214284Y-86394619D01*
X127214284Y-86394619D02*
X127214284Y-87394619D01*
X128642856Y-86394619D02*
X128833332Y-86394619D01*
X128833332Y-86394619D02*
X128928570Y-86442238D01*
X128928570Y-86442238D02*
X129023808Y-86537476D01*
X129023808Y-86537476D02*
X129071427Y-86727952D01*
X129071427Y-86727952D02*
X129071427Y-87061285D01*
X129071427Y-87061285D02*
X129023808Y-87251761D01*
X129023808Y-87251761D02*
X128928570Y-87347000D01*
X128928570Y-87347000D02*
X128833332Y-87394619D01*
X128833332Y-87394619D02*
X128642856Y-87394619D01*
X128642856Y-87394619D02*
X128547618Y-87347000D01*
X128547618Y-87347000D02*
X128452380Y-87251761D01*
X128452380Y-87251761D02*
X128404761Y-87061285D01*
X128404761Y-87061285D02*
X128404761Y-86727952D01*
X128404761Y-86727952D02*
X128452380Y-86537476D01*
X128452380Y-86537476D02*
X128547618Y-86442238D01*
X128547618Y-86442238D02*
X128642856Y-86394619D01*
X129928570Y-86727952D02*
X129928570Y-87394619D01*
X129499999Y-86727952D02*
X129499999Y-87251761D01*
X129499999Y-87251761D02*
X129547618Y-87347000D01*
X129547618Y-87347000D02*
X129642856Y-87394619D01*
X129642856Y-87394619D02*
X129785713Y-87394619D01*
X129785713Y-87394619D02*
X129880951Y-87347000D01*
X129880951Y-87347000D02*
X129928570Y-87299380D01*
X130261904Y-86727952D02*
X130642856Y-86727952D01*
X130404761Y-86394619D02*
X130404761Y-87251761D01*
X130404761Y-87251761D02*
X130452380Y-87347000D01*
X130452380Y-87347000D02*
X130547618Y-87394619D01*
X130547618Y-87394619D02*
X130642856Y-87394619D01*
X130976190Y-86727952D02*
X130976190Y-87727952D01*
X130976190Y-86775571D02*
X131071428Y-86727952D01*
X131071428Y-86727952D02*
X131261904Y-86727952D01*
X131261904Y-86727952D02*
X131357142Y-86775571D01*
X131357142Y-86775571D02*
X131404761Y-86823190D01*
X131404761Y-86823190D02*
X131452380Y-86918428D01*
X131452380Y-86918428D02*
X131452380Y-87204142D01*
X131452380Y-87204142D02*
X131404761Y-87299380D01*
X131404761Y-87299380D02*
X131357142Y-87347000D01*
X131357142Y-87347000D02*
X131261904Y-87394619D01*
X131261904Y-87394619D02*
X131071428Y-87394619D01*
X131071428Y-87394619D02*
X130976190Y-87347000D01*
X132309523Y-86727952D02*
X132309523Y-87394619D01*
X131880952Y-86727952D02*
X131880952Y-87251761D01*
X131880952Y-87251761D02*
X131928571Y-87347000D01*
X131928571Y-87347000D02*
X132023809Y-87394619D01*
X132023809Y-87394619D02*
X132166666Y-87394619D01*
X132166666Y-87394619D02*
X132261904Y-87347000D01*
X132261904Y-87347000D02*
X132309523Y-87299380D01*
X132642857Y-86727952D02*
X133023809Y-86727952D01*
X132785714Y-86394619D02*
X132785714Y-87251761D01*
X132785714Y-87251761D02*
X132833333Y-87347000D01*
X132833333Y-87347000D02*
X132928571Y-87394619D01*
X132928571Y-87394619D02*
X133023809Y-87394619D01*
X134595238Y-87394619D02*
X134119048Y-87394619D01*
X134119048Y-87394619D02*
X134119048Y-86394619D01*
X134928572Y-87394619D02*
X134928572Y-86727952D01*
X134928572Y-86394619D02*
X134880953Y-86442238D01*
X134880953Y-86442238D02*
X134928572Y-86489857D01*
X134928572Y-86489857D02*
X134976191Y-86442238D01*
X134976191Y-86442238D02*
X134928572Y-86394619D01*
X134928572Y-86394619D02*
X134928572Y-86489857D01*
X135404762Y-87394619D02*
X135404762Y-86394619D01*
X135404762Y-86394619D02*
X135642857Y-86394619D01*
X135642857Y-86394619D02*
X135785714Y-86442238D01*
X135785714Y-86442238D02*
X135880952Y-86537476D01*
X135880952Y-86537476D02*
X135928571Y-86632714D01*
X135928571Y-86632714D02*
X135976190Y-86823190D01*
X135976190Y-86823190D02*
X135976190Y-86966047D01*
X135976190Y-86966047D02*
X135928571Y-87156523D01*
X135928571Y-87156523D02*
X135880952Y-87251761D01*
X135880952Y-87251761D02*
X135785714Y-87347000D01*
X135785714Y-87347000D02*
X135642857Y-87394619D01*
X135642857Y-87394619D02*
X135404762Y-87394619D01*
X136357143Y-87108904D02*
X136833333Y-87108904D01*
X136261905Y-87394619D02*
X136595238Y-86394619D01*
X136595238Y-86394619D02*
X136928571Y-87394619D01*
X137833333Y-87394619D02*
X137500000Y-86918428D01*
X137261905Y-87394619D02*
X137261905Y-86394619D01*
X137261905Y-86394619D02*
X137642857Y-86394619D01*
X137642857Y-86394619D02*
X137738095Y-86442238D01*
X137738095Y-86442238D02*
X137785714Y-86489857D01*
X137785714Y-86489857D02*
X137833333Y-86585095D01*
X137833333Y-86585095D02*
X137833333Y-86727952D01*
X137833333Y-86727952D02*
X137785714Y-86823190D01*
X137785714Y-86823190D02*
X137738095Y-86870809D01*
X137738095Y-86870809D02*
X137642857Y-86918428D01*
X137642857Y-86918428D02*
X137261905Y-86918428D01*
X138976191Y-87347000D02*
X139119048Y-87394619D01*
X139119048Y-87394619D02*
X139357143Y-87394619D01*
X139357143Y-87394619D02*
X139452381Y-87347000D01*
X139452381Y-87347000D02*
X139500000Y-87299380D01*
X139500000Y-87299380D02*
X139547619Y-87204142D01*
X139547619Y-87204142D02*
X139547619Y-87108904D01*
X139547619Y-87108904D02*
X139500000Y-87013666D01*
X139500000Y-87013666D02*
X139452381Y-86966047D01*
X139452381Y-86966047D02*
X139357143Y-86918428D01*
X139357143Y-86918428D02*
X139166667Y-86870809D01*
X139166667Y-86870809D02*
X139071429Y-86823190D01*
X139071429Y-86823190D02*
X139023810Y-86775571D01*
X139023810Y-86775571D02*
X138976191Y-86680333D01*
X138976191Y-86680333D02*
X138976191Y-86585095D01*
X138976191Y-86585095D02*
X139023810Y-86489857D01*
X139023810Y-86489857D02*
X139071429Y-86442238D01*
X139071429Y-86442238D02*
X139166667Y-86394619D01*
X139166667Y-86394619D02*
X139404762Y-86394619D01*
X139404762Y-86394619D02*
X139547619Y-86442238D01*
X140357143Y-87347000D02*
X140261905Y-87394619D01*
X140261905Y-87394619D02*
X140071429Y-87394619D01*
X140071429Y-87394619D02*
X139976191Y-87347000D01*
X139976191Y-87347000D02*
X139928572Y-87251761D01*
X139928572Y-87251761D02*
X139928572Y-86870809D01*
X139928572Y-86870809D02*
X139976191Y-86775571D01*
X139976191Y-86775571D02*
X140071429Y-86727952D01*
X140071429Y-86727952D02*
X140261905Y-86727952D01*
X140261905Y-86727952D02*
X140357143Y-86775571D01*
X140357143Y-86775571D02*
X140404762Y-86870809D01*
X140404762Y-86870809D02*
X140404762Y-86966047D01*
X140404762Y-86966047D02*
X139928572Y-87061285D01*
X140833334Y-86727952D02*
X140833334Y-87394619D01*
X140833334Y-86823190D02*
X140880953Y-86775571D01*
X140880953Y-86775571D02*
X140976191Y-86727952D01*
X140976191Y-86727952D02*
X141119048Y-86727952D01*
X141119048Y-86727952D02*
X141214286Y-86775571D01*
X141214286Y-86775571D02*
X141261905Y-86870809D01*
X141261905Y-86870809D02*
X141261905Y-87394619D01*
X141690477Y-87347000D02*
X141785715Y-87394619D01*
X141785715Y-87394619D02*
X141976191Y-87394619D01*
X141976191Y-87394619D02*
X142071429Y-87347000D01*
X142071429Y-87347000D02*
X142119048Y-87251761D01*
X142119048Y-87251761D02*
X142119048Y-87204142D01*
X142119048Y-87204142D02*
X142071429Y-87108904D01*
X142071429Y-87108904D02*
X141976191Y-87061285D01*
X141976191Y-87061285D02*
X141833334Y-87061285D01*
X141833334Y-87061285D02*
X141738096Y-87013666D01*
X141738096Y-87013666D02*
X141690477Y-86918428D01*
X141690477Y-86918428D02*
X141690477Y-86870809D01*
X141690477Y-86870809D02*
X141738096Y-86775571D01*
X141738096Y-86775571D02*
X141833334Y-86727952D01*
X141833334Y-86727952D02*
X141976191Y-86727952D01*
X141976191Y-86727952D02*
X142071429Y-86775571D01*
X142690477Y-87394619D02*
X142595239Y-87347000D01*
X142595239Y-87347000D02*
X142547620Y-87299380D01*
X142547620Y-87299380D02*
X142500001Y-87204142D01*
X142500001Y-87204142D02*
X142500001Y-86918428D01*
X142500001Y-86918428D02*
X142547620Y-86823190D01*
X142547620Y-86823190D02*
X142595239Y-86775571D01*
X142595239Y-86775571D02*
X142690477Y-86727952D01*
X142690477Y-86727952D02*
X142833334Y-86727952D01*
X142833334Y-86727952D02*
X142928572Y-86775571D01*
X142928572Y-86775571D02*
X142976191Y-86823190D01*
X142976191Y-86823190D02*
X143023810Y-86918428D01*
X143023810Y-86918428D02*
X143023810Y-87204142D01*
X143023810Y-87204142D02*
X142976191Y-87299380D01*
X142976191Y-87299380D02*
X142928572Y-87347000D01*
X142928572Y-87347000D02*
X142833334Y-87394619D01*
X142833334Y-87394619D02*
X142690477Y-87394619D01*
X143452382Y-87394619D02*
X143452382Y-86727952D01*
X143452382Y-86918428D02*
X143500001Y-86823190D01*
X143500001Y-86823190D02*
X143547620Y-86775571D01*
X143547620Y-86775571D02*
X143642858Y-86727952D01*
X143642858Y-86727952D02*
X143738096Y-86727952D01*
X129166666Y-88004619D02*
X129785713Y-88004619D01*
X129785713Y-88004619D02*
X129452380Y-88385571D01*
X129452380Y-88385571D02*
X129595237Y-88385571D01*
X129595237Y-88385571D02*
X129690475Y-88433190D01*
X129690475Y-88433190D02*
X129738094Y-88480809D01*
X129738094Y-88480809D02*
X129785713Y-88576047D01*
X129785713Y-88576047D02*
X129785713Y-88814142D01*
X129785713Y-88814142D02*
X129738094Y-88909380D01*
X129738094Y-88909380D02*
X129690475Y-88957000D01*
X129690475Y-88957000D02*
X129595237Y-89004619D01*
X129595237Y-89004619D02*
X129309523Y-89004619D01*
X129309523Y-89004619D02*
X129214285Y-88957000D01*
X129214285Y-88957000D02*
X129166666Y-88909380D01*
X131404761Y-88957000D02*
X131309523Y-89004619D01*
X131309523Y-89004619D02*
X131119047Y-89004619D01*
X131119047Y-89004619D02*
X131023809Y-88957000D01*
X131023809Y-88957000D02*
X130976190Y-88909380D01*
X130976190Y-88909380D02*
X130928571Y-88814142D01*
X130928571Y-88814142D02*
X130928571Y-88528428D01*
X130928571Y-88528428D02*
X130976190Y-88433190D01*
X130976190Y-88433190D02*
X131023809Y-88385571D01*
X131023809Y-88385571D02*
X131119047Y-88337952D01*
X131119047Y-88337952D02*
X131309523Y-88337952D01*
X131309523Y-88337952D02*
X131404761Y-88385571D01*
X131833333Y-89004619D02*
X131833333Y-88337952D01*
X131833333Y-88433190D02*
X131880952Y-88385571D01*
X131880952Y-88385571D02*
X131976190Y-88337952D01*
X131976190Y-88337952D02*
X132119047Y-88337952D01*
X132119047Y-88337952D02*
X132214285Y-88385571D01*
X132214285Y-88385571D02*
X132261904Y-88480809D01*
X132261904Y-88480809D02*
X132261904Y-89004619D01*
X132261904Y-88480809D02*
X132309523Y-88385571D01*
X132309523Y-88385571D02*
X132404761Y-88337952D01*
X132404761Y-88337952D02*
X132547618Y-88337952D01*
X132547618Y-88337952D02*
X132642857Y-88385571D01*
X132642857Y-88385571D02*
X132690476Y-88480809D01*
X132690476Y-88480809D02*
X132690476Y-89004619D01*
X133785714Y-88337952D02*
X134166666Y-88337952D01*
X133928571Y-88004619D02*
X133928571Y-88861761D01*
X133928571Y-88861761D02*
X133976190Y-88957000D01*
X133976190Y-88957000D02*
X134071428Y-89004619D01*
X134071428Y-89004619D02*
X134166666Y-89004619D01*
X134642857Y-89004619D02*
X134547619Y-88957000D01*
X134547619Y-88957000D02*
X134500000Y-88909380D01*
X134500000Y-88909380D02*
X134452381Y-88814142D01*
X134452381Y-88814142D02*
X134452381Y-88528428D01*
X134452381Y-88528428D02*
X134500000Y-88433190D01*
X134500000Y-88433190D02*
X134547619Y-88385571D01*
X134547619Y-88385571D02*
X134642857Y-88337952D01*
X134642857Y-88337952D02*
X134785714Y-88337952D01*
X134785714Y-88337952D02*
X134880952Y-88385571D01*
X134880952Y-88385571D02*
X134928571Y-88433190D01*
X134928571Y-88433190D02*
X134976190Y-88528428D01*
X134976190Y-88528428D02*
X134976190Y-88814142D01*
X134976190Y-88814142D02*
X134928571Y-88909380D01*
X134928571Y-88909380D02*
X134880952Y-88957000D01*
X134880952Y-88957000D02*
X134785714Y-89004619D01*
X134785714Y-89004619D02*
X134642857Y-89004619D01*
X136595238Y-88337952D02*
X136595238Y-89004619D01*
X136357143Y-87957000D02*
X136119048Y-88671285D01*
X136119048Y-88671285D02*
X136738095Y-88671285D01*
X137880953Y-89004619D02*
X137880953Y-88337952D01*
X137880953Y-88433190D02*
X137928572Y-88385571D01*
X137928572Y-88385571D02*
X138023810Y-88337952D01*
X138023810Y-88337952D02*
X138166667Y-88337952D01*
X138166667Y-88337952D02*
X138261905Y-88385571D01*
X138261905Y-88385571D02*
X138309524Y-88480809D01*
X138309524Y-88480809D02*
X138309524Y-89004619D01*
X138309524Y-88480809D02*
X138357143Y-88385571D01*
X138357143Y-88385571D02*
X138452381Y-88337952D01*
X138452381Y-88337952D02*
X138595238Y-88337952D01*
X138595238Y-88337952D02*
X138690477Y-88385571D01*
X138690477Y-88385571D02*
X138738096Y-88480809D01*
X138738096Y-88480809D02*
X138738096Y-89004619D01*
D10*
X146974809Y-101488093D02*
X147474809Y-101321427D01*
X147474809Y-101321427D02*
X146974809Y-101154760D01*
X147474809Y-100749999D02*
X147474809Y-100988094D01*
X147474809Y-100988094D02*
X146974809Y-100988094D01*
X146974809Y-100345237D02*
X146974809Y-100583332D01*
X146974809Y-100583332D02*
X147212904Y-100607141D01*
X147212904Y-100607141D02*
X147189095Y-100583332D01*
X147189095Y-100583332D02*
X147165285Y-100535713D01*
X147165285Y-100535713D02*
X147165285Y-100416665D01*
X147165285Y-100416665D02*
X147189095Y-100369046D01*
X147189095Y-100369046D02*
X147212904Y-100345237D01*
X147212904Y-100345237D02*
X147260523Y-100321427D01*
X147260523Y-100321427D02*
X147379571Y-100321427D01*
X147379571Y-100321427D02*
X147427190Y-100345237D01*
X147427190Y-100345237D02*
X147451000Y-100369046D01*
X147451000Y-100369046D02*
X147474809Y-100416665D01*
X147474809Y-100416665D02*
X147474809Y-100535713D01*
X147474809Y-100535713D02*
X147451000Y-100583332D01*
X147451000Y-100583332D02*
X147427190Y-100607141D01*
X146974809Y-100154761D02*
X146974809Y-99845237D01*
X146974809Y-99845237D02*
X147165285Y-100011904D01*
X147165285Y-100011904D02*
X147165285Y-99940475D01*
X147165285Y-99940475D02*
X147189095Y-99892856D01*
X147189095Y-99892856D02*
X147212904Y-99869047D01*
X147212904Y-99869047D02*
X147260523Y-99845237D01*
X147260523Y-99845237D02*
X147379571Y-99845237D01*
X147379571Y-99845237D02*
X147427190Y-99869047D01*
X147427190Y-99869047D02*
X147451000Y-99892856D01*
X147451000Y-99892856D02*
X147474809Y-99940475D01*
X147474809Y-99940475D02*
X147474809Y-100083332D01*
X147474809Y-100083332D02*
X147451000Y-100130951D01*
X147451000Y-100130951D02*
X147427190Y-100154761D01*
X147474809Y-99392857D02*
X147474809Y-99630952D01*
X147474809Y-99630952D02*
X146974809Y-99630952D01*
X147474809Y-98964285D02*
X147474809Y-99249999D01*
X147474809Y-99107142D02*
X146974809Y-99107142D01*
X146974809Y-99107142D02*
X147046238Y-99154761D01*
X147046238Y-99154761D02*
X147093857Y-99202380D01*
X147093857Y-99202380D02*
X147117666Y-99249999D01*
X147427190Y-98464286D02*
X147451000Y-98488095D01*
X147451000Y-98488095D02*
X147474809Y-98559524D01*
X147474809Y-98559524D02*
X147474809Y-98607143D01*
X147474809Y-98607143D02*
X147451000Y-98678571D01*
X147451000Y-98678571D02*
X147403380Y-98726190D01*
X147403380Y-98726190D02*
X147355761Y-98750000D01*
X147355761Y-98750000D02*
X147260523Y-98773809D01*
X147260523Y-98773809D02*
X147189095Y-98773809D01*
X147189095Y-98773809D02*
X147093857Y-98750000D01*
X147093857Y-98750000D02*
X147046238Y-98726190D01*
X147046238Y-98726190D02*
X146998619Y-98678571D01*
X146998619Y-98678571D02*
X146974809Y-98607143D01*
X146974809Y-98607143D02*
X146974809Y-98559524D01*
X146974809Y-98559524D02*
X146998619Y-98488095D01*
X146998619Y-98488095D02*
X147022428Y-98464286D01*
X147474809Y-98297619D02*
X147141476Y-98035714D01*
X147141476Y-98297619D02*
X147474809Y-98035714D01*
D11*
X131062023Y-111416666D02*
X132312023Y-110999999D01*
X132312023Y-110999999D02*
X131062023Y-110583333D01*
X132192976Y-109452380D02*
X132252500Y-109511904D01*
X132252500Y-109511904D02*
X132312023Y-109690475D01*
X132312023Y-109690475D02*
X132312023Y-109809523D01*
X132312023Y-109809523D02*
X132252500Y-109988094D01*
X132252500Y-109988094D02*
X132133452Y-110107142D01*
X132133452Y-110107142D02*
X132014404Y-110166665D01*
X132014404Y-110166665D02*
X131776309Y-110226189D01*
X131776309Y-110226189D02*
X131597738Y-110226189D01*
X131597738Y-110226189D02*
X131359642Y-110166665D01*
X131359642Y-110166665D02*
X131240595Y-110107142D01*
X131240595Y-110107142D02*
X131121547Y-109988094D01*
X131121547Y-109988094D02*
X131062023Y-109809523D01*
X131062023Y-109809523D02*
X131062023Y-109690475D01*
X131062023Y-109690475D02*
X131121547Y-109511904D01*
X131121547Y-109511904D02*
X131181071Y-109452380D01*
X132192976Y-108202380D02*
X132252500Y-108261904D01*
X132252500Y-108261904D02*
X132312023Y-108440475D01*
X132312023Y-108440475D02*
X132312023Y-108559523D01*
X132312023Y-108559523D02*
X132252500Y-108738094D01*
X132252500Y-108738094D02*
X132133452Y-108857142D01*
X132133452Y-108857142D02*
X132014404Y-108916665D01*
X132014404Y-108916665D02*
X131776309Y-108976189D01*
X131776309Y-108976189D02*
X131597738Y-108976189D01*
X131597738Y-108976189D02*
X131359642Y-108916665D01*
X131359642Y-108916665D02*
X131240595Y-108857142D01*
X131240595Y-108857142D02*
X131121547Y-108738094D01*
X131121547Y-108738094D02*
X131062023Y-108559523D01*
X131062023Y-108559523D02*
X131062023Y-108440475D01*
X131062023Y-108440475D02*
X131121547Y-108261904D01*
X131121547Y-108261904D02*
X131181071Y-108202380D01*
D10*
G04 #@! TO.C,C2*
X124666666Y-96177190D02*
X124642857Y-96201000D01*
X124642857Y-96201000D02*
X124571428Y-96224809D01*
X124571428Y-96224809D02*
X124523809Y-96224809D01*
X124523809Y-96224809D02*
X124452381Y-96201000D01*
X124452381Y-96201000D02*
X124404762Y-96153380D01*
X124404762Y-96153380D02*
X124380952Y-96105761D01*
X124380952Y-96105761D02*
X124357143Y-96010523D01*
X124357143Y-96010523D02*
X124357143Y-95939095D01*
X124357143Y-95939095D02*
X124380952Y-95843857D01*
X124380952Y-95843857D02*
X124404762Y-95796238D01*
X124404762Y-95796238D02*
X124452381Y-95748619D01*
X124452381Y-95748619D02*
X124523809Y-95724809D01*
X124523809Y-95724809D02*
X124571428Y-95724809D01*
X124571428Y-95724809D02*
X124642857Y-95748619D01*
X124642857Y-95748619D02*
X124666666Y-95772428D01*
X124857143Y-95772428D02*
X124880952Y-95748619D01*
X124880952Y-95748619D02*
X124928571Y-95724809D01*
X124928571Y-95724809D02*
X125047619Y-95724809D01*
X125047619Y-95724809D02*
X125095238Y-95748619D01*
X125095238Y-95748619D02*
X125119047Y-95772428D01*
X125119047Y-95772428D02*
X125142857Y-95820047D01*
X125142857Y-95820047D02*
X125142857Y-95867666D01*
X125142857Y-95867666D02*
X125119047Y-95939095D01*
X125119047Y-95939095D02*
X124833333Y-96224809D01*
X124833333Y-96224809D02*
X125142857Y-96224809D01*
G04 #@! TO.C,C7*
X119677190Y-100833333D02*
X119701000Y-100857142D01*
X119701000Y-100857142D02*
X119724809Y-100928571D01*
X119724809Y-100928571D02*
X119724809Y-100976190D01*
X119724809Y-100976190D02*
X119701000Y-101047618D01*
X119701000Y-101047618D02*
X119653380Y-101095237D01*
X119653380Y-101095237D02*
X119605761Y-101119047D01*
X119605761Y-101119047D02*
X119510523Y-101142856D01*
X119510523Y-101142856D02*
X119439095Y-101142856D01*
X119439095Y-101142856D02*
X119343857Y-101119047D01*
X119343857Y-101119047D02*
X119296238Y-101095237D01*
X119296238Y-101095237D02*
X119248619Y-101047618D01*
X119248619Y-101047618D02*
X119224809Y-100976190D01*
X119224809Y-100976190D02*
X119224809Y-100928571D01*
X119224809Y-100928571D02*
X119248619Y-100857142D01*
X119248619Y-100857142D02*
X119272428Y-100833333D01*
X119224809Y-100666666D02*
X119224809Y-100333333D01*
X119224809Y-100333333D02*
X119724809Y-100547618D01*
G04 #@! TO.C,U3*
X144869047Y-102474809D02*
X144869047Y-102879571D01*
X144869047Y-102879571D02*
X144892857Y-102927190D01*
X144892857Y-102927190D02*
X144916666Y-102951000D01*
X144916666Y-102951000D02*
X144964285Y-102974809D01*
X144964285Y-102974809D02*
X145059523Y-102974809D01*
X145059523Y-102974809D02*
X145107142Y-102951000D01*
X145107142Y-102951000D02*
X145130952Y-102927190D01*
X145130952Y-102927190D02*
X145154761Y-102879571D01*
X145154761Y-102879571D02*
X145154761Y-102474809D01*
X145345238Y-102474809D02*
X145654762Y-102474809D01*
X145654762Y-102474809D02*
X145488095Y-102665285D01*
X145488095Y-102665285D02*
X145559524Y-102665285D01*
X145559524Y-102665285D02*
X145607143Y-102689095D01*
X145607143Y-102689095D02*
X145630952Y-102712904D01*
X145630952Y-102712904D02*
X145654762Y-102760523D01*
X145654762Y-102760523D02*
X145654762Y-102879571D01*
X145654762Y-102879571D02*
X145630952Y-102927190D01*
X145630952Y-102927190D02*
X145607143Y-102951000D01*
X145607143Y-102951000D02*
X145559524Y-102974809D01*
X145559524Y-102974809D02*
X145416667Y-102974809D01*
X145416667Y-102974809D02*
X145369048Y-102951000D01*
X145369048Y-102951000D02*
X145345238Y-102927190D01*
G04 #@! TO.C,J2*
X132833333Y-104224809D02*
X132833333Y-104581952D01*
X132833333Y-104581952D02*
X132809524Y-104653380D01*
X132809524Y-104653380D02*
X132761905Y-104701000D01*
X132761905Y-104701000D02*
X132690476Y-104724809D01*
X132690476Y-104724809D02*
X132642857Y-104724809D01*
X133047619Y-104272428D02*
X133071428Y-104248619D01*
X133071428Y-104248619D02*
X133119047Y-104224809D01*
X133119047Y-104224809D02*
X133238095Y-104224809D01*
X133238095Y-104224809D02*
X133285714Y-104248619D01*
X133285714Y-104248619D02*
X133309523Y-104272428D01*
X133309523Y-104272428D02*
X133333333Y-104320047D01*
X133333333Y-104320047D02*
X133333333Y-104367666D01*
X133333333Y-104367666D02*
X133309523Y-104439095D01*
X133309523Y-104439095D02*
X133023809Y-104724809D01*
X133023809Y-104724809D02*
X133333333Y-104724809D01*
G04 #@! TO.C,R7*
X140166666Y-104474809D02*
X140000000Y-104236714D01*
X139880952Y-104474809D02*
X139880952Y-103974809D01*
X139880952Y-103974809D02*
X140071428Y-103974809D01*
X140071428Y-103974809D02*
X140119047Y-103998619D01*
X140119047Y-103998619D02*
X140142857Y-104022428D01*
X140142857Y-104022428D02*
X140166666Y-104070047D01*
X140166666Y-104070047D02*
X140166666Y-104141476D01*
X140166666Y-104141476D02*
X140142857Y-104189095D01*
X140142857Y-104189095D02*
X140119047Y-104212904D01*
X140119047Y-104212904D02*
X140071428Y-104236714D01*
X140071428Y-104236714D02*
X139880952Y-104236714D01*
X140333333Y-103974809D02*
X140666666Y-103974809D01*
X140666666Y-103974809D02*
X140452381Y-104474809D01*
G04 #@! TO.C,R2*
X142474809Y-102833333D02*
X142236714Y-102999999D01*
X142474809Y-103119047D02*
X141974809Y-103119047D01*
X141974809Y-103119047D02*
X141974809Y-102928571D01*
X141974809Y-102928571D02*
X141998619Y-102880952D01*
X141998619Y-102880952D02*
X142022428Y-102857142D01*
X142022428Y-102857142D02*
X142070047Y-102833333D01*
X142070047Y-102833333D02*
X142141476Y-102833333D01*
X142141476Y-102833333D02*
X142189095Y-102857142D01*
X142189095Y-102857142D02*
X142212904Y-102880952D01*
X142212904Y-102880952D02*
X142236714Y-102928571D01*
X142236714Y-102928571D02*
X142236714Y-103119047D01*
X142022428Y-102642856D02*
X141998619Y-102619047D01*
X141998619Y-102619047D02*
X141974809Y-102571428D01*
X141974809Y-102571428D02*
X141974809Y-102452380D01*
X141974809Y-102452380D02*
X141998619Y-102404761D01*
X141998619Y-102404761D02*
X142022428Y-102380952D01*
X142022428Y-102380952D02*
X142070047Y-102357142D01*
X142070047Y-102357142D02*
X142117666Y-102357142D01*
X142117666Y-102357142D02*
X142189095Y-102380952D01*
X142189095Y-102380952D02*
X142474809Y-102666666D01*
X142474809Y-102666666D02*
X142474809Y-102357142D01*
G04 #@! TO.C,Y1*
X128261905Y-98836714D02*
X128261905Y-99074809D01*
X128095239Y-98574809D02*
X128261905Y-98836714D01*
X128261905Y-98836714D02*
X128428572Y-98574809D01*
X128857143Y-99074809D02*
X128571429Y-99074809D01*
X128714286Y-99074809D02*
X128714286Y-98574809D01*
X128714286Y-98574809D02*
X128666667Y-98646238D01*
X128666667Y-98646238D02*
X128619048Y-98693857D01*
X128619048Y-98693857D02*
X128571429Y-98717666D01*
G04 #@! TO.C,C4*
X147677190Y-96083333D02*
X147701000Y-96107142D01*
X147701000Y-96107142D02*
X147724809Y-96178571D01*
X147724809Y-96178571D02*
X147724809Y-96226190D01*
X147724809Y-96226190D02*
X147701000Y-96297618D01*
X147701000Y-96297618D02*
X147653380Y-96345237D01*
X147653380Y-96345237D02*
X147605761Y-96369047D01*
X147605761Y-96369047D02*
X147510523Y-96392856D01*
X147510523Y-96392856D02*
X147439095Y-96392856D01*
X147439095Y-96392856D02*
X147343857Y-96369047D01*
X147343857Y-96369047D02*
X147296238Y-96345237D01*
X147296238Y-96345237D02*
X147248619Y-96297618D01*
X147248619Y-96297618D02*
X147224809Y-96226190D01*
X147224809Y-96226190D02*
X147224809Y-96178571D01*
X147224809Y-96178571D02*
X147248619Y-96107142D01*
X147248619Y-96107142D02*
X147272428Y-96083333D01*
X147391476Y-95654761D02*
X147724809Y-95654761D01*
X147201000Y-95773809D02*
X147558142Y-95892856D01*
X147558142Y-95892856D02*
X147558142Y-95583333D01*
G04 #@! TO.C,C5*
X143427190Y-96333333D02*
X143451000Y-96357142D01*
X143451000Y-96357142D02*
X143474809Y-96428571D01*
X143474809Y-96428571D02*
X143474809Y-96476190D01*
X143474809Y-96476190D02*
X143451000Y-96547618D01*
X143451000Y-96547618D02*
X143403380Y-96595237D01*
X143403380Y-96595237D02*
X143355761Y-96619047D01*
X143355761Y-96619047D02*
X143260523Y-96642856D01*
X143260523Y-96642856D02*
X143189095Y-96642856D01*
X143189095Y-96642856D02*
X143093857Y-96619047D01*
X143093857Y-96619047D02*
X143046238Y-96595237D01*
X143046238Y-96595237D02*
X142998619Y-96547618D01*
X142998619Y-96547618D02*
X142974809Y-96476190D01*
X142974809Y-96476190D02*
X142974809Y-96428571D01*
X142974809Y-96428571D02*
X142998619Y-96357142D01*
X142998619Y-96357142D02*
X143022428Y-96333333D01*
X142974809Y-95880952D02*
X142974809Y-96119047D01*
X142974809Y-96119047D02*
X143212904Y-96142856D01*
X143212904Y-96142856D02*
X143189095Y-96119047D01*
X143189095Y-96119047D02*
X143165285Y-96071428D01*
X143165285Y-96071428D02*
X143165285Y-95952380D01*
X143165285Y-95952380D02*
X143189095Y-95904761D01*
X143189095Y-95904761D02*
X143212904Y-95880952D01*
X143212904Y-95880952D02*
X143260523Y-95857142D01*
X143260523Y-95857142D02*
X143379571Y-95857142D01*
X143379571Y-95857142D02*
X143427190Y-95880952D01*
X143427190Y-95880952D02*
X143451000Y-95904761D01*
X143451000Y-95904761D02*
X143474809Y-95952380D01*
X143474809Y-95952380D02*
X143474809Y-96071428D01*
X143474809Y-96071428D02*
X143451000Y-96119047D01*
X143451000Y-96119047D02*
X143427190Y-96142856D01*
G04 #@! TO.C,R5*
X120666666Y-103724809D02*
X120500000Y-103486714D01*
X120380952Y-103724809D02*
X120380952Y-103224809D01*
X120380952Y-103224809D02*
X120571428Y-103224809D01*
X120571428Y-103224809D02*
X120619047Y-103248619D01*
X120619047Y-103248619D02*
X120642857Y-103272428D01*
X120642857Y-103272428D02*
X120666666Y-103320047D01*
X120666666Y-103320047D02*
X120666666Y-103391476D01*
X120666666Y-103391476D02*
X120642857Y-103439095D01*
X120642857Y-103439095D02*
X120619047Y-103462904D01*
X120619047Y-103462904D02*
X120571428Y-103486714D01*
X120571428Y-103486714D02*
X120380952Y-103486714D01*
X121119047Y-103224809D02*
X120880952Y-103224809D01*
X120880952Y-103224809D02*
X120857143Y-103462904D01*
X120857143Y-103462904D02*
X120880952Y-103439095D01*
X120880952Y-103439095D02*
X120928571Y-103415285D01*
X120928571Y-103415285D02*
X121047619Y-103415285D01*
X121047619Y-103415285D02*
X121095238Y-103439095D01*
X121095238Y-103439095D02*
X121119047Y-103462904D01*
X121119047Y-103462904D02*
X121142857Y-103510523D01*
X121142857Y-103510523D02*
X121142857Y-103629571D01*
X121142857Y-103629571D02*
X121119047Y-103677190D01*
X121119047Y-103677190D02*
X121095238Y-103701000D01*
X121095238Y-103701000D02*
X121047619Y-103724809D01*
X121047619Y-103724809D02*
X120928571Y-103724809D01*
X120928571Y-103724809D02*
X120880952Y-103701000D01*
X120880952Y-103701000D02*
X120857143Y-103677190D01*
G04 #@! TO.C,C11*
X138178571Y-99927190D02*
X138154762Y-99951000D01*
X138154762Y-99951000D02*
X138083333Y-99974809D01*
X138083333Y-99974809D02*
X138035714Y-99974809D01*
X138035714Y-99974809D02*
X137964286Y-99951000D01*
X137964286Y-99951000D02*
X137916667Y-99903380D01*
X137916667Y-99903380D02*
X137892857Y-99855761D01*
X137892857Y-99855761D02*
X137869048Y-99760523D01*
X137869048Y-99760523D02*
X137869048Y-99689095D01*
X137869048Y-99689095D02*
X137892857Y-99593857D01*
X137892857Y-99593857D02*
X137916667Y-99546238D01*
X137916667Y-99546238D02*
X137964286Y-99498619D01*
X137964286Y-99498619D02*
X138035714Y-99474809D01*
X138035714Y-99474809D02*
X138083333Y-99474809D01*
X138083333Y-99474809D02*
X138154762Y-99498619D01*
X138154762Y-99498619D02*
X138178571Y-99522428D01*
X138654762Y-99974809D02*
X138369048Y-99974809D01*
X138511905Y-99974809D02*
X138511905Y-99474809D01*
X138511905Y-99474809D02*
X138464286Y-99546238D01*
X138464286Y-99546238D02*
X138416667Y-99593857D01*
X138416667Y-99593857D02*
X138369048Y-99617666D01*
X139130952Y-99974809D02*
X138845238Y-99974809D01*
X138988095Y-99974809D02*
X138988095Y-99474809D01*
X138988095Y-99474809D02*
X138940476Y-99546238D01*
X138940476Y-99546238D02*
X138892857Y-99593857D01*
X138892857Y-99593857D02*
X138845238Y-99617666D01*
G04 #@! TO.C,C9*
X127916666Y-101677190D02*
X127892857Y-101701000D01*
X127892857Y-101701000D02*
X127821428Y-101724809D01*
X127821428Y-101724809D02*
X127773809Y-101724809D01*
X127773809Y-101724809D02*
X127702381Y-101701000D01*
X127702381Y-101701000D02*
X127654762Y-101653380D01*
X127654762Y-101653380D02*
X127630952Y-101605761D01*
X127630952Y-101605761D02*
X127607143Y-101510523D01*
X127607143Y-101510523D02*
X127607143Y-101439095D01*
X127607143Y-101439095D02*
X127630952Y-101343857D01*
X127630952Y-101343857D02*
X127654762Y-101296238D01*
X127654762Y-101296238D02*
X127702381Y-101248619D01*
X127702381Y-101248619D02*
X127773809Y-101224809D01*
X127773809Y-101224809D02*
X127821428Y-101224809D01*
X127821428Y-101224809D02*
X127892857Y-101248619D01*
X127892857Y-101248619D02*
X127916666Y-101272428D01*
X128154762Y-101724809D02*
X128250000Y-101724809D01*
X128250000Y-101724809D02*
X128297619Y-101701000D01*
X128297619Y-101701000D02*
X128321428Y-101677190D01*
X128321428Y-101677190D02*
X128369047Y-101605761D01*
X128369047Y-101605761D02*
X128392857Y-101510523D01*
X128392857Y-101510523D02*
X128392857Y-101320047D01*
X128392857Y-101320047D02*
X128369047Y-101272428D01*
X128369047Y-101272428D02*
X128345238Y-101248619D01*
X128345238Y-101248619D02*
X128297619Y-101224809D01*
X128297619Y-101224809D02*
X128202381Y-101224809D01*
X128202381Y-101224809D02*
X128154762Y-101248619D01*
X128154762Y-101248619D02*
X128130952Y-101272428D01*
X128130952Y-101272428D02*
X128107143Y-101320047D01*
X128107143Y-101320047D02*
X128107143Y-101439095D01*
X128107143Y-101439095D02*
X128130952Y-101486714D01*
X128130952Y-101486714D02*
X128154762Y-101510523D01*
X128154762Y-101510523D02*
X128202381Y-101534333D01*
X128202381Y-101534333D02*
X128297619Y-101534333D01*
X128297619Y-101534333D02*
X128345238Y-101510523D01*
X128345238Y-101510523D02*
X128369047Y-101486714D01*
X128369047Y-101486714D02*
X128392857Y-101439095D01*
G04 #@! TO.C,R3*
X141474809Y-102833333D02*
X141236714Y-102999999D01*
X141474809Y-103119047D02*
X140974809Y-103119047D01*
X140974809Y-103119047D02*
X140974809Y-102928571D01*
X140974809Y-102928571D02*
X140998619Y-102880952D01*
X140998619Y-102880952D02*
X141022428Y-102857142D01*
X141022428Y-102857142D02*
X141070047Y-102833333D01*
X141070047Y-102833333D02*
X141141476Y-102833333D01*
X141141476Y-102833333D02*
X141189095Y-102857142D01*
X141189095Y-102857142D02*
X141212904Y-102880952D01*
X141212904Y-102880952D02*
X141236714Y-102928571D01*
X141236714Y-102928571D02*
X141236714Y-103119047D01*
X140974809Y-102666666D02*
X140974809Y-102357142D01*
X140974809Y-102357142D02*
X141165285Y-102523809D01*
X141165285Y-102523809D02*
X141165285Y-102452380D01*
X141165285Y-102452380D02*
X141189095Y-102404761D01*
X141189095Y-102404761D02*
X141212904Y-102380952D01*
X141212904Y-102380952D02*
X141260523Y-102357142D01*
X141260523Y-102357142D02*
X141379571Y-102357142D01*
X141379571Y-102357142D02*
X141427190Y-102380952D01*
X141427190Y-102380952D02*
X141451000Y-102404761D01*
X141451000Y-102404761D02*
X141474809Y-102452380D01*
X141474809Y-102452380D02*
X141474809Y-102595237D01*
X141474809Y-102595237D02*
X141451000Y-102642856D01*
X141451000Y-102642856D02*
X141427190Y-102666666D01*
G04 #@! TO.C,J1*
X128583333Y-92724809D02*
X128583333Y-93081952D01*
X128583333Y-93081952D02*
X128559524Y-93153380D01*
X128559524Y-93153380D02*
X128511905Y-93201000D01*
X128511905Y-93201000D02*
X128440476Y-93224809D01*
X128440476Y-93224809D02*
X128392857Y-93224809D01*
X129083333Y-93224809D02*
X128797619Y-93224809D01*
X128940476Y-93224809D02*
X128940476Y-92724809D01*
X128940476Y-92724809D02*
X128892857Y-92796238D01*
X128892857Y-92796238D02*
X128845238Y-92843857D01*
X128845238Y-92843857D02*
X128797619Y-92867666D01*
G04 #@! TO.C,C10*
X138653571Y-103427190D02*
X138629762Y-103451000D01*
X138629762Y-103451000D02*
X138558333Y-103474809D01*
X138558333Y-103474809D02*
X138510714Y-103474809D01*
X138510714Y-103474809D02*
X138439286Y-103451000D01*
X138439286Y-103451000D02*
X138391667Y-103403380D01*
X138391667Y-103403380D02*
X138367857Y-103355761D01*
X138367857Y-103355761D02*
X138344048Y-103260523D01*
X138344048Y-103260523D02*
X138344048Y-103189095D01*
X138344048Y-103189095D02*
X138367857Y-103093857D01*
X138367857Y-103093857D02*
X138391667Y-103046238D01*
X138391667Y-103046238D02*
X138439286Y-102998619D01*
X138439286Y-102998619D02*
X138510714Y-102974809D01*
X138510714Y-102974809D02*
X138558333Y-102974809D01*
X138558333Y-102974809D02*
X138629762Y-102998619D01*
X138629762Y-102998619D02*
X138653571Y-103022428D01*
X139129762Y-103474809D02*
X138844048Y-103474809D01*
X138986905Y-103474809D02*
X138986905Y-102974809D01*
X138986905Y-102974809D02*
X138939286Y-103046238D01*
X138939286Y-103046238D02*
X138891667Y-103093857D01*
X138891667Y-103093857D02*
X138844048Y-103117666D01*
X139439285Y-102974809D02*
X139486904Y-102974809D01*
X139486904Y-102974809D02*
X139534523Y-102998619D01*
X139534523Y-102998619D02*
X139558333Y-103022428D01*
X139558333Y-103022428D02*
X139582142Y-103070047D01*
X139582142Y-103070047D02*
X139605952Y-103165285D01*
X139605952Y-103165285D02*
X139605952Y-103284333D01*
X139605952Y-103284333D02*
X139582142Y-103379571D01*
X139582142Y-103379571D02*
X139558333Y-103427190D01*
X139558333Y-103427190D02*
X139534523Y-103451000D01*
X139534523Y-103451000D02*
X139486904Y-103474809D01*
X139486904Y-103474809D02*
X139439285Y-103474809D01*
X139439285Y-103474809D02*
X139391666Y-103451000D01*
X139391666Y-103451000D02*
X139367857Y-103427190D01*
X139367857Y-103427190D02*
X139344047Y-103379571D01*
X139344047Y-103379571D02*
X139320238Y-103284333D01*
X139320238Y-103284333D02*
X139320238Y-103165285D01*
X139320238Y-103165285D02*
X139344047Y-103070047D01*
X139344047Y-103070047D02*
X139367857Y-103022428D01*
X139367857Y-103022428D02*
X139391666Y-102998619D01*
X139391666Y-102998619D02*
X139439285Y-102974809D01*
G04 #@! TO.C,C3*
X131166666Y-96427190D02*
X131142857Y-96451000D01*
X131142857Y-96451000D02*
X131071428Y-96474809D01*
X131071428Y-96474809D02*
X131023809Y-96474809D01*
X131023809Y-96474809D02*
X130952381Y-96451000D01*
X130952381Y-96451000D02*
X130904762Y-96403380D01*
X130904762Y-96403380D02*
X130880952Y-96355761D01*
X130880952Y-96355761D02*
X130857143Y-96260523D01*
X130857143Y-96260523D02*
X130857143Y-96189095D01*
X130857143Y-96189095D02*
X130880952Y-96093857D01*
X130880952Y-96093857D02*
X130904762Y-96046238D01*
X130904762Y-96046238D02*
X130952381Y-95998619D01*
X130952381Y-95998619D02*
X131023809Y-95974809D01*
X131023809Y-95974809D02*
X131071428Y-95974809D01*
X131071428Y-95974809D02*
X131142857Y-95998619D01*
X131142857Y-95998619D02*
X131166666Y-96022428D01*
X131333333Y-95974809D02*
X131642857Y-95974809D01*
X131642857Y-95974809D02*
X131476190Y-96165285D01*
X131476190Y-96165285D02*
X131547619Y-96165285D01*
X131547619Y-96165285D02*
X131595238Y-96189095D01*
X131595238Y-96189095D02*
X131619047Y-96212904D01*
X131619047Y-96212904D02*
X131642857Y-96260523D01*
X131642857Y-96260523D02*
X131642857Y-96379571D01*
X131642857Y-96379571D02*
X131619047Y-96427190D01*
X131619047Y-96427190D02*
X131595238Y-96451000D01*
X131595238Y-96451000D02*
X131547619Y-96474809D01*
X131547619Y-96474809D02*
X131404762Y-96474809D01*
X131404762Y-96474809D02*
X131357143Y-96451000D01*
X131357143Y-96451000D02*
X131333333Y-96427190D01*
G04 #@! TO.C,R6*
X120666666Y-104724809D02*
X120500000Y-104486714D01*
X120380952Y-104724809D02*
X120380952Y-104224809D01*
X120380952Y-104224809D02*
X120571428Y-104224809D01*
X120571428Y-104224809D02*
X120619047Y-104248619D01*
X120619047Y-104248619D02*
X120642857Y-104272428D01*
X120642857Y-104272428D02*
X120666666Y-104320047D01*
X120666666Y-104320047D02*
X120666666Y-104391476D01*
X120666666Y-104391476D02*
X120642857Y-104439095D01*
X120642857Y-104439095D02*
X120619047Y-104462904D01*
X120619047Y-104462904D02*
X120571428Y-104486714D01*
X120571428Y-104486714D02*
X120380952Y-104486714D01*
X121095238Y-104224809D02*
X121000000Y-104224809D01*
X121000000Y-104224809D02*
X120952381Y-104248619D01*
X120952381Y-104248619D02*
X120928571Y-104272428D01*
X120928571Y-104272428D02*
X120880952Y-104343857D01*
X120880952Y-104343857D02*
X120857143Y-104439095D01*
X120857143Y-104439095D02*
X120857143Y-104629571D01*
X120857143Y-104629571D02*
X120880952Y-104677190D01*
X120880952Y-104677190D02*
X120904762Y-104701000D01*
X120904762Y-104701000D02*
X120952381Y-104724809D01*
X120952381Y-104724809D02*
X121047619Y-104724809D01*
X121047619Y-104724809D02*
X121095238Y-104701000D01*
X121095238Y-104701000D02*
X121119047Y-104677190D01*
X121119047Y-104677190D02*
X121142857Y-104629571D01*
X121142857Y-104629571D02*
X121142857Y-104510523D01*
X121142857Y-104510523D02*
X121119047Y-104462904D01*
X121119047Y-104462904D02*
X121095238Y-104439095D01*
X121095238Y-104439095D02*
X121047619Y-104415285D01*
X121047619Y-104415285D02*
X120952381Y-104415285D01*
X120952381Y-104415285D02*
X120904762Y-104439095D01*
X120904762Y-104439095D02*
X120880952Y-104462904D01*
X120880952Y-104462904D02*
X120857143Y-104510523D01*
G04 #@! TO.C,R12*
X140678571Y-88474809D02*
X140511905Y-88236714D01*
X140392857Y-88474809D02*
X140392857Y-87974809D01*
X140392857Y-87974809D02*
X140583333Y-87974809D01*
X140583333Y-87974809D02*
X140630952Y-87998619D01*
X140630952Y-87998619D02*
X140654762Y-88022428D01*
X140654762Y-88022428D02*
X140678571Y-88070047D01*
X140678571Y-88070047D02*
X140678571Y-88141476D01*
X140678571Y-88141476D02*
X140654762Y-88189095D01*
X140654762Y-88189095D02*
X140630952Y-88212904D01*
X140630952Y-88212904D02*
X140583333Y-88236714D01*
X140583333Y-88236714D02*
X140392857Y-88236714D01*
X141154762Y-88474809D02*
X140869048Y-88474809D01*
X141011905Y-88474809D02*
X141011905Y-87974809D01*
X141011905Y-87974809D02*
X140964286Y-88046238D01*
X140964286Y-88046238D02*
X140916667Y-88093857D01*
X140916667Y-88093857D02*
X140869048Y-88117666D01*
X141345238Y-88022428D02*
X141369047Y-87998619D01*
X141369047Y-87998619D02*
X141416666Y-87974809D01*
X141416666Y-87974809D02*
X141535714Y-87974809D01*
X141535714Y-87974809D02*
X141583333Y-87998619D01*
X141583333Y-87998619D02*
X141607142Y-88022428D01*
X141607142Y-88022428D02*
X141630952Y-88070047D01*
X141630952Y-88070047D02*
X141630952Y-88117666D01*
X141630952Y-88117666D02*
X141607142Y-88189095D01*
X141607142Y-88189095D02*
X141321428Y-88474809D01*
X141321428Y-88474809D02*
X141630952Y-88474809D01*
G04 #@! TO.C,D1*
X124380952Y-92724809D02*
X124380952Y-92224809D01*
X124380952Y-92224809D02*
X124500000Y-92224809D01*
X124500000Y-92224809D02*
X124571428Y-92248619D01*
X124571428Y-92248619D02*
X124619047Y-92296238D01*
X124619047Y-92296238D02*
X124642857Y-92343857D01*
X124642857Y-92343857D02*
X124666666Y-92439095D01*
X124666666Y-92439095D02*
X124666666Y-92510523D01*
X124666666Y-92510523D02*
X124642857Y-92605761D01*
X124642857Y-92605761D02*
X124619047Y-92653380D01*
X124619047Y-92653380D02*
X124571428Y-92701000D01*
X124571428Y-92701000D02*
X124500000Y-92724809D01*
X124500000Y-92724809D02*
X124380952Y-92724809D01*
X125142857Y-92724809D02*
X124857143Y-92724809D01*
X125000000Y-92724809D02*
X125000000Y-92224809D01*
X125000000Y-92224809D02*
X124952381Y-92296238D01*
X124952381Y-92296238D02*
X124904762Y-92343857D01*
X124904762Y-92343857D02*
X124857143Y-92367666D01*
G04 #@! TO.C,C8*
X121427190Y-101333333D02*
X121451000Y-101357142D01*
X121451000Y-101357142D02*
X121474809Y-101428571D01*
X121474809Y-101428571D02*
X121474809Y-101476190D01*
X121474809Y-101476190D02*
X121451000Y-101547618D01*
X121451000Y-101547618D02*
X121403380Y-101595237D01*
X121403380Y-101595237D02*
X121355761Y-101619047D01*
X121355761Y-101619047D02*
X121260523Y-101642856D01*
X121260523Y-101642856D02*
X121189095Y-101642856D01*
X121189095Y-101642856D02*
X121093857Y-101619047D01*
X121093857Y-101619047D02*
X121046238Y-101595237D01*
X121046238Y-101595237D02*
X120998619Y-101547618D01*
X120998619Y-101547618D02*
X120974809Y-101476190D01*
X120974809Y-101476190D02*
X120974809Y-101428571D01*
X120974809Y-101428571D02*
X120998619Y-101357142D01*
X120998619Y-101357142D02*
X121022428Y-101333333D01*
X121189095Y-101047618D02*
X121165285Y-101095237D01*
X121165285Y-101095237D02*
X121141476Y-101119047D01*
X121141476Y-101119047D02*
X121093857Y-101142856D01*
X121093857Y-101142856D02*
X121070047Y-101142856D01*
X121070047Y-101142856D02*
X121022428Y-101119047D01*
X121022428Y-101119047D02*
X120998619Y-101095237D01*
X120998619Y-101095237D02*
X120974809Y-101047618D01*
X120974809Y-101047618D02*
X120974809Y-100952380D01*
X120974809Y-100952380D02*
X120998619Y-100904761D01*
X120998619Y-100904761D02*
X121022428Y-100880952D01*
X121022428Y-100880952D02*
X121070047Y-100857142D01*
X121070047Y-100857142D02*
X121093857Y-100857142D01*
X121093857Y-100857142D02*
X121141476Y-100880952D01*
X121141476Y-100880952D02*
X121165285Y-100904761D01*
X121165285Y-100904761D02*
X121189095Y-100952380D01*
X121189095Y-100952380D02*
X121189095Y-101047618D01*
X121189095Y-101047618D02*
X121212904Y-101095237D01*
X121212904Y-101095237D02*
X121236714Y-101119047D01*
X121236714Y-101119047D02*
X121284333Y-101142856D01*
X121284333Y-101142856D02*
X121379571Y-101142856D01*
X121379571Y-101142856D02*
X121427190Y-101119047D01*
X121427190Y-101119047D02*
X121451000Y-101095237D01*
X121451000Y-101095237D02*
X121474809Y-101047618D01*
X121474809Y-101047618D02*
X121474809Y-100952380D01*
X121474809Y-100952380D02*
X121451000Y-100904761D01*
X121451000Y-100904761D02*
X121427190Y-100880952D01*
X121427190Y-100880952D02*
X121379571Y-100857142D01*
X121379571Y-100857142D02*
X121284333Y-100857142D01*
X121284333Y-100857142D02*
X121236714Y-100880952D01*
X121236714Y-100880952D02*
X121212904Y-100904761D01*
X121212904Y-100904761D02*
X121189095Y-100952380D01*
G04 #@! TO.C,R9*
X138666666Y-95724809D02*
X138500000Y-95486714D01*
X138380952Y-95724809D02*
X138380952Y-95224809D01*
X138380952Y-95224809D02*
X138571428Y-95224809D01*
X138571428Y-95224809D02*
X138619047Y-95248619D01*
X138619047Y-95248619D02*
X138642857Y-95272428D01*
X138642857Y-95272428D02*
X138666666Y-95320047D01*
X138666666Y-95320047D02*
X138666666Y-95391476D01*
X138666666Y-95391476D02*
X138642857Y-95439095D01*
X138642857Y-95439095D02*
X138619047Y-95462904D01*
X138619047Y-95462904D02*
X138571428Y-95486714D01*
X138571428Y-95486714D02*
X138380952Y-95486714D01*
X138904762Y-95724809D02*
X139000000Y-95724809D01*
X139000000Y-95724809D02*
X139047619Y-95701000D01*
X139047619Y-95701000D02*
X139071428Y-95677190D01*
X139071428Y-95677190D02*
X139119047Y-95605761D01*
X139119047Y-95605761D02*
X139142857Y-95510523D01*
X139142857Y-95510523D02*
X139142857Y-95320047D01*
X139142857Y-95320047D02*
X139119047Y-95272428D01*
X139119047Y-95272428D02*
X139095238Y-95248619D01*
X139095238Y-95248619D02*
X139047619Y-95224809D01*
X139047619Y-95224809D02*
X138952381Y-95224809D01*
X138952381Y-95224809D02*
X138904762Y-95248619D01*
X138904762Y-95248619D02*
X138880952Y-95272428D01*
X138880952Y-95272428D02*
X138857143Y-95320047D01*
X138857143Y-95320047D02*
X138857143Y-95439095D01*
X138857143Y-95439095D02*
X138880952Y-95486714D01*
X138880952Y-95486714D02*
X138904762Y-95510523D01*
X138904762Y-95510523D02*
X138952381Y-95534333D01*
X138952381Y-95534333D02*
X139047619Y-95534333D01*
X139047619Y-95534333D02*
X139095238Y-95510523D01*
X139095238Y-95510523D02*
X139119047Y-95486714D01*
X139119047Y-95486714D02*
X139142857Y-95439095D01*
G04 #@! TO.C,R8*
X140984809Y-109343333D02*
X140746714Y-109509999D01*
X140984809Y-109629047D02*
X140484809Y-109629047D01*
X140484809Y-109629047D02*
X140484809Y-109438571D01*
X140484809Y-109438571D02*
X140508619Y-109390952D01*
X140508619Y-109390952D02*
X140532428Y-109367142D01*
X140532428Y-109367142D02*
X140580047Y-109343333D01*
X140580047Y-109343333D02*
X140651476Y-109343333D01*
X140651476Y-109343333D02*
X140699095Y-109367142D01*
X140699095Y-109367142D02*
X140722904Y-109390952D01*
X140722904Y-109390952D02*
X140746714Y-109438571D01*
X140746714Y-109438571D02*
X140746714Y-109629047D01*
X140699095Y-109057618D02*
X140675285Y-109105237D01*
X140675285Y-109105237D02*
X140651476Y-109129047D01*
X140651476Y-109129047D02*
X140603857Y-109152856D01*
X140603857Y-109152856D02*
X140580047Y-109152856D01*
X140580047Y-109152856D02*
X140532428Y-109129047D01*
X140532428Y-109129047D02*
X140508619Y-109105237D01*
X140508619Y-109105237D02*
X140484809Y-109057618D01*
X140484809Y-109057618D02*
X140484809Y-108962380D01*
X140484809Y-108962380D02*
X140508619Y-108914761D01*
X140508619Y-108914761D02*
X140532428Y-108890952D01*
X140532428Y-108890952D02*
X140580047Y-108867142D01*
X140580047Y-108867142D02*
X140603857Y-108867142D01*
X140603857Y-108867142D02*
X140651476Y-108890952D01*
X140651476Y-108890952D02*
X140675285Y-108914761D01*
X140675285Y-108914761D02*
X140699095Y-108962380D01*
X140699095Y-108962380D02*
X140699095Y-109057618D01*
X140699095Y-109057618D02*
X140722904Y-109105237D01*
X140722904Y-109105237D02*
X140746714Y-109129047D01*
X140746714Y-109129047D02*
X140794333Y-109152856D01*
X140794333Y-109152856D02*
X140889571Y-109152856D01*
X140889571Y-109152856D02*
X140937190Y-109129047D01*
X140937190Y-109129047D02*
X140961000Y-109105237D01*
X140961000Y-109105237D02*
X140984809Y-109057618D01*
X140984809Y-109057618D02*
X140984809Y-108962380D01*
X140984809Y-108962380D02*
X140961000Y-108914761D01*
X140961000Y-108914761D02*
X140937190Y-108890952D01*
X140937190Y-108890952D02*
X140889571Y-108867142D01*
X140889571Y-108867142D02*
X140794333Y-108867142D01*
X140794333Y-108867142D02*
X140746714Y-108890952D01*
X140746714Y-108890952D02*
X140722904Y-108914761D01*
X140722904Y-108914761D02*
X140699095Y-108962380D01*
G04 #@! TO.C,Q2*
X140202380Y-90772428D02*
X140154761Y-90748619D01*
X140154761Y-90748619D02*
X140107142Y-90701000D01*
X140107142Y-90701000D02*
X140035714Y-90629571D01*
X140035714Y-90629571D02*
X139988095Y-90605761D01*
X139988095Y-90605761D02*
X139940476Y-90605761D01*
X139964285Y-90724809D02*
X139916666Y-90701000D01*
X139916666Y-90701000D02*
X139869047Y-90653380D01*
X139869047Y-90653380D02*
X139845238Y-90558142D01*
X139845238Y-90558142D02*
X139845238Y-90391476D01*
X139845238Y-90391476D02*
X139869047Y-90296238D01*
X139869047Y-90296238D02*
X139916666Y-90248619D01*
X139916666Y-90248619D02*
X139964285Y-90224809D01*
X139964285Y-90224809D02*
X140059523Y-90224809D01*
X140059523Y-90224809D02*
X140107142Y-90248619D01*
X140107142Y-90248619D02*
X140154761Y-90296238D01*
X140154761Y-90296238D02*
X140178571Y-90391476D01*
X140178571Y-90391476D02*
X140178571Y-90558142D01*
X140178571Y-90558142D02*
X140154761Y-90653380D01*
X140154761Y-90653380D02*
X140107142Y-90701000D01*
X140107142Y-90701000D02*
X140059523Y-90724809D01*
X140059523Y-90724809D02*
X139964285Y-90724809D01*
X140369048Y-90272428D02*
X140392857Y-90248619D01*
X140392857Y-90248619D02*
X140440476Y-90224809D01*
X140440476Y-90224809D02*
X140559524Y-90224809D01*
X140559524Y-90224809D02*
X140607143Y-90248619D01*
X140607143Y-90248619D02*
X140630952Y-90272428D01*
X140630952Y-90272428D02*
X140654762Y-90320047D01*
X140654762Y-90320047D02*
X140654762Y-90367666D01*
X140654762Y-90367666D02*
X140630952Y-90439095D01*
X140630952Y-90439095D02*
X140345238Y-90724809D01*
X140345238Y-90724809D02*
X140654762Y-90724809D01*
G04 #@! TO.C,C6*
X146677190Y-93833333D02*
X146701000Y-93857142D01*
X146701000Y-93857142D02*
X146724809Y-93928571D01*
X146724809Y-93928571D02*
X146724809Y-93976190D01*
X146724809Y-93976190D02*
X146701000Y-94047618D01*
X146701000Y-94047618D02*
X146653380Y-94095237D01*
X146653380Y-94095237D02*
X146605761Y-94119047D01*
X146605761Y-94119047D02*
X146510523Y-94142856D01*
X146510523Y-94142856D02*
X146439095Y-94142856D01*
X146439095Y-94142856D02*
X146343857Y-94119047D01*
X146343857Y-94119047D02*
X146296238Y-94095237D01*
X146296238Y-94095237D02*
X146248619Y-94047618D01*
X146248619Y-94047618D02*
X146224809Y-93976190D01*
X146224809Y-93976190D02*
X146224809Y-93928571D01*
X146224809Y-93928571D02*
X146248619Y-93857142D01*
X146248619Y-93857142D02*
X146272428Y-93833333D01*
X146224809Y-93404761D02*
X146224809Y-93499999D01*
X146224809Y-93499999D02*
X146248619Y-93547618D01*
X146248619Y-93547618D02*
X146272428Y-93571428D01*
X146272428Y-93571428D02*
X146343857Y-93619047D01*
X146343857Y-93619047D02*
X146439095Y-93642856D01*
X146439095Y-93642856D02*
X146629571Y-93642856D01*
X146629571Y-93642856D02*
X146677190Y-93619047D01*
X146677190Y-93619047D02*
X146701000Y-93595237D01*
X146701000Y-93595237D02*
X146724809Y-93547618D01*
X146724809Y-93547618D02*
X146724809Y-93452380D01*
X146724809Y-93452380D02*
X146701000Y-93404761D01*
X146701000Y-93404761D02*
X146677190Y-93380952D01*
X146677190Y-93380952D02*
X146629571Y-93357142D01*
X146629571Y-93357142D02*
X146510523Y-93357142D01*
X146510523Y-93357142D02*
X146462904Y-93380952D01*
X146462904Y-93380952D02*
X146439095Y-93404761D01*
X146439095Y-93404761D02*
X146415285Y-93452380D01*
X146415285Y-93452380D02*
X146415285Y-93547618D01*
X146415285Y-93547618D02*
X146439095Y-93595237D01*
X146439095Y-93595237D02*
X146462904Y-93619047D01*
X146462904Y-93619047D02*
X146510523Y-93642856D01*
G04 #@! TO.C,R1*
X119666666Y-93704809D02*
X119500000Y-93466714D01*
X119380952Y-93704809D02*
X119380952Y-93204809D01*
X119380952Y-93204809D02*
X119571428Y-93204809D01*
X119571428Y-93204809D02*
X119619047Y-93228619D01*
X119619047Y-93228619D02*
X119642857Y-93252428D01*
X119642857Y-93252428D02*
X119666666Y-93300047D01*
X119666666Y-93300047D02*
X119666666Y-93371476D01*
X119666666Y-93371476D02*
X119642857Y-93419095D01*
X119642857Y-93419095D02*
X119619047Y-93442904D01*
X119619047Y-93442904D02*
X119571428Y-93466714D01*
X119571428Y-93466714D02*
X119380952Y-93466714D01*
X120142857Y-93704809D02*
X119857143Y-93704809D01*
X120000000Y-93704809D02*
X120000000Y-93204809D01*
X120000000Y-93204809D02*
X119952381Y-93276238D01*
X119952381Y-93276238D02*
X119904762Y-93323857D01*
X119904762Y-93323857D02*
X119857143Y-93347666D01*
G04 #@! TO.C,Q1*
X142202380Y-94772428D02*
X142154761Y-94748619D01*
X142154761Y-94748619D02*
X142107142Y-94701000D01*
X142107142Y-94701000D02*
X142035714Y-94629571D01*
X142035714Y-94629571D02*
X141988095Y-94605761D01*
X141988095Y-94605761D02*
X141940476Y-94605761D01*
X141964285Y-94724809D02*
X141916666Y-94701000D01*
X141916666Y-94701000D02*
X141869047Y-94653380D01*
X141869047Y-94653380D02*
X141845238Y-94558142D01*
X141845238Y-94558142D02*
X141845238Y-94391476D01*
X141845238Y-94391476D02*
X141869047Y-94296238D01*
X141869047Y-94296238D02*
X141916666Y-94248619D01*
X141916666Y-94248619D02*
X141964285Y-94224809D01*
X141964285Y-94224809D02*
X142059523Y-94224809D01*
X142059523Y-94224809D02*
X142107142Y-94248619D01*
X142107142Y-94248619D02*
X142154761Y-94296238D01*
X142154761Y-94296238D02*
X142178571Y-94391476D01*
X142178571Y-94391476D02*
X142178571Y-94558142D01*
X142178571Y-94558142D02*
X142154761Y-94653380D01*
X142154761Y-94653380D02*
X142107142Y-94701000D01*
X142107142Y-94701000D02*
X142059523Y-94724809D01*
X142059523Y-94724809D02*
X141964285Y-94724809D01*
X142654762Y-94724809D02*
X142369048Y-94724809D01*
X142511905Y-94724809D02*
X142511905Y-94224809D01*
X142511905Y-94224809D02*
X142464286Y-94296238D01*
X142464286Y-94296238D02*
X142416667Y-94343857D01*
X142416667Y-94343857D02*
X142369048Y-94367666D01*
G04 #@! TO.C,R11*
X134418571Y-95974809D02*
X134251905Y-95736714D01*
X134132857Y-95974809D02*
X134132857Y-95474809D01*
X134132857Y-95474809D02*
X134323333Y-95474809D01*
X134323333Y-95474809D02*
X134370952Y-95498619D01*
X134370952Y-95498619D02*
X134394762Y-95522428D01*
X134394762Y-95522428D02*
X134418571Y-95570047D01*
X134418571Y-95570047D02*
X134418571Y-95641476D01*
X134418571Y-95641476D02*
X134394762Y-95689095D01*
X134394762Y-95689095D02*
X134370952Y-95712904D01*
X134370952Y-95712904D02*
X134323333Y-95736714D01*
X134323333Y-95736714D02*
X134132857Y-95736714D01*
X134894762Y-95974809D02*
X134609048Y-95974809D01*
X134751905Y-95974809D02*
X134751905Y-95474809D01*
X134751905Y-95474809D02*
X134704286Y-95546238D01*
X134704286Y-95546238D02*
X134656667Y-95593857D01*
X134656667Y-95593857D02*
X134609048Y-95617666D01*
X135370952Y-95974809D02*
X135085238Y-95974809D01*
X135228095Y-95974809D02*
X135228095Y-95474809D01*
X135228095Y-95474809D02*
X135180476Y-95546238D01*
X135180476Y-95546238D02*
X135132857Y-95593857D01*
X135132857Y-95593857D02*
X135085238Y-95617666D01*
G04 #@! TO.C,R4*
X144166666Y-105724809D02*
X144000000Y-105486714D01*
X143880952Y-105724809D02*
X143880952Y-105224809D01*
X143880952Y-105224809D02*
X144071428Y-105224809D01*
X144071428Y-105224809D02*
X144119047Y-105248619D01*
X144119047Y-105248619D02*
X144142857Y-105272428D01*
X144142857Y-105272428D02*
X144166666Y-105320047D01*
X144166666Y-105320047D02*
X144166666Y-105391476D01*
X144166666Y-105391476D02*
X144142857Y-105439095D01*
X144142857Y-105439095D02*
X144119047Y-105462904D01*
X144119047Y-105462904D02*
X144071428Y-105486714D01*
X144071428Y-105486714D02*
X143880952Y-105486714D01*
X144595238Y-105391476D02*
X144595238Y-105724809D01*
X144476190Y-105201000D02*
X144357143Y-105558142D01*
X144357143Y-105558142D02*
X144666666Y-105558142D01*
G04 #@! TO.C,Q3*
X124014880Y-103272428D02*
X123967261Y-103248619D01*
X123967261Y-103248619D02*
X123919642Y-103201000D01*
X123919642Y-103201000D02*
X123848214Y-103129571D01*
X123848214Y-103129571D02*
X123800595Y-103105761D01*
X123800595Y-103105761D02*
X123752976Y-103105761D01*
X123776785Y-103224809D02*
X123729166Y-103201000D01*
X123729166Y-103201000D02*
X123681547Y-103153380D01*
X123681547Y-103153380D02*
X123657738Y-103058142D01*
X123657738Y-103058142D02*
X123657738Y-102891476D01*
X123657738Y-102891476D02*
X123681547Y-102796238D01*
X123681547Y-102796238D02*
X123729166Y-102748619D01*
X123729166Y-102748619D02*
X123776785Y-102724809D01*
X123776785Y-102724809D02*
X123872023Y-102724809D01*
X123872023Y-102724809D02*
X123919642Y-102748619D01*
X123919642Y-102748619D02*
X123967261Y-102796238D01*
X123967261Y-102796238D02*
X123991071Y-102891476D01*
X123991071Y-102891476D02*
X123991071Y-103058142D01*
X123991071Y-103058142D02*
X123967261Y-103153380D01*
X123967261Y-103153380D02*
X123919642Y-103201000D01*
X123919642Y-103201000D02*
X123872023Y-103224809D01*
X123872023Y-103224809D02*
X123776785Y-103224809D01*
X124157738Y-102724809D02*
X124467262Y-102724809D01*
X124467262Y-102724809D02*
X124300595Y-102915285D01*
X124300595Y-102915285D02*
X124372024Y-102915285D01*
X124372024Y-102915285D02*
X124419643Y-102939095D01*
X124419643Y-102939095D02*
X124443452Y-102962904D01*
X124443452Y-102962904D02*
X124467262Y-103010523D01*
X124467262Y-103010523D02*
X124467262Y-103129571D01*
X124467262Y-103129571D02*
X124443452Y-103177190D01*
X124443452Y-103177190D02*
X124419643Y-103201000D01*
X124419643Y-103201000D02*
X124372024Y-103224809D01*
X124372024Y-103224809D02*
X124229167Y-103224809D01*
X124229167Y-103224809D02*
X124181548Y-103201000D01*
X124181548Y-103201000D02*
X124157738Y-103177190D01*
G04 #@! TO.C,Q4*
X139452380Y-105772428D02*
X139404761Y-105748619D01*
X139404761Y-105748619D02*
X139357142Y-105701000D01*
X139357142Y-105701000D02*
X139285714Y-105629571D01*
X139285714Y-105629571D02*
X139238095Y-105605761D01*
X139238095Y-105605761D02*
X139190476Y-105605761D01*
X139214285Y-105724809D02*
X139166666Y-105701000D01*
X139166666Y-105701000D02*
X139119047Y-105653380D01*
X139119047Y-105653380D02*
X139095238Y-105558142D01*
X139095238Y-105558142D02*
X139095238Y-105391476D01*
X139095238Y-105391476D02*
X139119047Y-105296238D01*
X139119047Y-105296238D02*
X139166666Y-105248619D01*
X139166666Y-105248619D02*
X139214285Y-105224809D01*
X139214285Y-105224809D02*
X139309523Y-105224809D01*
X139309523Y-105224809D02*
X139357142Y-105248619D01*
X139357142Y-105248619D02*
X139404761Y-105296238D01*
X139404761Y-105296238D02*
X139428571Y-105391476D01*
X139428571Y-105391476D02*
X139428571Y-105558142D01*
X139428571Y-105558142D02*
X139404761Y-105653380D01*
X139404761Y-105653380D02*
X139357142Y-105701000D01*
X139357142Y-105701000D02*
X139309523Y-105724809D01*
X139309523Y-105724809D02*
X139214285Y-105724809D01*
X139857143Y-105391476D02*
X139857143Y-105724809D01*
X139738095Y-105201000D02*
X139619048Y-105558142D01*
X139619048Y-105558142D02*
X139928571Y-105558142D01*
G04 #@! TO.C,U1*
X123119047Y-97224809D02*
X123119047Y-97629571D01*
X123119047Y-97629571D02*
X123142857Y-97677190D01*
X123142857Y-97677190D02*
X123166666Y-97701000D01*
X123166666Y-97701000D02*
X123214285Y-97724809D01*
X123214285Y-97724809D02*
X123309523Y-97724809D01*
X123309523Y-97724809D02*
X123357142Y-97701000D01*
X123357142Y-97701000D02*
X123380952Y-97677190D01*
X123380952Y-97677190D02*
X123404761Y-97629571D01*
X123404761Y-97629571D02*
X123404761Y-97224809D01*
X123904762Y-97724809D02*
X123619048Y-97724809D01*
X123761905Y-97724809D02*
X123761905Y-97224809D01*
X123761905Y-97224809D02*
X123714286Y-97296238D01*
X123714286Y-97296238D02*
X123666667Y-97343857D01*
X123666667Y-97343857D02*
X123619048Y-97367666D01*
G04 #@! TO.C,R10*
X143428571Y-92974809D02*
X143261905Y-92736714D01*
X143142857Y-92974809D02*
X143142857Y-92474809D01*
X143142857Y-92474809D02*
X143333333Y-92474809D01*
X143333333Y-92474809D02*
X143380952Y-92498619D01*
X143380952Y-92498619D02*
X143404762Y-92522428D01*
X143404762Y-92522428D02*
X143428571Y-92570047D01*
X143428571Y-92570047D02*
X143428571Y-92641476D01*
X143428571Y-92641476D02*
X143404762Y-92689095D01*
X143404762Y-92689095D02*
X143380952Y-92712904D01*
X143380952Y-92712904D02*
X143333333Y-92736714D01*
X143333333Y-92736714D02*
X143142857Y-92736714D01*
X143904762Y-92974809D02*
X143619048Y-92974809D01*
X143761905Y-92974809D02*
X143761905Y-92474809D01*
X143761905Y-92474809D02*
X143714286Y-92546238D01*
X143714286Y-92546238D02*
X143666667Y-92593857D01*
X143666667Y-92593857D02*
X143619048Y-92617666D01*
X144214285Y-92474809D02*
X144261904Y-92474809D01*
X144261904Y-92474809D02*
X144309523Y-92498619D01*
X144309523Y-92498619D02*
X144333333Y-92522428D01*
X144333333Y-92522428D02*
X144357142Y-92570047D01*
X144357142Y-92570047D02*
X144380952Y-92665285D01*
X144380952Y-92665285D02*
X144380952Y-92784333D01*
X144380952Y-92784333D02*
X144357142Y-92879571D01*
X144357142Y-92879571D02*
X144333333Y-92927190D01*
X144333333Y-92927190D02*
X144309523Y-92951000D01*
X144309523Y-92951000D02*
X144261904Y-92974809D01*
X144261904Y-92974809D02*
X144214285Y-92974809D01*
X144214285Y-92974809D02*
X144166666Y-92951000D01*
X144166666Y-92951000D02*
X144142857Y-92927190D01*
X144142857Y-92927190D02*
X144119047Y-92879571D01*
X144119047Y-92879571D02*
X144095238Y-92784333D01*
X144095238Y-92784333D02*
X144095238Y-92665285D01*
X144095238Y-92665285D02*
X144119047Y-92570047D01*
X144119047Y-92570047D02*
X144142857Y-92522428D01*
X144142857Y-92522428D02*
X144166666Y-92498619D01*
X144166666Y-92498619D02*
X144214285Y-92474809D01*
G04 #@! TO.C,U2*
X132119047Y-96474809D02*
X132119047Y-96879571D01*
X132119047Y-96879571D02*
X132142857Y-96927190D01*
X132142857Y-96927190D02*
X132166666Y-96951000D01*
X132166666Y-96951000D02*
X132214285Y-96974809D01*
X132214285Y-96974809D02*
X132309523Y-96974809D01*
X132309523Y-96974809D02*
X132357142Y-96951000D01*
X132357142Y-96951000D02*
X132380952Y-96927190D01*
X132380952Y-96927190D02*
X132404761Y-96879571D01*
X132404761Y-96879571D02*
X132404761Y-96474809D01*
X132619048Y-96522428D02*
X132642857Y-96498619D01*
X132642857Y-96498619D02*
X132690476Y-96474809D01*
X132690476Y-96474809D02*
X132809524Y-96474809D01*
X132809524Y-96474809D02*
X132857143Y-96498619D01*
X132857143Y-96498619D02*
X132880952Y-96522428D01*
X132880952Y-96522428D02*
X132904762Y-96570047D01*
X132904762Y-96570047D02*
X132904762Y-96617666D01*
X132904762Y-96617666D02*
X132880952Y-96689095D01*
X132880952Y-96689095D02*
X132595238Y-96974809D01*
X132595238Y-96974809D02*
X132904762Y-96974809D01*
G04 #@! TO.C,C1*
X119666666Y-94677190D02*
X119642857Y-94701000D01*
X119642857Y-94701000D02*
X119571428Y-94724809D01*
X119571428Y-94724809D02*
X119523809Y-94724809D01*
X119523809Y-94724809D02*
X119452381Y-94701000D01*
X119452381Y-94701000D02*
X119404762Y-94653380D01*
X119404762Y-94653380D02*
X119380952Y-94605761D01*
X119380952Y-94605761D02*
X119357143Y-94510523D01*
X119357143Y-94510523D02*
X119357143Y-94439095D01*
X119357143Y-94439095D02*
X119380952Y-94343857D01*
X119380952Y-94343857D02*
X119404762Y-94296238D01*
X119404762Y-94296238D02*
X119452381Y-94248619D01*
X119452381Y-94248619D02*
X119523809Y-94224809D01*
X119523809Y-94224809D02*
X119571428Y-94224809D01*
X119571428Y-94224809D02*
X119642857Y-94248619D01*
X119642857Y-94248619D02*
X119666666Y-94272428D01*
X120142857Y-94724809D02*
X119857143Y-94724809D01*
X120000000Y-94724809D02*
X120000000Y-94224809D01*
X120000000Y-94224809D02*
X119952381Y-94296238D01*
X119952381Y-94296238D02*
X119904762Y-94343857D01*
X119904762Y-94343857D02*
X119857143Y-94367666D01*
D13*
G04 #@! TO.C,C2*
X126357836Y-96360000D02*
X126142164Y-96360000D01*
X126357836Y-95640000D02*
X126142164Y-95640000D01*
G04 #@! TO.C,C7*
X120610000Y-100662164D02*
X120610000Y-100877836D01*
X119890000Y-100662164D02*
X119890000Y-100877836D01*
G04 #@! TO.C,U3*
X146850000Y-96950000D02*
X146850000Y-97750000D01*
X146050000Y-96950000D02*
X146850000Y-96950000D01*
X146600000Y-97200000D02*
X143900000Y-97200000D01*
X143900000Y-97200000D02*
X143900000Y-102300000D01*
X146600000Y-102300000D02*
X146600000Y-97200000D01*
X143900000Y-102300000D02*
X146600000Y-102300000D01*
G04 #@! TO.C,J2*
X127870000Y-107580000D02*
X127870000Y-106250000D01*
X129200000Y-107580000D02*
X127870000Y-107580000D01*
X130470000Y-107580000D02*
X138150000Y-107580000D01*
X130470000Y-107580000D02*
X130470000Y-104920000D01*
X138150000Y-107580000D02*
X138150000Y-104920000D01*
X130470000Y-104920000D02*
X138150000Y-104920000D01*
G04 #@! TO.C,R7*
X141596359Y-103870000D02*
X141903641Y-103870000D01*
X141596359Y-104630000D02*
X141903641Y-104630000D01*
G04 #@! TO.C,R2*
X142686359Y-101096359D02*
X142686359Y-101403641D01*
X141926359Y-101096359D02*
X141926359Y-101403641D01*
G04 #@! TO.C,Y1*
X128000000Y-96850000D02*
X124700000Y-96850000D01*
X124700000Y-96850000D02*
X124700000Y-100850000D01*
G04 #@! TO.C,C4*
X146140000Y-96107836D02*
X146140000Y-95892164D01*
X146860000Y-96107836D02*
X146860000Y-95892164D01*
G04 #@! TO.C,C5*
X143640000Y-96107836D02*
X143640000Y-95892164D01*
X144360000Y-96107836D02*
X144360000Y-95892164D01*
G04 #@! TO.C,R5*
X122403641Y-103880000D02*
X122096359Y-103880000D01*
X122403641Y-103120000D02*
X122096359Y-103120000D01*
G04 #@! TO.C,C11*
X138607836Y-100860000D02*
X138392164Y-100860000D01*
X138607836Y-100140000D02*
X138392164Y-100140000D01*
G04 #@! TO.C,C9*
X126357836Y-101860000D02*
X126142164Y-101860000D01*
X126357836Y-101140000D02*
X126142164Y-101140000D01*
G04 #@! TO.C,R3*
X140870000Y-101403641D02*
X140870000Y-101096359D01*
X141630000Y-101403641D02*
X141630000Y-101096359D01*
G04 #@! TO.C,C10*
X139115580Y-102510000D02*
X138834420Y-102510000D01*
X139115580Y-101490000D02*
X138834420Y-101490000D01*
G04 #@! TO.C,C3*
X129642164Y-95890000D02*
X129857836Y-95890000D01*
X129642164Y-96610000D02*
X129857836Y-96610000D01*
G04 #@! TO.C,R6*
X122096359Y-104120000D02*
X122403641Y-104120000D01*
X122096359Y-104880000D02*
X122403641Y-104880000D01*
G04 #@! TO.C,R12*
X140846359Y-88870000D02*
X141153641Y-88870000D01*
X140846359Y-89630000D02*
X141153641Y-89630000D01*
G04 #@! TO.C,D1*
X123250000Y-92900000D02*
X123250000Y-94600000D01*
X123250000Y-92900000D02*
X125800000Y-92900000D01*
X123250000Y-94600000D02*
X125800000Y-94600000D01*
G04 #@! TO.C,C8*
X122760000Y-101109420D02*
X122760000Y-101390580D01*
X121740000Y-101109420D02*
X121740000Y-101390580D01*
G04 #@! TO.C,R9*
X138370000Y-96903641D02*
X138370000Y-96596359D01*
X139130000Y-96903641D02*
X139130000Y-96596359D01*
G04 #@! TO.C,R8*
X139380000Y-109403641D02*
X139380000Y-109096359D01*
X140140000Y-109403641D02*
X140140000Y-109096359D01*
G04 #@! TO.C,Q2*
X139690000Y-91750000D02*
X139690000Y-93425000D01*
X139690000Y-91750000D02*
X139690000Y-91100000D01*
X142810000Y-91750000D02*
X142810000Y-92400000D01*
X142810000Y-91750000D02*
X142810000Y-91100000D01*
G04 #@! TO.C,C6*
X144740000Y-94640580D02*
X144740000Y-94359420D01*
X145760000Y-94640580D02*
X145760000Y-94359420D01*
G04 #@! TO.C,R1*
X121403641Y-93880000D02*
X121096359Y-93880000D01*
X121403641Y-93120000D02*
X121096359Y-93120000D01*
G04 #@! TO.C,Q1*
X139440000Y-95750000D02*
X139440000Y-97425000D01*
X139440000Y-95750000D02*
X139440000Y-95100000D01*
X142560000Y-95750000D02*
X142560000Y-96400000D01*
X142560000Y-95750000D02*
X142560000Y-95100000D01*
G04 #@! TO.C,R11*
X136643641Y-96130000D02*
X136336359Y-96130000D01*
X136643641Y-95370000D02*
X136336359Y-95370000D01*
G04 #@! TO.C,R4*
X143910000Y-104403641D02*
X143910000Y-104096359D01*
X144670000Y-104403641D02*
X144670000Y-104096359D01*
G04 #@! TO.C,Q3*
X125312500Y-105560000D02*
X126987500Y-105560000D01*
X125312500Y-105560000D02*
X124662500Y-105560000D01*
X125312500Y-102440000D02*
X125962500Y-102440000D01*
X125312500Y-102440000D02*
X124662500Y-102440000D01*
G04 #@! TO.C,Q4*
X140750000Y-108060000D02*
X142425000Y-108060000D01*
X140750000Y-108060000D02*
X140100000Y-108060000D01*
X140750000Y-104940000D02*
X141400000Y-104940000D01*
X140750000Y-104940000D02*
X140100000Y-104940000D01*
G04 #@! TO.C,U1*
X122810000Y-97500000D02*
X122810000Y-95700000D01*
X122810000Y-97500000D02*
X122810000Y-98300000D01*
X119690000Y-97500000D02*
X119690000Y-96700000D01*
X119690000Y-97500000D02*
X119690000Y-98300000D01*
G04 #@! TO.C,R10*
X143120000Y-94153641D02*
X143120000Y-93846359D01*
X143880000Y-94153641D02*
X143880000Y-93846359D01*
G04 #@! TO.C,U2*
X133000000Y-97140000D02*
X129400000Y-97140000D01*
X133000000Y-97140000D02*
X135200000Y-97140000D01*
X133000000Y-102360000D02*
X130800000Y-102360000D01*
X133000000Y-102360000D02*
X135200000Y-102360000D01*
G04 #@! TO.C,C1*
X121357836Y-94860000D02*
X121142164Y-94860000D01*
X121357836Y-94140000D02*
X121142164Y-94140000D01*
G04 #@! TD*
M02*
