G04 #@! TF.GenerationSoftware,KiCad,Pcbnew,6.0.11-2627ca5db0~126~ubuntu22.04.1*
G04 #@! TF.CreationDate,2023-06-19T15:46:02-07:00*
G04 #@! TF.ProjectId,VL53L1x_pwm,564c3533-4c31-4785-9f70-776d2e6b6963,rev?*
G04 #@! TF.SameCoordinates,Original*
G04 #@! TF.FileFunction,Soldermask,Top*
G04 #@! TF.FilePolarity,Negative*
%FSLAX46Y46*%
G04 Gerber Fmt 4.6, Leading zero omitted, Abs format (unit mm)*
G04 Created by KiCad (PCBNEW 6.0.11-2627ca5db0~126~ubuntu22.04.1) date 2023-06-19 15:46:02*
%MOMM*%
%LPD*%
G01*
G04 APERTURE LIST*
G04 Aperture macros list*
%AMRoundRect*
0 Rectangle with rounded corners*
0 $1 Rounding radius*
0 $2 $3 $4 $5 $6 $7 $8 $9 X,Y pos of 4 corners*
0 Add a 4 corners polygon primitive as box body*
4,1,4,$2,$3,$4,$5,$6,$7,$8,$9,$2,$3,0*
0 Add four circle primitives for the rounded corners*
1,1,$1+$1,$2,$3*
1,1,$1+$1,$4,$5*
1,1,$1+$1,$6,$7*
1,1,$1+$1,$8,$9*
0 Add four rect primitives between the rounded corners*
20,1,$1+$1,$2,$3,$4,$5,0*
20,1,$1+$1,$4,$5,$6,$7,0*
20,1,$1+$1,$6,$7,$8,$9,0*
20,1,$1+$1,$8,$9,$2,$3,0*%
G04 Aperture macros list end*
%ADD10RoundRect,0.140000X0.140000X0.170000X-0.140000X0.170000X-0.140000X-0.170000X0.140000X-0.170000X0*%
%ADD11RoundRect,0.140000X-0.170000X0.140000X-0.170000X-0.140000X0.170000X-0.140000X0.170000X0.140000X0*%
%ADD12RoundRect,0.062500X-0.062500X0.127500X-0.062500X-0.127500X0.062500X-0.127500X0.062500X0.127500X0*%
%ADD13RoundRect,0.125000X-0.125000X0.125000X-0.125000X-0.125000X0.125000X-0.125000X0.125000X0.125000X0*%
%ADD14R,1.700000X1.700000*%
%ADD15O,1.700000X1.700000*%
%ADD16RoundRect,0.135000X-0.185000X0.135000X-0.185000X-0.135000X0.185000X-0.135000X0.185000X0.135000X0*%
%ADD17R,1.200000X1.400000*%
%ADD18RoundRect,0.140000X0.170000X-0.140000X0.170000X0.140000X-0.170000X0.140000X-0.170000X-0.140000X0*%
%ADD19RoundRect,0.135000X0.185000X-0.135000X0.185000X0.135000X-0.185000X0.135000X-0.185000X-0.135000X0*%
%ADD20R,1.000000X1.000000*%
%ADD21O,1.000000X1.000000*%
%ADD22RoundRect,0.225000X0.225000X0.250000X-0.225000X0.250000X-0.225000X-0.250000X0.225000X-0.250000X0*%
%ADD23RoundRect,0.140000X-0.140000X-0.170000X0.140000X-0.170000X0.140000X0.170000X-0.140000X0.170000X0*%
%ADD24R,0.500000X0.500000*%
%ADD25RoundRect,0.225000X-0.250000X0.225000X-0.250000X-0.225000X0.250000X-0.225000X0.250000X0.225000X0*%
%ADD26C,3.200000*%
%ADD27RoundRect,0.150000X0.587500X0.150000X-0.587500X0.150000X-0.587500X-0.150000X0.587500X-0.150000X0*%
%ADD28RoundRect,0.225000X0.250000X-0.225000X0.250000X0.225000X-0.250000X0.225000X-0.250000X-0.225000X0*%
%ADD29RoundRect,0.135000X0.135000X0.185000X-0.135000X0.185000X-0.135000X-0.185000X0.135000X-0.185000X0*%
%ADD30RoundRect,0.150000X-0.150000X0.587500X-0.150000X-0.587500X0.150000X-0.587500X0.150000X0.587500X0*%
%ADD31RoundRect,0.150000X-0.150000X0.512500X-0.150000X-0.512500X0.150000X-0.512500X0.150000X0.512500X0*%
%ADD32RoundRect,0.100000X-0.637500X-0.100000X0.637500X-0.100000X0.637500X0.100000X-0.637500X0.100000X0*%
G04 APERTURE END LIST*
D10*
G04 #@! TO.C,C2*
X126730000Y-96000000D03*
X125770000Y-96000000D03*
G04 #@! TD*
D11*
G04 #@! TO.C,C7*
X120250000Y-100290000D03*
X120250000Y-101250000D03*
G04 #@! TD*
D12*
G04 #@! TO.C,U3*
X145925000Y-98010000D03*
D13*
X146050000Y-98150000D03*
X146050000Y-98950000D03*
X146050000Y-99750000D03*
X146050000Y-100550000D03*
X146050000Y-101350000D03*
X145250000Y-101350000D03*
X144450000Y-101350000D03*
X144450000Y-100550000D03*
X144450000Y-99750000D03*
X144450000Y-98950000D03*
X144450000Y-98150000D03*
X145250000Y-98150000D03*
G04 #@! TD*
D14*
G04 #@! TO.C,J2*
X129200000Y-106250000D03*
D15*
X131740000Y-106250000D03*
X134280000Y-106250000D03*
X136820000Y-106250000D03*
G04 #@! TD*
D16*
G04 #@! TO.C,R2*
X142306359Y-100740000D03*
X142306359Y-101760000D03*
G04 #@! TD*
D17*
G04 #@! TO.C,Y1*
X125500000Y-97750000D03*
X125500000Y-99950000D03*
X127200000Y-99950000D03*
X127200000Y-97750000D03*
G04 #@! TD*
D18*
G04 #@! TO.C,C4*
X146500000Y-96480000D03*
X146500000Y-95520000D03*
G04 #@! TD*
G04 #@! TO.C,C5*
X144000000Y-96480000D03*
X144000000Y-95520000D03*
G04 #@! TD*
D10*
G04 #@! TO.C,C11*
X138980000Y-100500000D03*
X138020000Y-100500000D03*
G04 #@! TD*
G04 #@! TO.C,C9*
X126730000Y-101500000D03*
X125770000Y-101500000D03*
G04 #@! TD*
D19*
G04 #@! TO.C,R3*
X141250000Y-101760000D03*
X141250000Y-100740000D03*
G04 #@! TD*
D20*
G04 #@! TO.C,J1*
X135300000Y-92375000D03*
D21*
X135300000Y-93645000D03*
X134030000Y-92375000D03*
X134030000Y-93645000D03*
X132760000Y-92375000D03*
X132760000Y-93645000D03*
X131490000Y-92375000D03*
X131490000Y-93645000D03*
X130220000Y-92375000D03*
X130220000Y-93645000D03*
G04 #@! TD*
D22*
G04 #@! TO.C,C10*
X139750000Y-102000000D03*
X138200000Y-102000000D03*
G04 #@! TD*
D23*
G04 #@! TO.C,C3*
X129270000Y-96250000D03*
X130230000Y-96250000D03*
G04 #@! TD*
D24*
G04 #@! TO.C,D1*
X123650000Y-93750000D03*
X125850000Y-93750000D03*
G04 #@! TD*
D25*
G04 #@! TO.C,C8*
X122250000Y-100475000D03*
X122250000Y-102025000D03*
G04 #@! TD*
D26*
G04 #@! TO.C,REF\u002A\u002A*
X121000000Y-108500000D03*
G04 #@! TD*
G04 #@! TO.C,REF\u002A\u002A*
X121000000Y-89500000D03*
G04 #@! TD*
D27*
G04 #@! TO.C,Q2*
X142187500Y-97200000D03*
X142187500Y-95300000D03*
X140312500Y-96250000D03*
G04 #@! TD*
D26*
G04 #@! TO.C,REF\u002A\u002A*
X147000000Y-108500000D03*
G04 #@! TD*
D28*
G04 #@! TO.C,C6*
X145250000Y-95275000D03*
X145250000Y-93725000D03*
G04 #@! TD*
D29*
G04 #@! TO.C,R1*
X121760000Y-93520000D03*
X120740000Y-93520000D03*
G04 #@! TD*
D27*
G04 #@! TO.C,Q1*
X142187500Y-93450000D03*
X142187500Y-91550000D03*
X140312500Y-92500000D03*
G04 #@! TD*
D26*
G04 #@! TO.C,REF\u002A\u002A*
X147000000Y-89500000D03*
G04 #@! TD*
D19*
G04 #@! TO.C,R4*
X144290000Y-104760000D03*
X144290000Y-103740000D03*
G04 #@! TD*
D30*
G04 #@! TO.C,Q3*
X126450000Y-103062500D03*
X124550000Y-103062500D03*
X125500000Y-104937500D03*
G04 #@! TD*
G04 #@! TO.C,Q4*
X141700000Y-105562500D03*
X139800000Y-105562500D03*
X140750000Y-107437500D03*
G04 #@! TD*
D31*
G04 #@! TO.C,U1*
X122200000Y-96362500D03*
X121250000Y-96362500D03*
X120300000Y-96362500D03*
X120300000Y-98637500D03*
X122200000Y-98637500D03*
G04 #@! TD*
D32*
G04 #@! TO.C,U2*
X130137500Y-97800000D03*
X130137500Y-98450000D03*
X130137500Y-99100000D03*
X130137500Y-99750000D03*
X130137500Y-100400000D03*
X130137500Y-101050000D03*
X130137500Y-101700000D03*
X135862500Y-101700000D03*
X135862500Y-101050000D03*
X135862500Y-100400000D03*
X135862500Y-99750000D03*
X135862500Y-99100000D03*
X135862500Y-98450000D03*
X135862500Y-97800000D03*
G04 #@! TD*
D10*
G04 #@! TO.C,C1*
X121730000Y-94750000D03*
X120770000Y-94750000D03*
G04 #@! TD*
M02*
