M48
; DRILL file {KiCad 6.0.11-2627ca5db0~126~ubuntu22.04.1} date Mon Jun 19 15:46:02 2023
; FORMAT={-:-/ absolute / metric / decimal}
; #@! TF.CreationDate,2023-06-19T15:46:02-07:00
; #@! TF.GenerationSoftware,Kicad,Pcbnew,6.0.11-2627ca5db0~126~ubuntu22.04.1
; #@! TF.FileFunction,MixedPlating,1,2
FMAT,2
METRIC
; #@! TA.AperFunction,Plated,PTH,ViaDrill
T1C0.400
; #@! TA.AperFunction,Plated,PTH,ComponentDrill
T2C0.650
; #@! TA.AperFunction,Plated,PTH,ComponentDrill
T3C1.000
; #@! TA.AperFunction,NonPlated,NPTH,ComponentDrill
T4C3.200
%
G90
G05
T1
X119.0Y-97.5
X121.25Y-99.75
X124.75Y-101.4
X137.25Y-101.25
X137.25Y-102.25
X140.0Y-100.75
X142.509Y-99.011
X143.25Y-100.5
X143.25Y-102.25
X143.25Y-104.5
X145.25Y-96.5
T2
X130.22Y-92.375
X130.22Y-93.645
X131.49Y-92.375
X131.49Y-93.645
X132.76Y-92.375
X132.76Y-93.645
X134.03Y-92.375
X134.03Y-93.645
X135.3Y-92.375
X135.3Y-93.645
T3
X129.2Y-106.25
X131.74Y-106.25
X134.28Y-106.25
X136.82Y-106.25
T4
X121.0Y-89.5
X121.0Y-108.5
X147.0Y-89.5
X147.0Y-108.5
T0
M30
