G04 #@! TF.GenerationSoftware,KiCad,Pcbnew,6.0.11-2627ca5db0~126~ubuntu22.04.1*
G04 #@! TF.CreationDate,2023-06-19T15:46:02-07:00*
G04 #@! TF.ProjectId,VL53L1x_pwm,564c3533-4c31-4785-9f70-776d2e6b6963,rev?*
G04 #@! TF.SameCoordinates,Original*
G04 #@! TF.FileFunction,Legend,Top*
G04 #@! TF.FilePolarity,Positive*
%FSLAX46Y46*%
G04 Gerber Fmt 4.6, Leading zero omitted, Abs format (unit mm)*
G04 Created by KiCad (PCBNEW 6.0.11-2627ca5db0~126~ubuntu22.04.1) date 2023-06-19 15:46:02*
%MOMM*%
%LPD*%
G01*
G04 APERTURE LIST*
%ADD10C,0.125000*%
%ADD11C,0.312500*%
%ADD12C,0.250000*%
%ADD13C,0.120000*%
G04 APERTURE END LIST*
D10*
X132178571Y-90476190D02*
X132178571Y-89976190D01*
X132464285Y-90476190D02*
X132250000Y-90190476D01*
X132464285Y-89976190D02*
X132178571Y-90261904D01*
X132678571Y-90214285D02*
X132845238Y-90214285D01*
X132916666Y-90476190D02*
X132678571Y-90476190D01*
X132678571Y-89976190D01*
X132916666Y-89976190D01*
X133226190Y-90238095D02*
X133226190Y-90476190D01*
X133059523Y-89976190D02*
X133226190Y-90238095D01*
X133392857Y-89976190D01*
D11*
X128625000Y-110702380D02*
X128565476Y-110821428D01*
X128565476Y-111000000D01*
X128625000Y-111178571D01*
X128744047Y-111297619D01*
X128863095Y-111357142D01*
X129101190Y-111416666D01*
X129279761Y-111416666D01*
X129517857Y-111357142D01*
X129636904Y-111297619D01*
X129755952Y-111178571D01*
X129815476Y-111000000D01*
X129815476Y-110880952D01*
X129755952Y-110702380D01*
X129696428Y-110642857D01*
X129279761Y-110642857D01*
X129279761Y-110880952D01*
X129815476Y-110107142D02*
X128565476Y-110107142D01*
X129815476Y-109392857D01*
X128565476Y-109392857D01*
X129815476Y-108797619D02*
X128565476Y-108797619D01*
X128565476Y-108500000D01*
X128625000Y-108321428D01*
X128744047Y-108202380D01*
X128863095Y-108142857D01*
X129101190Y-108083333D01*
X129279761Y-108083333D01*
X129517857Y-108142857D01*
X129636904Y-108202380D01*
X129755952Y-108321428D01*
X129815476Y-108500000D01*
X129815476Y-108797619D01*
X135065476Y-111505952D02*
X133815476Y-111505952D01*
X133815476Y-111029761D01*
X133875000Y-110910714D01*
X133934523Y-110851190D01*
X134053571Y-110791666D01*
X134232142Y-110791666D01*
X134351190Y-110851190D01*
X134410714Y-110910714D01*
X134470238Y-111029761D01*
X134470238Y-111505952D01*
X133815476Y-110375000D02*
X135065476Y-110077380D01*
X134172619Y-109839285D01*
X135065476Y-109601190D01*
X133815476Y-109303571D01*
X135065476Y-108827380D02*
X133815476Y-108827380D01*
X134708333Y-108410714D01*
X133815476Y-107994047D01*
X135065476Y-107994047D01*
X137565476Y-110880952D02*
X136315476Y-110880952D01*
X137565476Y-110285714D02*
X136315476Y-110285714D01*
X137565476Y-109571428D01*
X136315476Y-109571428D01*
X136315476Y-109154761D02*
X136315476Y-108440476D01*
X137565476Y-108797619D02*
X136315476Y-108797619D01*
D10*
X129797619Y-103202380D02*
X129869047Y-103226190D01*
X129988095Y-103226190D01*
X130035714Y-103202380D01*
X130059523Y-103178571D01*
X130083333Y-103130952D01*
X130083333Y-103083333D01*
X130059523Y-103035714D01*
X130035714Y-103011904D01*
X129988095Y-102988095D01*
X129892857Y-102964285D01*
X129845238Y-102940476D01*
X129821428Y-102916666D01*
X129797619Y-102869047D01*
X129797619Y-102821428D01*
X129821428Y-102773809D01*
X129845238Y-102750000D01*
X129892857Y-102726190D01*
X130011904Y-102726190D01*
X130083333Y-102750000D01*
X130226190Y-102726190D02*
X130511904Y-102726190D01*
X130369047Y-103226190D02*
X130369047Y-102726190D01*
X130678571Y-103226190D02*
X130678571Y-102726190D01*
X130845238Y-103083333D01*
X131011904Y-102726190D01*
X131011904Y-103226190D01*
X131202380Y-102726190D02*
X131511904Y-102726190D01*
X131345238Y-102916666D01*
X131416666Y-102916666D01*
X131464285Y-102940476D01*
X131488095Y-102964285D01*
X131511904Y-103011904D01*
X131511904Y-103130952D01*
X131488095Y-103178571D01*
X131464285Y-103202380D01*
X131416666Y-103226190D01*
X131273809Y-103226190D01*
X131226190Y-103202380D01*
X131202380Y-103178571D01*
X131702380Y-102773809D02*
X131726190Y-102750000D01*
X131773809Y-102726190D01*
X131892857Y-102726190D01*
X131940476Y-102750000D01*
X131964285Y-102773809D01*
X131988095Y-102821428D01*
X131988095Y-102869047D01*
X131964285Y-102940476D01*
X131678571Y-103226190D01*
X131988095Y-103226190D01*
X132440476Y-103226190D02*
X132202380Y-103226190D01*
X132202380Y-102726190D01*
X132702380Y-102726190D02*
X132750000Y-102726190D01*
X132797619Y-102750000D01*
X132821428Y-102773809D01*
X132845238Y-102821428D01*
X132869047Y-102916666D01*
X132869047Y-103035714D01*
X132845238Y-103130952D01*
X132821428Y-103178571D01*
X132797619Y-103202380D01*
X132750000Y-103226190D01*
X132702380Y-103226190D01*
X132654761Y-103202380D01*
X132630952Y-103178571D01*
X132607142Y-103130952D01*
X132583333Y-103035714D01*
X132583333Y-102916666D01*
X132607142Y-102821428D01*
X132630952Y-102773809D01*
X132654761Y-102750000D01*
X132702380Y-102726190D01*
X133345238Y-103226190D02*
X133059523Y-103226190D01*
X133202380Y-103226190D02*
X133202380Y-102726190D01*
X133154761Y-102797619D01*
X133107142Y-102845238D01*
X133059523Y-102869047D01*
X133821428Y-103226190D02*
X133535714Y-103226190D01*
X133678571Y-103226190D02*
X133678571Y-102726190D01*
X133630952Y-102797619D01*
X133583333Y-102845238D01*
X133535714Y-102869047D01*
X134035714Y-103226190D02*
X134035714Y-102726190D01*
X134154761Y-102726190D01*
X134226190Y-102750000D01*
X134273809Y-102797619D01*
X134297619Y-102845238D01*
X134321428Y-102940476D01*
X134321428Y-103011904D01*
X134297619Y-103107142D01*
X134273809Y-103154761D01*
X134226190Y-103202380D01*
X134154761Y-103226190D01*
X134035714Y-103226190D01*
X134750000Y-102892857D02*
X134750000Y-103226190D01*
X134630952Y-102702380D02*
X134511904Y-103059523D01*
X134821428Y-103059523D01*
X135011904Y-103226190D02*
X135011904Y-102726190D01*
X135202380Y-102726190D01*
X135250000Y-102750000D01*
X135273809Y-102773809D01*
X135297619Y-102821428D01*
X135297619Y-102892857D01*
X135273809Y-102940476D01*
X135250000Y-102964285D01*
X135202380Y-102988095D01*
X135011904Y-102988095D01*
X135464285Y-103226190D02*
X135726190Y-102892857D01*
X135464285Y-102892857D02*
X135726190Y-103226190D01*
D12*
X124404761Y-87897380D02*
X124404761Y-86897380D01*
X124785714Y-86897380D01*
X124880952Y-86945000D01*
X124928571Y-86992619D01*
X124976190Y-87087857D01*
X124976190Y-87230714D01*
X124928571Y-87325952D01*
X124880952Y-87373571D01*
X124785714Y-87421190D01*
X124404761Y-87421190D01*
X125309523Y-86897380D02*
X125547619Y-87897380D01*
X125738095Y-87183095D01*
X125928571Y-87897380D01*
X126166666Y-86897380D01*
X126547619Y-87897380D02*
X126547619Y-86897380D01*
X126880952Y-87611666D01*
X127214285Y-86897380D01*
X127214285Y-87897380D01*
X128642857Y-86897380D02*
X128833333Y-86897380D01*
X128928571Y-86945000D01*
X129023809Y-87040238D01*
X129071428Y-87230714D01*
X129071428Y-87564047D01*
X129023809Y-87754523D01*
X128928571Y-87849761D01*
X128833333Y-87897380D01*
X128642857Y-87897380D01*
X128547619Y-87849761D01*
X128452380Y-87754523D01*
X128404761Y-87564047D01*
X128404761Y-87230714D01*
X128452380Y-87040238D01*
X128547619Y-86945000D01*
X128642857Y-86897380D01*
X129928571Y-87230714D02*
X129928571Y-87897380D01*
X129499999Y-87230714D02*
X129499999Y-87754523D01*
X129547619Y-87849761D01*
X129642857Y-87897380D01*
X129785714Y-87897380D01*
X129880952Y-87849761D01*
X129928571Y-87802142D01*
X130261904Y-87230714D02*
X130642857Y-87230714D01*
X130404761Y-86897380D02*
X130404761Y-87754523D01*
X130452380Y-87849761D01*
X130547619Y-87897380D01*
X130642857Y-87897380D01*
X130976190Y-87230714D02*
X130976190Y-88230714D01*
X130976190Y-87278333D02*
X131071428Y-87230714D01*
X131261904Y-87230714D01*
X131357142Y-87278333D01*
X131404761Y-87325952D01*
X131452380Y-87421190D01*
X131452380Y-87706904D01*
X131404761Y-87802142D01*
X131357142Y-87849761D01*
X131261904Y-87897380D01*
X131071428Y-87897380D01*
X130976190Y-87849761D01*
X132309523Y-87230714D02*
X132309523Y-87897380D01*
X131880952Y-87230714D02*
X131880952Y-87754523D01*
X131928571Y-87849761D01*
X132023809Y-87897380D01*
X132166666Y-87897380D01*
X132261904Y-87849761D01*
X132309523Y-87802142D01*
X132642857Y-87230714D02*
X133023809Y-87230714D01*
X132785714Y-86897380D02*
X132785714Y-87754523D01*
X132833333Y-87849761D01*
X132928571Y-87897380D01*
X133023809Y-87897380D01*
X134595238Y-87897380D02*
X134119047Y-87897380D01*
X134119047Y-86897380D01*
X134928571Y-87897380D02*
X134928571Y-87230714D01*
X134928571Y-86897380D02*
X134880952Y-86945000D01*
X134928571Y-86992619D01*
X134976190Y-86945000D01*
X134928571Y-86897380D01*
X134928571Y-86992619D01*
X135404761Y-87897380D02*
X135404761Y-86897380D01*
X135642857Y-86897380D01*
X135785714Y-86945000D01*
X135880952Y-87040238D01*
X135928571Y-87135476D01*
X135976190Y-87325952D01*
X135976190Y-87468809D01*
X135928571Y-87659285D01*
X135880952Y-87754523D01*
X135785714Y-87849761D01*
X135642857Y-87897380D01*
X135404761Y-87897380D01*
X136357142Y-87611666D02*
X136833333Y-87611666D01*
X136261904Y-87897380D02*
X136595238Y-86897380D01*
X136928571Y-87897380D01*
X137833333Y-87897380D02*
X137500000Y-87421190D01*
X137261904Y-87897380D02*
X137261904Y-86897380D01*
X137642857Y-86897380D01*
X137738095Y-86945000D01*
X137785714Y-86992619D01*
X137833333Y-87087857D01*
X137833333Y-87230714D01*
X137785714Y-87325952D01*
X137738095Y-87373571D01*
X137642857Y-87421190D01*
X137261904Y-87421190D01*
X138976190Y-87849761D02*
X139119047Y-87897380D01*
X139357142Y-87897380D01*
X139452380Y-87849761D01*
X139500000Y-87802142D01*
X139547619Y-87706904D01*
X139547619Y-87611666D01*
X139500000Y-87516428D01*
X139452380Y-87468809D01*
X139357142Y-87421190D01*
X139166666Y-87373571D01*
X139071428Y-87325952D01*
X139023809Y-87278333D01*
X138976190Y-87183095D01*
X138976190Y-87087857D01*
X139023809Y-86992619D01*
X139071428Y-86945000D01*
X139166666Y-86897380D01*
X139404761Y-86897380D01*
X139547619Y-86945000D01*
X140357142Y-87849761D02*
X140261904Y-87897380D01*
X140071428Y-87897380D01*
X139976190Y-87849761D01*
X139928571Y-87754523D01*
X139928571Y-87373571D01*
X139976190Y-87278333D01*
X140071428Y-87230714D01*
X140261904Y-87230714D01*
X140357142Y-87278333D01*
X140404761Y-87373571D01*
X140404761Y-87468809D01*
X139928571Y-87564047D01*
X140833333Y-87230714D02*
X140833333Y-87897380D01*
X140833333Y-87325952D02*
X140880952Y-87278333D01*
X140976190Y-87230714D01*
X141119047Y-87230714D01*
X141214285Y-87278333D01*
X141261904Y-87373571D01*
X141261904Y-87897380D01*
X141690476Y-87849761D02*
X141785714Y-87897380D01*
X141976190Y-87897380D01*
X142071428Y-87849761D01*
X142119047Y-87754523D01*
X142119047Y-87706904D01*
X142071428Y-87611666D01*
X141976190Y-87564047D01*
X141833333Y-87564047D01*
X141738095Y-87516428D01*
X141690476Y-87421190D01*
X141690476Y-87373571D01*
X141738095Y-87278333D01*
X141833333Y-87230714D01*
X141976190Y-87230714D01*
X142071428Y-87278333D01*
X142690476Y-87897380D02*
X142595238Y-87849761D01*
X142547619Y-87802142D01*
X142500000Y-87706904D01*
X142500000Y-87421190D01*
X142547619Y-87325952D01*
X142595238Y-87278333D01*
X142690476Y-87230714D01*
X142833333Y-87230714D01*
X142928571Y-87278333D01*
X142976190Y-87325952D01*
X143023809Y-87421190D01*
X143023809Y-87706904D01*
X142976190Y-87802142D01*
X142928571Y-87849761D01*
X142833333Y-87897380D01*
X142690476Y-87897380D01*
X143452380Y-87897380D02*
X143452380Y-87230714D01*
X143452380Y-87421190D02*
X143500000Y-87325952D01*
X143547619Y-87278333D01*
X143642857Y-87230714D01*
X143738095Y-87230714D01*
X129166666Y-88507380D02*
X129785714Y-88507380D01*
X129452380Y-88888333D01*
X129595238Y-88888333D01*
X129690476Y-88935952D01*
X129738095Y-88983571D01*
X129785714Y-89078809D01*
X129785714Y-89316904D01*
X129738095Y-89412142D01*
X129690476Y-89459761D01*
X129595238Y-89507380D01*
X129309523Y-89507380D01*
X129214285Y-89459761D01*
X129166666Y-89412142D01*
X131404761Y-89459761D02*
X131309523Y-89507380D01*
X131119047Y-89507380D01*
X131023809Y-89459761D01*
X130976190Y-89412142D01*
X130928571Y-89316904D01*
X130928571Y-89031190D01*
X130976190Y-88935952D01*
X131023809Y-88888333D01*
X131119047Y-88840714D01*
X131309523Y-88840714D01*
X131404761Y-88888333D01*
X131833333Y-89507380D02*
X131833333Y-88840714D01*
X131833333Y-88935952D02*
X131880952Y-88888333D01*
X131976190Y-88840714D01*
X132119047Y-88840714D01*
X132214285Y-88888333D01*
X132261904Y-88983571D01*
X132261904Y-89507380D01*
X132261904Y-88983571D02*
X132309523Y-88888333D01*
X132404761Y-88840714D01*
X132547619Y-88840714D01*
X132642857Y-88888333D01*
X132690476Y-88983571D01*
X132690476Y-89507380D01*
X133785714Y-88840714D02*
X134166666Y-88840714D01*
X133928571Y-88507380D02*
X133928571Y-89364523D01*
X133976190Y-89459761D01*
X134071428Y-89507380D01*
X134166666Y-89507380D01*
X134642857Y-89507380D02*
X134547619Y-89459761D01*
X134500000Y-89412142D01*
X134452380Y-89316904D01*
X134452380Y-89031190D01*
X134500000Y-88935952D01*
X134547619Y-88888333D01*
X134642857Y-88840714D01*
X134785714Y-88840714D01*
X134880952Y-88888333D01*
X134928571Y-88935952D01*
X134976190Y-89031190D01*
X134976190Y-89316904D01*
X134928571Y-89412142D01*
X134880952Y-89459761D01*
X134785714Y-89507380D01*
X134642857Y-89507380D01*
X136595238Y-88840714D02*
X136595238Y-89507380D01*
X136357142Y-88459761D02*
X136119047Y-89174047D01*
X136738095Y-89174047D01*
X137880952Y-89507380D02*
X137880952Y-88840714D01*
X137880952Y-88935952D02*
X137928571Y-88888333D01*
X138023809Y-88840714D01*
X138166666Y-88840714D01*
X138261904Y-88888333D01*
X138309523Y-88983571D01*
X138309523Y-89507380D01*
X138309523Y-88983571D02*
X138357142Y-88888333D01*
X138452380Y-88840714D01*
X138595238Y-88840714D01*
X138690476Y-88888333D01*
X138738095Y-88983571D01*
X138738095Y-89507380D01*
D10*
X146976190Y-101488095D02*
X147476190Y-101321428D01*
X146976190Y-101154761D01*
X147476190Y-100750000D02*
X147476190Y-100988095D01*
X146976190Y-100988095D01*
X146976190Y-100345238D02*
X146976190Y-100583333D01*
X147214285Y-100607142D01*
X147190476Y-100583333D01*
X147166666Y-100535714D01*
X147166666Y-100416666D01*
X147190476Y-100369047D01*
X147214285Y-100345238D01*
X147261904Y-100321428D01*
X147380952Y-100321428D01*
X147428571Y-100345238D01*
X147452380Y-100369047D01*
X147476190Y-100416666D01*
X147476190Y-100535714D01*
X147452380Y-100583333D01*
X147428571Y-100607142D01*
X146976190Y-100154761D02*
X146976190Y-99845238D01*
X147166666Y-100011904D01*
X147166666Y-99940476D01*
X147190476Y-99892857D01*
X147214285Y-99869047D01*
X147261904Y-99845238D01*
X147380952Y-99845238D01*
X147428571Y-99869047D01*
X147452380Y-99892857D01*
X147476190Y-99940476D01*
X147476190Y-100083333D01*
X147452380Y-100130952D01*
X147428571Y-100154761D01*
X147476190Y-99392857D02*
X147476190Y-99630952D01*
X146976190Y-99630952D01*
X147476190Y-98964285D02*
X147476190Y-99250000D01*
X147476190Y-99107142D02*
X146976190Y-99107142D01*
X147047619Y-99154761D01*
X147095238Y-99202380D01*
X147119047Y-99250000D01*
X147428571Y-98464285D02*
X147452380Y-98488095D01*
X147476190Y-98559523D01*
X147476190Y-98607142D01*
X147452380Y-98678571D01*
X147404761Y-98726190D01*
X147357142Y-98750000D01*
X147261904Y-98773809D01*
X147190476Y-98773809D01*
X147095238Y-98750000D01*
X147047619Y-98726190D01*
X147000000Y-98678571D01*
X146976190Y-98607142D01*
X146976190Y-98559523D01*
X147000000Y-98488095D01*
X147023809Y-98464285D01*
X147476190Y-98297619D02*
X147142857Y-98035714D01*
X147142857Y-98297619D02*
X147476190Y-98035714D01*
D11*
X131065476Y-111416666D02*
X132315476Y-111000000D01*
X131065476Y-110583333D01*
X132196428Y-109452380D02*
X132255952Y-109511904D01*
X132315476Y-109690476D01*
X132315476Y-109809523D01*
X132255952Y-109988095D01*
X132136904Y-110107142D01*
X132017857Y-110166666D01*
X131779761Y-110226190D01*
X131601190Y-110226190D01*
X131363095Y-110166666D01*
X131244047Y-110107142D01*
X131125000Y-109988095D01*
X131065476Y-109809523D01*
X131065476Y-109690476D01*
X131125000Y-109511904D01*
X131184523Y-109452380D01*
X132196428Y-108202380D02*
X132255952Y-108261904D01*
X132315476Y-108440476D01*
X132315476Y-108559523D01*
X132255952Y-108738095D01*
X132136904Y-108857142D01*
X132017857Y-108916666D01*
X131779761Y-108976190D01*
X131601190Y-108976190D01*
X131363095Y-108916666D01*
X131244047Y-108857142D01*
X131125000Y-108738095D01*
X131065476Y-108559523D01*
X131065476Y-108440476D01*
X131125000Y-108261904D01*
X131184523Y-108202380D01*
D10*
G04 #@! TO.C,C2*
X124666666Y-96178571D02*
X124642857Y-96202380D01*
X124571428Y-96226190D01*
X124523809Y-96226190D01*
X124452380Y-96202380D01*
X124404761Y-96154761D01*
X124380952Y-96107142D01*
X124357142Y-96011904D01*
X124357142Y-95940476D01*
X124380952Y-95845238D01*
X124404761Y-95797619D01*
X124452380Y-95750000D01*
X124523809Y-95726190D01*
X124571428Y-95726190D01*
X124642857Y-95750000D01*
X124666666Y-95773809D01*
X124857142Y-95773809D02*
X124880952Y-95750000D01*
X124928571Y-95726190D01*
X125047619Y-95726190D01*
X125095238Y-95750000D01*
X125119047Y-95773809D01*
X125142857Y-95821428D01*
X125142857Y-95869047D01*
X125119047Y-95940476D01*
X124833333Y-96226190D01*
X125142857Y-96226190D01*
G04 #@! TO.C,C7*
X119678571Y-100833333D02*
X119702380Y-100857142D01*
X119726190Y-100928571D01*
X119726190Y-100976190D01*
X119702380Y-101047619D01*
X119654761Y-101095238D01*
X119607142Y-101119047D01*
X119511904Y-101142857D01*
X119440476Y-101142857D01*
X119345238Y-101119047D01*
X119297619Y-101095238D01*
X119250000Y-101047619D01*
X119226190Y-100976190D01*
X119226190Y-100928571D01*
X119250000Y-100857142D01*
X119273809Y-100833333D01*
X119226190Y-100666666D02*
X119226190Y-100333333D01*
X119726190Y-100547619D01*
G04 #@! TO.C,U3*
X144869047Y-102476190D02*
X144869047Y-102880952D01*
X144892857Y-102928571D01*
X144916666Y-102952380D01*
X144964285Y-102976190D01*
X145059523Y-102976190D01*
X145107142Y-102952380D01*
X145130952Y-102928571D01*
X145154761Y-102880952D01*
X145154761Y-102476190D01*
X145345238Y-102476190D02*
X145654761Y-102476190D01*
X145488095Y-102666666D01*
X145559523Y-102666666D01*
X145607142Y-102690476D01*
X145630952Y-102714285D01*
X145654761Y-102761904D01*
X145654761Y-102880952D01*
X145630952Y-102928571D01*
X145607142Y-102952380D01*
X145559523Y-102976190D01*
X145416666Y-102976190D01*
X145369047Y-102952380D01*
X145345238Y-102928571D01*
G04 #@! TO.C,J2*
X132833333Y-104226190D02*
X132833333Y-104583333D01*
X132809523Y-104654761D01*
X132761904Y-104702380D01*
X132690476Y-104726190D01*
X132642857Y-104726190D01*
X133047619Y-104273809D02*
X133071428Y-104250000D01*
X133119047Y-104226190D01*
X133238095Y-104226190D01*
X133285714Y-104250000D01*
X133309523Y-104273809D01*
X133333333Y-104321428D01*
X133333333Y-104369047D01*
X133309523Y-104440476D01*
X133023809Y-104726190D01*
X133333333Y-104726190D01*
G04 #@! TO.C,R2*
X142476190Y-102833333D02*
X142238095Y-103000000D01*
X142476190Y-103119047D02*
X141976190Y-103119047D01*
X141976190Y-102928571D01*
X142000000Y-102880952D01*
X142023809Y-102857142D01*
X142071428Y-102833333D01*
X142142857Y-102833333D01*
X142190476Y-102857142D01*
X142214285Y-102880952D01*
X142238095Y-102928571D01*
X142238095Y-103119047D01*
X142023809Y-102642857D02*
X142000000Y-102619047D01*
X141976190Y-102571428D01*
X141976190Y-102452380D01*
X142000000Y-102404761D01*
X142023809Y-102380952D01*
X142071428Y-102357142D01*
X142119047Y-102357142D01*
X142190476Y-102380952D01*
X142476190Y-102666666D01*
X142476190Y-102357142D01*
G04 #@! TO.C,Y1*
X128261904Y-98838095D02*
X128261904Y-99076190D01*
X128095238Y-98576190D02*
X128261904Y-98838095D01*
X128428571Y-98576190D01*
X128857142Y-99076190D02*
X128571428Y-99076190D01*
X128714285Y-99076190D02*
X128714285Y-98576190D01*
X128666666Y-98647619D01*
X128619047Y-98695238D01*
X128571428Y-98719047D01*
G04 #@! TO.C,C4*
X147678571Y-96083333D02*
X147702380Y-96107142D01*
X147726190Y-96178571D01*
X147726190Y-96226190D01*
X147702380Y-96297619D01*
X147654761Y-96345238D01*
X147607142Y-96369047D01*
X147511904Y-96392857D01*
X147440476Y-96392857D01*
X147345238Y-96369047D01*
X147297619Y-96345238D01*
X147250000Y-96297619D01*
X147226190Y-96226190D01*
X147226190Y-96178571D01*
X147250000Y-96107142D01*
X147273809Y-96083333D01*
X147392857Y-95654761D02*
X147726190Y-95654761D01*
X147202380Y-95773809D02*
X147559523Y-95892857D01*
X147559523Y-95583333D01*
G04 #@! TO.C,C5*
X143428571Y-96333333D02*
X143452380Y-96357142D01*
X143476190Y-96428571D01*
X143476190Y-96476190D01*
X143452380Y-96547619D01*
X143404761Y-96595238D01*
X143357142Y-96619047D01*
X143261904Y-96642857D01*
X143190476Y-96642857D01*
X143095238Y-96619047D01*
X143047619Y-96595238D01*
X143000000Y-96547619D01*
X142976190Y-96476190D01*
X142976190Y-96428571D01*
X143000000Y-96357142D01*
X143023809Y-96333333D01*
X142976190Y-95880952D02*
X142976190Y-96119047D01*
X143214285Y-96142857D01*
X143190476Y-96119047D01*
X143166666Y-96071428D01*
X143166666Y-95952380D01*
X143190476Y-95904761D01*
X143214285Y-95880952D01*
X143261904Y-95857142D01*
X143380952Y-95857142D01*
X143428571Y-95880952D01*
X143452380Y-95904761D01*
X143476190Y-95952380D01*
X143476190Y-96071428D01*
X143452380Y-96119047D01*
X143428571Y-96142857D01*
G04 #@! TO.C,C11*
X138178571Y-99928571D02*
X138154761Y-99952380D01*
X138083333Y-99976190D01*
X138035714Y-99976190D01*
X137964285Y-99952380D01*
X137916666Y-99904761D01*
X137892857Y-99857142D01*
X137869047Y-99761904D01*
X137869047Y-99690476D01*
X137892857Y-99595238D01*
X137916666Y-99547619D01*
X137964285Y-99500000D01*
X138035714Y-99476190D01*
X138083333Y-99476190D01*
X138154761Y-99500000D01*
X138178571Y-99523809D01*
X138654761Y-99976190D02*
X138369047Y-99976190D01*
X138511904Y-99976190D02*
X138511904Y-99476190D01*
X138464285Y-99547619D01*
X138416666Y-99595238D01*
X138369047Y-99619047D01*
X139130952Y-99976190D02*
X138845238Y-99976190D01*
X138988095Y-99976190D02*
X138988095Y-99476190D01*
X138940476Y-99547619D01*
X138892857Y-99595238D01*
X138845238Y-99619047D01*
G04 #@! TO.C,C9*
X127916666Y-101678571D02*
X127892857Y-101702380D01*
X127821428Y-101726190D01*
X127773809Y-101726190D01*
X127702380Y-101702380D01*
X127654761Y-101654761D01*
X127630952Y-101607142D01*
X127607142Y-101511904D01*
X127607142Y-101440476D01*
X127630952Y-101345238D01*
X127654761Y-101297619D01*
X127702380Y-101250000D01*
X127773809Y-101226190D01*
X127821428Y-101226190D01*
X127892857Y-101250000D01*
X127916666Y-101273809D01*
X128154761Y-101726190D02*
X128250000Y-101726190D01*
X128297619Y-101702380D01*
X128321428Y-101678571D01*
X128369047Y-101607142D01*
X128392857Y-101511904D01*
X128392857Y-101321428D01*
X128369047Y-101273809D01*
X128345238Y-101250000D01*
X128297619Y-101226190D01*
X128202380Y-101226190D01*
X128154761Y-101250000D01*
X128130952Y-101273809D01*
X128107142Y-101321428D01*
X128107142Y-101440476D01*
X128130952Y-101488095D01*
X128154761Y-101511904D01*
X128202380Y-101535714D01*
X128297619Y-101535714D01*
X128345238Y-101511904D01*
X128369047Y-101488095D01*
X128392857Y-101440476D01*
G04 #@! TO.C,R3*
X141476190Y-102833333D02*
X141238095Y-103000000D01*
X141476190Y-103119047D02*
X140976190Y-103119047D01*
X140976190Y-102928571D01*
X141000000Y-102880952D01*
X141023809Y-102857142D01*
X141071428Y-102833333D01*
X141142857Y-102833333D01*
X141190476Y-102857142D01*
X141214285Y-102880952D01*
X141238095Y-102928571D01*
X141238095Y-103119047D01*
X140976190Y-102666666D02*
X140976190Y-102357142D01*
X141166666Y-102523809D01*
X141166666Y-102452380D01*
X141190476Y-102404761D01*
X141214285Y-102380952D01*
X141261904Y-102357142D01*
X141380952Y-102357142D01*
X141428571Y-102380952D01*
X141452380Y-102404761D01*
X141476190Y-102452380D01*
X141476190Y-102595238D01*
X141452380Y-102642857D01*
X141428571Y-102666666D01*
G04 #@! TO.C,J1*
X135583333Y-95726190D02*
X135583333Y-96083333D01*
X135559523Y-96154761D01*
X135511904Y-96202380D01*
X135440476Y-96226190D01*
X135392857Y-96226190D01*
X136083333Y-96226190D02*
X135797619Y-96226190D01*
X135940476Y-96226190D02*
X135940476Y-95726190D01*
X135892857Y-95797619D01*
X135845238Y-95845238D01*
X135797619Y-95869047D01*
G04 #@! TO.C,C10*
X138653571Y-103428571D02*
X138629761Y-103452380D01*
X138558333Y-103476190D01*
X138510714Y-103476190D01*
X138439285Y-103452380D01*
X138391666Y-103404761D01*
X138367857Y-103357142D01*
X138344047Y-103261904D01*
X138344047Y-103190476D01*
X138367857Y-103095238D01*
X138391666Y-103047619D01*
X138439285Y-103000000D01*
X138510714Y-102976190D01*
X138558333Y-102976190D01*
X138629761Y-103000000D01*
X138653571Y-103023809D01*
X139129761Y-103476190D02*
X138844047Y-103476190D01*
X138986904Y-103476190D02*
X138986904Y-102976190D01*
X138939285Y-103047619D01*
X138891666Y-103095238D01*
X138844047Y-103119047D01*
X139439285Y-102976190D02*
X139486904Y-102976190D01*
X139534523Y-103000000D01*
X139558333Y-103023809D01*
X139582142Y-103071428D01*
X139605952Y-103166666D01*
X139605952Y-103285714D01*
X139582142Y-103380952D01*
X139558333Y-103428571D01*
X139534523Y-103452380D01*
X139486904Y-103476190D01*
X139439285Y-103476190D01*
X139391666Y-103452380D01*
X139367857Y-103428571D01*
X139344047Y-103380952D01*
X139320238Y-103285714D01*
X139320238Y-103166666D01*
X139344047Y-103071428D01*
X139367857Y-103023809D01*
X139391666Y-103000000D01*
X139439285Y-102976190D01*
G04 #@! TO.C,C3*
X131166666Y-96428571D02*
X131142857Y-96452380D01*
X131071428Y-96476190D01*
X131023809Y-96476190D01*
X130952380Y-96452380D01*
X130904761Y-96404761D01*
X130880952Y-96357142D01*
X130857142Y-96261904D01*
X130857142Y-96190476D01*
X130880952Y-96095238D01*
X130904761Y-96047619D01*
X130952380Y-96000000D01*
X131023809Y-95976190D01*
X131071428Y-95976190D01*
X131142857Y-96000000D01*
X131166666Y-96023809D01*
X131333333Y-95976190D02*
X131642857Y-95976190D01*
X131476190Y-96166666D01*
X131547619Y-96166666D01*
X131595238Y-96190476D01*
X131619047Y-96214285D01*
X131642857Y-96261904D01*
X131642857Y-96380952D01*
X131619047Y-96428571D01*
X131595238Y-96452380D01*
X131547619Y-96476190D01*
X131404761Y-96476190D01*
X131357142Y-96452380D01*
X131333333Y-96428571D01*
G04 #@! TO.C,D1*
X124380952Y-92726190D02*
X124380952Y-92226190D01*
X124500000Y-92226190D01*
X124571428Y-92250000D01*
X124619047Y-92297619D01*
X124642857Y-92345238D01*
X124666666Y-92440476D01*
X124666666Y-92511904D01*
X124642857Y-92607142D01*
X124619047Y-92654761D01*
X124571428Y-92702380D01*
X124500000Y-92726190D01*
X124380952Y-92726190D01*
X125142857Y-92726190D02*
X124857142Y-92726190D01*
X125000000Y-92726190D02*
X125000000Y-92226190D01*
X124952380Y-92297619D01*
X124904761Y-92345238D01*
X124857142Y-92369047D01*
G04 #@! TO.C,C8*
X121428571Y-101333333D02*
X121452380Y-101357142D01*
X121476190Y-101428571D01*
X121476190Y-101476190D01*
X121452380Y-101547619D01*
X121404761Y-101595238D01*
X121357142Y-101619047D01*
X121261904Y-101642857D01*
X121190476Y-101642857D01*
X121095238Y-101619047D01*
X121047619Y-101595238D01*
X121000000Y-101547619D01*
X120976190Y-101476190D01*
X120976190Y-101428571D01*
X121000000Y-101357142D01*
X121023809Y-101333333D01*
X121190476Y-101047619D02*
X121166666Y-101095238D01*
X121142857Y-101119047D01*
X121095238Y-101142857D01*
X121071428Y-101142857D01*
X121023809Y-101119047D01*
X121000000Y-101095238D01*
X120976190Y-101047619D01*
X120976190Y-100952380D01*
X121000000Y-100904761D01*
X121023809Y-100880952D01*
X121071428Y-100857142D01*
X121095238Y-100857142D01*
X121142857Y-100880952D01*
X121166666Y-100904761D01*
X121190476Y-100952380D01*
X121190476Y-101047619D01*
X121214285Y-101095238D01*
X121238095Y-101119047D01*
X121285714Y-101142857D01*
X121380952Y-101142857D01*
X121428571Y-101119047D01*
X121452380Y-101095238D01*
X121476190Y-101047619D01*
X121476190Y-100952380D01*
X121452380Y-100904761D01*
X121428571Y-100880952D01*
X121380952Y-100857142D01*
X121285714Y-100857142D01*
X121238095Y-100880952D01*
X121214285Y-100904761D01*
X121190476Y-100952380D01*
G04 #@! TO.C,Q2*
X141202380Y-98773809D02*
X141154761Y-98750000D01*
X141107142Y-98702380D01*
X141035714Y-98630952D01*
X140988095Y-98607142D01*
X140940476Y-98607142D01*
X140964285Y-98726190D02*
X140916666Y-98702380D01*
X140869047Y-98654761D01*
X140845238Y-98559523D01*
X140845238Y-98392857D01*
X140869047Y-98297619D01*
X140916666Y-98250000D01*
X140964285Y-98226190D01*
X141059523Y-98226190D01*
X141107142Y-98250000D01*
X141154761Y-98297619D01*
X141178571Y-98392857D01*
X141178571Y-98559523D01*
X141154761Y-98654761D01*
X141107142Y-98702380D01*
X141059523Y-98726190D01*
X140964285Y-98726190D01*
X141369047Y-98273809D02*
X141392857Y-98250000D01*
X141440476Y-98226190D01*
X141559523Y-98226190D01*
X141607142Y-98250000D01*
X141630952Y-98273809D01*
X141654761Y-98321428D01*
X141654761Y-98369047D01*
X141630952Y-98440476D01*
X141345238Y-98726190D01*
X141654761Y-98726190D01*
G04 #@! TO.C,C6*
X146678571Y-93833333D02*
X146702380Y-93857142D01*
X146726190Y-93928571D01*
X146726190Y-93976190D01*
X146702380Y-94047619D01*
X146654761Y-94095238D01*
X146607142Y-94119047D01*
X146511904Y-94142857D01*
X146440476Y-94142857D01*
X146345238Y-94119047D01*
X146297619Y-94095238D01*
X146250000Y-94047619D01*
X146226190Y-93976190D01*
X146226190Y-93928571D01*
X146250000Y-93857142D01*
X146273809Y-93833333D01*
X146226190Y-93404761D02*
X146226190Y-93500000D01*
X146250000Y-93547619D01*
X146273809Y-93571428D01*
X146345238Y-93619047D01*
X146440476Y-93642857D01*
X146630952Y-93642857D01*
X146678571Y-93619047D01*
X146702380Y-93595238D01*
X146726190Y-93547619D01*
X146726190Y-93452380D01*
X146702380Y-93404761D01*
X146678571Y-93380952D01*
X146630952Y-93357142D01*
X146511904Y-93357142D01*
X146464285Y-93380952D01*
X146440476Y-93404761D01*
X146416666Y-93452380D01*
X146416666Y-93547619D01*
X146440476Y-93595238D01*
X146464285Y-93619047D01*
X146511904Y-93642857D01*
G04 #@! TO.C,R1*
X119666666Y-93726190D02*
X119500000Y-93488095D01*
X119380952Y-93726190D02*
X119380952Y-93226190D01*
X119571428Y-93226190D01*
X119619047Y-93250000D01*
X119642857Y-93273809D01*
X119666666Y-93321428D01*
X119666666Y-93392857D01*
X119642857Y-93440476D01*
X119619047Y-93464285D01*
X119571428Y-93488095D01*
X119380952Y-93488095D01*
X120142857Y-93726190D02*
X119857142Y-93726190D01*
X120000000Y-93726190D02*
X120000000Y-93226190D01*
X119952380Y-93297619D01*
X119904761Y-93345238D01*
X119857142Y-93369047D01*
G04 #@! TO.C,Q1*
X141202380Y-90773809D02*
X141154761Y-90750000D01*
X141107142Y-90702380D01*
X141035714Y-90630952D01*
X140988095Y-90607142D01*
X140940476Y-90607142D01*
X140964285Y-90726190D02*
X140916666Y-90702380D01*
X140869047Y-90654761D01*
X140845238Y-90559523D01*
X140845238Y-90392857D01*
X140869047Y-90297619D01*
X140916666Y-90250000D01*
X140964285Y-90226190D01*
X141059523Y-90226190D01*
X141107142Y-90250000D01*
X141154761Y-90297619D01*
X141178571Y-90392857D01*
X141178571Y-90559523D01*
X141154761Y-90654761D01*
X141107142Y-90702380D01*
X141059523Y-90726190D01*
X140964285Y-90726190D01*
X141654761Y-90726190D02*
X141369047Y-90726190D01*
X141511904Y-90726190D02*
X141511904Y-90226190D01*
X141464285Y-90297619D01*
X141416666Y-90345238D01*
X141369047Y-90369047D01*
G04 #@! TO.C,R4*
X144166666Y-105726190D02*
X144000000Y-105488095D01*
X143880952Y-105726190D02*
X143880952Y-105226190D01*
X144071428Y-105226190D01*
X144119047Y-105250000D01*
X144142857Y-105273809D01*
X144166666Y-105321428D01*
X144166666Y-105392857D01*
X144142857Y-105440476D01*
X144119047Y-105464285D01*
X144071428Y-105488095D01*
X143880952Y-105488095D01*
X144595238Y-105392857D02*
X144595238Y-105726190D01*
X144476190Y-105202380D02*
X144357142Y-105559523D01*
X144666666Y-105559523D01*
G04 #@! TO.C,Q3*
X125452380Y-106773809D02*
X125404761Y-106750000D01*
X125357142Y-106702380D01*
X125285714Y-106630952D01*
X125238095Y-106607142D01*
X125190476Y-106607142D01*
X125214285Y-106726190D02*
X125166666Y-106702380D01*
X125119047Y-106654761D01*
X125095238Y-106559523D01*
X125095238Y-106392857D01*
X125119047Y-106297619D01*
X125166666Y-106250000D01*
X125214285Y-106226190D01*
X125309523Y-106226190D01*
X125357142Y-106250000D01*
X125404761Y-106297619D01*
X125428571Y-106392857D01*
X125428571Y-106559523D01*
X125404761Y-106654761D01*
X125357142Y-106702380D01*
X125309523Y-106726190D01*
X125214285Y-106726190D01*
X125595238Y-106226190D02*
X125904761Y-106226190D01*
X125738095Y-106416666D01*
X125809523Y-106416666D01*
X125857142Y-106440476D01*
X125880952Y-106464285D01*
X125904761Y-106511904D01*
X125904761Y-106630952D01*
X125880952Y-106678571D01*
X125857142Y-106702380D01*
X125809523Y-106726190D01*
X125666666Y-106726190D01*
X125619047Y-106702380D01*
X125595238Y-106678571D01*
G04 #@! TO.C,Q4*
X140702380Y-109023809D02*
X140654761Y-109000000D01*
X140607142Y-108952380D01*
X140535714Y-108880952D01*
X140488095Y-108857142D01*
X140440476Y-108857142D01*
X140464285Y-108976190D02*
X140416666Y-108952380D01*
X140369047Y-108904761D01*
X140345238Y-108809523D01*
X140345238Y-108642857D01*
X140369047Y-108547619D01*
X140416666Y-108500000D01*
X140464285Y-108476190D01*
X140559523Y-108476190D01*
X140607142Y-108500000D01*
X140654761Y-108547619D01*
X140678571Y-108642857D01*
X140678571Y-108809523D01*
X140654761Y-108904761D01*
X140607142Y-108952380D01*
X140559523Y-108976190D01*
X140464285Y-108976190D01*
X141107142Y-108642857D02*
X141107142Y-108976190D01*
X140988095Y-108452380D02*
X140869047Y-108809523D01*
X141178571Y-108809523D01*
G04 #@! TO.C,U1*
X123119047Y-97226190D02*
X123119047Y-97630952D01*
X123142857Y-97678571D01*
X123166666Y-97702380D01*
X123214285Y-97726190D01*
X123309523Y-97726190D01*
X123357142Y-97702380D01*
X123380952Y-97678571D01*
X123404761Y-97630952D01*
X123404761Y-97226190D01*
X123904761Y-97726190D02*
X123619047Y-97726190D01*
X123761904Y-97726190D02*
X123761904Y-97226190D01*
X123714285Y-97297619D01*
X123666666Y-97345238D01*
X123619047Y-97369047D01*
G04 #@! TO.C,U2*
X132619047Y-96226190D02*
X132619047Y-96630952D01*
X132642857Y-96678571D01*
X132666666Y-96702380D01*
X132714285Y-96726190D01*
X132809523Y-96726190D01*
X132857142Y-96702380D01*
X132880952Y-96678571D01*
X132904761Y-96630952D01*
X132904761Y-96226190D01*
X133119047Y-96273809D02*
X133142857Y-96250000D01*
X133190476Y-96226190D01*
X133309523Y-96226190D01*
X133357142Y-96250000D01*
X133380952Y-96273809D01*
X133404761Y-96321428D01*
X133404761Y-96369047D01*
X133380952Y-96440476D01*
X133095238Y-96726190D01*
X133404761Y-96726190D01*
G04 #@! TO.C,C1*
X119666666Y-94928571D02*
X119642857Y-94952380D01*
X119571428Y-94976190D01*
X119523809Y-94976190D01*
X119452380Y-94952380D01*
X119404761Y-94904761D01*
X119380952Y-94857142D01*
X119357142Y-94761904D01*
X119357142Y-94690476D01*
X119380952Y-94595238D01*
X119404761Y-94547619D01*
X119452380Y-94500000D01*
X119523809Y-94476190D01*
X119571428Y-94476190D01*
X119642857Y-94500000D01*
X119666666Y-94523809D01*
X120142857Y-94976190D02*
X119857142Y-94976190D01*
X120000000Y-94976190D02*
X120000000Y-94476190D01*
X119952380Y-94547619D01*
X119904761Y-94595238D01*
X119857142Y-94619047D01*
D13*
G04 #@! TO.C,C2*
X126357836Y-95640000D02*
X126142164Y-95640000D01*
X126357836Y-96360000D02*
X126142164Y-96360000D01*
G04 #@! TO.C,C7*
X119890000Y-100662164D02*
X119890000Y-100877836D01*
X120610000Y-100662164D02*
X120610000Y-100877836D01*
G04 #@! TO.C,U3*
X143900000Y-102300000D02*
X146600000Y-102300000D01*
X146050000Y-96950000D02*
X146850000Y-96950000D01*
X146850000Y-96950000D02*
X146850000Y-97750000D01*
X143900000Y-97200000D02*
X143900000Y-102300000D01*
X146600000Y-97200000D02*
X143900000Y-97200000D01*
X146600000Y-102300000D02*
X146600000Y-97200000D01*
G04 #@! TO.C,J2*
X129200000Y-107580000D02*
X127870000Y-107580000D01*
X130470000Y-107580000D02*
X138150000Y-107580000D01*
X138150000Y-107580000D02*
X138150000Y-104920000D01*
X130470000Y-104920000D02*
X138150000Y-104920000D01*
X130470000Y-107580000D02*
X130470000Y-104920000D01*
X127870000Y-107580000D02*
X127870000Y-106250000D01*
G04 #@! TO.C,R2*
X142686359Y-101096359D02*
X142686359Y-101403641D01*
X141926359Y-101096359D02*
X141926359Y-101403641D01*
G04 #@! TO.C,Y1*
X124700000Y-96850000D02*
X124700000Y-100850000D01*
X128000000Y-96850000D02*
X124700000Y-96850000D01*
G04 #@! TO.C,C4*
X146860000Y-96107836D02*
X146860000Y-95892164D01*
X146140000Y-96107836D02*
X146140000Y-95892164D01*
G04 #@! TO.C,C5*
X144360000Y-96107836D02*
X144360000Y-95892164D01*
X143640000Y-96107836D02*
X143640000Y-95892164D01*
G04 #@! TO.C,C11*
X138607836Y-100860000D02*
X138392164Y-100860000D01*
X138607836Y-100140000D02*
X138392164Y-100140000D01*
G04 #@! TO.C,C9*
X126357836Y-101140000D02*
X126142164Y-101140000D01*
X126357836Y-101860000D02*
X126142164Y-101860000D01*
G04 #@! TO.C,R3*
X140870000Y-101403641D02*
X140870000Y-101096359D01*
X141630000Y-101403641D02*
X141630000Y-101096359D01*
G04 #@! TO.C,C10*
X139115580Y-101490000D02*
X138834420Y-101490000D01*
X139115580Y-102510000D02*
X138834420Y-102510000D01*
G04 #@! TO.C,C3*
X129642164Y-95890000D02*
X129857836Y-95890000D01*
X129642164Y-96610000D02*
X129857836Y-96610000D01*
G04 #@! TO.C,D1*
X123250000Y-94600000D02*
X125800000Y-94600000D01*
X123250000Y-92900000D02*
X123250000Y-94600000D01*
X123250000Y-92900000D02*
X125800000Y-92900000D01*
G04 #@! TO.C,C8*
X122760000Y-101109420D02*
X122760000Y-101390580D01*
X121740000Y-101109420D02*
X121740000Y-101390580D01*
G04 #@! TO.C,Q2*
X141250000Y-97810000D02*
X142925000Y-97810000D01*
X141250000Y-94690000D02*
X140600000Y-94690000D01*
X141250000Y-97810000D02*
X140600000Y-97810000D01*
X141250000Y-94690000D02*
X141900000Y-94690000D01*
G04 #@! TO.C,C6*
X144740000Y-94640580D02*
X144740000Y-94359420D01*
X145760000Y-94640580D02*
X145760000Y-94359420D01*
G04 #@! TO.C,R1*
X121403641Y-93140000D02*
X121096359Y-93140000D01*
X121403641Y-93900000D02*
X121096359Y-93900000D01*
G04 #@! TO.C,Q1*
X141250000Y-90940000D02*
X141900000Y-90940000D01*
X141250000Y-90940000D02*
X140600000Y-90940000D01*
X141250000Y-94060000D02*
X140600000Y-94060000D01*
X141250000Y-94060000D02*
X142925000Y-94060000D01*
G04 #@! TO.C,R4*
X143910000Y-104403641D02*
X143910000Y-104096359D01*
X144670000Y-104403641D02*
X144670000Y-104096359D01*
G04 #@! TO.C,Q3*
X123940000Y-104000000D02*
X123940000Y-104650000D01*
X127060000Y-104000000D02*
X127060000Y-102325000D01*
X127060000Y-104000000D02*
X127060000Y-104650000D01*
X123940000Y-104000000D02*
X123940000Y-103350000D01*
G04 #@! TO.C,Q4*
X142310000Y-106500000D02*
X142310000Y-104825000D01*
X139190000Y-106500000D02*
X139190000Y-105850000D01*
X142310000Y-106500000D02*
X142310000Y-107150000D01*
X139190000Y-106500000D02*
X139190000Y-107150000D01*
G04 #@! TO.C,U1*
X122810000Y-97500000D02*
X122810000Y-95700000D01*
X122810000Y-97500000D02*
X122810000Y-98300000D01*
X119690000Y-97500000D02*
X119690000Y-96700000D01*
X119690000Y-97500000D02*
X119690000Y-98300000D01*
G04 #@! TO.C,U2*
X133000000Y-102360000D02*
X135200000Y-102360000D01*
X133000000Y-97140000D02*
X129400000Y-97140000D01*
X133000000Y-97140000D02*
X135200000Y-97140000D01*
X133000000Y-102360000D02*
X130800000Y-102360000D01*
G04 #@! TO.C,C1*
X121357836Y-95110000D02*
X121142164Y-95110000D01*
X121357836Y-94390000D02*
X121142164Y-94390000D01*
G04 #@! TD*
M02*
