<?xml version="1.0" encoding="UTF-8"?>
<svg xmlns="http://www.w3.org/2000/svg" xmlns:xlink="http://www.w3.org/1999/xlink" width="32" height="32" viewBox="0 0 44 60" version="1.1"><!-- Generator: Sketch 51.3 (57544) - http://www.bohemiancoding.com/sketch --><title>047 - SVG File</title><desc>Created with Sketch.</desc><defs/><g id="Page-1" stroke="none" stroke-width="1" fill="none" fill-rule="evenodd"><g id="047---SVG-File" fill-rule="nonzero"><path d="M43,14 L43,40 L1,40 L1,4 C1,2.34314575 2.34314575,1 4,1 L29,1 L43,14 Z" id="Shape" fill="#CAD9FC"/><path d="M7,1 C5.34314575,1 4,2.34314575 4,4 L4,40 L1,40 L1,4 C1,2.34314575 2.34314575,1 4,1 L7,1 Z" id="Shape" fill="#FFFFFF"/><path d="M40,14 L40,40 L4,40 L4,4 C4,2.34314575 5.34314575,1 7,1 L26,1 L40,14 Z" id="Shape" fill="#E8EDFC"/><path d="M43,39 L43,56 C43,57.6568542 41.6568542,59 40,59 L4,59 C2.34314575,59 1,57.6568542 1,56 L1,39 L43,39 Z" id="Shape" fill="#7FACFA"/><path d="M40,39 L40,56 C40,57.6568542 38.6568542,59 37,59 L4,59 C2.34314575,59 1,57.6568542 1,56 L1,39 L40,39 Z" id="Shape" fill="#CAD9FC"/><path d="M44,13 L31,13 C30.4477153,13 30,12.5522847 30,12 L30,0 L44,13 Z" id="Shape" fill="#CAD9FC"/><path d="M39.85,13 L31,13 C30.4477153,13 30,12.5522847 30,12 L30,3.86 L39.85,13 Z" id="Shape" fill="#E8EDFC"/><rect id="Rectangle-path" fill="#CAD9FC" x="10" y="12" width="4" height="4" rx="1"/><rect id="Rectangle-path" fill="#CAD9FC" x="30" y="12" width="4" height="4" rx="1"/><rect id="Rectangle-path" fill="#CAD9FC" x="30" y="31" width="4" height="4" rx="1"/><rect id="Rectangle-path" fill="#CAD9FC" x="10" y="31" width="4" height="4" rx="1"/><path d="M3.625,56.042 L3.625,39.042 L0.625,39.042 L0.625,56.042 C0.625,57.6988542 1.96814575,59.042 3.625,59.042 L6.625,59.042 C4.96814575,59.042 3.625,57.6988542 3.625,56.042 Z" id="Shape" fill="#FFFFFF"/><path d="M43,40 L1,40 C0.44771525,40 0,39.5522847 0,39 C0,38.4477153 0.44771525,38 1,38 L43,38 C43.5522847,38 44,38.4477153 44,39 C44,39.5522847 43.5522847,40 43,40 Z" id="Shape" fill="#428DFF"/><polygon id="Shape" fill="#FFFFFF" points="2 4 2 17 2 56 0 56 0 17 0 4"/><path d="M1,9 C1.55228475,9 2,8.55228475 2,8 L2,4 L0,4 L0,8 C0,8.55228475 0.44771525,9 1,9 Z" id="Shape" fill="#428DFF"/><path d="M0,56 L2,56 L2,16 C2,15.4477153 1.55228475,15 1,15 C0.44771525,15 0,15.4477153 0,16 L0,56 Z" id="Shape" fill="#428DFF"/><path d="M2,12 C1.99611961,11.7352731 1.89256504,11.481743 1.71,11.29 L1.56,11.17 C1.50427287,11.1321227 1.44373808,11.1018554 1.38,11.08 C1.32333758,11.0511123 1.26266255,11.0308873 1.2,11.02 C1.13385548,11.0088692 1.06703885,11.0021875 1,11 C0.735273141,11.0038804 0.481742984,11.107435 0.29,11.29 C0.199603156,11.3856071 0.12832305,11.4976187 0.08,11.62 C-0.0708765757,11.9929737 0.0113519394,12.4197788 0.29,12.71 C0.385607086,12.8003968 0.497618681,12.871677 0.62,12.92 C0.740222313,12.971241 0.869322743,12.99842 1,13 C1.26603534,13.0027011 1.52196165,12.8982118 1.71008674,12.7100867 C1.89821183,12.5219616 2.00270108,12.2660353 2,12 Z" id="Shape" fill="#428DFF"/><path d="M1,5 C0.44771525,5 0,4.55228475 0,4 C0,1.790861 1.790861,4.05812251e-16 4,0 L31,0 C31.5522847,3.38176876e-17 32,0.44771525 32,1 C32,1.55228475 31.5522847,2 31,2 L4,2 C2.8954305,2 2,2.8954305 2,4 C2,4.26521649 1.89464316,4.5195704 1.70710678,4.70710678 C1.5195704,4.89464316 1.26521649,5 1,5 Z" id="Shape" fill="#428DFF"/><path d="M40,60 L4,60 C1.790861,60 0,58.209139 0,56 C0,55.4477153 0.44771525,55 1,55 C1.55228475,55 2,55.4477153 2,56 C2,57.1045695 2.8954305,58 4,58 L40,58 C41.1045695,58 42,57.1045695 42,56 L42,12 C42,11.4477153 42.4477153,11 43,11 C43.5522847,11 44,11.4477153 44,12 L44,56 C44,58.209139 42.209139,60 40,60 Z" id="Shape" fill="#428DFF"/><path d="M43,13 L31,13 C30.4477153,13 30,12.5522847 30,12 L30,1 C29.999961,0.603347399 30.2343655,0.24416547 30.5974627,0.0844980168 C30.96056,-0.0751694364 31.3837061,-0.00513716145 31.676,0.263 L43.676,11.263 C43.9799104,11.5417122 44.0815763,11.9783938 43.9320213,12.3626793 C43.7824663,12.7469647 43.4123615,13.0000442 43,13 Z M32,11 L40.43,11 L32,3.273 L32,11 Z" id="Shape" fill="#428DFF"/><path d="M43,40 L1,40 C0.44771525,40 0,39.5522847 0,39 C0,38.4477153 0.44771525,38 1,38 L43,38 C43.5522847,38 44,38.4477153 44,39 C44,39.5522847 43.5522847,40 43,40 Z" id="Shape" fill="#428DFF"/><path d="M9,7 L6,7 C5.44771525,7 5,6.55228475 5,6 C5,5.44771525 5.44771525,5 6,5 L9,5 C9.55228475,5 10,5.44771525 10,6 C10,6.55228475 9.55228475,7 9,7 Z" id="Shape" fill="#428DFF"/><path d="M19,7 L13,7 C12.4477153,7 12,6.55228475 12,6 C12,5.44771525 12.4477153,5 13,5 L19,5 C19.5522847,5 20,5.44771525 20,6 C20,6.55228475 19.5522847,7 19,7 Z" id="Shape" fill="#428DFF"/><path d="M10,56 L9,56 C6.790861,56 5,54.209139 5,52 C5,51.4477153 5.44771525,51 6,51 C6.55228475,51 7,51.4477153 7,52 C7,53.1045695 7.8954305,54 9,54 L10,54 C11.1045695,54 12,53.1045695 12,52 C12,50.8954305 11.1045695,50 10,50 L9,50 C6.790861,50 5,48.209139 5,46 C5,43.790861 6.790861,42 9,42 L10,42 C12.209139,42 14,43.790861 14,46 C14,46.5522847 13.5522847,47 13,47 C12.4477153,47 12,46.5522847 12,46 C12,44.8954305 11.1045695,44 10,44 L9,44 C7.8954305,44 7,44.8954305 7,46 C7,47.1045695 7.8954305,48 9,48 L10,48 C12.209139,48 14,49.790861 14,52 C14,54.209139 12.209139,56 10,56 Z" id="Shape" fill="#428DFF"/><path d="M30,34 L14,34 C13.4477153,34 13,33.5522847 13,33 C13,32.4477153 13.4477153,32 14,32 L30,32 C30.5522847,32 31,32.4477153 31,33 C31,33.5522847 30.5522847,34 30,34 Z" id="Shape" fill="#428DFF"/><path d="M30,16 L14,16 C13.4477153,16 13,15.5522847 13,15 C13,14.4477153 13.4477153,14 14,14 L30,14 C30.5522847,14 31,14.4477153 31,15 C31,15.5522847 30.5522847,16 30,16 Z" id="Shape" fill="#428DFF"/><path d="M12,32 C11.4477153,32 11,31.5522847 11,31 L11,16 C11,15.4477153 11.4477153,15 12,15 C12.5522847,15 13,15.4477153 13,16 L13,31 C13,31.5522847 12.5522847,32 12,32 Z" id="Shape" fill="#428DFF"/><path d="M32,32 C31.4477153,32 31,31.5522847 31,31 L31,16 C31,15.4477153 31.4477153,15 32,15 C32.5522847,15 33,15.4477153 33,16 L33,31 C33,31.5522847 32.5522847,32 32,32 Z" id="Shape" fill="#428DFF"/><path d="M14,17 L10,17 C9.44771525,17 9,16.5522847 9,16 L9,12 C9,11.4477153 9.44771525,11 10,11 L14,11 C14.5522847,11 15,11.4477153 15,12 L15,16 C15,16.5522847 14.5522847,17 14,17 Z M11,15 L13,15 L13,13 L11,13 L11,15 Z" id="Shape" fill="#428DFF"/><path d="M34,17 L30,17 C29.4477153,17 29,16.5522847 29,16 L29,12 C29,11.4477153 29.4477153,11 30,11 L34,11 C34.5522847,11 35,11.4477153 35,12 L35,16 C35,16.5522847 34.5522847,17 34,17 Z M31,15 L33,15 L33,13 L31,13 L31,15 Z" id="Shape" fill="#428DFF"/><path d="M34,36 L30,36 C29.4477153,36 29,35.5522847 29,35 L29,31 C29,30.4477153 29.4477153,30 30,30 L34,30 C34.5522847,30 35,30.4477153 35,31 L35,35 C35,35.5522847 34.5522847,36 34,36 Z M31,34 L33,34 L33,32 L31,32 L31,34 Z" id="Shape" fill="#428DFF"/><path d="M14,36 L10,36 C9.44771525,36 9,35.5522847 9,35 L9,31 C9,30.4477153 9.44771525,30 10,30 L14,30 C14.5522847,30 15,30.4477153 15,31 L15,35 C15,35.5522847 14.5522847,36 14,36 Z M11,34 L13,34 L13,32 L11,32 L11,34 Z" id="Shape" fill="#428DFF"/><path d="M22,28 C19.790861,28 18,26.209139 18,24 C18,21.790861 19.790861,20 22,20 C24.209139,20 26,21.790861 26,24 C26,26.209139 24.209139,28 22,28 Z M22,22 C20.8954305,22 20,22.8954305 20,24 C20,25.1045695 20.8954305,26 22,26 C23.1045695,26 24,25.1045695 24,24 C24,22.8954305 23.1045695,22 22,22 Z" id="Shape" fill="#428DFF"/><path d="M22,30 C21.4477153,30 21,29.5522847 21,29 L21,27 C21,26.4477153 21.4477153,26 22,26 C22.5522847,26 23,26.4477153 23,27 L23,29 C23,29.5522847 22.5522847,30 22,30 Z" id="Shape" fill="#428DFF"/><path d="M22,22 C21.4477153,22 21,21.5522847 21,21 L21,19 C21,18.4477153 21.4477153,18 22,18 C22.5522847,18 23,18.4477153 23,19 L23,21 C23,21.5522847 22.5522847,22 22,22 Z" id="Shape" fill="#428DFF"/><path d="M27,25 L25,25 C24.4477153,25 24,24.5522847 24,24 C24,23.4477153 24.4477153,23 25,23 L27,23 C27.5522847,23 28,23.4477153 28,24 C28,24.5522847 27.5522847,25 27,25 Z" id="Shape" fill="#428DFF"/><path d="M19,25 L17,25 C16.4477153,25 16,24.5522847 16,24 C16,23.4477153 16.4477153,23 17,23 L19,23 C19.5522847,23 20,23.4477153 20,24 C20,24.5522847 19.5522847,25 19,25 Z" id="Shape" fill="#428DFF"/><path d="M21,56 C20.5697607,55.9996733 20.1879555,55.7241936 20.052,55.316 L16.052,43.316 C15.877478,42.7913295 16.1613295,42.224522 16.686,42.05 C17.2106705,41.8754781 17.777478,42.1593295 17.952,42.684 L21,51.838 L24.052,42.684 C24.1648959,42.3445977 24.450285,42.0912063 24.800664,42.0192758 C25.151043,41.9473454 25.513181,42.0678039 25.750664,42.3352758 C25.9881471,42.6027477 26.0648959,42.9765977 25.952,43.316 L21.952,55.316 C21.8155808,55.7255928 21.4317111,56.0013983 21,56 Z" id="Shape" fill="#428DFF"/><path d="M33,56 L32,56 C29.2399468,55.9966939 27.0033061,53.7600532 27,51 L27,47 C27,44.2385763 29.2385763,42 32,42 C34.7614237,42 37,44.2385763 37,47 C37,47.5522847 36.5522847,48 36,48 C35.4477153,48 35,47.5522847 35,47 C35,45.3431458 33.6568542,44 32,44 C30.3431458,44 29,45.3431458 29,47 L29,51 C29,52.6568542 30.3431458,54 32,54 L33,54 C34.1045695,54 35,53.1045695 35,52 L35,51 C35,50.4477153 35.4477153,50 36,50 C36.5522847,50 37,50.4477153 37,51 L37,52 C37,54.209139 35.209139,56 33,56 Z" id="Shape" fill="#428DFF"/><path d="M38,52 L34,52 C33.4477153,52 33,51.5522847 33,51 C33,50.4477153 33.4477153,50 34,50 L38,50 C38.5522847,50 39,50.4477153 39,51 C39,51.5522847 38.5522847,52 38,52 Z" id="Shape" fill="#428DFF"/></g></g></svg>
