G04 Layer: BottomLayer*
G04 EasyEDA v6.5.42, 2024-05-08 18:12:25*
G04 be8ffc033df6498d868a6c16453b8217,f8c0e07f684e49ff84154c9ab2af1557,10*
G04 Gerber Generator version 0.2*
G04 Scale: 100 percent, Rotated: No, Reflected: No *
G04 Dimensions in millimeters *
G04 leading zeros omitted , absolute positions ,4 integer and 5 decimal *
%FSLAX45Y45*%
%MOMM*%

%ADD10C,0.8000*%
%ADD11C,1.6000*%
%ADD12C,3.4000*%
%ADD13C,2.6000*%
%ADD14C,1.5240*%
%ADD15R,1.5240X1.5240*%
%ADD16C,0.6200*%

%LPD*%
D10*
X6261100Y-2229002D02*
G01*
X6261100Y-2362200D01*
X6184900Y-2438400D01*
X6184900Y-2788412D01*
X6261100Y-2864612D01*
X4083199Y-2870200D02*
G01*
X4094993Y-2881993D01*
X4094993Y-3242703D01*
X5422900Y-2870200D02*
G01*
X5549900Y-2997200D01*
X6426200Y-2997200D01*
X6426200Y-2619159D01*
X6308940Y-2501900D01*
X6261100Y-2088997D02*
G01*
X6388100Y-2088997D01*
X6388100Y-2489200D01*
X6321640Y-2489200D01*
X6308940Y-2501900D01*
X2266188Y-3242716D02*
G01*
X2384501Y-3242716D01*
X2384501Y-3035300D01*
X4089400Y-3035300D01*
X4094993Y-3040893D01*
X4094993Y-3242703D01*
X6769100Y-2743200D02*
G01*
X6769100Y-2440000D01*
X6743700Y-2414600D01*
X4083199Y-2870200D02*
G01*
X5422900Y-2870200D01*
D11*
G01*
X6973900Y-2164613D03*
G01*
X6973900Y-2414600D03*
G01*
X6973900Y-2614599D03*
G01*
X6973900Y-2864612D03*
D12*
G01*
X7173899Y-1914601D03*
G01*
X7173899Y-3114598D03*
D13*
G01*
X3745001Y-3513696D03*
G01*
X5144998Y-3513696D03*
D14*
G01*
X4794986Y-3242703D03*
G01*
X4544999Y-3242703D03*
G01*
X4345000Y-3242703D03*
D15*
G01*
X4094988Y-3242703D03*
D13*
G01*
X1916201Y-3513696D03*
G01*
X3316198Y-3513696D03*
D14*
G01*
X2966186Y-3242703D03*
G01*
X2716199Y-3242703D03*
G01*
X2516200Y-3242703D03*
D15*
G01*
X2266188Y-3242703D03*
D16*
G01*
X6261100Y-2864612D03*
G01*
X6261100Y-2088997D03*
G01*
X6261100Y-2229002D03*
G01*
X6743700Y-2414600D03*
G01*
X6769100Y-2743200D03*
G01*
X5422900Y-2870200D03*
G01*
X4083199Y-2870200D03*
G01*
X6308940Y-2501900D03*
G01*
X2266193Y-3242703D03*
G01*
X4094993Y-3242703D03*
G01*
X6261100Y-2088997D03*
G01*
X2266193Y-3242703D03*
M02*
