%TF.GenerationSoftware,KiCad,Pcbnew,7.0.10*%
%TF.CreationDate,2024-08-15T14:01:47-03:00*%
%TF.ProjectId,CORAZON LEDS CON FADE,434f5241-5a4f-44e2-904c-45445320434f,rev?*%
%TF.SameCoordinates,Original*%
%TF.FileFunction,Legend,Top*%
%TF.FilePolarity,Positive*%
%FSLAX46Y46*%
G04 Gerber Fmt 4.6, Leading zero omitted, Abs format (unit mm)*
G04 Created by KiCad (PCBNEW 7.0.10) date 2024-08-15 14:01:47*
%MOMM*%
%LPD*%
G01*
G04 APERTURE LIST*
%ADD10C,0.250000*%
%ADD11C,0.125000*%
%ADD12C,0.200000*%
%ADD13C,0.150000*%
%ADD14C,0.120000*%
G04 APERTURE END LIST*
D10*
X137088238Y-60033622D02*
X137040619Y-60128860D01*
X137040619Y-60128860D02*
X137040619Y-60271717D01*
X137040619Y-60271717D02*
X137088238Y-60414574D01*
X137088238Y-60414574D02*
X137183476Y-60509812D01*
X137183476Y-60509812D02*
X137278714Y-60557431D01*
X137278714Y-60557431D02*
X137469190Y-60605050D01*
X137469190Y-60605050D02*
X137612047Y-60605050D01*
X137612047Y-60605050D02*
X137802523Y-60557431D01*
X137802523Y-60557431D02*
X137897761Y-60509812D01*
X137897761Y-60509812D02*
X137993000Y-60414574D01*
X137993000Y-60414574D02*
X138040619Y-60271717D01*
X138040619Y-60271717D02*
X138040619Y-60176479D01*
X138040619Y-60176479D02*
X137993000Y-60033622D01*
X137993000Y-60033622D02*
X137945380Y-59986003D01*
X137945380Y-59986003D02*
X137612047Y-59986003D01*
X137612047Y-59986003D02*
X137612047Y-60176479D01*
D11*
X129651595Y-65881573D02*
X130451595Y-65614906D01*
X130451595Y-65614906D02*
X129651595Y-65348240D01*
X130451595Y-65081573D02*
X129651595Y-65081573D01*
D12*
X132402054Y-72227695D02*
X132402054Y-71427695D01*
X132402054Y-71427695D02*
X132706816Y-71427695D01*
X132706816Y-71427695D02*
X132783006Y-71465790D01*
X132783006Y-71465790D02*
X132821101Y-71503885D01*
X132821101Y-71503885D02*
X132859197Y-71580076D01*
X132859197Y-71580076D02*
X132859197Y-71694361D01*
X132859197Y-71694361D02*
X132821101Y-71770552D01*
X132821101Y-71770552D02*
X132783006Y-71808647D01*
X132783006Y-71808647D02*
X132706816Y-71846742D01*
X132706816Y-71846742D02*
X132402054Y-71846742D01*
X133659197Y-72151504D02*
X133621101Y-72189600D01*
X133621101Y-72189600D02*
X133506816Y-72227695D01*
X133506816Y-72227695D02*
X133430625Y-72227695D01*
X133430625Y-72227695D02*
X133316339Y-72189600D01*
X133316339Y-72189600D02*
X133240149Y-72113409D01*
X133240149Y-72113409D02*
X133202054Y-72037219D01*
X133202054Y-72037219D02*
X133163958Y-71884838D01*
X133163958Y-71884838D02*
X133163958Y-71770552D01*
X133163958Y-71770552D02*
X133202054Y-71618171D01*
X133202054Y-71618171D02*
X133240149Y-71541980D01*
X133240149Y-71541980D02*
X133316339Y-71465790D01*
X133316339Y-71465790D02*
X133430625Y-71427695D01*
X133430625Y-71427695D02*
X133506816Y-71427695D01*
X133506816Y-71427695D02*
X133621101Y-71465790D01*
X133621101Y-71465790D02*
X133659197Y-71503885D01*
X134268720Y-71808647D02*
X134383006Y-71846742D01*
X134383006Y-71846742D02*
X134421101Y-71884838D01*
X134421101Y-71884838D02*
X134459197Y-71961028D01*
X134459197Y-71961028D02*
X134459197Y-72075314D01*
X134459197Y-72075314D02*
X134421101Y-72151504D01*
X134421101Y-72151504D02*
X134383006Y-72189600D01*
X134383006Y-72189600D02*
X134306816Y-72227695D01*
X134306816Y-72227695D02*
X134002054Y-72227695D01*
X134002054Y-72227695D02*
X134002054Y-71427695D01*
X134002054Y-71427695D02*
X134268720Y-71427695D01*
X134268720Y-71427695D02*
X134344911Y-71465790D01*
X134344911Y-71465790D02*
X134383006Y-71503885D01*
X134383006Y-71503885D02*
X134421101Y-71580076D01*
X134421101Y-71580076D02*
X134421101Y-71656266D01*
X134421101Y-71656266D02*
X134383006Y-71732457D01*
X134383006Y-71732457D02*
X134344911Y-71770552D01*
X134344911Y-71770552D02*
X134268720Y-71808647D01*
X134268720Y-71808647D02*
X134002054Y-71808647D01*
X135411578Y-72227695D02*
X135411578Y-71427695D01*
X135754435Y-72227695D02*
X135754435Y-71808647D01*
X135754435Y-71808647D02*
X135716340Y-71732457D01*
X135716340Y-71732457D02*
X135640149Y-71694361D01*
X135640149Y-71694361D02*
X135525863Y-71694361D01*
X135525863Y-71694361D02*
X135449673Y-71732457D01*
X135449673Y-71732457D02*
X135411578Y-71770552D01*
X136440150Y-72189600D02*
X136363959Y-72227695D01*
X136363959Y-72227695D02*
X136211578Y-72227695D01*
X136211578Y-72227695D02*
X136135388Y-72189600D01*
X136135388Y-72189600D02*
X136097292Y-72113409D01*
X136097292Y-72113409D02*
X136097292Y-71808647D01*
X136097292Y-71808647D02*
X136135388Y-71732457D01*
X136135388Y-71732457D02*
X136211578Y-71694361D01*
X136211578Y-71694361D02*
X136363959Y-71694361D01*
X136363959Y-71694361D02*
X136440150Y-71732457D01*
X136440150Y-71732457D02*
X136478245Y-71808647D01*
X136478245Y-71808647D02*
X136478245Y-71884838D01*
X136478245Y-71884838D02*
X136097292Y-71961028D01*
X137163959Y-72189600D02*
X137087768Y-72227695D01*
X137087768Y-72227695D02*
X136935387Y-72227695D01*
X136935387Y-72227695D02*
X136859197Y-72189600D01*
X136859197Y-72189600D02*
X136821102Y-72151504D01*
X136821102Y-72151504D02*
X136783006Y-72075314D01*
X136783006Y-72075314D02*
X136783006Y-71846742D01*
X136783006Y-71846742D02*
X136821102Y-71770552D01*
X136821102Y-71770552D02*
X136859197Y-71732457D01*
X136859197Y-71732457D02*
X136935387Y-71694361D01*
X136935387Y-71694361D02*
X137087768Y-71694361D01*
X137087768Y-71694361D02*
X137163959Y-71732457D01*
X137506816Y-72227695D02*
X137506816Y-71427695D01*
X137849673Y-72227695D02*
X137849673Y-71808647D01*
X137849673Y-71808647D02*
X137811578Y-71732457D01*
X137811578Y-71732457D02*
X137735387Y-71694361D01*
X137735387Y-71694361D02*
X137621101Y-71694361D01*
X137621101Y-71694361D02*
X137544911Y-71732457D01*
X137544911Y-71732457D02*
X137506816Y-71770552D01*
X138573483Y-72227695D02*
X138573483Y-71808647D01*
X138573483Y-71808647D02*
X138535388Y-71732457D01*
X138535388Y-71732457D02*
X138459197Y-71694361D01*
X138459197Y-71694361D02*
X138306816Y-71694361D01*
X138306816Y-71694361D02*
X138230626Y-71732457D01*
X138573483Y-72189600D02*
X138497292Y-72227695D01*
X138497292Y-72227695D02*
X138306816Y-72227695D01*
X138306816Y-72227695D02*
X138230626Y-72189600D01*
X138230626Y-72189600D02*
X138192530Y-72113409D01*
X138192530Y-72113409D02*
X138192530Y-72037219D01*
X138192530Y-72037219D02*
X138230626Y-71961028D01*
X138230626Y-71961028D02*
X138306816Y-71922933D01*
X138306816Y-71922933D02*
X138497292Y-71922933D01*
X138497292Y-71922933D02*
X138573483Y-71884838D01*
X139563960Y-71694361D02*
X139563960Y-72494361D01*
X139563960Y-71732457D02*
X139640150Y-71694361D01*
X139640150Y-71694361D02*
X139792531Y-71694361D01*
X139792531Y-71694361D02*
X139868722Y-71732457D01*
X139868722Y-71732457D02*
X139906817Y-71770552D01*
X139906817Y-71770552D02*
X139944912Y-71846742D01*
X139944912Y-71846742D02*
X139944912Y-72075314D01*
X139944912Y-72075314D02*
X139906817Y-72151504D01*
X139906817Y-72151504D02*
X139868722Y-72189600D01*
X139868722Y-72189600D02*
X139792531Y-72227695D01*
X139792531Y-72227695D02*
X139640150Y-72227695D01*
X139640150Y-72227695D02*
X139563960Y-72189600D01*
X140402055Y-72227695D02*
X140325865Y-72189600D01*
X140325865Y-72189600D02*
X140287770Y-72151504D01*
X140287770Y-72151504D02*
X140249674Y-72075314D01*
X140249674Y-72075314D02*
X140249674Y-71846742D01*
X140249674Y-71846742D02*
X140287770Y-71770552D01*
X140287770Y-71770552D02*
X140325865Y-71732457D01*
X140325865Y-71732457D02*
X140402055Y-71694361D01*
X140402055Y-71694361D02*
X140516341Y-71694361D01*
X140516341Y-71694361D02*
X140592532Y-71732457D01*
X140592532Y-71732457D02*
X140630627Y-71770552D01*
X140630627Y-71770552D02*
X140668722Y-71846742D01*
X140668722Y-71846742D02*
X140668722Y-72075314D01*
X140668722Y-72075314D02*
X140630627Y-72151504D01*
X140630627Y-72151504D02*
X140592532Y-72189600D01*
X140592532Y-72189600D02*
X140516341Y-72227695D01*
X140516341Y-72227695D02*
X140402055Y-72227695D01*
X141011580Y-72227695D02*
X141011580Y-71694361D01*
X141011580Y-71846742D02*
X141049675Y-71770552D01*
X141049675Y-71770552D02*
X141087770Y-71732457D01*
X141087770Y-71732457D02*
X141163961Y-71694361D01*
X141163961Y-71694361D02*
X141240151Y-71694361D01*
X142383008Y-71808647D02*
X142116342Y-71808647D01*
X142116342Y-72227695D02*
X142116342Y-71427695D01*
X142116342Y-71427695D02*
X142497294Y-71427695D01*
X142802056Y-72227695D02*
X142802056Y-71694361D01*
X142802056Y-71846742D02*
X142840151Y-71770552D01*
X142840151Y-71770552D02*
X142878246Y-71732457D01*
X142878246Y-71732457D02*
X142954437Y-71694361D01*
X142954437Y-71694361D02*
X143030627Y-71694361D01*
X143640151Y-72227695D02*
X143640151Y-71808647D01*
X143640151Y-71808647D02*
X143602056Y-71732457D01*
X143602056Y-71732457D02*
X143525865Y-71694361D01*
X143525865Y-71694361D02*
X143373484Y-71694361D01*
X143373484Y-71694361D02*
X143297294Y-71732457D01*
X143640151Y-72189600D02*
X143563960Y-72227695D01*
X143563960Y-72227695D02*
X143373484Y-72227695D01*
X143373484Y-72227695D02*
X143297294Y-72189600D01*
X143297294Y-72189600D02*
X143259198Y-72113409D01*
X143259198Y-72113409D02*
X143259198Y-72037219D01*
X143259198Y-72037219D02*
X143297294Y-71961028D01*
X143297294Y-71961028D02*
X143373484Y-71922933D01*
X143373484Y-71922933D02*
X143563960Y-71922933D01*
X143563960Y-71922933D02*
X143640151Y-71884838D01*
X144021104Y-71694361D02*
X144021104Y-72227695D01*
X144021104Y-71770552D02*
X144059199Y-71732457D01*
X144059199Y-71732457D02*
X144135389Y-71694361D01*
X144135389Y-71694361D02*
X144249675Y-71694361D01*
X144249675Y-71694361D02*
X144325866Y-71732457D01*
X144325866Y-71732457D02*
X144363961Y-71808647D01*
X144363961Y-71808647D02*
X144363961Y-72227695D01*
X145087771Y-72189600D02*
X145011580Y-72227695D01*
X145011580Y-72227695D02*
X144859199Y-72227695D01*
X144859199Y-72227695D02*
X144783009Y-72189600D01*
X144783009Y-72189600D02*
X144744914Y-72151504D01*
X144744914Y-72151504D02*
X144706818Y-72075314D01*
X144706818Y-72075314D02*
X144706818Y-71846742D01*
X144706818Y-71846742D02*
X144744914Y-71770552D01*
X144744914Y-71770552D02*
X144783009Y-71732457D01*
X144783009Y-71732457D02*
X144859199Y-71694361D01*
X144859199Y-71694361D02*
X145011580Y-71694361D01*
X145011580Y-71694361D02*
X145087771Y-71732457D01*
X145544913Y-72227695D02*
X145468723Y-72189600D01*
X145468723Y-72189600D02*
X145430628Y-72151504D01*
X145430628Y-72151504D02*
X145392532Y-72075314D01*
X145392532Y-72075314D02*
X145392532Y-71846742D01*
X145392532Y-71846742D02*
X145430628Y-71770552D01*
X145430628Y-71770552D02*
X145468723Y-71732457D01*
X145468723Y-71732457D02*
X145544913Y-71694361D01*
X145544913Y-71694361D02*
X145659199Y-71694361D01*
X145659199Y-71694361D02*
X145735390Y-71732457D01*
X145735390Y-71732457D02*
X145773485Y-71770552D01*
X145773485Y-71770552D02*
X145811580Y-71846742D01*
X145811580Y-71846742D02*
X145811580Y-72075314D01*
X145811580Y-72075314D02*
X145773485Y-72151504D01*
X145773485Y-72151504D02*
X145735390Y-72189600D01*
X145735390Y-72189600D02*
X145659199Y-72227695D01*
X145659199Y-72227695D02*
X145544913Y-72227695D01*
X147183009Y-71465790D02*
X147106819Y-71427695D01*
X147106819Y-71427695D02*
X146992533Y-71427695D01*
X146992533Y-71427695D02*
X146878247Y-71465790D01*
X146878247Y-71465790D02*
X146802057Y-71541980D01*
X146802057Y-71541980D02*
X146763962Y-71618171D01*
X146763962Y-71618171D02*
X146725866Y-71770552D01*
X146725866Y-71770552D02*
X146725866Y-71884838D01*
X146725866Y-71884838D02*
X146763962Y-72037219D01*
X146763962Y-72037219D02*
X146802057Y-72113409D01*
X146802057Y-72113409D02*
X146878247Y-72189600D01*
X146878247Y-72189600D02*
X146992533Y-72227695D01*
X146992533Y-72227695D02*
X147068724Y-72227695D01*
X147068724Y-72227695D02*
X147183009Y-72189600D01*
X147183009Y-72189600D02*
X147221105Y-72151504D01*
X147221105Y-72151504D02*
X147221105Y-71884838D01*
X147221105Y-71884838D02*
X147068724Y-71884838D01*
X147678247Y-72227695D02*
X147602057Y-72189600D01*
X147602057Y-72189600D02*
X147563962Y-72151504D01*
X147563962Y-72151504D02*
X147525866Y-72075314D01*
X147525866Y-72075314D02*
X147525866Y-71846742D01*
X147525866Y-71846742D02*
X147563962Y-71770552D01*
X147563962Y-71770552D02*
X147602057Y-71732457D01*
X147602057Y-71732457D02*
X147678247Y-71694361D01*
X147678247Y-71694361D02*
X147792533Y-71694361D01*
X147792533Y-71694361D02*
X147868724Y-71732457D01*
X147868724Y-71732457D02*
X147906819Y-71770552D01*
X147906819Y-71770552D02*
X147944914Y-71846742D01*
X147944914Y-71846742D02*
X147944914Y-72075314D01*
X147944914Y-72075314D02*
X147906819Y-72151504D01*
X147906819Y-72151504D02*
X147868724Y-72189600D01*
X147868724Y-72189600D02*
X147792533Y-72227695D01*
X147792533Y-72227695D02*
X147678247Y-72227695D01*
X148287772Y-71694361D02*
X148287772Y-72227695D01*
X148287772Y-71770552D02*
X148325867Y-71732457D01*
X148325867Y-71732457D02*
X148402057Y-71694361D01*
X148402057Y-71694361D02*
X148516343Y-71694361D01*
X148516343Y-71694361D02*
X148592534Y-71732457D01*
X148592534Y-71732457D02*
X148630629Y-71808647D01*
X148630629Y-71808647D02*
X148630629Y-72227695D01*
X148935391Y-71694361D02*
X149354439Y-71694361D01*
X149354439Y-71694361D02*
X148935391Y-72227695D01*
X148935391Y-72227695D02*
X149354439Y-72227695D01*
X150002058Y-72227695D02*
X150002058Y-71808647D01*
X150002058Y-71808647D02*
X149963963Y-71732457D01*
X149963963Y-71732457D02*
X149887772Y-71694361D01*
X149887772Y-71694361D02*
X149735391Y-71694361D01*
X149735391Y-71694361D02*
X149659201Y-71732457D01*
X150002058Y-72189600D02*
X149925867Y-72227695D01*
X149925867Y-72227695D02*
X149735391Y-72227695D01*
X149735391Y-72227695D02*
X149659201Y-72189600D01*
X149659201Y-72189600D02*
X149621105Y-72113409D01*
X149621105Y-72113409D02*
X149621105Y-72037219D01*
X149621105Y-72037219D02*
X149659201Y-71961028D01*
X149659201Y-71961028D02*
X149735391Y-71922933D01*
X149735391Y-71922933D02*
X149925867Y-71922933D01*
X149925867Y-71922933D02*
X150002058Y-71884838D01*
X150497296Y-72227695D02*
X150421106Y-72189600D01*
X150421106Y-72189600D02*
X150383011Y-72113409D01*
X150383011Y-72113409D02*
X150383011Y-71427695D01*
X151106821Y-72189600D02*
X151030630Y-72227695D01*
X151030630Y-72227695D02*
X150878249Y-72227695D01*
X150878249Y-72227695D02*
X150802059Y-72189600D01*
X150802059Y-72189600D02*
X150763963Y-72113409D01*
X150763963Y-72113409D02*
X150763963Y-71808647D01*
X150763963Y-71808647D02*
X150802059Y-71732457D01*
X150802059Y-71732457D02*
X150878249Y-71694361D01*
X150878249Y-71694361D02*
X151030630Y-71694361D01*
X151030630Y-71694361D02*
X151106821Y-71732457D01*
X151106821Y-71732457D02*
X151144916Y-71808647D01*
X151144916Y-71808647D02*
X151144916Y-71884838D01*
X151144916Y-71884838D02*
X150763963Y-71961028D01*
X151411582Y-71694361D02*
X151830630Y-71694361D01*
X151830630Y-71694361D02*
X151411582Y-72227695D01*
X151411582Y-72227695D02*
X151830630Y-72227695D01*
X153125868Y-72227695D02*
X152744916Y-72227695D01*
X152744916Y-72227695D02*
X152744916Y-71427695D01*
X153392535Y-72227695D02*
X153392535Y-71694361D01*
X153392535Y-71427695D02*
X153354439Y-71465790D01*
X153354439Y-71465790D02*
X153392535Y-71503885D01*
X153392535Y-71503885D02*
X153430630Y-71465790D01*
X153430630Y-71465790D02*
X153392535Y-71427695D01*
X153392535Y-71427695D02*
X153392535Y-71503885D01*
X153887772Y-72227695D02*
X153811582Y-72189600D01*
X153811582Y-72189600D02*
X153773487Y-72151504D01*
X153773487Y-72151504D02*
X153735391Y-72075314D01*
X153735391Y-72075314D02*
X153735391Y-71846742D01*
X153735391Y-71846742D02*
X153773487Y-71770552D01*
X153773487Y-71770552D02*
X153811582Y-71732457D01*
X153811582Y-71732457D02*
X153887772Y-71694361D01*
X153887772Y-71694361D02*
X154002058Y-71694361D01*
X154002058Y-71694361D02*
X154078249Y-71732457D01*
X154078249Y-71732457D02*
X154116344Y-71770552D01*
X154116344Y-71770552D02*
X154154439Y-71846742D01*
X154154439Y-71846742D02*
X154154439Y-72075314D01*
X154154439Y-72075314D02*
X154116344Y-72151504D01*
X154116344Y-72151504D02*
X154078249Y-72189600D01*
X154078249Y-72189600D02*
X154002058Y-72227695D01*
X154002058Y-72227695D02*
X153887772Y-72227695D01*
X154383011Y-71694361D02*
X154687773Y-71694361D01*
X154497297Y-71427695D02*
X154497297Y-72113409D01*
X154497297Y-72113409D02*
X154535392Y-72189600D01*
X154535392Y-72189600D02*
X154611582Y-72227695D01*
X154611582Y-72227695D02*
X154687773Y-72227695D01*
X154840154Y-71694361D02*
X155144916Y-71694361D01*
X154954440Y-71427695D02*
X154954440Y-72113409D01*
X154954440Y-72113409D02*
X154992535Y-72189600D01*
X154992535Y-72189600D02*
X155068725Y-72227695D01*
X155068725Y-72227695D02*
X155144916Y-72227695D01*
X155754440Y-72227695D02*
X155754440Y-71808647D01*
X155754440Y-71808647D02*
X155716345Y-71732457D01*
X155716345Y-71732457D02*
X155640154Y-71694361D01*
X155640154Y-71694361D02*
X155487773Y-71694361D01*
X155487773Y-71694361D02*
X155411583Y-71732457D01*
X155754440Y-72189600D02*
X155678249Y-72227695D01*
X155678249Y-72227695D02*
X155487773Y-72227695D01*
X155487773Y-72227695D02*
X155411583Y-72189600D01*
X155411583Y-72189600D02*
X155373487Y-72113409D01*
X155373487Y-72113409D02*
X155373487Y-72037219D01*
X155373487Y-72037219D02*
X155411583Y-71961028D01*
X155411583Y-71961028D02*
X155487773Y-71922933D01*
X155487773Y-71922933D02*
X155678249Y-71922933D01*
X155678249Y-71922933D02*
X155754440Y-71884838D01*
X132402054Y-74803695D02*
X132402054Y-74003695D01*
X132402054Y-74003695D02*
X132706816Y-74003695D01*
X132706816Y-74003695D02*
X132783006Y-74041790D01*
X132783006Y-74041790D02*
X132821101Y-74079885D01*
X132821101Y-74079885D02*
X132859197Y-74156076D01*
X132859197Y-74156076D02*
X132859197Y-74270361D01*
X132859197Y-74270361D02*
X132821101Y-74346552D01*
X132821101Y-74346552D02*
X132783006Y-74384647D01*
X132783006Y-74384647D02*
X132706816Y-74422742D01*
X132706816Y-74422742D02*
X132402054Y-74422742D01*
X133506816Y-74765600D02*
X133430625Y-74803695D01*
X133430625Y-74803695D02*
X133278244Y-74803695D01*
X133278244Y-74803695D02*
X133202054Y-74765600D01*
X133202054Y-74765600D02*
X133163958Y-74689409D01*
X133163958Y-74689409D02*
X133163958Y-74384647D01*
X133163958Y-74384647D02*
X133202054Y-74308457D01*
X133202054Y-74308457D02*
X133278244Y-74270361D01*
X133278244Y-74270361D02*
X133430625Y-74270361D01*
X133430625Y-74270361D02*
X133506816Y-74308457D01*
X133506816Y-74308457D02*
X133544911Y-74384647D01*
X133544911Y-74384647D02*
X133544911Y-74460838D01*
X133544911Y-74460838D02*
X133163958Y-74537028D01*
X134230625Y-74803695D02*
X134230625Y-74003695D01*
X134230625Y-74765600D02*
X134154434Y-74803695D01*
X134154434Y-74803695D02*
X134002053Y-74803695D01*
X134002053Y-74803695D02*
X133925863Y-74765600D01*
X133925863Y-74765600D02*
X133887768Y-74727504D01*
X133887768Y-74727504D02*
X133849672Y-74651314D01*
X133849672Y-74651314D02*
X133849672Y-74422742D01*
X133849672Y-74422742D02*
X133887768Y-74346552D01*
X133887768Y-74346552D02*
X133925863Y-74308457D01*
X133925863Y-74308457D02*
X134002053Y-74270361D01*
X134002053Y-74270361D02*
X134154434Y-74270361D01*
X134154434Y-74270361D02*
X134230625Y-74308457D01*
X134611578Y-74803695D02*
X134611578Y-74270361D01*
X134611578Y-74003695D02*
X134573482Y-74041790D01*
X134573482Y-74041790D02*
X134611578Y-74079885D01*
X134611578Y-74079885D02*
X134649673Y-74041790D01*
X134649673Y-74041790D02*
X134611578Y-74003695D01*
X134611578Y-74003695D02*
X134611578Y-74079885D01*
X135335387Y-74803695D02*
X135335387Y-74003695D01*
X135335387Y-74765600D02*
X135259196Y-74803695D01*
X135259196Y-74803695D02*
X135106815Y-74803695D01*
X135106815Y-74803695D02*
X135030625Y-74765600D01*
X135030625Y-74765600D02*
X134992530Y-74727504D01*
X134992530Y-74727504D02*
X134954434Y-74651314D01*
X134954434Y-74651314D02*
X134954434Y-74422742D01*
X134954434Y-74422742D02*
X134992530Y-74346552D01*
X134992530Y-74346552D02*
X135030625Y-74308457D01*
X135030625Y-74308457D02*
X135106815Y-74270361D01*
X135106815Y-74270361D02*
X135259196Y-74270361D01*
X135259196Y-74270361D02*
X135335387Y-74308457D01*
X135830625Y-74803695D02*
X135754435Y-74765600D01*
X135754435Y-74765600D02*
X135716340Y-74727504D01*
X135716340Y-74727504D02*
X135678244Y-74651314D01*
X135678244Y-74651314D02*
X135678244Y-74422742D01*
X135678244Y-74422742D02*
X135716340Y-74346552D01*
X135716340Y-74346552D02*
X135754435Y-74308457D01*
X135754435Y-74308457D02*
X135830625Y-74270361D01*
X135830625Y-74270361D02*
X135944911Y-74270361D01*
X135944911Y-74270361D02*
X136021102Y-74308457D01*
X136021102Y-74308457D02*
X136059197Y-74346552D01*
X136059197Y-74346552D02*
X136097292Y-74422742D01*
X136097292Y-74422742D02*
X136097292Y-74651314D01*
X136097292Y-74651314D02*
X136059197Y-74727504D01*
X136059197Y-74727504D02*
X136021102Y-74765600D01*
X136021102Y-74765600D02*
X135944911Y-74803695D01*
X135944911Y-74803695D02*
X135830625Y-74803695D01*
X136402054Y-74765600D02*
X136478245Y-74803695D01*
X136478245Y-74803695D02*
X136630626Y-74803695D01*
X136630626Y-74803695D02*
X136706816Y-74765600D01*
X136706816Y-74765600D02*
X136744912Y-74689409D01*
X136744912Y-74689409D02*
X136744912Y-74651314D01*
X136744912Y-74651314D02*
X136706816Y-74575123D01*
X136706816Y-74575123D02*
X136630626Y-74537028D01*
X136630626Y-74537028D02*
X136516340Y-74537028D01*
X136516340Y-74537028D02*
X136440150Y-74498933D01*
X136440150Y-74498933D02*
X136402054Y-74422742D01*
X136402054Y-74422742D02*
X136402054Y-74384647D01*
X136402054Y-74384647D02*
X136440150Y-74308457D01*
X136440150Y-74308457D02*
X136516340Y-74270361D01*
X136516340Y-74270361D02*
X136630626Y-74270361D01*
X136630626Y-74270361D02*
X136706816Y-74308457D01*
X137087769Y-74727504D02*
X137125864Y-74765600D01*
X137125864Y-74765600D02*
X137087769Y-74803695D01*
X137087769Y-74803695D02*
X137049673Y-74765600D01*
X137049673Y-74765600D02*
X137087769Y-74727504D01*
X137087769Y-74727504D02*
X137087769Y-74803695D01*
X137087769Y-74308457D02*
X137125864Y-74346552D01*
X137125864Y-74346552D02*
X137087769Y-74384647D01*
X137087769Y-74384647D02*
X137049673Y-74346552D01*
X137049673Y-74346552D02*
X137087769Y-74308457D01*
X137087769Y-74308457D02*
X137087769Y-74384647D01*
X132287768Y-75558361D02*
X132592530Y-75558361D01*
X132402054Y-76091695D02*
X132402054Y-75405980D01*
X132402054Y-75405980D02*
X132440149Y-75329790D01*
X132440149Y-75329790D02*
X132516339Y-75291695D01*
X132516339Y-75291695D02*
X132592530Y-75291695D01*
X132859197Y-76091695D02*
X132859197Y-75558361D01*
X132859197Y-75710742D02*
X132897292Y-75634552D01*
X132897292Y-75634552D02*
X132935387Y-75596457D01*
X132935387Y-75596457D02*
X133011578Y-75558361D01*
X133011578Y-75558361D02*
X133087768Y-75558361D01*
X133697292Y-76091695D02*
X133697292Y-75672647D01*
X133697292Y-75672647D02*
X133659197Y-75596457D01*
X133659197Y-75596457D02*
X133583006Y-75558361D01*
X133583006Y-75558361D02*
X133430625Y-75558361D01*
X133430625Y-75558361D02*
X133354435Y-75596457D01*
X133697292Y-76053600D02*
X133621101Y-76091695D01*
X133621101Y-76091695D02*
X133430625Y-76091695D01*
X133430625Y-76091695D02*
X133354435Y-76053600D01*
X133354435Y-76053600D02*
X133316339Y-75977409D01*
X133316339Y-75977409D02*
X133316339Y-75901219D01*
X133316339Y-75901219D02*
X133354435Y-75825028D01*
X133354435Y-75825028D02*
X133430625Y-75786933D01*
X133430625Y-75786933D02*
X133621101Y-75786933D01*
X133621101Y-75786933D02*
X133697292Y-75748838D01*
X134078245Y-75558361D02*
X134078245Y-76091695D01*
X134078245Y-75634552D02*
X134116340Y-75596457D01*
X134116340Y-75596457D02*
X134192530Y-75558361D01*
X134192530Y-75558361D02*
X134306816Y-75558361D01*
X134306816Y-75558361D02*
X134383007Y-75596457D01*
X134383007Y-75596457D02*
X134421102Y-75672647D01*
X134421102Y-75672647D02*
X134421102Y-76091695D01*
X135144912Y-76053600D02*
X135068721Y-76091695D01*
X135068721Y-76091695D02*
X134916340Y-76091695D01*
X134916340Y-76091695D02*
X134840150Y-76053600D01*
X134840150Y-76053600D02*
X134802055Y-76015504D01*
X134802055Y-76015504D02*
X134763959Y-75939314D01*
X134763959Y-75939314D02*
X134763959Y-75710742D01*
X134763959Y-75710742D02*
X134802055Y-75634552D01*
X134802055Y-75634552D02*
X134840150Y-75596457D01*
X134840150Y-75596457D02*
X134916340Y-75558361D01*
X134916340Y-75558361D02*
X135068721Y-75558361D01*
X135068721Y-75558361D02*
X135144912Y-75596457D01*
X135602054Y-76091695D02*
X135525864Y-76053600D01*
X135525864Y-76053600D02*
X135487769Y-76015504D01*
X135487769Y-76015504D02*
X135449673Y-75939314D01*
X135449673Y-75939314D02*
X135449673Y-75710742D01*
X135449673Y-75710742D02*
X135487769Y-75634552D01*
X135487769Y-75634552D02*
X135525864Y-75596457D01*
X135525864Y-75596457D02*
X135602054Y-75558361D01*
X135602054Y-75558361D02*
X135716340Y-75558361D01*
X135716340Y-75558361D02*
X135792531Y-75596457D01*
X135792531Y-75596457D02*
X135830626Y-75634552D01*
X135830626Y-75634552D02*
X135868721Y-75710742D01*
X135868721Y-75710742D02*
X135868721Y-75939314D01*
X135868721Y-75939314D02*
X135830626Y-76015504D01*
X135830626Y-76015504D02*
X135792531Y-76053600D01*
X135792531Y-76053600D02*
X135716340Y-76091695D01*
X135716340Y-76091695D02*
X135602054Y-76091695D01*
X136211579Y-76091695D02*
X136211579Y-75291695D01*
X136211579Y-75596457D02*
X136287769Y-75558361D01*
X136287769Y-75558361D02*
X136440150Y-75558361D01*
X136440150Y-75558361D02*
X136516341Y-75596457D01*
X136516341Y-75596457D02*
X136554436Y-75634552D01*
X136554436Y-75634552D02*
X136592531Y-75710742D01*
X136592531Y-75710742D02*
X136592531Y-75939314D01*
X136592531Y-75939314D02*
X136554436Y-76015504D01*
X136554436Y-76015504D02*
X136516341Y-76053600D01*
X136516341Y-76053600D02*
X136440150Y-76091695D01*
X136440150Y-76091695D02*
X136287769Y-76091695D01*
X136287769Y-76091695D02*
X136211579Y-76053600D01*
X136935389Y-76015504D02*
X136973484Y-76053600D01*
X136973484Y-76053600D02*
X136935389Y-76091695D01*
X136935389Y-76091695D02*
X136897293Y-76053600D01*
X136897293Y-76053600D02*
X136935389Y-76015504D01*
X136935389Y-76015504D02*
X136935389Y-76091695D01*
X137659198Y-75558361D02*
X137659198Y-76205980D01*
X137659198Y-76205980D02*
X137621103Y-76282171D01*
X137621103Y-76282171D02*
X137583007Y-76320266D01*
X137583007Y-76320266D02*
X137506817Y-76358361D01*
X137506817Y-76358361D02*
X137392531Y-76358361D01*
X137392531Y-76358361D02*
X137316341Y-76320266D01*
X137659198Y-76053600D02*
X137583007Y-76091695D01*
X137583007Y-76091695D02*
X137430626Y-76091695D01*
X137430626Y-76091695D02*
X137354436Y-76053600D01*
X137354436Y-76053600D02*
X137316341Y-76015504D01*
X137316341Y-76015504D02*
X137278245Y-75939314D01*
X137278245Y-75939314D02*
X137278245Y-75710742D01*
X137278245Y-75710742D02*
X137316341Y-75634552D01*
X137316341Y-75634552D02*
X137354436Y-75596457D01*
X137354436Y-75596457D02*
X137430626Y-75558361D01*
X137430626Y-75558361D02*
X137583007Y-75558361D01*
X137583007Y-75558361D02*
X137659198Y-75596457D01*
X138154436Y-76091695D02*
X138078246Y-76053600D01*
X138078246Y-76053600D02*
X138040151Y-76015504D01*
X138040151Y-76015504D02*
X138002055Y-75939314D01*
X138002055Y-75939314D02*
X138002055Y-75710742D01*
X138002055Y-75710742D02*
X138040151Y-75634552D01*
X138040151Y-75634552D02*
X138078246Y-75596457D01*
X138078246Y-75596457D02*
X138154436Y-75558361D01*
X138154436Y-75558361D02*
X138268722Y-75558361D01*
X138268722Y-75558361D02*
X138344913Y-75596457D01*
X138344913Y-75596457D02*
X138383008Y-75634552D01*
X138383008Y-75634552D02*
X138421103Y-75710742D01*
X138421103Y-75710742D02*
X138421103Y-75939314D01*
X138421103Y-75939314D02*
X138383008Y-76015504D01*
X138383008Y-76015504D02*
X138344913Y-76053600D01*
X138344913Y-76053600D02*
X138268722Y-76091695D01*
X138268722Y-76091695D02*
X138154436Y-76091695D01*
X138763961Y-75558361D02*
X138763961Y-76091695D01*
X138763961Y-75634552D02*
X138802056Y-75596457D01*
X138802056Y-75596457D02*
X138878246Y-75558361D01*
X138878246Y-75558361D02*
X138992532Y-75558361D01*
X138992532Y-75558361D02*
X139068723Y-75596457D01*
X139068723Y-75596457D02*
X139106818Y-75672647D01*
X139106818Y-75672647D02*
X139106818Y-76091695D01*
X139411580Y-75558361D02*
X139830628Y-75558361D01*
X139830628Y-75558361D02*
X139411580Y-76091695D01*
X139411580Y-76091695D02*
X139830628Y-76091695D01*
X140478247Y-76091695D02*
X140478247Y-75672647D01*
X140478247Y-75672647D02*
X140440152Y-75596457D01*
X140440152Y-75596457D02*
X140363961Y-75558361D01*
X140363961Y-75558361D02*
X140211580Y-75558361D01*
X140211580Y-75558361D02*
X140135390Y-75596457D01*
X140478247Y-76053600D02*
X140402056Y-76091695D01*
X140402056Y-76091695D02*
X140211580Y-76091695D01*
X140211580Y-76091695D02*
X140135390Y-76053600D01*
X140135390Y-76053600D02*
X140097294Y-75977409D01*
X140097294Y-75977409D02*
X140097294Y-75901219D01*
X140097294Y-75901219D02*
X140135390Y-75825028D01*
X140135390Y-75825028D02*
X140211580Y-75786933D01*
X140211580Y-75786933D02*
X140402056Y-75786933D01*
X140402056Y-75786933D02*
X140478247Y-75748838D01*
X140973485Y-76091695D02*
X140897295Y-76053600D01*
X140897295Y-76053600D02*
X140859200Y-75977409D01*
X140859200Y-75977409D02*
X140859200Y-75291695D01*
X141583010Y-76053600D02*
X141506819Y-76091695D01*
X141506819Y-76091695D02*
X141354438Y-76091695D01*
X141354438Y-76091695D02*
X141278248Y-76053600D01*
X141278248Y-76053600D02*
X141240152Y-75977409D01*
X141240152Y-75977409D02*
X141240152Y-75672647D01*
X141240152Y-75672647D02*
X141278248Y-75596457D01*
X141278248Y-75596457D02*
X141354438Y-75558361D01*
X141354438Y-75558361D02*
X141506819Y-75558361D01*
X141506819Y-75558361D02*
X141583010Y-75596457D01*
X141583010Y-75596457D02*
X141621105Y-75672647D01*
X141621105Y-75672647D02*
X141621105Y-75748838D01*
X141621105Y-75748838D02*
X141240152Y-75825028D01*
X141887771Y-75558361D02*
X142306819Y-75558361D01*
X142306819Y-75558361D02*
X141887771Y-76091695D01*
X141887771Y-76091695D02*
X142306819Y-76091695D01*
X142725866Y-76091695D02*
X142649676Y-76053600D01*
X142649676Y-76053600D02*
X142611581Y-75977409D01*
X142611581Y-75977409D02*
X142611581Y-75291695D01*
X143030629Y-76091695D02*
X143030629Y-75558361D01*
X143030629Y-75291695D02*
X142992533Y-75329790D01*
X142992533Y-75329790D02*
X143030629Y-75367885D01*
X143030629Y-75367885D02*
X143068724Y-75329790D01*
X143068724Y-75329790D02*
X143030629Y-75291695D01*
X143030629Y-75291695D02*
X143030629Y-75367885D01*
X143525866Y-76091695D02*
X143449676Y-76053600D01*
X143449676Y-76053600D02*
X143411581Y-76015504D01*
X143411581Y-76015504D02*
X143373485Y-75939314D01*
X143373485Y-75939314D02*
X143373485Y-75710742D01*
X143373485Y-75710742D02*
X143411581Y-75634552D01*
X143411581Y-75634552D02*
X143449676Y-75596457D01*
X143449676Y-75596457D02*
X143525866Y-75558361D01*
X143525866Y-75558361D02*
X143640152Y-75558361D01*
X143640152Y-75558361D02*
X143716343Y-75596457D01*
X143716343Y-75596457D02*
X143754438Y-75634552D01*
X143754438Y-75634552D02*
X143792533Y-75710742D01*
X143792533Y-75710742D02*
X143792533Y-75939314D01*
X143792533Y-75939314D02*
X143754438Y-76015504D01*
X143754438Y-76015504D02*
X143716343Y-76053600D01*
X143716343Y-76053600D02*
X143640152Y-76091695D01*
X143640152Y-76091695D02*
X143525866Y-76091695D01*
X144021105Y-75558361D02*
X144325867Y-75558361D01*
X144135391Y-75291695D02*
X144135391Y-75977409D01*
X144135391Y-75977409D02*
X144173486Y-76053600D01*
X144173486Y-76053600D02*
X144249676Y-76091695D01*
X144249676Y-76091695D02*
X144325867Y-76091695D01*
X144478248Y-75558361D02*
X144783010Y-75558361D01*
X144592534Y-75291695D02*
X144592534Y-75977409D01*
X144592534Y-75977409D02*
X144630629Y-76053600D01*
X144630629Y-76053600D02*
X144706819Y-76091695D01*
X144706819Y-76091695D02*
X144783010Y-76091695D01*
X145392534Y-76091695D02*
X145392534Y-75672647D01*
X145392534Y-75672647D02*
X145354439Y-75596457D01*
X145354439Y-75596457D02*
X145278248Y-75558361D01*
X145278248Y-75558361D02*
X145125867Y-75558361D01*
X145125867Y-75558361D02*
X145049677Y-75596457D01*
X145392534Y-76053600D02*
X145316343Y-76091695D01*
X145316343Y-76091695D02*
X145125867Y-76091695D01*
X145125867Y-76091695D02*
X145049677Y-76053600D01*
X145049677Y-76053600D02*
X145011581Y-75977409D01*
X145011581Y-75977409D02*
X145011581Y-75901219D01*
X145011581Y-75901219D02*
X145049677Y-75825028D01*
X145049677Y-75825028D02*
X145125867Y-75786933D01*
X145125867Y-75786933D02*
X145316343Y-75786933D01*
X145316343Y-75786933D02*
X145392534Y-75748838D01*
X146268725Y-75710742D02*
X146230630Y-75672647D01*
X146230630Y-75672647D02*
X146154439Y-75634552D01*
X146154439Y-75634552D02*
X146078249Y-75634552D01*
X146078249Y-75634552D02*
X146002058Y-75672647D01*
X146002058Y-75672647D02*
X145963963Y-75710742D01*
X145963963Y-75710742D02*
X145925868Y-75786933D01*
X145925868Y-75786933D02*
X145925868Y-75863123D01*
X145925868Y-75863123D02*
X145963963Y-75939314D01*
X145963963Y-75939314D02*
X146002058Y-75977409D01*
X146002058Y-75977409D02*
X146078249Y-76015504D01*
X146078249Y-76015504D02*
X146154439Y-76015504D01*
X146154439Y-76015504D02*
X146230630Y-75977409D01*
X146230630Y-75977409D02*
X146268725Y-75939314D01*
X146268725Y-75634552D02*
X146268725Y-75939314D01*
X146268725Y-75939314D02*
X146306820Y-75977409D01*
X146306820Y-75977409D02*
X146344915Y-75977409D01*
X146344915Y-75977409D02*
X146421106Y-75939314D01*
X146421106Y-75939314D02*
X146459201Y-75863123D01*
X146459201Y-75863123D02*
X146459201Y-75672647D01*
X146459201Y-75672647D02*
X146383011Y-75558361D01*
X146383011Y-75558361D02*
X146268725Y-75482171D01*
X146268725Y-75482171D02*
X146116344Y-75444076D01*
X146116344Y-75444076D02*
X145963963Y-75482171D01*
X145963963Y-75482171D02*
X145849677Y-75558361D01*
X145849677Y-75558361D02*
X145773487Y-75672647D01*
X145773487Y-75672647D02*
X145735391Y-75825028D01*
X145735391Y-75825028D02*
X145773487Y-75977409D01*
X145773487Y-75977409D02*
X145849677Y-76091695D01*
X145849677Y-76091695D02*
X145963963Y-76167885D01*
X145963963Y-76167885D02*
X146116344Y-76205980D01*
X146116344Y-76205980D02*
X146268725Y-76167885D01*
X146268725Y-76167885D02*
X146383011Y-76091695D01*
X147144915Y-75558361D02*
X147144915Y-76205980D01*
X147144915Y-76205980D02*
X147106820Y-76282171D01*
X147106820Y-76282171D02*
X147068724Y-76320266D01*
X147068724Y-76320266D02*
X146992534Y-76358361D01*
X146992534Y-76358361D02*
X146878248Y-76358361D01*
X146878248Y-76358361D02*
X146802058Y-76320266D01*
X147144915Y-76053600D02*
X147068724Y-76091695D01*
X147068724Y-76091695D02*
X146916343Y-76091695D01*
X146916343Y-76091695D02*
X146840153Y-76053600D01*
X146840153Y-76053600D02*
X146802058Y-76015504D01*
X146802058Y-76015504D02*
X146763962Y-75939314D01*
X146763962Y-75939314D02*
X146763962Y-75710742D01*
X146763962Y-75710742D02*
X146802058Y-75634552D01*
X146802058Y-75634552D02*
X146840153Y-75596457D01*
X146840153Y-75596457D02*
X146916343Y-75558361D01*
X146916343Y-75558361D02*
X147068724Y-75558361D01*
X147068724Y-75558361D02*
X147144915Y-75596457D01*
X147525868Y-76091695D02*
X147525868Y-75558361D01*
X147525868Y-75634552D02*
X147563963Y-75596457D01*
X147563963Y-75596457D02*
X147640153Y-75558361D01*
X147640153Y-75558361D02*
X147754439Y-75558361D01*
X147754439Y-75558361D02*
X147830630Y-75596457D01*
X147830630Y-75596457D02*
X147868725Y-75672647D01*
X147868725Y-75672647D02*
X147868725Y-76091695D01*
X147868725Y-75672647D02*
X147906820Y-75596457D01*
X147906820Y-75596457D02*
X147983011Y-75558361D01*
X147983011Y-75558361D02*
X148097296Y-75558361D01*
X148097296Y-75558361D02*
X148173487Y-75596457D01*
X148173487Y-75596457D02*
X148211582Y-75672647D01*
X148211582Y-75672647D02*
X148211582Y-76091695D01*
X148935392Y-76091695D02*
X148935392Y-75672647D01*
X148935392Y-75672647D02*
X148897297Y-75596457D01*
X148897297Y-75596457D02*
X148821106Y-75558361D01*
X148821106Y-75558361D02*
X148668725Y-75558361D01*
X148668725Y-75558361D02*
X148592535Y-75596457D01*
X148935392Y-76053600D02*
X148859201Y-76091695D01*
X148859201Y-76091695D02*
X148668725Y-76091695D01*
X148668725Y-76091695D02*
X148592535Y-76053600D01*
X148592535Y-76053600D02*
X148554439Y-75977409D01*
X148554439Y-75977409D02*
X148554439Y-75901219D01*
X148554439Y-75901219D02*
X148592535Y-75825028D01*
X148592535Y-75825028D02*
X148668725Y-75786933D01*
X148668725Y-75786933D02*
X148859201Y-75786933D01*
X148859201Y-75786933D02*
X148935392Y-75748838D01*
X149316345Y-76091695D02*
X149316345Y-75558361D01*
X149316345Y-75291695D02*
X149278249Y-75329790D01*
X149278249Y-75329790D02*
X149316345Y-75367885D01*
X149316345Y-75367885D02*
X149354440Y-75329790D01*
X149354440Y-75329790D02*
X149316345Y-75291695D01*
X149316345Y-75291695D02*
X149316345Y-75367885D01*
X149811582Y-76091695D02*
X149735392Y-76053600D01*
X149735392Y-76053600D02*
X149697297Y-75977409D01*
X149697297Y-75977409D02*
X149697297Y-75291695D01*
X150116345Y-76015504D02*
X150154440Y-76053600D01*
X150154440Y-76053600D02*
X150116345Y-76091695D01*
X150116345Y-76091695D02*
X150078249Y-76053600D01*
X150078249Y-76053600D02*
X150116345Y-76015504D01*
X150116345Y-76015504D02*
X150116345Y-76091695D01*
X150840154Y-76053600D02*
X150763963Y-76091695D01*
X150763963Y-76091695D02*
X150611582Y-76091695D01*
X150611582Y-76091695D02*
X150535392Y-76053600D01*
X150535392Y-76053600D02*
X150497297Y-76015504D01*
X150497297Y-76015504D02*
X150459201Y-75939314D01*
X150459201Y-75939314D02*
X150459201Y-75710742D01*
X150459201Y-75710742D02*
X150497297Y-75634552D01*
X150497297Y-75634552D02*
X150535392Y-75596457D01*
X150535392Y-75596457D02*
X150611582Y-75558361D01*
X150611582Y-75558361D02*
X150763963Y-75558361D01*
X150763963Y-75558361D02*
X150840154Y-75596457D01*
X151297296Y-76091695D02*
X151221106Y-76053600D01*
X151221106Y-76053600D02*
X151183011Y-76015504D01*
X151183011Y-76015504D02*
X151144915Y-75939314D01*
X151144915Y-75939314D02*
X151144915Y-75710742D01*
X151144915Y-75710742D02*
X151183011Y-75634552D01*
X151183011Y-75634552D02*
X151221106Y-75596457D01*
X151221106Y-75596457D02*
X151297296Y-75558361D01*
X151297296Y-75558361D02*
X151411582Y-75558361D01*
X151411582Y-75558361D02*
X151487773Y-75596457D01*
X151487773Y-75596457D02*
X151525868Y-75634552D01*
X151525868Y-75634552D02*
X151563963Y-75710742D01*
X151563963Y-75710742D02*
X151563963Y-75939314D01*
X151563963Y-75939314D02*
X151525868Y-76015504D01*
X151525868Y-76015504D02*
X151487773Y-76053600D01*
X151487773Y-76053600D02*
X151411582Y-76091695D01*
X151411582Y-76091695D02*
X151297296Y-76091695D01*
X151906821Y-76091695D02*
X151906821Y-75558361D01*
X151906821Y-75634552D02*
X151944916Y-75596457D01*
X151944916Y-75596457D02*
X152021106Y-75558361D01*
X152021106Y-75558361D02*
X152135392Y-75558361D01*
X152135392Y-75558361D02*
X152211583Y-75596457D01*
X152211583Y-75596457D02*
X152249678Y-75672647D01*
X152249678Y-75672647D02*
X152249678Y-76091695D01*
X152249678Y-75672647D02*
X152287773Y-75596457D01*
X152287773Y-75596457D02*
X152363964Y-75558361D01*
X152363964Y-75558361D02*
X152478249Y-75558361D01*
X152478249Y-75558361D02*
X152554440Y-75596457D01*
X152554440Y-75596457D02*
X152592535Y-75672647D01*
X152592535Y-75672647D02*
X152592535Y-76091695D01*
D10*
X151455761Y-60870377D02*
X151503380Y-60775139D01*
X151503380Y-60775139D02*
X151503380Y-60632282D01*
X151503380Y-60632282D02*
X151455761Y-60489425D01*
X151455761Y-60489425D02*
X151360523Y-60394187D01*
X151360523Y-60394187D02*
X151265285Y-60346568D01*
X151265285Y-60346568D02*
X151074809Y-60298949D01*
X151074809Y-60298949D02*
X150931952Y-60298949D01*
X150931952Y-60298949D02*
X150741476Y-60346568D01*
X150741476Y-60346568D02*
X150646238Y-60394187D01*
X150646238Y-60394187D02*
X150551000Y-60489425D01*
X150551000Y-60489425D02*
X150503380Y-60632282D01*
X150503380Y-60632282D02*
X150503380Y-60727520D01*
X150503380Y-60727520D02*
X150551000Y-60870377D01*
X150551000Y-60870377D02*
X150598619Y-60917996D01*
X150598619Y-60917996D02*
X150931952Y-60917996D01*
X150931952Y-60917996D02*
X150931952Y-60727520D01*
X137993000Y-63145050D02*
X138040619Y-63002193D01*
X138040619Y-63002193D02*
X138040619Y-62764098D01*
X138040619Y-62764098D02*
X137993000Y-62668860D01*
X137993000Y-62668860D02*
X137945380Y-62621241D01*
X137945380Y-62621241D02*
X137850142Y-62573622D01*
X137850142Y-62573622D02*
X137754904Y-62573622D01*
X137754904Y-62573622D02*
X137659666Y-62621241D01*
X137659666Y-62621241D02*
X137612047Y-62668860D01*
X137612047Y-62668860D02*
X137564428Y-62764098D01*
X137564428Y-62764098D02*
X137516809Y-62954574D01*
X137516809Y-62954574D02*
X137469190Y-63049812D01*
X137469190Y-63049812D02*
X137421571Y-63097431D01*
X137421571Y-63097431D02*
X137326333Y-63145050D01*
X137326333Y-63145050D02*
X137231095Y-63145050D01*
X137231095Y-63145050D02*
X137135857Y-63097431D01*
X137135857Y-63097431D02*
X137088238Y-63049812D01*
X137088238Y-63049812D02*
X137040619Y-62954574D01*
X137040619Y-62954574D02*
X137040619Y-62716479D01*
X137040619Y-62716479D02*
X137088238Y-62573622D01*
D11*
X129651595Y-63595573D02*
X130451595Y-63328906D01*
X130451595Y-63328906D02*
X129651595Y-63062240D01*
X129651595Y-62643192D02*
X129651595Y-62490811D01*
X129651595Y-62490811D02*
X129689690Y-62414621D01*
X129689690Y-62414621D02*
X129765880Y-62338430D01*
X129765880Y-62338430D02*
X129918261Y-62300335D01*
X129918261Y-62300335D02*
X130184928Y-62300335D01*
X130184928Y-62300335D02*
X130337309Y-62338430D01*
X130337309Y-62338430D02*
X130413500Y-62414621D01*
X130413500Y-62414621D02*
X130451595Y-62490811D01*
X130451595Y-62490811D02*
X130451595Y-62643192D01*
X130451595Y-62643192D02*
X130413500Y-62719383D01*
X130413500Y-62719383D02*
X130337309Y-62795573D01*
X130337309Y-62795573D02*
X130184928Y-62833669D01*
X130184928Y-62833669D02*
X129918261Y-62833669D01*
X129918261Y-62833669D02*
X129765880Y-62795573D01*
X129765880Y-62795573D02*
X129689690Y-62719383D01*
X129689690Y-62719383D02*
X129651595Y-62643192D01*
X129689690Y-64078240D02*
X129651595Y-64154430D01*
X129651595Y-64154430D02*
X129651595Y-64268716D01*
X129651595Y-64268716D02*
X129689690Y-64383002D01*
X129689690Y-64383002D02*
X129765880Y-64459192D01*
X129765880Y-64459192D02*
X129842071Y-64497287D01*
X129842071Y-64497287D02*
X129994452Y-64535383D01*
X129994452Y-64535383D02*
X130108738Y-64535383D01*
X130108738Y-64535383D02*
X130261119Y-64497287D01*
X130261119Y-64497287D02*
X130337309Y-64459192D01*
X130337309Y-64459192D02*
X130413500Y-64383002D01*
X130413500Y-64383002D02*
X130451595Y-64268716D01*
X130451595Y-64268716D02*
X130451595Y-64192525D01*
X130451595Y-64192525D02*
X130413500Y-64078240D01*
X130413500Y-64078240D02*
X130375404Y-64040144D01*
X130375404Y-64040144D02*
X130108738Y-64040144D01*
X130108738Y-64040144D02*
X130108738Y-64192525D01*
D10*
X138040619Y-58017431D02*
X137040619Y-58017431D01*
X137040619Y-58017431D02*
X137040619Y-57779336D01*
X137040619Y-57779336D02*
X137088238Y-57636479D01*
X137088238Y-57636479D02*
X137183476Y-57541241D01*
X137183476Y-57541241D02*
X137278714Y-57493622D01*
X137278714Y-57493622D02*
X137469190Y-57446003D01*
X137469190Y-57446003D02*
X137612047Y-57446003D01*
X137612047Y-57446003D02*
X137802523Y-57493622D01*
X137802523Y-57493622D02*
X137897761Y-57541241D01*
X137897761Y-57541241D02*
X137993000Y-57636479D01*
X137993000Y-57636479D02*
X138040619Y-57779336D01*
X138040619Y-57779336D02*
X138040619Y-58017431D01*
X150551000Y-57758949D02*
X150503380Y-57901806D01*
X150503380Y-57901806D02*
X150503380Y-58139901D01*
X150503380Y-58139901D02*
X150551000Y-58235139D01*
X150551000Y-58235139D02*
X150598619Y-58282758D01*
X150598619Y-58282758D02*
X150693857Y-58330377D01*
X150693857Y-58330377D02*
X150789095Y-58330377D01*
X150789095Y-58330377D02*
X150884333Y-58282758D01*
X150884333Y-58282758D02*
X150931952Y-58235139D01*
X150931952Y-58235139D02*
X150979571Y-58139901D01*
X150979571Y-58139901D02*
X151027190Y-57949425D01*
X151027190Y-57949425D02*
X151074809Y-57854187D01*
X151074809Y-57854187D02*
X151122428Y-57806568D01*
X151122428Y-57806568D02*
X151217666Y-57758949D01*
X151217666Y-57758949D02*
X151312904Y-57758949D01*
X151312904Y-57758949D02*
X151408142Y-57806568D01*
X151408142Y-57806568D02*
X151455761Y-57854187D01*
X151455761Y-57854187D02*
X151503380Y-57949425D01*
X151503380Y-57949425D02*
X151503380Y-58187520D01*
X151503380Y-58187520D02*
X151455761Y-58330377D01*
X150503380Y-62886568D02*
X151503380Y-62886568D01*
X151503380Y-62886568D02*
X151503380Y-63124663D01*
X151503380Y-63124663D02*
X151455761Y-63267520D01*
X151455761Y-63267520D02*
X151360523Y-63362758D01*
X151360523Y-63362758D02*
X151265285Y-63410377D01*
X151265285Y-63410377D02*
X151074809Y-63457996D01*
X151074809Y-63457996D02*
X150931952Y-63457996D01*
X150931952Y-63457996D02*
X150741476Y-63410377D01*
X150741476Y-63410377D02*
X150646238Y-63362758D01*
X150646238Y-63362758D02*
X150551000Y-63267520D01*
X150551000Y-63267520D02*
X150503380Y-63124663D01*
X150503380Y-63124663D02*
X150503380Y-62886568D01*
D13*
X125145714Y-81934819D02*
X125145714Y-80934819D01*
X125145714Y-80934819D02*
X125383809Y-80934819D01*
X125383809Y-80934819D02*
X125526666Y-80982438D01*
X125526666Y-80982438D02*
X125621904Y-81077676D01*
X125621904Y-81077676D02*
X125669523Y-81172914D01*
X125669523Y-81172914D02*
X125717142Y-81363390D01*
X125717142Y-81363390D02*
X125717142Y-81506247D01*
X125717142Y-81506247D02*
X125669523Y-81696723D01*
X125669523Y-81696723D02*
X125621904Y-81791961D01*
X125621904Y-81791961D02*
X125526666Y-81887200D01*
X125526666Y-81887200D02*
X125383809Y-81934819D01*
X125383809Y-81934819D02*
X125145714Y-81934819D01*
X126669523Y-81934819D02*
X126098095Y-81934819D01*
X126383809Y-81934819D02*
X126383809Y-80934819D01*
X126383809Y-80934819D02*
X126288571Y-81077676D01*
X126288571Y-81077676D02*
X126193333Y-81172914D01*
X126193333Y-81172914D02*
X126098095Y-81220533D01*
X127050476Y-81030057D02*
X127098095Y-80982438D01*
X127098095Y-80982438D02*
X127193333Y-80934819D01*
X127193333Y-80934819D02*
X127431428Y-80934819D01*
X127431428Y-80934819D02*
X127526666Y-80982438D01*
X127526666Y-80982438D02*
X127574285Y-81030057D01*
X127574285Y-81030057D02*
X127621904Y-81125295D01*
X127621904Y-81125295D02*
X127621904Y-81220533D01*
X127621904Y-81220533D02*
X127574285Y-81363390D01*
X127574285Y-81363390D02*
X127002857Y-81934819D01*
X127002857Y-81934819D02*
X127621904Y-81934819D01*
X161191905Y-81988819D02*
X161191905Y-80988819D01*
X161191905Y-80988819D02*
X161430000Y-80988819D01*
X161430000Y-80988819D02*
X161572857Y-81036438D01*
X161572857Y-81036438D02*
X161668095Y-81131676D01*
X161668095Y-81131676D02*
X161715714Y-81226914D01*
X161715714Y-81226914D02*
X161763333Y-81417390D01*
X161763333Y-81417390D02*
X161763333Y-81560247D01*
X161763333Y-81560247D02*
X161715714Y-81750723D01*
X161715714Y-81750723D02*
X161668095Y-81845961D01*
X161668095Y-81845961D02*
X161572857Y-81941200D01*
X161572857Y-81941200D02*
X161430000Y-81988819D01*
X161430000Y-81988819D02*
X161191905Y-81988819D01*
X162239524Y-81988819D02*
X162430000Y-81988819D01*
X162430000Y-81988819D02*
X162525238Y-81941200D01*
X162525238Y-81941200D02*
X162572857Y-81893580D01*
X162572857Y-81893580D02*
X162668095Y-81750723D01*
X162668095Y-81750723D02*
X162715714Y-81560247D01*
X162715714Y-81560247D02*
X162715714Y-81179295D01*
X162715714Y-81179295D02*
X162668095Y-81084057D01*
X162668095Y-81084057D02*
X162620476Y-81036438D01*
X162620476Y-81036438D02*
X162525238Y-80988819D01*
X162525238Y-80988819D02*
X162334762Y-80988819D01*
X162334762Y-80988819D02*
X162239524Y-81036438D01*
X162239524Y-81036438D02*
X162191905Y-81084057D01*
X162191905Y-81084057D02*
X162144286Y-81179295D01*
X162144286Y-81179295D02*
X162144286Y-81417390D01*
X162144286Y-81417390D02*
X162191905Y-81512628D01*
X162191905Y-81512628D02*
X162239524Y-81560247D01*
X162239524Y-81560247D02*
X162334762Y-81607866D01*
X162334762Y-81607866D02*
X162525238Y-81607866D01*
X162525238Y-81607866D02*
X162620476Y-81560247D01*
X162620476Y-81560247D02*
X162668095Y-81512628D01*
X162668095Y-81512628D02*
X162715714Y-81417390D01*
X133241905Y-93414819D02*
X133241905Y-92414819D01*
X133241905Y-92414819D02*
X133480000Y-92414819D01*
X133480000Y-92414819D02*
X133622857Y-92462438D01*
X133622857Y-92462438D02*
X133718095Y-92557676D01*
X133718095Y-92557676D02*
X133765714Y-92652914D01*
X133765714Y-92652914D02*
X133813333Y-92843390D01*
X133813333Y-92843390D02*
X133813333Y-92986247D01*
X133813333Y-92986247D02*
X133765714Y-93176723D01*
X133765714Y-93176723D02*
X133718095Y-93271961D01*
X133718095Y-93271961D02*
X133622857Y-93367200D01*
X133622857Y-93367200D02*
X133480000Y-93414819D01*
X133480000Y-93414819D02*
X133241905Y-93414819D01*
X134670476Y-92414819D02*
X134480000Y-92414819D01*
X134480000Y-92414819D02*
X134384762Y-92462438D01*
X134384762Y-92462438D02*
X134337143Y-92510057D01*
X134337143Y-92510057D02*
X134241905Y-92652914D01*
X134241905Y-92652914D02*
X134194286Y-92843390D01*
X134194286Y-92843390D02*
X134194286Y-93224342D01*
X134194286Y-93224342D02*
X134241905Y-93319580D01*
X134241905Y-93319580D02*
X134289524Y-93367200D01*
X134289524Y-93367200D02*
X134384762Y-93414819D01*
X134384762Y-93414819D02*
X134575238Y-93414819D01*
X134575238Y-93414819D02*
X134670476Y-93367200D01*
X134670476Y-93367200D02*
X134718095Y-93319580D01*
X134718095Y-93319580D02*
X134765714Y-93224342D01*
X134765714Y-93224342D02*
X134765714Y-92986247D01*
X134765714Y-92986247D02*
X134718095Y-92891009D01*
X134718095Y-92891009D02*
X134670476Y-92843390D01*
X134670476Y-92843390D02*
X134575238Y-92795771D01*
X134575238Y-92795771D02*
X134384762Y-92795771D01*
X134384762Y-92795771D02*
X134289524Y-92843390D01*
X134289524Y-92843390D02*
X134241905Y-92891009D01*
X134241905Y-92891009D02*
X134194286Y-92986247D01*
X143401905Y-56684819D02*
X143401905Y-55684819D01*
X143401905Y-55684819D02*
X143640000Y-55684819D01*
X143640000Y-55684819D02*
X143782857Y-55732438D01*
X143782857Y-55732438D02*
X143878095Y-55827676D01*
X143878095Y-55827676D02*
X143925714Y-55922914D01*
X143925714Y-55922914D02*
X143973333Y-56113390D01*
X143973333Y-56113390D02*
X143973333Y-56256247D01*
X143973333Y-56256247D02*
X143925714Y-56446723D01*
X143925714Y-56446723D02*
X143878095Y-56541961D01*
X143878095Y-56541961D02*
X143782857Y-56637200D01*
X143782857Y-56637200D02*
X143640000Y-56684819D01*
X143640000Y-56684819D02*
X143401905Y-56684819D01*
X144925714Y-56684819D02*
X144354286Y-56684819D01*
X144640000Y-56684819D02*
X144640000Y-55684819D01*
X144640000Y-55684819D02*
X144544762Y-55827676D01*
X144544762Y-55827676D02*
X144449524Y-55922914D01*
X144449524Y-55922914D02*
X144354286Y-55970533D01*
X108471905Y-59274819D02*
X108471905Y-58274819D01*
X108471905Y-58274819D02*
X108710000Y-58274819D01*
X108710000Y-58274819D02*
X108852857Y-58322438D01*
X108852857Y-58322438D02*
X108948095Y-58417676D01*
X108948095Y-58417676D02*
X108995714Y-58512914D01*
X108995714Y-58512914D02*
X109043333Y-58703390D01*
X109043333Y-58703390D02*
X109043333Y-58846247D01*
X109043333Y-58846247D02*
X108995714Y-59036723D01*
X108995714Y-59036723D02*
X108948095Y-59131961D01*
X108948095Y-59131961D02*
X108852857Y-59227200D01*
X108852857Y-59227200D02*
X108710000Y-59274819D01*
X108710000Y-59274819D02*
X108471905Y-59274819D01*
X109948095Y-58274819D02*
X109471905Y-58274819D01*
X109471905Y-58274819D02*
X109424286Y-58751009D01*
X109424286Y-58751009D02*
X109471905Y-58703390D01*
X109471905Y-58703390D02*
X109567143Y-58655771D01*
X109567143Y-58655771D02*
X109805238Y-58655771D01*
X109805238Y-58655771D02*
X109900476Y-58703390D01*
X109900476Y-58703390D02*
X109948095Y-58751009D01*
X109948095Y-58751009D02*
X109995714Y-58846247D01*
X109995714Y-58846247D02*
X109995714Y-59084342D01*
X109995714Y-59084342D02*
X109948095Y-59179580D01*
X109948095Y-59179580D02*
X109900476Y-59227200D01*
X109900476Y-59227200D02*
X109805238Y-59274819D01*
X109805238Y-59274819D02*
X109567143Y-59274819D01*
X109567143Y-59274819D02*
X109471905Y-59227200D01*
X109471905Y-59227200D02*
X109424286Y-59179580D01*
X154365714Y-47825819D02*
X154365714Y-46825819D01*
X154365714Y-46825819D02*
X154603809Y-46825819D01*
X154603809Y-46825819D02*
X154746666Y-46873438D01*
X154746666Y-46873438D02*
X154841904Y-46968676D01*
X154841904Y-46968676D02*
X154889523Y-47063914D01*
X154889523Y-47063914D02*
X154937142Y-47254390D01*
X154937142Y-47254390D02*
X154937142Y-47397247D01*
X154937142Y-47397247D02*
X154889523Y-47587723D01*
X154889523Y-47587723D02*
X154841904Y-47682961D01*
X154841904Y-47682961D02*
X154746666Y-47778200D01*
X154746666Y-47778200D02*
X154603809Y-47825819D01*
X154603809Y-47825819D02*
X154365714Y-47825819D01*
X155889523Y-47825819D02*
X155318095Y-47825819D01*
X155603809Y-47825819D02*
X155603809Y-46825819D01*
X155603809Y-46825819D02*
X155508571Y-46968676D01*
X155508571Y-46968676D02*
X155413333Y-47063914D01*
X155413333Y-47063914D02*
X155318095Y-47111533D01*
X156746666Y-46825819D02*
X156556190Y-46825819D01*
X156556190Y-46825819D02*
X156460952Y-46873438D01*
X156460952Y-46873438D02*
X156413333Y-46921057D01*
X156413333Y-46921057D02*
X156318095Y-47063914D01*
X156318095Y-47063914D02*
X156270476Y-47254390D01*
X156270476Y-47254390D02*
X156270476Y-47635342D01*
X156270476Y-47635342D02*
X156318095Y-47730580D01*
X156318095Y-47730580D02*
X156365714Y-47778200D01*
X156365714Y-47778200D02*
X156460952Y-47825819D01*
X156460952Y-47825819D02*
X156651428Y-47825819D01*
X156651428Y-47825819D02*
X156746666Y-47778200D01*
X156746666Y-47778200D02*
X156794285Y-47730580D01*
X156794285Y-47730580D02*
X156841904Y-47635342D01*
X156841904Y-47635342D02*
X156841904Y-47397247D01*
X156841904Y-47397247D02*
X156794285Y-47302009D01*
X156794285Y-47302009D02*
X156746666Y-47254390D01*
X156746666Y-47254390D02*
X156651428Y-47206771D01*
X156651428Y-47206771D02*
X156460952Y-47206771D01*
X156460952Y-47206771D02*
X156365714Y-47254390D01*
X156365714Y-47254390D02*
X156318095Y-47302009D01*
X156318095Y-47302009D02*
X156270476Y-47397247D01*
X120541905Y-41594819D02*
X120541905Y-40594819D01*
X120541905Y-40594819D02*
X120780000Y-40594819D01*
X120780000Y-40594819D02*
X120922857Y-40642438D01*
X120922857Y-40642438D02*
X121018095Y-40737676D01*
X121018095Y-40737676D02*
X121065714Y-40832914D01*
X121065714Y-40832914D02*
X121113333Y-41023390D01*
X121113333Y-41023390D02*
X121113333Y-41166247D01*
X121113333Y-41166247D02*
X121065714Y-41356723D01*
X121065714Y-41356723D02*
X121018095Y-41451961D01*
X121018095Y-41451961D02*
X120922857Y-41547200D01*
X120922857Y-41547200D02*
X120780000Y-41594819D01*
X120780000Y-41594819D02*
X120541905Y-41594819D01*
X121446667Y-40594819D02*
X122065714Y-40594819D01*
X122065714Y-40594819D02*
X121732381Y-40975771D01*
X121732381Y-40975771D02*
X121875238Y-40975771D01*
X121875238Y-40975771D02*
X121970476Y-41023390D01*
X121970476Y-41023390D02*
X122018095Y-41071009D01*
X122018095Y-41071009D02*
X122065714Y-41166247D01*
X122065714Y-41166247D02*
X122065714Y-41404342D01*
X122065714Y-41404342D02*
X122018095Y-41499580D01*
X122018095Y-41499580D02*
X121970476Y-41547200D01*
X121970476Y-41547200D02*
X121875238Y-41594819D01*
X121875238Y-41594819D02*
X121589524Y-41594819D01*
X121589524Y-41594819D02*
X121494286Y-41547200D01*
X121494286Y-41547200D02*
X121446667Y-41499580D01*
X142811666Y-95314819D02*
X142478333Y-94838628D01*
X142240238Y-95314819D02*
X142240238Y-94314819D01*
X142240238Y-94314819D02*
X142621190Y-94314819D01*
X142621190Y-94314819D02*
X142716428Y-94362438D01*
X142716428Y-94362438D02*
X142764047Y-94410057D01*
X142764047Y-94410057D02*
X142811666Y-94505295D01*
X142811666Y-94505295D02*
X142811666Y-94648152D01*
X142811666Y-94648152D02*
X142764047Y-94743390D01*
X142764047Y-94743390D02*
X142716428Y-94791009D01*
X142716428Y-94791009D02*
X142621190Y-94838628D01*
X142621190Y-94838628D02*
X142240238Y-94838628D01*
X143240238Y-94791009D02*
X143573571Y-94791009D01*
X143716428Y-95314819D02*
X143240238Y-95314819D01*
X143240238Y-95314819D02*
X143240238Y-94314819D01*
X143240238Y-94314819D02*
X143716428Y-94314819D01*
X144478333Y-94791009D02*
X144145000Y-94791009D01*
X144145000Y-95314819D02*
X144145000Y-94314819D01*
X144145000Y-94314819D02*
X144621190Y-94314819D01*
X145145000Y-94314819D02*
X145145000Y-94552914D01*
X144906905Y-94457676D02*
X145145000Y-94552914D01*
X145145000Y-94552914D02*
X145383095Y-94457676D01*
X145002143Y-94743390D02*
X145145000Y-94552914D01*
X145145000Y-94552914D02*
X145287857Y-94743390D01*
X145906905Y-94314819D02*
X145906905Y-94552914D01*
X145668810Y-94457676D02*
X145906905Y-94552914D01*
X145906905Y-94552914D02*
X146145000Y-94457676D01*
X145764048Y-94743390D02*
X145906905Y-94552914D01*
X145906905Y-94552914D02*
X146049762Y-94743390D01*
X143401905Y-104894819D02*
X143401905Y-103894819D01*
X143401905Y-103894819D02*
X143640000Y-103894819D01*
X143640000Y-103894819D02*
X143782857Y-103942438D01*
X143782857Y-103942438D02*
X143878095Y-104037676D01*
X143878095Y-104037676D02*
X143925714Y-104132914D01*
X143925714Y-104132914D02*
X143973333Y-104323390D01*
X143973333Y-104323390D02*
X143973333Y-104466247D01*
X143973333Y-104466247D02*
X143925714Y-104656723D01*
X143925714Y-104656723D02*
X143878095Y-104751961D01*
X143878095Y-104751961D02*
X143782857Y-104847200D01*
X143782857Y-104847200D02*
X143640000Y-104894819D01*
X143640000Y-104894819D02*
X143401905Y-104894819D01*
X144306667Y-103894819D02*
X144973333Y-103894819D01*
X144973333Y-103894819D02*
X144544762Y-104894819D01*
X165795714Y-41515819D02*
X165795714Y-40515819D01*
X165795714Y-40515819D02*
X166033809Y-40515819D01*
X166033809Y-40515819D02*
X166176666Y-40563438D01*
X166176666Y-40563438D02*
X166271904Y-40658676D01*
X166271904Y-40658676D02*
X166319523Y-40753914D01*
X166319523Y-40753914D02*
X166367142Y-40944390D01*
X166367142Y-40944390D02*
X166367142Y-41087247D01*
X166367142Y-41087247D02*
X166319523Y-41277723D01*
X166319523Y-41277723D02*
X166271904Y-41372961D01*
X166271904Y-41372961D02*
X166176666Y-41468200D01*
X166176666Y-41468200D02*
X166033809Y-41515819D01*
X166033809Y-41515819D02*
X165795714Y-41515819D01*
X167319523Y-41515819D02*
X166748095Y-41515819D01*
X167033809Y-41515819D02*
X167033809Y-40515819D01*
X167033809Y-40515819D02*
X166938571Y-40658676D01*
X166938571Y-40658676D02*
X166843333Y-40753914D01*
X166843333Y-40753914D02*
X166748095Y-40801533D01*
X168224285Y-40515819D02*
X167748095Y-40515819D01*
X167748095Y-40515819D02*
X167700476Y-40992009D01*
X167700476Y-40992009D02*
X167748095Y-40944390D01*
X167748095Y-40944390D02*
X167843333Y-40896771D01*
X167843333Y-40896771D02*
X168081428Y-40896771D01*
X168081428Y-40896771D02*
X168176666Y-40944390D01*
X168176666Y-40944390D02*
X168224285Y-40992009D01*
X168224285Y-40992009D02*
X168271904Y-41087247D01*
X168271904Y-41087247D02*
X168271904Y-41325342D01*
X168271904Y-41325342D02*
X168224285Y-41420580D01*
X168224285Y-41420580D02*
X168176666Y-41468200D01*
X168176666Y-41468200D02*
X168081428Y-41515819D01*
X168081428Y-41515819D02*
X167843333Y-41515819D01*
X167843333Y-41515819D02*
X167748095Y-41468200D01*
X167748095Y-41468200D02*
X167700476Y-41420580D01*
X131971905Y-47794819D02*
X131971905Y-46794819D01*
X131971905Y-46794819D02*
X132210000Y-46794819D01*
X132210000Y-46794819D02*
X132352857Y-46842438D01*
X132352857Y-46842438D02*
X132448095Y-46937676D01*
X132448095Y-46937676D02*
X132495714Y-47032914D01*
X132495714Y-47032914D02*
X132543333Y-47223390D01*
X132543333Y-47223390D02*
X132543333Y-47366247D01*
X132543333Y-47366247D02*
X132495714Y-47556723D01*
X132495714Y-47556723D02*
X132448095Y-47651961D01*
X132448095Y-47651961D02*
X132352857Y-47747200D01*
X132352857Y-47747200D02*
X132210000Y-47794819D01*
X132210000Y-47794819D02*
X131971905Y-47794819D01*
X132924286Y-46890057D02*
X132971905Y-46842438D01*
X132971905Y-46842438D02*
X133067143Y-46794819D01*
X133067143Y-46794819D02*
X133305238Y-46794819D01*
X133305238Y-46794819D02*
X133400476Y-46842438D01*
X133400476Y-46842438D02*
X133448095Y-46890057D01*
X133448095Y-46890057D02*
X133495714Y-46985295D01*
X133495714Y-46985295D02*
X133495714Y-47080533D01*
X133495714Y-47080533D02*
X133448095Y-47223390D01*
X133448095Y-47223390D02*
X132876667Y-47794819D01*
X132876667Y-47794819D02*
X133495714Y-47794819D01*
X178109714Y-59382819D02*
X178109714Y-58382819D01*
X178109714Y-58382819D02*
X178347809Y-58382819D01*
X178347809Y-58382819D02*
X178490666Y-58430438D01*
X178490666Y-58430438D02*
X178585904Y-58525676D01*
X178585904Y-58525676D02*
X178633523Y-58620914D01*
X178633523Y-58620914D02*
X178681142Y-58811390D01*
X178681142Y-58811390D02*
X178681142Y-58954247D01*
X178681142Y-58954247D02*
X178633523Y-59144723D01*
X178633523Y-59144723D02*
X178585904Y-59239961D01*
X178585904Y-59239961D02*
X178490666Y-59335200D01*
X178490666Y-59335200D02*
X178347809Y-59382819D01*
X178347809Y-59382819D02*
X178109714Y-59382819D01*
X179633523Y-59382819D02*
X179062095Y-59382819D01*
X179347809Y-59382819D02*
X179347809Y-58382819D01*
X179347809Y-58382819D02*
X179252571Y-58525676D01*
X179252571Y-58525676D02*
X179157333Y-58620914D01*
X179157333Y-58620914D02*
X179062095Y-58668533D01*
X179966857Y-58382819D02*
X180585904Y-58382819D01*
X180585904Y-58382819D02*
X180252571Y-58763771D01*
X180252571Y-58763771D02*
X180395428Y-58763771D01*
X180395428Y-58763771D02*
X180490666Y-58811390D01*
X180490666Y-58811390D02*
X180538285Y-58859009D01*
X180538285Y-58859009D02*
X180585904Y-58954247D01*
X180585904Y-58954247D02*
X180585904Y-59192342D01*
X180585904Y-59192342D02*
X180538285Y-59287580D01*
X180538285Y-59287580D02*
X180490666Y-59335200D01*
X180490666Y-59335200D02*
X180395428Y-59382819D01*
X180395428Y-59382819D02*
X180109714Y-59382819D01*
X180109714Y-59382819D02*
X180014476Y-59335200D01*
X180014476Y-59335200D02*
X179966857Y-59287580D01*
X116890714Y-70754819D02*
X116890714Y-69754819D01*
X116890714Y-69754819D02*
X117128809Y-69754819D01*
X117128809Y-69754819D02*
X117271666Y-69802438D01*
X117271666Y-69802438D02*
X117366904Y-69897676D01*
X117366904Y-69897676D02*
X117414523Y-69992914D01*
X117414523Y-69992914D02*
X117462142Y-70183390D01*
X117462142Y-70183390D02*
X117462142Y-70326247D01*
X117462142Y-70326247D02*
X117414523Y-70516723D01*
X117414523Y-70516723D02*
X117366904Y-70611961D01*
X117366904Y-70611961D02*
X117271666Y-70707200D01*
X117271666Y-70707200D02*
X117128809Y-70754819D01*
X117128809Y-70754819D02*
X116890714Y-70754819D01*
X118414523Y-70754819D02*
X117843095Y-70754819D01*
X118128809Y-70754819D02*
X118128809Y-69754819D01*
X118128809Y-69754819D02*
X118033571Y-69897676D01*
X118033571Y-69897676D02*
X117938333Y-69992914D01*
X117938333Y-69992914D02*
X117843095Y-70040533D01*
X119366904Y-70754819D02*
X118795476Y-70754819D01*
X119081190Y-70754819D02*
X119081190Y-69754819D01*
X119081190Y-69754819D02*
X118985952Y-69897676D01*
X118985952Y-69897676D02*
X118890714Y-69992914D01*
X118890714Y-69992914D02*
X118795476Y-70040533D01*
X153561905Y-93418819D02*
X153561905Y-92418819D01*
X153561905Y-92418819D02*
X153800000Y-92418819D01*
X153800000Y-92418819D02*
X153942857Y-92466438D01*
X153942857Y-92466438D02*
X154038095Y-92561676D01*
X154038095Y-92561676D02*
X154085714Y-92656914D01*
X154085714Y-92656914D02*
X154133333Y-92847390D01*
X154133333Y-92847390D02*
X154133333Y-92990247D01*
X154133333Y-92990247D02*
X154085714Y-93180723D01*
X154085714Y-93180723D02*
X154038095Y-93275961D01*
X154038095Y-93275961D02*
X153942857Y-93371200D01*
X153942857Y-93371200D02*
X153800000Y-93418819D01*
X153800000Y-93418819D02*
X153561905Y-93418819D01*
X154704762Y-92847390D02*
X154609524Y-92799771D01*
X154609524Y-92799771D02*
X154561905Y-92752152D01*
X154561905Y-92752152D02*
X154514286Y-92656914D01*
X154514286Y-92656914D02*
X154514286Y-92609295D01*
X154514286Y-92609295D02*
X154561905Y-92514057D01*
X154561905Y-92514057D02*
X154609524Y-92466438D01*
X154609524Y-92466438D02*
X154704762Y-92418819D01*
X154704762Y-92418819D02*
X154895238Y-92418819D01*
X154895238Y-92418819D02*
X154990476Y-92466438D01*
X154990476Y-92466438D02*
X155038095Y-92514057D01*
X155038095Y-92514057D02*
X155085714Y-92609295D01*
X155085714Y-92609295D02*
X155085714Y-92656914D01*
X155085714Y-92656914D02*
X155038095Y-92752152D01*
X155038095Y-92752152D02*
X154990476Y-92799771D01*
X154990476Y-92799771D02*
X154895238Y-92847390D01*
X154895238Y-92847390D02*
X154704762Y-92847390D01*
X154704762Y-92847390D02*
X154609524Y-92895009D01*
X154609524Y-92895009D02*
X154561905Y-92942628D01*
X154561905Y-92942628D02*
X154514286Y-93037866D01*
X154514286Y-93037866D02*
X154514286Y-93228342D01*
X154514286Y-93228342D02*
X154561905Y-93323580D01*
X154561905Y-93323580D02*
X154609524Y-93371200D01*
X154609524Y-93371200D02*
X154704762Y-93418819D01*
X154704762Y-93418819D02*
X154895238Y-93418819D01*
X154895238Y-93418819D02*
X154990476Y-93371200D01*
X154990476Y-93371200D02*
X155038095Y-93323580D01*
X155038095Y-93323580D02*
X155085714Y-93228342D01*
X155085714Y-93228342D02*
X155085714Y-93037866D01*
X155085714Y-93037866D02*
X155038095Y-92942628D01*
X155038095Y-92942628D02*
X154990476Y-92895009D01*
X154990476Y-92895009D02*
X154895238Y-92847390D01*
X168970714Y-70812819D02*
X168970714Y-69812819D01*
X168970714Y-69812819D02*
X169208809Y-69812819D01*
X169208809Y-69812819D02*
X169351666Y-69860438D01*
X169351666Y-69860438D02*
X169446904Y-69955676D01*
X169446904Y-69955676D02*
X169494523Y-70050914D01*
X169494523Y-70050914D02*
X169542142Y-70241390D01*
X169542142Y-70241390D02*
X169542142Y-70384247D01*
X169542142Y-70384247D02*
X169494523Y-70574723D01*
X169494523Y-70574723D02*
X169446904Y-70669961D01*
X169446904Y-70669961D02*
X169351666Y-70765200D01*
X169351666Y-70765200D02*
X169208809Y-70812819D01*
X169208809Y-70812819D02*
X168970714Y-70812819D01*
X170494523Y-70812819D02*
X169923095Y-70812819D01*
X170208809Y-70812819D02*
X170208809Y-69812819D01*
X170208809Y-69812819D02*
X170113571Y-69955676D01*
X170113571Y-69955676D02*
X170018333Y-70050914D01*
X170018333Y-70050914D02*
X169923095Y-70098533D01*
X171113571Y-69812819D02*
X171208809Y-69812819D01*
X171208809Y-69812819D02*
X171304047Y-69860438D01*
X171304047Y-69860438D02*
X171351666Y-69908057D01*
X171351666Y-69908057D02*
X171399285Y-70003295D01*
X171399285Y-70003295D02*
X171446904Y-70193771D01*
X171446904Y-70193771D02*
X171446904Y-70431866D01*
X171446904Y-70431866D02*
X171399285Y-70622342D01*
X171399285Y-70622342D02*
X171351666Y-70717580D01*
X171351666Y-70717580D02*
X171304047Y-70765200D01*
X171304047Y-70765200D02*
X171208809Y-70812819D01*
X171208809Y-70812819D02*
X171113571Y-70812819D01*
X171113571Y-70812819D02*
X171018333Y-70765200D01*
X171018333Y-70765200D02*
X170970714Y-70717580D01*
X170970714Y-70717580D02*
X170923095Y-70622342D01*
X170923095Y-70622342D02*
X170875476Y-70431866D01*
X170875476Y-70431866D02*
X170875476Y-70193771D01*
X170875476Y-70193771D02*
X170923095Y-70003295D01*
X170923095Y-70003295D02*
X170970714Y-69908057D01*
X170970714Y-69908057D02*
X171018333Y-69860438D01*
X171018333Y-69860438D02*
X171113571Y-69812819D01*
X177225714Y-47825819D02*
X177225714Y-46825819D01*
X177225714Y-46825819D02*
X177463809Y-46825819D01*
X177463809Y-46825819D02*
X177606666Y-46873438D01*
X177606666Y-46873438D02*
X177701904Y-46968676D01*
X177701904Y-46968676D02*
X177749523Y-47063914D01*
X177749523Y-47063914D02*
X177797142Y-47254390D01*
X177797142Y-47254390D02*
X177797142Y-47397247D01*
X177797142Y-47397247D02*
X177749523Y-47587723D01*
X177749523Y-47587723D02*
X177701904Y-47682961D01*
X177701904Y-47682961D02*
X177606666Y-47778200D01*
X177606666Y-47778200D02*
X177463809Y-47825819D01*
X177463809Y-47825819D02*
X177225714Y-47825819D01*
X178749523Y-47825819D02*
X178178095Y-47825819D01*
X178463809Y-47825819D02*
X178463809Y-46825819D01*
X178463809Y-46825819D02*
X178368571Y-46968676D01*
X178368571Y-46968676D02*
X178273333Y-47063914D01*
X178273333Y-47063914D02*
X178178095Y-47111533D01*
X179606666Y-47159152D02*
X179606666Y-47825819D01*
X179368571Y-46778200D02*
X179130476Y-47492485D01*
X179130476Y-47492485D02*
X179749523Y-47492485D01*
X109111905Y-47794819D02*
X109111905Y-46794819D01*
X109111905Y-46794819D02*
X109350000Y-46794819D01*
X109350000Y-46794819D02*
X109492857Y-46842438D01*
X109492857Y-46842438D02*
X109588095Y-46937676D01*
X109588095Y-46937676D02*
X109635714Y-47032914D01*
X109635714Y-47032914D02*
X109683333Y-47223390D01*
X109683333Y-47223390D02*
X109683333Y-47366247D01*
X109683333Y-47366247D02*
X109635714Y-47556723D01*
X109635714Y-47556723D02*
X109588095Y-47651961D01*
X109588095Y-47651961D02*
X109492857Y-47747200D01*
X109492857Y-47747200D02*
X109350000Y-47794819D01*
X109350000Y-47794819D02*
X109111905Y-47794819D01*
X110540476Y-47128152D02*
X110540476Y-47794819D01*
X110302381Y-46747200D02*
X110064286Y-47461485D01*
X110064286Y-47461485D02*
X110683333Y-47461485D01*
D14*
%TO.C,D12*%
X124300001Y-86338749D02*
G75*
G03*
X128603241Y-86020724I2059999J1398749D01*
G01*
X124676671Y-86019999D02*
G75*
G03*
X128042712Y-86020960I1683329J1079999D01*
G01*
X128042712Y-83859040D02*
G75*
G03*
X124676671Y-83860001I-1682712J-1080960D01*
G01*
X128603241Y-83859276D02*
G75*
G03*
X124300001Y-83541251I-2243241J-1080724D01*
G01*
X124300000Y-86020000D02*
X124300000Y-86339000D01*
X124300000Y-83541000D02*
X124300000Y-83860000D01*
%TO.C,D9*%
X163989999Y-83541251D02*
G75*
G03*
X159686759Y-83859276I-2059999J-1398749D01*
G01*
X163613329Y-83860001D02*
G75*
G03*
X160247288Y-83859040I-1683329J-1079999D01*
G01*
X160247288Y-86020960D02*
G75*
G03*
X163613329Y-86019999I1682712J1080960D01*
G01*
X159686759Y-86020724D02*
G75*
G03*
X163989999Y-86338749I2243241J1080724D01*
G01*
X163990000Y-83860000D02*
X163990000Y-83541000D01*
X163990000Y-86339000D02*
X163990000Y-86020000D01*
%TO.C,D6*%
X131920001Y-97818749D02*
G75*
G03*
X136223241Y-97500724I2059999J1398749D01*
G01*
X132296671Y-97499999D02*
G75*
G03*
X135662712Y-97500960I1683329J1079999D01*
G01*
X135662712Y-95339040D02*
G75*
G03*
X132296671Y-95340001I-1682712J-1080960D01*
G01*
X136223241Y-95339276D02*
G75*
G03*
X131920001Y-95021251I-2243241J-1080724D01*
G01*
X131920000Y-97500000D02*
X131920000Y-97819000D01*
X131920000Y-95021000D02*
X131920000Y-95340000D01*
%TO.C,D1*%
X142080001Y-61088749D02*
G75*
G03*
X146383241Y-60770724I2059999J1398749D01*
G01*
X142456671Y-60769999D02*
G75*
G03*
X145822712Y-60770960I1683329J1079999D01*
G01*
X145822712Y-58609040D02*
G75*
G03*
X142456671Y-58610001I-1682712J-1080960D01*
G01*
X146383241Y-58609276D02*
G75*
G03*
X142080001Y-58291251I-2243241J-1080724D01*
G01*
X142080000Y-60770000D02*
X142080000Y-61089000D01*
X142080000Y-58291000D02*
X142080000Y-58610000D01*
%TO.C,D5*%
X107150001Y-63678749D02*
G75*
G03*
X111453241Y-63360724I2059999J1398749D01*
G01*
X107526671Y-63359999D02*
G75*
G03*
X110892712Y-63360960I1683329J1079999D01*
G01*
X110892712Y-61199040D02*
G75*
G03*
X107526671Y-61200001I-1682712J-1080960D01*
G01*
X111453241Y-61199276D02*
G75*
G03*
X107150001Y-60881251I-2243241J-1080724D01*
G01*
X107150000Y-63360000D02*
X107150000Y-63679000D01*
X107150000Y-60881000D02*
X107150000Y-61200000D01*
%TO.C,D16*%
X157639999Y-49401251D02*
G75*
G03*
X153336759Y-49719276I-2059999J-1398749D01*
G01*
X157263329Y-49720001D02*
G75*
G03*
X153897288Y-49719040I-1683329J-1079999D01*
G01*
X153897288Y-51880960D02*
G75*
G03*
X157263329Y-51879999I1682712J1080960D01*
G01*
X153336759Y-51880724D02*
G75*
G03*
X157639999Y-52198749I2243241J1080724D01*
G01*
X157640000Y-49720000D02*
X157640000Y-49401000D01*
X157640000Y-52199000D02*
X157640000Y-51880000D01*
%TO.C,D3*%
X119220001Y-45998749D02*
G75*
G03*
X123523241Y-45680724I2059999J1398749D01*
G01*
X119596671Y-45679999D02*
G75*
G03*
X122962712Y-45680960I1683329J1079999D01*
G01*
X122962712Y-43519040D02*
G75*
G03*
X119596671Y-43520001I-1682712J-1080960D01*
G01*
X123523241Y-43519276D02*
G75*
G03*
X119220001Y-43201251I-2243241J-1080724D01*
G01*
X119220000Y-45680000D02*
X119220000Y-45999000D01*
X119220000Y-43201000D02*
X119220000Y-43520000D01*
%TO.C,D7*%
X142080001Y-109298749D02*
G75*
G03*
X146383241Y-108980724I2059999J1398749D01*
G01*
X142456671Y-108979999D02*
G75*
G03*
X145822712Y-108980960I1683329J1079999D01*
G01*
X145822712Y-106819040D02*
G75*
G03*
X142456671Y-106820001I-1682712J-1080960D01*
G01*
X146383241Y-106819276D02*
G75*
G03*
X142080001Y-106501251I-2243241J-1080724D01*
G01*
X142080000Y-108980000D02*
X142080000Y-109299000D01*
X142080000Y-106501000D02*
X142080000Y-106820000D01*
%TO.C,D15*%
X169069999Y-43091251D02*
G75*
G03*
X164766759Y-43409276I-2059999J-1398749D01*
G01*
X168693329Y-43410001D02*
G75*
G03*
X165327288Y-43409040I-1683329J-1079999D01*
G01*
X165327288Y-45570960D02*
G75*
G03*
X168693329Y-45569999I1682712J1080960D01*
G01*
X164766759Y-45570724D02*
G75*
G03*
X169069999Y-45888749I2243241J1080724D01*
G01*
X169070000Y-43410000D02*
X169070000Y-43091000D01*
X169070000Y-45889000D02*
X169070000Y-45570000D01*
%TO.C,D2*%
X130650001Y-52198749D02*
G75*
G03*
X134953241Y-51880724I2059999J1398749D01*
G01*
X131026671Y-51879999D02*
G75*
G03*
X134392712Y-51880960I1683329J1079999D01*
G01*
X134392712Y-49719040D02*
G75*
G03*
X131026671Y-49720001I-1682712J-1080960D01*
G01*
X134953241Y-49719276D02*
G75*
G03*
X130650001Y-49401251I-2243241J-1080724D01*
G01*
X130650000Y-51880000D02*
X130650000Y-52199000D01*
X130650000Y-49401000D02*
X130650000Y-49720000D01*
%TO.C,D13*%
X181139999Y-60881251D02*
G75*
G03*
X176836759Y-61199276I-2059999J-1398749D01*
G01*
X180763329Y-61200001D02*
G75*
G03*
X177397288Y-61199040I-1683329J-1079999D01*
G01*
X177397288Y-63360960D02*
G75*
G03*
X180763329Y-63359999I1682712J1080960D01*
G01*
X176836759Y-63360724D02*
G75*
G03*
X181139999Y-63678749I2243241J1080724D01*
G01*
X181140000Y-61200000D02*
X181140000Y-60881000D01*
X181140000Y-63679000D02*
X181140000Y-63360000D01*
%TO.C,D11*%
X116045001Y-75158749D02*
G75*
G03*
X120348241Y-74840724I2059999J1398749D01*
G01*
X116421671Y-74839999D02*
G75*
G03*
X119787712Y-74840960I1683329J1079999D01*
G01*
X119787712Y-72679040D02*
G75*
G03*
X116421671Y-72680001I-1682712J-1080960D01*
G01*
X120348241Y-72679276D02*
G75*
G03*
X116045001Y-72361251I-2243241J-1080724D01*
G01*
X116045000Y-74840000D02*
X116045000Y-75159000D01*
X116045000Y-72361000D02*
X116045000Y-72680000D01*
%TO.C,D8*%
X156369999Y-95021251D02*
G75*
G03*
X152066759Y-95339276I-2059999J-1398749D01*
G01*
X155993329Y-95340001D02*
G75*
G03*
X152627288Y-95339040I-1683329J-1079999D01*
G01*
X152627288Y-97500960D02*
G75*
G03*
X155993329Y-97499999I1682712J1080960D01*
G01*
X152066759Y-97500724D02*
G75*
G03*
X156369999Y-97818749I2243241J1080724D01*
G01*
X156370000Y-95340000D02*
X156370000Y-95021000D01*
X156370000Y-97819000D02*
X156370000Y-97500000D01*
%TO.C,D10*%
X172244999Y-72361251D02*
G75*
G03*
X167941759Y-72679276I-2059999J-1398749D01*
G01*
X171868329Y-72680001D02*
G75*
G03*
X168502288Y-72679040I-1683329J-1079999D01*
G01*
X168502288Y-74840960D02*
G75*
G03*
X171868329Y-74839999I1682712J1080960D01*
G01*
X167941759Y-74840724D02*
G75*
G03*
X172244999Y-75158749I2243241J1080724D01*
G01*
X172245000Y-72680000D02*
X172245000Y-72361000D01*
X172245000Y-75159000D02*
X172245000Y-74840000D01*
%TO.C,D14*%
X180499999Y-49401251D02*
G75*
G03*
X176196759Y-49719276I-2059999J-1398749D01*
G01*
X180123329Y-49720001D02*
G75*
G03*
X176757288Y-49719040I-1683329J-1079999D01*
G01*
X176757288Y-51880960D02*
G75*
G03*
X180123329Y-51879999I1682712J1080960D01*
G01*
X176196759Y-51880724D02*
G75*
G03*
X180499999Y-52198749I2243241J1080724D01*
G01*
X180500000Y-49720000D02*
X180500000Y-49401000D01*
X180500000Y-52199000D02*
X180500000Y-51880000D01*
%TO.C,D4*%
X107790001Y-52198749D02*
G75*
G03*
X112093241Y-51880724I2059999J1398749D01*
G01*
X108166671Y-51879999D02*
G75*
G03*
X111532712Y-51880960I1683329J1079999D01*
G01*
X111532712Y-49719040D02*
G75*
G03*
X108166671Y-49720001I-1682712J-1080960D01*
G01*
X112093241Y-49719276D02*
G75*
G03*
X107790001Y-49401251I-2243241J-1080724D01*
G01*
X107790000Y-51880000D02*
X107790000Y-52199000D01*
X107790000Y-49401000D02*
X107790000Y-49720000D01*
%TD*%
M02*
