M48
; DRILL file {KiCad 8.0.4} date 2024-08-04T17:25:46-0400
; FORMAT={-:-/ absolute / inch / decimal}
; #@! TF.CreationDate,2024-08-04T17:25:46-04:00
; #@! TF.GenerationSoftware,Kicad,Pcbnew,8.0.4
; #@! TF.FileFunction,Plated,1,4,PTH
FMAT,2
INCH
; #@! TA.AperFunction,Plated,PTH,ViaDrill
T1C0.0118
; #@! TA.AperFunction,Plated,PTH,ComponentDrill
T2C0.0197
; #@! TA.AperFunction,Plated,PTH,ComponentDrill
T3C0.0217
; #@! TA.AperFunction,Plated,PTH,ComponentDrill
T4C0.0394
; #@! TA.AperFunction,Plated,PTH,ComponentDrill
T5C0.0472
%
G90
G05
T1
X1.7126Y-1.2717
X1.7126Y-1.626
X1.8701Y-1.752
X1.8701Y-2.3031
X1.8898Y-1.5079
X1.8898Y-2.2244
X1.9094Y-1.8898
X1.9685Y-1.8701
X1.9882Y-1.4921
X2.0079Y-1.4567
X2.0276Y-1.8465
X2.0669Y-2.1457
X2.0866Y-1.437
X2.0866Y-1.8228
X2.2244Y-1.7913
X2.2638Y-2.5
X2.3031Y-1.9882
X2.3031Y-2.2244
X2.4606Y-1.7913
X2.4803Y-1.2795
X2.5Y-2.5
X2.5197Y-1.9055
X2.5197Y-1.9882
X2.5443Y-1.8819
X2.5591Y-2.0866
X2.5787Y-1.8661
X2.6052Y-2.0472
X2.6181Y-1.7323
X2.6309Y-1.995
X2.6378Y-2.126
X2.6575Y-1.8504
X2.6575Y-2.2244
X2.6575Y-2.2638
X2.7165Y-1.2992
X2.7165Y-2.1772
X2.7318Y-1.8825
X2.7362Y-2.0472
X2.7362Y-2.1457
X2.7362Y-2.2087
X2.7471Y-2.003
X2.7628Y-1.8879
X2.7953Y-1.3386
X2.7953Y-1.4961
X2.7953Y-1.8701
X2.815Y-2.0669
X2.8189Y-2.2559
X2.8218Y-1.3711
X2.823Y-1.7026
X2.8346Y-1.6142
X2.8346Y-1.6732
X2.8504Y-1.7913
X2.8543Y-1.3622
X2.8731Y-2.066
X2.874Y-2.3039
X2.8877Y-1.3622
X2.9134Y-1.5748
X2.9134Y-2.1654
X2.9151Y-2.0673
X2.9263Y-1.9476
X2.9331Y-1.3622
X2.9331Y-2.0079
X2.9528Y-1.6535
X2.9528Y-2.2638
X2.9647Y-1.6854
X2.9921Y-1.6142
X3.0118Y-2.1457
X3.0138Y-1.8585
X3.0191Y-1.903
X3.0289Y-1.6116
X3.0315Y-1.315
X3.0315Y-1.6929
X3.0315Y-2.0276
X3.0512Y-1.6339
X3.0512Y-2.126
X3.0616Y-1.8797
X3.0691Y-1.7699
X3.0709Y-1.378
X3.0709Y-1.6732
X3.0976Y-1.8771
X3.1102Y-1.2992
X3.1106Y-1.8307
X3.125Y-2.063
X3.1299Y-1.8782
X3.1299Y-1.9127
X3.1299Y-2.0079
X3.1496Y-2.0827
X3.189Y-1.9449
X3.2087Y-1.4764
X3.2283Y-1.9449
X3.2677Y-1.9094
X3.3268Y-1.2205
X3.3268Y-1.3386
X3.3465Y-1.437
X3.3465Y-2.0276
X3.3661Y-1.811
X3.3927Y-2.0738
X3.4213Y-1.8071
X3.4213Y-1.8543
X3.4685Y-1.8307
X3.5039Y-1.8071
X3.5709Y-1.4134
X3.6063Y-1.3583
X3.6654Y-1.3386
X3.7028Y-1.3366
T4
X2.2071Y-1.122
X2.3071Y-1.122
X2.4071Y-1.122
X2.5071Y-1.122
X2.6071Y-1.122
X2.7071Y-1.122
X2.8071Y-1.122
X2.9071Y-1.122
X2.989Y-2.5197
X3.0071Y-1.122
X3.089Y-2.5197
X3.1071Y-1.122
X3.189Y-2.5197
X3.2071Y-1.122
X3.289Y-2.5197
X3.3071Y-1.122
T5
X3.1594Y-2.2343
X3.1594Y-2.4114
X3.4154Y-2.2343
X3.4154Y-2.4114
X3.4941Y-1.9193
X3.4941Y-2.1752
X3.6713Y-1.9193
X3.6713Y-2.1752
T2
G00X1.7254Y-1.315
M15
G01X1.6998Y-1.315
M16
G05
G00X1.7254Y-1.5906
M15
G01X1.6998Y-1.5906
M16
G05
T3
G00X1.8189Y-1.3484
M15
G01X1.8189Y-1.3602
M16
G05
G00X1.8189Y-1.5453
M15
G01X1.8189Y-1.5571
M16
G05
M30
