%TF.GenerationSoftware,KiCad,Pcbnew,8.0.4*%
%TF.CreationDate,2024-08-04T17:25:46-04:00*%
%TF.ProjectId,board,626f6172-642e-46b6-9963-61645f706362,rev?*%
%TF.SameCoordinates,Original*%
%TF.FileFunction,Copper,L4,Bot*%
%TF.FilePolarity,Positive*%
%FSLAX46Y46*%
G04 Gerber Fmt 4.6, Leading zero omitted, Abs format (unit mm)*
G04 Created by KiCad (PCBNEW 8.0.4) date 2024-08-04 17:25:46*
%MOMM*%
%LPD*%
G01*
G04 APERTURE LIST*
%TA.AperFunction,ComponentPad*%
%ADD10C,1.800000*%
%TD*%
%TA.AperFunction,ComponentPad*%
%ADD11R,1.700000X1.700000*%
%TD*%
%TA.AperFunction,ComponentPad*%
%ADD12O,1.700000X1.700000*%
%TD*%
%TA.AperFunction,ComponentPad*%
%ADD13O,1.550000X0.890000*%
%TD*%
%TA.AperFunction,ComponentPad*%
%ADD14O,0.950000X1.250000*%
%TD*%
%TA.AperFunction,ViaPad*%
%ADD15C,0.600000*%
%TD*%
%TA.AperFunction,Conductor*%
%ADD16C,0.200000*%
%TD*%
G04 APERTURE END LIST*
D10*
%TO.P,SW2,1,1*%
%TO.N,GND*%
X86750000Y-61250000D03*
%TO.P,SW2,2,2*%
X80250000Y-61250000D03*
%TO.P,SW2,3,3*%
%TO.N,/RUN*%
X86750000Y-56750000D03*
%TO.P,SW2,4,4*%
X80250000Y-56750000D03*
%TD*%
%TO.P,SW1,1,1*%
%TO.N,GND*%
X88750000Y-55250000D03*
%TO.P,SW1,2,2*%
X88750000Y-48750000D03*
%TO.P,SW1,3,3*%
%TO.N,Net-(R6-Pad1)*%
X93250000Y-55250000D03*
%TO.P,SW1,4,4*%
X93250000Y-48750000D03*
%TD*%
D11*
%TO.P,J2,1,Pin_1*%
%TO.N,Net-(J2-Pin_1)*%
X75920000Y-64000000D03*
D12*
%TO.P,J2,2,Pin_2*%
%TO.N,Net-(J2-Pin_2)*%
X78460000Y-64000000D03*
%TO.P,J2,3,Pin_3*%
%TO.N,/BLE_SWCLK*%
X81000000Y-64000000D03*
%TO.P,J2,4,Pin_4*%
%TO.N,/BLE_SWDIO*%
X83540000Y-64000000D03*
%TD*%
D11*
%TO.P,J3,1,Pin_1*%
%TO.N,Net-(J3-Pin_1)*%
X84000000Y-28500000D03*
D12*
%TO.P,J3,2,Pin_2*%
%TO.N,Net-(J3-Pin_2)*%
X81460000Y-28500000D03*
%TO.P,J3,3,Pin_3*%
%TO.N,Net-(J3-Pin_3)*%
X78920000Y-28500000D03*
%TO.P,J3,4,Pin_4*%
%TO.N,Net-(J3-Pin_4)*%
X76380000Y-28500000D03*
%TO.P,J3,5,Pin_5*%
%TO.N,Net-(J3-Pin_5)*%
X73840000Y-28500000D03*
%TO.P,J3,6,Pin_6*%
%TO.N,Net-(J3-Pin_6)*%
X71300000Y-28500000D03*
%TO.P,J3,7,Pin_7*%
%TO.N,Net-(J3-Pin_7)*%
X68760000Y-28500000D03*
%TO.P,J3,8,Pin_8*%
%TO.N,Net-(J3-Pin_8)*%
X66220000Y-28500000D03*
%TO.P,J3,9,Pin_9*%
%TO.N,unconnected-(J3-Pin_9-Pad9)*%
X63680000Y-28500000D03*
%TO.P,J3,10,Pin_10*%
%TO.N,unconnected-(J3-Pin_10-Pad10)*%
X61140000Y-28500000D03*
%TO.P,J3,11,Pin_11*%
%TO.N,unconnected-(J3-Pin_11-Pad11)*%
X58600000Y-28500000D03*
%TO.P,J3,12,Pin_12*%
%TO.N,unconnected-(J3-Pin_12-Pad12)*%
X56060000Y-28500000D03*
%TD*%
D13*
%TO.P,J4,6,Shield*%
%TO.N,GND*%
X43500000Y-33400000D03*
D14*
X46200000Y-34400000D03*
X46200000Y-39400000D03*
D13*
X43500000Y-40400000D03*
%TD*%
D15*
%TO.N,+3V3*%
X63000000Y-32500000D03*
%TO.N,Net-(R6-Pad1)*%
X85000000Y-51500000D03*
%TO.N,GND*%
X76000000Y-41000000D03*
X71500000Y-52500000D03*
X64000000Y-50500000D03*
X47500000Y-44500000D03*
X82000000Y-49400000D03*
X77000000Y-43000000D03*
X53000000Y-36500000D03*
X72000000Y-42500000D03*
X75000000Y-42000000D03*
X57500000Y-63500000D03*
X73000000Y-58520000D03*
X71000000Y-38000000D03*
X58500000Y-56500000D03*
X47500000Y-58500000D03*
X66500000Y-44000000D03*
X43500000Y-32300000D03*
X94050000Y-33950000D03*
X43500000Y-41300000D03*
X48000000Y-38300000D03*
X79500000Y-51000000D03*
X67500000Y-57500000D03*
X84500000Y-31000000D03*
X79010000Y-46500000D03*
X63500000Y-63500000D03*
%TO.N,+3V3*%
X80000000Y-52900000D03*
X71600000Y-57300006D03*
X66825735Y-50674265D03*
X93100000Y-34000000D03*
X77000000Y-33400000D03*
X65000000Y-53000000D03*
X67500000Y-47000000D03*
X77764877Y-47745123D03*
X83000000Y-48500000D03*
X72400000Y-45500000D03*
X77000000Y-51500000D03*
X84500000Y-34000000D03*
X75304175Y-42810112D03*
X58500000Y-50500000D03*
%TO.N,+1V1*%
X71703866Y-43247251D03*
X56500000Y-45500000D03*
X67500000Y-56500000D03*
X75000000Y-57500000D03*
%TO.N,/BLE_SWCLK*%
X91600000Y-34500000D03*
%TO.N,/BLE_SWDIO*%
X90700000Y-35900000D03*
%TO.N,Net-(U1-QSPI_SS)*%
X85500000Y-46000000D03*
X71000000Y-34000000D03*
%TO.N,/RUN*%
X77500000Y-54000000D03*
X89000000Y-45900000D03*
%TO.N,Net-(J2-Pin_2)*%
X72977657Y-52477454D03*
%TO.N,Net-(J2-Pin_1)*%
X74043600Y-52510388D03*
%TO.N,Net-(U1-GPIO10)*%
X52500000Y-54500000D03*
X67000000Y-54000000D03*
%TO.N,Net-(U1-GPIO14)*%
X74000000Y-55000000D03*
X81500000Y-37500000D03*
X69000000Y-55300003D03*
X81000000Y-49400000D03*
X76500000Y-54500000D03*
X79375303Y-52400242D03*
%TO.N,Net-(U1-GPIO0)*%
X53000000Y-46300000D03*
X69387313Y-47815644D03*
%TO.N,Net-(U1-GPIO3)*%
X48500000Y-48000000D03*
X64000000Y-48400000D03*
%TO.N,Net-(U1-GPIO1)*%
X65500000Y-47400000D03*
X51500000Y-46900000D03*
%TO.N,/DIO2*%
X62500000Y-45500000D03*
X70175382Y-47953291D03*
%TO.N,/DIO5*%
X66171472Y-52000000D03*
X48000000Y-56500000D03*
%TO.N,Net-(U1-GPIO2)*%
X64624697Y-47800000D03*
X50000000Y-47500000D03*
%TO.N,Net-(J3-Pin_2)*%
X85000000Y-36500000D03*
X79000000Y-33000000D03*
X74328355Y-49468408D03*
X77954762Y-44954762D03*
%TO.N,Net-(J3-Pin_7)*%
X71674265Y-34825735D03*
X76551315Y-47206738D03*
%TO.N,Net-(J3-Pin_1)*%
X86900000Y-45900000D03*
X74500000Y-51000000D03*
X86900000Y-47099998D03*
%TO.N,Net-(J3-Pin_5)*%
X78679265Y-47679265D03*
X73348527Y-34600000D03*
%TO.N,Net-(J3-Pin_8)*%
X69000000Y-33000000D03*
X71000000Y-47500000D03*
%TO.N,Net-(J3-Pin_6)*%
X72500000Y-34600000D03*
X76684888Y-48335002D03*
%TO.N,Net-(J3-Pin_3)*%
X79500000Y-48582030D03*
X78000000Y-35000000D03*
%TO.N,Net-(J3-Pin_4)*%
X79500000Y-47707057D03*
X74500000Y-34600000D03*
%TO.N,Net-(U1-GPIO11)*%
X78000000Y-42500000D03*
X69500000Y-52000000D03*
%TO.N,Net-(U1-GPIO13)*%
X69500000Y-54500000D03*
X76934313Y-40934313D03*
%TO.N,Net-(U1-GPIO12)*%
X69775734Y-50875736D03*
X77500000Y-41500000D03*
%TO.N,/PB00*%
X69500000Y-56100006D03*
X88100000Y-46500000D03*
%TO.N,Net-(J4-D-)*%
X51000000Y-37000000D03*
X74000000Y-40000000D03*
%TO.N,Net-(J4-D+)*%
X50500000Y-37900000D03*
X72000000Y-41000000D03*
%TO.N,Net-(R6-Pad1)*%
X86174265Y-52674265D03*
%TD*%
D16*
%TO.N,Net-(R6-Pad1)*%
X86174265Y-52674265D02*
X85000000Y-51500000D01*
%TO.N,/RUN*%
X81500000Y-54000000D02*
X77500000Y-54000000D01*
X89000000Y-45900000D02*
X89000000Y-46500000D01*
X89000000Y-46500000D02*
X81500000Y-54000000D01*
%TO.N,/BLE_SWCLK*%
X90925735Y-35174265D02*
X91600000Y-34500000D01*
X89000000Y-43000000D02*
X89000000Y-35500000D01*
X83000000Y-62500000D02*
X83500000Y-62500000D01*
X90000000Y-56000000D02*
X90000000Y-44000000D01*
X81500000Y-64000000D02*
X83000000Y-62500000D01*
X83500000Y-62500000D02*
X90000000Y-56000000D01*
X89325735Y-35174265D02*
X90925735Y-35174265D01*
X89000000Y-35500000D02*
X89325735Y-35174265D01*
X90000000Y-44000000D02*
X89000000Y-43000000D01*
X81000000Y-64000000D02*
X81500000Y-64000000D01*
%TO.N,/BLE_SWDIO*%
X90500000Y-60000000D02*
X86500000Y-64000000D01*
X86500000Y-64000000D02*
X83540000Y-64000000D01*
X90500000Y-36100000D02*
X90500000Y-60000000D01*
X90700000Y-35900000D02*
X90500000Y-36100000D01*
%TO.N,Net-(J3-Pin_1)*%
X86000000Y-45000000D02*
X86000000Y-30500000D01*
X86900000Y-45900000D02*
X86000000Y-45000000D01*
X86000000Y-30500000D02*
X84000000Y-28500000D01*
%TO.N,+1V1*%
X67500000Y-56500000D02*
X68900006Y-57900006D01*
X74599994Y-57900006D02*
X75000000Y-57500000D01*
X68900006Y-57900006D02*
X74599994Y-57900006D01*
X71703866Y-43247251D02*
X58752749Y-43247251D01*
X58752749Y-43247251D02*
X56500000Y-45500000D01*
%TO.N,Net-(U1-QSPI_SS)*%
X71000000Y-34000000D02*
X79500000Y-34000000D01*
X85500000Y-40000000D02*
X85500000Y-46000000D01*
X79500000Y-34000000D02*
X85500000Y-40000000D01*
%TO.N,Net-(J2-Pin_2)*%
X74643600Y-52261859D02*
X74643600Y-53577914D01*
X72977657Y-52477454D02*
X73544723Y-51910388D01*
X78500000Y-57434314D02*
X78500000Y-64000000D01*
X74643600Y-53577914D02*
X78500000Y-57434314D01*
X74292129Y-51910388D02*
X74643600Y-52261859D01*
X73544723Y-51910388D02*
X74292129Y-51910388D01*
%TO.N,Net-(J2-Pin_1)*%
X74043600Y-52510388D02*
X74043600Y-53543600D01*
X75960000Y-55460000D02*
X75960000Y-64000000D01*
X74043600Y-53543600D02*
X75960000Y-55460000D01*
%TO.N,Net-(U1-GPIO10)*%
X52500000Y-54500000D02*
X66500000Y-54500000D01*
X66500000Y-54500000D02*
X67000000Y-54000000D01*
%TO.N,Net-(U1-GPIO14)*%
X68900000Y-56400000D02*
X68900000Y-55400003D01*
X69200006Y-56700006D02*
X68900000Y-56400000D01*
X76500000Y-54151471D02*
X76500000Y-54500000D01*
X74000000Y-55000000D02*
X72299994Y-56700006D01*
X68900000Y-55400003D02*
X69000000Y-55300003D01*
X72299994Y-56700006D02*
X69200006Y-56700006D01*
X81000000Y-48012589D02*
X81000000Y-49400000D01*
X78251229Y-52400242D02*
X76500000Y-54151471D01*
X81500000Y-37500000D02*
X81500000Y-47512589D01*
X79375303Y-52400242D02*
X78251229Y-52400242D01*
X81500000Y-47512589D02*
X81000000Y-48012589D01*
%TO.N,Net-(U1-GPIO0)*%
X65300000Y-46300000D02*
X66815644Y-47815644D01*
X66815644Y-47815644D02*
X69387313Y-47815644D01*
X53000000Y-46300000D02*
X65300000Y-46300000D01*
%TO.N,Net-(U1-GPIO3)*%
X49000000Y-48500000D02*
X48500000Y-48000000D01*
X64000000Y-48400000D02*
X63900000Y-48500000D01*
X63900000Y-48500000D02*
X49000000Y-48500000D01*
%TO.N,Net-(U1-GPIO1)*%
X65500000Y-47400000D02*
X65000000Y-46900000D01*
X65000000Y-46900000D02*
X51500000Y-46900000D01*
%TO.N,/DIO2*%
X70175382Y-47675382D02*
X68000000Y-45500000D01*
X68000000Y-45500000D02*
X62500000Y-45500000D01*
X70175382Y-47953291D02*
X70175382Y-47675382D01*
%TO.N,/DIO5*%
X52500000Y-52000000D02*
X48000000Y-56500000D01*
X66171472Y-52000000D02*
X52500000Y-52000000D01*
%TO.N,Net-(U1-GPIO2)*%
X64824697Y-48000000D02*
X64324697Y-47500000D01*
X64624697Y-47800000D02*
X64824697Y-48000000D01*
X64324697Y-47500000D02*
X50000000Y-47500000D01*
%TO.N,Net-(J3-Pin_2)*%
X74328355Y-48581169D02*
X77954762Y-44954762D01*
X74328355Y-49468408D02*
X74328355Y-48581169D01*
X85000000Y-36500000D02*
X81500000Y-33000000D01*
X81500000Y-33000000D02*
X79000000Y-33000000D01*
%TO.N,Net-(J3-Pin_7)*%
X78600000Y-45158053D02*
X78600000Y-41751470D01*
X76551315Y-47206738D02*
X78600000Y-45158053D01*
X78600000Y-41751470D02*
X71674265Y-34825735D01*
%TO.N,Net-(J3-Pin_1)*%
X83599998Y-50400000D02*
X86900000Y-47099998D01*
X75100000Y-50400000D02*
X83599998Y-50400000D01*
X74500000Y-51000000D02*
X75100000Y-50400000D01*
%TO.N,Net-(J3-Pin_5)*%
X78679265Y-47679264D02*
X79610000Y-46748529D01*
X79610000Y-40861473D02*
X73348527Y-34600000D01*
X78679265Y-47679265D02*
X78679265Y-47679264D01*
X79610000Y-46748529D02*
X79610000Y-40861473D01*
%TO.N,Net-(J3-Pin_8)*%
X71454414Y-44384115D02*
X74600000Y-41238529D01*
X74600000Y-38600000D02*
X69000000Y-33000000D01*
X74600000Y-41238529D02*
X74600000Y-38600000D01*
X71000000Y-47500000D02*
X71454414Y-47045586D01*
X71454414Y-47045586D02*
X71454414Y-44384115D01*
%TO.N,Net-(J3-Pin_6)*%
X79000000Y-45661471D02*
X79000000Y-41100000D01*
X76684888Y-47976583D02*
X79000000Y-45661471D01*
X79000000Y-41100000D02*
X72500000Y-34600000D01*
X76684888Y-48335002D02*
X76684888Y-47976583D01*
%TO.N,Net-(J3-Pin_3)*%
X78000000Y-35500000D02*
X78000000Y-35000000D01*
X80410000Y-37910000D02*
X78000000Y-35500000D01*
X80410000Y-47672030D02*
X80410000Y-37910000D01*
X79500000Y-48582030D02*
X80410000Y-47672030D01*
%TO.N,Net-(J3-Pin_4)*%
X79500000Y-47707057D02*
X80010000Y-47197057D01*
X80010000Y-40110000D02*
X74500000Y-34600000D01*
X80010000Y-47197057D02*
X80010000Y-40110000D01*
%TO.N,Net-(U1-GPIO11)*%
X69500000Y-52000000D02*
X78000000Y-43500000D01*
X78000000Y-43500000D02*
X78000000Y-42500000D01*
%TO.N,Net-(U1-GPIO13)*%
X76000000Y-41868626D02*
X76934313Y-40934313D01*
X68900000Y-53900000D02*
X68900000Y-50902941D01*
X76000000Y-43802941D02*
X76000000Y-41868626D01*
X68900000Y-50902941D02*
X76000000Y-43802941D01*
X69500000Y-54500000D02*
X68900000Y-53900000D01*
%TO.N,Net-(U1-GPIO12)*%
X76400000Y-44348527D02*
X76400000Y-42600000D01*
X69872791Y-50875736D02*
X76400000Y-44348527D01*
X69775734Y-50875736D02*
X69872791Y-50875736D01*
X76400000Y-42600000D02*
X77500000Y-41500000D01*
%TO.N,/PB00*%
X72377657Y-52228925D02*
X72377657Y-54692589D01*
X88100000Y-46500000D02*
X86651471Y-46500000D01*
X70970240Y-56100006D02*
X69500000Y-56100006D01*
X72377657Y-54692589D02*
X70970240Y-56100006D01*
X86651471Y-46500000D02*
X83151471Y-50000000D01*
X83151471Y-50000000D02*
X74606582Y-50000000D01*
X74606582Y-50000000D02*
X72377657Y-52228925D01*
%TO.N,Net-(J4-D-)*%
X54000000Y-40000000D02*
X51000000Y-37000000D01*
X74000000Y-40000000D02*
X54000000Y-40000000D01*
%TO.N,Net-(J4-D+)*%
X72000000Y-41000000D02*
X53600000Y-41000000D01*
X53600000Y-41000000D02*
X50500000Y-37900000D01*
%TD*%
M02*
