%TF.GenerationSoftware,KiCad,Pcbnew,8.0.4*%
%TF.CreationDate,2024-08-04T17:25:46-04:00*%
%TF.ProjectId,board,626f6172-642e-46b6-9963-61645f706362,rev?*%
%TF.SameCoordinates,Original*%
%TF.FileFunction,Copper,L3,Inr*%
%TF.FilePolarity,Positive*%
%FSLAX46Y46*%
G04 Gerber Fmt 4.6, Leading zero omitted, Abs format (unit mm)*
G04 Created by KiCad (PCBNEW 8.0.4) date 2024-08-04 17:25:46*
%MOMM*%
%LPD*%
G01*
G04 APERTURE LIST*
%TA.AperFunction,ComponentPad*%
%ADD10C,1.800000*%
%TD*%
%TA.AperFunction,ComponentPad*%
%ADD11R,1.700000X1.700000*%
%TD*%
%TA.AperFunction,ComponentPad*%
%ADD12O,1.700000X1.700000*%
%TD*%
%TA.AperFunction,ComponentPad*%
%ADD13O,1.550000X0.890000*%
%TD*%
%TA.AperFunction,ComponentPad*%
%ADD14O,0.950000X1.250000*%
%TD*%
%TA.AperFunction,ViaPad*%
%ADD15C,0.600000*%
%TD*%
G04 APERTURE END LIST*
D10*
%TO.N,GND*%
%TO.C,SW2*%
X86750000Y-61250000D03*
X80250000Y-61250000D03*
%TO.N,/RUN*%
X86750000Y-56750000D03*
X80250000Y-56750000D03*
%TD*%
%TO.N,GND*%
%TO.C,SW1*%
X88750000Y-55250000D03*
X88750000Y-48750000D03*
%TO.N,Net-(R6-Pad1)*%
X93250000Y-55250000D03*
X93250000Y-48750000D03*
%TD*%
D11*
%TO.N,Net-(J2-Pin_1)*%
%TO.C,J2*%
X75920000Y-64000000D03*
D12*
%TO.N,Net-(J2-Pin_2)*%
X78460000Y-64000000D03*
%TO.N,/BLE_SWCLK*%
X81000000Y-64000000D03*
%TO.N,/BLE_SWDIO*%
X83540000Y-64000000D03*
%TD*%
D11*
%TO.N,Net-(J3-Pin_1)*%
%TO.C,J3*%
X84000000Y-28500000D03*
D12*
%TO.N,Net-(J3-Pin_2)*%
X81460000Y-28500000D03*
%TO.N,Net-(J3-Pin_3)*%
X78920000Y-28500000D03*
%TO.N,Net-(J3-Pin_4)*%
X76380000Y-28500000D03*
%TO.N,Net-(J3-Pin_5)*%
X73840000Y-28500000D03*
%TO.N,Net-(J3-Pin_6)*%
X71300000Y-28500000D03*
%TO.N,Net-(J3-Pin_7)*%
X68760000Y-28500000D03*
%TO.N,Net-(J3-Pin_8)*%
X66220000Y-28500000D03*
%TO.N,unconnected-(J3-Pin_9-Pad9)*%
X63680000Y-28500000D03*
%TO.N,unconnected-(J3-Pin_10-Pad10)*%
X61140000Y-28500000D03*
%TO.N,unconnected-(J3-Pin_11-Pad11)*%
X58600000Y-28500000D03*
%TO.N,unconnected-(J3-Pin_12-Pad12)*%
X56060000Y-28500000D03*
%TD*%
D13*
%TO.N,GND*%
%TO.C,J4*%
X43500000Y-33400000D03*
D14*
X46200000Y-34400000D03*
X46200000Y-39400000D03*
D13*
X43500000Y-40400000D03*
%TD*%
D15*
%TO.N,+3V3*%
X63000000Y-32500000D03*
%TO.N,Net-(R6-Pad1)*%
X85000000Y-51500000D03*
%TO.N,GND*%
X76000000Y-41000000D03*
X71500000Y-52500000D03*
X64000000Y-50500000D03*
X47500000Y-44500000D03*
X82000000Y-49400000D03*
X77000000Y-43000000D03*
X53000000Y-36500000D03*
X72000000Y-42500000D03*
X75000000Y-42000000D03*
X57500000Y-63500000D03*
X73000000Y-58520000D03*
X71000000Y-38000000D03*
X58500000Y-56500000D03*
X47500000Y-58500000D03*
X66500000Y-44000000D03*
X43500000Y-32300000D03*
X94050000Y-33950000D03*
X43500000Y-41300000D03*
X48000000Y-38300000D03*
X79500000Y-51000000D03*
X67500000Y-57500000D03*
X84500000Y-31000000D03*
X79010000Y-46500000D03*
X63500000Y-63500000D03*
%TO.N,+3V3*%
X80000000Y-52900000D03*
X71600000Y-57300006D03*
X66825735Y-50674265D03*
X93100000Y-34000000D03*
X77000000Y-33400000D03*
X65000000Y-53000000D03*
X67500000Y-47000000D03*
X77764877Y-47745123D03*
X83000000Y-48500000D03*
X72400000Y-45500000D03*
X77000000Y-51500000D03*
X84500000Y-34000000D03*
X75304175Y-42810112D03*
X58500000Y-50500000D03*
%TO.N,+1V1*%
X71703866Y-43247251D03*
X56500000Y-45500000D03*
X67500000Y-56500000D03*
X75000000Y-57500000D03*
%TO.N,/BLE_SWCLK*%
X91600000Y-34500000D03*
%TO.N,/BLE_SWDIO*%
X90700000Y-35900000D03*
%TO.N,Net-(U1-QSPI_SS)*%
X85500000Y-46000000D03*
X71000000Y-34000000D03*
%TO.N,/RUN*%
X77500000Y-54000000D03*
X89000000Y-45900000D03*
%TO.N,Net-(J2-Pin_2)*%
X72977657Y-52477454D03*
%TO.N,Net-(J2-Pin_1)*%
X74043600Y-52510388D03*
%TO.N,Net-(U1-GPIO10)*%
X52500000Y-54500000D03*
X67000000Y-54000000D03*
%TO.N,Net-(U1-GPIO14)*%
X74000000Y-55000000D03*
X81500000Y-37500000D03*
X69000000Y-55300003D03*
X81000000Y-49400000D03*
X76500000Y-54500000D03*
X79375303Y-52400242D03*
%TO.N,Net-(U1-GPIO0)*%
X53000000Y-46300000D03*
X69387313Y-47815644D03*
%TO.N,Net-(U1-GPIO3)*%
X48500000Y-48000000D03*
X64000000Y-48400000D03*
%TO.N,Net-(U1-GPIO1)*%
X65500000Y-47400000D03*
X51500000Y-46900000D03*
%TO.N,/DIO2*%
X62500000Y-45500000D03*
X70175382Y-47953291D03*
%TO.N,/DIO5*%
X66171472Y-52000000D03*
X48000000Y-56500000D03*
%TO.N,Net-(U1-GPIO2)*%
X64624697Y-47800000D03*
X50000000Y-47500000D03*
%TO.N,Net-(J3-Pin_2)*%
X85000000Y-36500000D03*
X79000000Y-33000000D03*
X74328355Y-49468408D03*
X77954762Y-44954762D03*
%TO.N,Net-(J3-Pin_7)*%
X71674265Y-34825735D03*
X76551315Y-47206738D03*
%TO.N,Net-(J3-Pin_1)*%
X86900000Y-45900000D03*
X74500000Y-51000000D03*
X86900000Y-47099998D03*
%TO.N,Net-(J3-Pin_5)*%
X78679265Y-47679265D03*
X73348527Y-34600000D03*
%TO.N,Net-(J3-Pin_8)*%
X69000000Y-33000000D03*
X71000000Y-47500000D03*
%TO.N,Net-(J3-Pin_6)*%
X72500000Y-34600000D03*
X76684888Y-48335002D03*
%TO.N,Net-(J3-Pin_3)*%
X79500000Y-48582030D03*
X78000000Y-35000000D03*
%TO.N,Net-(J3-Pin_4)*%
X79500000Y-47707057D03*
X74500000Y-34600000D03*
%TO.N,Net-(U1-GPIO11)*%
X78000000Y-42500000D03*
X69500000Y-52000000D03*
%TO.N,Net-(U1-GPIO13)*%
X69500000Y-54500000D03*
X76934313Y-40934313D03*
%TO.N,Net-(U1-GPIO12)*%
X69775734Y-50875736D03*
X77500000Y-41500000D03*
%TO.N,/PB00*%
X69500000Y-56100006D03*
X88100000Y-46500000D03*
%TO.N,Net-(J4-D-)*%
X51000000Y-37000000D03*
X74000000Y-40000000D03*
%TO.N,Net-(J4-D+)*%
X50500000Y-37900000D03*
X72000000Y-41000000D03*
%TO.N,Net-(R6-Pad1)*%
X86174265Y-52674265D03*
%TD*%
%TA.AperFunction,Conductor*%
%TO.N,+3V3*%
G36*
X55587843Y-27020185D02*
G01*
X55633598Y-27072989D01*
X55643542Y-27142147D01*
X55614517Y-27205703D01*
X55573209Y-27236881D01*
X55547564Y-27248839D01*
X55382171Y-27325964D01*
X55382169Y-27325965D01*
X55188597Y-27461505D01*
X55021505Y-27628597D01*
X54885965Y-27822169D01*
X54885964Y-27822171D01*
X54786098Y-28036335D01*
X54786094Y-28036344D01*
X54724938Y-28264586D01*
X54724936Y-28264596D01*
X54704341Y-28499999D01*
X54704341Y-28500000D01*
X54724936Y-28735403D01*
X54724938Y-28735413D01*
X54786094Y-28963655D01*
X54786096Y-28963659D01*
X54786097Y-28963663D01*
X54793740Y-28980053D01*
X54885965Y-29177830D01*
X54885967Y-29177834D01*
X54994281Y-29332521D01*
X55021505Y-29371401D01*
X55188599Y-29538495D01*
X55285384Y-29606265D01*
X55382165Y-29674032D01*
X55382167Y-29674033D01*
X55382170Y-29674035D01*
X55596337Y-29773903D01*
X55824592Y-29835063D01*
X56001034Y-29850500D01*
X56059999Y-29855659D01*
X56060000Y-29855659D01*
X56060001Y-29855659D01*
X56118966Y-29850500D01*
X56295408Y-29835063D01*
X56523663Y-29773903D01*
X56737830Y-29674035D01*
X56931401Y-29538495D01*
X57098495Y-29371401D01*
X57228425Y-29185842D01*
X57283002Y-29142217D01*
X57352500Y-29135023D01*
X57414855Y-29166546D01*
X57431575Y-29185842D01*
X57561500Y-29371395D01*
X57561505Y-29371401D01*
X57728599Y-29538495D01*
X57825384Y-29606265D01*
X57922165Y-29674032D01*
X57922167Y-29674033D01*
X57922170Y-29674035D01*
X58136337Y-29773903D01*
X58364592Y-29835063D01*
X58541034Y-29850500D01*
X58599999Y-29855659D01*
X58600000Y-29855659D01*
X58600001Y-29855659D01*
X58658966Y-29850500D01*
X58835408Y-29835063D01*
X59063663Y-29773903D01*
X59277830Y-29674035D01*
X59471401Y-29538495D01*
X59638495Y-29371401D01*
X59768425Y-29185842D01*
X59823002Y-29142217D01*
X59892500Y-29135023D01*
X59954855Y-29166546D01*
X59971575Y-29185842D01*
X60101500Y-29371395D01*
X60101505Y-29371401D01*
X60268599Y-29538495D01*
X60365384Y-29606265D01*
X60462165Y-29674032D01*
X60462167Y-29674033D01*
X60462170Y-29674035D01*
X60676337Y-29773903D01*
X60904592Y-29835063D01*
X61081034Y-29850500D01*
X61139999Y-29855659D01*
X61140000Y-29855659D01*
X61140001Y-29855659D01*
X61198966Y-29850500D01*
X61375408Y-29835063D01*
X61603663Y-29773903D01*
X61817830Y-29674035D01*
X62011401Y-29538495D01*
X62178495Y-29371401D01*
X62308425Y-29185842D01*
X62363002Y-29142217D01*
X62432500Y-29135023D01*
X62494855Y-29166546D01*
X62511575Y-29185842D01*
X62641500Y-29371395D01*
X62641505Y-29371401D01*
X62808599Y-29538495D01*
X62905384Y-29606265D01*
X63002165Y-29674032D01*
X63002167Y-29674033D01*
X63002170Y-29674035D01*
X63216337Y-29773903D01*
X63444592Y-29835063D01*
X63621034Y-29850500D01*
X63679999Y-29855659D01*
X63680000Y-29855659D01*
X63680001Y-29855659D01*
X63738966Y-29850500D01*
X63915408Y-29835063D01*
X64143663Y-29773903D01*
X64357830Y-29674035D01*
X64551401Y-29538495D01*
X64718495Y-29371401D01*
X64848425Y-29185842D01*
X64903002Y-29142217D01*
X64972500Y-29135023D01*
X65034855Y-29166546D01*
X65051575Y-29185842D01*
X65181500Y-29371395D01*
X65181505Y-29371401D01*
X65348599Y-29538495D01*
X65445384Y-29606265D01*
X65542165Y-29674032D01*
X65542167Y-29674033D01*
X65542170Y-29674035D01*
X65756337Y-29773903D01*
X65984592Y-29835063D01*
X66161034Y-29850500D01*
X66219999Y-29855659D01*
X66220000Y-29855659D01*
X66220001Y-29855659D01*
X66278966Y-29850500D01*
X66455408Y-29835063D01*
X66683663Y-29773903D01*
X66897830Y-29674035D01*
X67091401Y-29538495D01*
X67258495Y-29371401D01*
X67388425Y-29185842D01*
X67443002Y-29142217D01*
X67512500Y-29135023D01*
X67574855Y-29166546D01*
X67591575Y-29185842D01*
X67721500Y-29371395D01*
X67721505Y-29371401D01*
X67888599Y-29538495D01*
X67985384Y-29606265D01*
X68082165Y-29674032D01*
X68082167Y-29674033D01*
X68082170Y-29674035D01*
X68296337Y-29773903D01*
X68524592Y-29835063D01*
X68701034Y-29850500D01*
X68759999Y-29855659D01*
X68760000Y-29855659D01*
X68760001Y-29855659D01*
X68818966Y-29850500D01*
X68995408Y-29835063D01*
X69223663Y-29773903D01*
X69437830Y-29674035D01*
X69631401Y-29538495D01*
X69798495Y-29371401D01*
X69928425Y-29185842D01*
X69983002Y-29142217D01*
X70052500Y-29135023D01*
X70114855Y-29166546D01*
X70131575Y-29185842D01*
X70261500Y-29371395D01*
X70261505Y-29371401D01*
X70428599Y-29538495D01*
X70525384Y-29606265D01*
X70622165Y-29674032D01*
X70622167Y-29674033D01*
X70622170Y-29674035D01*
X70836337Y-29773903D01*
X71064592Y-29835063D01*
X71241034Y-29850500D01*
X71299999Y-29855659D01*
X71300000Y-29855659D01*
X71300001Y-29855659D01*
X71358966Y-29850500D01*
X71535408Y-29835063D01*
X71763663Y-29773903D01*
X71977830Y-29674035D01*
X72171401Y-29538495D01*
X72338495Y-29371401D01*
X72468425Y-29185842D01*
X72523002Y-29142217D01*
X72592500Y-29135023D01*
X72654855Y-29166546D01*
X72671575Y-29185842D01*
X72801500Y-29371395D01*
X72801505Y-29371401D01*
X72968599Y-29538495D01*
X73065384Y-29606265D01*
X73162165Y-29674032D01*
X73162167Y-29674033D01*
X73162170Y-29674035D01*
X73376337Y-29773903D01*
X73604592Y-29835063D01*
X73781034Y-29850500D01*
X73839999Y-29855659D01*
X73840000Y-29855659D01*
X73840001Y-29855659D01*
X73898966Y-29850500D01*
X74075408Y-29835063D01*
X74303663Y-29773903D01*
X74517830Y-29674035D01*
X74711401Y-29538495D01*
X74878495Y-29371401D01*
X75008425Y-29185842D01*
X75063002Y-29142217D01*
X75132500Y-29135023D01*
X75194855Y-29166546D01*
X75211575Y-29185842D01*
X75341500Y-29371395D01*
X75341505Y-29371401D01*
X75508599Y-29538495D01*
X75605384Y-29606265D01*
X75702165Y-29674032D01*
X75702167Y-29674033D01*
X75702170Y-29674035D01*
X75916337Y-29773903D01*
X76144592Y-29835063D01*
X76321034Y-29850500D01*
X76379999Y-29855659D01*
X76380000Y-29855659D01*
X76380001Y-29855659D01*
X76438966Y-29850500D01*
X76615408Y-29835063D01*
X76843663Y-29773903D01*
X77057830Y-29674035D01*
X77251401Y-29538495D01*
X77418495Y-29371401D01*
X77548425Y-29185842D01*
X77603002Y-29142217D01*
X77672500Y-29135023D01*
X77734855Y-29166546D01*
X77751575Y-29185842D01*
X77881500Y-29371395D01*
X77881505Y-29371401D01*
X78048599Y-29538495D01*
X78145384Y-29606265D01*
X78242165Y-29674032D01*
X78242167Y-29674033D01*
X78242170Y-29674035D01*
X78456337Y-29773903D01*
X78684592Y-29835063D01*
X78861034Y-29850500D01*
X78919999Y-29855659D01*
X78920000Y-29855659D01*
X78920001Y-29855659D01*
X78978966Y-29850500D01*
X79155408Y-29835063D01*
X79383663Y-29773903D01*
X79597830Y-29674035D01*
X79791401Y-29538495D01*
X79958495Y-29371401D01*
X80088425Y-29185842D01*
X80143002Y-29142217D01*
X80212500Y-29135023D01*
X80274855Y-29166546D01*
X80291575Y-29185842D01*
X80421500Y-29371395D01*
X80421505Y-29371401D01*
X80588599Y-29538495D01*
X80685384Y-29606265D01*
X80782165Y-29674032D01*
X80782167Y-29674033D01*
X80782170Y-29674035D01*
X80996337Y-29773903D01*
X81224592Y-29835063D01*
X81401034Y-29850500D01*
X81459999Y-29855659D01*
X81460000Y-29855659D01*
X81460001Y-29855659D01*
X81518966Y-29850500D01*
X81695408Y-29835063D01*
X81923663Y-29773903D01*
X82137830Y-29674035D01*
X82331401Y-29538495D01*
X82453329Y-29416566D01*
X82514648Y-29383084D01*
X82584340Y-29388068D01*
X82640274Y-29429939D01*
X82657189Y-29460917D01*
X82706202Y-29592328D01*
X82706206Y-29592335D01*
X82792452Y-29707544D01*
X82792455Y-29707547D01*
X82907664Y-29793793D01*
X82907671Y-29793797D01*
X83042517Y-29844091D01*
X83042516Y-29844091D01*
X83049444Y-29844835D01*
X83102127Y-29850500D01*
X84897872Y-29850499D01*
X84957483Y-29844091D01*
X85092331Y-29793796D01*
X85207546Y-29707546D01*
X85293796Y-29592331D01*
X85344091Y-29457483D01*
X85350500Y-29397873D01*
X85350500Y-29393399D01*
X90645500Y-29393399D01*
X90645500Y-29606600D01*
X90678853Y-29817180D01*
X90678853Y-29817183D01*
X90744734Y-30019944D01*
X90744736Y-30019947D01*
X90841528Y-30209913D01*
X90966846Y-30382397D01*
X91117603Y-30533154D01*
X91290087Y-30658472D01*
X91480053Y-30755264D01*
X91480055Y-30755265D01*
X91669182Y-30816715D01*
X91682821Y-30821147D01*
X91893399Y-30854500D01*
X91893400Y-30854500D01*
X92106600Y-30854500D01*
X92106601Y-30854500D01*
X92317179Y-30821147D01*
X92317182Y-30821146D01*
X92317183Y-30821146D01*
X92519944Y-30755265D01*
X92519944Y-30755264D01*
X92519947Y-30755264D01*
X92709913Y-30658472D01*
X92882397Y-30533154D01*
X93033154Y-30382397D01*
X93158472Y-30209913D01*
X93255264Y-30019947D01*
X93308644Y-29855659D01*
X93321146Y-29817183D01*
X93321146Y-29817182D01*
X93321147Y-29817179D01*
X93354500Y-29606601D01*
X93354500Y-29393399D01*
X93321147Y-29182821D01*
X93321146Y-29182817D01*
X93321146Y-29182816D01*
X93255265Y-28980055D01*
X93255263Y-28980052D01*
X93246913Y-28963663D01*
X93158472Y-28790087D01*
X93033154Y-28617603D01*
X92882397Y-28466846D01*
X92709913Y-28341528D01*
X92519947Y-28244736D01*
X92519944Y-28244734D01*
X92317181Y-28178853D01*
X92176793Y-28156617D01*
X92106601Y-28145500D01*
X91893399Y-28145500D01*
X91823206Y-28156617D01*
X91682819Y-28178853D01*
X91682816Y-28178853D01*
X91480055Y-28244734D01*
X91480052Y-28244736D01*
X91290086Y-28341528D01*
X91117601Y-28466847D01*
X90966847Y-28617601D01*
X90841528Y-28790086D01*
X90744736Y-28980052D01*
X90744734Y-28980055D01*
X90678853Y-29182816D01*
X90678853Y-29182819D01*
X90645500Y-29393399D01*
X85350500Y-29393399D01*
X85350499Y-27602128D01*
X85344091Y-27542517D01*
X85342810Y-27539083D01*
X85293797Y-27407671D01*
X85293793Y-27407664D01*
X85207547Y-27292455D01*
X85207544Y-27292452D01*
X85115792Y-27223766D01*
X85073921Y-27167832D01*
X85068937Y-27098141D01*
X85102423Y-27036818D01*
X85163746Y-27003334D01*
X85190103Y-27000500D01*
X92934108Y-27000500D01*
X92995572Y-27000500D01*
X93004418Y-27000816D01*
X93204561Y-27015130D01*
X93222063Y-27017647D01*
X93413797Y-27059355D01*
X93430755Y-27064334D01*
X93589426Y-27123516D01*
X93614609Y-27132909D01*
X93630701Y-27140259D01*
X93802904Y-27234288D01*
X93817784Y-27243849D01*
X93974867Y-27361441D01*
X93988237Y-27373027D01*
X94126972Y-27511762D01*
X94138558Y-27525132D01*
X94216011Y-27628597D01*
X94256146Y-27682210D01*
X94265711Y-27697095D01*
X94359740Y-27869298D01*
X94367090Y-27885390D01*
X94435662Y-28069236D01*
X94440646Y-28086212D01*
X94482351Y-28277931D01*
X94484869Y-28295442D01*
X94499184Y-28495580D01*
X94499500Y-28504427D01*
X94499500Y-33084432D01*
X94479815Y-33151471D01*
X94427011Y-33197226D01*
X94357853Y-33207170D01*
X94334546Y-33201474D01*
X94229257Y-33164632D01*
X94229249Y-33164630D01*
X94050004Y-33144435D01*
X94049996Y-33144435D01*
X93870750Y-33164630D01*
X93870745Y-33164631D01*
X93700476Y-33224211D01*
X93547737Y-33320184D01*
X93420184Y-33447737D01*
X93324211Y-33600476D01*
X93264631Y-33770745D01*
X93264630Y-33770750D01*
X93244435Y-33949996D01*
X93244435Y-33950003D01*
X93264630Y-34129249D01*
X93264631Y-34129254D01*
X93324211Y-34299523D01*
X93400384Y-34420750D01*
X93420184Y-34452262D01*
X93547738Y-34579816D01*
X93638080Y-34636582D01*
X93660192Y-34650476D01*
X93700478Y-34675789D01*
X93765457Y-34698526D01*
X93870745Y-34735368D01*
X93870750Y-34735369D01*
X94049996Y-34755565D01*
X94050000Y-34755565D01*
X94050004Y-34755565D01*
X94229249Y-34735369D01*
X94229251Y-34735368D01*
X94229255Y-34735368D01*
X94229258Y-34735366D01*
X94229262Y-34735366D01*
X94334545Y-34698526D01*
X94404324Y-34694964D01*
X94464951Y-34729692D01*
X94497179Y-34791686D01*
X94499500Y-34815567D01*
X94499500Y-47721709D01*
X94479815Y-47788748D01*
X94427011Y-47834503D01*
X94357853Y-47844447D01*
X94294297Y-47815422D01*
X94284278Y-47805699D01*
X94201784Y-47716087D01*
X94201779Y-47716083D01*
X94201777Y-47716081D01*
X94018634Y-47573535D01*
X94018628Y-47573531D01*
X93814504Y-47463064D01*
X93814495Y-47463061D01*
X93594984Y-47387702D01*
X93414188Y-47357533D01*
X93366049Y-47349500D01*
X93133951Y-47349500D01*
X93088164Y-47357140D01*
X92905015Y-47387702D01*
X92685504Y-47463061D01*
X92685495Y-47463064D01*
X92481371Y-47573531D01*
X92481365Y-47573535D01*
X92298222Y-47716081D01*
X92298219Y-47716084D01*
X92298216Y-47716086D01*
X92298216Y-47716087D01*
X92267437Y-47749522D01*
X92141016Y-47886852D01*
X92014075Y-48081151D01*
X91920842Y-48293699D01*
X91863866Y-48518691D01*
X91863864Y-48518702D01*
X91844700Y-48749993D01*
X91844700Y-48750006D01*
X91863864Y-48981297D01*
X91863866Y-48981308D01*
X91920842Y-49206300D01*
X92014075Y-49418848D01*
X92141016Y-49613147D01*
X92141019Y-49613151D01*
X92141021Y-49613153D01*
X92298216Y-49783913D01*
X92298219Y-49783915D01*
X92298222Y-49783918D01*
X92481365Y-49926464D01*
X92481371Y-49926468D01*
X92481374Y-49926470D01*
X92613064Y-49997737D01*
X92672338Y-50029815D01*
X92685497Y-50036936D01*
X92734300Y-50053690D01*
X92905015Y-50112297D01*
X92905017Y-50112297D01*
X92905019Y-50112298D01*
X93133951Y-50150500D01*
X93133952Y-50150500D01*
X93366048Y-50150500D01*
X93366049Y-50150500D01*
X93594981Y-50112298D01*
X93814503Y-50036936D01*
X94018626Y-49926470D01*
X94201784Y-49783913D01*
X94284271Y-49694306D01*
X94344156Y-49658317D01*
X94413994Y-49660416D01*
X94471611Y-49699940D01*
X94498713Y-49764339D01*
X94499500Y-49778290D01*
X94499500Y-54221709D01*
X94479815Y-54288748D01*
X94427011Y-54334503D01*
X94357853Y-54344447D01*
X94294297Y-54315422D01*
X94284278Y-54305699D01*
X94201784Y-54216087D01*
X94201779Y-54216083D01*
X94201777Y-54216081D01*
X94018634Y-54073535D01*
X94018628Y-54073531D01*
X93814504Y-53963064D01*
X93814495Y-53963061D01*
X93594984Y-53887702D01*
X93423282Y-53859050D01*
X93366049Y-53849500D01*
X93133951Y-53849500D01*
X93088164Y-53857140D01*
X92905015Y-53887702D01*
X92685504Y-53963061D01*
X92685495Y-53963064D01*
X92481371Y-54073531D01*
X92481365Y-54073535D01*
X92298222Y-54216081D01*
X92298219Y-54216084D01*
X92141016Y-54386852D01*
X92014075Y-54581151D01*
X91920842Y-54793699D01*
X91863866Y-55018691D01*
X91863864Y-55018702D01*
X91844700Y-55249993D01*
X91844700Y-55250006D01*
X91863864Y-55481297D01*
X91863866Y-55481308D01*
X91920842Y-55706300D01*
X92014075Y-55918848D01*
X92141016Y-56113147D01*
X92141019Y-56113151D01*
X92141021Y-56113153D01*
X92298216Y-56283913D01*
X92298219Y-56283915D01*
X92298222Y-56283918D01*
X92481365Y-56426464D01*
X92481371Y-56426468D01*
X92481374Y-56426470D01*
X92685497Y-56536936D01*
X92796837Y-56575159D01*
X92905015Y-56612297D01*
X92905017Y-56612297D01*
X92905019Y-56612298D01*
X93133951Y-56650500D01*
X93133952Y-56650500D01*
X93366048Y-56650500D01*
X93366049Y-56650500D01*
X93594981Y-56612298D01*
X93814503Y-56536936D01*
X94018626Y-56426470D01*
X94201784Y-56283913D01*
X94284271Y-56194306D01*
X94344156Y-56158317D01*
X94413994Y-56160416D01*
X94471611Y-56199940D01*
X94498713Y-56264339D01*
X94499500Y-56278290D01*
X94499500Y-63995572D01*
X94499184Y-64004419D01*
X94484869Y-64204557D01*
X94482351Y-64222068D01*
X94440646Y-64413787D01*
X94435662Y-64430763D01*
X94367090Y-64614609D01*
X94359740Y-64630701D01*
X94265711Y-64802904D01*
X94256146Y-64817789D01*
X94138558Y-64974867D01*
X94126972Y-64988237D01*
X93988237Y-65126972D01*
X93974867Y-65138558D01*
X93817789Y-65256146D01*
X93802904Y-65265711D01*
X93630701Y-65359740D01*
X93614609Y-65367090D01*
X93430763Y-65435662D01*
X93413787Y-65440646D01*
X93222068Y-65482351D01*
X93204557Y-65484869D01*
X93023779Y-65497799D01*
X93004417Y-65499184D01*
X92995572Y-65499500D01*
X84079196Y-65499500D01*
X84012157Y-65479815D01*
X83966402Y-65427011D01*
X83956458Y-65357853D01*
X83985483Y-65294297D01*
X84026791Y-65263118D01*
X84030347Y-65261460D01*
X84217830Y-65174035D01*
X84411401Y-65038495D01*
X84578495Y-64871401D01*
X84714035Y-64677830D01*
X84813903Y-64463663D01*
X84875063Y-64235408D01*
X84895659Y-64000000D01*
X84875063Y-63764592D01*
X84813903Y-63536337D01*
X84714035Y-63322171D01*
X84710543Y-63317183D01*
X84578494Y-63128597D01*
X84411402Y-62961506D01*
X84411395Y-62961501D01*
X84314136Y-62893399D01*
X90645500Y-62893399D01*
X90645500Y-63106601D01*
X90648984Y-63128597D01*
X90678853Y-63317180D01*
X90678853Y-63317183D01*
X90744734Y-63519944D01*
X90744736Y-63519947D01*
X90841528Y-63709913D01*
X90966846Y-63882397D01*
X91117603Y-64033154D01*
X91290087Y-64158472D01*
X91480053Y-64255264D01*
X91480055Y-64255265D01*
X91572707Y-64285369D01*
X91682821Y-64321147D01*
X91893399Y-64354500D01*
X91893400Y-64354500D01*
X92106600Y-64354500D01*
X92106601Y-64354500D01*
X92317179Y-64321147D01*
X92317182Y-64321146D01*
X92317183Y-64321146D01*
X92519944Y-64255265D01*
X92519944Y-64255264D01*
X92519947Y-64255264D01*
X92709913Y-64158472D01*
X92882397Y-64033154D01*
X93033154Y-63882397D01*
X93158472Y-63709913D01*
X93255264Y-63519947D01*
X93319987Y-63320750D01*
X93321146Y-63317183D01*
X93321146Y-63317182D01*
X93321147Y-63317179D01*
X93354500Y-63106601D01*
X93354500Y-62893399D01*
X93321147Y-62682821D01*
X93321146Y-62682817D01*
X93321146Y-62682816D01*
X93255265Y-62480055D01*
X93255263Y-62480052D01*
X93229568Y-62429621D01*
X93158472Y-62290087D01*
X93033154Y-62117603D01*
X92882397Y-61966846D01*
X92709913Y-61841528D01*
X92519947Y-61744736D01*
X92519944Y-61744734D01*
X92317181Y-61678853D01*
X92176793Y-61656617D01*
X92106601Y-61645500D01*
X91893399Y-61645500D01*
X91823206Y-61656617D01*
X91682819Y-61678853D01*
X91682816Y-61678853D01*
X91480055Y-61744734D01*
X91480052Y-61744736D01*
X91290086Y-61841528D01*
X91117601Y-61966847D01*
X90966847Y-62117601D01*
X90841528Y-62290086D01*
X90744736Y-62480052D01*
X90744734Y-62480055D01*
X90678853Y-62682816D01*
X90678853Y-62682819D01*
X90671998Y-62726098D01*
X90645500Y-62893399D01*
X84314136Y-62893399D01*
X84217834Y-62825967D01*
X84217830Y-62825965D01*
X84217828Y-62825964D01*
X84003663Y-62726097D01*
X84003659Y-62726096D01*
X84003655Y-62726094D01*
X83775413Y-62664938D01*
X83775403Y-62664936D01*
X83540001Y-62644341D01*
X83539999Y-62644341D01*
X83304596Y-62664936D01*
X83304586Y-62664938D01*
X83076344Y-62726094D01*
X83076335Y-62726098D01*
X82862171Y-62825964D01*
X82862169Y-62825965D01*
X82668597Y-62961505D01*
X82501505Y-63128597D01*
X82371575Y-63314158D01*
X82316998Y-63357783D01*
X82247500Y-63364977D01*
X82185145Y-63333454D01*
X82168425Y-63314158D01*
X82038494Y-63128597D01*
X81871402Y-62961506D01*
X81871395Y-62961501D01*
X81677834Y-62825967D01*
X81677830Y-62825965D01*
X81677828Y-62825964D01*
X81463663Y-62726097D01*
X81463659Y-62726096D01*
X81463655Y-62726094D01*
X81235413Y-62664938D01*
X81235403Y-62664936D01*
X81079484Y-62651295D01*
X81014416Y-62625842D01*
X80973437Y-62569251D01*
X80969559Y-62499489D01*
X81004013Y-62438705D01*
X81014889Y-62430020D01*
X81014579Y-62429621D01*
X81147804Y-62325926D01*
X81201784Y-62283913D01*
X81358979Y-62113153D01*
X81485924Y-61918849D01*
X81579157Y-61706300D01*
X81636134Y-61481305D01*
X81655300Y-61250000D01*
X81655300Y-61249993D01*
X85344700Y-61249993D01*
X85344700Y-61250006D01*
X85363864Y-61481297D01*
X85363866Y-61481308D01*
X85420842Y-61706300D01*
X85514075Y-61918848D01*
X85641016Y-62113147D01*
X85641019Y-62113151D01*
X85641021Y-62113153D01*
X85798216Y-62283913D01*
X85798219Y-62283915D01*
X85798222Y-62283918D01*
X85981365Y-62426464D01*
X85981371Y-62426468D01*
X85981374Y-62426470D01*
X86185497Y-62536936D01*
X86299487Y-62576068D01*
X86405015Y-62612297D01*
X86405017Y-62612297D01*
X86405019Y-62612298D01*
X86633951Y-62650500D01*
X86633952Y-62650500D01*
X86866048Y-62650500D01*
X86866049Y-62650500D01*
X87094981Y-62612298D01*
X87314503Y-62536936D01*
X87518626Y-62426470D01*
X87701784Y-62283913D01*
X87858979Y-62113153D01*
X87985924Y-61918849D01*
X88079157Y-61706300D01*
X88136134Y-61481305D01*
X88155300Y-61250000D01*
X88155300Y-61249993D01*
X88136135Y-61018702D01*
X88136133Y-61018691D01*
X88079157Y-60793699D01*
X87985924Y-60581151D01*
X87858983Y-60386852D01*
X87858980Y-60386849D01*
X87858979Y-60386847D01*
X87701784Y-60216087D01*
X87701779Y-60216083D01*
X87701777Y-60216081D01*
X87518634Y-60073535D01*
X87518628Y-60073531D01*
X87314504Y-59963064D01*
X87314495Y-59963061D01*
X87094984Y-59887702D01*
X86923282Y-59859050D01*
X86866049Y-59849500D01*
X86633951Y-59849500D01*
X86588164Y-59857140D01*
X86405015Y-59887702D01*
X86185504Y-59963061D01*
X86185495Y-59963064D01*
X85981371Y-60073531D01*
X85981365Y-60073535D01*
X85798222Y-60216081D01*
X85798219Y-60216084D01*
X85641016Y-60386852D01*
X85514075Y-60581151D01*
X85420842Y-60793699D01*
X85363866Y-61018691D01*
X85363864Y-61018702D01*
X85344700Y-61249993D01*
X81655300Y-61249993D01*
X81636135Y-61018702D01*
X81636133Y-61018691D01*
X81579157Y-60793699D01*
X81485924Y-60581151D01*
X81358983Y-60386852D01*
X81358980Y-60386849D01*
X81358979Y-60386847D01*
X81201784Y-60216087D01*
X81201779Y-60216083D01*
X81201777Y-60216081D01*
X81018634Y-60073535D01*
X81018628Y-60073531D01*
X80814504Y-59963064D01*
X80814495Y-59963061D01*
X80594984Y-59887702D01*
X80423282Y-59859050D01*
X80366049Y-59849500D01*
X80133951Y-59849500D01*
X80088164Y-59857140D01*
X79905015Y-59887702D01*
X79685504Y-59963061D01*
X79685495Y-59963064D01*
X79481371Y-60073531D01*
X79481365Y-60073535D01*
X79298222Y-60216081D01*
X79298219Y-60216084D01*
X79141016Y-60386852D01*
X79014075Y-60581151D01*
X78920842Y-60793699D01*
X78863866Y-61018691D01*
X78863864Y-61018702D01*
X78844700Y-61249993D01*
X78844700Y-61250006D01*
X78863864Y-61481297D01*
X78863866Y-61481308D01*
X78920842Y-61706300D01*
X79014075Y-61918848D01*
X79141016Y-62113147D01*
X79141019Y-62113151D01*
X79141021Y-62113153D01*
X79298216Y-62283913D01*
X79298219Y-62283915D01*
X79298222Y-62283918D01*
X79481365Y-62426464D01*
X79481371Y-62426468D01*
X79481374Y-62426470D01*
X79685497Y-62536936D01*
X79799487Y-62576068D01*
X79905015Y-62612297D01*
X79905017Y-62612297D01*
X79905019Y-62612298D01*
X80133951Y-62650500D01*
X80133952Y-62650500D01*
X80179483Y-62650500D01*
X80246522Y-62670185D01*
X80292277Y-62722989D01*
X80302221Y-62792147D01*
X80273196Y-62855703D01*
X80250606Y-62876075D01*
X80128596Y-62961506D01*
X79961505Y-63128597D01*
X79831575Y-63314158D01*
X79776998Y-63357783D01*
X79707500Y-63364977D01*
X79645145Y-63333454D01*
X79628425Y-63314158D01*
X79498494Y-63128597D01*
X79331402Y-62961506D01*
X79331395Y-62961501D01*
X79137834Y-62825967D01*
X79137830Y-62825965D01*
X79137828Y-62825964D01*
X78923663Y-62726097D01*
X78923659Y-62726096D01*
X78923655Y-62726094D01*
X78695413Y-62664938D01*
X78695403Y-62664936D01*
X78460001Y-62644341D01*
X78459999Y-62644341D01*
X78224596Y-62664936D01*
X78224586Y-62664938D01*
X77996344Y-62726094D01*
X77996335Y-62726098D01*
X77782171Y-62825964D01*
X77782169Y-62825965D01*
X77588600Y-62961503D01*
X77466673Y-63083430D01*
X77405350Y-63116914D01*
X77335658Y-63111930D01*
X77279725Y-63070058D01*
X77262810Y-63039081D01*
X77213797Y-62907671D01*
X77213793Y-62907664D01*
X77127547Y-62792455D01*
X77127544Y-62792452D01*
X77012335Y-62706206D01*
X77012328Y-62706202D01*
X76877482Y-62655908D01*
X76877483Y-62655908D01*
X76817883Y-62649501D01*
X76817881Y-62649500D01*
X76817873Y-62649500D01*
X76817864Y-62649500D01*
X75022129Y-62649500D01*
X75022123Y-62649501D01*
X74962516Y-62655908D01*
X74827671Y-62706202D01*
X74827664Y-62706206D01*
X74712455Y-62792452D01*
X74712452Y-62792455D01*
X74626206Y-62907664D01*
X74626202Y-62907671D01*
X74575908Y-63042517D01*
X74569501Y-63102116D01*
X74569500Y-63102135D01*
X74569500Y-64897870D01*
X74569501Y-64897876D01*
X74575908Y-64957483D01*
X74626202Y-65092328D01*
X74626206Y-65092335D01*
X74712452Y-65207544D01*
X74712455Y-65207547D01*
X74804208Y-65276234D01*
X74846079Y-65332168D01*
X74851063Y-65401859D01*
X74817577Y-65463182D01*
X74756254Y-65496666D01*
X74729897Y-65499500D01*
X44004428Y-65499500D01*
X43995582Y-65499184D01*
X43973622Y-65497613D01*
X43795442Y-65484869D01*
X43777931Y-65482351D01*
X43586212Y-65440646D01*
X43569236Y-65435662D01*
X43385390Y-65367090D01*
X43369298Y-65359740D01*
X43197095Y-65265711D01*
X43182210Y-65256146D01*
X43117288Y-65207546D01*
X43025132Y-65138558D01*
X43011762Y-65126972D01*
X42873027Y-64988237D01*
X42861441Y-64974867D01*
X42850998Y-64960917D01*
X42743849Y-64817784D01*
X42734288Y-64802904D01*
X42640259Y-64630701D01*
X42632909Y-64614609D01*
X42576609Y-64463664D01*
X42564334Y-64430755D01*
X42559355Y-64413797D01*
X42517647Y-64222063D01*
X42515130Y-64204556D01*
X42509784Y-64129815D01*
X42500816Y-64004418D01*
X42500500Y-63995572D01*
X42500500Y-62893399D01*
X43645500Y-62893399D01*
X43645500Y-63106601D01*
X43648984Y-63128597D01*
X43678853Y-63317180D01*
X43678853Y-63317183D01*
X43744734Y-63519944D01*
X43744736Y-63519947D01*
X43841528Y-63709913D01*
X43966846Y-63882397D01*
X44117603Y-64033154D01*
X44290087Y-64158472D01*
X44480053Y-64255264D01*
X44480055Y-64255265D01*
X44572707Y-64285369D01*
X44682821Y-64321147D01*
X44893399Y-64354500D01*
X44893400Y-64354500D01*
X45106600Y-64354500D01*
X45106601Y-64354500D01*
X45317179Y-64321147D01*
X45317182Y-64321146D01*
X45317183Y-64321146D01*
X45519944Y-64255265D01*
X45519944Y-64255264D01*
X45519947Y-64255264D01*
X45709913Y-64158472D01*
X45882397Y-64033154D01*
X46033154Y-63882397D01*
X46158472Y-63709913D01*
X46255264Y-63519947D01*
X46261746Y-63499996D01*
X56694435Y-63499996D01*
X56694435Y-63500003D01*
X56714630Y-63679249D01*
X56714631Y-63679254D01*
X56774211Y-63849523D01*
X56794868Y-63882398D01*
X56870184Y-64002262D01*
X56997738Y-64129816D01*
X57043342Y-64158471D01*
X57130762Y-64213401D01*
X57150478Y-64225789D01*
X57234710Y-64255263D01*
X57320745Y-64285368D01*
X57320750Y-64285369D01*
X57499996Y-64305565D01*
X57500000Y-64305565D01*
X57500004Y-64305565D01*
X57679249Y-64285369D01*
X57679252Y-64285368D01*
X57679255Y-64285368D01*
X57849522Y-64225789D01*
X58002262Y-64129816D01*
X58129816Y-64002262D01*
X58225789Y-63849522D01*
X58285368Y-63679255D01*
X58305565Y-63500000D01*
X58305565Y-63499996D01*
X62694435Y-63499996D01*
X62694435Y-63500003D01*
X62714630Y-63679249D01*
X62714631Y-63679254D01*
X62774211Y-63849523D01*
X62794868Y-63882398D01*
X62870184Y-64002262D01*
X62997738Y-64129816D01*
X63043342Y-64158471D01*
X63130762Y-64213401D01*
X63150478Y-64225789D01*
X63234710Y-64255263D01*
X63320745Y-64285368D01*
X63320750Y-64285369D01*
X63499996Y-64305565D01*
X63500000Y-64305565D01*
X63500004Y-64305565D01*
X63679249Y-64285369D01*
X63679252Y-64285368D01*
X63679255Y-64285368D01*
X63849522Y-64225789D01*
X64002262Y-64129816D01*
X64129816Y-64002262D01*
X64225789Y-63849522D01*
X64285368Y-63679255D01*
X64305565Y-63500000D01*
X64289541Y-63357783D01*
X64285369Y-63320750D01*
X64285368Y-63320745D01*
X64225788Y-63150476D01*
X64175258Y-63070058D01*
X64129816Y-62997738D01*
X64002262Y-62870184D01*
X63979216Y-62855703D01*
X63849523Y-62774211D01*
X63679254Y-62714631D01*
X63679249Y-62714630D01*
X63500004Y-62694435D01*
X63499996Y-62694435D01*
X63320750Y-62714630D01*
X63320745Y-62714631D01*
X63150476Y-62774211D01*
X62997737Y-62870184D01*
X62870184Y-62997737D01*
X62774211Y-63150476D01*
X62714631Y-63320745D01*
X62714630Y-63320750D01*
X62694435Y-63499996D01*
X58305565Y-63499996D01*
X58289541Y-63357783D01*
X58285369Y-63320750D01*
X58285368Y-63320745D01*
X58225788Y-63150476D01*
X58175258Y-63070058D01*
X58129816Y-62997738D01*
X58002262Y-62870184D01*
X57979216Y-62855703D01*
X57849523Y-62774211D01*
X57679254Y-62714631D01*
X57679249Y-62714630D01*
X57500004Y-62694435D01*
X57499996Y-62694435D01*
X57320750Y-62714630D01*
X57320745Y-62714631D01*
X57150476Y-62774211D01*
X56997737Y-62870184D01*
X56870184Y-62997737D01*
X56774211Y-63150476D01*
X56714631Y-63320745D01*
X56714630Y-63320750D01*
X56694435Y-63499996D01*
X46261746Y-63499996D01*
X46319987Y-63320750D01*
X46321146Y-63317183D01*
X46321146Y-63317182D01*
X46321147Y-63317179D01*
X46354500Y-63106601D01*
X46354500Y-62893399D01*
X46321147Y-62682821D01*
X46321146Y-62682817D01*
X46321146Y-62682816D01*
X46255265Y-62480055D01*
X46255263Y-62480052D01*
X46229568Y-62429621D01*
X46158472Y-62290087D01*
X46033154Y-62117603D01*
X45882397Y-61966846D01*
X45709913Y-61841528D01*
X45519947Y-61744736D01*
X45519944Y-61744734D01*
X45317181Y-61678853D01*
X45176793Y-61656617D01*
X45106601Y-61645500D01*
X44893399Y-61645500D01*
X44823206Y-61656617D01*
X44682819Y-61678853D01*
X44682816Y-61678853D01*
X44480055Y-61744734D01*
X44480052Y-61744736D01*
X44290086Y-61841528D01*
X44117601Y-61966847D01*
X43966847Y-62117601D01*
X43841528Y-62290086D01*
X43744736Y-62480052D01*
X43744734Y-62480055D01*
X43678853Y-62682816D01*
X43678853Y-62682819D01*
X43671998Y-62726098D01*
X43645500Y-62893399D01*
X42500500Y-62893399D01*
X42500500Y-58499996D01*
X46694435Y-58499996D01*
X46694435Y-58500003D01*
X46714630Y-58679249D01*
X46714631Y-58679254D01*
X46774211Y-58849523D01*
X46786778Y-58869523D01*
X46870184Y-59002262D01*
X46997738Y-59129816D01*
X47150478Y-59225789D01*
X47207632Y-59245788D01*
X47320745Y-59285368D01*
X47320750Y-59285369D01*
X47499996Y-59305565D01*
X47500000Y-59305565D01*
X47500004Y-59305565D01*
X47679249Y-59285369D01*
X47679252Y-59285368D01*
X47679255Y-59285368D01*
X47849522Y-59225789D01*
X48002262Y-59129816D01*
X48129816Y-59002262D01*
X48225789Y-58849522D01*
X48285368Y-58679255D01*
X48285369Y-58679249D01*
X48303312Y-58519996D01*
X72194435Y-58519996D01*
X72194435Y-58520003D01*
X72214630Y-58699249D01*
X72214631Y-58699254D01*
X72274211Y-58869523D01*
X72357617Y-59002262D01*
X72370184Y-59022262D01*
X72497738Y-59149816D01*
X72588080Y-59206582D01*
X72618646Y-59225788D01*
X72650478Y-59245789D01*
X72763591Y-59285369D01*
X72820745Y-59305368D01*
X72820750Y-59305369D01*
X72999996Y-59325565D01*
X73000000Y-59325565D01*
X73000004Y-59325565D01*
X73179249Y-59305369D01*
X73179252Y-59305368D01*
X73179255Y-59305368D01*
X73349522Y-59245789D01*
X73502262Y-59149816D01*
X73629816Y-59022262D01*
X73725789Y-58869522D01*
X73785368Y-58699255D01*
X73785369Y-58699249D01*
X73805565Y-58520003D01*
X73805565Y-58519996D01*
X73785369Y-58340750D01*
X73785368Y-58340745D01*
X73725788Y-58170476D01*
X73629815Y-58017737D01*
X73502262Y-57890184D01*
X73349523Y-57794211D01*
X73179254Y-57734631D01*
X73179249Y-57734630D01*
X73000004Y-57714435D01*
X72999996Y-57714435D01*
X72820750Y-57734630D01*
X72820745Y-57734631D01*
X72650476Y-57794211D01*
X72497737Y-57890184D01*
X72370184Y-58017737D01*
X72274211Y-58170476D01*
X72214631Y-58340745D01*
X72214630Y-58340750D01*
X72194435Y-58519996D01*
X48303312Y-58519996D01*
X48305565Y-58500003D01*
X48305565Y-58499996D01*
X48285369Y-58320750D01*
X48285368Y-58320745D01*
X48232787Y-58170478D01*
X48225789Y-58150478D01*
X48129816Y-57997738D01*
X48002262Y-57870184D01*
X47969379Y-57849522D01*
X47849523Y-57774211D01*
X47679254Y-57714631D01*
X47679249Y-57714630D01*
X47500004Y-57694435D01*
X47499996Y-57694435D01*
X47320750Y-57714630D01*
X47320745Y-57714631D01*
X47150476Y-57774211D01*
X46997737Y-57870184D01*
X46870184Y-57997737D01*
X46774211Y-58150476D01*
X46714631Y-58320745D01*
X46714630Y-58320750D01*
X46694435Y-58499996D01*
X42500500Y-58499996D01*
X42500500Y-56499996D01*
X47194435Y-56499996D01*
X47194435Y-56500003D01*
X47214630Y-56679249D01*
X47214631Y-56679254D01*
X47274211Y-56849523D01*
X47309429Y-56905571D01*
X47370184Y-57002262D01*
X47497738Y-57129816D01*
X47650478Y-57225789D01*
X47820745Y-57285368D01*
X47820750Y-57285369D01*
X47999996Y-57305565D01*
X48000000Y-57305565D01*
X48000004Y-57305565D01*
X48179249Y-57285369D01*
X48179252Y-57285368D01*
X48179255Y-57285368D01*
X48349522Y-57225789D01*
X48502262Y-57129816D01*
X48629816Y-57002262D01*
X48725789Y-56849522D01*
X48785368Y-56679255D01*
X48789708Y-56640740D01*
X48805565Y-56500003D01*
X48805565Y-56499996D01*
X57694435Y-56499996D01*
X57694435Y-56500003D01*
X57714630Y-56679249D01*
X57714631Y-56679254D01*
X57774211Y-56849523D01*
X57809429Y-56905571D01*
X57870184Y-57002262D01*
X57997738Y-57129816D01*
X58150478Y-57225789D01*
X58320745Y-57285368D01*
X58320750Y-57285369D01*
X58499996Y-57305565D01*
X58500000Y-57305565D01*
X58500004Y-57305565D01*
X58679249Y-57285369D01*
X58679252Y-57285368D01*
X58679255Y-57285368D01*
X58849522Y-57225789D01*
X59002262Y-57129816D01*
X59129816Y-57002262D01*
X59225789Y-56849522D01*
X59285368Y-56679255D01*
X59289708Y-56640740D01*
X59305565Y-56500003D01*
X59305565Y-56499996D01*
X66694435Y-56499996D01*
X66694435Y-56500003D01*
X66714630Y-56679249D01*
X66714633Y-56679262D01*
X66774209Y-56849520D01*
X66827309Y-56934029D01*
X66846309Y-57001266D01*
X66827309Y-57065971D01*
X66774209Y-57150479D01*
X66714633Y-57320737D01*
X66714630Y-57320750D01*
X66694435Y-57499996D01*
X66694435Y-57500003D01*
X66714630Y-57679249D01*
X66714631Y-57679254D01*
X66774211Y-57849523D01*
X66867341Y-57997737D01*
X66870184Y-58002262D01*
X66997738Y-58129816D01*
X67150478Y-58225789D01*
X67320745Y-58285368D01*
X67320750Y-58285369D01*
X67499996Y-58305565D01*
X67500000Y-58305565D01*
X67500004Y-58305565D01*
X67679249Y-58285369D01*
X67679252Y-58285368D01*
X67679255Y-58285368D01*
X67849522Y-58225789D01*
X68002262Y-58129816D01*
X68129816Y-58002262D01*
X68225789Y-57849522D01*
X68285368Y-57679255D01*
X68305565Y-57500000D01*
X68305565Y-57499996D01*
X74194435Y-57499996D01*
X74194435Y-57500003D01*
X74214630Y-57679249D01*
X74214631Y-57679254D01*
X74274211Y-57849523D01*
X74367341Y-57997737D01*
X74370184Y-58002262D01*
X74497738Y-58129816D01*
X74650478Y-58225789D01*
X74820745Y-58285368D01*
X74820750Y-58285369D01*
X74999996Y-58305565D01*
X75000000Y-58305565D01*
X75000004Y-58305565D01*
X75179249Y-58285369D01*
X75179252Y-58285368D01*
X75179255Y-58285368D01*
X75349522Y-58225789D01*
X75502262Y-58129816D01*
X75629816Y-58002262D01*
X75725789Y-57849522D01*
X75785368Y-57679255D01*
X75805565Y-57500000D01*
X75796421Y-57418848D01*
X75785369Y-57320750D01*
X75785368Y-57320745D01*
X75725788Y-57150476D01*
X75672690Y-57065971D01*
X75629816Y-56997738D01*
X75502262Y-56870184D01*
X75469379Y-56849522D01*
X75349523Y-56774211D01*
X75280312Y-56749993D01*
X78844700Y-56749993D01*
X78844700Y-56750006D01*
X78863864Y-56981297D01*
X78863866Y-56981308D01*
X78920842Y-57206300D01*
X79014075Y-57418848D01*
X79141016Y-57613147D01*
X79141019Y-57613151D01*
X79141021Y-57613153D01*
X79298216Y-57783913D01*
X79298219Y-57783915D01*
X79298222Y-57783918D01*
X79481365Y-57926464D01*
X79481371Y-57926468D01*
X79481374Y-57926470D01*
X79685497Y-58036936D01*
X79799487Y-58076068D01*
X79905015Y-58112297D01*
X79905017Y-58112297D01*
X79905019Y-58112298D01*
X80133951Y-58150500D01*
X80133952Y-58150500D01*
X80366048Y-58150500D01*
X80366049Y-58150500D01*
X80594981Y-58112298D01*
X80814503Y-58036936D01*
X81018626Y-57926470D01*
X81065247Y-57890184D01*
X81188553Y-57794211D01*
X81201784Y-57783913D01*
X81358979Y-57613153D01*
X81485924Y-57418849D01*
X81579157Y-57206300D01*
X81636134Y-56981305D01*
X81636135Y-56981297D01*
X81655300Y-56750006D01*
X81655300Y-56749993D01*
X85344700Y-56749993D01*
X85344700Y-56750006D01*
X85363864Y-56981297D01*
X85363866Y-56981308D01*
X85420842Y-57206300D01*
X85514075Y-57418848D01*
X85641016Y-57613147D01*
X85641019Y-57613151D01*
X85641021Y-57613153D01*
X85798216Y-57783913D01*
X85798219Y-57783915D01*
X85798222Y-57783918D01*
X85981365Y-57926464D01*
X85981371Y-57926468D01*
X85981374Y-57926470D01*
X86185497Y-58036936D01*
X86299487Y-58076068D01*
X86405015Y-58112297D01*
X86405017Y-58112297D01*
X86405019Y-58112298D01*
X86633951Y-58150500D01*
X86633952Y-58150500D01*
X86866048Y-58150500D01*
X86866049Y-58150500D01*
X87094981Y-58112298D01*
X87314503Y-58036936D01*
X87518626Y-57926470D01*
X87565247Y-57890184D01*
X87688553Y-57794211D01*
X87701784Y-57783913D01*
X87858979Y-57613153D01*
X87985924Y-57418849D01*
X88079157Y-57206300D01*
X88136134Y-56981305D01*
X88136135Y-56981297D01*
X88155300Y-56750006D01*
X88155300Y-56749996D01*
X88151917Y-56709177D01*
X88165997Y-56640740D01*
X88214842Y-56590780D01*
X88282942Y-56575159D01*
X88315756Y-56581654D01*
X88405015Y-56612297D01*
X88405017Y-56612297D01*
X88405019Y-56612298D01*
X88633951Y-56650500D01*
X88633952Y-56650500D01*
X88866048Y-56650500D01*
X88866049Y-56650500D01*
X89094981Y-56612298D01*
X89314503Y-56536936D01*
X89518626Y-56426470D01*
X89701784Y-56283913D01*
X89858979Y-56113153D01*
X89985924Y-55918849D01*
X90079157Y-55706300D01*
X90136134Y-55481305D01*
X90137055Y-55470190D01*
X90155300Y-55250006D01*
X90155300Y-55249993D01*
X90136135Y-55018702D01*
X90136133Y-55018691D01*
X90079157Y-54793699D01*
X89985924Y-54581151D01*
X89858983Y-54386852D01*
X89858980Y-54386849D01*
X89858979Y-54386847D01*
X89701784Y-54216087D01*
X89701779Y-54216083D01*
X89701777Y-54216081D01*
X89518634Y-54073535D01*
X89518628Y-54073531D01*
X89314504Y-53963064D01*
X89314495Y-53963061D01*
X89094984Y-53887702D01*
X88923282Y-53859050D01*
X88866049Y-53849500D01*
X88633951Y-53849500D01*
X88588164Y-53857140D01*
X88405015Y-53887702D01*
X88185504Y-53963061D01*
X88185495Y-53963064D01*
X87981371Y-54073531D01*
X87981365Y-54073535D01*
X87798222Y-54216081D01*
X87798219Y-54216084D01*
X87641016Y-54386852D01*
X87514075Y-54581151D01*
X87420842Y-54793699D01*
X87363866Y-55018691D01*
X87363864Y-55018702D01*
X87344700Y-55249993D01*
X87344700Y-55249995D01*
X87344700Y-55250000D01*
X87347485Y-55283607D01*
X87348083Y-55290825D01*
X87334001Y-55359261D01*
X87285155Y-55409220D01*
X87217054Y-55424840D01*
X87184243Y-55418345D01*
X87094984Y-55387702D01*
X86908621Y-55356604D01*
X86866049Y-55349500D01*
X86633951Y-55349500D01*
X86591379Y-55356604D01*
X86405015Y-55387702D01*
X86185504Y-55463061D01*
X86185495Y-55463064D01*
X85981371Y-55573531D01*
X85981365Y-55573535D01*
X85798222Y-55716081D01*
X85798219Y-55716084D01*
X85798216Y-55716086D01*
X85798216Y-55716087D01*
X85744709Y-55774211D01*
X85641016Y-55886852D01*
X85514075Y-56081151D01*
X85420842Y-56293699D01*
X85363866Y-56518691D01*
X85363864Y-56518702D01*
X85344700Y-56749993D01*
X81655300Y-56749993D01*
X81636135Y-56518702D01*
X81636133Y-56518691D01*
X81579157Y-56293699D01*
X81485924Y-56081151D01*
X81358983Y-55886852D01*
X81358980Y-55886849D01*
X81358979Y-55886847D01*
X81201784Y-55716087D01*
X81201779Y-55716083D01*
X81201777Y-55716081D01*
X81018634Y-55573535D01*
X81018628Y-55573531D01*
X80814504Y-55463064D01*
X80814495Y-55463061D01*
X80594984Y-55387702D01*
X80408621Y-55356604D01*
X80366049Y-55349500D01*
X80133951Y-55349500D01*
X80091379Y-55356604D01*
X79905015Y-55387702D01*
X79685504Y-55463061D01*
X79685495Y-55463064D01*
X79481371Y-55573531D01*
X79481365Y-55573535D01*
X79298222Y-55716081D01*
X79298219Y-55716084D01*
X79298216Y-55716086D01*
X79298216Y-55716087D01*
X79244709Y-55774211D01*
X79141016Y-55886852D01*
X79014075Y-56081151D01*
X78920842Y-56293699D01*
X78863866Y-56518691D01*
X78863864Y-56518702D01*
X78844700Y-56749993D01*
X75280312Y-56749993D01*
X75179254Y-56714631D01*
X75179249Y-56714630D01*
X75000004Y-56694435D01*
X74999996Y-56694435D01*
X74820750Y-56714630D01*
X74820745Y-56714631D01*
X74650476Y-56774211D01*
X74497737Y-56870184D01*
X74370184Y-56997737D01*
X74274211Y-57150476D01*
X74214631Y-57320745D01*
X74214630Y-57320750D01*
X74194435Y-57499996D01*
X68305565Y-57499996D01*
X68296421Y-57418848D01*
X68285369Y-57320750D01*
X68285368Y-57320745D01*
X68225788Y-57150475D01*
X68172691Y-57065973D01*
X68153690Y-56998736D01*
X68172691Y-56934027D01*
X68225788Y-56849524D01*
X68225789Y-56849522D01*
X68285368Y-56679255D01*
X68289708Y-56640740D01*
X68305565Y-56500003D01*
X68305565Y-56499996D01*
X68285369Y-56320750D01*
X68285368Y-56320745D01*
X68225789Y-56150478D01*
X68129816Y-55997738D01*
X68002262Y-55870184D01*
X67894170Y-55802265D01*
X67849523Y-55774211D01*
X67679254Y-55714631D01*
X67679249Y-55714630D01*
X67500004Y-55694435D01*
X67499996Y-55694435D01*
X67320750Y-55714630D01*
X67320745Y-55714631D01*
X67150476Y-55774211D01*
X66997737Y-55870184D01*
X66870184Y-55997737D01*
X66774211Y-56150476D01*
X66714631Y-56320745D01*
X66714630Y-56320750D01*
X66694435Y-56499996D01*
X59305565Y-56499996D01*
X59285369Y-56320750D01*
X59285368Y-56320745D01*
X59225789Y-56150478D01*
X59129816Y-55997738D01*
X59002262Y-55870184D01*
X58894170Y-55802265D01*
X58849523Y-55774211D01*
X58679254Y-55714631D01*
X58679249Y-55714630D01*
X58500004Y-55694435D01*
X58499996Y-55694435D01*
X58320750Y-55714630D01*
X58320745Y-55714631D01*
X58150476Y-55774211D01*
X57997737Y-55870184D01*
X57870184Y-55997737D01*
X57774211Y-56150476D01*
X57714631Y-56320745D01*
X57714630Y-56320750D01*
X57694435Y-56499996D01*
X48805565Y-56499996D01*
X48785369Y-56320750D01*
X48785368Y-56320745D01*
X48725789Y-56150478D01*
X48629816Y-55997738D01*
X48502262Y-55870184D01*
X48394170Y-55802265D01*
X48349523Y-55774211D01*
X48179254Y-55714631D01*
X48179249Y-55714630D01*
X48000004Y-55694435D01*
X47999996Y-55694435D01*
X47820750Y-55714630D01*
X47820745Y-55714631D01*
X47650476Y-55774211D01*
X47497737Y-55870184D01*
X47370184Y-55997737D01*
X47274211Y-56150476D01*
X47214631Y-56320745D01*
X47214630Y-56320750D01*
X47194435Y-56499996D01*
X42500500Y-56499996D01*
X42500500Y-54499996D01*
X51694435Y-54499996D01*
X51694435Y-54500003D01*
X51714630Y-54679249D01*
X51714631Y-54679254D01*
X51774211Y-54849523D01*
X51837648Y-54950481D01*
X51870184Y-55002262D01*
X51997738Y-55129816D01*
X52150478Y-55225789D01*
X52315712Y-55283607D01*
X52320745Y-55285368D01*
X52320750Y-55285369D01*
X52499996Y-55305565D01*
X52500000Y-55305565D01*
X52500004Y-55305565D01*
X52549404Y-55299999D01*
X68194435Y-55299999D01*
X68194435Y-55300006D01*
X68214630Y-55479252D01*
X68214631Y-55479257D01*
X68274211Y-55649526D01*
X68370184Y-55802265D01*
X68497738Y-55929819D01*
X68638222Y-56018091D01*
X68684513Y-56070426D01*
X68695470Y-56109201D01*
X68714630Y-56279256D01*
X68714631Y-56279260D01*
X68774211Y-56449529D01*
X68829133Y-56536936D01*
X68870184Y-56602268D01*
X68997738Y-56729822D01*
X69150478Y-56825795D01*
X69320745Y-56885374D01*
X69320750Y-56885375D01*
X69499996Y-56905571D01*
X69500000Y-56905571D01*
X69500004Y-56905571D01*
X69679249Y-56885375D01*
X69679252Y-56885374D01*
X69679255Y-56885374D01*
X69849522Y-56825795D01*
X70002262Y-56729822D01*
X70129816Y-56602268D01*
X70225789Y-56449528D01*
X70285368Y-56279261D01*
X70285369Y-56279255D01*
X70305565Y-56100009D01*
X70305565Y-56100002D01*
X70285369Y-55920756D01*
X70285368Y-55920751D01*
X70267674Y-55870184D01*
X70225789Y-55750484D01*
X70210271Y-55725788D01*
X70149968Y-55629816D01*
X70129816Y-55597744D01*
X70002262Y-55470190D01*
X70002256Y-55470185D01*
X69898507Y-55404995D01*
X69852216Y-55352661D01*
X69841568Y-55283607D01*
X69869943Y-55219759D01*
X69898503Y-55195011D01*
X70002262Y-55129816D01*
X70129816Y-55002262D01*
X70131240Y-54999996D01*
X73194435Y-54999996D01*
X73194435Y-55000003D01*
X73214630Y-55179249D01*
X73214631Y-55179254D01*
X73274211Y-55349523D01*
X73317455Y-55418345D01*
X73370184Y-55502262D01*
X73497738Y-55629816D01*
X73588080Y-55686582D01*
X73635032Y-55716084D01*
X73650478Y-55725789D01*
X73788860Y-55774211D01*
X73820745Y-55785368D01*
X73820750Y-55785369D01*
X73999996Y-55805565D01*
X74000000Y-55805565D01*
X74000004Y-55805565D01*
X74179249Y-55785369D01*
X74179252Y-55785368D01*
X74179255Y-55785368D01*
X74349522Y-55725789D01*
X74502262Y-55629816D01*
X74629816Y-55502262D01*
X74725789Y-55349522D01*
X74785368Y-55179255D01*
X74785369Y-55179249D01*
X74805565Y-55000003D01*
X74805565Y-54999996D01*
X74785369Y-54820750D01*
X74785368Y-54820745D01*
X74777318Y-54797740D01*
X74725789Y-54650478D01*
X74631235Y-54499996D01*
X75694435Y-54499996D01*
X75694435Y-54500003D01*
X75714630Y-54679249D01*
X75714631Y-54679254D01*
X75774211Y-54849523D01*
X75837648Y-54950481D01*
X75870184Y-55002262D01*
X75997738Y-55129816D01*
X76150478Y-55225789D01*
X76315712Y-55283607D01*
X76320745Y-55285368D01*
X76320750Y-55285369D01*
X76499996Y-55305565D01*
X76500000Y-55305565D01*
X76500004Y-55305565D01*
X76679249Y-55285369D01*
X76679252Y-55285368D01*
X76679255Y-55285368D01*
X76849522Y-55225789D01*
X77002262Y-55129816D01*
X77129816Y-55002262D01*
X77225789Y-54849522D01*
X77225789Y-54849519D01*
X77228259Y-54845590D01*
X77280594Y-54799299D01*
X77347136Y-54788342D01*
X77499996Y-54805565D01*
X77500000Y-54805565D01*
X77500004Y-54805565D01*
X77679249Y-54785369D01*
X77679252Y-54785368D01*
X77679255Y-54785368D01*
X77849522Y-54725789D01*
X78002262Y-54629816D01*
X78129816Y-54502262D01*
X78225789Y-54349522D01*
X78285368Y-54179255D01*
X78285369Y-54179249D01*
X78305565Y-54000003D01*
X78305565Y-53999996D01*
X78285369Y-53820750D01*
X78285368Y-53820745D01*
X78269085Y-53774211D01*
X78225789Y-53650478D01*
X78129816Y-53497738D01*
X78002262Y-53370184D01*
X77849523Y-53274211D01*
X77679254Y-53214631D01*
X77679249Y-53214630D01*
X77500004Y-53194435D01*
X77499996Y-53194435D01*
X77320750Y-53214630D01*
X77320745Y-53214631D01*
X77150476Y-53274211D01*
X76997737Y-53370184D01*
X76870182Y-53497739D01*
X76771739Y-53654410D01*
X76719405Y-53700700D01*
X76652863Y-53711657D01*
X76500004Y-53694435D01*
X76499996Y-53694435D01*
X76320750Y-53714630D01*
X76320745Y-53714631D01*
X76150476Y-53774211D01*
X75997737Y-53870184D01*
X75870184Y-53997737D01*
X75774211Y-54150476D01*
X75714631Y-54320745D01*
X75714630Y-54320750D01*
X75694435Y-54499996D01*
X74631235Y-54499996D01*
X74629816Y-54497738D01*
X74502262Y-54370184D01*
X74445476Y-54334503D01*
X74349523Y-54274211D01*
X74179254Y-54214631D01*
X74179249Y-54214630D01*
X74000004Y-54194435D01*
X73999996Y-54194435D01*
X73820750Y-54214630D01*
X73820745Y-54214631D01*
X73650476Y-54274211D01*
X73497737Y-54370184D01*
X73370184Y-54497737D01*
X73274211Y-54650476D01*
X73214631Y-54820745D01*
X73214630Y-54820750D01*
X73194435Y-54999996D01*
X70131240Y-54999996D01*
X70225789Y-54849522D01*
X70285368Y-54679255D01*
X70286390Y-54670185D01*
X70305565Y-54500003D01*
X70305565Y-54499996D01*
X70285369Y-54320750D01*
X70285368Y-54320745D01*
X70250714Y-54221709D01*
X70225789Y-54150478D01*
X70129816Y-53997738D01*
X70002262Y-53870184D01*
X69969344Y-53849500D01*
X69849523Y-53774211D01*
X69679254Y-53714631D01*
X69679249Y-53714630D01*
X69500004Y-53694435D01*
X69499996Y-53694435D01*
X69320750Y-53714630D01*
X69320745Y-53714631D01*
X69150476Y-53774211D01*
X68997737Y-53870184D01*
X68870184Y-53997737D01*
X68774211Y-54150476D01*
X68714631Y-54320745D01*
X68714630Y-54320749D01*
X68695470Y-54490804D01*
X68668403Y-54555218D01*
X68638223Y-54581913D01*
X68497739Y-54670185D01*
X68370184Y-54797740D01*
X68274211Y-54950479D01*
X68214631Y-55120748D01*
X68214630Y-55120753D01*
X68194435Y-55299999D01*
X52549404Y-55299999D01*
X52679249Y-55285369D01*
X52679252Y-55285368D01*
X52679255Y-55285368D01*
X52849522Y-55225789D01*
X53002262Y-55129816D01*
X53129816Y-55002262D01*
X53225789Y-54849522D01*
X53285368Y-54679255D01*
X53286390Y-54670185D01*
X53305565Y-54500003D01*
X53305565Y-54499996D01*
X53285369Y-54320750D01*
X53285368Y-54320745D01*
X53250714Y-54221709D01*
X53225789Y-54150478D01*
X53131235Y-53999996D01*
X66194435Y-53999996D01*
X66194435Y-54000003D01*
X66214630Y-54179249D01*
X66214631Y-54179254D01*
X66274211Y-54349523D01*
X66297667Y-54386852D01*
X66370184Y-54502262D01*
X66497738Y-54629816D01*
X66650478Y-54725789D01*
X66820745Y-54785368D01*
X66820750Y-54785369D01*
X66999996Y-54805565D01*
X67000000Y-54805565D01*
X67000004Y-54805565D01*
X67179249Y-54785369D01*
X67179252Y-54785368D01*
X67179255Y-54785368D01*
X67349522Y-54725789D01*
X67502262Y-54629816D01*
X67629816Y-54502262D01*
X67725789Y-54349522D01*
X67785368Y-54179255D01*
X67785369Y-54179249D01*
X67805565Y-54000003D01*
X67805565Y-53999996D01*
X67785369Y-53820750D01*
X67785368Y-53820745D01*
X67769085Y-53774211D01*
X67725789Y-53650478D01*
X67629816Y-53497738D01*
X67502262Y-53370184D01*
X67349523Y-53274211D01*
X67179254Y-53214631D01*
X67179249Y-53214630D01*
X67000004Y-53194435D01*
X66999996Y-53194435D01*
X66820750Y-53214630D01*
X66820745Y-53214631D01*
X66650476Y-53274211D01*
X66497737Y-53370184D01*
X66370184Y-53497737D01*
X66274211Y-53650476D01*
X66214631Y-53820745D01*
X66214630Y-53820750D01*
X66194435Y-53999996D01*
X53131235Y-53999996D01*
X53129816Y-53997738D01*
X53002262Y-53870184D01*
X52969344Y-53849500D01*
X52849523Y-53774211D01*
X52679254Y-53714631D01*
X52679249Y-53714630D01*
X52500004Y-53694435D01*
X52499996Y-53694435D01*
X52320750Y-53714630D01*
X52320745Y-53714631D01*
X52150476Y-53774211D01*
X51997737Y-53870184D01*
X51870184Y-53997737D01*
X51774211Y-54150476D01*
X51714631Y-54320745D01*
X51714630Y-54320750D01*
X51694435Y-54499996D01*
X42500500Y-54499996D01*
X42500500Y-51999996D01*
X65365907Y-51999996D01*
X65365907Y-52000003D01*
X65386102Y-52179249D01*
X65386103Y-52179254D01*
X65445683Y-52349523D01*
X65537097Y-52495007D01*
X65541656Y-52502262D01*
X65669210Y-52629816D01*
X65821950Y-52725789D01*
X65992217Y-52785368D01*
X65992222Y-52785369D01*
X66171468Y-52805565D01*
X66171472Y-52805565D01*
X66171476Y-52805565D01*
X66350721Y-52785369D01*
X66350724Y-52785368D01*
X66350727Y-52785368D01*
X66520994Y-52725789D01*
X66673734Y-52629816D01*
X66801288Y-52502262D01*
X66897261Y-52349522D01*
X66956840Y-52179255D01*
X66957657Y-52172003D01*
X66977037Y-52000003D01*
X66977037Y-51999996D01*
X68694435Y-51999996D01*
X68694435Y-52000003D01*
X68714630Y-52179249D01*
X68714631Y-52179254D01*
X68774211Y-52349523D01*
X68865625Y-52495007D01*
X68870184Y-52502262D01*
X68997738Y-52629816D01*
X69150478Y-52725789D01*
X69320745Y-52785368D01*
X69320750Y-52785369D01*
X69499996Y-52805565D01*
X69500000Y-52805565D01*
X69500004Y-52805565D01*
X69679249Y-52785369D01*
X69679252Y-52785368D01*
X69679255Y-52785368D01*
X69849522Y-52725789D01*
X70002262Y-52629816D01*
X70129816Y-52502262D01*
X70131240Y-52499996D01*
X70694435Y-52499996D01*
X70694435Y-52500003D01*
X70714630Y-52679249D01*
X70714631Y-52679254D01*
X70774211Y-52849523D01*
X70852595Y-52974270D01*
X70870184Y-53002262D01*
X70997738Y-53129816D01*
X71023326Y-53145894D01*
X71132721Y-53214632D01*
X71150478Y-53225789D01*
X71256315Y-53262823D01*
X71320745Y-53285368D01*
X71320750Y-53285369D01*
X71499996Y-53305565D01*
X71500000Y-53305565D01*
X71500004Y-53305565D01*
X71679249Y-53285369D01*
X71679252Y-53285368D01*
X71679255Y-53285368D01*
X71849522Y-53225789D01*
X72002262Y-53129816D01*
X72129816Y-53002262D01*
X72140917Y-52984593D01*
X72193249Y-52938303D01*
X72262302Y-52927653D01*
X72326151Y-52956027D01*
X72342592Y-52974991D01*
X72343498Y-52974270D01*
X72347841Y-52979716D01*
X72475395Y-53107270D01*
X72628135Y-53203243D01*
X72722252Y-53236176D01*
X72798402Y-53262822D01*
X72798407Y-53262823D01*
X72977653Y-53283019D01*
X72977657Y-53283019D01*
X72977661Y-53283019D01*
X73156906Y-53262823D01*
X73156909Y-53262822D01*
X73156912Y-53262822D01*
X73327179Y-53203243D01*
X73418450Y-53145893D01*
X73485684Y-53126893D01*
X73550393Y-53145894D01*
X73694073Y-53236175D01*
X73694077Y-53236176D01*
X73694078Y-53236177D01*
X73770225Y-53262822D01*
X73864345Y-53295756D01*
X73864350Y-53295757D01*
X74043596Y-53315953D01*
X74043600Y-53315953D01*
X74043604Y-53315953D01*
X74222849Y-53295757D01*
X74222852Y-53295756D01*
X74222855Y-53295756D01*
X74393122Y-53236177D01*
X74545862Y-53140204D01*
X74673416Y-53012650D01*
X74769389Y-52859910D01*
X74828968Y-52689643D01*
X74828969Y-52689637D01*
X74849165Y-52510391D01*
X74849165Y-52510384D01*
X74836755Y-52400238D01*
X78569738Y-52400238D01*
X78569738Y-52400245D01*
X78589933Y-52579491D01*
X78589934Y-52579496D01*
X78649514Y-52749765D01*
X78714708Y-52853520D01*
X78745487Y-52902504D01*
X78873041Y-53030058D01*
X79025781Y-53126031D01*
X79170090Y-53176527D01*
X79196048Y-53185610D01*
X79196053Y-53185611D01*
X79375299Y-53205807D01*
X79375303Y-53205807D01*
X79375307Y-53205807D01*
X79554552Y-53185611D01*
X79554555Y-53185610D01*
X79554558Y-53185610D01*
X79724825Y-53126031D01*
X79877565Y-53030058D01*
X80005119Y-52902504D01*
X80101092Y-52749764D01*
X80160671Y-52579497D01*
X80160672Y-52579491D01*
X80180868Y-52400245D01*
X80180868Y-52400238D01*
X80160672Y-52220992D01*
X80160671Y-52220987D01*
X80128769Y-52129816D01*
X80101092Y-52050720D01*
X80100513Y-52049799D01*
X80005118Y-51897979D01*
X79949279Y-51842140D01*
X79915794Y-51780817D01*
X79920778Y-51711125D01*
X79962650Y-51655192D01*
X79970958Y-51649485D01*
X80002262Y-51629816D01*
X80129816Y-51502262D01*
X80131240Y-51499996D01*
X84194435Y-51499996D01*
X84194435Y-51500003D01*
X84214630Y-51679249D01*
X84214631Y-51679254D01*
X84274211Y-51849523D01*
X84318656Y-51920256D01*
X84370184Y-52002262D01*
X84497738Y-52129816D01*
X84547151Y-52160864D01*
X84642843Y-52220992D01*
X84650478Y-52225789D01*
X84741303Y-52257570D01*
X84820745Y-52285368D01*
X84820750Y-52285369D01*
X84999996Y-52305565D01*
X85000000Y-52305565D01*
X85000004Y-52305565D01*
X85179249Y-52285369D01*
X85179251Y-52285368D01*
X85179255Y-52285368D01*
X85179258Y-52285366D01*
X85179262Y-52285366D01*
X85258698Y-52257570D01*
X85328476Y-52254007D01*
X85389104Y-52288736D01*
X85421331Y-52350729D01*
X85416695Y-52415565D01*
X85388897Y-52495007D01*
X85388895Y-52495015D01*
X85368700Y-52674261D01*
X85368700Y-52674268D01*
X85388895Y-52853514D01*
X85388896Y-52853519D01*
X85448476Y-53023788D01*
X85521625Y-53140203D01*
X85544449Y-53176527D01*
X85672003Y-53304081D01*
X85824743Y-53400054D01*
X85995010Y-53459633D01*
X85995015Y-53459634D01*
X86174261Y-53479830D01*
X86174265Y-53479830D01*
X86174269Y-53479830D01*
X86353514Y-53459634D01*
X86353517Y-53459633D01*
X86353520Y-53459633D01*
X86523787Y-53400054D01*
X86676527Y-53304081D01*
X86804081Y-53176527D01*
X86900054Y-53023787D01*
X86959633Y-52853520D01*
X86959634Y-52853514D01*
X86979830Y-52674268D01*
X86979830Y-52674261D01*
X86959634Y-52495015D01*
X86959633Y-52495010D01*
X86908725Y-52349523D01*
X86900054Y-52324743D01*
X86804081Y-52172003D01*
X86676527Y-52044449D01*
X86639880Y-52021422D01*
X86523788Y-51948476D01*
X86353519Y-51888896D01*
X86353514Y-51888895D01*
X86174269Y-51868700D01*
X86174261Y-51868700D01*
X85995015Y-51888895D01*
X85995007Y-51888897D01*
X85915565Y-51916695D01*
X85845786Y-51920256D01*
X85785159Y-51885527D01*
X85752932Y-51823533D01*
X85757570Y-51758698D01*
X85785366Y-51679262D01*
X85785369Y-51679249D01*
X85805565Y-51500003D01*
X85805565Y-51499996D01*
X85785369Y-51320750D01*
X85785368Y-51320745D01*
X85751956Y-51225259D01*
X85725789Y-51150478D01*
X85629816Y-50997738D01*
X85502262Y-50870184D01*
X85469379Y-50849522D01*
X85349523Y-50774211D01*
X85179254Y-50714631D01*
X85179249Y-50714630D01*
X85000004Y-50694435D01*
X84999996Y-50694435D01*
X84820750Y-50714630D01*
X84820745Y-50714631D01*
X84650476Y-50774211D01*
X84497737Y-50870184D01*
X84370184Y-50997737D01*
X84274211Y-51150476D01*
X84214631Y-51320745D01*
X84214630Y-51320750D01*
X84194435Y-51499996D01*
X80131240Y-51499996D01*
X80225789Y-51349522D01*
X80285368Y-51179255D01*
X80285369Y-51179249D01*
X80305565Y-51000003D01*
X80305565Y-50999996D01*
X80285369Y-50820750D01*
X80285368Y-50820745D01*
X80241170Y-50694435D01*
X80225789Y-50650478D01*
X80129816Y-50497738D01*
X80002262Y-50370184D01*
X79849523Y-50274211D01*
X79679254Y-50214631D01*
X79679249Y-50214630D01*
X79500004Y-50194435D01*
X79499996Y-50194435D01*
X79320750Y-50214630D01*
X79320745Y-50214631D01*
X79150476Y-50274211D01*
X78997737Y-50370184D01*
X78870184Y-50497737D01*
X78774211Y-50650476D01*
X78714631Y-50820745D01*
X78714630Y-50820750D01*
X78694435Y-50999996D01*
X78694435Y-51000003D01*
X78714630Y-51179249D01*
X78714631Y-51179254D01*
X78774211Y-51349523D01*
X78870184Y-51502262D01*
X78926023Y-51558101D01*
X78959508Y-51619424D01*
X78954524Y-51689116D01*
X78912652Y-51745049D01*
X78904314Y-51750776D01*
X78873040Y-51770426D01*
X78745487Y-51897979D01*
X78649514Y-52050718D01*
X78589934Y-52220987D01*
X78589933Y-52220992D01*
X78569738Y-52400238D01*
X74836755Y-52400238D01*
X74828969Y-52331138D01*
X74828968Y-52331133D01*
X74801980Y-52254007D01*
X74769389Y-52160866D01*
X74673416Y-52008126D01*
X74649457Y-51984167D01*
X74615972Y-51922844D01*
X74620956Y-51853152D01*
X74662828Y-51797219D01*
X74696182Y-51779444D01*
X74849522Y-51725789D01*
X75002262Y-51629816D01*
X75129816Y-51502262D01*
X75225789Y-51349522D01*
X75285368Y-51179255D01*
X75285369Y-51179249D01*
X75305565Y-51000003D01*
X75305565Y-50999996D01*
X75285369Y-50820750D01*
X75285368Y-50820745D01*
X75241170Y-50694435D01*
X75225789Y-50650478D01*
X75129816Y-50497738D01*
X75002262Y-50370184D01*
X74861492Y-50281732D01*
X74815201Y-50229397D01*
X74804553Y-50160343D01*
X74832928Y-50096495D01*
X74839759Y-50089081D01*
X74958171Y-49970670D01*
X75054144Y-49817930D01*
X75113723Y-49647663D01*
X75113724Y-49647657D01*
X75133920Y-49468411D01*
X75133920Y-49468404D01*
X75113724Y-49289158D01*
X75113723Y-49289153D01*
X75077324Y-49185130D01*
X75054144Y-49118886D01*
X74958171Y-48966146D01*
X74830617Y-48838592D01*
X74764268Y-48796902D01*
X74677878Y-48742619D01*
X74507609Y-48683039D01*
X74507604Y-48683038D01*
X74328359Y-48662843D01*
X74328351Y-48662843D01*
X74149105Y-48683038D01*
X74149100Y-48683039D01*
X73978831Y-48742619D01*
X73826092Y-48838592D01*
X73698539Y-48966145D01*
X73602566Y-49118884D01*
X73542986Y-49289153D01*
X73542985Y-49289158D01*
X73522790Y-49468404D01*
X73522790Y-49468411D01*
X73542985Y-49647657D01*
X73542986Y-49647662D01*
X73602566Y-49817931D01*
X73670765Y-49926468D01*
X73698539Y-49970670D01*
X73826093Y-50098224D01*
X73966862Y-50186675D01*
X74013153Y-50239010D01*
X74023801Y-50308063D01*
X73995426Y-50371912D01*
X73988572Y-50379350D01*
X73870183Y-50497739D01*
X73774211Y-50650476D01*
X73714631Y-50820745D01*
X73714630Y-50820750D01*
X73694435Y-50999996D01*
X73694435Y-51000003D01*
X73714630Y-51179249D01*
X73714631Y-51179254D01*
X73774211Y-51349523D01*
X73870184Y-51502262D01*
X73894142Y-51526220D01*
X73927627Y-51587543D01*
X73922643Y-51657235D01*
X73880771Y-51713168D01*
X73847416Y-51730942D01*
X73694080Y-51784597D01*
X73602807Y-51841948D01*
X73535570Y-51860948D01*
X73470863Y-51841948D01*
X73327180Y-51751665D01*
X73156911Y-51692085D01*
X73156906Y-51692084D01*
X72977661Y-51671889D01*
X72977653Y-51671889D01*
X72798407Y-51692084D01*
X72798402Y-51692085D01*
X72628133Y-51751665D01*
X72475394Y-51847638D01*
X72347841Y-51975191D01*
X72347837Y-51975196D01*
X72336737Y-51992862D01*
X72284402Y-52039152D01*
X72215348Y-52049799D01*
X72151500Y-52021422D01*
X72135065Y-52002460D01*
X72134159Y-52003184D01*
X72129815Y-51997737D01*
X72002262Y-51870184D01*
X71849523Y-51774211D01*
X71679254Y-51714631D01*
X71679249Y-51714630D01*
X71500004Y-51694435D01*
X71499996Y-51694435D01*
X71320750Y-51714630D01*
X71320745Y-51714631D01*
X71150476Y-51774211D01*
X70997737Y-51870184D01*
X70870184Y-51997737D01*
X70774211Y-52150476D01*
X70714631Y-52320745D01*
X70714630Y-52320750D01*
X70694435Y-52499996D01*
X70131240Y-52499996D01*
X70225789Y-52349522D01*
X70285368Y-52179255D01*
X70286185Y-52172003D01*
X70305565Y-52000003D01*
X70305565Y-51999996D01*
X70285369Y-51820750D01*
X70285368Y-51820745D01*
X70226287Y-51651901D01*
X70222726Y-51582122D01*
X70257455Y-51521494D01*
X70277359Y-51505951D01*
X70277996Y-51505552D01*
X70405550Y-51377998D01*
X70501523Y-51225258D01*
X70561102Y-51054991D01*
X70567298Y-51000000D01*
X70581299Y-50875739D01*
X70581299Y-50875732D01*
X70561103Y-50696486D01*
X70561102Y-50696481D01*
X70501522Y-50526212D01*
X70405549Y-50373473D01*
X70277996Y-50245920D01*
X70125257Y-50149947D01*
X69954988Y-50090367D01*
X69954983Y-50090366D01*
X69775738Y-50070171D01*
X69775730Y-50070171D01*
X69596484Y-50090366D01*
X69596479Y-50090367D01*
X69426210Y-50149947D01*
X69273471Y-50245920D01*
X69145918Y-50373473D01*
X69049945Y-50526212D01*
X68990365Y-50696481D01*
X68990364Y-50696486D01*
X68970169Y-50875732D01*
X68970169Y-50875739D01*
X68990364Y-51054985D01*
X68990366Y-51054993D01*
X69049446Y-51223834D01*
X69053007Y-51293612D01*
X69018278Y-51354240D01*
X68998392Y-51369772D01*
X68997744Y-51370178D01*
X68997737Y-51370184D01*
X68870184Y-51497737D01*
X68774211Y-51650476D01*
X68714631Y-51820745D01*
X68714630Y-51820750D01*
X68694435Y-51999996D01*
X66977037Y-51999996D01*
X66956841Y-51820750D01*
X66956840Y-51820745D01*
X66926995Y-51735452D01*
X66897261Y-51650478D01*
X66877748Y-51619424D01*
X66816215Y-51521494D01*
X66801288Y-51497738D01*
X66673734Y-51370184D01*
X66640851Y-51349522D01*
X66520995Y-51274211D01*
X66350726Y-51214631D01*
X66350721Y-51214630D01*
X66171476Y-51194435D01*
X66171468Y-51194435D01*
X65992222Y-51214630D01*
X65992217Y-51214631D01*
X65821948Y-51274211D01*
X65669209Y-51370184D01*
X65541656Y-51497737D01*
X65445683Y-51650476D01*
X65386103Y-51820745D01*
X65386102Y-51820750D01*
X65365907Y-51999996D01*
X42500500Y-51999996D01*
X42500500Y-50499996D01*
X63194435Y-50499996D01*
X63194435Y-50500003D01*
X63214630Y-50679249D01*
X63214631Y-50679254D01*
X63274211Y-50849523D01*
X63290682Y-50875736D01*
X63370184Y-51002262D01*
X63497738Y-51129816D01*
X63576410Y-51179249D01*
X63649634Y-51225259D01*
X63650478Y-51225789D01*
X63788860Y-51274211D01*
X63820745Y-51285368D01*
X63820750Y-51285369D01*
X63999996Y-51305565D01*
X64000000Y-51305565D01*
X64000004Y-51305565D01*
X64179249Y-51285369D01*
X64179252Y-51285368D01*
X64179255Y-51285368D01*
X64349522Y-51225789D01*
X64502262Y-51129816D01*
X64629816Y-51002262D01*
X64725789Y-50849522D01*
X64785368Y-50679255D01*
X64785369Y-50679249D01*
X64805565Y-50500003D01*
X64805565Y-50499996D01*
X64785369Y-50320750D01*
X64785368Y-50320745D01*
X64763717Y-50258870D01*
X64725789Y-50150478D01*
X64725455Y-50149947D01*
X64629815Y-49997737D01*
X64502262Y-49870184D01*
X64349523Y-49774211D01*
X64179254Y-49714631D01*
X64179249Y-49714630D01*
X64000004Y-49694435D01*
X63999996Y-49694435D01*
X63820750Y-49714630D01*
X63820745Y-49714631D01*
X63650476Y-49774211D01*
X63497737Y-49870184D01*
X63370184Y-49997737D01*
X63274211Y-50150476D01*
X63214631Y-50320745D01*
X63214630Y-50320750D01*
X63194435Y-50499996D01*
X42500500Y-50499996D01*
X42500500Y-47999996D01*
X47694435Y-47999996D01*
X47694435Y-48000003D01*
X47714630Y-48179249D01*
X47714631Y-48179254D01*
X47774211Y-48349523D01*
X47857357Y-48481848D01*
X47870184Y-48502262D01*
X47997738Y-48629816D01*
X48150478Y-48725789D01*
X48285334Y-48772977D01*
X48320745Y-48785368D01*
X48320750Y-48785369D01*
X48499996Y-48805565D01*
X48500000Y-48805565D01*
X48500004Y-48805565D01*
X48679249Y-48785369D01*
X48679252Y-48785368D01*
X48679255Y-48785368D01*
X48849522Y-48725789D01*
X49002262Y-48629816D01*
X49129816Y-48502262D01*
X49194074Y-48399996D01*
X63194435Y-48399996D01*
X63194435Y-48400003D01*
X63214630Y-48579249D01*
X63214631Y-48579254D01*
X63274211Y-48749523D01*
X63309425Y-48805565D01*
X63370184Y-48902262D01*
X63497738Y-49029816D01*
X63584436Y-49084292D01*
X63641853Y-49120370D01*
X63650478Y-49125789D01*
X63820065Y-49185130D01*
X63820745Y-49185368D01*
X63820750Y-49185369D01*
X63999996Y-49205565D01*
X64000000Y-49205565D01*
X64000004Y-49205565D01*
X64179249Y-49185369D01*
X64179252Y-49185368D01*
X64179255Y-49185368D01*
X64349522Y-49125789D01*
X64502262Y-49029816D01*
X64629816Y-48902262D01*
X64725789Y-48749522D01*
X64760614Y-48649995D01*
X64801336Y-48593220D01*
X64836700Y-48573908D01*
X64974219Y-48525789D01*
X65126959Y-48429816D01*
X65254513Y-48302262D01*
X65286033Y-48252096D01*
X65338366Y-48205807D01*
X65404907Y-48194850D01*
X65489596Y-48204392D01*
X65499999Y-48205565D01*
X65500000Y-48205565D01*
X65500004Y-48205565D01*
X65679249Y-48185369D01*
X65679252Y-48185368D01*
X65679255Y-48185368D01*
X65849522Y-48125789D01*
X66002262Y-48029816D01*
X66129816Y-47902262D01*
X66184244Y-47815640D01*
X68581748Y-47815640D01*
X68581748Y-47815647D01*
X68601943Y-47994893D01*
X68601944Y-47994898D01*
X68661524Y-48165167D01*
X68742287Y-48293699D01*
X68757497Y-48317906D01*
X68885051Y-48445460D01*
X68930854Y-48474240D01*
X69012893Y-48525789D01*
X69037791Y-48541433D01*
X69158229Y-48583576D01*
X69208058Y-48601012D01*
X69208063Y-48601013D01*
X69387309Y-48621209D01*
X69387313Y-48621209D01*
X69387317Y-48621209D01*
X69566559Y-48601013D01*
X69566558Y-48601013D01*
X69566568Y-48601012D01*
X69596947Y-48590381D01*
X69666720Y-48586819D01*
X69703871Y-48602429D01*
X69818107Y-48674209D01*
X69825860Y-48679080D01*
X69996127Y-48738659D01*
X69996132Y-48738660D01*
X70175378Y-48758856D01*
X70175382Y-48758856D01*
X70175386Y-48758856D01*
X70354631Y-48738660D01*
X70354634Y-48738659D01*
X70354637Y-48738659D01*
X70524904Y-48679080D01*
X70677644Y-48583107D01*
X70805198Y-48455553D01*
X70864640Y-48360951D01*
X70916969Y-48314664D01*
X70983515Y-48303707D01*
X71000000Y-48305565D01*
X71120351Y-48292004D01*
X71179249Y-48285369D01*
X71179252Y-48285368D01*
X71179255Y-48285368D01*
X71349522Y-48225789D01*
X71502262Y-48129816D01*
X71629816Y-48002262D01*
X71725789Y-47849522D01*
X71785368Y-47679255D01*
X71785369Y-47679249D01*
X71805565Y-47500003D01*
X71805565Y-47499996D01*
X71785369Y-47320750D01*
X71785368Y-47320745D01*
X71780056Y-47305565D01*
X71745474Y-47206734D01*
X75745750Y-47206734D01*
X75745750Y-47206741D01*
X75765945Y-47385987D01*
X75765946Y-47385992D01*
X75825526Y-47556261D01*
X75921499Y-47709000D01*
X75981353Y-47768854D01*
X76014838Y-47830177D01*
X76009854Y-47899869D01*
X75998667Y-47922505D01*
X75959097Y-47985482D01*
X75899521Y-48155739D01*
X75899518Y-48155752D01*
X75879323Y-48334998D01*
X75879323Y-48335005D01*
X75899518Y-48514251D01*
X75899519Y-48514256D01*
X75959099Y-48684525D01*
X76022464Y-48785369D01*
X76055072Y-48837264D01*
X76182626Y-48964818D01*
X76208865Y-48981305D01*
X76318949Y-49050476D01*
X76335366Y-49060791D01*
X76501386Y-49118884D01*
X76505633Y-49120370D01*
X76505638Y-49120371D01*
X76684884Y-49140567D01*
X76684888Y-49140567D01*
X76684892Y-49140567D01*
X76864137Y-49120371D01*
X76864140Y-49120370D01*
X76864143Y-49120370D01*
X77034410Y-49060791D01*
X77187150Y-48964818D01*
X77314704Y-48837264D01*
X77410677Y-48684524D01*
X77470256Y-48514257D01*
X77470257Y-48514251D01*
X77490453Y-48335005D01*
X77490453Y-48334998D01*
X77470257Y-48155752D01*
X77470256Y-48155747D01*
X77443250Y-48078569D01*
X77410677Y-47985480D01*
X77314704Y-47832740D01*
X77254848Y-47772884D01*
X77221363Y-47711561D01*
X77223673Y-47679261D01*
X77873700Y-47679261D01*
X77873700Y-47679268D01*
X77893895Y-47858514D01*
X77893896Y-47858519D01*
X77953476Y-48028788D01*
X78013228Y-48123882D01*
X78049449Y-48181527D01*
X78177003Y-48309081D01*
X78241366Y-48349523D01*
X78321699Y-48400000D01*
X78329743Y-48405054D01*
X78400506Y-48429815D01*
X78500010Y-48464633D01*
X78500015Y-48464634D01*
X78585271Y-48474240D01*
X78649685Y-48501306D01*
X78689240Y-48558901D01*
X78694608Y-48583576D01*
X78714630Y-48761280D01*
X78714631Y-48761284D01*
X78774211Y-48931553D01*
X78835954Y-49029815D01*
X78870184Y-49084292D01*
X78997738Y-49211846D01*
X79150478Y-49307819D01*
X79192054Y-49322367D01*
X79320745Y-49367398D01*
X79320750Y-49367399D01*
X79499996Y-49387595D01*
X79500000Y-49387595D01*
X79500004Y-49387595D01*
X79679249Y-49367399D01*
X79679252Y-49367398D01*
X79679255Y-49367398D01*
X79849522Y-49307819D01*
X80002262Y-49211846D01*
X80002274Y-49211833D01*
X80002639Y-49211544D01*
X80002933Y-49211423D01*
X80008158Y-49208141D01*
X80008732Y-49209055D01*
X80067323Y-49185130D01*
X80136020Y-49197879D01*
X80186918Y-49245745D01*
X80203858Y-49313530D01*
X80203181Y-49322367D01*
X80194435Y-49399995D01*
X80194435Y-49400003D01*
X80214630Y-49579249D01*
X80214631Y-49579254D01*
X80274211Y-49749523D01*
X80317195Y-49817931D01*
X80370184Y-49902262D01*
X80497738Y-50029816D01*
X80561963Y-50070171D01*
X80629005Y-50112297D01*
X80650478Y-50125789D01*
X80721098Y-50150500D01*
X80820745Y-50185368D01*
X80820750Y-50185369D01*
X80999996Y-50205565D01*
X81000000Y-50205565D01*
X81000004Y-50205565D01*
X81179249Y-50185369D01*
X81179252Y-50185368D01*
X81179255Y-50185368D01*
X81349522Y-50125789D01*
X81370995Y-50112297D01*
X81434027Y-50072691D01*
X81501264Y-50053690D01*
X81565973Y-50072691D01*
X81650475Y-50125788D01*
X81820745Y-50185368D01*
X81820750Y-50185369D01*
X81999996Y-50205565D01*
X82000000Y-50205565D01*
X82000004Y-50205565D01*
X82179249Y-50185369D01*
X82179252Y-50185368D01*
X82179255Y-50185368D01*
X82349522Y-50125789D01*
X82502262Y-50029816D01*
X82629816Y-49902262D01*
X82725789Y-49749522D01*
X82785368Y-49579255D01*
X82797857Y-49468411D01*
X82805565Y-49400003D01*
X82805565Y-49399996D01*
X82785369Y-49220750D01*
X82785368Y-49220745D01*
X82772906Y-49185130D01*
X82725789Y-49050478D01*
X82629816Y-48897738D01*
X82502262Y-48770184D01*
X82470149Y-48750006D01*
X82349523Y-48674211D01*
X82179254Y-48614631D01*
X82179249Y-48614630D01*
X82000004Y-48594435D01*
X81999996Y-48594435D01*
X81820750Y-48614630D01*
X81820737Y-48614633D01*
X81650479Y-48674209D01*
X81565971Y-48727309D01*
X81498734Y-48746309D01*
X81434029Y-48727309D01*
X81349520Y-48674209D01*
X81179262Y-48614633D01*
X81179249Y-48614630D01*
X81000004Y-48594435D01*
X80999996Y-48594435D01*
X80820750Y-48614630D01*
X80820745Y-48614631D01*
X80650476Y-48674211D01*
X80497732Y-48770188D01*
X80497342Y-48770499D01*
X80497042Y-48770621D01*
X80491842Y-48773889D01*
X80491269Y-48772977D01*
X80432653Y-48796902D01*
X80363959Y-48784139D01*
X80313069Y-48736264D01*
X80296142Y-48668476D01*
X80296818Y-48659661D01*
X80305565Y-48582032D01*
X80305565Y-48582026D01*
X80285369Y-48402780D01*
X80285366Y-48402767D01*
X80225790Y-48232511D01*
X80225785Y-48232500D01*
X80211971Y-48210515D01*
X80192970Y-48143279D01*
X80211972Y-48078569D01*
X80225787Y-48056582D01*
X80225786Y-48056582D01*
X80225789Y-48056579D01*
X80285368Y-47886312D01*
X80285369Y-47886306D01*
X80305565Y-47707060D01*
X80305565Y-47707053D01*
X80285369Y-47527807D01*
X80285368Y-47527802D01*
X80279435Y-47510847D01*
X80225789Y-47357535D01*
X80206802Y-47327318D01*
X80171786Y-47271590D01*
X80129816Y-47204795D01*
X80002262Y-47077241D01*
X79920375Y-47025788D01*
X79849519Y-46981266D01*
X79824165Y-46972394D01*
X79767389Y-46931672D01*
X79741642Y-46866719D01*
X79748078Y-46814400D01*
X79787938Y-46700490D01*
X79795367Y-46679259D01*
X79795369Y-46679249D01*
X79815565Y-46500003D01*
X79815565Y-46499996D01*
X79795369Y-46320750D01*
X79795368Y-46320745D01*
X79749727Y-46190310D01*
X79735789Y-46150478D01*
X79717106Y-46120745D01*
X79691033Y-46079249D01*
X79641235Y-45999996D01*
X84694435Y-45999996D01*
X84694435Y-46000003D01*
X84714630Y-46179249D01*
X84714631Y-46179254D01*
X84774211Y-46349523D01*
X84819356Y-46421370D01*
X84870184Y-46502262D01*
X84997738Y-46629816D01*
X85068392Y-46674211D01*
X85142450Y-46720745D01*
X85150478Y-46725789D01*
X85276100Y-46769746D01*
X85320745Y-46785368D01*
X85320750Y-46785369D01*
X85499996Y-46805565D01*
X85500000Y-46805565D01*
X85500004Y-46805565D01*
X85679249Y-46785369D01*
X85679252Y-46785368D01*
X85679255Y-46785368D01*
X85849522Y-46725789D01*
X85857550Y-46720745D01*
X85931608Y-46674211D01*
X85976734Y-46645855D01*
X86043971Y-46626855D01*
X86110806Y-46647222D01*
X86156021Y-46700490D01*
X86165259Y-46769746D01*
X86159749Y-46791803D01*
X86114632Y-46920740D01*
X86114630Y-46920748D01*
X86094435Y-47099994D01*
X86094435Y-47100001D01*
X86114630Y-47279247D01*
X86114631Y-47279252D01*
X86174211Y-47449521D01*
X86241279Y-47556258D01*
X86270184Y-47602260D01*
X86397738Y-47729814D01*
X86488080Y-47786580D01*
X86542461Y-47820750D01*
X86550478Y-47825787D01*
X86644021Y-47858519D01*
X86720745Y-47885366D01*
X86720750Y-47885367D01*
X86899996Y-47905563D01*
X86900000Y-47905563D01*
X86900004Y-47905563D01*
X87079249Y-47885367D01*
X87079252Y-47885366D01*
X87079255Y-47885366D01*
X87249522Y-47825787D01*
X87402262Y-47729814D01*
X87529816Y-47602260D01*
X87625789Y-47449520D01*
X87668183Y-47328364D01*
X87708903Y-47271590D01*
X87773856Y-47245842D01*
X87826179Y-47252278D01*
X87920745Y-47285368D01*
X87920750Y-47285369D01*
X87988557Y-47293008D01*
X88019041Y-47296443D01*
X88083456Y-47323509D01*
X88123011Y-47381103D01*
X88125150Y-47450940D01*
X88089192Y-47510847D01*
X88064178Y-47528717D01*
X87981376Y-47573528D01*
X87981365Y-47573535D01*
X87798222Y-47716081D01*
X87798219Y-47716084D01*
X87798216Y-47716086D01*
X87798216Y-47716087D01*
X87767437Y-47749522D01*
X87641016Y-47886852D01*
X87514075Y-48081151D01*
X87420842Y-48293699D01*
X87363866Y-48518691D01*
X87363864Y-48518702D01*
X87344700Y-48749993D01*
X87344700Y-48750006D01*
X87363864Y-48981297D01*
X87363866Y-48981308D01*
X87420842Y-49206300D01*
X87514075Y-49418848D01*
X87641016Y-49613147D01*
X87641019Y-49613151D01*
X87641021Y-49613153D01*
X87798216Y-49783913D01*
X87798219Y-49783915D01*
X87798222Y-49783918D01*
X87981365Y-49926464D01*
X87981371Y-49926468D01*
X87981374Y-49926470D01*
X88113064Y-49997737D01*
X88172338Y-50029815D01*
X88185497Y-50036936D01*
X88234300Y-50053690D01*
X88405015Y-50112297D01*
X88405017Y-50112297D01*
X88405019Y-50112298D01*
X88633951Y-50150500D01*
X88633952Y-50150500D01*
X88866048Y-50150500D01*
X88866049Y-50150500D01*
X89094981Y-50112298D01*
X89314503Y-50036936D01*
X89518626Y-49926470D01*
X89701784Y-49783913D01*
X89858979Y-49613153D01*
X89985924Y-49418849D01*
X90079157Y-49206300D01*
X90136134Y-48981305D01*
X90137390Y-48966146D01*
X90155300Y-48750006D01*
X90155300Y-48749993D01*
X90136135Y-48518702D01*
X90136133Y-48518691D01*
X90079157Y-48293699D01*
X89985924Y-48081151D01*
X89858983Y-47886852D01*
X89858980Y-47886849D01*
X89858979Y-47886847D01*
X89701784Y-47716087D01*
X89701779Y-47716083D01*
X89701777Y-47716081D01*
X89518634Y-47573535D01*
X89518628Y-47573531D01*
X89314504Y-47463064D01*
X89314495Y-47463061D01*
X89094984Y-47387702D01*
X88914188Y-47357533D01*
X88866049Y-47349500D01*
X88681158Y-47349500D01*
X88614119Y-47329815D01*
X88568364Y-47277011D01*
X88558420Y-47207853D01*
X88587445Y-47144297D01*
X88597368Y-47134770D01*
X88597338Y-47134740D01*
X88657867Y-47074211D01*
X88729816Y-47002262D01*
X88825789Y-46849522D01*
X88848198Y-46785478D01*
X88888919Y-46728703D01*
X88953872Y-46702955D01*
X88979124Y-46703213D01*
X88999998Y-46705565D01*
X89000000Y-46705565D01*
X89000004Y-46705565D01*
X89179249Y-46685369D01*
X89179252Y-46685368D01*
X89179255Y-46685368D01*
X89349522Y-46625789D01*
X89502262Y-46529816D01*
X89629816Y-46402262D01*
X89725789Y-46249522D01*
X89785368Y-46079255D01*
X89794043Y-46002262D01*
X89805565Y-45900003D01*
X89805565Y-45899996D01*
X89785369Y-45720750D01*
X89785368Y-45720745D01*
X89776162Y-45694435D01*
X89725789Y-45550478D01*
X89725786Y-45550474D01*
X89639844Y-45413698D01*
X89629816Y-45397738D01*
X89502262Y-45270184D01*
X89431608Y-45225789D01*
X89349523Y-45174211D01*
X89179254Y-45114631D01*
X89179249Y-45114630D01*
X89000004Y-45094435D01*
X88999996Y-45094435D01*
X88820750Y-45114630D01*
X88820745Y-45114631D01*
X88650476Y-45174211D01*
X88497737Y-45270184D01*
X88370184Y-45397737D01*
X88274212Y-45550474D01*
X88251800Y-45614523D01*
X88211077Y-45671298D01*
X88146124Y-45697044D01*
X88120879Y-45696787D01*
X88105326Y-45695035D01*
X88100000Y-45694435D01*
X88099999Y-45694435D01*
X88099996Y-45694435D01*
X87920750Y-45714630D01*
X87920742Y-45714632D01*
X87826179Y-45747721D01*
X87756400Y-45751282D01*
X87695773Y-45716553D01*
X87668183Y-45671633D01*
X87625789Y-45550478D01*
X87594073Y-45500003D01*
X87529816Y-45397738D01*
X87402262Y-45270184D01*
X87331608Y-45225789D01*
X87249523Y-45174211D01*
X87079254Y-45114631D01*
X87079249Y-45114630D01*
X86900004Y-45094435D01*
X86899996Y-45094435D01*
X86720750Y-45114630D01*
X86720745Y-45114631D01*
X86550476Y-45174211D01*
X86397737Y-45270184D01*
X86270184Y-45397737D01*
X86270183Y-45397739D01*
X86260155Y-45413698D01*
X86207819Y-45459988D01*
X86138765Y-45470634D01*
X86074918Y-45442257D01*
X86067482Y-45435404D01*
X86002262Y-45370184D01*
X85849523Y-45274211D01*
X85679254Y-45214631D01*
X85679249Y-45214630D01*
X85500004Y-45194435D01*
X85499996Y-45194435D01*
X85320750Y-45214630D01*
X85320745Y-45214631D01*
X85150476Y-45274211D01*
X84997737Y-45370184D01*
X84870184Y-45497737D01*
X84774211Y-45650476D01*
X84714631Y-45820745D01*
X84714630Y-45820750D01*
X84694435Y-45999996D01*
X79641235Y-45999996D01*
X79639816Y-45997738D01*
X79512262Y-45870184D01*
X79479379Y-45849522D01*
X79359523Y-45774211D01*
X79189254Y-45714631D01*
X79189249Y-45714630D01*
X79010004Y-45694435D01*
X79009996Y-45694435D01*
X78830750Y-45714630D01*
X78830745Y-45714631D01*
X78660476Y-45774211D01*
X78507737Y-45870184D01*
X78380184Y-45997737D01*
X78284211Y-46150476D01*
X78224631Y-46320745D01*
X78224630Y-46320750D01*
X78204435Y-46499996D01*
X78204435Y-46500003D01*
X78224630Y-46679249D01*
X78224633Y-46679262D01*
X78284209Y-46849520D01*
X78285139Y-46851450D01*
X78285364Y-46852821D01*
X78286510Y-46856094D01*
X78285936Y-46856294D01*
X78296493Y-46920391D01*
X78268771Y-46984526D01*
X78239393Y-47010246D01*
X78177004Y-47049447D01*
X78049449Y-47177002D01*
X77953476Y-47329741D01*
X77893896Y-47500010D01*
X77893895Y-47500015D01*
X77873700Y-47679261D01*
X77223673Y-47679261D01*
X77226347Y-47641869D01*
X77237532Y-47619236D01*
X77277104Y-47556260D01*
X77336683Y-47385993D01*
X77337234Y-47381103D01*
X77356880Y-47206741D01*
X77356880Y-47206734D01*
X77336684Y-47027488D01*
X77336683Y-47027483D01*
X77331920Y-47013872D01*
X77277104Y-46857216D01*
X77274342Y-46852821D01*
X77191356Y-46720749D01*
X77181131Y-46704476D01*
X77053577Y-46576922D01*
X77011492Y-46550478D01*
X76900838Y-46480949D01*
X76730569Y-46421369D01*
X76730564Y-46421368D01*
X76551319Y-46401173D01*
X76551311Y-46401173D01*
X76372065Y-46421368D01*
X76372060Y-46421369D01*
X76201791Y-46480949D01*
X76049052Y-46576922D01*
X75921499Y-46704475D01*
X75825526Y-46857214D01*
X75765946Y-47027483D01*
X75765945Y-47027488D01*
X75745750Y-47206734D01*
X71745474Y-47206734D01*
X71725789Y-47150478D01*
X71629816Y-46997738D01*
X71502262Y-46870184D01*
X71502257Y-46870181D01*
X71349523Y-46774211D01*
X71179254Y-46714631D01*
X71179249Y-46714630D01*
X71000004Y-46694435D01*
X70999996Y-46694435D01*
X70820750Y-46714630D01*
X70820745Y-46714631D01*
X70650476Y-46774211D01*
X70497737Y-46870184D01*
X70370182Y-46997739D01*
X70310743Y-47092336D01*
X70258408Y-47138626D01*
X70191867Y-47149583D01*
X70175385Y-47147726D01*
X70175378Y-47147726D01*
X69996130Y-47167921D01*
X69965746Y-47178553D01*
X69895967Y-47182113D01*
X69858822Y-47166504D01*
X69736836Y-47089855D01*
X69566567Y-47030275D01*
X69566562Y-47030274D01*
X69387317Y-47010079D01*
X69387309Y-47010079D01*
X69208063Y-47030274D01*
X69208058Y-47030275D01*
X69037789Y-47089855D01*
X68885050Y-47185828D01*
X68757497Y-47313381D01*
X68661524Y-47466120D01*
X68601944Y-47636389D01*
X68601943Y-47636394D01*
X68581748Y-47815640D01*
X66184244Y-47815640D01*
X66225789Y-47749522D01*
X66285368Y-47579255D01*
X66285369Y-47579249D01*
X66305565Y-47400003D01*
X66305565Y-47399996D01*
X66285369Y-47220750D01*
X66285368Y-47220745D01*
X66279787Y-47204795D01*
X66225789Y-47050478D01*
X66225142Y-47049449D01*
X66182300Y-46981266D01*
X66129816Y-46897738D01*
X66002262Y-46770184D01*
X65970897Y-46750476D01*
X65849523Y-46674211D01*
X65679254Y-46614631D01*
X65679249Y-46614630D01*
X65500004Y-46594435D01*
X65499996Y-46594435D01*
X65320750Y-46614630D01*
X65320745Y-46614631D01*
X65150476Y-46674211D01*
X64997737Y-46770184D01*
X64870186Y-46897735D01*
X64870180Y-46897742D01*
X64838662Y-46947902D01*
X64786327Y-46994192D01*
X64719787Y-47005148D01*
X64624700Y-46994435D01*
X64624693Y-46994435D01*
X64445447Y-47014630D01*
X64445442Y-47014631D01*
X64275173Y-47074211D01*
X64122434Y-47170184D01*
X63994881Y-47297737D01*
X63898909Y-47450475D01*
X63898908Y-47450476D01*
X63864081Y-47550006D01*
X63823359Y-47606781D01*
X63787994Y-47626092D01*
X63650478Y-47674210D01*
X63497737Y-47770184D01*
X63370184Y-47897737D01*
X63274211Y-48050476D01*
X63214631Y-48220745D01*
X63214630Y-48220750D01*
X63194435Y-48399996D01*
X49194074Y-48399996D01*
X49225789Y-48349522D01*
X49285368Y-48179255D01*
X49285368Y-48179254D01*
X49287668Y-48172682D01*
X49290370Y-48173627D01*
X49318176Y-48123882D01*
X49379827Y-48091005D01*
X49449466Y-48096678D01*
X49492667Y-48124745D01*
X49497738Y-48129816D01*
X49521176Y-48144543D01*
X49642450Y-48220745D01*
X49650478Y-48225789D01*
X49725668Y-48252099D01*
X49820745Y-48285368D01*
X49820750Y-48285369D01*
X49999996Y-48305565D01*
X50000000Y-48305565D01*
X50000004Y-48305565D01*
X50179249Y-48285369D01*
X50179252Y-48285368D01*
X50179255Y-48285368D01*
X50349522Y-48225789D01*
X50502262Y-48129816D01*
X50629816Y-48002262D01*
X50725789Y-47849522D01*
X50785368Y-47679255D01*
X50785937Y-47674211D01*
X50793206Y-47609691D01*
X50820272Y-47545276D01*
X50877866Y-47505721D01*
X50947703Y-47503582D01*
X50993743Y-47526629D01*
X50997731Y-47529809D01*
X50997738Y-47529816D01*
X51076420Y-47579255D01*
X51145329Y-47622554D01*
X51150478Y-47625789D01*
X51288857Y-47674210D01*
X51320745Y-47685368D01*
X51320750Y-47685369D01*
X51499996Y-47705565D01*
X51500000Y-47705565D01*
X51500004Y-47705565D01*
X51679249Y-47685369D01*
X51679252Y-47685368D01*
X51679255Y-47685368D01*
X51849522Y-47625789D01*
X52002262Y-47529816D01*
X52129816Y-47402262D01*
X52225789Y-47249522D01*
X52285368Y-47079255D01*
X52285937Y-47074211D01*
X52293206Y-47009691D01*
X52320272Y-46945276D01*
X52377866Y-46905721D01*
X52447703Y-46903582D01*
X52493743Y-46926629D01*
X52497731Y-46929809D01*
X52497738Y-46929816D01*
X52605834Y-46997737D01*
X52632718Y-47014630D01*
X52650478Y-47025789D01*
X52788860Y-47074211D01*
X52820745Y-47085368D01*
X52820750Y-47085369D01*
X52999996Y-47105565D01*
X53000000Y-47105565D01*
X53000004Y-47105565D01*
X53179249Y-47085369D01*
X53179252Y-47085368D01*
X53179255Y-47085368D01*
X53349522Y-47025789D01*
X53502262Y-46929816D01*
X53629816Y-46802262D01*
X53725789Y-46649522D01*
X53785368Y-46479255D01*
X53791890Y-46421369D01*
X53805565Y-46300003D01*
X53805565Y-46299996D01*
X53785369Y-46120750D01*
X53785368Y-46120745D01*
X53743909Y-46002262D01*
X53725789Y-45950478D01*
X53629816Y-45797738D01*
X53502262Y-45670184D01*
X53470897Y-45650476D01*
X53349523Y-45574211D01*
X53179254Y-45514631D01*
X53179249Y-45514630D01*
X53049362Y-45499996D01*
X55694435Y-45499996D01*
X55694435Y-45500003D01*
X55714630Y-45679249D01*
X55714631Y-45679254D01*
X55774211Y-45849523D01*
X55837646Y-45950478D01*
X55870184Y-46002262D01*
X55997738Y-46129816D01*
X56150478Y-46225789D01*
X56277343Y-46270181D01*
X56320745Y-46285368D01*
X56320750Y-46285369D01*
X56499996Y-46305565D01*
X56500000Y-46305565D01*
X56500004Y-46305565D01*
X56679249Y-46285369D01*
X56679252Y-46285368D01*
X56679255Y-46285368D01*
X56849522Y-46225789D01*
X57002262Y-46129816D01*
X57129816Y-46002262D01*
X57225789Y-45849522D01*
X57285368Y-45679255D01*
X57286390Y-45670184D01*
X57305565Y-45500003D01*
X57305565Y-45499996D01*
X61694435Y-45499996D01*
X61694435Y-45500003D01*
X61714630Y-45679249D01*
X61714631Y-45679254D01*
X61774211Y-45849523D01*
X61837646Y-45950478D01*
X61870184Y-46002262D01*
X61997738Y-46129816D01*
X62150478Y-46225789D01*
X62277343Y-46270181D01*
X62320745Y-46285368D01*
X62320750Y-46285369D01*
X62499996Y-46305565D01*
X62500000Y-46305565D01*
X62500004Y-46305565D01*
X62679249Y-46285369D01*
X62679252Y-46285368D01*
X62679255Y-46285368D01*
X62849522Y-46225789D01*
X63002262Y-46129816D01*
X63129816Y-46002262D01*
X63225789Y-45849522D01*
X63285368Y-45679255D01*
X63286390Y-45670184D01*
X63305565Y-45500003D01*
X63305565Y-45499996D01*
X63285369Y-45320750D01*
X63285368Y-45320745D01*
X63241170Y-45194435D01*
X63225789Y-45150478D01*
X63203265Y-45114632D01*
X63186582Y-45088080D01*
X63129816Y-44997738D01*
X63086836Y-44954758D01*
X77149197Y-44954758D01*
X77149197Y-44954765D01*
X77169392Y-45134011D01*
X77169393Y-45134016D01*
X77228973Y-45304285D01*
X77297722Y-45413698D01*
X77324946Y-45457024D01*
X77452500Y-45584578D01*
X77500157Y-45614523D01*
X77603175Y-45679254D01*
X77605240Y-45680551D01*
X77702635Y-45714631D01*
X77775507Y-45740130D01*
X77775512Y-45740131D01*
X77954758Y-45760327D01*
X77954762Y-45760327D01*
X77954766Y-45760327D01*
X78134011Y-45740131D01*
X78134014Y-45740130D01*
X78134017Y-45740130D01*
X78304284Y-45680551D01*
X78457024Y-45584578D01*
X78584578Y-45457024D01*
X78680551Y-45304284D01*
X78740130Y-45134017D01*
X78740131Y-45134011D01*
X78760327Y-44954765D01*
X78760327Y-44954758D01*
X78740131Y-44775512D01*
X78740130Y-44775507D01*
X78722733Y-44725789D01*
X78680551Y-44605240D01*
X78584578Y-44452500D01*
X78457024Y-44324946D01*
X78450338Y-44320745D01*
X78304285Y-44228973D01*
X78134016Y-44169393D01*
X78134011Y-44169392D01*
X77954766Y-44149197D01*
X77954758Y-44149197D01*
X77775512Y-44169392D01*
X77775507Y-44169393D01*
X77605238Y-44228973D01*
X77452499Y-44324946D01*
X77324946Y-44452499D01*
X77228973Y-44605238D01*
X77169393Y-44775507D01*
X77169392Y-44775512D01*
X77149197Y-44954758D01*
X63086836Y-44954758D01*
X63002262Y-44870184D01*
X62899422Y-44805565D01*
X62849523Y-44774211D01*
X62679254Y-44714631D01*
X62679249Y-44714630D01*
X62500004Y-44694435D01*
X62499996Y-44694435D01*
X62320750Y-44714630D01*
X62320745Y-44714631D01*
X62150476Y-44774211D01*
X61997737Y-44870184D01*
X61870184Y-44997737D01*
X61774211Y-45150476D01*
X61714631Y-45320745D01*
X61714630Y-45320750D01*
X61694435Y-45499996D01*
X57305565Y-45499996D01*
X57285369Y-45320750D01*
X57285368Y-45320745D01*
X57241170Y-45194435D01*
X57225789Y-45150478D01*
X57203265Y-45114632D01*
X57186582Y-45088080D01*
X57129816Y-44997738D01*
X57002262Y-44870184D01*
X56899422Y-44805565D01*
X56849523Y-44774211D01*
X56679254Y-44714631D01*
X56679249Y-44714630D01*
X56500004Y-44694435D01*
X56499996Y-44694435D01*
X56320750Y-44714630D01*
X56320745Y-44714631D01*
X56150476Y-44774211D01*
X55997737Y-44870184D01*
X55870184Y-44997737D01*
X55774211Y-45150476D01*
X55714631Y-45320745D01*
X55714630Y-45320750D01*
X55694435Y-45499996D01*
X53049362Y-45499996D01*
X53000004Y-45494435D01*
X52999996Y-45494435D01*
X52820750Y-45514630D01*
X52820745Y-45514631D01*
X52650476Y-45574211D01*
X52497737Y-45670184D01*
X52370184Y-45797737D01*
X52274211Y-45950476D01*
X52214631Y-46120745D01*
X52214630Y-46120749D01*
X52206793Y-46190310D01*
X52179726Y-46254724D01*
X52122131Y-46294279D01*
X52052294Y-46296416D01*
X52006257Y-46273371D01*
X52002258Y-46270181D01*
X51849523Y-46174211D01*
X51679254Y-46114631D01*
X51679249Y-46114630D01*
X51500004Y-46094435D01*
X51499996Y-46094435D01*
X51320750Y-46114630D01*
X51320745Y-46114631D01*
X51150476Y-46174211D01*
X50997737Y-46270184D01*
X50870184Y-46397737D01*
X50774211Y-46550476D01*
X50714631Y-46720745D01*
X50714630Y-46720749D01*
X50706793Y-46790310D01*
X50679726Y-46854724D01*
X50622131Y-46894279D01*
X50552294Y-46896416D01*
X50506257Y-46873371D01*
X50502258Y-46870181D01*
X50349523Y-46774211D01*
X50179254Y-46714631D01*
X50179249Y-46714630D01*
X50000004Y-46694435D01*
X49999996Y-46694435D01*
X49820750Y-46714630D01*
X49820745Y-46714631D01*
X49650476Y-46774211D01*
X49497737Y-46870184D01*
X49370184Y-46997737D01*
X49274211Y-47150476D01*
X49212332Y-47327318D01*
X49209648Y-47326378D01*
X49181738Y-47376200D01*
X49120055Y-47409018D01*
X49050422Y-47403278D01*
X49007332Y-47375254D01*
X49002262Y-47370184D01*
X48849523Y-47274211D01*
X48679254Y-47214631D01*
X48679249Y-47214630D01*
X48500004Y-47194435D01*
X48499996Y-47194435D01*
X48320750Y-47214630D01*
X48320745Y-47214631D01*
X48150476Y-47274211D01*
X47997737Y-47370184D01*
X47870184Y-47497737D01*
X47774211Y-47650476D01*
X47714631Y-47820745D01*
X47714630Y-47820750D01*
X47694435Y-47999996D01*
X42500500Y-47999996D01*
X42500500Y-44499996D01*
X46694435Y-44499996D01*
X46694435Y-44500003D01*
X46714630Y-44679249D01*
X46714631Y-44679254D01*
X46774211Y-44849523D01*
X46867341Y-44997737D01*
X46870184Y-45002262D01*
X46997738Y-45129816D01*
X47068392Y-45174211D01*
X47132721Y-45214632D01*
X47150478Y-45225789D01*
X47277352Y-45270184D01*
X47320745Y-45285368D01*
X47320750Y-45285369D01*
X47499996Y-45305565D01*
X47500000Y-45305565D01*
X47500004Y-45305565D01*
X47679249Y-45285369D01*
X47679252Y-45285368D01*
X47679255Y-45285368D01*
X47849522Y-45225789D01*
X48002262Y-45129816D01*
X48129816Y-45002262D01*
X48225789Y-44849522D01*
X48285368Y-44679255D01*
X48285369Y-44679249D01*
X48305565Y-44500003D01*
X48305565Y-44499996D01*
X48285369Y-44320750D01*
X48285368Y-44320745D01*
X48225789Y-44150478D01*
X48131235Y-43999996D01*
X65694435Y-43999996D01*
X65694435Y-44000003D01*
X65714630Y-44179249D01*
X65714631Y-44179254D01*
X65774211Y-44349523D01*
X65838916Y-44452499D01*
X65870184Y-44502262D01*
X65997738Y-44629816D01*
X66076410Y-44679249D01*
X66132721Y-44714632D01*
X66150478Y-44725789D01*
X66288860Y-44774211D01*
X66320745Y-44785368D01*
X66320750Y-44785369D01*
X66499996Y-44805565D01*
X66500000Y-44805565D01*
X66500004Y-44805565D01*
X66679249Y-44785369D01*
X66679252Y-44785368D01*
X66679255Y-44785368D01*
X66849522Y-44725789D01*
X67002262Y-44629816D01*
X67129816Y-44502262D01*
X67225789Y-44349522D01*
X67285368Y-44179255D01*
X67286479Y-44169393D01*
X67305565Y-44000003D01*
X67305565Y-43999996D01*
X67285369Y-43820750D01*
X67285368Y-43820745D01*
X67225788Y-43650476D01*
X67186582Y-43588080D01*
X67129816Y-43497738D01*
X67002262Y-43370184D01*
X66899422Y-43305565D01*
X66849523Y-43274211D01*
X66772465Y-43247247D01*
X70898301Y-43247247D01*
X70898301Y-43247254D01*
X70918496Y-43426500D01*
X70918497Y-43426505D01*
X70978077Y-43596774D01*
X71059143Y-43725789D01*
X71074050Y-43749513D01*
X71201604Y-43877067D01*
X71354344Y-43973040D01*
X71431400Y-44000003D01*
X71524611Y-44032619D01*
X71524616Y-44032620D01*
X71703862Y-44052816D01*
X71703866Y-44052816D01*
X71703870Y-44052816D01*
X71883115Y-44032620D01*
X71883118Y-44032619D01*
X71883121Y-44032619D01*
X72053388Y-43973040D01*
X72206128Y-43877067D01*
X72333682Y-43749513D01*
X72429655Y-43596773D01*
X72489234Y-43426506D01*
X72503567Y-43299299D01*
X72509431Y-43247254D01*
X72509431Y-43247248D01*
X72503499Y-43194604D01*
X72515553Y-43125782D01*
X72539032Y-43093045D01*
X72629816Y-43002262D01*
X72725789Y-42849522D01*
X72785368Y-42679255D01*
X72788190Y-42654209D01*
X72805565Y-42500003D01*
X72805565Y-42499996D01*
X72785369Y-42320750D01*
X72785368Y-42320745D01*
X72748237Y-42214632D01*
X72725789Y-42150478D01*
X72631235Y-41999996D01*
X74194435Y-41999996D01*
X74194435Y-42000003D01*
X74214630Y-42179249D01*
X74214631Y-42179254D01*
X74274211Y-42349523D01*
X74367341Y-42497737D01*
X74370184Y-42502262D01*
X74497738Y-42629816D01*
X74650478Y-42725789D01*
X74820745Y-42785368D01*
X74820750Y-42785369D01*
X74999996Y-42805565D01*
X75000000Y-42805565D01*
X75000004Y-42805565D01*
X75179249Y-42785369D01*
X75179252Y-42785368D01*
X75179255Y-42785368D01*
X75349522Y-42725789D01*
X75502262Y-42629816D01*
X75629816Y-42502262D01*
X75725789Y-42349522D01*
X75785368Y-42179255D01*
X75785369Y-42179249D01*
X75805565Y-42000003D01*
X75805565Y-41999997D01*
X75798285Y-41935389D01*
X75810339Y-41866567D01*
X75857688Y-41815188D01*
X75925298Y-41797563D01*
X75935385Y-41798284D01*
X75961857Y-41801267D01*
X75999998Y-41805565D01*
X76000000Y-41805565D01*
X76000004Y-41805565D01*
X76179249Y-41785369D01*
X76179252Y-41785368D01*
X76179255Y-41785368D01*
X76349522Y-41725789D01*
X76453455Y-41660483D01*
X76520690Y-41641483D01*
X76577939Y-41658293D01*
X76578523Y-41657083D01*
X76584787Y-41660100D01*
X76584791Y-41660102D01*
X76584794Y-41660103D01*
X76668745Y-41689479D01*
X76725522Y-41730201D01*
X76744832Y-41765565D01*
X76774211Y-41849523D01*
X76774212Y-41849524D01*
X76870184Y-42002262D01*
X76875254Y-42007332D01*
X76908739Y-42068655D01*
X76903755Y-42138347D01*
X76861883Y-42194280D01*
X76826703Y-42210577D01*
X76827318Y-42212332D01*
X76650476Y-42274211D01*
X76497737Y-42370184D01*
X76370184Y-42497737D01*
X76274211Y-42650476D01*
X76214631Y-42820745D01*
X76214630Y-42820750D01*
X76194435Y-42999996D01*
X76194435Y-43000003D01*
X76214630Y-43179249D01*
X76214631Y-43179254D01*
X76274211Y-43349523D01*
X76322583Y-43426506D01*
X76370184Y-43502262D01*
X76497738Y-43629816D01*
X76588080Y-43686582D01*
X76632721Y-43714632D01*
X76650478Y-43725789D01*
X76788860Y-43774211D01*
X76820745Y-43785368D01*
X76820750Y-43785369D01*
X76999996Y-43805565D01*
X77000000Y-43805565D01*
X77000004Y-43805565D01*
X77179249Y-43785369D01*
X77179252Y-43785368D01*
X77179255Y-43785368D01*
X77349522Y-43725789D01*
X77502262Y-43629816D01*
X77629816Y-43502262D01*
X77725789Y-43349522D01*
X77725789Y-43349519D01*
X77728259Y-43345590D01*
X77780594Y-43299299D01*
X77847136Y-43288342D01*
X77999996Y-43305565D01*
X78000000Y-43305565D01*
X78000004Y-43305565D01*
X78179249Y-43285369D01*
X78179252Y-43285368D01*
X78179255Y-43285368D01*
X78349522Y-43225789D01*
X78502262Y-43129816D01*
X78629816Y-43002262D01*
X78725789Y-42849522D01*
X78785368Y-42679255D01*
X78788190Y-42654209D01*
X78805565Y-42500003D01*
X78805565Y-42499996D01*
X78785369Y-42320750D01*
X78785368Y-42320745D01*
X78748237Y-42214632D01*
X78725789Y-42150478D01*
X78629816Y-41997738D01*
X78502262Y-41870184D01*
X78469379Y-41849522D01*
X78345590Y-41771740D01*
X78299299Y-41719405D01*
X78288342Y-41652862D01*
X78305565Y-41500002D01*
X78305565Y-41499996D01*
X78285369Y-41320750D01*
X78285368Y-41320745D01*
X78269085Y-41274211D01*
X78225789Y-41150478D01*
X78129816Y-40997738D01*
X78002262Y-40870184D01*
X77966737Y-40847862D01*
X77849524Y-40774212D01*
X77849523Y-40774211D01*
X77765565Y-40744832D01*
X77708789Y-40704109D01*
X77689479Y-40668745D01*
X77660102Y-40584791D01*
X77622846Y-40525499D01*
X77564129Y-40432051D01*
X77436575Y-40304497D01*
X77418006Y-40292829D01*
X77283836Y-40208524D01*
X77113567Y-40148944D01*
X77113562Y-40148943D01*
X76934317Y-40128748D01*
X76934309Y-40128748D01*
X76755063Y-40148943D01*
X76755058Y-40148944D01*
X76584789Y-40208524D01*
X76480858Y-40273829D01*
X76413621Y-40292829D01*
X76356376Y-40276021D01*
X76355794Y-40277231D01*
X76349521Y-40274210D01*
X76179262Y-40214633D01*
X76179249Y-40214630D01*
X76000004Y-40194435D01*
X75999996Y-40194435D01*
X75820750Y-40214630D01*
X75820745Y-40214631D01*
X75650476Y-40274211D01*
X75497737Y-40370184D01*
X75370184Y-40497737D01*
X75274211Y-40650476D01*
X75214631Y-40820745D01*
X75214630Y-40820750D01*
X75194435Y-40999996D01*
X75194435Y-41000004D01*
X75201714Y-41064611D01*
X75189659Y-41133433D01*
X75142310Y-41184812D01*
X75074699Y-41202436D01*
X75064611Y-41201714D01*
X75000004Y-41194435D01*
X74999996Y-41194435D01*
X74820750Y-41214630D01*
X74820745Y-41214631D01*
X74650476Y-41274211D01*
X74497737Y-41370184D01*
X74370184Y-41497737D01*
X74274211Y-41650476D01*
X74214631Y-41820745D01*
X74214630Y-41820750D01*
X74194435Y-41999996D01*
X72631235Y-41999996D01*
X72629816Y-41997738D01*
X72502262Y-41870184D01*
X72478084Y-41854992D01*
X72431796Y-41802661D01*
X72421146Y-41733607D01*
X72449521Y-41669758D01*
X72478082Y-41645009D01*
X72502262Y-41629816D01*
X72629816Y-41502262D01*
X72725789Y-41349522D01*
X72785368Y-41179255D01*
X72785369Y-41179249D01*
X72805565Y-41000003D01*
X72805565Y-40999996D01*
X72785369Y-40820750D01*
X72785368Y-40820745D01*
X72744555Y-40704109D01*
X72725789Y-40650478D01*
X72629816Y-40497738D01*
X72502262Y-40370184D01*
X72418803Y-40317743D01*
X72349523Y-40274211D01*
X72179254Y-40214631D01*
X72179249Y-40214630D01*
X72000004Y-40194435D01*
X71999996Y-40194435D01*
X71820750Y-40214630D01*
X71820745Y-40214631D01*
X71650476Y-40274211D01*
X71497737Y-40370184D01*
X71370184Y-40497737D01*
X71274211Y-40650476D01*
X71214631Y-40820745D01*
X71214630Y-40820750D01*
X71194435Y-40999996D01*
X71194435Y-41000003D01*
X71214630Y-41179249D01*
X71214631Y-41179254D01*
X71274211Y-41349523D01*
X71352662Y-41474376D01*
X71370184Y-41502262D01*
X71497738Y-41629816D01*
X71516306Y-41641483D01*
X71521913Y-41645006D01*
X71568204Y-41697341D01*
X71578852Y-41766395D01*
X71550477Y-41830243D01*
X71521913Y-41854994D01*
X71497737Y-41870184D01*
X71370184Y-41997737D01*
X71274211Y-42150476D01*
X71214631Y-42320745D01*
X71214630Y-42320750D01*
X71194435Y-42499996D01*
X71194435Y-42500003D01*
X71200366Y-42552646D01*
X71188311Y-42621468D01*
X71164828Y-42654209D01*
X71074051Y-42744987D01*
X71074050Y-42744988D01*
X70978077Y-42897727D01*
X70918497Y-43067996D01*
X70918496Y-43068001D01*
X70898301Y-43247247D01*
X66772465Y-43247247D01*
X66679254Y-43214631D01*
X66679249Y-43214630D01*
X66500004Y-43194435D01*
X66499996Y-43194435D01*
X66320750Y-43214630D01*
X66320745Y-43214631D01*
X66150476Y-43274211D01*
X65997737Y-43370184D01*
X65870184Y-43497737D01*
X65774211Y-43650476D01*
X65714631Y-43820745D01*
X65714630Y-43820750D01*
X65694435Y-43999996D01*
X48131235Y-43999996D01*
X48129816Y-43997738D01*
X48002262Y-43870184D01*
X47849523Y-43774211D01*
X47679254Y-43714631D01*
X47679249Y-43714630D01*
X47500004Y-43694435D01*
X47499996Y-43694435D01*
X47320750Y-43714630D01*
X47320745Y-43714631D01*
X47150476Y-43774211D01*
X46997737Y-43870184D01*
X46870184Y-43997737D01*
X46774211Y-44150476D01*
X46714631Y-44320745D01*
X46714630Y-44320750D01*
X46694435Y-44499996D01*
X42500500Y-44499996D01*
X42500500Y-41597114D01*
X42520185Y-41530075D01*
X42572989Y-41484320D01*
X42642147Y-41474376D01*
X42705703Y-41503401D01*
X42741542Y-41556160D01*
X42774210Y-41649521D01*
X42847126Y-41765565D01*
X42870184Y-41802262D01*
X42997738Y-41929816D01*
X43088080Y-41986582D01*
X43105833Y-41997737D01*
X43150478Y-42025789D01*
X43272982Y-42068655D01*
X43320745Y-42085368D01*
X43320750Y-42085369D01*
X43499996Y-42105565D01*
X43500000Y-42105565D01*
X43500004Y-42105565D01*
X43679249Y-42085369D01*
X43679252Y-42085368D01*
X43679255Y-42085368D01*
X43849522Y-42025789D01*
X44002262Y-41929816D01*
X44129816Y-41802262D01*
X44225789Y-41649522D01*
X44285368Y-41479255D01*
X44285918Y-41474376D01*
X44305565Y-41300003D01*
X44305565Y-41293036D01*
X44306802Y-41293036D01*
X44317627Y-41231236D01*
X44359901Y-41183073D01*
X44432721Y-41134418D01*
X44564418Y-41002721D01*
X44667891Y-40847862D01*
X44739165Y-40675792D01*
X44775500Y-40493124D01*
X44775500Y-40306876D01*
X44775500Y-40306873D01*
X44775499Y-40306871D01*
X44769603Y-40277231D01*
X44739165Y-40124208D01*
X44667891Y-39952138D01*
X44667890Y-39952136D01*
X44667890Y-39952135D01*
X44564421Y-39797283D01*
X44564415Y-39797275D01*
X44432724Y-39665584D01*
X44432716Y-39665578D01*
X44277864Y-39562109D01*
X44105792Y-39490835D01*
X44105784Y-39490833D01*
X43923127Y-39454500D01*
X43923124Y-39454500D01*
X43076876Y-39454500D01*
X43076873Y-39454500D01*
X42894215Y-39490833D01*
X42894207Y-39490835D01*
X42722138Y-39562108D01*
X42693388Y-39581318D01*
X42626710Y-39602194D01*
X42559331Y-39583708D01*
X42512642Y-39531728D01*
X42500500Y-39478214D01*
X42500500Y-39153917D01*
X45224500Y-39153917D01*
X45224500Y-39646082D01*
X45261986Y-39834535D01*
X45261989Y-39834547D01*
X45335520Y-40012068D01*
X45335521Y-40012070D01*
X45442279Y-40171844D01*
X45442282Y-40171848D01*
X45578151Y-40307717D01*
X45578155Y-40307720D01*
X45737927Y-40414477D01*
X45737928Y-40414477D01*
X45737929Y-40414478D01*
X45737931Y-40414479D01*
X45915452Y-40488010D01*
X45915457Y-40488012D01*
X46103917Y-40525499D01*
X46103920Y-40525500D01*
X46103922Y-40525500D01*
X46296080Y-40525500D01*
X46296081Y-40525499D01*
X46484543Y-40488012D01*
X46662073Y-40414477D01*
X46821845Y-40307720D01*
X46957720Y-40171845D01*
X47064477Y-40012073D01*
X47069479Y-39999996D01*
X73194435Y-39999996D01*
X73194435Y-40000003D01*
X73214630Y-40179249D01*
X73214631Y-40179254D01*
X73274211Y-40349523D01*
X73315026Y-40414479D01*
X73370184Y-40502262D01*
X73497738Y-40629816D01*
X73559693Y-40668745D01*
X73615974Y-40704109D01*
X73650478Y-40725789D01*
X73704900Y-40744832D01*
X73820745Y-40785368D01*
X73820750Y-40785369D01*
X73999996Y-40805565D01*
X74000000Y-40805565D01*
X74000004Y-40805565D01*
X74179249Y-40785369D01*
X74179252Y-40785368D01*
X74179255Y-40785368D01*
X74349522Y-40725789D01*
X74502262Y-40629816D01*
X74629816Y-40502262D01*
X74725789Y-40349522D01*
X74785368Y-40179255D01*
X74788783Y-40148945D01*
X74805565Y-40000003D01*
X74805565Y-39999996D01*
X74785369Y-39820750D01*
X74785368Y-39820745D01*
X74731074Y-39665582D01*
X74725789Y-39650478D01*
X74723024Y-39646078D01*
X74629815Y-39497737D01*
X74502262Y-39370184D01*
X74349523Y-39274211D01*
X74179254Y-39214631D01*
X74179249Y-39214630D01*
X74000004Y-39194435D01*
X73999996Y-39194435D01*
X73820750Y-39214630D01*
X73820745Y-39214631D01*
X73650476Y-39274211D01*
X73497737Y-39370184D01*
X73370184Y-39497737D01*
X73274211Y-39650476D01*
X73214631Y-39820745D01*
X73214630Y-39820750D01*
X73194435Y-39999996D01*
X47069479Y-39999996D01*
X47138012Y-39834543D01*
X47175500Y-39646078D01*
X47175500Y-39153922D01*
X47175500Y-39153919D01*
X47175499Y-39153917D01*
X47150013Y-39025789D01*
X47138012Y-38965457D01*
X47064477Y-38787927D01*
X46957720Y-38628155D01*
X46957717Y-38628151D01*
X46821848Y-38492282D01*
X46821844Y-38492279D01*
X46662070Y-38385521D01*
X46662068Y-38385520D01*
X46484547Y-38311989D01*
X46484535Y-38311986D01*
X46424257Y-38299996D01*
X47194435Y-38299996D01*
X47194435Y-38300003D01*
X47214630Y-38479249D01*
X47214631Y-38479254D01*
X47274211Y-38649523D01*
X47359569Y-38785368D01*
X47370184Y-38802262D01*
X47497738Y-38929816D01*
X47650478Y-39025789D01*
X47820745Y-39085368D01*
X47820750Y-39085369D01*
X47999996Y-39105565D01*
X48000000Y-39105565D01*
X48000004Y-39105565D01*
X48179249Y-39085369D01*
X48179252Y-39085368D01*
X48179255Y-39085368D01*
X48349522Y-39025789D01*
X48502262Y-38929816D01*
X48629816Y-38802262D01*
X48725789Y-38649522D01*
X48785368Y-38479255D01*
X48795929Y-38385523D01*
X48805565Y-38300003D01*
X48805565Y-38299996D01*
X48785369Y-38120750D01*
X48785368Y-38120745D01*
X48743909Y-38002262D01*
X48725789Y-37950478D01*
X48694069Y-37899996D01*
X49694435Y-37899996D01*
X49694435Y-37900003D01*
X49714630Y-38079249D01*
X49714631Y-38079254D01*
X49774211Y-38249523D01*
X49837045Y-38349522D01*
X49870184Y-38402262D01*
X49997738Y-38529816D01*
X50150478Y-38625789D01*
X50218306Y-38649523D01*
X50320745Y-38685368D01*
X50320750Y-38685369D01*
X50499996Y-38705565D01*
X50500000Y-38705565D01*
X50500004Y-38705565D01*
X50679249Y-38685369D01*
X50679252Y-38685368D01*
X50679255Y-38685368D01*
X50849522Y-38625789D01*
X51002262Y-38529816D01*
X51129816Y-38402262D01*
X51225789Y-38249522D01*
X51285368Y-38079255D01*
X51294043Y-38002262D01*
X51294298Y-37999996D01*
X70194435Y-37999996D01*
X70194435Y-38000003D01*
X70214630Y-38179249D01*
X70214631Y-38179254D01*
X70274211Y-38349523D01*
X70355724Y-38479249D01*
X70370184Y-38502262D01*
X70497738Y-38629816D01*
X70650478Y-38725789D01*
X70820745Y-38785368D01*
X70820750Y-38785369D01*
X70999996Y-38805565D01*
X71000000Y-38805565D01*
X71000004Y-38805565D01*
X71179249Y-38785369D01*
X71179252Y-38785368D01*
X71179255Y-38785368D01*
X71349522Y-38725789D01*
X71502262Y-38629816D01*
X71629816Y-38502262D01*
X71725789Y-38349522D01*
X71785368Y-38179255D01*
X71785369Y-38179249D01*
X71805565Y-38000003D01*
X71805565Y-37999996D01*
X71785369Y-37820750D01*
X71785368Y-37820745D01*
X71725789Y-37650478D01*
X71631235Y-37499996D01*
X80694435Y-37499996D01*
X80694435Y-37500003D01*
X80714630Y-37679249D01*
X80714631Y-37679254D01*
X80774211Y-37849523D01*
X80837646Y-37950478D01*
X80870184Y-38002262D01*
X80997738Y-38129816D01*
X81150478Y-38225789D01*
X81218306Y-38249523D01*
X81320745Y-38285368D01*
X81320750Y-38285369D01*
X81499996Y-38305565D01*
X81500000Y-38305565D01*
X81500004Y-38305565D01*
X81679249Y-38285369D01*
X81679252Y-38285368D01*
X81679255Y-38285368D01*
X81849522Y-38225789D01*
X82002262Y-38129816D01*
X82129816Y-38002262D01*
X82225789Y-37849522D01*
X82285368Y-37679255D01*
X82286390Y-37670184D01*
X82305565Y-37500003D01*
X82305565Y-37499996D01*
X82285369Y-37320750D01*
X82285368Y-37320745D01*
X82241170Y-37194435D01*
X82225789Y-37150478D01*
X82129816Y-36997738D01*
X82002262Y-36870184D01*
X81969379Y-36849522D01*
X81849523Y-36774211D01*
X81679254Y-36714631D01*
X81679249Y-36714630D01*
X81500004Y-36694435D01*
X81499996Y-36694435D01*
X81320750Y-36714630D01*
X81320745Y-36714631D01*
X81150476Y-36774211D01*
X80997737Y-36870184D01*
X80870184Y-36997737D01*
X80774211Y-37150476D01*
X80714631Y-37320745D01*
X80714630Y-37320750D01*
X80694435Y-37499996D01*
X71631235Y-37499996D01*
X71629816Y-37497738D01*
X71502262Y-37370184D01*
X71469379Y-37349522D01*
X71349523Y-37274211D01*
X71179254Y-37214631D01*
X71179249Y-37214630D01*
X71000004Y-37194435D01*
X70999996Y-37194435D01*
X70820750Y-37214630D01*
X70820745Y-37214631D01*
X70650476Y-37274211D01*
X70497737Y-37370184D01*
X70370184Y-37497737D01*
X70274211Y-37650476D01*
X70214631Y-37820745D01*
X70214630Y-37820750D01*
X70194435Y-37999996D01*
X51294298Y-37999996D01*
X51305565Y-37900003D01*
X51305565Y-37899997D01*
X51298864Y-37840525D01*
X51310918Y-37771703D01*
X51356109Y-37721649D01*
X51502262Y-37629816D01*
X51629816Y-37502262D01*
X51725789Y-37349522D01*
X51785368Y-37179255D01*
X51785470Y-37178350D01*
X51805565Y-37000003D01*
X51805565Y-36999996D01*
X51785369Y-36820750D01*
X51785368Y-36820745D01*
X51737998Y-36685369D01*
X51725789Y-36650478D01*
X51631235Y-36499996D01*
X52194435Y-36499996D01*
X52194435Y-36500003D01*
X52214630Y-36679249D01*
X52214631Y-36679254D01*
X52274211Y-36849523D01*
X52367341Y-36997737D01*
X52370184Y-37002262D01*
X52497738Y-37129816D01*
X52534325Y-37152805D01*
X52632721Y-37214632D01*
X52650478Y-37225789D01*
X52777346Y-37270182D01*
X52820745Y-37285368D01*
X52820750Y-37285369D01*
X52999996Y-37305565D01*
X53000000Y-37305565D01*
X53000004Y-37305565D01*
X53179249Y-37285369D01*
X53179252Y-37285368D01*
X53179255Y-37285368D01*
X53349522Y-37225789D01*
X53502262Y-37129816D01*
X53629816Y-37002262D01*
X53725789Y-36849522D01*
X53785368Y-36679255D01*
X53785369Y-36679249D01*
X53805565Y-36500003D01*
X53805565Y-36499996D01*
X84194435Y-36499996D01*
X84194435Y-36500003D01*
X84214630Y-36679249D01*
X84214631Y-36679254D01*
X84274211Y-36849523D01*
X84367341Y-36997737D01*
X84370184Y-37002262D01*
X84497738Y-37129816D01*
X84534325Y-37152805D01*
X84632721Y-37214632D01*
X84650478Y-37225789D01*
X84777346Y-37270182D01*
X84820745Y-37285368D01*
X84820750Y-37285369D01*
X84999996Y-37305565D01*
X85000000Y-37305565D01*
X85000004Y-37305565D01*
X85179249Y-37285369D01*
X85179252Y-37285368D01*
X85179255Y-37285368D01*
X85349522Y-37225789D01*
X85502262Y-37129816D01*
X85629816Y-37002262D01*
X85725789Y-36849522D01*
X85785368Y-36679255D01*
X85785369Y-36679249D01*
X85805565Y-36500003D01*
X85805565Y-36499996D01*
X85785369Y-36320750D01*
X85785368Y-36320745D01*
X85725788Y-36150476D01*
X85629815Y-35997737D01*
X85532074Y-35899996D01*
X89894435Y-35899996D01*
X89894435Y-35900003D01*
X89914630Y-36079249D01*
X89914631Y-36079254D01*
X89974211Y-36249523D01*
X90050028Y-36370184D01*
X90070184Y-36402262D01*
X90197738Y-36529816D01*
X90350478Y-36625789D01*
X90503258Y-36679249D01*
X90520745Y-36685368D01*
X90520750Y-36685369D01*
X90699996Y-36705565D01*
X90700000Y-36705565D01*
X90700004Y-36705565D01*
X90879249Y-36685369D01*
X90879252Y-36685368D01*
X90879255Y-36685368D01*
X91049522Y-36625789D01*
X91202262Y-36529816D01*
X91329816Y-36402262D01*
X91425789Y-36249522D01*
X91485368Y-36079255D01*
X91505565Y-35900000D01*
X91492649Y-35785369D01*
X91485369Y-35720750D01*
X91485368Y-35720745D01*
X91454070Y-35631300D01*
X91425789Y-35550478D01*
X91425788Y-35550476D01*
X91383894Y-35483802D01*
X91364894Y-35416565D01*
X91385262Y-35349730D01*
X91438530Y-35304516D01*
X91502771Y-35294610D01*
X91539580Y-35298757D01*
X91599998Y-35305565D01*
X91600000Y-35305565D01*
X91600004Y-35305565D01*
X91779249Y-35285369D01*
X91779252Y-35285368D01*
X91779255Y-35285368D01*
X91949522Y-35225789D01*
X92102262Y-35129816D01*
X92229816Y-35002262D01*
X92325789Y-34849522D01*
X92385368Y-34679255D01*
X92385759Y-34675788D01*
X92405565Y-34500003D01*
X92405565Y-34499996D01*
X92385369Y-34320750D01*
X92385368Y-34320745D01*
X92362274Y-34254746D01*
X92325789Y-34150478D01*
X92229816Y-33997738D01*
X92102262Y-33870184D01*
X92066740Y-33847864D01*
X91949523Y-33774211D01*
X91779254Y-33714631D01*
X91779249Y-33714630D01*
X91600004Y-33694435D01*
X91599996Y-33694435D01*
X91420750Y-33714630D01*
X91420745Y-33714631D01*
X91250476Y-33774211D01*
X91097737Y-33870184D01*
X90970184Y-33997737D01*
X90874211Y-34150476D01*
X90814631Y-34320745D01*
X90814630Y-34320750D01*
X90794435Y-34499996D01*
X90794435Y-34500003D01*
X90814630Y-34679249D01*
X90814631Y-34679254D01*
X90874211Y-34849523D01*
X90916105Y-34916197D01*
X90935105Y-34983434D01*
X90914737Y-35050269D01*
X90861469Y-35095483D01*
X90797228Y-35105389D01*
X90700004Y-35094435D01*
X90699996Y-35094435D01*
X90520750Y-35114630D01*
X90520745Y-35114631D01*
X90350476Y-35174211D01*
X90197737Y-35270184D01*
X90070184Y-35397737D01*
X89974211Y-35550476D01*
X89914631Y-35720745D01*
X89914630Y-35720750D01*
X89894435Y-35899996D01*
X85532074Y-35899996D01*
X85502262Y-35870184D01*
X85349523Y-35774211D01*
X85179254Y-35714631D01*
X85179249Y-35714630D01*
X85000004Y-35694435D01*
X84999996Y-35694435D01*
X84820750Y-35714630D01*
X84820745Y-35714631D01*
X84650476Y-35774211D01*
X84497737Y-35870184D01*
X84370184Y-35997737D01*
X84274211Y-36150476D01*
X84214631Y-36320745D01*
X84214630Y-36320750D01*
X84194435Y-36499996D01*
X53805565Y-36499996D01*
X53785369Y-36320750D01*
X53785368Y-36320745D01*
X53725788Y-36150476D01*
X53629815Y-35997737D01*
X53502262Y-35870184D01*
X53349523Y-35774211D01*
X53179254Y-35714631D01*
X53179249Y-35714630D01*
X53000004Y-35694435D01*
X52999996Y-35694435D01*
X52820750Y-35714630D01*
X52820745Y-35714631D01*
X52650476Y-35774211D01*
X52497737Y-35870184D01*
X52370184Y-35997737D01*
X52274211Y-36150476D01*
X52214631Y-36320745D01*
X52214630Y-36320750D01*
X52194435Y-36499996D01*
X51631235Y-36499996D01*
X51629816Y-36497738D01*
X51502262Y-36370184D01*
X51349523Y-36274211D01*
X51179254Y-36214631D01*
X51179249Y-36214630D01*
X51000004Y-36194435D01*
X50999996Y-36194435D01*
X50820750Y-36214630D01*
X50820745Y-36214631D01*
X50650476Y-36274211D01*
X50497737Y-36370184D01*
X50370184Y-36497737D01*
X50274211Y-36650476D01*
X50214631Y-36820745D01*
X50214630Y-36820750D01*
X50194435Y-36999996D01*
X50194435Y-37000004D01*
X50201135Y-37059475D01*
X50189080Y-37128297D01*
X50143888Y-37178350D01*
X49997740Y-37270182D01*
X49997737Y-37270184D01*
X49870184Y-37397737D01*
X49774211Y-37550476D01*
X49714631Y-37720745D01*
X49714630Y-37720750D01*
X49694435Y-37899996D01*
X48694069Y-37899996D01*
X48629816Y-37797738D01*
X48502262Y-37670184D01*
X48438017Y-37629816D01*
X48349523Y-37574211D01*
X48179254Y-37514631D01*
X48179249Y-37514630D01*
X48000004Y-37494435D01*
X47999996Y-37494435D01*
X47820750Y-37514630D01*
X47820745Y-37514631D01*
X47650476Y-37574211D01*
X47497737Y-37670184D01*
X47370184Y-37797737D01*
X47274211Y-37950476D01*
X47214631Y-38120745D01*
X47214630Y-38120750D01*
X47194435Y-38299996D01*
X46424257Y-38299996D01*
X46296081Y-38274500D01*
X46296078Y-38274500D01*
X46103922Y-38274500D01*
X46103919Y-38274500D01*
X45915464Y-38311986D01*
X45915452Y-38311989D01*
X45737931Y-38385520D01*
X45737929Y-38385521D01*
X45578155Y-38492279D01*
X45578151Y-38492282D01*
X45442282Y-38628151D01*
X45442279Y-38628155D01*
X45335521Y-38787929D01*
X45335520Y-38787931D01*
X45261989Y-38965452D01*
X45261986Y-38965464D01*
X45224500Y-39153917D01*
X42500500Y-39153917D01*
X42500500Y-34321785D01*
X42520185Y-34254746D01*
X42572989Y-34208991D01*
X42642147Y-34199047D01*
X42693390Y-34218683D01*
X42722136Y-34237890D01*
X42722137Y-34237890D01*
X42722138Y-34237891D01*
X42894208Y-34309165D01*
X43076871Y-34345499D01*
X43076874Y-34345500D01*
X43076876Y-34345500D01*
X43923126Y-34345500D01*
X43923127Y-34345499D01*
X44105792Y-34309165D01*
X44277862Y-34237891D01*
X44277863Y-34237890D01*
X44277864Y-34237890D01*
X44403531Y-34153922D01*
X44403538Y-34153917D01*
X45224500Y-34153917D01*
X45224500Y-34646082D01*
X45261986Y-34834535D01*
X45261989Y-34834547D01*
X45335520Y-35012068D01*
X45335521Y-35012070D01*
X45442279Y-35171844D01*
X45442282Y-35171848D01*
X45578151Y-35307717D01*
X45578155Y-35307720D01*
X45737927Y-35414477D01*
X45737928Y-35414477D01*
X45737929Y-35414478D01*
X45737931Y-35414479D01*
X45905293Y-35483802D01*
X45915457Y-35488012D01*
X46103917Y-35525499D01*
X46103920Y-35525500D01*
X46103922Y-35525500D01*
X46296080Y-35525500D01*
X46296081Y-35525499D01*
X46484543Y-35488012D01*
X46662073Y-35414477D01*
X46821845Y-35307720D01*
X46957720Y-35171845D01*
X47064477Y-35012073D01*
X47138012Y-34834543D01*
X47175500Y-34646078D01*
X47175500Y-34153922D01*
X47175500Y-34153919D01*
X47175499Y-34153917D01*
X47158337Y-34067639D01*
X47144882Y-33999996D01*
X70194435Y-33999996D01*
X70194435Y-34000003D01*
X70214630Y-34179249D01*
X70214631Y-34179254D01*
X70274211Y-34349523D01*
X70338767Y-34452262D01*
X70370184Y-34502262D01*
X70497738Y-34629816D01*
X70650478Y-34725789D01*
X70677847Y-34735366D01*
X70792390Y-34775446D01*
X70849166Y-34816168D01*
X70874656Y-34878604D01*
X70888895Y-35004985D01*
X70888896Y-35004989D01*
X70948476Y-35175258D01*
X71027660Y-35301278D01*
X71044449Y-35327997D01*
X71172003Y-35455551D01*
X71324743Y-35551524D01*
X71495010Y-35611103D01*
X71495015Y-35611104D01*
X71674261Y-35631300D01*
X71674265Y-35631300D01*
X71674269Y-35631300D01*
X71853514Y-35611104D01*
X71853517Y-35611103D01*
X71853520Y-35611103D01*
X72023787Y-35551524D01*
X72176527Y-35455551D01*
X72212007Y-35420071D01*
X72273329Y-35386585D01*
X72313574Y-35386809D01*
X72313825Y-35384589D01*
X72499996Y-35405565D01*
X72500000Y-35405565D01*
X72500004Y-35405565D01*
X72679249Y-35385369D01*
X72679251Y-35385368D01*
X72679255Y-35385368D01*
X72679258Y-35385366D01*
X72679262Y-35385366D01*
X72734100Y-35366177D01*
X72849522Y-35325789D01*
X72858289Y-35320280D01*
X72925522Y-35301278D01*
X72990239Y-35320281D01*
X72999005Y-35325789D01*
X73167046Y-35384589D01*
X73169272Y-35385368D01*
X73169277Y-35385369D01*
X73348523Y-35405565D01*
X73348527Y-35405565D01*
X73348531Y-35405565D01*
X73527776Y-35385369D01*
X73527779Y-35385368D01*
X73527782Y-35385368D01*
X73698049Y-35325789D01*
X73850789Y-35229816D01*
X73850788Y-35229816D01*
X73856686Y-35226111D01*
X73858083Y-35228334D01*
X73911626Y-35206470D01*
X73980322Y-35219219D01*
X73991613Y-35226475D01*
X73991842Y-35226111D01*
X74121716Y-35307717D01*
X74150478Y-35325789D01*
X74318519Y-35384589D01*
X74320745Y-35385368D01*
X74320750Y-35385369D01*
X74499996Y-35405565D01*
X74500000Y-35405565D01*
X74500004Y-35405565D01*
X74679249Y-35385369D01*
X74679252Y-35385368D01*
X74679255Y-35385368D01*
X74849522Y-35325789D01*
X75002262Y-35229816D01*
X75129816Y-35102262D01*
X75194074Y-34999996D01*
X77194435Y-34999996D01*
X77194435Y-35000003D01*
X77214630Y-35179249D01*
X77214631Y-35179254D01*
X77274211Y-35349523D01*
X77358585Y-35483802D01*
X77370184Y-35502262D01*
X77497738Y-35629816D01*
X77500100Y-35631300D01*
X77642450Y-35720745D01*
X77650478Y-35725789D01*
X77788860Y-35774211D01*
X77820745Y-35785368D01*
X77820750Y-35785369D01*
X77999996Y-35805565D01*
X78000000Y-35805565D01*
X78000004Y-35805565D01*
X78179249Y-35785369D01*
X78179252Y-35785368D01*
X78179255Y-35785368D01*
X78349522Y-35725789D01*
X78502262Y-35629816D01*
X78629816Y-35502262D01*
X78725789Y-35349522D01*
X78785368Y-35179255D01*
X78785369Y-35179249D01*
X78805565Y-35000003D01*
X78805565Y-34999996D01*
X78785369Y-34820750D01*
X78785368Y-34820745D01*
X78769517Y-34775446D01*
X78725789Y-34650478D01*
X78723024Y-34646078D01*
X78681388Y-34579815D01*
X78629816Y-34497738D01*
X78502262Y-34370184D01*
X78425236Y-34321785D01*
X78349523Y-34274211D01*
X78179254Y-34214631D01*
X78179249Y-34214630D01*
X78000004Y-34194435D01*
X77999996Y-34194435D01*
X77820750Y-34214630D01*
X77820745Y-34214631D01*
X77650476Y-34274211D01*
X77497737Y-34370184D01*
X77370184Y-34497737D01*
X77274211Y-34650476D01*
X77214631Y-34820745D01*
X77214630Y-34820750D01*
X77194435Y-34999996D01*
X75194074Y-34999996D01*
X75225789Y-34949522D01*
X75285368Y-34779255D01*
X75285797Y-34775446D01*
X75305565Y-34600003D01*
X75305565Y-34599996D01*
X75285369Y-34420750D01*
X75285368Y-34420745D01*
X75246324Y-34309164D01*
X75225789Y-34250478D01*
X75217879Y-34237890D01*
X75162955Y-34150478D01*
X75129816Y-34097738D01*
X75002262Y-33970184D01*
X74970144Y-33950003D01*
X74849523Y-33874211D01*
X74679254Y-33814631D01*
X74679249Y-33814630D01*
X74500004Y-33794435D01*
X74499996Y-33794435D01*
X74320750Y-33814630D01*
X74320745Y-33814631D01*
X74150476Y-33874211D01*
X73991842Y-33973889D01*
X73990448Y-33971671D01*
X73936864Y-33993534D01*
X73868171Y-33980764D01*
X73856912Y-33973526D01*
X73856685Y-33973889D01*
X73698050Y-33874211D01*
X73527781Y-33814631D01*
X73527776Y-33814630D01*
X73348531Y-33794435D01*
X73348523Y-33794435D01*
X73169277Y-33814630D01*
X73169264Y-33814633D01*
X72999006Y-33874209D01*
X72990230Y-33879724D01*
X72922993Y-33898720D01*
X72858289Y-33879720D01*
X72854266Y-33877192D01*
X72849521Y-33874210D01*
X72679254Y-33814631D01*
X72679249Y-33814630D01*
X72500004Y-33794435D01*
X72499996Y-33794435D01*
X72320750Y-33814630D01*
X72320745Y-33814631D01*
X72150476Y-33874211D01*
X71997732Y-33970187D01*
X71993730Y-33973379D01*
X71929041Y-33999782D01*
X71860347Y-33987020D01*
X71809457Y-33939145D01*
X71793206Y-33890308D01*
X71785369Y-33820749D01*
X71785368Y-33820745D01*
X71741170Y-33694435D01*
X71725789Y-33650478D01*
X71629816Y-33497738D01*
X71502262Y-33370184D01*
X71422688Y-33320184D01*
X71349523Y-33274211D01*
X71179254Y-33214631D01*
X71179249Y-33214630D01*
X71000004Y-33194435D01*
X70999996Y-33194435D01*
X70820750Y-33214630D01*
X70820745Y-33214631D01*
X70650476Y-33274211D01*
X70497737Y-33370184D01*
X70370184Y-33497737D01*
X70274211Y-33650476D01*
X70214631Y-33820745D01*
X70214630Y-33820750D01*
X70194435Y-33999996D01*
X47144882Y-33999996D01*
X47138012Y-33965457D01*
X47127113Y-33939145D01*
X47064479Y-33787931D01*
X47064478Y-33787929D01*
X47062767Y-33785369D01*
X46957720Y-33628155D01*
X46957717Y-33628151D01*
X46821848Y-33492282D01*
X46821844Y-33492279D01*
X46662070Y-33385521D01*
X46662068Y-33385520D01*
X46484547Y-33311989D01*
X46484535Y-33311986D01*
X46296081Y-33274500D01*
X46296078Y-33274500D01*
X46103922Y-33274500D01*
X46103919Y-33274500D01*
X45915464Y-33311986D01*
X45915452Y-33311989D01*
X45737931Y-33385520D01*
X45737929Y-33385521D01*
X45578155Y-33492279D01*
X45578151Y-33492282D01*
X45442282Y-33628151D01*
X45442279Y-33628155D01*
X45335521Y-33787929D01*
X45335520Y-33787931D01*
X45261989Y-33965452D01*
X45261986Y-33965464D01*
X45224500Y-34153917D01*
X44403538Y-34153917D01*
X44432721Y-34134418D01*
X44564418Y-34002721D01*
X44667891Y-33847862D01*
X44739165Y-33675792D01*
X44775500Y-33493124D01*
X44775500Y-33306876D01*
X44775500Y-33306873D01*
X44775499Y-33306871D01*
X44769060Y-33274500D01*
X44739165Y-33124208D01*
X44687715Y-32999996D01*
X68194435Y-32999996D01*
X68194435Y-33000003D01*
X68214630Y-33179249D01*
X68214631Y-33179254D01*
X68274211Y-33349523D01*
X68335924Y-33447738D01*
X68370184Y-33502262D01*
X68497738Y-33629816D01*
X68570896Y-33675784D01*
X68632721Y-33714632D01*
X68650478Y-33725789D01*
X68778955Y-33770745D01*
X68820745Y-33785368D01*
X68820750Y-33785369D01*
X68999996Y-33805565D01*
X69000000Y-33805565D01*
X69000004Y-33805565D01*
X69179249Y-33785369D01*
X69179252Y-33785368D01*
X69179255Y-33785368D01*
X69349522Y-33725789D01*
X69502262Y-33629816D01*
X69629816Y-33502262D01*
X69725789Y-33349522D01*
X69785368Y-33179255D01*
X69787016Y-33164630D01*
X69805565Y-33000003D01*
X69805565Y-32999996D01*
X78194435Y-32999996D01*
X78194435Y-33000003D01*
X78214630Y-33179249D01*
X78214631Y-33179254D01*
X78274211Y-33349523D01*
X78335924Y-33447738D01*
X78370184Y-33502262D01*
X78497738Y-33629816D01*
X78570896Y-33675784D01*
X78632721Y-33714632D01*
X78650478Y-33725789D01*
X78778955Y-33770745D01*
X78820745Y-33785368D01*
X78820750Y-33785369D01*
X78999996Y-33805565D01*
X79000000Y-33805565D01*
X79000004Y-33805565D01*
X79179249Y-33785369D01*
X79179252Y-33785368D01*
X79179255Y-33785368D01*
X79349522Y-33725789D01*
X79502262Y-33629816D01*
X79629816Y-33502262D01*
X79725789Y-33349522D01*
X79785368Y-33179255D01*
X79787016Y-33164630D01*
X79805565Y-33000003D01*
X79805565Y-32999996D01*
X79785369Y-32820750D01*
X79785368Y-32820745D01*
X79725788Y-32650476D01*
X79629815Y-32497737D01*
X79502262Y-32370184D01*
X79349523Y-32274211D01*
X79179254Y-32214631D01*
X79179249Y-32214630D01*
X79000004Y-32194435D01*
X78999996Y-32194435D01*
X78820750Y-32214630D01*
X78820745Y-32214631D01*
X78650476Y-32274211D01*
X78497737Y-32370184D01*
X78370184Y-32497737D01*
X78274211Y-32650476D01*
X78214631Y-32820745D01*
X78214630Y-32820750D01*
X78194435Y-32999996D01*
X69805565Y-32999996D01*
X69785369Y-32820750D01*
X69785368Y-32820745D01*
X69725788Y-32650476D01*
X69629815Y-32497737D01*
X69502262Y-32370184D01*
X69349523Y-32274211D01*
X69179254Y-32214631D01*
X69179249Y-32214630D01*
X69000004Y-32194435D01*
X68999996Y-32194435D01*
X68820750Y-32214630D01*
X68820745Y-32214631D01*
X68650476Y-32274211D01*
X68497737Y-32370184D01*
X68370184Y-32497737D01*
X68274211Y-32650476D01*
X68214631Y-32820745D01*
X68214630Y-32820750D01*
X68194435Y-32999996D01*
X44687715Y-32999996D01*
X44667891Y-32952138D01*
X44667890Y-32952136D01*
X44667890Y-32952135D01*
X44564421Y-32797283D01*
X44564415Y-32797275D01*
X44432723Y-32665583D01*
X44405723Y-32647542D01*
X44338943Y-32602922D01*
X44294140Y-32549312D01*
X44284615Y-32485937D01*
X44305565Y-32300002D01*
X44305565Y-32299996D01*
X44285369Y-32120750D01*
X44285368Y-32120745D01*
X44244127Y-32002885D01*
X44225789Y-31950478D01*
X44129816Y-31797738D01*
X44002262Y-31670184D01*
X43938017Y-31629816D01*
X43849523Y-31574211D01*
X43679254Y-31514631D01*
X43679249Y-31514630D01*
X43500004Y-31494435D01*
X43499996Y-31494435D01*
X43320750Y-31514630D01*
X43320745Y-31514631D01*
X43150476Y-31574211D01*
X42997737Y-31670184D01*
X42870184Y-31797737D01*
X42774209Y-31950480D01*
X42741541Y-32043840D01*
X42700820Y-32100616D01*
X42635867Y-32126363D01*
X42567305Y-32112907D01*
X42516903Y-32064519D01*
X42500500Y-32002885D01*
X42500500Y-30999996D01*
X83694435Y-30999996D01*
X83694435Y-31000003D01*
X83714630Y-31179249D01*
X83714631Y-31179254D01*
X83774211Y-31349523D01*
X83865266Y-31494435D01*
X83870184Y-31502262D01*
X83997738Y-31629816D01*
X84150478Y-31725789D01*
X84320745Y-31785368D01*
X84320750Y-31785369D01*
X84499996Y-31805565D01*
X84500000Y-31805565D01*
X84500004Y-31805565D01*
X84679249Y-31785369D01*
X84679252Y-31785368D01*
X84679255Y-31785368D01*
X84849522Y-31725789D01*
X85002262Y-31629816D01*
X85129816Y-31502262D01*
X85225789Y-31349522D01*
X85285368Y-31179255D01*
X85305565Y-31000000D01*
X85289171Y-30854500D01*
X85285369Y-30820750D01*
X85285368Y-30820745D01*
X85225789Y-30650478D01*
X85129816Y-30497738D01*
X85002262Y-30370184D01*
X84849523Y-30274211D01*
X84679254Y-30214631D01*
X84679249Y-30214630D01*
X84500004Y-30194435D01*
X84499996Y-30194435D01*
X84320750Y-30214630D01*
X84320745Y-30214631D01*
X84150476Y-30274211D01*
X83997737Y-30370184D01*
X83870184Y-30497737D01*
X83774211Y-30650476D01*
X83714631Y-30820745D01*
X83714630Y-30820750D01*
X83694435Y-30999996D01*
X42500500Y-30999996D01*
X42500500Y-29393399D01*
X43645500Y-29393399D01*
X43645500Y-29606600D01*
X43678853Y-29817180D01*
X43678853Y-29817183D01*
X43744734Y-30019944D01*
X43744736Y-30019947D01*
X43841528Y-30209913D01*
X43966846Y-30382397D01*
X44117603Y-30533154D01*
X44290087Y-30658472D01*
X44480053Y-30755264D01*
X44480055Y-30755265D01*
X44669182Y-30816715D01*
X44682821Y-30821147D01*
X44893399Y-30854500D01*
X44893400Y-30854500D01*
X45106600Y-30854500D01*
X45106601Y-30854500D01*
X45317179Y-30821147D01*
X45317182Y-30821146D01*
X45317183Y-30821146D01*
X45519944Y-30755265D01*
X45519944Y-30755264D01*
X45519947Y-30755264D01*
X45709913Y-30658472D01*
X45882397Y-30533154D01*
X46033154Y-30382397D01*
X46158472Y-30209913D01*
X46255264Y-30019947D01*
X46308644Y-29855659D01*
X46321146Y-29817183D01*
X46321146Y-29817182D01*
X46321147Y-29817179D01*
X46354500Y-29606601D01*
X46354500Y-29393399D01*
X46321147Y-29182821D01*
X46321146Y-29182817D01*
X46321146Y-29182816D01*
X46255265Y-28980055D01*
X46255263Y-28980052D01*
X46246913Y-28963663D01*
X46158472Y-28790087D01*
X46033154Y-28617603D01*
X45882397Y-28466846D01*
X45709913Y-28341528D01*
X45519947Y-28244736D01*
X45519944Y-28244734D01*
X45317181Y-28178853D01*
X45176793Y-28156617D01*
X45106601Y-28145500D01*
X44893399Y-28145500D01*
X44823206Y-28156617D01*
X44682819Y-28178853D01*
X44682816Y-28178853D01*
X44480055Y-28244734D01*
X44480052Y-28244736D01*
X44290086Y-28341528D01*
X44117601Y-28466847D01*
X43966847Y-28617601D01*
X43841528Y-28790086D01*
X43744736Y-28980052D01*
X43744734Y-28980055D01*
X43678853Y-29182816D01*
X43678853Y-29182819D01*
X43645500Y-29393399D01*
X42500500Y-29393399D01*
X42500500Y-28504427D01*
X42500816Y-28495581D01*
X42515130Y-28295443D01*
X42515131Y-28295442D01*
X42515130Y-28295436D01*
X42517646Y-28277938D01*
X42559356Y-28086199D01*
X42564333Y-28069248D01*
X42632911Y-27885385D01*
X42640259Y-27869298D01*
X42665993Y-27822169D01*
X42734291Y-27697089D01*
X42743845Y-27682221D01*
X42861448Y-27525123D01*
X42873020Y-27511769D01*
X43011769Y-27373020D01*
X43025123Y-27361448D01*
X43182221Y-27243845D01*
X43197089Y-27234291D01*
X43369298Y-27140258D01*
X43385385Y-27132911D01*
X43569248Y-27064333D01*
X43586199Y-27059356D01*
X43777938Y-27017646D01*
X43795436Y-27015130D01*
X43995582Y-27000816D01*
X44004428Y-27000500D01*
X44065892Y-27000500D01*
X55520804Y-27000500D01*
X55587843Y-27020185D01*
G37*
%TD.AperFunction*%
%TD*%
M02*
