G04 Layer: BottomSilkscreenLayer*
G04 EasyEDA v6.5.40, 2024-06-14 14:15:58*
G04 Gerber Generator version 0.2*
G04 Scale: 100 percent, Rotated: No, Reflected: No *
G04 Dimensions in millimeters *
G04 leading zeros omitted , absolute positions ,4 integer and 5 decimal *
%FSLAX45Y45*%
%MOMM*%

%ADD10C,0.0001*%

%LPD*%
G36*
X5879947Y1143101D02*
G01*
X5879947Y1070152D01*
X6289802Y1070152D01*
X6289802Y733247D01*
X5952845Y733247D01*
X5952845Y1070152D01*
X5879947Y1070152D01*
X5879947Y660298D01*
X6362700Y660298D01*
X6362700Y1143101D01*
G37*
G36*
X5052364Y1143101D02*
G01*
X5052364Y1074115D01*
X4983378Y1074115D01*
X4983378Y1005128D01*
X5052364Y1005128D01*
X5052364Y936193D01*
X5121351Y936193D01*
X5121351Y729284D01*
X5052364Y729284D01*
X5052364Y660298D01*
X5121351Y660298D01*
X5121351Y729284D01*
X5190286Y729284D01*
X5190286Y591362D01*
X5121351Y591362D01*
X5121351Y522376D01*
X4983378Y522376D01*
X4983378Y453440D01*
X5052364Y453440D01*
X5052364Y384454D01*
X4983378Y384454D01*
X4983378Y315468D01*
X5190286Y315468D01*
X5190286Y246532D01*
X5121351Y246532D01*
X5121351Y315468D01*
X4914442Y315468D01*
X4914442Y246532D01*
X5052364Y246532D01*
X5052364Y177546D01*
X4845456Y177546D01*
X4845456Y384454D01*
X4569612Y384454D01*
X4569612Y591362D01*
X4362704Y591362D01*
X4362704Y522376D01*
X4431690Y522376D01*
X4431690Y453440D01*
X4500626Y453440D01*
X4500626Y384454D01*
X4569612Y384454D01*
X4569612Y315468D01*
X4776520Y315468D01*
X4776520Y246532D01*
X4431690Y246532D01*
X4431690Y384454D01*
X4362704Y384454D01*
X4362704Y39624D01*
X4431690Y39624D01*
X4431690Y177546D01*
X4638548Y177546D01*
X4638548Y108610D01*
X4707534Y108610D01*
X4707534Y177546D01*
X4845456Y177546D01*
X4845456Y108610D01*
X4707534Y108610D01*
X4707534Y-29311D01*
X4776520Y-29311D01*
X4776520Y39624D01*
X4914442Y39624D01*
X4914442Y-98298D01*
X4776520Y-98298D01*
X4776520Y-167284D01*
X4707534Y-167284D01*
X4707534Y-236220D01*
X4638548Y-236220D01*
X4638548Y-98298D01*
X4569612Y-98298D01*
X4569612Y-29311D01*
X4638548Y-29311D01*
X4638548Y39624D01*
X4569612Y39624D01*
X4569612Y177546D01*
X4500626Y177546D01*
X4500626Y39624D01*
X4569612Y39624D01*
X4569612Y-29311D01*
X4431690Y-29311D01*
X4431690Y-98298D01*
X4362704Y-98298D01*
X4362704Y-167284D01*
X4431690Y-167284D01*
X4431690Y-98298D01*
X4569612Y-98298D01*
X4569612Y-167284D01*
X4500626Y-167284D01*
X4500626Y-236220D01*
X4431690Y-236220D01*
X4431690Y-305206D01*
X4914442Y-305206D01*
X4914442Y-374142D01*
X4983378Y-374142D01*
X4983378Y-236220D01*
X5052364Y-236220D01*
X5052364Y-167284D01*
X5121351Y-167284D01*
X5121351Y-98298D01*
X5259273Y-98298D01*
X5259273Y39624D01*
X5190286Y39624D01*
X5190286Y-29311D01*
X4983378Y-29311D01*
X4983378Y108610D01*
X5052364Y108610D01*
X5052364Y177546D01*
X5121351Y177546D01*
X5121351Y108610D01*
X5259273Y108610D01*
X5259273Y246532D01*
X5328208Y246532D01*
X5328208Y315468D01*
X5259273Y315468D01*
X5259273Y384454D01*
X5328208Y384454D01*
X5328208Y453440D01*
X5259273Y453440D01*
X5259273Y522376D01*
X5190286Y522376D01*
X5190286Y384454D01*
X5121351Y384454D01*
X5121351Y522376D01*
X5190286Y522376D01*
X5190286Y591362D01*
X5328208Y591362D01*
X5328208Y660298D01*
X5259273Y660298D01*
X5259273Y729284D01*
X5328208Y729284D01*
X5328208Y660298D01*
X5397195Y660298D01*
X5397195Y315468D01*
X5535117Y315468D01*
X5535117Y246532D01*
X5466130Y246532D01*
X5466130Y315468D01*
X5397195Y315468D01*
X5397195Y246532D01*
X5328208Y246532D01*
X5328208Y177546D01*
X5397195Y177546D01*
X5397195Y108610D01*
X5466130Y108610D01*
X5466130Y177546D01*
X5535117Y177546D01*
X5535117Y108610D01*
X5604103Y108610D01*
X5604103Y177546D01*
X5673039Y177546D01*
X5673039Y246532D01*
X5604103Y246532D01*
X5604103Y315468D01*
X5673039Y315468D01*
X5673039Y246532D01*
X5742025Y246532D01*
X5742025Y108610D01*
X5810961Y108610D01*
X5810961Y39624D01*
X5673039Y39624D01*
X5673039Y-29311D01*
X5535117Y-29311D01*
X5535117Y108610D01*
X5466130Y108610D01*
X5466130Y-29311D01*
X5397195Y-29311D01*
X5397195Y39624D01*
X5328208Y39624D01*
X5328208Y-98298D01*
X5742025Y-98298D01*
X5742025Y-167284D01*
X6017869Y-167284D01*
X6017869Y-98298D01*
X5879947Y-98298D01*
X5879947Y-29311D01*
X6017869Y-29311D01*
X6017869Y-98298D01*
X6086856Y-98298D01*
X6086856Y-167284D01*
X6017869Y-167284D01*
X6017869Y-236220D01*
X5742025Y-236220D01*
X5742025Y-167284D01*
X5604103Y-167284D01*
X5604103Y-236220D01*
X5673039Y-236220D01*
X5673039Y-305206D01*
X5742025Y-305206D01*
X5742025Y-650036D01*
X5604103Y-650036D01*
X5604103Y-718972D01*
X5535117Y-718972D01*
X5535117Y-650036D01*
X5604103Y-650036D01*
X5604103Y-581050D01*
X5466130Y-581050D01*
X5466130Y-512114D01*
X5397195Y-512114D01*
X5397195Y-305206D01*
X5535117Y-305206D01*
X5535117Y-167284D01*
X5466130Y-167284D01*
X5466130Y-236220D01*
X5397195Y-236220D01*
X5397195Y-167284D01*
X5328208Y-167284D01*
X5328208Y-236220D01*
X5121351Y-236220D01*
X5121351Y-305206D01*
X5052364Y-305206D01*
X5052364Y-374142D01*
X5190286Y-374142D01*
X5190286Y-305206D01*
X5328208Y-305206D01*
X5328208Y-443128D01*
X5259273Y-443128D01*
X5259273Y-512114D01*
X5190286Y-512114D01*
X5190286Y-581050D01*
X5052364Y-581050D01*
X5052364Y-374142D01*
X4914442Y-374142D01*
X4914442Y-512114D01*
X4707534Y-512114D01*
X4707534Y-305206D01*
X4569612Y-305206D01*
X4569612Y-443128D01*
X4638548Y-443128D01*
X4638548Y-512114D01*
X4569612Y-512114D01*
X4569612Y-581050D01*
X4983378Y-581050D01*
X4983378Y-650036D01*
X4914442Y-650036D01*
X4914442Y-581050D01*
X4845456Y-581050D01*
X4845456Y-718972D01*
X4776520Y-718972D01*
X4776520Y-650036D01*
X4638548Y-650036D01*
X4638548Y-718972D01*
X4707534Y-718972D01*
X4707534Y-787958D01*
X4638548Y-787958D01*
X4638548Y-718972D01*
X4569612Y-718972D01*
X4569612Y-650036D01*
X4500626Y-650036D01*
X4500626Y-581050D01*
X4431690Y-581050D01*
X4431690Y-650036D01*
X4362704Y-650036D01*
X4362704Y-787958D01*
X4431690Y-787958D01*
X4431690Y-718972D01*
X4500626Y-718972D01*
X4500626Y-787958D01*
X4569612Y-787958D01*
X4569612Y-856894D01*
X4776520Y-856894D01*
X4776520Y-787958D01*
X4914442Y-787958D01*
X4914442Y-856894D01*
X4983378Y-856894D01*
X4983378Y-787958D01*
X4914442Y-787958D01*
X4914442Y-718972D01*
X4983378Y-718972D01*
X4983378Y-650036D01*
X5190286Y-650036D01*
X5190286Y-581050D01*
X5259273Y-581050D01*
X5259273Y-512114D01*
X5328208Y-512114D01*
X5328208Y-581050D01*
X5466130Y-581050D01*
X5466130Y-718972D01*
X5397195Y-718972D01*
X5397195Y-650036D01*
X5259273Y-650036D01*
X5259273Y-787958D01*
X5535117Y-787958D01*
X5535117Y-856894D01*
X5673039Y-856894D01*
X5673039Y-718972D01*
X5742025Y-718972D01*
X5742025Y-650036D01*
X5810961Y-650036D01*
X5810961Y-305206D01*
X6017869Y-305206D01*
X6017869Y-236220D01*
X6086856Y-236220D01*
X6086856Y-305206D01*
X6155791Y-305206D01*
X6155791Y-236220D01*
X6224778Y-236220D01*
X6224778Y-305206D01*
X6362700Y-305206D01*
X6362700Y39624D01*
X6293713Y39624D01*
X6293713Y-98298D01*
X6224778Y-98298D01*
X6224778Y-167284D01*
X6155791Y-167284D01*
X6155791Y-98298D01*
X6086856Y-98298D01*
X6086856Y-29311D01*
X6017869Y-29311D01*
X6017869Y39624D01*
X6086856Y39624D01*
X6086856Y108610D01*
X6017869Y108610D01*
X6017869Y39624D01*
X5879947Y39624D01*
X5879947Y108610D01*
X5948883Y108610D01*
X5948883Y177546D01*
X5810961Y177546D01*
X5810961Y246532D01*
X6155791Y246532D01*
X6155791Y315468D01*
X6224778Y315468D01*
X6224778Y108610D01*
X6155791Y108610D01*
X6155791Y-29311D01*
X6224778Y-29311D01*
X6224778Y108610D01*
X6293713Y108610D01*
X6293713Y177546D01*
X6362700Y177546D01*
X6362700Y246532D01*
X6293713Y246532D01*
X6293713Y315468D01*
X6224778Y315468D01*
X6224778Y384454D01*
X6155791Y384454D01*
X6155791Y453440D01*
X6293713Y453440D01*
X6293713Y522376D01*
X6362700Y522376D01*
X6362700Y591362D01*
X6293713Y591362D01*
X6293713Y522376D01*
X6155791Y522376D01*
X6155791Y591362D01*
X5742025Y591362D01*
X5742025Y660298D01*
X5810961Y660298D01*
X5810961Y729284D01*
X5742025Y729284D01*
X5742025Y660298D01*
X5673039Y660298D01*
X5673039Y729284D01*
X5604103Y729284D01*
X5604103Y660298D01*
X5673039Y660298D01*
X5673039Y522376D01*
X6017869Y522376D01*
X6017869Y453440D01*
X5810961Y453440D01*
X5810961Y384454D01*
X6155791Y384454D01*
X6155791Y315468D01*
X6017869Y315468D01*
X6017869Y384454D01*
X5948883Y384454D01*
X5948883Y315468D01*
X5673039Y315468D01*
X5673039Y453440D01*
X5604103Y453440D01*
X5604103Y591362D01*
X5535117Y591362D01*
X5535117Y384454D01*
X5466130Y384454D01*
X5466130Y660298D01*
X5535117Y660298D01*
X5535117Y798271D01*
X5604103Y798271D01*
X5604103Y867206D01*
X5535117Y867206D01*
X5535117Y936193D01*
X5604103Y936193D01*
X5604103Y1005128D01*
X5742025Y1005128D01*
X5742025Y936193D01*
X5810961Y936193D01*
X5810961Y1143101D01*
X5742025Y1143101D01*
X5742025Y1074115D01*
X5604103Y1074115D01*
X5604103Y1005128D01*
X5466130Y1005128D01*
X5466130Y867206D01*
X5535117Y867206D01*
X5535117Y798271D01*
X5466130Y798271D01*
X5466130Y660298D01*
X5397195Y660298D01*
X5397195Y729284D01*
X5328208Y729284D01*
X5328208Y798271D01*
X5397195Y798271D01*
X5397195Y867206D01*
X5259273Y867206D01*
X5259273Y936193D01*
X5328208Y936193D01*
X5328208Y1005128D01*
X5259273Y1005128D01*
X5259273Y1074115D01*
X5328208Y1074115D01*
X5328208Y1143101D01*
X5190286Y1143101D01*
X5190286Y936193D01*
X5121351Y936193D01*
X5121351Y1005128D01*
X5052364Y1005128D01*
X5052364Y1074115D01*
X5121351Y1074115D01*
X5121351Y1143101D01*
G37*
G36*
X4362704Y1143101D02*
G01*
X4362704Y1070152D01*
X4772558Y1070152D01*
X4772558Y733247D01*
X4435602Y733247D01*
X4435602Y1070152D01*
X4362704Y1070152D01*
X4362704Y660298D01*
X4845456Y660298D01*
X4845456Y1143101D01*
G37*
G36*
X6017869Y1005128D02*
G01*
X6017869Y798271D01*
X6224778Y798271D01*
X6224778Y1005128D01*
G37*
G36*
X4500626Y1005128D02*
G01*
X4500626Y798271D01*
X4707534Y798271D01*
X4707534Y1005128D01*
G37*
G36*
X4914442Y936193D02*
G01*
X4914442Y867206D01*
X4983378Y867206D01*
X4983378Y798271D01*
X4914442Y798271D01*
X4914442Y591362D01*
X4845456Y591362D01*
X4845456Y453440D01*
X4914442Y453440D01*
X4914442Y591362D01*
X4983378Y591362D01*
X4983378Y798271D01*
X5052364Y798271D01*
X5052364Y867206D01*
X4983378Y867206D01*
X4983378Y936193D01*
G37*
G36*
X5742025Y867206D02*
G01*
X5742025Y798271D01*
X5810961Y798271D01*
X5810961Y867206D01*
G37*
G36*
X4638548Y591362D02*
G01*
X4638548Y453440D01*
X4776520Y453440D01*
X4776520Y522376D01*
X4707534Y522376D01*
X4707534Y591362D01*
G37*
G36*
X5259273Y108610D02*
G01*
X5259273Y39624D01*
X5328208Y39624D01*
X5328208Y108610D01*
G37*
G36*
X5052364Y108610D02*
G01*
X5052364Y39624D01*
X5121351Y39624D01*
X5121351Y108610D01*
G37*
G36*
X4638548Y-29311D02*
G01*
X4638548Y-98298D01*
X4707534Y-98298D01*
X4707534Y-29311D01*
G37*
G36*
X5259273Y-98298D02*
G01*
X5259273Y-167284D01*
X5328208Y-167284D01*
X5328208Y-98298D01*
G37*
G36*
X5535117Y-305206D02*
G01*
X5535117Y-512114D01*
X5604103Y-512114D01*
X5604103Y-581050D01*
X5673039Y-581050D01*
X5673039Y-512114D01*
X5604103Y-512114D01*
X5604103Y-305206D01*
G37*
G36*
X5879947Y-374142D02*
G01*
X5879947Y-447090D01*
X6289802Y-447090D01*
X6289802Y-783996D01*
X5952845Y-783996D01*
X5952845Y-447090D01*
X5879947Y-447090D01*
X5879947Y-856894D01*
X6362700Y-856894D01*
X6362700Y-374142D01*
G37*
G36*
X4776520Y-374142D02*
G01*
X4776520Y-443128D01*
X4845456Y-443128D01*
X4845456Y-374142D01*
G37*
G36*
X5121351Y-443128D02*
G01*
X5121351Y-512114D01*
X5190286Y-512114D01*
X5190286Y-443128D01*
G37*
G36*
X6017869Y-512114D02*
G01*
X6017869Y-718972D01*
X6224778Y-718972D01*
X6224778Y-512114D01*
G37*
G36*
X5742025Y-787958D02*
G01*
X5742025Y-856894D01*
X5810961Y-856894D01*
X5810961Y-787958D01*
G37*
G36*
X5052364Y-787958D02*
G01*
X5052364Y-856894D01*
X5121351Y-856894D01*
X5121351Y-787958D01*
G37*
M02*
