<?xml version="1.0" encoding="UTF-8" standalone="no"?>
<svg
   class="img-fluid"
   id="outputsvg"
   width="386.00299"
   height="120.3839"
   viewBox="0 0 3860.0299 1203.839"
   version="1.1"
   sodipodi:docname="alva.svg"
   inkscape:version="1.2.2 (b0a8486541, 2022-12-01)"
   xmlns:inkscape="http://www.inkscape.org/namespaces/inkscape"
   xmlns:sodipodi="http://sodipodi.sourceforge.net/DTD/sodipodi-0.dtd"
   xmlns="http://www.w3.org/2000/svg"
   xmlns:svg="http://www.w3.org/2000/svg">
  <defs
     id="defs40" />
  <sodipodi:namedview
     id="namedview38"
     pagecolor="#ffffff"
     bordercolor="#000000"
     borderopacity="0.25"
     inkscape:showpageshadow="2"
     inkscape:pageopacity="0.0"
     inkscape:pagecheckerboard="0"
     inkscape:deskcolor="#d1d1d1"
     showgrid="false"
     inkscape:zoom="2.3855742"
     inkscape:cx="163.27306"
     inkscape:cy="74.615159"
     inkscape:window-width="1890"
     inkscape:window-height="991"
     inkscape:window-x="1095"
     inkscape:window-y="882"
     inkscape:window-maximized="0"
     inkscape:current-layer="g34" />
  <g
     id="l15Qw9yNuS5JCdAqX1SoWG2"
     fill="#ff533d"
     transform="translate(-1.1187321,59.957732)">
    <g
       id="g34">
      <path
         id="path2656"
         style="fill:#000000;fill-opacity:1;stroke:none;stroke-width:80;stroke-linecap:square;stroke-dasharray:none;stroke-opacity:1;stop-color:#000000"
         d="m 2055.1575,358.50115 -411.7781,428.67551 95.5671,-0.0427 82.6172,-90 303.9009,-0.46405 17.311,90.46405 h 76.1123 l -87.6367,-427.83203 z m 19.718,78.32333 35.6943,182.27125 -215.0022,-1.96177 z"
         sodipodi:nodetypes="ccccccccccccc" />
      <path
         id="pg8Ik9WPK"
         d="m 2367.3707,785.32524 155.1891,-423.19128 94.2411,0.99728 -128.1067,349.60591 318.8656,3.39681 -22,71 z"
         sodipodi:nodetypes="ccccccc"
         style="fill:#000000;fill-opacity:1" />
      <path
         id="pVEGVCjuf"
         d="m 2898.0064,358.65775 96.8658,-0.1566 59.8381,308.78099 307.4295,-311.14818 h 122.3799 l -415.9024,432 -86.0575,-1 z"
         sodipodi:nodetypes="cccccccc"
         style="fill:#000000;fill-opacity:1" />
      <path
         style="fill:none;fill-opacity:1;stroke:#000000;stroke-width:80;stroke-linecap:square;stroke-dasharray:none;stop-color:#000000"
         d="M 55,1090 C 341.95588,533.28717 750.36969,329.74785 869.49052,282.83568 988.61135,235.92351 1152.5002,242.78646 1200.1122,286.9061 1306.1667,385.18168 1247.2912,579.16081 1034,1090"
         id="path1111"
         sodipodi:nodetypes="czsc" />
      <path
         style="fill:none;fill-opacity:1;stroke:#000000;stroke-width:80;stroke-linecap:square;stroke-dasharray:none;stop-color:#000000"
         d="M 1649.4412,-6.0764634 C 1362.4853,550.63637 954.07144,754.17569 834.95064,801.08786 c -119.1209,46.91217 -283.0097,40.04922 -330.6217,-4.07042 -106.0545,-98.27558 -47.179,-292.25471 166.1122,-803.0939034"
         id="path1841"
         sodipodi:nodetypes="czsc" />
      <text
         xml:space="preserve"
         style="font-style:normal;font-variant:normal;font-weight:normal;font-stretch:normal;font-size:240px;font-family:'bank gothic';-inkscape-font-specification:'bank gothic';font-variant-ligatures:no-contextual;fill:#000000;fill-opacity:1;stroke-width:80;stroke-linecap:square;stop-color:#000000"
         x="1833.6257"
         y="940.40442"
         id="text4220"><tspan
           sodipodi:role="line"
           id="tspan4218"
           style="font-style:normal;font-variant:normal;font-weight:normal;font-stretch:normal;font-family:Cantarell;-inkscape-font-specification:Cantarell;stroke-width:80"
           x="1833.6257"
           y="940.40442" /></text>
      <path
         id="path407"
         style="fill:#000000;fill-opacity:1;stroke:none;stroke-width:80;stroke-linecap:square;stroke-dasharray:none;stroke-opacity:1;stop-color:#000000"
         d="m 3704.9779,359.45847 -411.778,428.67549 95.5671,-0.043 82.6172,-90 303.9008,-0.464 17.311,90.464 h 76.1123 l -87.6367,-427.83201 z m 19.718,78.32333 35.6943,182.27125 -215.0021,-1.96177 z"
         sodipodi:nodetypes="ccccccccccccc" />
    </g>
  </g>
</svg>
