<?xml version="1.0" standalone="no"?>
<!DOCTYPE svg PUBLIC "-//W3C//DTD SVG 1.1//EN" "http://www.w3.org/Graphics/SVG/1.1/DTD/svg11.dtd" >
<svg xmlns="http://www.w3.org/2000/svg" xmlns:xlink="http://www.w3.org/1999/xlink" version="1.1" viewBox="-10 0 1044 1024">
   <path fill="currentColor"
d="M4 864v-5q4 0 7.5 -2t5.5 -5t6 -11t9 -21l47 -116h4l56 134q3 7 5.5 11t3.5 6q2 1 4.5 2t6.5 2v5h-57v-5q5 0 8.5 -1t4.5 -1q2 -1 2.5 -2.5t0.5 -4.5q0 -1 -0.5 -2.5t-0.5 -3.5q-1 -2 -1.5 -4.5t-1.5 -4.5l-9 -23h-59q-5 12 -7.5 19t-3.5 9q-1 3 -1.5 5t-0.5 3q0 3 1 5.5
t4 3.5q1 0 3.5 0.5t6.5 1.5v4h-44v1zM101 803l-26 -65l-26 65h52zM246 736q5 2 8 3t4 1t2.5 -0.5t2.5 -1.5l2 -2t1 -3h4l1 44h-4q-2 -7 -4.5 -12l-4.5 -9q-6 -8 -13.5 -11.5t-17.5 -3.5t-17.5 4t-13.5 12q-7 8 -10 19t-3 25q0 13 3.5 23.5t9.5 18.5q7 7 15 11t18 4
q7 0 13.5 -2t12.5 -5q4 -2 7.5 -5t7.5 -8l4 4q-3 4 -7 7.5t-8 6.5q-8 5 -16.5 8t-17.5 3q-15 0 -26.5 -5t-20.5 -15q-8 -10 -12 -21t-4 -25t4.5 -26t12.5 -22q9 -10 20.5 -15t26.5 -5q5 0 10 1l10 2v0zM279 864v-4q3 0 5.5 -1.5t4.5 -3.5q2 -3 5 -9.5t7 -17.5l39 -94h3
l46 109l4.5 9t3.5 5q1 1 3.5 2t5.5 1v4h-47v-4q4 0 7 -0.5t4 -1.5q1 0 1.5 -1.5t0.5 -3.5q0 -1 -0.5 -2t-0.5 -3q-1 -1 -1.5 -3t-0.5 -4l-8 -19h-48q-4 10 -6 15.5t-3 7.5t-1 4v3q0 2 1 4t2 3q2 0 4 0.5t5 0.5v4h-36v0zM358 814l-21 -53l-21 53h42v0zM412 860q5 0 8.5 -1
t4.5 -3q2 -1 2.5 -4.5t0.5 -8.5v-86q0 -6 -0.5 -9t-2.5 -5q-1 -2 -4.5 -2.5t-8.5 -1.5v-3h50q12 0 22.5 2t19.5 6q16 8 23.5 22t7.5 34q0 7 -1 14t-4 13q-3 7 -7 12.5t-10 9.5q-4 3 -7.5 5t-7.5 4q-7 3 -15.5 4.5t-18.5 1.5h-52v-4v0zM449 855q1 1 3.5 1h5.5q11 0 20 -2
t16 -7q11 -7 16 -18.5t5 -28.5q0 -15 -4 -26t-13 -18q-8 -7 -18 -10t-22 -3q-3 0 -5 0.5t-3 0.5q-2 1 -2.5 2.5t-0.5 4.5v98q0 2 0.5 3.5t1.5 2.5v0zM544 860q5 0 8.5 -1t4.5 -3q2 -1 2.5 -4.5t0.5 -8.5v-86q0 -5 -0.5 -8.5t-2.5 -5.5q-1 -1 -4.5 -2t-8.5 -1v-4h98v28h-4
l-3.5 -10.5t-3.5 -6.5q-3 -1 -8 -2t-13 -1h-25h-3.5t-1.5 1q-1 1 -1 2v3v43h28q6 0 9.5 -0.5t5.5 -2.5t3 -6t2 -9h5v45h-5q-1 -6 -2 -9.5t-3 -5.5q-1 -2 -5 -3t-10 -1h-28v47q0 3 1 5t2 2q2 1 7 1h14t16 -1t12 -3q4 -2 8 -7.5t8 -13.5h5l-8 33h-100v-4v0zM625 704
q0 1 -1.5 2t-2.5 2l-28 19h-8l27 -29q1 -1 2 -1.5t2 -1.5t2 -1.5t2 -0.5t2 0.5t2 1.5t1.5 2t0.5 2q1 2 0.5 3t-1.5 2v0zM657 860q5 0 8.5 -1.5t5.5 -3.5t2.5 -7t0.5 -13v-79q0 -5 -0.5 -8.5t-2.5 -4.5q-1 -2 -4.5 -3t-9.5 -1v-4h36l42 97l42 -97h36v4q-5 0 -8 1t-5 3
q-2 1 -2.5 4.5t-0.5 8.5v86q0 5 0.5 8.5t2.5 4.5q2 2 5 3t8 1v3h-51v-3q6 0 9 -1.5l5 -2.5q1 -2 1.5 -5.5t0.5 -10.5v-86l-46 111h-3l-46 -106v77q0 8 1 13t3 8q2 1 5 2t8 2v3h-43v-3v0zM821 860q6 0 9.5 -1t5.5 -2q1 -2 2 -5.5t1 -8.5v-86q0 -5 -0.5 -8.5t-2.5 -5.5
q-2 -1 -5.5 -2t-9.5 -1v-4h55v4q-6 0 -9.5 1t-5.5 2q-1 2 -2 5.5t-1 8.5v86q0 6 1 9t2 5q2 1 5.5 2t9.5 1v4h-55v-4zM882 860q5 0 8 -1t5 -3q1 -1 2 -4.5t1 -8.5v-86q0 -5 -1 -8.5t-2 -5.5q-2 -1 -5 -2t-9 -1v-4h98l1 28h-5q-1 -6 -2.5 -10.5t-4.5 -6.5q-2 -1 -7.5 -2
t-13.5 -1h-25h-3t-2 1q0 1 -0.5 2t-0.5 3v43h29q5 0 9 -0.5t6 -2.5q1 -2 2.5 -6t2.5 -9h4v45h-4q-1 -6 -2.5 -9.5t-2.5 -5.5q-2 -2 -5.5 -3t-9.5 -1h-29v47q0 3 1 5t3 2q2 1 7 1h13q10 0 17 -1t11 -3q5 -2 9 -7.5t7 -13.5h5l-8 33h-99v-4v0zM10 988q3 5 5 9.5t5 7.5
q4 6 10 8.5t12 2.5q4 0 7 -1t6 -4q3 -2 4.5 -5.5t1.5 -7.5t-1.5 -7.5t-4.5 -6.5q-2 -1 -5.5 -4t-9.5 -7l-13 -8q-3 -2 -5 -4l-4 -4q-3 -4 -4.5 -8t-1.5 -9q0 -6 1.5 -11t5.5 -9t9 -6t11 -2q3 0 6 0.5t7 1.5q4 2 6 2.5l2 0.5q2 0 3 -0.5l1 -0.5q1 -1 1 -2t1 -2h3l4 34h-4
q-2 -8 -5 -13.5t-7 -8.5t-8.5 -4.5t-8.5 -1.5q-3 0 -5.5 1t-5.5 3q-2 2 -3 4.5t-1 6.5q0 3 0.5 5.5t2.5 4.5l4.5 4.5t6.5 4.5l13 9q7 4 11.5 7.5t6.5 7.5q3 3 4 7.5t1 9.5q0 6 -2 11t-7 10q-4 4 -10 6t-13 2q-4 0 -7.5 -0.5t-7.5 -2.5l-6 -1.5t-3 -0.5t-2 0.5l-1 0.5
q-1 1 -1 2t-1 2h-3l-5 -34h4v0zM89 914h86l1 27h-4q-1 -6 -3 -10.5t-4 -6.5t-6.5 -3t-10.5 -1h-9v83q0 4 1 7t2 4t4 1.5t8 1.5v3h-45v-3q5 -1 8 -1.5t4 -1.5q2 -2 2.5 -5t0.5 -9v-80h-9q-6 0 -10.5 1t-6.5 3t-4 6.5t-3 10.5h-4l2 -27v0zM181 1017q4 -1 7 -1.5t4 -1.5t1.5 -4
t0.5 -7v-72q0 -4 -0.5 -7t-1.5 -4t-4 -2t-7 -1v-3h81l1 23h-4q-1 -6 -2 -9.5t-3 -4.5q-3 -2 -7 -2.5t-11 -0.5h-21h-3t-1 1q-1 0 -1 1v3v36h24q5 0 8 -1t4 -2q2 -2 3 -5t2 -8h3v37h-3q-1 -4 -2 -7.5t-3 -4.5q-1 -2 -4 -2.5t-8 -0.5h-24v40q0 2 0.5 3.5t2.5 1.5q1 1 5.5 1
h11.5q8 0 13.5 -0.5t9.5 -2.5q3 -2 6.5 -6.5t6.5 -10.5h4l-7 27h-82v-3v0zM283 965h38v10h-38v-10zM327 914h86l1 27h-4q-1 -6 -2.5 -10.5t-3.5 -6.5q-3 -2 -7 -3t-11 -1h-9v83q0 4 1 7t2 4t4.5 1.5t7.5 1.5v3h-44v-3q4 -1 7.5 -1.5t4.5 -1.5q1 -2 1.5 -5t0.5 -9v-80h-9
q-6 0 -10 1t-7 3q-2 2 -4 6.5t-3 10.5h-3l1 -27v0zM420 1017q4 -1 7 -1.5t4 -1.5q1 -2 1.5 -5t0.5 -8v-70q0 -4 -0.5 -7t-1.5 -4t-4 -2t-7 -1v-3h43v3q-5 0 -7.5 1t-3.5 2q-2 1 -2.5 4t-0.5 7v31h47v-31q0 -4 -1 -7t-2 -4t-3.5 -2t-7.5 -1v-3h43v3q-4 0 -7 1t-4 2
q-2 1 -2.5 4t-0.5 7v72q0 4 0.5 7t2.5 4q1 1 3.5 2t7.5 1v3h-43v-3l7.5 -1.5t3.5 -1.5q1 -2 2 -5t1 -8v-31h-47v33q0 4 0.5 7t2.5 4q1 1 3.5 2t7.5 1v3h-43v-3v0zM530 1017q4 -1 6.5 -1.5t3.5 -1.5q2 -1 2.5 -4t0.5 -7v-72q0 -4 -0.5 -7t-2.5 -4q-1 -1 -3.5 -2t-6.5 -1v-3
h81l1 23h-4q-1 -6 -2.5 -9.5t-3.5 -4.5q-2 -2 -6.5 -2.5t-11.5 -0.5h-21h-2t-2 1v1v3v36h23q5 0 8 -1t5 -2q1 -2 2 -5t2 -8h4v37h-4q-1 -4 -2 -7.5t-2 -4.5q-2 -2 -5 -2.5t-8 -0.5h-23v40q0 2 0.5 3.5t1.5 1.5q2 1 6 1h12q7 0 13 -0.5t10 -2.5q3 -2 6.5 -6.5t6.5 -10.5h4
l-7 27h-82v-3v0zM597 887q0 1 -1 2t-2 1l-24 16h-6l22 -24q1 0 2 -1l2 -2l1 -0.5t2 -0.5t2 0.5t2 0.5q1 1 1.5 2t0.5 2t-0.5 2t-1.5 2v0zM623 1017l7.5 -1.5t3.5 -1.5q1 -2 1.5 -5t0.5 -8v-70q0 -4 -0.5 -7t-1.5 -4t-4 -2t-7 -1v-3h42q7 0 12.5 0.5t9.5 2.5q9 3 13 9.5
t4 14.5q0 6 -1.5 11t-5.5 8t-9 5.5t-12 3.5l32 40q2 2 3 3.5t3 2.5q1 1 3 1.5t4 0.5v3h-24l-39 -49h-7v32q0 4 1 7t2 4t4 2t7 1v3h-42v-3v0zM675 961q7 -2 9.5 -7t2.5 -12t-2.5 -12t-8.5 -7q-2 -1 -6 -2t-9 -1q-3 0 -5 0.5t-3 0.5q-1 1 -1 2v3v39q8 0 14 -1t9 -3v0z
M725 1017q4 -1 7 -1.5t4 -1.5t2 -4t1 -7v-72q0 -4 -1 -7t-2 -4t-3.5 -2t-7.5 -1v-3h82v23h-4q-1 -6 -2 -9.5t-3 -4.5q-2 -2 -6.5 -2.5t-11.5 -0.5h-21h-3t-1 1l-0.5 1t-0.5 3v36h24q5 0 8 -1t4 -2q2 -2 3 -5t2 -8h3v37h-3q-1 -4 -2 -7.5t-3 -4.5q-1 -2 -4 -2.5t-8 -0.5h-24
v40q0 2 1 3.5t2 1.5q2 1 6 1h11q8 0 14 -0.5t9 -2.5q4 -2 7.5 -6.5t6.5 -10.5h4l-7 27h-83v-3v0zM782 906h-6l-23 -16q-2 0 -2.5 -1t-1.5 -2q0 -1 -0.5 -1.5t-0.5 -1.5t0.5 -2t1.5 -2t2 -1h1h2t2 1q1 0 1.5 1t1.5 1l22 24v0zM827 988q2 5 4 9.5t5 7.5q5 6 10.5 8.5t12.5 2.5
q3 0 6.5 -1t5.5 -4q3 -2 4.5 -5.5t1.5 -7.5t-1.5 -7.5t-4.5 -6.5q-1 -1 -5 -4t-9 -7l-13 -8q-3 -2 -5.5 -4t-4.5 -4q-3 -4 -4.5 -8t-1.5 -9q0 -6 1.5 -11t5.5 -9t9 -6t12 -2q2 0 5 0.5t7 1.5q4 2 6 2.5t3 0.5t2 -0.5t2 -0.5q0 -1 0.5 -2t0.5 -2h3l4 34h-4q-2 -8 -5 -13.5
t-7 -8.5t-8 -4.5t-8 -1.5q-3 0 -6 1t-5 3q-3 2 -4 4.5t-1 6.5q0 3 0.5 5.5t2.5 4.5t5 4.5t6 4.5l14 9q6 4 10.5 7.5t6.5 7.5q3 3 4.5 7.5t1.5 9.5q0 6 -2.5 11t-6.5 10q-5 4 -10.5 6t-13.5 2q-3 0 -7 -0.5t-7 -2.5q-4 -1 -6.5 -1.5l-2.5 -0.5q-2 0 -3 0.5l-1 0.5q-1 1 -1 2
v2h-4l-4 -34h4v0zM904 1017q4 -1 7 -1.5t4 -1.5t1.5 -4t0.5 -7v-72q0 -4 -0.5 -7t-1.5 -4t-4 -2t-7 -1v-3h81l1 23h-4q-1 -6 -2.5 -9.5t-3.5 -4.5q-2 -2 -6 -2.5t-11 -0.5h-21h-3t-1 1q-1 0 -1 1v3v36h24q4 0 7.5 -1t4.5 -2q1 -2 2 -5t2 -8h4v37h-4q0 -4 -1.5 -7.5
t-2.5 -4.5q-1 -2 -4.5 -2.5t-7.5 -0.5h-24v40q0 2 0.5 3.5t2.5 1.5q1 1 5.5 1h11.5t13 -0.5t10 -2.5q3 -2 6.5 -6.5t6.5 -10.5h4l-7 27h-82v-3v0zM841 523l-261 -355l29 150h34v61l78 108q-31 -12 -67 -15.5t-75 -1.5v-48h27v-59h22v-30h-54v-17h19l-53 -276l-53 276h19v17
h-54v30h22v60h26v59q-7 1 -14 2.5t-14 3.5v-26h-59v-31h-111v33h-91v118q-12 6 -21.5 10.5t-16.5 7.5l23 -38v-114h69l191 -313l40 53l20 -107l-60 -81l-396 640l-60 98l39 -24q39 -23 110 -51.5t169 -54.5t217 -32q118 -6 209 23q91 30 153.5 68t94.5 70l32 32l-183 -246v0
z" />
</svg>
