<?xml version="1.0" encoding="UTF-8" standalone="no"?>
<svg
   viewBox="0 0 70.138907 59.112123"
   width="70.138908"
   height="59.112122"
   version="1.1"
   id="svg548"
   sodipodi:docname="7605(2024)_Porte-Cles_Grand - Sketch 2.svg"
   inkscape:version="1.2.2 (b0a8486541, 2022-12-01)"
   xmlns:inkscape="http://www.inkscape.org/namespaces/inkscape"
   xmlns:sodipodi="http://sodipodi.sourceforge.net/DTD/sodipodi-0.dtd"
   xmlns="http://www.w3.org/2000/svg"
   xmlns:svg="http://www.w3.org/2000/svg">
  <sodipodi:namedview
     id="namedview550"
     pagecolor="#ffffff"
     bordercolor="#000000"
     borderopacity="0.25"
     inkscape:showpageshadow="2"
     inkscape:pageopacity="0.0"
     inkscape:pagecheckerboard="0"
     inkscape:deskcolor="#d1d1d1"
     showgrid="false"
     inkscape:zoom="5.6568543"
     inkscape:cx="-4.8613591"
     inkscape:cy="19.26866"
     inkscape:window-width="1920"
     inkscape:window-height="1011"
     inkscape:window-x="1080"
     inkscape:window-y="872"
     inkscape:window-maximized="1"
     inkscape:current-layer="g530" />
  <desc
     id="desc196">7605(2024)_Porte-Cles_Grand - Sketch 2.dxf - scale = 1.000000, origin = (0.000000, 0.000000), method = manual</desc>
  <defs
     id="defs210">
    <marker
       id="DistanceX"
       orient="auto"
       refX="0"
       refY="0"
       style="overflow:visible">
      <path
         d="M 3,-3 -3,3 M 0,-5 V 5"
         style="stroke:#000000;stroke-width:0.5"
         id="path198" />
    </marker>
    <pattern
       id="Hatch"
       patternUnits="userSpaceOnUse"
       width="8"
       height="8"
       x="0"
       y="0">
      <path
         d="M8 4 l-4,4"
         stroke="#000000"
         stroke-width="0.25"
         linecap="square"
         id="path201" />
      <path
         d="M6 2 l-4,4"
         stroke="#000000"
         stroke-width="0.25"
         linecap="square"
         id="path203" />
      <path
         d="M4 0 l-4,4"
         stroke="#000000"
         stroke-width="0.25"
         linecap="square"
         id="path205" />
    </pattern>
    <symbol
       id="*MODEL_SPACE" />
    <symbol
       id="*PAPER_SPACE" />
  </defs>
  <g
     inkscape:groupmode="layer"
     inkscape:label="0"
     id="g212"
     transform="translate(35.075494,-1079.7474)" />
  <g
     inkscape:groupmode="layer"
     inkscape:label="SECTION_CUTTING_LINE"
     id="g214"
     transform="translate(35.075494,-1079.7474)" />
  <g
     inkscape:groupmode="layer"
     inkscape:label="DETAIL_VIEW_BORDER"
     id="g216"
     transform="translate(35.075494,-1079.7474)" />
  <g
     inkscape:groupmode="layer"
     inkscape:label="DETAIL_VIEW_PARENT_BORDER"
     id="g218"
     transform="translate(35.075494,-1079.7474)" />
  <g
     inkscape:groupmode="layer"
     inkscape:label="TEXT"
     id="g220"
     transform="translate(35.075494,-1079.7474)" />
  <g
     inkscape:groupmode="layer"
     inkscape:label="SKETCHED_GEOMETRY"
     id="g222"
     transform="translate(35.075494,-1079.7474)" />
  <g
     inkscape:groupmode="layer"
     inkscape:label="VIRTUAL_SHARPS"
     id="g224"
     transform="translate(35.075494,-1079.7474)" />
  <g
     inkscape:groupmode="layer"
     inkscape:label="CENTERLINES"
     id="g226"
     transform="translate(35.075494,-1079.7474)" />
  <g
     inkscape:groupmode="layer"
     inkscape:label="CENTERMARKS"
     id="g228"
     transform="translate(35.075494,-1079.7474)" />
  <g
     inkscape:groupmode="layer"
     inkscape:label="TABLES"
     id="g230"
     transform="translate(35.075494,-1079.7474)" />
  <g
     inkscape:groupmode="layer"
     inkscape:label="IMAGES"
     id="g232"
     transform="translate(35.075494,-1079.7474)" />
  <g
     inkscape:groupmode="layer"
     inkscape:label="ANNOTATION_LINES"
     id="g234"
     transform="translate(35.075494,-1079.7474)" />
  <g
     inkscape:groupmode="layer"
     inkscape:label="ANNOTATION_TEXT"
     id="g236"
     transform="translate(35.075494,-1079.7474)" />
  <g
     inkscape:groupmode="layer"
     inkscape:label="SIDE_THREAD_SYMBOLS"
     id="g238"
     transform="translate(35.075494,-1079.7474)" />
  <g
     inkscape:groupmode="layer"
     inkscape:label="SIDE_THREAD_SYMBOLS_HIDDEN"
     id="g240"
     transform="translate(35.075494,-1079.7474)" />
  <g
     inkscape:groupmode="layer"
     inkscape:label="SURFACE_THREAD_SYMBOLS"
     id="g242"
     transform="translate(35.075494,-1079.7474)" />
  <g
     inkscape:groupmode="layer"
     inkscape:label="SURFACE_THREAD_SYMBOLS_ON_"
     id="g244"
     transform="translate(35.075494,-1079.7474)" />
  <g
     inkscape:groupmode="layer"
     inkscape:label="SURFACE_THREAD_SYMBOLS_HID"
     id="g246"
     transform="translate(35.075494,-1079.7474)" />
  <g
     inkscape:groupmode="layer"
     inkscape:label="BLIND_THREAD_SYMBOLS"
     id="g248"
     transform="translate(35.075494,-1079.7474)" />
  <g
     inkscape:groupmode="layer"
     inkscape:label="BLIND_THREAD_SYMBOLS_HIDDE"
     id="g250"
     transform="translate(35.075494,-1079.7474)" />
  <g
     inkscape:groupmode="layer"
     inkscape:label="EXPLODE_LINES"
     id="g252"
     transform="translate(35.075494,-1079.7474)" />
  <g
     inkscape:groupmode="layer"
     inkscape:label="HIDDEN_EXPLODE_LINES"
     id="g254"
     transform="translate(35.075494,-1079.7474)" />
  <g
     inkscape:groupmode="layer"
     inkscape:label="BREAK_LINES"
     id="g256"
     transform="translate(35.075494,-1079.7474)" />
  <g
     inkscape:groupmode="layer"
     inkscape:label="SHEETMETAL_BEND_LINES_UP"
     id="g258"
     transform="translate(35.075494,-1079.7474)" />
  <g
     inkscape:groupmode="layer"
     inkscape:label="SHEETMETAL_BEND_LINES_DOWN"
     id="g260"
     transform="translate(35.075494,-1079.7474)" />
  <g
     inkscape:groupmode="layer"
     inkscape:label="SHEETMETAL_BEND_TANGENT_LI"
     id="g262"
     transform="translate(35.075494,-1079.7474)" />
  <g
     inkscape:groupmode="layer"
     inkscape:label="SHEETMETAL_CUT_LINES"
     id="g264"
     transform="translate(35.075494,-1079.7474)" />
  <g
     inkscape:groupmode="layer"
     inkscape:label="REGION_ASSOC_POINTS"
     id="g266"
     transform="translate(35.075494,-1079.7474)" />
  <g
     inkscape:groupmode="layer"
     inkscape:label="PATTERN_CENTERLINES"
     id="g268"
     transform="translate(35.075494,-1079.7474)" />
  <g
     inkscape:groupmode="layer"
     inkscape:label="HIDDEN"
     id="g270"
     transform="translate(35.075494,-1079.7474)" />
  <g
     inkscape:groupmode="layer"
     inkscape:label="VISIBLE"
     id="g272"
     transform="translate(35.075494,-1079.7474)" />
  <g
     inkscape:groupmode="layer"
     inkscape:label="MODELSKETCH_VISIBLE"
     id="g530"
     transform="translate(35.075494,-1079.7474)"
     style="display:inline">
    <path
       id="path528"
       style="display:inline;fill:#000000;fill-opacity:1;stroke:#000000;stroke-linejoin:miter;stroke-opacity:1"
       d="M 0.000677875 1080.2474 C -1.0362969 1080.2474 -1.9779191 1080.8529 -2.4075252 1081.7982 L -18.49151 1117.1322 C -20.318259 1121.1474 -14.298729 1123.8877 -12.471978 1119.8724 L -1.3762752 1095.4974 C -1.1307887 1094.9558 -0.5918824 1094.6107 0.000677875 1094.6107 C 0.59323816 1094.6107 1.1301912 1094.9558 1.3756779 1095.4974 L 12.473334 1119.8724 C 14.300084 1123.8877 20.319616 1121.1474 18.492865 1117.1322 L 2.408881 1081.7982 C 1.9792747 1080.8529 1.0376526 1080.2474 0.000677875 1080.2474 z M -20.577447 1080.4857 C -26.470367 1080.4157 -27.568454 1086.6438 -22.530572 1096.1947 C -38.272366 1099.898 -39.349866 1109.091 -21.208306 1113.7923 L -20.221978 1111.6283 L -22.964166 1110.8509 L -25.411431 1109.9818 L -27.67901 1108.9603 L -29.518853 1107.888 L -30.874322 1106.8255 L -31.725885 1105.8587 L -32.128228 1105.0794 L -32.221978 1104.4857 L -32.095025 1103.8978 L -31.64776 1103.1419 L -30.74151 1102.2279 L -29.327447 1101.2435 L -27.430963 1100.2767 L -25.108697 1099.388 L -21.727838 1098.4427 L -21.309869 1098.3626 C -20.13215 1100.3469 -18.723502 1102.4452 -17.046197 1104.6497 L -15.938775 1102.2181 L -18.325494 1098.722 L -18.813775 1097.8861 L -17.86065 1097.7044 L -13.659478 1097.2103 L -12.552056 1094.7786 C -15.315642 1094.9615 -17.82358 1095.2779 -20.093072 1095.6927 L -20.307916 1095.3236 L -21.815728 1092.1536 L -22.671197 1089.8177 L -23.188775 1087.7513 L -23.374322 1086.0404 L -23.278619 1084.7552 L -23.003228 1083.9232 L -22.643853 1083.4408 L -22.134088 1083.1204 L -21.280572 1082.9115 L -19.993463 1082.9212 L -18.302056 1083.2454 L -16.284478 1083.9271 L -14.024713 1084.9681 L -11.762994 1086.2415 L -9.3762752 1087.8001 L -8.3899471 1085.6322 C -13.526816 1082.1136 -17.64527 1080.5205 -20.577447 1080.4857 z M 20.57685 1080.4857 C 17.644673 1080.5207 13.528172 1082.1135 8.3913029 1085.6322 L 9.377631 1087.8021 L 11.762397 1086.2435 L 14.026069 1084.9701 L 16.285834 1083.929 L 18.303412 1083.2474 L 19.994819 1082.9251 L 21.281928 1082.9134 L 22.13349 1083.1224 L 22.643256 1083.4427 L 23.004584 1083.9251 L 23.279975 1084.7572 L 23.375678 1086.0423 L 23.188178 1087.7533 L 22.6706 1089.8197 L 21.815131 1092.1556 L 20.307319 1095.3255 L 20.082709 1095.7103 C 17.762327 1095.2765 15.237752 1094.9582 12.551459 1094.7806 L 13.660834 1097.2122 L 17.862006 1097.7064 L 18.813178 1097.888 L 18.324897 1098.724 L 15.938178 1102.2181 L 17.0456 1104.6497 C 18.722258 1102.446 20.129865 1100.3482 21.307319 1098.3646 L 21.72724 1098.4447 L 25.1081 1099.39 L 27.430365 1100.2786 L 29.328803 1101.2454 L 30.742865 1102.2298 L 31.647162 1103.1439 L 32.094428 1103.8997 L 32.221381 1104.4876 L 32.129584 1105.0814 L 31.725287 1105.8626 L 30.873725 1106.8275 L 29.518256 1107.89 L 27.680365 1108.9622 L 25.410834 1109.9837 L 22.963569 1110.8548 L 20.221381 1111.6302 L 21.207709 1113.7923 C 30.962538 1111.2662 36.061815 1106.9512 34.180365 1102.8177 C 32.910964 1100.0289 28.620285 1097.6871 22.51435 1096.2279 C 27.571804 1086.6587 26.476422 1080.4155 20.57685 1080.4857 z M 0.000677875 1103.6224 C -1.8890823 1103.6224 -3.778619 1104.882 -3.778619 1107.4017 C -3.778619 1112.4411 3.7799748 1112.4411 3.7799748 1107.4017 C 3.7799748 1104.882 1.8904381 1103.6224 0.000677875 1103.6224 z M -6.0305721 1114.9466 L -7.1184627 1117.4173 L -7.8274471 1118.9779 C -5.876405 1121.5218 -3.7957722 1123.9074 -1.6731502 1126.0911 L -1.6711971 1126.1068 L -2.1340877 1126.5716 L -5.216119 1129.3138 L -8.2532284 1131.6634 L -11.122369 1133.5345 L -13.3294 1134.7044 L -15.307916 1135.5013 L -16.975885 1135.9251 L -18.247369 1136.0091 L -19.08526 1135.8548 L -19.577447 1135.5814 L -19.932916 1135.1458 L -20.231744 1134.347 L -20.374322 1133.0794 L -20.251275 1131.3646 L -19.813775 1129.2767 L -19.050103 1126.8978 L -18.653619 1125.8704 L -20.786431 1124.8997 C -24.566745 1134.142 -22.684181 1139.5078 -16.134088 1138.1517 C -11.678578 1137.2292 -5.7661305 1133.3364 -0.012994 1127.7806 L 0.000677875 1127.7708 L 0.04559975 1127.7923 C 5.78837 1133.3312 11.686477 1137.2251 16.13349 1138.1458 C 22.683565 1139.502 24.568098 1134.138 20.787787 1124.8958 L 18.653022 1125.8665 L 19.051459 1126.8939 L 19.813178 1129.2728 L 20.250678 1131.3607 L 20.373725 1133.0755 L 20.2331 1134.3431 L 19.934272 1135.1419 L 19.57685 1135.5775 L 19.086615 1135.8509 L 18.248725 1136.0052 L 16.975287 1135.9212 L 15.309272 1135.4974 L 13.328803 1134.7005 L 11.123725 1133.5306 L 8.252631 1131.6595 L 5.2174748 1129.3099 L 2.1334904 1126.5677 L 1.674506 1126.1068 C 3.7975856 1123.9225 5.8773568 1121.5262 7.8288029 1118.9818 L 7.1178654 1117.4232 L 7.0592716 1117.2923 L 6.127631 1115.2025 C 1.4105505 1115.4401 -1.4698239 1115.7567 -6.0305721 1114.9466 z M -5.9094784 1117.5853 C -2.1718547 1118.0646 1.8189714 1118.1307 5.8971623 1117.6009 L 3.8600529 1120.1849 L 0.91278725 1123.5111 L -0.00127525 1124.429 L -0.003228375 1124.429 L -0.91338462 1123.513 L -3.8606502 1120.1869 L -5.9094784 1117.5853 z " />
  </g>
  <g
     inkscape:groupmode="layer"
     inkscape:label="MODELSKETCH_POINT"
     id="g532"
     transform="translate(35.075494,-1079.7474)" />
  <g
     inkscape:groupmode="layer"
     inkscape:label="MODELSKETCH_CONSTRUCTION"
     id="g534"
     transform="translate(35.075494,-1079.7474)" />
  <g
     inkscape:groupmode="layer"
     inkscape:label="HIDDEN_BASE_VIEW"
     id="g536"
     transform="translate(35.075494,-1079.7474)" />
  <g
     inkscape:groupmode="layer"
     inkscape:label="TANGENT_LINES"
     id="g538"
     transform="translate(35.075494,-1079.7474)" />
  <g
     inkscape:groupmode="layer"
     inkscape:label="TANGENT_HIDDEN"
     id="g540"
     transform="translate(35.075494,-1079.7474)" />
  <g
     inkscape:groupmode="layer"
     inkscape:label="INVISIBLE_LINES"
     id="g542"
     transform="translate(35.075494,-1079.7474)" />
  <g
     inkscape:groupmode="layer"
     inkscape:label="VIEW_HATCHES"
     id="g544"
     transform="translate(35.075494,-1079.7474)" />
  <g
     inkscape:groupmode="layer"
     inkscape:label="SECTION_JOG_LINES"
     id="g546"
     transform="translate(35.075494,-1079.7474)" />
</svg>
