<?xml version="1.0" encoding="UTF-8" standalone="no"?>
<svg
   width="261.74609"
   height="337.31445"
   version="1.1"
   id="svg32"
   sodipodi:docname="bell.svg"
   inkscape:version="1.2.2 (b0a8486541, 2022-12-01)"
   xmlns:inkscape="http://www.inkscape.org/namespaces/inkscape"
   xmlns:sodipodi="http://sodipodi.sourceforge.net/DTD/sodipodi-0.dtd"
   xmlns="http://www.w3.org/2000/svg"
   xmlns:svg="http://www.w3.org/2000/svg">
  <defs
     id="defs36">
    <inkscape:path-effect
       effect="offset"
       id="path-effect1721"
       is_visible="true"
       lpeversion="1.2"
       linejoin_type="miter"
       unit="px"
       offset="10"
       miter_limit="4"
       attempt_force_join="false"
       update_on_knot_move="true" />
  </defs>
  <sodipodi:namedview
     id="namedview34"
     pagecolor="#ffffff"
     bordercolor="#000000"
     borderopacity="0.25"
     inkscape:showpageshadow="2"
     inkscape:pageopacity="0.0"
     inkscape:pagecheckerboard="true"
     inkscape:deskcolor="#d1d1d1"
     showgrid="false"
     inkscape:zoom="2"
     inkscape:cx="94.25"
     inkscape:cy="158.5"
     inkscape:window-width="1890"
     inkscape:window-height="991"
     inkscape:window-x="1095"
     inkscape:window-y="882"
     inkscape:window-maximized="0"
     inkscape:current-layer="svg32" />
  <path
     id="path1718"
     style="fill:#000000;fill-opacity:1;fill-rule:evenodd;stroke:none;stroke-width:1px;stroke-linecap:butt;stroke-linejoin:miter"
     d="m 0,0 v 190.87695 l 0.00195,0.0918 c 0.7048527,37.92952 80.718309,107.21431 125.19337,141.61328 l 6.11718,4.73241 6.11719,-4.73241 C 181.92376,298.16836 261.04057,228.8298 261.74415,190.96875 l 0.002,-0.0918 V 0 H 132.26373 129.48248 Z M 9.9999996,10 H 129.48243 132.26368 251.7461 V 190.7832 C 251.15017,222.85164 175.55114,290.45578 131.3125,324.67187 87.073865,290.45578 10.59593,222.85164 9.9999996,190.7832 Z" />
  <path
     d="m 9.9179656,92.800785 v 8.882805 H 251.66407 v -8.882805 z"
     style="fill:#000000;fill-opacity:1;stroke:none;stroke-width:96.9;stroke-miterlimit:4;stroke-dasharray:none"
     id="path4" />
  <g
     style="fill:#000000;fill-opacity:1;fill-rule:evenodd;stroke:none"
     id="g30"
     transform="translate(-1.6152344,3.234375)">
    <g
       style="fill:#000000;fill-opacity:1;stroke-width:1px;stroke-linecap:butt;stroke-linejoin:miter"
       id="g16">
      <path
         d="m 20.56921,119.15549 3.67217,7.60559 45.44335,22.53695 c 5.81694,3.26857 11.00457,4.66659 16.99507,4.80295 h 26.60099 c 4.03251,-0.0884 4.79097,1.82757 0.73891,2.95567 l -93.38711,29.57906 5.08662,5.51946 61.33005,0.36946 c 8.08172,0.40353 15.47907,-1.41716 22.16749,-5.54187 l 19.60369,-13.58416 -0.0224,-21.88382 c 0.0806,-6.08353 -6.58066,-13.46709 -16.23375,-14.99475 z"
         id="path6"
         style="fill:#000000;fill-opacity:1" />
      <path
         d="m 244.29828,119.15549 -3.67217,7.60559 -45.44335,22.53695 c -5.81694,3.26857 -11.00457,4.66659 -16.99507,4.80295 H 151.5867 c -4.03251,-0.0884 -4.79097,1.82757 -0.73891,2.95567 l 93.38711,29.57906 -5.08662,5.51946 -61.33005,0.36946 c -8.08172,0.40353 -15.47907,-1.41716 -22.16749,-5.54187 l -19.60369,-13.58416 0.0224,-21.88382 c -0.0806,-6.08353 6.58066,-13.46709 16.23375,-14.99475 z"
         id="path8"
         style="fill:#000000;fill-opacity:1" />
      <path
         d="m 132.92578,182.43945 -0.002,0.0723 -14.41016,11.81445 c -2.29696,2.08705 -1.21573,3.25289 0.26172,4.31055 l 6.79297,4.96484 c 1.81303,1.42537 1.44689,2.93708 0.13086,3.78711 l -4.3125,3.13477 2.0918,2.61328 c 1.74632,2.26216 2.86188,3.05722 2.87304,8.88281 l 0.39258,65.70313 c -0.1612,14.77156 3.92543,26.30356 5.35547,31.34961 h 0.82617 0.0879 0.82617 c 1.43004,-5.04605 5.51667,-16.57805 5.35547,-31.34961 l 0.39063,-65.70313 c 0.0112,-5.82559 1.12868,-6.62065 2.875,-8.88281 l 2.08984,-2.61328 -4.31055,-3.13477 c -1.31603,-0.85003 -1.68217,-2.36174 0.13086,-3.78711 l 6.79102,-4.96484 c 1.47745,-1.05766 2.55868,-2.2235 0.26172,-4.31055 l -14.3711,-11.7832 -0.0391,-0.10352 -0.0449,0.0352 -0.043,-0.0352 z"
         id="path10"
         style="fill:#000000;fill-opacity:1" />
      <path
         d="m 111.84778,98.12808 21.21214,13.30049 26.77259,-16.25616 -54.11249,-0.60444 z"
         id="path12"
         style="fill:#000000;fill-opacity:1" />
      <path
         d="m 131.31504,109.68267 -10.7111,14.62979 c -2.08997,3.30912 -1.74164,5.57326 1.04499,6.79241 h 21.16095 c 4.48132,-0.1541 3.28226,-3.14839 2.35122,-6.00867 l -11.23359,-16.45852 -1.30624,-0.26124 -0.78373,0.26124 z"
         id="path14"
         style="fill:#000000;fill-opacity:1" />
    </g>
    <path
       d="M 32.75,21.894531 41.50781,32.5625 h 2.43164 v -0.002 l 8.89063,0.103515 -9.41406,9.544915 v 33.95313 h 14.80664 0.9707 1.94531 2.1211 7.66992 c 1.04179,0 3.19031,-0.24763 6.41992,-0.74023 2.43528,-0.38135 4.24713,-0.95289 5.44531,-1.7793 1.90128,-1.30304 3.49009,-3.0676 4.58399,-5.32422 1.08096,-2.26451 1.66601,-4.77503 1.66601,-7.58789 0,-3.44844 -0.80645,-6.32462 -2.33008,-8.62891 -1.56278,-2.26451 -4.06532,-3.86904 -7.37304,-4.80664 2.1617,-0.90586 3.88322,-2.10529 4.99023,-3.63086 1.67982,-2.30429 2.56445,-5.029827 2.56445,-8.255854 0,-3.806022 -1.23721,-7.016979 -3.56836,-9.615234 -2.37006,-2.606207 -5.8476,-3.892578 -10.31445,-3.892578 h -9.7539 -2.1211 -1.94531 -0.9707 -14.29493 v -0.0059 H 32.75 Z m 24.47852,11.001953 h 0.99414 0.9707 1.94531 2.1211 3.71093 c 2.18781,0 3.72521,0.438036 4.59766,1.335938 0.83363,0.889928 1.28906,2.104265 1.28906,3.693359 0,1.708352 -0.45563,2.996799 -1.28906,3.886719 -0.87245,0.92962 -2.44952,1.375 -4.68945,1.375 h -3.61914 -2.1211 -1.94531 -0.9707 -0.99414 z m 0,20.611326 h 0.99414 0.9707 1.94531 2.1211 4.66211 c 2.50029,0 4.28437,0.47796 5.2871,1.44727 0.96382,1.00121 1.48438,2.29559 1.48438,3.88476 0,1.74017 -0.52056,3.10626 -1.52344,4.10743 -0.98963,1.04093 -2.74774,1.55859 -5.20898,1.55859 h -4.70117 -2.1211 -1.94531 -0.9707 -0.99414 z"
       id="path18"
       style="fill:#000000;fill-opacity:1" />
    <path
       d="m 104.86719,21.160156 -5.98633,5.539063 V 75.42188 h 18.47265 18.88672 2.29493 V 63.13867 h -2.29493 -18.88672 -4.74609 V 52.43555 h 7.07227 14.23437 4.6211 V 41.375 h -4.6211 -14.23437 -7.07227 v -8.628906 h 5.41797 17.54297 2.9668 V 21.160156 h -2.9668 -17.54297 z"
       id="path20"
       style="fill:#000000;fill-opacity:1" />
    <path
       d="m 157.04883,20.638672 -6.23828,5.773437 V 74.90039 h 24.85351 10.20313 5.22656 V 61.54297 H 185.86719 164.5 V 20.638672 Z"
       id="path22"
       style="fill:#000000;fill-opacity:1" />
    <path
       d="m 208.14248,20.638672 -6.23828,5.773437 V 74.90039 h 24.85351 10.20313 5.22656 V 61.54297 h -5.22656 -21.36719 V 20.638672 Z"
       id="path24"
       style="fill:#000000;fill-opacity:1" />
  </g>
</svg>
