<?xml version="1.0" encoding="UTF-8" standalone="no"?>
<svg
   width="1729.651"
   height="923.94452"
   version="1.1"
   id="svg16"
   sodipodi:docname="chalifoux_text_vectorised.svg"
   inkscape:version="1.2.2 (b0a8486541, 2022-12-01)"
   xmlns:inkscape="http://www.inkscape.org/namespaces/inkscape"
   xmlns:sodipodi="http://sodipodi.sourceforge.net/DTD/sodipodi-0.dtd"
   xmlns="http://www.w3.org/2000/svg"
   xmlns:svg="http://www.w3.org/2000/svg">
  <defs
     id="defs20" />
  <sodipodi:namedview
     id="namedview18"
     pagecolor="#ffffff"
     bordercolor="#000000"
     borderopacity="0.25"
     inkscape:showpageshadow="2"
     inkscape:pageopacity="0.0"
     inkscape:pagecheckerboard="0"
     inkscape:deskcolor="#d1d1d1"
     showgrid="false"
     inkscape:zoom="0.84570312"
     inkscape:cx="645.02541"
     inkscape:cy="555.75058"
     inkscape:window-width="1890"
     inkscape:window-height="991"
     inkscape:window-x="1095"
     inkscape:window-y="882"
     inkscape:window-maximized="0"
     inkscape:current-layer="svg16" />
  <path
     id="path453"
     style="fill:#cd8206;stroke-width:8;stroke-linecap:square;stop-color:#000000"
     inkscape:label="path453"
     d="m 369.72103,0 2,113 -158,-84 c 0,0 -150.1356,361.44229 -190,585 -34.61723,194.1318 -25.8903303,222.4595 -8.24219,248.25 24.34842,35.5821 72.63441,62.216 115.74642,61.6868 40.90266,-0.5021 130.03311,-63.9023 171.70507,-119.9102 54.11014,-72.7248 28.60688,-120.9415 17.51726,-211.7258 L 269.72103,600 l 13.39258,80.7695 -25.52344,5.8614 -10.74609,-50.0782 -37.12305,8.4473 7,54 -26.19141,5.7871 -4.80859,-35.7871 -37.43555,7.5996 2.43555,36.4004 -99,18 C 45.27655,644.1986 197.39904,184.07837 232.1722,106.99609 L 372.72103,177 378.2865,376.34289 727.72103,379 647.26791,102.31836 Z m 53.68555,72.55273 185.26172,71.90821 53.8125,188.14453 -230.42774,-2.17774 z M 284.04134,730.877 C 285.87683,791.8033 146.2072,877.5767 136.51595,877.8125 126.43271,878.0579 52.07263,832.629 50.12142,828.3574 47.3105,822.2035 49.18001,779.916 49.18001,779.916 Z"
     sodipodi:nodetypes="cccssssccccccccccccccccccccccccsscc" />
  <g
     aria-label="EXCAVATION"
     transform="scale(0.87748433,1.1396215)"
     id="text1098"
     style="font-size:232.611px;font-family:'ITC Giovanni Std Book';-inkscape-font-specification:'ITC Giovanni Std Book, ';font-variant-ligatures:no-contextual;fill:#6d624e;stroke:#6d624e;stroke-width:8;stroke-linecap:square;stop-color:#000000">
    <path
       d="M 859.25743,323.88556 V 157.37789 h 82.3452 v 18.28631 h -67.46627 v 52.81451 h 63.03667 v 18.39989 h -63.03667 v 58.60707 h 69.96502 v 18.39989 z"
       style="font-family:'BPG Algeti GPL&amp;GNU';-inkscape-font-specification:'BPG Algeti GPL&amp;GNU'"
       id="path293" />
    <path
       d="m 953.41491,323.88556 43.72814,-86.7748 q -0.90864,-1.93086 -2.95307,-6.01972 -1.93085,-4.20245 -4.65676,-9.65427 -2.72591,-5.5654 -5.90614,-12.03943 -3.06665,-6.47404 -6.36046,-13.06166 -3.18023,-6.58761 -6.36046,-12.94807 -3.06664,-6.36046 -5.67897,-11.58512 -2.49876,-5.33824 -4.42961,-9.08636 -1.81727,-3.86171 -2.49875,-5.33824 h 17.71842 q 4.08886,8.40489 8.63204,17.83199 4.54319,9.42711 8.74563,18.28631 4.20245,8.74563 7.49628,16.01473 3.2938,7.26909 4.8839,11.35795 2.2716,-5.45182 4.5432,-10.10858 2.2716,-4.65676 4.5432,-8.97279 v 0.22716 l 4.8839,-9.31352 q 4.4296,-8.51847 9.0864,-17.832 4.6567,-9.31352 9.0863,-17.49125 h 15.7876 l -39.7529,78.59707 q 4.8839,10.22216 10.3358,21.35296 5.4518,11.1308 11.0172,22.48876 5.5654,11.35796 11.0172,22.60234 5.5654,11.1308 10.6765,21.46654 h -18.1727 q -0.9087,-1.70369 -2.726,-5.45182 -1.8172,-3.86171 -4.2024,-8.85921 -2.3852,-4.9975 -5.2247,-10.90364 -2.8394,-5.90614 -5.6789,-11.81228 -2.8395,-6.01971 -5.5654,-11.69869 -2.7259,-5.79256 -4.884,-10.33575 -2.158,-4.65676 -3.6345,-7.83699 -1.4765,-3.18023 -1.8173,-4.08886 -0.3407,0.79505 -1.2494,2.83949 -0.795,1.93085 -1.7036,4.08886 -0.9087,2.04444 -1.5902,3.74813 -0.68144,1.70369 -0.79502,1.93085 -7.15551,14.87893 -14.42461,29.18996 -7.26909,14.31102 -14.42461,29.18995 z"
       style="font-family:'BPG Algeti GPL&amp;GNU';-inkscape-font-specification:'BPG Algeti GPL&amp;GNU'"
       id="path295" />
    <path
       d="m 1166.2631,271.97969 q -5.1111,26.80478 -16.6962,40.54791 -6.4741,7.15551 -13.9703,10.67648 -7.3827,3.52097 -16.2419,3.52097 -13.6296,0 -23.7382,-6.92836 -9.995,-6.92835 -16.6962,-18.85421 -6.5876,-11.92585 -9.8814,-27.71342 -3.1802,-15.90114 -3.1802,-33.73313 0,-13.40239 1.5901,-24.53319 1.5901,-11.24438 5.1111,-20.89865 h -0.2272 q 6.7012,-19.30853 19.3086,-29.53069 6.474,-4.88392 13.2888,-7.38267 6.8147,-2.61233 14.6517,-2.61233 8.8592,0 15.7876,3.18022 6.9284,3.18023 13.0617,9.65427 5.4518,5.90614 9.3135,14.76535 3.9753,8.74562 6.474,20.10358 -3.8617,1.47654 -7.3827,2.49875 -3.4073,1.02222 -7.0419,2.61233 -4.316,-18.39989 -11.9258,-26.6912 -7.4963,-8.40489 -18.5135,-8.40489 -10.1086,0 -17.3777,5.22466 -7.1555,5.11108 -11.8123,14.19745 -4.5432,8.97279 -6.8147,21.23938 -2.1581,12.2666 -2.1581,26.35047 0,10.79006 0.9087,20.33074 1.0222,9.42711 3.1802,17.37768 2.158,7.83699 5.4518,13.97029 3.4074,6.1333 8.0642,10.10858 9.3135,8.17773 19.3085,8.17773 12.0394,0 20.7851,-10.79006 8.8592,-10.79006 12.4937,-32.2566 z"
       style="font-family:'BPG Algeti GPL&amp;GNU';-inkscape-font-specification:'BPG Algeti GPL&amp;GNU'"
       id="path297" />
    <path
       d="m 1204.5394,256.19213 h 39.0714 q -0.1136,-0.5679 -1.0223,-4.08887 -0.9086,-3.63455 -2.2715,-8.63205 -1.2494,-5.11108 -2.726,-10.90364 -1.4765,-5.90614 -2.8394,-11.01722 -1.2494,-5.11108 -2.2716,-8.63205 -0.9087,-3.63454 -1.0223,-4.20244 -2.2715,-9.995 -4.316,-18.28631 -1.9308,-8.40489 -3.5209,-15.90115 h -0.5679 q -1.0223,8.17773 -2.6124,16.46904 -1.5901,8.17773 -3.1802,14.99251 z m -32.5974,67.69343 q 0.9087,-3.52097 2.9531,-11.58512 2.158,-8.17773 4.9975,-19.19495 2.9531,-11.1308 6.4741,-24.30603 3.5209,-13.28881 7.0419,-27.03194 3.6345,-13.74313 7.1555,-27.03194 3.521,-13.40239 6.474,-24.76035 2.9531,-11.47154 5.1111,-19.99001 2.2716,-8.51847 3.2938,-12.60733 h 16.4691 q 0.5679,2.04443 2.6123,9.4271 2.0444,7.38267 4.9975,18.28631 3.0666,10.90365 6.8148,24.41962 3.7481,13.40239 7.7234,27.59984 3.9753,14.08386 7.837,28.05415 3.8617,13.85671 7.1555,25.66899 3.2938,11.81228 5.7925,20.5579 2.4988,8.63205 3.6346,12.49376 h -17.2641 l -13.1752,-50.99724 h -47.7035 q -0.3407,1.36296 -1.3629,5.22467 -0.9087,3.8617 -2.2716,9.08636 -1.2494,5.11108 -2.7259,10.90364 -1.363,5.79256 -2.7259,11.01722 -1.2494,5.22466 -2.2716,9.31353 -0.9087,3.97528 -1.2494,5.45182 z"
       style="font-family:'BPG Algeti GPL&amp;GNU';-inkscape-font-specification:'BPG Algeti GPL&amp;GNU'"
       id="path299" />
    <path
       d="m 1310.6227,323.88556 q -1.0222,-4.08887 -3.2938,-12.72091 -2.2716,-8.63205 -5.3383,-20.10359 -2.953,-11.47154 -6.5876,-24.98751 -3.5209,-13.51597 -7.1555,-27.2591 -3.6345,-13.85671 -7.1555,-27.03194 -3.4074,-13.28881 -6.3605,-24.30603 -2.953,-11.01722 -4.9975,-18.96779 -2.0444,-7.95058 -2.8394,-11.1308 h 15.7875 l 29.8714,121.87089 q 1.7037,7.49625 3.1803,14.53819 1.5901,6.92835 2.8395,13.40239 0.6814,-3.52097 1.4765,-7.38267 0.7951,-3.97529 1.5901,-7.72342 0.9086,-3.74812 1.5901,-7.15551 0.7951,-3.40739 1.363,-5.90614 15.674,-60.76508 30.6665,-121.64373 h 15.4468 q -0.3407,1.36295 -1.7037,6.47403 -1.363,4.9975 -3.4074,12.72092 -2.0444,7.60983 -4.6568,17.49125 -2.6123,9.76785 -5.5654,20.78507 -2.953,10.90364 -6.1332,22.48875 -3.0667,11.58512 -6.1333,22.8295 -2.9531,11.1308 -5.7926,21.58012 -2.7259,10.33574 -4.9975,18.85421 -2.2716,8.40489 -3.8617,14.53819 -1.5901,6.01972 -2.2716,8.74563 z"
       style="font-family:'BPG Algeti GPL&amp;GNU';-inkscape-font-specification:'BPG Algeti GPL&amp;GNU'"
       id="path301" />
    <path
       d="m 1392.1729,256.19213 h 39.0713 q -0.1135,-0.5679 -1.0222,-4.08887 -0.9086,-3.63455 -2.2716,-8.63205 -1.2493,-5.11108 -2.7259,-10.90364 -1.4765,-5.90614 -2.8395,-11.01722 -1.2493,-5.11108 -2.2716,-8.63205 -0.9086,-3.63454 -1.0222,-4.20244 -2.2716,-9.995 -4.316,-18.28631 -1.9308,-8.40489 -3.521,-15.90115 h -0.5679 q -1.0222,8.17773 -2.6123,16.46904 -1.5901,8.17773 -3.1802,14.99251 z m -32.5974,67.69343 q 0.9087,-3.52097 2.9531,-11.58512 2.158,-8.17773 4.9975,-19.19495 2.9531,-11.1308 6.474,-24.30603 3.521,-13.28881 7.042,-27.03194 3.6345,-13.74313 7.1555,-27.03194 3.521,-13.40239 6.474,-24.76035 2.9531,-11.47154 5.1111,-19.99001 2.2716,-8.51847 3.2938,-12.60733 h 16.469 q 0.5679,2.04443 2.6124,9.4271 2.0444,7.38267 4.9975,18.28631 3.0666,10.90365 6.8148,24.41962 3.7481,13.40239 7.7234,27.59984 3.9753,14.08386 7.837,28.05415 3.8617,13.85671 7.1555,25.66899 3.2938,11.81228 5.7925,20.5579 2.4988,8.63205 3.6346,12.49376 h -17.2641 l -13.1752,-50.99724 h -47.7035 q -0.3407,1.36296 -1.3629,5.22467 -0.9087,3.8617 -2.2716,9.08636 -1.2494,5.11108 -2.7259,10.90364 -1.363,5.79256 -2.7259,11.01722 -1.2494,5.22466 -2.2716,9.31353 -0.9087,3.97528 -1.2494,5.45182 z"
       style="font-family:'BPG Algeti GPL&amp;GNU';-inkscape-font-specification:'BPG Algeti GPL&amp;GNU'"
       id="path303" />
    <path
       d="M 1494.7352,323.88556 V 175.6642 h -37.5948 v -18.28631 h 90.4093 v 18.28631 h -37.5948 v 148.22136 z"
       style="font-family:'BPG Algeti GPL&amp;GNU';-inkscape-font-specification:'BPG Algeti GPL&amp;GNU'"
       id="path305" />
    <path
       d="M 1565.2682,323.88556 V 157.37789 h 14.8789 v 166.50767 z"
       style="font-family:'BPG Algeti GPL&amp;GNU';-inkscape-font-specification:'BPG Algeti GPL&amp;GNU'"
       id="path307" />
    <path
       d="m 1617.4012,243.13047 q 0,15.56041 2.953,27.827 3.0667,12.2666 8.2913,20.78507 5.3383,8.51847 12.3802,13.06165 7.0419,4.4296 15.2197,4.4296 16.5826,0 28.1677,-17.94557 v 0.22716 q 5.2247,-8.85921 8.0642,-21.58012 2.8394,-12.72092 2.8394,-29.30354 0,-15.10608 -2.7259,-27.71342 -2.6123,-12.60733 -7.6098,-21.58012 -4.9975,-9.08636 -12.2666,-14.08387 -7.1555,-4.9975 -16.2419,-4.9975 -7.837,0 -14.7653,4.08887 -6.9284,4.08886 -12.7209,11.92585 h 0.2271 q -5.5654,8.51847 -8.7456,22.14802 -3.0666,13.62955 -3.0666,32.71092 z m -15.674,-0.45432 q 0,-20.78506 4.0888,-37.14052 4.0889,-16.46904 11.358,-27.827 7.3827,-11.35796 17.3777,-17.37767 9.995,-6.01972 21.9208,-6.01972 15.7876,0 28.6221,11.1308 6.474,5.79256 11.0172,13.40239 4.6568,7.60983 8.2913,17.60483 3.2938,9.19995 4.7704,20.44433 1.5901,11.24438 1.7037,23.96529 0,26.00973 -6.9284,45.0911 -3.521,9.65426 -8.5185,17.49125 -4.8839,7.837 -11.3579,12.94808 -13.0617,10.33574 -27.827,10.33574 -7.837,0 -15.2197,-2.95307 -7.3827,-3.06665 -13.6295,-8.51847 -6.1333,-5.79256 -11.0173,-13.51597 -4.8839,-7.72341 -8.0641,-17.37768 -3.2938,-9.995 -4.9975,-20.10358 -1.5901,-10.22217 -1.5901,-21.58013 z"
       style="font-family:'BPG Algeti GPL&amp;GNU';-inkscape-font-specification:'BPG Algeti GPL&amp;GNU'"
       id="path309" />
    <path
       d="M 1729.3906,323.88556 V 157.37789 h 15.4469 l 59.97,131.8659 v -131.8659 h 14.4246 v 166.50767 h -15.3332 l -60.3108,-131.8659 v 131.8659 z"
       style="font-family:'BPG Algeti GPL&amp;GNU';-inkscape-font-specification:'BPG Algeti GPL&amp;GNU'"
       id="path311" />
  </g>
  <g
     aria-label="GILLES CHALIFOUX"
     transform="scale(0.87748433,1.1396215)"
     id="text1704"
     style="font-size:232.611px;font-family:'ITC Giovanni Std Book';-inkscape-font-specification:'ITC Giovanni Std Book, ';font-variant-ligatures:no-contextual;fill:#6d624e;stroke:#6d624e;stroke-width:8;stroke-linecap:square;stop-color:#000000">
    <path
       d="M 529.35291,486.98761 V 468.7013 h 48.15774 v 60.87865 q -22.82949,26.12331 -47.13552,26.12331 -8.51847,0 -16.24189,-2.72591 -7.72341,-2.72591 -14.53818,-7.83699 -6.81478,-5.11108 -12.03944,-12.94808 -5.22466,-7.83699 -8.40489,-17.49125 -3.40739,-10.33574 -5.22466,-21.01222 -1.70369,-10.79007 -1.70369,-23.17024 0,-12.03944 1.81727,-23.51097 1.81727,-11.47154 5.11108,-21.80729 3.29381,-10.33574 8.40489,-18.28631 5.22466,-8.06415 11.35796,-13.17523 6.47404,-4.88392 14.08387,-7.49625 7.60983,-2.72591 16.1283,-2.72591 12.38017,0 22.14802,5.67898 9.76784,5.67898 16.24188,16.6962 2.83949,4.88392 4.65676,11.01721 1.93086,6.1333 3.52097,14.99251 -0.45432,0.45432 -2.04443,1.24938 -1.59012,0.68147 -3.63455,1.47653 -2.04443,0.68148 -4.20244,1.47653 -2.15802,0.79506 -3.63455,1.36296 -1.24938,-6.47404 -2.95307,-11.58512 -1.59011,-5.11108 -3.52097,-8.63205 v 0.22716 q -4.08886,-7.60983 -10.90364,-11.92585 -6.81477,-4.31603 -15.67398,-4.31603 -8.17773,0 -14.42461,2.95307 -6.24687,2.95307 -10.90364,8.06415 -4.65676,5.11108 -7.72341,11.92586 -3.06665,6.70119 -4.9975,14.31103 -1.93085,7.49625 -2.72591,15.44682 -0.79506,7.83699 -0.79506,15.21966 0,16.6962 3.18023,29.41712 3.18023,12.60733 8.74563,21.23938 5.67898,8.51847 13.28881,12.94807 7.72341,4.31603 16.58262,4.31603 4.88392,0 9.76784,-1.59012 4.99751,-1.59011 9.42711,-4.08886 4.4296,-2.49875 8.06415,-5.67898 3.74813,-3.18023 6.24688,-6.36046 v -32.37018 z"
       style="font-family:'BPG Algeti GPL&amp;GNU';-inkscape-font-specification:'BPG Algeti GPL&amp;GNU'"
       id="path314" />
    <path
       d="M 601.7031,552.86377 V 386.3561 h 14.87893 v 166.50767 z"
       style="font-family:'BPG Algeti GPL&amp;GNU';-inkscape-font-specification:'BPG Algeti GPL&amp;GNU'"
       id="path316" />
    <path
       d="M 642.13744,552.86377 V 386.3561 h 15.10608 V 534.46388 H 713.579 v 18.39989 z"
       style="font-family:'BPG Algeti GPL&amp;GNU';-inkscape-font-specification:'BPG Algeti GPL&amp;GNU'"
       id="path318" />
    <path
       d="M 730.04804,552.86377 V 386.3561 h 15.10608 v 148.10778 h 56.33548 v 18.39989 z"
       style="font-family:'BPG Algeti GPL&amp;GNU';-inkscape-font-specification:'BPG Algeti GPL&amp;GNU'"
       id="path320" />
    <path
       d="M 819.20803,552.86377 V 386.3561 h 82.3452 v 18.28631 h -67.46628 v 52.81451 h 63.03667 v 18.39989 h -63.03667 v 58.60707 h 69.96503 v 18.39989 z"
       style="font-family:'BPG Algeti GPL&amp;GNU';-inkscape-font-specification:'BPG Algeti GPL&amp;GNU'"
       id="path322" />
    <path
       d="m 933.35549,498.45915 q 1.47654,12.72091 5.22466,20.89864 3.86171,8.06415 11.35796,13.06165 v -0.22716 q 4.20245,2.61234 8.63205,3.74813 4.4296,1.1358 9.54069,1.1358 6.47403,0 11.58511,-2.38517 5.11108,-2.38518 8.63205,-6.36046 3.52097,-4.08887 5.33824,-9.31353 1.81728,-5.22466 1.81728,-11.01722 0,-8.17773 -3.18023,-14.19745 -3.18023,-6.01971 -10.33575,-10.22216 -2.38517,-1.36295 -7.38267,-3.29381 -4.9975,-2.04443 -12.83449,-4.88392 -7.83699,-2.83949 -13.40239,-5.33824 -5.5654,-2.61233 -8.63205,-5.11108 -8.17773,-6.47404 -12.15302,-15.44682 -3.97528,-9.08637 -3.97528,-20.44433 0,-9.65426 2.83949,-17.94557 2.83949,-8.40489 7.95057,-14.53819 5.22466,-6.1333 12.60733,-9.54069 7.49626,-3.52096 16.6962,-3.52096 12.72092,0 22.37518,6.01971 9.76784,6.01972 14.99248,17.71842 v -0.22716 q 2.2716,4.88392 3.6346,11.47154 1.3629,6.47404 1.9308,13.62955 -2.2716,0.34074 -4.0888,0.5679 -1.7037,0.22716 -3.40743,0.45432 -1.70369,0.11358 -3.40739,0.34073 -1.59011,0.11358 -3.52096,0.45432 -1.7037,-16.35546 -8.51847,-24.30603 -6.7012,-7.95057 -19.08137,-7.95057 -7.15552,0 -12.2666,2.15801 -4.9975,2.15801 -8.17773,5.79256 -3.18023,3.52097 -4.65676,8.17773 -1.47653,4.65676 -1.47653,9.65427 0,5.11108 0.79505,8.8592 0.90864,3.74813 3.74813,6.92836 2.83949,3.06665 8.17773,5.90614 5.45182,2.83949 14.53819,6.01972 8.8592,2.83949 15.5604,5.67897 6.70119,2.72591 9.995,4.99751 9.99504,6.81477 14.53814,17.03693 4.5432,10.10859 4.5432,23.17024 0,10.90364 -3.1802,20.10359 -3.1802,9.08636 -8.8592,15.67398 -5.5654,6.58762 -13.28881,10.22216 -7.72342,3.63455 -16.80978,3.63455 -10.90364,0 -19.76285,-3.52097 -8.74563,-3.63454 -14.99251,-10.5629 -6.24687,-7.04193 -9.88142,-17.37768 -3.52097,-10.44932 -3.97529,-23.96529 z"
       style="font-family:'BPG Algeti GPL&amp;GNU';-inkscape-font-specification:'BPG Algeti GPL&amp;GNU'"
       id="path324" />
    <path
       d="m 1170.1689,500.9579 q -5.111,26.80478 -16.6962,40.54791 -6.474,7.15551 -13.9703,10.67648 -7.3826,3.52097 -16.2418,3.52097 -13.6296,0 -23.7382,-6.92836 -9.995,-6.92835 -16.6962,-18.85421 -6.5876,-11.92585 -9.8814,-27.71342 -3.1802,-15.90114 -3.1802,-33.73313 0,-13.40239 1.5901,-24.53319 1.5901,-11.24438 5.1111,-20.89865 h -0.2272 q 6.7012,-19.30853 19.3085,-29.53069 6.4741,-4.88392 13.2889,-7.38267 6.8147,-2.61233 14.6517,-2.61233 8.8592,0 15.7876,3.18022 6.9283,3.18023 13.0616,9.65427 5.4519,5.90614 9.3136,14.76535 3.9753,8.74562 6.474,20.10358 -3.8617,1.47654 -7.3827,2.49875 -3.4074,1.02222 -7.0419,2.61233 -4.316,-18.39989 -11.9259,-26.6912 -7.4962,-8.40489 -18.5134,-8.40489 -10.1086,0 -17.3777,5.22466 -7.1555,5.11108 -11.8123,14.19745 -4.5432,8.97279 -6.8148,21.23938 -2.158,12.2666 -2.158,26.35047 0,10.79006 0.9087,20.33074 1.0222,9.42711 3.1802,17.37768 2.158,7.83699 5.4518,13.97029 3.4074,6.1333 8.0642,10.10858 9.3135,8.17773 19.3085,8.17773 12.0394,0 20.7851,-10.79006 8.8592,-10.79006 12.4937,-32.2566 z"
       style="font-family:'BPG Algeti GPL&amp;GNU';-inkscape-font-specification:'BPG Algeti GPL&amp;GNU'"
       id="path326" />
    <path
       d="M 1188.6824,552.86377 V 386.3561 h 14.8789 v 69.05638 h 59.5157 V 386.3561 h 15.1061 v 166.50767 h -15.1061 v -79.05139 h -59.5157 v 79.05139 z"
       style="font-family:'BPG Algeti GPL&amp;GNU';-inkscape-font-specification:'BPG Algeti GPL&amp;GNU'"
       id="path328" />
    <path
       d="m 1322.7063,485.17034 h 39.0714 q -0.1136,-0.5679 -1.0223,-4.08887 -0.9086,-3.63455 -2.2715,-8.63205 -1.2494,-5.11108 -2.726,-10.90364 -1.4765,-5.90614 -2.8394,-11.01722 -1.2494,-5.11108 -2.2716,-8.63205 -0.9087,-3.63454 -1.0223,-4.20244 -2.2715,-9.995 -4.316,-18.28631 -1.9308,-8.40489 -3.5209,-15.90115 h -0.5679 q -1.0223,8.17773 -2.6124,16.46904 -1.5901,8.17773 -3.1802,14.99251 z m -32.5974,67.69343 q 0.9087,-3.52097 2.9531,-11.58512 2.158,-8.17773 4.9975,-19.19495 2.9531,-11.1308 6.4741,-24.30603 3.5209,-13.28881 7.0419,-27.03194 3.6345,-13.74313 7.1555,-27.03194 3.521,-13.40239 6.474,-24.76035 2.9531,-11.47154 5.1111,-19.99001 2.2716,-8.51847 3.2938,-12.60733 h 16.4691 q 0.5679,2.04443 2.6123,9.4271 2.0444,7.38267 4.9975,18.28632 3.0666,10.90364 6.8148,24.41961 3.7481,13.40239 7.7234,27.59984 3.9753,14.08386 7.837,28.05415 3.8617,13.85671 7.1555,25.66899 3.2938,11.81228 5.7925,20.55791 2.4988,8.63204 3.6346,12.49375 h -17.2641 l -13.1752,-50.99723 h -47.7035 q -0.3407,1.36295 -1.3629,5.22466 -0.9087,3.8617 -2.2716,9.08636 -1.2494,5.11108 -2.7259,10.90364 -1.363,5.79256 -2.7259,11.01722 -1.2494,5.22466 -2.2716,9.31353 -0.9087,3.97528 -1.2494,5.45182 z"
       style="font-family:'BPG Algeti GPL&amp;GNU';-inkscape-font-specification:'BPG Algeti GPL&amp;GNU'"
       id="path330" />
    <path
       d="M 1407.3231,552.86377 V 386.3561 h 15.1061 v 148.10778 h 56.3355 v 18.39989 z"
       style="font-family:'BPG Algeti GPL&amp;GNU';-inkscape-font-specification:'BPG Algeti GPL&amp;GNU'"
       id="path332" />
    <path
       d="M 1498.7546,552.86377 V 386.3561 h 14.879 v 166.50767 z"
       style="font-family:'BPG Algeti GPL&amp;GNU';-inkscape-font-specification:'BPG Algeti GPL&amp;GNU'"
       id="path334" />
    <path
       d="M 1540.6655,552.86377 V 386.3561 h 76.8934 v 18.28631 h -61.7873 v 53.26883 h 53.496 v 18.62705 h -53.496 v 76.32548 z"
       style="font-family:'BPG Algeti GPL&amp;GNU';-inkscape-font-specification:'BPG Algeti GPL&amp;GNU'"
       id="path336" />
    <path
       d="m 1647.6575,472.10868 q 0,15.56041 2.953,27.827 3.0667,12.2666 8.2913,20.78507 5.3383,8.51847 12.3802,13.06165 7.042,4.4296 15.2197,4.4296 16.5826,0 28.1677,-17.94557 v 0.22716 q 5.2247,-8.85921 8.0642,-21.58012 2.8395,-12.72092 2.8395,-29.30354 0,-15.10608 -2.7259,-27.71342 -2.6124,-12.60733 -7.6099,-21.58012 -4.9975,-9.08636 -12.2666,-14.08387 -7.1555,-4.9975 -16.2419,-4.9975 -7.8369,0 -14.7653,4.08887 -6.9284,4.08886 -12.7209,11.92585 h 0.2271 q -5.5654,8.51847 -8.7456,22.14802 -3.0666,13.62955 -3.0666,32.71092 z m -15.674,-0.45431 q 0,-20.78507 4.0889,-37.14053 4.0888,-16.46904 11.3579,-27.827 7.3827,-11.35796 17.3777,-17.37767 9.995,-6.01972 21.9208,-6.01972 15.7876,0 28.6221,11.1308 6.474,5.79256 11.0172,13.40239 4.6568,7.60983 8.2913,17.60483 3.2938,9.19995 4.7704,20.44433 1.5901,11.24438 1.7037,23.96529 0,26.00973 -6.9284,45.0911 -3.521,9.65426 -8.5185,17.49125 -4.8839,7.837 -11.3579,12.94808 -13.0617,10.33574 -27.827,10.33574 -7.837,0 -15.2197,-2.95307 -7.3826,-3.06665 -13.6295,-8.51847 -6.1333,-5.79256 -11.0172,-13.51597 -4.884,-7.72341 -8.0642,-17.37768 -3.2938,-9.995 -4.9975,-20.10358 -1.5901,-10.22217 -1.5901,-21.58012 z"
       style="font-family:'BPG Algeti GPL&amp;GNU';-inkscape-font-specification:'BPG Algeti GPL&amp;GNU'"
       id="path338" />
    <path
       d="m 1834.6095,386.3561 h 15.1061 v 96.31549 q 0,24.19245 -3.9753,39.75285 -1.7037,7.26909 -5.2247,13.40239 -3.4074,6.01972 -8.5184,10.44932 -5.1111,4.42961 -11.9259,6.92836 -6.7012,2.49875 -14.9925,2.49875 -7.837,0 -14.4246,-2.27159 -6.474,-2.15801 -11.5851,-6.24688 -5.1111,-4.08886 -8.8592,-9.88142 -3.6346,-5.79256 -5.9062,-13.06166 -2.0444,-7.49625 -3.0666,-17.94557 -1.0222,-10.5629 -1.0222,-23.62455 V 386.3561 h 14.6517 v 95.97475 q 0,11.01722 0.7951,19.30853 0.9086,8.29131 1.9308,13.51597 3.1803,10.67648 9.4271,16.35546 6.2469,5.5654 16.9234,5.5654 7.9506,0 13.7431,-2.38517 5.7926,-2.49876 9.5407,-8.63205 3.7481,-6.24688 5.5654,-16.80978 1.8173,-10.5629 1.8173,-26.91836 z"
       style="font-family:'BPG Algeti GPL&amp;GNU';-inkscape-font-specification:'BPG Algeti GPL&amp;GNU'"
       id="path340" />
    <path
       d="m 1863.0044,552.86377 43.7282,-86.7748 q -0.9087,-1.93086 -2.9531,-6.01972 -1.9309,-4.20245 -4.6568,-9.65427 -2.7259,-5.5654 -5.9061,-12.03943 -3.0666,-6.47404 -6.3605,-13.06166 -3.1802,-6.58761 -6.3604,-12.94807 -3.0667,-6.36046 -5.679,-11.58512 -2.4987,-5.33824 -4.4296,-9.08636 -1.8173,-3.86171 -2.4987,-5.33824 h 17.7184 q 4.0888,8.40489 8.632,17.83199 4.5432,9.42711 8.7456,18.28631 4.2025,8.74563 7.4963,16.01473 3.2938,7.26909 4.8839,11.35795 2.2716,-5.45182 4.5432,-10.10858 2.2716,-4.65676 4.5432,-8.97279 v 0.22716 l 4.8839,-9.31352 q 4.4296,-8.51847 9.0864,-17.832 4.6567,-9.31352 9.0863,-17.49125 h 15.7876 l -39.7528,78.59707 q 4.8839,10.22216 10.3357,21.35296 5.4518,11.1308 11.0172,22.48876 5.5654,11.35796 11.0172,22.60234 5.5654,11.1308 10.6765,21.46654 h -18.1727 q -0.9087,-1.70369 -2.7259,-5.45182 -1.8173,-3.86171 -4.2025,-8.85921 -2.3851,-4.9975 -5.2246,-10.90364 -2.8395,-5.90614 -5.679,-11.81228 -2.8395,-6.01971 -5.5654,-11.69869 -2.7259,-5.79256 -4.8839,-10.33575 -2.158,-4.65676 -3.6346,-7.83699 -1.4765,-3.18023 -1.8173,-4.08886 -0.3407,0.79506 -1.2493,2.83949 -0.7951,1.93085 -1.7037,4.08886 -0.9087,2.04444 -1.5901,3.74813 -0.6815,1.70369 -0.7951,1.93085 -7.1555,14.87893 -14.4246,29.18996 -7.2691,14.31102 -14.4246,29.18995 z"
       style="font-family:'BPG Algeti GPL&amp;GNU';-inkscape-font-specification:'BPG Algeti GPL&amp;GNU'"
       id="path342" />
  </g>
  <g
     aria-label="(450) 433-3855"
     transform="scale(0.93055517,1.0746273)"
     id="text1818"
     style="font-size:137.271px;font-family:'ITC Giovanni Std Book';-inkscape-font-specification:'ITC Giovanni Std Book, ';font-variant-ligatures:no-contextual;fill:#6d624e;stroke:#6d624e;stroke-width:7.99999;stroke-linecap:square;stop-color:#000000">
    <path
       d="m 793.17512,791.56031 q -5.83133,-7.30593 -10.59024,-15.41618 -4.75891,-8.04322 -8.57944,-17.89617 -3.82053,-9.85294 -5.76431,-19.63886 -1.94378,-9.78592 -1.94378,-20.04103 0,-17.9632 5.83134,-34.65289 6.76971,-19.2367 21.04643,-38.33936 h 9.78592 q -4.62485,7.90917 -7.64106,13.53943 -2.94918,5.56323 -4.42377,8.9816 -2.27891,5.42917 -4.15567,10.79132 -1.87675,5.29512 -3.21728,11.12646 -1.67568,7.10484 -2.48,14.20969 -0.73729,7.10485 -0.73729,14.34375 0,36.73071 22.65507,72.99224 z"
       style="font-family:'BPG Sans Medium GPL&amp;GNU';-inkscape-font-specification:'BPG Sans Medium GPL&amp;GNU';stroke:none"
       id="path345" />
    <path
       d="m 856.38144,758.91823 v -26.74371 h -48.39338 v -12.60105 l 50.9404,-72.05387 h 11.05944 v 72.05387 h 15.01401 v 12.60105 H 869.9879 v 26.74371 z m 0,-39.34476 v -50.13609 l -34.85396,50.13609 z"
       style="font-family:'BPG Sans Medium GPL&amp;GNU';-inkscape-font-specification:'BPG Sans Medium GPL&amp;GNU';stroke:none"
       id="path347" />
    <path
       d="m 909.33265,728.35399 q 0.7373,5.36215 2.61405,9.31673 1.94378,3.95459 4.75891,6.56863 2.81512,2.61405 6.36755,3.88756 3.61945,1.27351 7.64106,1.27351 4.89296,0 9.11565,-1.87675 4.28972,-1.94378 7.43998,-5.4962 3.21729,-3.55243 5.02701,-8.51241 1.87676,-5.02702 1.87676,-11.19349 0,-5.83133 -1.7427,-10.52321 -1.7427,-4.69188 -4.89296,-7.90917 -3.08324,-3.28432 -7.43998,-5.02702 -4.35675,-1.80972 -9.58484,-1.80972 -6.70269,0 -12.06484,2.94918 -5.29512,2.88215 -8.37835,7.90917 l -12.86916,-1.80973 10.92538,-57.1739 h 55.36418 v 13.07023 h -44.43881 l -6.03241,30.02803 q 9.91997,-7.03782 21.04643,-7.03782 7.2389,0 13.53942,2.68108 6.36756,2.68107 11.05944,7.50701 4.69188,4.7589 7.37295,11.39456 2.68107,6.63566 2.68107,14.54483 -0.067,7.70809 -2.27891,14.07564 -2.14486,6.30052 -6.56863,11.9978 -10.59024,13.4724 -29.15668,13.4724 -7.64106,0 -13.94159,-2.21188 -6.2335,-2.21189 -10.92538,-6.2335 -4.62485,-4.08864 -7.43998,-9.78592 -2.81512,-5.69729 -3.48539,-12.7351 z"
       style="font-family:'BPG Sans Medium GPL&amp;GNU';-inkscape-font-specification:'BPG Sans Medium GPL&amp;GNU';stroke:none"
       id="path349" />
    <path
       d="m 977.29788,703.88919 q 0,-13.94159 2.14486,-24.53183 2.21189,-10.65727 6.70269,-17.82914 4.4908,-7.23891 11.32754,-10.85836 6.83673,-3.68647 16.08643,-3.68647 9.2497,0 15.6843,3.55242 6.5016,3.55242 11.1265,10.45619 2.2789,3.41837 3.9545,7.57403 1.6757,4.08864 3.0162,8.91458 1.3406,4.82593 1.9438,11.32753 0.6033,6.50161 0.6033,15.08105 0,13.80753 -2.2119,24.39777 -2.1449,10.59024 -6.6357,17.82914 -4.4908,7.17188 -11.3275,10.85835 -6.8368,3.68648 -16.1535,3.68648 -8.8475,0 -15.68427,-3.41837 -6.76971,-3.48539 -11.32754,-10.52321 -4.55783,-7.03782 -6.90377,-17.69509 -2.34594,-10.7243 -2.34594,-25.13507 z m 14.07564,0 q 0,27.61506 6.30053,36.52963 6.36755,8.9816 15.88535,8.9816 9.3838,0 15.8183,-9.04863 6.3676,-8.91457 6.3676,-36.4626 -0.1341,-13.80754 -1.6757,-22.85616 -1.4746,-9.11565 -4.6919,-13.74051 -6.4345,-9.04862 -15.8853,-9.04862 -5.3622,0 -9.5178,2.47999 -4.08867,2.41297 -6.90379,7.90917 -2.81513,5.42918 -4.28972,14.14267 -1.40757,8.64646 -1.40757,21.11346 z"
       style="font-family:'BPG Sans Medium GPL&amp;GNU';-inkscape-font-specification:'BPG Sans Medium GPL&amp;GNU';stroke:none"
       id="path351" />
    <path
       d="m 1062.6901,791.56031 q 22.6551,-36.32855 22.6551,-72.99224 0,-7.30593 -0.8714,-14.27672 -0.8043,-6.9708 -2.3459,-14.2097 -1.3406,-5.69728 -3.2173,-11.05943 -1.8097,-5.42917 -4.0887,-10.65727 -2.9491,-6.90376 -12.1318,-22.78913 h 9.7189 q 7.0378,9.78592 12.3329,19.16968 5.3622,9.31674 8.7805,19.16968 2.8822,8.44539 4.3568,17.02483 1.4746,8.51241 1.4746,17.62806 0,20.57724 -7.9092,39.67989 -3.9546,9.7189 -8.6465,17.89617 -4.6918,8.17728 -10.3891,15.41618 z"
       style="font-family:'BPG Sans Medium GPL&amp;GNU';-inkscape-font-specification:'BPG Sans Medium GPL&amp;GNU';stroke:none"
       id="path353" />
    <path
       d="m 1185.9525,758.91823 v -26.74371 h -48.3934 v -12.60105 l 50.9404,-72.05387 h 11.0594 v 72.05387 h 15.014 v 12.60105 h -15.014 v 26.74371 z m 0,-39.34476 v -50.13609 l -34.854,50.13609 z"
       style="font-family:'BPG Sans Medium GPL&amp;GNU';-inkscape-font-specification:'BPG Sans Medium GPL&amp;GNU';stroke:none"
       id="path355" />
    <path
       d="m 1238.1664,727.61669 q 1.1394,5.76431 3.1502,9.91998 2.0109,4.08864 4.826,6.76971 2.8151,2.61405 6.3005,3.88756 3.4854,1.20648 7.6411,1.20648 4.8259,0 8.9816,-1.80972 4.1556,-1.80973 7.2389,-4.89297 3.0832,-3.15026 4.8259,-7.37295 1.8097,-4.28972 1.8097,-9.11565 0,-4.69188 -1.6756,-8.64647 -1.6087,-4.02161 -4.5579,-6.83673 -2.8821,-2.88216 -6.8367,-4.4908 -3.9546,-1.60865 -8.6465,-1.60865 -4.0886,0 -9.7859,1.47459 l 1.6086,-11.93078 q 0.7373,0.067 1.2065,0.13406 0.5362,0 0.9384,0 4.2227,0 8.3113,-1.13946 4.0887,-1.13946 7.2389,-3.41837 3.2173,-2.34594 5.1611,-5.83134 2.0108,-3.55242 2.0108,-8.31133 0,-3.68647 -1.3405,-6.83673 -1.3406,-3.21729 -3.7535,-5.56323 -2.413,-2.34594 -5.7643,-3.61945 -3.2844,-1.34054 -7.306,-1.34054 -8.1102,0 -13.3383,4.95999 -5.2281,4.89296 -6.7697,15.14807 l -13.7405,-2.48 q 2.48,-13.60645 11.3945,-21.31454 8.7135,-7.57403 22.0519,-7.57403 7.44,0 13.4724,2.41296 6.0994,2.41297 10.3221,6.43458 4.2897,3.95459 6.5686,9.18268 2.346,5.2281 2.346,10.85835 0,7.30593 -3.8876,13.20429 -3.8205,5.89837 -11.5286,9.31673 4.893,1.20649 8.7805,3.68648 3.8876,2.41297 6.5016,5.96539 2.6811,3.55242 4.0887,8.11025 1.4075,4.4908 1.4075,9.85295 0,7.17187 -2.8151,13.53942 -2.8151,6.30053 -7.7751,11.05943 -4.96,4.69188 -11.8638,7.43998 -6.9037,2.74811 -15.014,2.74811 -7.3059,0 -13.5394,-2.27892 -6.1665,-2.34594 -10.8584,-6.5016 -4.6248,-4.15567 -7.507,-9.91998 -2.8821,-5.76431 -3.5524,-12.66807 z"
       style="font-family:'BPG Sans Medium GPL&amp;GNU';-inkscape-font-specification:'BPG Sans Medium GPL&amp;GNU';stroke:none"
       id="path357" />
    <path
       d="m 1320.5424,727.61669 q 1.1394,5.76431 3.1503,9.91998 2.0108,4.08864 4.8259,6.76971 2.8151,2.61405 6.3005,3.88756 3.4854,1.20648 7.6411,1.20648 4.8259,0 8.9816,-1.80972 4.1556,-1.80973 7.2389,-4.89297 3.0832,-3.15026 4.8259,-7.37295 1.8097,-4.28972 1.8097,-9.11565 0,-4.69188 -1.6756,-8.64647 -1.6087,-4.02161 -4.5579,-6.83673 -2.8821,-2.88216 -6.8367,-4.4908 -3.9546,-1.60865 -8.6465,-1.60865 -4.0886,0 -9.7859,1.47459 l 1.6087,-11.93078 q 0.7372,0.067 1.2064,0.13406 0.5363,0 0.9384,0 4.2227,0 8.3113,-1.13946 4.0887,-1.13946 7.2389,-3.41837 3.2173,-2.34594 5.1611,-5.83134 2.0108,-3.55242 2.0108,-8.31133 0,-3.68647 -1.3405,-6.83673 -1.3406,-3.21729 -3.7535,-5.56323 -2.413,-2.34594 -5.7643,-3.61945 -3.2843,-1.34054 -7.306,-1.34054 -8.1102,0 -13.3383,4.95999 -5.2281,4.89296 -6.7697,15.14807 l -13.7405,-2.48 q 2.48,-13.60645 11.3945,-21.31454 8.7135,-7.57403 22.0519,-7.57403 7.44,0 13.4724,2.41296 6.0994,2.41297 10.3221,6.43458 4.2897,3.95459 6.5686,9.18268 2.346,5.2281 2.346,10.85835 0,7.30593 -3.8876,13.20429 -3.8205,5.89837 -11.5286,9.31673 4.893,1.20649 8.7805,3.68648 3.8876,2.41297 6.5016,5.96539 2.6811,3.55242 4.0887,8.11025 1.4075,4.4908 1.4075,9.85295 0,7.17187 -2.8151,13.53942 -2.8151,6.30053 -7.7751,11.05943 -4.96,4.69188 -11.8638,7.43998 -6.9037,2.74811 -15.014,2.74811 -7.3059,0 -13.5394,-2.27892 -6.1665,-2.34594 -10.8584,-6.5016 -4.6248,-4.15567 -7.507,-9.91998 -2.8821,-5.76431 -3.5524,-12.66807 z"
       style="font-family:'BPG Sans Medium GPL&amp;GNU';-inkscape-font-specification:'BPG Sans Medium GPL&amp;GNU';stroke:none"
       id="path359" />
    <path
       d="M 1387.6362,725.40481 V 711.6643 h 42.0259 v 13.74051 z"
       style="font-family:'BPG Sans Medium GPL&amp;GNU';-inkscape-font-specification:'BPG Sans Medium GPL&amp;GNU';stroke:none"
       id="path361" />
    <path
       d="m 1452.1831,727.61669 q 1.1395,5.76431 3.1503,9.91998 2.0108,4.08864 4.8259,6.76971 2.8152,2.61405 6.3006,3.88756 3.4854,1.20648 7.641,1.20648 4.826,0 8.9816,-1.80972 4.1557,-1.80973 7.2389,-4.89297 3.0833,-3.15026 4.826,-7.37295 1.8097,-4.28972 1.8097,-9.11565 0,-4.69188 -1.6757,-8.64647 -1.6086,-4.02161 -4.5578,-6.83673 -2.8822,-2.88216 -6.8368,-4.4908 -3.9545,-1.60865 -8.6464,-1.60865 -4.0887,0 -9.7859,1.47459 l 1.6086,-11.93078 q 0.7373,0.067 1.2065,0.13406 0.5362,0 0.9384,0 4.2227,0 8.3113,-1.13946 4.0886,-1.13946 7.2389,-3.41837 3.2173,-2.34594 5.1611,-5.83134 2.0108,-3.55242 2.0108,-8.31133 0,-3.68647 -1.3406,-6.83673 -1.3405,-3.21729 -3.7535,-5.56323 -2.4129,-2.34594 -5.7643,-3.61945 -3.2843,-1.34054 -7.3059,-1.34054 -8.1103,0 -13.3384,4.95999 -5.2281,4.89296 -6.7697,15.14807 l -13.7405,-2.48 q 2.48,-13.60645 11.3946,-21.31454 8.7135,-7.57403 22.0518,-7.57403 7.44,0 13.4724,2.41296 6.0995,2.41297 10.3222,6.43458 4.2897,3.95459 6.5686,9.18268 2.3459,5.2281 2.3459,10.85835 0,7.30593 -3.8875,13.20429 -3.8206,5.89837 -11.5286,9.31673 4.8929,1.20649 8.7805,3.68648 3.8875,2.41297 6.5016,5.96539 2.6811,3.55242 4.0886,8.11025 1.4076,4.4908 1.4076,9.85295 0,7.17187 -2.8151,13.53942 -2.8152,6.30053 -7.7752,11.05943 -4.96,4.69188 -11.8637,7.43998 -6.9038,2.74811 -15.014,2.74811 -7.306,0 -13.5395,-2.27892 -6.1664,-2.34594 -10.8583,-6.5016 -4.6249,-4.15567 -7.507,-9.91998 -2.8822,-5.76431 -3.5524,-12.66807 z"
       style="font-family:'BPG Sans Medium GPL&amp;GNU';-inkscape-font-specification:'BPG Sans Medium GPL&amp;GNU';stroke:none"
       id="path363" />
    <path
       d="m 1541.9321,698.39298 q -8.7135,-3.08323 -12.7351,-8.78051 -4.0216,-5.69729 -4.0216,-13.87456 0,-6.03242 2.2789,-11.26051 2.2789,-5.29512 6.4345,-9.18268 4.2227,-3.88756 10.1211,-6.09945 5.8984,-2.21188 13.1373,-2.21188 7.2389,0 13.2043,2.34594 5.9653,2.27891 10.188,6.2335 4.2898,3.95458 6.6357,9.2497 2.413,5.29512 2.413,11.19349 0,8.11024 -3.9546,13.7405 -3.9546,5.56323 -12.467,8.64646 10.5232,3.41837 15.7513,10.65727 5.2951,7.2389 5.2951,17.89617 0,7.03782 -2.6811,13.20429 -2.681,6.16647 -7.507,10.7243 -4.8259,4.55783 -11.5956,7.17187 -6.7697,2.61405 -14.947,2.61405 -8.2443,0 -15.014,-2.54702 -6.7697,-2.61405 -11.5957,-7.17187 -4.8259,-4.55783 -7.507,-10.79133 -2.681,-6.23349 -2.681,-13.53942 0,-5.36215 1.4075,-9.91997 1.4746,-4.62486 4.1557,-8.24431 2.7481,-3.61945 6.7027,-6.16647 3.9546,-2.54702 8.9816,-3.88756 z m -2.7481,-23.12426 q 0,3.88756 1.3405,7.17187 1.3405,3.28432 3.7535,5.63026 2.413,2.34594 5.7643,3.68648 3.3514,1.34053 7.44,1.34053 3.8876,0 7.1719,-1.27351 3.3513,-1.34053 5.6973,-3.61945 2.4129,-2.34594 3.7535,-5.42917 1.3405,-3.15026 1.3405,-6.76971 0,-3.75351 -1.4076,-6.9708 -1.3405,-3.28431 -3.8205,-5.63025 -2.413,-2.41297 -5.7643,-3.75351 -3.2843,-1.40756 -7.1719,-1.40756 -3.8875,0 -7.2389,1.34054 -3.2843,1.34053 -5.6973,3.68647 -2.4129,2.27892 -3.8205,5.42918 -1.3405,3.08323 -1.3405,6.56863 z m -4.4238,51.47662 q 0,5.02702 1.8097,9.18268 1.8097,4.15567 4.893,7.17188 3.0832,3.0162 7.2389,4.69188 4.1556,1.60864 8.9146,1.60864 4.8259,0 8.9145,-1.60864 4.1557,-1.67568 7.1719,-4.62486 3.0162,-2.94918 4.6919,-7.03782 1.7427,-4.08863 1.7427,-8.9816 0,-4.89296 -1.8097,-9.04862 -1.7427,-4.22269 -4.893,-7.2389 -3.0832,-3.01621 -7.3059,-4.69188 -4.1557,-1.7427 -9.0487,-1.7427 -4.7589,0 -8.8475,1.7427 -4.0886,1.67567 -7.1049,4.69188 -2.9491,2.94918 -4.6918,7.03782 -1.6757,4.08864 -1.6757,8.84754 z"
       style="font-family:'BPG Sans Medium GPL&amp;GNU';-inkscape-font-specification:'BPG Sans Medium GPL&amp;GNU';stroke:none"
       id="path365" />
    <path
       d="m 1617.6724,728.35399 q 0.7373,5.36215 2.614,9.31673 1.9438,3.95459 4.7589,6.56863 2.8152,2.61405 6.3676,3.88756 3.6194,1.27351 7.6411,1.27351 4.8929,0 9.1156,-1.87675 4.2897,-1.94378 7.44,-5.4962 3.2173,-3.55243 5.027,-8.51241 1.8768,-5.02702 1.8768,-11.19349 0,-5.83133 -1.7427,-10.52321 -1.7427,-4.69188 -4.893,-7.90917 -3.0832,-3.28432 -7.44,-5.02702 -4.3567,-1.80972 -9.5848,-1.80972 -6.7027,0 -12.0649,2.94918 -5.2951,2.88215 -8.3783,7.90917 l -12.8692,-1.80973 10.9254,-57.1739 h 55.3642 v 13.07023 h -44.4388 l -6.0324,30.02803 q 9.9199,-7.03782 21.0464,-7.03782 7.2389,0 13.5394,2.68108 6.3676,2.68107 11.0595,7.50701 4.6918,4.7589 7.3729,11.39456 2.6811,6.63566 2.6811,14.54483 -0.067,7.70809 -2.2789,14.07564 -2.1449,6.30052 -6.5687,11.9978 -10.5902,13.4724 -29.1566,13.4724 -7.6411,0 -13.9416,-2.21188 -6.2335,-2.21189 -10.9254,-6.2335 -4.6249,-4.08864 -7.44,-9.78592 -2.8151,-5.69729 -3.4854,-12.7351 z"
       style="font-family:'BPG Sans Medium GPL&amp;GNU';-inkscape-font-specification:'BPG Sans Medium GPL&amp;GNU';stroke:none"
       id="path367" />
    <path
       d="m 1700.0484,728.35399 q 0.7373,5.36215 2.6141,9.31673 1.9438,3.95459 4.7589,6.56863 2.8151,2.61405 6.3675,3.88756 3.6195,1.27351 7.6411,1.27351 4.893,0 9.1156,-1.87675 4.2898,-1.94378 7.44,-5.4962 3.2173,-3.55243 5.027,-8.51241 1.8768,-5.02702 1.8768,-11.19349 0,-5.83133 -1.7427,-10.52321 -1.7427,-4.69188 -4.893,-7.90917 -3.0832,-3.28432 -7.4399,-5.02702 -4.3568,-1.80972 -9.5849,-1.80972 -6.7027,0 -12.0648,2.94918 -5.2951,2.88215 -8.3784,7.90917 l -12.8691,-1.80973 10.9253,-57.1739 h 55.3642 v 13.07023 h -44.4388 l -6.0324,30.02803 q 9.92,-7.03782 21.0464,-7.03782 7.2389,0 13.5395,2.68108 6.3675,2.68107 11.0594,7.50701 4.6919,4.7589 7.3729,11.39456 2.6811,6.63566 2.6811,14.54483 -0.067,7.70809 -2.2789,14.07564 -2.1449,6.30052 -6.5686,11.9978 -10.5903,13.4724 -29.1567,13.4724 -7.6411,0 -13.9416,-2.21188 -6.2335,-2.21189 -10.9254,-6.2335 -4.6248,-4.08864 -7.44,-9.78592 -2.8151,-5.69729 -3.4853,-12.7351 z"
       style="font-family:'BPG Sans Medium GPL&amp;GNU';-inkscape-font-specification:'BPG Sans Medium GPL&amp;GNU';stroke:none"
       id="path369" />
  </g>
</svg>
