<?xml version="1.0" encoding="UTF-8" standalone="no"?>
<svg
   width="1729.651"
   height="923.94452"
   version="1.1"
   id="svg16"
   sodipodi:docname="chalifoux.svg"
   inkscape:version="1.2.2 (b0a8486541, 2022-12-01)"
   xmlns:inkscape="http://www.inkscape.org/namespaces/inkscape"
   xmlns:sodipodi="http://sodipodi.sourceforge.net/DTD/sodipodi-0.dtd"
   xmlns="http://www.w3.org/2000/svg"
   xmlns:svg="http://www.w3.org/2000/svg">
  <defs
     id="defs20" />
  <sodipodi:namedview
     id="namedview18"
     pagecolor="#ffffff"
     bordercolor="#000000"
     borderopacity="0.25"
     inkscape:showpageshadow="2"
     inkscape:pageopacity="0.0"
     inkscape:pagecheckerboard="0"
     inkscape:deskcolor="#d1d1d1"
     showgrid="false"
     inkscape:zoom="0.84570312"
     inkscape:cx="557.52425"
     inkscape:cy="340.54503"
     inkscape:window-width="1890"
     inkscape:window-height="991"
     inkscape:window-x="1095"
     inkscape:window-y="882"
     inkscape:window-maximized="0"
     inkscape:current-layer="svg16" />
  <path
     id="path453"
     style="fill:#cd8206;stroke-width:8;stroke-linecap:square;stop-color:#000000"
     inkscape:label="path453"
     d="m 369.72103,0 2,113 -158,-84 c 0,0 -150.1356,361.44229 -190,585 -34.61723,194.1318 -25.8903303,222.4595 -8.24219,248.25 24.34842,35.5821 72.63441,62.216 115.74642,61.6868 40.90266,-0.5021 130.03311,-63.9023 171.70507,-119.9102 54.11014,-72.7248 28.60688,-120.9415 17.51726,-211.7258 L 269.72103,600 l 13.39258,80.7695 -25.52344,5.8614 -10.74609,-50.0782 -37.12305,8.4473 7,54 -26.19141,5.7871 -4.80859,-35.7871 -37.43555,7.5996 2.43555,36.4004 -99,18 C 45.27655,644.1986 197.39904,184.07837 232.1722,106.99609 L 372.72103,177 378.2865,376.34289 727.72103,379 647.26791,102.31836 Z m 53.68555,72.55273 185.26172,71.90821 53.8125,188.14453 -230.42774,-2.17774 z M 284.04134,730.877 C 285.87683,791.8033 146.2072,877.5767 136.51595,877.8125 126.43271,878.0579 52.07263,832.629 50.12142,828.3574 47.3105,822.2035 49.18001,779.916 49.18001,779.916 Z"
     sodipodi:nodetypes="cccssssccccccccccccccccccccccccsscc" />
  <text
     xml:space="preserve"
     style="font-size:232.611px;font-family:'ITC Giovanni Std Book';-inkscape-font-specification:'ITC Giovanni Std Book, ';font-variant-ligatures:no-contextual;fill:#6d624e;fill-opacity:1;stroke:#6d624e;stroke-width:8;stroke-linecap:square;stroke-dasharray:none;stroke-opacity:1;stop-color:#000000"
     x="846.87726"
     y="323.88556"
     id="text1098"
     transform="scale(0.87748433,1.1396215)"><tspan
       sodipodi:role="line"
       id="tspan1096"
       x="846.87726"
       y="323.88556"
       style="font-style:normal;font-variant:normal;font-weight:normal;font-stretch:normal;font-family:'BPG Algeti GPL&amp;GNU';-inkscape-font-specification:'BPG Algeti GPL&amp;GNU';fill:#6d624e;fill-opacity:1;stroke:#6d624e;stroke-width:8;stroke-linecap:square;stroke-dasharray:none;stroke-opacity:1">EXCAVATION</tspan></text>
  <text
     xml:space="preserve"
     style="font-size:232.611px;font-family:'ITC Giovanni Std Book';-inkscape-font-specification:'ITC Giovanni Std Book, ';font-variant-ligatures:no-contextual;fill:#6d624e;fill-opacity:1;stroke:#6d624e;stroke-width:8;stroke-linecap:square;stroke-dasharray:none;stroke-opacity:1;stop-color:#000000"
     x="464.04465"
     y="552.86377"
     id="text1704"
     transform="scale(0.87748433,1.1396215)"><tspan
       sodipodi:role="line"
       id="tspan1702"
       x="464.04465"
       y="552.86377"
       style="font-style:normal;font-variant:normal;font-weight:normal;font-stretch:normal;font-family:'BPG Algeti GPL&amp;GNU';-inkscape-font-specification:'BPG Algeti GPL&amp;GNU';fill:#6d624e;fill-opacity:1;stroke:#6d624e;stroke-width:8;stroke-linecap:square;stroke-dasharray:none;stroke-opacity:1">GILLES CHALIFOUX</tspan></text>
  <text
     xml:space="preserve"
     style="font-size:137.271px;font-family:'ITC Giovanni Std Book';-inkscape-font-specification:'ITC Giovanni Std Book, ';font-variant-ligatures:no-contextual;fill:#6d624e;fill-opacity:1;stroke:#6d624e;stroke-width:7.99999;stroke-linecap:square;stroke-dasharray:none;stroke-opacity:1;stop-color:#000000"
     x="756.77954"
     y="758.78418"
     id="text1818"
     transform="scale(0.93055517,1.0746273)"><tspan
       sodipodi:role="line"
       id="tspan1816"
       x="756.77954"
       y="758.78418"
       style="font-style:normal;font-variant:normal;font-weight:normal;font-stretch:normal;font-family:'BPG Sans Medium GPL&amp;GNU';-inkscape-font-specification:'BPG Sans Medium GPL&amp;GNU';fill:#6d624e;fill-opacity:1;stroke:none;stroke-width:7.99999;stroke-linecap:square;stroke-dasharray:none;stroke-opacity:1">(450) 433-3855</tspan></text>
</svg>
