<?xml version="1.0" encoding="UTF-8" standalone="no"?>
<!-- Created with Inkscape (http://www.inkscape.org/) -->

<svg
   version="1.1"
   id="svg1943"
   width="838.01331"
   height="963.85333"
   viewBox="0 0 838.01331 963.85333"
   sodipodi:docname="first_quebec.svg"
   inkscape:version="1.2.2 (b0a8486541, 2022-12-01)"
   xmlns:inkscape="http://www.inkscape.org/namespaces/inkscape"
   xmlns:sodipodi="http://sodipodi.sourceforge.net/DTD/sodipodi-0.dtd"
   xmlns="http://www.w3.org/2000/svg"
   xmlns:svg="http://www.w3.org/2000/svg">
  <defs
     id="defs1947">
    <inkscape:path-effect
       effect="offset"
       id="path-effect2123"
       is_visible="true"
       lpeversion="1.2"
       linejoin_type="miter"
       unit="px"
       offset="0.7"
       miter_limit="4"
       attempt_force_join="false"
       update_on_knot_move="true" />
    <inkscape:path-effect
       effect="offset"
       id="path-effect2121"
       is_visible="true"
       lpeversion="1.2"
       linejoin_type="miter"
       unit="px"
       offset="0.7"
       miter_limit="4"
       attempt_force_join="false"
       update_on_knot_move="true" />
  </defs>
  <sodipodi:namedview
     id="namedview1945"
     pagecolor="#ffffff"
     bordercolor="#000000"
     borderopacity="0.25"
     inkscape:showpageshadow="2"
     inkscape:pageopacity="0.0"
     inkscape:pagecheckerboard="0"
     inkscape:deskcolor="#d1d1d1"
     showgrid="false"
     inkscape:zoom="0.63531914"
     inkscape:cx="373.82787"
     inkscape:cy="626.45681"
     inkscape:window-width="1890"
     inkscape:window-height="991"
     inkscape:window-x="1095"
     inkscape:window-y="882"
     inkscape:window-maximized="0"
     inkscape:current-layer="g1953">
    <inkscape:page
       x="0"
       y="0"
       id="page1949"
       width="838.01331"
       height="963.85333" />
  </sodipodi:namedview>
  <g
     id="g1951"
     inkscape:groupmode="layer"
     inkscape:label="Page 1"
     transform="matrix(1.3333333,0,0,-1.3333333,0,963.85333)">
    <g
       id="g1953"
       transform="scale(0.1)">
      <path
         d="m 1431.2,3324.01 c 13.63,2.21 25.59,6.66 35.8,13.3 10.28,6.59 18.47,15.45 24.57,26.6 6.16,11.15 9.23,25.56 9.23,43.32 0,24.55 -6.81,44.6 -20.48,60.03 -13.63,15.49 -35.7,23.22 -66.19,23.22 H 1253.1 v -169.93 h 135.12 c 15,0 29.33,1.16 42.98,3.46 z m -13.65,221.03 c 46.38,0 82.67,-11.32 108.86,-34.12 26.1,-22.73 39.21,-53.86 39.21,-93.49 0,-29.54 -6.71,-55.5 -20.11,-77.76 -13.45,-22.33 -34.91,-37.54 -64.48,-45.75 v -1.39 c 14.04,-2.68 25.56,-7.25 34.44,-13.6 8.87,-6.35 15.91,-14.01 21.13,-22.83 5.26,-8.87 9.12,-18.82 11.61,-29.72 2.49,-10.89 4.44,-22.29 5.84,-34.12 0.9,-11.83 1.52,-23.87 2.01,-36.16 0.48,-12.29 1.62,-24.39 3.42,-36.17 1.79,-11.85 4.45,-23.07 7.83,-33.8 3.45,-10.69 8.55,-20.15 15.38,-28.33 h -72.33 c -4.54,5.02 -7.61,11.85 -9.23,20.5 -1.59,8.64 -2.6,18.31 -3.06,29.01 -0.49,10.69 -0.92,22.2 -1.35,34.47 -0.48,12.29 -1.89,24.34 -4.08,36.16 -1.86,11.84 -4.13,23.06 -6.83,33.74 -2.71,10.73 -7.08,20.03 -12.99,28.01 -5.94,7.95 -13.69,14.33 -23.18,19.08 -9.61,4.82 -22.35,7.2 -38.26,7.2 H 1253.1 V 3057.8 h -64.84 v 487.24 h 229.29"
         style="fill:#231f20;fill-opacity:1;fill-rule:nonzero;stroke:none"
         id="path1955" />
      <path
         d="m 1702.76,3228.76 c 6.36,-23.88 16.4,-45.36 30.06,-64.48 13.66,-19.12 31.15,-34.42 52.54,-45.99 21.38,-11.64 46.85,-17.47 76.4,-17.47 29.6,0 55.05,5.83 76.43,17.47 21.42,11.57 38.94,26.87 52.56,45.99 13.64,19.12 23.66,40.6 30.04,64.48 6.37,23.88 9.55,48.11 9.55,72.67 0,24.55 -3.18,48.81 -9.55,72.66 -6.38,23.94 -16.4,45.4 -30.04,64.52 -13.62,19.09 -31.14,34.49 -52.56,46.06 -21.38,11.61 -46.83,17.37 -76.43,17.37 -29.55,0 -55.02,-5.76 -76.4,-17.37 -21.39,-11.57 -38.88,-26.97 -52.54,-46.06 -13.66,-19.12 -23.7,-40.58 -30.06,-64.52 -6.34,-23.85 -9.55,-48.11 -9.55,-72.66 0,-24.56 3.21,-48.79 9.55,-72.67 z m -59.7,168.61 c 9.81,30.67 24.48,57.85 44.04,81.5 19.53,23.61 43.89,42.57 73.03,56.61 29.09,14.15 62.98,21.17 101.63,21.17 38.7,0 72.57,-7.02 101.71,-21.17 29.09,-14.04 53.43,-33 73.01,-56.61 19.55,-23.65 34.2,-50.83 44.03,-81.5 9.78,-30.79 14.66,-62.7 14.66,-95.94 0,-33.17 -4.88,-65.15 -14.66,-95.86 -9.83,-30.69 -24.48,-57.91 -44.03,-81.55 -19.58,-23.62 -43.92,-42.4 -73.01,-56.3 -29.14,-13.91 -63.01,-20.84 -101.71,-20.84 -38.65,0 -72.54,6.93 -101.63,20.84 -29.14,13.9 -53.5,32.68 -73.03,56.3 -19.56,23.64 -34.23,50.86 -44.04,81.55 -9.75,30.71 -14.68,62.69 -14.68,95.86 0,33.24 4.93,65.15 14.68,95.94"
         style="fill:#231f20;fill-opacity:1;fill-rule:nonzero;stroke:none"
         id="path1957" />
      <path
         d="m 2401.59,3112.42 c 28.61,0 51.04,7.76 67.19,23.26 16.13,15.42 24.21,36.77 24.21,64.14 0,15.88 -2.99,29.05 -8.85,39.55 -5.95,10.42 -13.79,18.75 -23.54,24.88 -9.8,6.13 -21.05,10.48 -33.78,12.98 -12.77,2.51 -25.95,3.75 -39.61,3.75 h -148.04 v -168.56 z m -32.81,223.15 c 36.87,0.02 63.38,6.41 79.53,19.43 16.15,12.96 24.22,32.46 24.22,58.35 0,17.31 -2.73,30.95 -8.19,40.97 -5.48,10.02 -12.94,17.73 -22.5,23.2 -9.58,5.43 -20.62,8.96 -33.12,10.54 -12.51,1.63 -25.81,2.42 -39.94,2.42 h -129.61 v -154.91 z m -17.71,209.47 c 10.42,0 21.7,-0.1 33.77,-0.33 12.05,-0.23 24,-0.89 35.82,-2.03 11.84,-1.12 22.85,-2.82 33.13,-5.12 10.19,-2.28 18.97,-5.67 26.22,-10.23 15.95,-9.55 29.45,-22.75 40.63,-39.62 11.13,-16.78 16.73,-37.49 16.73,-62.04 0,-25.96 -6.28,-48.36 -18.79,-67.23 -12.52,-18.89 -30.34,-32.89 -53.52,-41.99 v -1.33 c 29.97,-6.4 52.94,-20.01 68.91,-40.95 15.9,-20.95 23.87,-46.38 23.87,-76.44 0,-17.71 -3.16,-35.01 -9.58,-51.86 -6.38,-16.82 -15.77,-31.72 -28.3,-44.7 -12.53,-12.96 -27.98,-23.46 -46.42,-31.4 -18.42,-7.96 -39.69,-11.97 -63.81,-11.97 h -235.38 v 487.24 h 176.72"
         style="fill:#231f20;fill-opacity:1;fill-rule:nonzero;stroke:none"
         id="path1959" />
      <path
         d="m 2688.86,3228.76 c 6.35,-23.88 16.39,-45.36 30.05,-64.48 13.6,-19.1 31.12,-34.42 52.49,-45.99 21.39,-11.64 46.88,-17.47 76.45,-17.47 29.55,0 55.02,5.83 76.44,17.47 21.34,11.57 38.86,26.89 52.55,45.99 13.62,19.12 23.66,40.6 29.99,64.48 6.37,23.91 9.58,48.11 9.58,72.67 0,24.55 -3.21,48.81 -9.58,72.66 -6.33,23.94 -16.37,45.4 -29.99,64.52 -13.69,19.09 -31.21,34.49 -52.55,46.06 -21.42,11.61 -46.89,17.4 -76.44,17.4 -29.57,0 -55.06,-5.79 -76.45,-17.4 -21.37,-11.57 -38.89,-26.97 -52.49,-46.06 -13.66,-19.12 -23.7,-40.58 -30.05,-64.52 -6.37,-23.85 -9.59,-48.11 -9.59,-72.66 0,-24.56 3.22,-48.76 9.59,-72.67 z m -59.73,168.61 c 9.8,30.68 24.45,57.85 44.01,81.5 19.6,23.61 43.89,42.57 73.05,56.61 29.04,14.15 62.99,21.17 101.66,21.17 38.65,0 72.55,-7.02 101.66,-21.17 29.09,-14.04 53.45,-33 73.01,-56.61 19.56,-23.65 34.25,-50.82 44.03,-81.5 9.75,-30.76 14.68,-62.7 14.68,-95.94 0,-33.17 -4.93,-65.15 -14.68,-95.86 -9.78,-30.67 -24.47,-57.91 -44.03,-81.55 -19.56,-23.62 -43.92,-42.38 -73.01,-56.3 -29.11,-13.89 -63.01,-20.81 -101.66,-20.81 -38.67,0 -72.62,6.92 -101.66,20.81 -29.16,13.92 -53.45,32.68 -73.05,56.3 -19.56,23.64 -34.21,50.88 -44.01,81.55 -9.8,30.71 -14.7,62.69 -14.7,95.86 0,33.24 4.9,65.15 14.7,95.94"
         style="fill:#231f20;fill-opacity:1;fill-rule:nonzero;stroke:none"
         id="path1961" />
      <path
         d="m 3108.56,3490.48 v 54.56 h 389.6 v -54.56 h -162.4 v -432.67 h -64.82 v 432.67 h -162.38"
         style="fill:#231f20;fill-opacity:1;fill-rule:nonzero;stroke:none"
         id="path1963" />
      <path
         d="m 3619.59,3545.04 v -487.23 h -64.82 v 487.23 h 64.82"
         style="fill:#231f20;fill-opacity:1;fill-rule:nonzero;stroke:none"
         id="path1965" />
      <path
         d="m 4047.48,3145.18 c 19.12,19.1 33.19,42.42 42.29,69.94 9.1,27.55 13.64,56.33 13.64,86.31 0,24.55 -3.16,48.81 -9.58,72.66 -6.3,23.94 -16.34,45.4 -29.96,64.52 -13.66,19.09 -31.19,34.44 -52.53,46.06 -21.44,11.61 -46.89,17.4 -76.46,17.4 -29.57,0 -55.07,-5.79 -76.43,-17.4 -21.34,-11.57 -38.92,-26.97 -52.51,-46.06 -13.66,-19.12 -23.68,-40.58 -30.08,-64.52 -6.35,-23.85 -9.54,-48.11 -9.54,-72.66 0,-24.56 3.19,-48.76 9.54,-72.67 6.4,-23.88 16.42,-45.36 30.08,-64.48 13.59,-19.1 31.17,-34.42 52.51,-45.99 21.36,-11.64 46.86,-17.47 76.43,-17.47 23.2,0 45.7,4.5 67.57,13.65 l -53.95,42.99 34.16,39.59 z m 4.1,-69.62 c -32.79,-19.08 -71.65,-28.65 -116.7,-28.65 -38.7,0 -72.55,6.92 -101.66,20.81 -29.12,13.92 -53.47,32.68 -73.03,56.3 -19.58,23.64 -34.23,50.88 -44.01,81.55 -9.8,30.71 -14.68,62.69 -14.68,95.86 0,33.24 4.88,65.18 14.68,95.94 9.78,30.68 24.43,57.85 44.01,81.5 19.56,23.61 43.91,42.57 73.03,56.61 29.11,14.15 62.96,21.17 101.66,21.17 38.65,0 72.55,-7.02 101.68,-21.17 29.12,-14.04 53.43,-33 73.01,-56.64 19.56,-23.62 34.23,-50.83 44.03,-81.47 9.76,-30.76 14.66,-62.7 14.66,-95.94 0,-37.28 -6.14,-72.79 -18.43,-106.43 -12.28,-33.66 -30.7,-62.75 -55.25,-87.32 l 64.14,-50.49 -32.78,-41 -74.36,59.37"
         style="fill:#231f20;fill-opacity:1;fill-rule:nonzero;stroke:none"
         id="path1967" />
      <path
         d="m 4586.56,3093.66 c -33.22,-31.19 -80.51,-46.75 -141.93,-46.75 -62.79,0 -111.8,14.9 -147.05,44.69 -35.26,29.83 -52.89,77.24 -52.89,142.31 v 311.13 h 64.82 v -311.13 c 0,-43.65 11.61,-76.78 34.81,-99.28 23.18,-22.57 56.64,-33.81 100.31,-33.81 41.43,0 72.91,11.24 94.54,33.81 21.58,22.5 32.37,55.63 32.37,99.28 v 311.13 h 64.83 v -311.13 c 0,-62.35 -16.59,-109.1 -49.81,-140.25"
         style="fill:#231f20;fill-opacity:1;fill-rule:nonzero;stroke:none"
         id="path1969" />
      <path
         d="m 5076.54,3545.04 v -54.56 h -271.62 v -154.89 h 253.18 v -54.61 h -253.18 v -168.56 l 273.63,0.03 v -54.64 h -338.47 v 487.23 h 336.46"
         style="fill:#231f20;fill-opacity:1;fill-rule:nonzero;stroke:none"
         id="path1971" />
      <path
         d="m 1960.69,865.512 c 19.15,19.168 33.25,42.429 42.35,69.949 9.1,27.469 13.66,56.258 13.66,86.319 0,24.59 -3.21,48.84 -9.56,72.69 -6.42,23.9 -16.39,45.36 -30.05,64.49 -13.62,19.14 -31.17,34.44 -52.56,46.06 -21.39,11.61 -46.86,17.35 -76.43,17.35 -29.55,0 -55.02,-5.74 -76.43,-17.35 -21.37,-11.62 -38.85,-26.92 -52.51,-46.06 -13.62,-19.13 -23.69,-40.59 -30.03,-64.49 -6.4,-23.85 -9.56,-48.1 -9.56,-72.69 0,-24.55 3.16,-48.78 9.56,-72.678 6.34,-23.883 16.41,-45.321 30.03,-64.422 13.66,-19.168 31.14,-34.539 52.51,-46.11 21.41,-11.621 46.88,-17.328 76.43,-17.328 23.25,0 45.75,4.438 67.57,13.559 l -53.91,43.051 34.11,39.519 z m 4.13,-69.571 c -32.76,-19.121 -71.7,-28.66 -116.72,-28.66 -38.63,0 -72.55,6.879 -101.62,20.789 -29.13,13.86 -53.49,32.641 -73.05,56.309 -19.6,23.672 -34.25,50.859 -44.01,81.551 -9.8,30.679 -14.7,62.609 -14.7,95.85 0,33.18 4.9,65.23 14.7,95.88 9.76,30.7 24.41,57.91 44.01,81.57 19.56,23.64 43.92,42.51 73.05,56.64 29.07,14.1 62.99,21.18 101.62,21.18 38.67,0 72.57,-7.08 101.69,-21.18 29.11,-14.13 53.42,-33 73.05,-56.64 19.53,-23.66 34.21,-50.87 43.98,-81.57 9.78,-30.65 14.68,-62.7 14.68,-95.88 0,-37.311 -6.16,-72.78 -18.42,-106.471 -12.29,-33.668 -30.68,-62.688 -55.26,-87.309 l 64.12,-50.508 -32.76,-40.961 -74.36,59.41"
         style="fill:#231f20;fill-opacity:1;fill-rule:nonzero;stroke:none"
         id="path1973" />
      <path
         d="m 2499.82,814.012 c -33.21,-31.16 -80.51,-46.731 -141.97,-46.731 -62.77,0 -111.78,14.871 -147.05,44.668 -35.27,29.781 -52.89,77.242 -52.89,142.281 v 311.16 h 64.84 V 954.23 c 0,-43.648 11.59,-76.761 34.81,-99.289 23.18,-22.472 56.64,-33.699 100.29,-33.699 41.43,0 72.93,11.227 94.54,33.699 21.58,22.528 32.42,55.641 32.42,99.289 v 311.16 h 64.8 V 954.23 c 0,-62.281 -16.61,-109.05 -49.79,-140.218"
         style="fill:#231f20;fill-opacity:1;fill-rule:nonzero;stroke:none"
         id="path1975" />
      <path
         d="m 2832.81,1410.8 -65.54,-110.54 h 43.72 l 96.18,110.54 z m 156.95,-145.41 v -54.61 h -271.62 v -154.86 h 253.2 v -54.61 h -253.2 V 832.781 h 273.62 v -54.582 h -338.44 v 487.191 h 336.44"
         style="fill:#231f20;fill-opacity:1;fill-rule:nonzero;stroke:none"
         id="path1977" />
      <path
         d="m 3297.52,832.781 c 28.63,0 51.05,7.719 67.18,23.199 16.16,15.481 24.27,36.809 24.27,64.172 0,15.907 -2.97,29.059 -8.89,39.567 -5.94,10.472 -13.79,18.75 -23.51,24.89 -9.81,6.153 -21.08,10.45 -33.83,12.95 -12.74,2.491 -25.92,3.751 -39.57,3.751 H 3135.11 V 832.781 Z m -32.76,223.139 c 36.84,0 63.37,6.46 79.49,19.48 16.16,12.91 24.24,32.44 24.24,58.25 0,17.34 -2.75,30.98 -8.21,40.96 -5.47,10.03 -12.96,17.8 -22.52,23.21 -9.51,5.44 -20.57,9.05 -33.08,10.63 -12.52,1.59 -25.83,2.33 -39.92,2.33 h -129.65 v -154.86 z m -17.77,209.47 c 10.48,0 21.78,-0.1 33.8,-0.28 12.04,-0.32 23.99,-0.95 35.85,-2.08 11.83,-1.11 22.86,-2.86 33.07,-5.12 10.24,-2.29 19,-5.7 26.27,-10.18 15.93,-9.59 29.47,-22.82 40.6,-39.62 11.13,-16.86 16.76,-37.54 16.76,-62.17 0,-25.87 -6.28,-48.28 -18.78,-67.14 -12.56,-18.9 -30.37,-32.9 -53.58,-41.98 v -1.44 c 30.01,-6.29 53,-19.95 68.93,-40.829 15.89,-20.992 23.9,-46.469 23.9,-76.469 0,-17.762 -3.23,-35.043 -9.59,-51.891 -6.37,-16.781 -15.81,-31.742 -28.34,-44.671 -12.48,-12.938 -27.95,-23.457 -46.37,-31.399 -18.45,-7.969 -39.71,-11.922 -63.81,-11.922 h -235.43 v 487.191 h 176.72"
         style="fill:#231f20;fill-opacity:1;fill-rule:nonzero;stroke:none"
         id="path1979" />
      <path
         d="m 3874.14,1265.39 v -54.61 h -271.6 v -154.86 h 253.15 v -54.61 H 3602.54 V 832.781 h 273.63 v -54.582 h -338.44 v 487.191 h 336.41"
         style="fill:#231f20;fill-opacity:1;fill-rule:nonzero;stroke:none"
         id="path1981" />
      <path
         d="m 4249.08,1196.5 c -24.79,17.25 -54.19,25.87 -88.36,25.87 -29.11,0 -54.03,-5.41 -74.71,-16.36 -20.69,-10.84 -37.79,-25.58 -51.19,-43.97 -13.37,-18.42 -23.34,-39.47 -29.69,-63.12 -6.35,-23.68 -9.56,-48.25 -9.56,-73.74 0,-27.719 3.21,-53.981 9.56,-78.77 6.35,-24.851 16.32,-46.43 29.69,-64.828 13.4,-18.453 30.6,-33.09 51.52,-43.973 20.94,-10.988 45.95,-16.367 75.09,-16.367 21.41,0 40.36,3.449 56.97,10.5 16.59,7.067 30.93,16.848 42.97,29.387 12.05,12.43 21.51,27.391 28.32,44.672 6.83,17.238 10.91,35.941 12.29,55.949 h 64.82 c -6.35,-61.43 -27.47,-109.129 -63.44,-143.309 -35.95,-34.089 -85.11,-51.16 -147.39,-51.16 -37.76,0 -70.78,6.438 -98.96,19.449 -28.22,12.95 -51.61,30.739 -70.32,53.571 -18.61,22.73 -32.62,49.551 -41.91,80.539 -9.37,30.879 -14,64.152 -14,99.59 0,35.49 5.02,68.82 14.99,99.92 10.02,31.18 24.67,58.36 44.01,81.6 19.34,23.17 43.45,41.55 72.35,54.95 28.88,13.35 61.97,20.15 99.3,20.15 25.47,0 49.58,-3.43 72.33,-10.25 22.71,-6.82 42.99,-16.88 60.68,-30.02 17.77,-13.22 32.6,-29.75 44.4,-49.5 11.81,-19.78 19.56,-42.69 23.18,-68.58 h -64.82 c -7.29,34.53 -23.32,60.51 -48.12,77.8"
         style="fill:#231f20;fill-opacity:1;fill-rule:nonzero;stroke:none"
         id="path1983" />
      <path
         d="m 802.711,2822.34 h 870.879 l -82.01,-335.39 h -417.4 l -41.29,-176.23 h 435.47 L 1492.52,2000 h -429.8 L 959.555,1558.57 H 509.621 l 293.09,1263.77 v 0"
         style="fill:#231f20;fill-opacity:1;fill-rule:nonzero;stroke:none"
         id="path1985" />
      <path
         d="m 1791.99,2822.34 h 449.98 l -293.14,-1263.8 -449.88,0.03 293.04,1263.77 v 0"
         style="fill:#231f20;fill-opacity:1;fill-rule:nonzero;stroke:none"
         id="path1987" />
      <path
         d="m 2359.61,2814.72 28.89,3.83 c 144.49,17.05 324.05,28.38 423.07,28.38 165.14,0 293.09,-18.93 390.13,-58.72 123.8,-51.15 198.08,-162.93 198.08,-297.47 0,-115.56 -39.21,-225.52 -113.59,-310.78 -63.95,-73.84 -121.67,-109.89 -241.38,-145.84 l -28.89,-9.43 c 12.39,-9.48 16.49,-13.3 22.71,-18.99 35.12,-39.85 140.3,-244.48 229.05,-447.16 h -495.33 c -63.99,179.96 -82.52,227.37 -167.11,432 l -99.11,-432 h -437.49 l 290.97,1256.18 z m 332.3,-594.91 c 144.45,0 245.59,85.28 245.59,206.47 0,64.46 -47.46,96.66 -140.35,96.66 -26.82,0 -41.29,-1.86 -70.18,-7.56 l -68.15,-291.8 c 14.47,-1.9 16.6,-3.77 33.09,-3.77 v 0"
         style="fill:#231f20;fill-opacity:1;fill-rule:nonzero;stroke:none"
         id="path1989" />
      <path
         d="M 4467.83,2822.34 H 5559.5 l -76.3,-365.87 h -323.95 l -214.62,-897.93 h -449.94 l 214.63,897.93 h -351.18 l 109.69,365.87 v 0"
         style="fill:#231f20;fill-opacity:1;fill-rule:nonzero;stroke:none"
         id="path1991" />
      <path
         d="m 3311.95,1590.7 c 126.48,-37.6 264.86,-58.68 394.08,-58.68 175.41,0 309.53,39.72 425.14,123.13 127.91,90.99 210.52,231.16 210.52,358.1 0,85.31 -37.13,162.94 -103.21,217.91 -51.6,41.69 -105.24,73.93 -214.62,125.1 l -88.8,41.64 c -28.88,15.15 -43.3,30.35 -43.3,47.36 0,45.48 57.83,79.56 136.2,79.56 58.69,0 128.61,-17.05 262.23,-60.72 l 92.18,342.07 c -99.87,27.14 -197.27,40.76 -294.56,40.76 -367.37,0 -650.08,-200.86 -650.08,-460.39 0,-136.43 90.76,-233.06 317.78,-339.2 107.36,-49.21 125.93,-62.47 125.93,-96.6 0,-51.15 -55.76,-83.37 -146.52,-83.37 -80.55,0 -183.66,24.58 -324.06,75.79 l -0.15,-0.1 -98.76,-352.36 v 0"
         style="fill:#231f20;fill-opacity:1;fill-rule:nonzero;stroke:none"
         id="path1993" />
      <path
         d="m 5071.4863,1558.5391 v 199.7714 h 43.3477 l 56.0234,-149.3691 56.2656,149.3691 h 43.3633 v -199.7714 h -34.3711 v 135.2343 l -50.7734,-135.2343 h -28.7324 l -50.7637,135.1894 v -135.1894 z"
         style="fill:#231f20;fill-opacity:1;fill-rule:nonzero;stroke:none"
         id="path1995"
         inkscape:path-effect="#path-effect2121"
         inkscape:original-d="m 5111.196,1753.0599 59.65,-159.04 59.91,159.04 h 34.48 v -189.27 h -23.87 v 157.47 h -0.54 l -59.12,-157.47 h -21.46 l -59.13,157.47 h -0.52 v -157.47 h -23.86 v 189.27 h 34.46" />
      <path
         d="m 5301.8555,1558.5391 v 199.7714 h 70.2011 c 30.0856,0 53.9586,-7.6578 70.9571,-23.6953 17.0775,-16.1529 25.2129,-40.3131 25.2129,-71.6855 0,-16.268 -1.8153,-30.8867 -5.4844,-43.7129 l -0,-0.01 v -0.01 c -3.7381,-12.952 -9.5655,-24.001 -17.5566,-33.0274 -8.0366,-9.1103 -18.1919,-15.9571 -30.4024,-20.6543 -12.2172,-4.7251 -26.5223,-6.9843 -42.7246,-6.9843 z m 35.6914,31.7011 h 36.6191 c 2.5923,0 5.9204,0.201 10.0547,0.6485 l 0.016,0 0.018,0 c 3.7427,0.3804 7.8251,1.338 12.3242,2.9023 4.2857,1.5235 8.6032,3.7338 12.9629,6.6699 4.0427,2.7482 7.7943,6.5761 11.1973,11.5977 5e-4,8e-4 0,0 0,0 3.3156,4.9174 6.1694,11.2381 8.4551,19.0761 2.2054,7.6213 3.3613,17.0291 3.3613,28.3496 0,10.9772 -1.077,20.6523 -3.166,29.084 -2.0609,8.2993 -5.3818,15.186 -9.873,20.7754 -4.4254,5.5251 -10.2161,9.8037 -17.3731,12.7422 -7.1742,2.9419 -16.2334,4.5176 -27.4394,4.5176 h -37.1582 z"
         style="fill:#231f20;fill-opacity:1;fill-rule:nonzero;stroke:none"
         id="path1997"
         inkscape:path-effect="#path-effect2123"
         inkscape:original-d="m 5374.166,1584.9899 c 2.83,0 6.37,0.22 10.62,0.68 4.23,0.43 8.73,1.5 13.53,3.17 4.76,1.69 9.48,4.12 14.17,7.28 4.68,3.18 8.88,7.51 12.6,13 3.69,5.47 6.75,12.32 9.15,20.55 2.38,8.22 3.57,18.16 3.57,29.82 0,11.31 -1.11,21.43 -3.32,30.35 -2.22,8.94 -5.84,16.53 -10.87,22.79 -5.03,6.28 -11.54,11.06 -19.48,14.32 -7.95,3.26 -17.76,4.91 -29.43,4.91 h -42.41 v -146.87 z m -2.11,168.07 c 29.14,0 51.61,-7.41 67.35,-22.26 15.7,-14.85 23.57,-37.46 23.57,-67.87 0,-15.89 -1.77,-30 -5.28,-42.27 -3.55,-12.3 -9.04,-22.64 -16.45,-31.01 -7.41,-8.4 -16.87,-14.81 -28.36,-19.23 -11.48,-4.44 -25.1,-6.63 -40.83,-6.63 h -64.95 v 189.27 h 64.95" />
      <path
         d="m 1784.98,4754.24 -29.88,-156.22 297.55,127.67 c -19,39.98 -34.32,81.34 -45.31,123.8 l -222.36,-95.25"
         style="fill:#231f20;fill-opacity:1;fill-rule:nonzero;stroke:none"
         id="path1999" />
      <path
         d="m 4233.25,4129.34 -244.55,234.87 c 96,65.75 177.45,142.98 240.11,228.86 0.83,1.28 1.6,2.56 2.52,3.71 l 594.85,617.7 17.69,19.08 77.7,80.82 -726.56,697.42 -163.33,-169.97 -180.06,-187.59 -354.04,-368.79 0.13,-0.16 -19.96,-20.8 67.44,-64.66 313,-305.19 c -68.5,-64.84 -155.49,-120.36 -253.76,-161.29 -0.09,-0.07 -0.16,-0.07 -0.16,-0.07 l -206.67,198.34 -202.82,194.78 -137.99,130.82 1118.89,1165.36 1177.51,-1126.97 z m 151.7,990.01 c 5.36,34.89 8.27,69.37 8.27,102.5 0,195.18 -88.42,401.08 -236.94,554.61 l 38.73,40.28 601.83,-577.83 -498.34,-518.85 c 52.97,122.99 87.21,274.79 87.21,383.61 0,4.65 -0.31,9.97 -0.76,15.68 z m -500.19,-198.27 -284.1,276.7 240.5,250.57 c 85.68,-71.4 148.95,-156.58 182.44,-250.37 -2.11,-15.26 -4.63,-30.66 -8.49,-46.07 -20.18,-82.97 -64.2,-160.49 -130.35,-230.83 z m -47.31,-413.59 c -43.8,-22.32 -90.41,-42.56 -138.46,-60.31 -164.72,-60.85 -342.51,-91.73 -528.17,-91.73 -263.23,0 -512.37,62.6 -720.49,181.05 -115.1,65.48 -211.71,144.88 -287.22,236.05 -28.91,34.8 -54.38,71.12 -75.9,107.98 -44.34,75.68 -73.6,155.39 -86.95,236.92 -6,36.37 -8.98,70.51 -8.98,104.4 0,126.1 36.2,247.45 107.61,361.13 l 191.51,-193.77 c -13.1,-44.42 -19.61,-89.62 -19.61,-134.53 0,-37.31 4.6,-75.29 13.81,-113.03 12.97,-53.05 35.41,-105.09 66.52,-154.56 24.7,-39.19 54.81,-76.49 89.32,-111.05 95.07,-94.82 223.94,-169.54 372.83,-215.92 113.06,-35.19 233.23,-53.07 357.55,-53.07 100.22,0 199.41,11.92 294.58,35.5 54.28,13.56 106.7,30.72 155.6,51.03 112.59,46.92 211.73,112.3 286.72,189.06 76.2,78.14 126.36,165.28 149.27,259.09 9.17,37.92 13.89,75.92 13.89,112.95 0,106.62 -40.19,227.35 -105.6,319.63 l 162.94,169.64 c 139.35,-145.36 222.03,-338.92 222.03,-522.1 0,-33.67 -3.06,-68.77 -8.87,-104.4 -25.22,-153.67 -106.79,-300.02 -235.86,-423.24 -75.6,-72.31 -165.78,-135.13 -268.07,-186.72 z m -1879.61,603.02 c 0.21,-1.44 0.59,-2.82 0.81,-4.18 -0.43,-5.47 -0.81,-10.58 -0.81,-14.6 0,-57.56 35.24,-194.06 49.45,-248.59 0,-0.09 0.09,-0.17 0.09,-0.24 l -187.04,-79.92 178.36,929.57 73.25,-72.4 c -81.85,-124.71 -123.63,-258.6 -123.63,-398.3 0,-36.26 3.04,-72.69 9.52,-111.34 z m 436.51,-109.9 c -2.14,3.2 -4.71,6.13 -6.73,9.4 -28.67,45.6 -49.34,93.41 -61.18,141.9 -1.24,5.15 -1.81,10.27 -2.94,15.35 13.92,48.92 35.99,95.74 64.92,139.9 l 227.29,-225 z m 862.77,-129.21 195.52,-187.63 c -91.13,-22.27 -185.97,-33.67 -281.82,-33.67 -119.93,0 -235.91,17.17 -344.75,51.2 -14.48,4.48 -28.65,9.49 -42.79,14.47 l 433.12,194.86 z m -1909.14,-774.36 419.81,2338.71 930.56,-881.87 340.55,-324.74 v -148.1 l 144.88,-139.09 -452.37,-205.85 c -102.1,43.26 -191.08,101.13 -260.55,170.46 -1.5,1.61 -2.79,3.33 -4.44,4.88 l 347.12,162.17 -816.22,759.98 -16.08,16.21 -19.54,-105.27 -192.73,-1004.67 -29.8,-156.05 51.06,21.86 0.18,1.26 262.24,112.31 c 40.97,-86.38 99.68,-166.65 172.9,-238.48 z m 2034.8,1551.47 -350.22,-364.72 -307.68,291.55 c 132.1,57.45 287.27,90.81 453.51,90.81 70.41,0 138.79,-6.28 204.39,-17.64 z m -252.34,475.22 c 190.03,0 444.08,-48.73 605.3,-107.57 l -7.28,-7.51 -179.06,-186.38 -0.62,-0.68 c -112.52,37.61 -237.98,58.84 -370.39,58.84 -231.22,0 -441.13,-64.24 -597.32,-168.76 l -2.29,2.18 -187.79,177.9 -16.67,15.91 c 205.18,123.87 471.45,216.07 756.12,216.07 z m 2249.67,-800.49 v 0.45 l -0.24,-0.21 -1204.19,1150.99 -404.95,-421.88 c -167.44,64.71 -430.53,116.71 -630.51,116.71 -291.03,0 -590.99,-99.31 -800.48,-228.96 l -564.76,535.26 0.05,0.62 -0.62,-0.1 -0.39,0.31 -0.12,-0.39 -201.92,-21.13 -436.09,-2387.44 202.93,-21.13 0.16,0.62 920.08,402.51 c 1.45,-1.33 2.87,-2.74 4.33,-4.09 218.93,-193.1 547.52,-316.04 915,-316.04 254.99,0 491.08,59.31 684.98,160.07 l 369.88,-355.13 1146.86,1194.35 v 194.27 l 0.15,0.22 -0.15,0.12"
         style="fill:#231f20;fill-opacity:1;fill-rule:nonzero;stroke:none"
         id="path2001" />
    </g>
  </g>
</svg>
