<?xml version="1.0" encoding="UTF-8" standalone="no"?>
<svg
   class="img-fluid"
   id="outputsvg"
   width="307.43359"
   height="68.133331"
   viewBox="0 0 3074.336 681.33331"
   version="1.1"
   sodipodi:docname="mitra_text_vectorised.svg"
   inkscape:version="1.2.2 (b0a8486541, 2022-12-01)"
   xmlns:inkscape="http://www.inkscape.org/namespaces/inkscape"
   xmlns:sodipodi="http://sodipodi.sourceforge.net/DTD/sodipodi-0.dtd"
   xmlns="http://www.w3.org/2000/svg"
   xmlns:svg="http://www.w3.org/2000/svg">
  <defs
     id="defs69" />
  <sodipodi:namedview
     id="namedview67"
     pagecolor="#ffffff"
     bordercolor="#000000"
     borderopacity="0.25"
     inkscape:showpageshadow="2"
     inkscape:pageopacity="0.0"
     inkscape:pagecheckerboard="0"
     inkscape:deskcolor="#d1d1d1"
     showgrid="false"
     inkscape:zoom="6.6111112"
     inkscape:cx="216.52941"
     inkscape:cy="45.529411"
     inkscape:window-width="1890"
     inkscape:window-height="991"
     inkscape:window-x="1095"
     inkscape:window-y="882"
     inkscape:window-maximized="0"
     inkscape:current-layer="outputsvg" />
  <g
     id="l3lSXowiUBdVdj5Ln1xLGEe"
     fill="#e1b763"
     transform="translate(-285.66399,-700)">
    <g
       id="g15">
      <path
         id="phTAX1L1Y"
         d="m 2620,760 v -60 h 120 120 v 60 60 h -120 -120 z" />
    </g>
  </g>
  <g
     id="l2dLnYrUGpM0o5HRBVdHwzB"
     fill="#cd8206"
     transform="translate(-285.66399,-700)">
    <g
       id="g32">
      <path
         id="pFywc1VgR"
         d="M 3200,1100 V 820 h -140 -140 v -60 -60 h 220 220 v 340 340 h -80 -80 z" />
    </g>
  </g>
  <g
     id="l4c5TdmHBQ7saMFd5GB7tzD"
     fill="#084b8f"
     transform="translate(-285.66399,-700)">
    <g
       id="g63">
      <path
         id="pcwXV2Dgk"
         d="M 2480,1130 V 880 h 330 330 v 250 250 h -35 c -30,0 -37,-5 -55,-40 -12,-23 -26,-42 -33,-44 -56,-15 -119.4992,-32.3585 -123,-24 -2.1179,5.0567 22,15 55,27 50,18 91.4796,57 91.4796,81 0,3 -126.4796,0 -280.4796,0 h -280 z m 162,166 c 15,-8 36,-12 47,-9 15,4 26,-5 46,-36 14,-23 33.5672,-55.0108 36.5672,-73.0108 12.6292,-31.7424 -13.3656,-41.2615 -37.4629,6.4502 -36,56 -38.2839,56.0976 -108.2839,76.0976 -57,16 -74.8204,49.463 -33.8204,49.463 13,0 35,-6 50,-14 z m 311,-84 c 9,-8 16,-27 15,-41 -1,-14 4,-36 10,-48 10,-18 6,-31 -27,-90 -21,-37 -53,-78 -71,-90 -64,-44 -171,-20 -204,45 -22,43 -28,72 -17,72 6,0 7.8159,-9.5205 11,-19 18.8026,-55.97904 60.7449,-87.60431 85,-95 30.7206,-9.36709 93,-8 132,42 33,44 70.3171,109.3753 63,127 -2.425,5.8412 -4,25 -4,44 -1,33 -17.7206,28.0358 -79.7206,51.0358 0,0 -53.5996,19.3089 -47.8069,28.5216 5.9307,9.4323 52.533,3.2817 52.533,3.2817 33,-3 71.9945,-20.8391 81.9945,-29.8391 z"
         sodipodi:nodetypes="ccccccsccscssccscccccsscsccccssscsccscc" />
    </g>
  </g>
  <g
     aria-label="MITRA"
     id="text502"
     style="font-size:720.513px;font-family:'ITC Giovanni Std Book';-inkscape-font-specification:'ITC Giovanni Std Book, ';font-variant-ligatures:no-contextual;fill:#cd8206;stroke-width:80;stroke-linecap:square;stop-color:#000000">
    <path
       d="M -7.6293944e-8,679.90088 H 149.14619 v -15.85129 l -28.82052,-4.32308 c -33.86411,-3.60256 -33.86411,-15.85128 -33.86411,-58.36155 0,-22.3359 10.087182,-226.24108 12.248721,-267.31032 h 1.441029 c 5.7641,14.41026 12.24872,28.10001 19.45385,41.78975 49.7154,95.10772 141.22055,270.91289 157.07183,304.05649 l 20.17437,-9.36667 c 3.60256,-7.20513 6.48461,-15.85129 10.08718,-23.05642 71.33079,-140.50003 144.82311,-281.72058 157.07183,-313.42315 h 1.44103 c 0,46.11283 12.24872,197.42056 12.24872,277.3975 0,33.1436 -2.88205,44.67181 -33.86411,48.27437 l -28.10001,4.32308 v 15.85129 h 184.45133 v -15.85129 l -21.61539,-4.32308 c -12.96923,-2.16153 -23.77693,-6.48461 -27.37949,-13.68974 -5.76411,-10.8077 -10.8077,-80.69746 -13.68975,-141.94106 L 531.01808,379.44696 C 525.97449,284.33924 520.9309,203.64179 520.9309,197.87768 l -18.73334,6.48462 C 488.50781,241.10846 327.1129,548.76751 304.05649,585.51368 281.72058,545.88546 117.44362,235.34436 95.828229,197.87768 l -19.453851,6.48462 c 0,19.45385 -5.043591,97.26925 -7.925643,146.26414 L 56.920527,532.19571 c -4.323078,65.56669 -9.366669,111.67952 -16.571799,118.88465 -4.323078,3.60256 -11.528208,6.48462 -22.335903,8.64615 L -7.6293944e-8,664.04959 Z"
       id="path2645" />
    <path
       d="m 652.78473,679.90088 h 175.08466 v -15.85129 l -25.93847,-2.16154 c -28.1,-2.88205 -28.1,-6.48461 -28.1,-94.3872 V 316.76233 c 0,-87.90259 0,-91.50515 28.1,-94.38721 l 25.93847,-2.16154 V 204.3623 H 652.78473 v 15.85128 l 25.93847,2.16154 c 28.10001,2.88206 28.10001,6.48462 28.10001,94.38721 v 250.73852 c 0,87.90259 0,91.50515 -28.10001,94.3872 l -25.93847,2.16154 z"
       id="path2647" />
    <path
       d="m 953.95931,679.90088 h 199.58209 v -15.85129 l -25.9385,-2.16154 c -40.3487,-2.88205 -40.3487,-6.48461 -40.3487,-94.3872 V 224.53666 h 37.4667 c 101.5923,0 103.0333,10.8077 118.8846,94.38721 h 17.2923 c 0,-2.88206 1.4411,-22.33591 1.4411,-31.70258 0,-33.14359 -5.0436,-67.00771 -7.9257,-82.85899 H 853.08749 c -2.88206,15.85128 -7.92565,49.7154 -7.92565,82.85899 0,9.36667 1.44103,28.82052 1.44103,31.70258 h 17.29231 c 15.85129,-83.57951 17.29231,-94.38721 118.88465,-94.38721 h 37.46667 v 342.96419 c 0,87.90259 0,91.50515 -39.62821,94.3872 l -26.65898,2.16154 z"
       id="path2649" />
    <path
       d="m 1281.7932,679.90088 h 174.3641 v -15.85129 l -25.9384,-2.16154 c -27.3795,-2.88205 -27.3795,-6.48461 -27.3795,-94.3872 v -95.10772 h 26.659 c 15.1307,0 33.1436,0 44.6718,9.36667 9.3666,7.92565 25.9384,35.30514 44.6718,70.61028 l 28.8205,55.4795 c 21.6154,39.62821 54.759,72.0513 102.3128,72.0513 h 55.4795 v -15.85129 c -15.8512,0 -28.8205,-2.88205 -36.0256,-7.20513 -18.0128,-10.08718 -49.7154,-52.59745 -79.977,-106.63592 -19.4538,-34.58463 -43.2307,-80.69746 -54.0384,-100.87182 39.6282,-18.73334 99.4308,-58.36155 99.4308,-125.36926 0,-109.51798 -96.5488,-119.60516 -164.9975,-119.60516 h -188.0539 v 15.85128 l 25.9385,2.16154 c 28.1,2.88206 28.1,6.48462 28.1,94.38721 v 250.73852 c 0,87.90259 0,91.50515 -28.1,94.3872 l -25.9385,2.16154 z m 121.0462,-445.99755 c 14.4102,-2.88205 29.541,-5.7641 44.6718,-5.7641 56.2,0 111.6795,25.93847 111.6795,110.23849 0,81.41797 -54.759,113.84105 -115.2821,113.84105 h -41.0692 z"
       id="path2651" />
    <path
       d="m 1678.0754,679.90088 h 151.3078 v -15.85129 l -43.2308,-5.7641 c -7.9257,-0.72051 -17.2923,-2.88205 -17.2923,-16.5718 0,-5.7641 5.7641,-25.21796 14.4102,-48.27437 l 36.7462,-100.15131 c 25.2179,-4.32308 50.4359,-7.20513 75.6538,-7.20513 26.659,0 53.318,2.16154 79.977,7.20513 l 50.4359,136.17696 c 1.441,5.04359 4.3231,10.08718 4.3231,15.13077 0,7.92564 -9.3667,11.52821 -22.3359,13.68975 l -32.4231,5.7641 v 15.85129 h 178.6872 v -15.85129 l -28.8205,-4.32308 c -18.7333,-3.60256 -25.9385,-20.17436 -36.7462,-48.99488 l -160.6744,-417.17703 -20.8948,7.20513 c -5.7641,13.68975 -11.5283,28.10001 -17.2924,42.51027 l -149.8667,364.57958 c -17.2923,41.78975 -20.8948,49.7154 -48.2743,54.03847 l -13.6898,2.16154 z m 219.7565,-388.35651 66.2872,174.36415 c -23.0564,-2.88205 -46.1128,-3.60257 -69.1693,-3.60257 -21.6154,0 -43.9513,2.16154 -65.5666,3.60257 z"
       id="path2653" />
  </g>
</svg>
