<?xml version="1.0" encoding="UTF-8" standalone="no"?>
<svg
   class="img-fluid"
   id="outputsvg"
   width="307.43359"
   height="68.133331"
   viewBox="0 0 3074.336 681.33331"
   version="1.1"
   sodipodi:docname="mitra.svg"
   inkscape:version="1.2.2 (b0a8486541, 2022-12-01)"
   xmlns:inkscape="http://www.inkscape.org/namespaces/inkscape"
   xmlns:sodipodi="http://sodipodi.sourceforge.net/DTD/sodipodi-0.dtd"
   xmlns="http://www.w3.org/2000/svg"
   xmlns:svg="http://www.w3.org/2000/svg">
  <defs
     id="defs69" />
  <sodipodi:namedview
     id="namedview67"
     pagecolor="#ffffff"
     bordercolor="#000000"
     borderopacity="0.25"
     inkscape:showpageshadow="2"
     inkscape:pageopacity="0.0"
     inkscape:pagecheckerboard="0"
     inkscape:deskcolor="#d1d1d1"
     showgrid="false"
     inkscape:zoom="6.6111112"
     inkscape:cx="239.82353"
     inkscape:cy="45.529411"
     inkscape:window-width="1890"
     inkscape:window-height="991"
     inkscape:window-x="1095"
     inkscape:window-y="882"
     inkscape:window-maximized="0"
     inkscape:current-layer="outputsvg" />
  <g
     id="l3lSXowiUBdVdj5Ln1xLGEe"
     fill="#e1b763"
     transform="translate(-285.66399,-700)">
    <g
       id="g15">
      <path
         id="phTAX1L1Y"
         d="m 2620,760 v -60 h 120 120 v 60 60 h -120 -120 z" />
    </g>
  </g>
  <g
     id="l2dLnYrUGpM0o5HRBVdHwzB"
     fill="#cd8206"
     transform="translate(-285.66399,-700)">
    <g
       id="g32">
      <path
         id="pFywc1VgR"
         d="M 3200,1100 V 820 h -140 -140 v -60 -60 h 220 220 v 340 340 h -80 -80 z" />
    </g>
  </g>
  <g
     id="l4c5TdmHBQ7saMFd5GB7tzD"
     fill="#084b8f"
     transform="translate(-285.66399,-700)">
    <g
       id="g63">
      <path
         id="pcwXV2Dgk"
         d="M 2480,1130 V 880 h 330 330 v 250 250 h -35 c -30,0 -37,-5 -55,-40 -12,-23 -26,-42 -33,-44 -56,-15 -119.4992,-32.3585 -123,-24 -2.1179,5.0567 22,15 55,27 50,18 91.4796,57 91.4796,81 0,3 -126.4796,0 -280.4796,0 h -280 z m 162,166 c 15,-8 36,-12 47,-9 15,4 26,-5 46,-36 14,-23 33.5672,-55.0108 36.5672,-73.0108 12.6292,-31.7424 -13.3656,-41.2615 -37.4629,6.4502 -36,56 -38.2839,56.0976 -108.2839,76.0976 -57,16 -74.8204,49.463 -33.8204,49.463 13,0 35,-6 50,-14 z m 311,-84 c 9,-8 16,-27 15,-41 -1,-14 4,-36 10,-48 10,-18 6,-31 -27,-90 -21,-37 -53,-78 -71,-90 -64,-44 -171,-20 -204,45 -22,43 -28,72 -17,72 6,0 7.8159,-9.5205 11,-19 18.8026,-55.97904 60.7449,-87.60431 85,-95 30.7206,-9.36709 93,-8 132,42 33,44 70.3171,109.3753 63,127 -2.425,5.8412 -4,25 -4,44 -1,33 -17.7206,28.0358 -79.7206,51.0358 0,0 -53.5996,19.3089 -47.8069,28.5216 5.9307,9.4323 52.533,3.2817 52.533,3.2817 33,-3 71.9945,-20.8391 81.9945,-29.8391 z"
         sodipodi:nodetypes="ccccccsccscssccscccccsscsccccssscsccscc" />
    </g>
  </g>
  <text
     xml:space="preserve"
     style="font-style:normal;font-variant:normal;font-weight:normal;font-stretch:normal;font-size:720.513px;font-family:'ITC Giovanni Std Book';-inkscape-font-specification:'ITC Giovanni Std Book, ';font-variant-ligatures:no-contextual;fill:#cd8206;fill-opacity:1;stroke-width:80;stroke-linecap:square;stop-color:#000000"
     x="-20.174364"
     y="679.90088"
     id="text502"><tspan
       sodipodi:role="line"
       id="tspan500"
       style="font-style:normal;font-variant:normal;font-weight:normal;font-stretch:normal;font-family:'ITC Giovanni Std Book';-inkscape-font-specification:'ITC Giovanni Std Book, ';fill:#cd8206;fill-opacity:1;stroke-width:80"
       x="-20.174364"
       y="679.90088">MITRA</tspan></text>
</svg>
