<?xml version="1.0" encoding="UTF-8" standalone="no"?>
<!-- Created with Inkscape (http://www.inkscape.org/) -->

<svg
   version="1.1"
   id="svg2"
   width="340.70465"
   height="55.402664"
   viewBox="0 0 340.70465 55.402664"
   sodipodi:docname="optimiste_text_vectorised.svg"
   inkscape:version="1.2.2 (b0a8486541, 2022-12-01)"
   xmlns:inkscape="http://www.inkscape.org/namespaces/inkscape"
   xmlns:sodipodi="http://sodipodi.sourceforge.net/DTD/sodipodi-0.dtd"
   xmlns="http://www.w3.org/2000/svg"
   xmlns:svg="http://www.w3.org/2000/svg">
  <defs
     id="defs6">
    <clipPath
       clipPathUnits="userSpaceOnUse"
       id="clipPath118">
      <path
         d="M 0,0 H 612 V 792 H 0 Z"
         id="path116" />
    </clipPath>
    <clipPath
       clipPathUnits="userSpaceOnUse"
       id="clipPath150">
      <path
         d="M 0,0 H 612 V 792 H 0 Z"
         id="path148" />
    </clipPath>
    <clipPath
       clipPathUnits="userSpaceOnUse"
       id="clipPath166">
      <path
         d="m 19.44,140.342 h 83.52 V 300.96 H 19.44 Z"
         id="path164" />
    </clipPath>
    <clipPath
       clipPathUnits="userSpaceOnUse"
       id="clipPath430">
      <path
         d="M 24.354,164.011 H 102.96 V 289.182 H 24.354 Z"
         id="path428" />
    </clipPath>
    <clipPath
       clipPathUnits="userSpaceOnUse"
       id="clipPath446">
      <path
         d="m 19.44,140.342 h 83.52 V 300.96 H 19.44 Z"
         id="path444" />
    </clipPath>
    <clipPath
       clipPathUnits="userSpaceOnUse"
       id="clipPath934">
      <path
         d="M 24.354,164.011 H 102.96 V 289.182 H 24.354 Z"
         id="path932" />
    </clipPath>
    <clipPath
       clipPathUnits="userSpaceOnUse"
       id="clipPath950">
      <path
         d="m 19.44,140.342 h 83.52 V 300.96 H 19.44 Z"
         id="path948" />
    </clipPath>
    <clipPath
       clipPathUnits="userSpaceOnUse"
       id="clipPath1168">
      <path
         d="M 24.354,164.011 H 102.96 V 289.182 H 24.354 Z"
         id="path1166" />
    </clipPath>
    <clipPath
       clipPathUnits="userSpaceOnUse"
       id="clipPath1184">
      <path
         d="m 19.44,140.342 h 83.52 V 300.96 H 19.44 Z"
         id="path1182" />
    </clipPath>
    <clipPath
       clipPathUnits="userSpaceOnUse"
       id="clipPath1284">
      <path
         d="m 198.541,242.901 c -0.258,0 -0.463,0.088 -0.541,0.256 -0.139,0.297 0.169,0.734 0.688,0.975 0.225,0.105 0.452,0.156 0.65,0.156 0.257,0 0.462,-0.087 0.541,-0.256 0.138,-0.297 -0.17,-0.734 -0.69,-0.975 -0.224,-0.105 -0.451,-0.156 -0.648,-0.156"
         id="path1282" />
    </clipPath>
    <clipPath
       clipPathUnits="userSpaceOnUse"
       id="clipPath1620">
      <path
         d="M 150.48,158.4 H 219.6 V 284.458 H 150.48 Z"
         id="path1618" />
    </clipPath>
    <clipPath
       clipPathUnits="userSpaceOnUse"
       id="clipPath1884">
      <path
         d="M 150.48,167.668 H 219.6 V 284.457 H 150.48 Z"
         id="path1882" />
    </clipPath>
    <clipPath
       clipPathUnits="userSpaceOnUse"
       id="clipPath1900">
      <path
         d="M 150.48,158.4 H 219.6 V 284.458 H 150.48 Z"
         id="path1898" />
    </clipPath>
    <clipPath
       clipPathUnits="userSpaceOnUse"
       id="clipPath2388">
      <path
         d="M 150.48,167.668 H 219.6 V 284.457 H 150.48 Z"
         id="path2386" />
    </clipPath>
    <clipPath
       clipPathUnits="userSpaceOnUse"
       id="clipPath2404">
      <path
         d="M 150.48,158.4 H 219.6 V 284.458 H 150.48 Z"
         id="path2402" />
    </clipPath>
    <clipPath
       clipPathUnits="userSpaceOnUse"
       id="clipPath2622">
      <path
         d="M 150.48,167.668 H 219.6 V 284.457 H 150.48 Z"
         id="path2620" />
    </clipPath>
    <clipPath
       clipPathUnits="userSpaceOnUse"
       id="clipPath2638">
      <path
         d="M 150.48,158.4 H 219.6 V 284.458 H 150.48 Z"
         id="path2636" />
    </clipPath>
    <clipPath
       clipPathUnits="userSpaceOnUse"
       id="clipPath2738">
      <path
         d="m 23.346,246.559 c -0.257,0 -0.462,0.087 -0.541,0.255 -0.138,0.297 0.17,0.734 0.689,0.976 0.225,0.105 0.452,0.156 0.649,0.156 0.257,0 0.463,-0.088 0.541,-0.256 0.138,-0.297 -0.17,-0.734 -0.689,-0.976 -0.225,-0.104 -0.452,-0.155 -0.649,-0.155"
         id="path2736" />
    </clipPath>
    <clipPath
       clipPathUnits="userSpaceOnUse"
       id="clipPath3074">
      <path
         d="M 306,101.005 H 473.962 V 427.68 H 306 Z"
         id="path3072" />
    </clipPath>
    <clipPath
       clipPathUnits="userSpaceOnUse"
       id="clipPath3338">
      <path
         d="M 306,137.156 H 473.962 V 377.485 H 306 Z"
         id="path3336" />
    </clipPath>
    <clipPath
       clipPathUnits="userSpaceOnUse"
       id="clipPath3354">
      <path
         d="M 306,101.005 H 473.962 V 427.68 H 306 Z"
         id="path3352" />
    </clipPath>
    <clipPath
       clipPathUnits="userSpaceOnUse"
       id="clipPath3842">
      <path
         d="M 306,137.156 H 473.962 V 377.485 H 306 Z"
         id="path3840" />
    </clipPath>
    <clipPath
       clipPathUnits="userSpaceOnUse"
       id="clipPath3858">
      <path
         d="M 306,101.005 H 473.962 V 427.68 H 306 Z"
         id="path3856" />
    </clipPath>
    <clipPath
       clipPathUnits="userSpaceOnUse"
       id="clipPath4076">
      <path
         d="M 306,137.156 H 473.962 V 377.485 H 306 Z"
         id="path4074" />
    </clipPath>
    <clipPath
       clipPathUnits="userSpaceOnUse"
       id="clipPath4092">
      <path
         d="M 306,101.005 H 473.962 V 427.68 H 306 Z"
         id="path4090" />
    </clipPath>
    <clipPath
       clipPathUnits="userSpaceOnUse"
       id="clipPath4192">
      <path
         d="m 363.551,290.991 c -0.997,-0.464 -1.589,-1.303 -1.323,-1.873 v 0 c 0.151,-0.323 0.545,-0.491 1.038,-0.491 v 0 c 0.379,0 0.815,0.098 1.246,0.299 v 0 c 0.997,0.464 1.588,1.302 1.324,1.873 v 0 c -0.152,0.323 -0.546,0.491 -1.039,0.491 v 0 c -0.379,0 -0.815,-0.098 -1.246,-0.299"
         id="path4190" />
    </clipPath>
    <clipPath
       clipPathUnits="userSpaceOnUse"
       id="clipPath4202">
      <path
         d="M 306,101.005 H 473.962 V 427.68 H 306 Z"
         id="path4200" />
    </clipPath>
    <clipPath
       clipPathUnits="userSpaceOnUse"
       id="clipPath4536">
      <path
         d="M 427.356,0 H 612 V 299.52 H 427.356 Z"
         id="path4534" />
    </clipPath>
    <clipPath
       clipPathUnits="userSpaceOnUse"
       id="clipPath4800">
      <path
         d="M 427.356,30.903 H 596.371 V 299.52 H 427.356 Z"
         id="path4798" />
    </clipPath>
    <clipPath
       clipPathUnits="userSpaceOnUse"
       id="clipPath4816">
      <path
         d="M 427.356,0 H 612 V 299.52 H 427.356 Z"
         id="path4814" />
    </clipPath>
    <clipPath
       clipPathUnits="userSpaceOnUse"
       id="clipPath5304">
      <path
         d="M 427.356,30.903 H 596.371 V 299.52 H 427.356 Z"
         id="path5302" />
    </clipPath>
    <clipPath
       clipPathUnits="userSpaceOnUse"
       id="clipPath5320">
      <path
         d="M 427.356,0 H 612 V 299.52 H 427.356 Z"
         id="path5318" />
    </clipPath>
    <clipPath
       clipPathUnits="userSpaceOnUse"
       id="clipPath5538">
      <path
         d="M 427.356,30.903 H 596.371 V 299.52 H 427.356 Z"
         id="path5536" />
    </clipPath>
    <clipPath
       clipPathUnits="userSpaceOnUse"
       id="clipPath5554">
      <path
         d="M 427.356,0 H 612 V 299.52 H 427.356 Z"
         id="path5552" />
    </clipPath>
    <clipPath
       clipPathUnits="userSpaceOnUse"
       id="clipPath5654">
      <path
         d="m -7.468,212.353 c -0.591,0 -1.063,0.201 -1.244,0.587 -0.318,0.684 0.391,1.689 1.584,2.244 0.517,0.241 1.04,0.358 1.493,0.358 0.592,0 1.064,-0.201 1.245,-0.588 0.317,-0.683 -0.391,-1.688 -1.586,-2.244 -0.516,-0.24 -1.038,-0.357 -1.492,-0.357"
         id="path5652" />
    </clipPath>
    <clipPath
       clipPathUnits="userSpaceOnUse"
       id="clipPath5994">
      <path
         d="m 88.56,57.542 h 74.88 V 198 H 88.56 Z"
         id="path5992" />
    </clipPath>
    <clipPath
       clipPathUnits="userSpaceOnUse"
       id="clipPath6258">
      <path
         d="m 88.56,78.949 h 74.88 V 198 H 88.56 Z"
         id="path6256" />
    </clipPath>
    <clipPath
       clipPathUnits="userSpaceOnUse"
       id="clipPath6274">
      <path
         d="m 88.56,57.542 h 74.88 V 198 H 88.56 Z"
         id="path6272" />
    </clipPath>
    <clipPath
       clipPathUnits="userSpaceOnUse"
       id="clipPath6762">
      <path
         d="m 88.56,78.949 h 74.88 V 198 H 88.56 Z"
         id="path6760" />
    </clipPath>
    <clipPath
       clipPathUnits="userSpaceOnUse"
       id="clipPath6778">
      <path
         d="m 88.56,57.542 h 74.88 V 198 H 88.56 Z"
         id="path6776" />
    </clipPath>
    <clipPath
       clipPathUnits="userSpaceOnUse"
       id="clipPath6996">
      <path
         d="m 88.56,78.949 h 74.88 V 198 H 88.56 Z"
         id="path6994" />
    </clipPath>
    <clipPath
       clipPathUnits="userSpaceOnUse"
       id="clipPath7012">
      <path
         d="m 88.56,57.542 h 74.88 V 198 H 88.56 Z"
         id="path7010" />
    </clipPath>
    <clipPath
       clipPathUnits="userSpaceOnUse"
       id="clipPath7112">
      <path
         d="m 187.448,157.84 c -0.257,0 -0.462,0.087 -0.541,0.255 -0.138,0.297 0.17,0.734 0.689,0.976 0.224,0.105 0.452,0.156 0.649,0.156 0.257,0 0.463,-0.088 0.541,-0.256 0.138,-0.297 -0.17,-0.734 -0.689,-0.976 -0.225,-0.104 -0.452,-0.155 -0.649,-0.155"
         id="path7110" />
    </clipPath>
    <clipPath
       clipPathUnits="userSpaceOnUse"
       id="clipPath7448">
      <path
         d="m 218.16,69.782 h 74.88 V 210.24 h -74.88 z"
         id="path7446" />
    </clipPath>
    <clipPath
       clipPathUnits="userSpaceOnUse"
       id="clipPath7712">
      <path
         d="m 218.16,95.149 h 74.88 V 210.24 h -74.88 z"
         id="path7710" />
    </clipPath>
    <clipPath
       clipPathUnits="userSpaceOnUse"
       id="clipPath7728">
      <path
         d="m 218.16,69.782 h 74.88 V 210.24 h -74.88 z"
         id="path7726" />
    </clipPath>
    <clipPath
       clipPathUnits="userSpaceOnUse"
       id="clipPath8216">
      <path
         d="m 218.16,95.149 h 74.88 V 210.24 h -74.88 z"
         id="path8214" />
    </clipPath>
    <clipPath
       clipPathUnits="userSpaceOnUse"
       id="clipPath8232">
      <path
         d="m 218.16,69.782 h 74.88 V 210.24 h -74.88 z"
         id="path8230" />
    </clipPath>
    <clipPath
       clipPathUnits="userSpaceOnUse"
       id="clipPath8450">
      <path
         d="m 218.16,95.149 h 74.88 V 210.24 h -74.88 z"
         id="path8448" />
    </clipPath>
    <clipPath
       clipPathUnits="userSpaceOnUse"
       id="clipPath8466">
      <path
         d="m 218.16,69.782 h 74.88 V 210.24 h -74.88 z"
         id="path8464" />
    </clipPath>
    <clipPath
       clipPathUnits="userSpaceOnUse"
       id="clipPath8566">
      <path
         d="m 167.706,174.04 c -0.257,0 -0.462,0.087 -0.541,0.255 -0.138,0.297 0.17,0.734 0.689,0.976 0.225,0.105 0.452,0.156 0.649,0.156 0.257,0 0.463,-0.088 0.541,-0.256 0.138,-0.297 -0.17,-0.734 -0.689,-0.976 -0.225,-0.104 -0.452,-0.155 -0.649,-0.155"
         id="path8564" />
    </clipPath>
  </defs>
  <sodipodi:namedview
     id="namedview4"
     pagecolor="#ffffff"
     bordercolor="#000000"
     borderopacity="0.25"
     inkscape:showpageshadow="2"
     inkscape:pageopacity="0.0"
     inkscape:pagecheckerboard="0"
     inkscape:deskcolor="#d1d1d1"
     showgrid="false"
     inkscape:zoom="2.3195246"
     inkscape:cx="54.537037"
     inkscape:cy="44.836774"
     inkscape:window-width="1890"
     inkscape:window-height="991"
     inkscape:window-x="1095"
     inkscape:window-y="882"
     inkscape:window-maximized="0"
     inkscape:current-layer="g10" />
  <g
     id="g10"
     inkscape:groupmode="layer"
     inkscape:label="Page 1"
     transform="matrix(1.3333333,0,0,-1.3333333,-40.578132,564.31519)">
    <g
       aria-label="Optimiste Ste-Thérèse"
       transform="matrix(1,0,0,-1,84.6046,388.5819)"
       id="text130"
       style="font-weight:300;font-size:22.3656px;font-family:Bliss;-inkscape-font-specification:Bliss-Light;fill:#656263">
      <path
         d="m 15.767748,-8.006885 q 0,2.4378505 -0.805161,4.2941953 -0.805162,1.8563449 -2.415485,2.90752808 -1.587958,1.02881763 -3.9587114,1.02881763 -2.4154848,0 -4.0258081,-1.02881763 Q 2.9746249,-1.8563448 2.1694633,-3.7126897 1.3866672,-5.5914001 1.3866672,-8.0292506 q 0,-2.4378504 0.8051617,-4.2718294 0.8275272,-1.83398 2.4378504,-2.862797 1.6326889,-1.051183 4.0258081,-1.051183 2.3036566,0 3.8916146,1.006452 1.587958,0.984086 2.393119,2.818065 0.827527,1.83398 0.827527,4.383658 z M 2.7509689,-8.0292506 q 0,2.124732 0.6262368,3.7350553 0.6262368,1.5879576 1.9234416,2.4825817 1.2972049,0.87225838 3.2877433,0.87225838 2.0129044,0 3.2877434,-0.87225838 1.297205,-0.8722585 1.901076,-2.4602161 0.626237,-1.6103233 0.626237,-3.7350553 0,-3.332474 -1.453764,-5.188819 -1.431399,-1.856345 -4.2941956,-1.856345 -1.9905384,0 -3.3101089,0.894624 -1.3195704,0.872258 -1.9681728,2.460216 -0.6262368,1.565592 -0.6262368,3.6679584 z"
         id="path422" />
      <path
         d="m 23.908827,-12.122156 q 2.281292,0 3.556131,1.543227 1.274839,1.5432264 1.274839,4.5625824 0,3.0193561 -1.341936,4.6296794 -1.31957,1.61032321 -3.623227,1.61032321 -1.565592,0 -2.527313,-0.67096802 Q 20.2856,-1.11828 19.838288,-2.0576353 h -0.08946 q 0.04473,0.5591401 0.0671,1.23010808 0.02237,0.64860242 0.02237,1.20774243 V 5.2782817 H 18.563449 V -11.8985 h 1.051183 l 0.156559,2.2141949 h 0.0671 q 0.447312,-0.9617209 1.431398,-1.6997859 0.984087,-0.738065 2.639141,-0.738065 z m -0.178925,1.095915 q -1.990538,0 -2.929893,1.2524735 -0.939355,1.2524737 -0.961721,3.6008617 v 0.223656 q 0,2.5496785 0.91699,3.8245177 0.939355,1.25247368 2.885162,1.25247368 1.833979,0 2.7957,-1.36430168 0.984087,-1.3866672 0.984087,-3.8021521 0,-2.3931192 -0.939356,-3.6903241 -0.916989,-1.2972047 -2.750969,-1.2972047 z"
         id="path424" />
      <path
         d="m 32.966894,-0.87225842 q 0.492043,0 0.939355,-0.0670968 0.447312,-0.0670968 0.782796,-0.20129038 v 1.0288176 q -0.335484,0.1341936 -0.827527,0.223656 -0.492043,0.11182801 -1.051183,0.11182801 -1.498496,0 -2.303657,-0.82752723 -0.805162,-0.82752718 -0.805162,-2.70623768 v -7.5595731 h -1.766882 v -0.715699 l 1.766882,-0.424947 0.447312,-2.728603 h 0.827527 v 2.840431 h 3.645593 v 1.028818 h -3.645593 v 7.4924763 q 0,2.50494728 1.990539,2.50494728 z"
         id="path426" />
      <path
         d="m 37.909691,-16.304523 q 0.872258,0 0.872258,0.961721 0,0.984086 -0.872258,0.984086 -0.872259,0 -0.872259,-0.984086 0,-0.961721 0.872259,-0.961721 z m 0.626236,4.406023 V 0 h -1.274839 v -11.8985 z"
         id="path429" />
      <path
         d="m 54.840451,-12.122156 q 1.766882,0 2.750969,1.006453 1.006452,1.006452 1.006452,3.1759148 V 0 h -1.252474 v -7.895057 q 0,-1.5879576 -0.738065,-2.348388 -0.715699,-0.782796 -1.945807,-0.782796 -1.699786,0 -2.616775,1.006452 -0.91699,0.9840864 -0.91699,3.0640872 V 0 h -1.252473 v -7.895057 q 0,-1.5879576 -0.738065,-2.348388 -0.7157,-0.782796 -1.945808,-0.782796 -1.699785,0 -2.616775,1.0511831 -0.894624,1.0511833 -0.894624,3.2206465 V 0 h -1.274839 v -11.8985 h 1.028818 l 0.178924,1.878711 h 0.08946 q 0.447312,-0.872258 1.341936,-1.47613 0.916989,-0.626237 2.326022,-0.626237 1.297205,0 2.191829,0.55914 0.894624,0.559141 1.274839,1.6550549 h 0.0671 q 0.514409,-1.0511829 1.520861,-1.6326889 1.028818,-0.581506 2.415485,-0.581506 z"
         id="path431" />
      <path
         d="m 60.946258,-16.304523 q 0.872259,0 0.872259,0.961721 0,0.984086 -0.872259,0.984086 -0.872258,0 -0.872258,-0.984086 0,-0.961721 0.872258,-0.961721 z m 0.626237,4.406023 V 0 h -1.274839 v -11.8985 z"
         id="path433" />
      <path
         d="m 72.934221,-3.1535497 q 0,1.6103233 -1.207743,2.50494728 -1.207742,0.87225843 -3.399571,0.87225843 -1.252474,0 -2.214194,-0.22365601 -0.961721,-0.20129041 -1.610324,-0.53677441 V -1.7668824 q 0.782796,0.4025808 1.789248,0.670968 1.006452,0.24602158 2.057636,0.24602158 1.744517,0 2.527313,-0.58150558 0.805161,-0.6038713 0.805161,-1.6326889 0,-0.9840864 -0.827527,-1.4984952 -0.827527,-0.5367744 -2.43785,-1.0959144 -1.118281,-0.3802153 -1.968173,-0.7604305 -0.827528,-0.4025808 -1.297205,-1.006452 -0.469678,-0.6038712 -0.469678,-1.6550544 0,-1.4313982 1.163011,-2.2365602 1.163012,-0.805162 3.108819,-0.805162 1.073549,0 1.990538,0.201291 0.939356,0.20129 1.722152,0.536774 l -0.469678,1.051184 q -0.693334,-0.290753 -1.565592,-0.492044 -0.872258,-0.223656 -1.744517,-0.223656 -1.409033,0 -2.191829,0.492044 -0.782796,0.492043 -0.782796,1.431398 0,0.7156992 0.380215,1.1406456 0.380216,0.4025808 1.095915,0.6933336 0.715699,0.2907528 1.744517,0.6486024 1.073549,0.3802152 1.923441,0.782796 0.849893,0.4025809 1.364302,1.0288177 0.514409,0.6262368 0.514409,1.67742 z"
         id="path435" />
      <path
         d="m 77.138954,-0.87225842 q 0.492043,0 0.939355,-0.0670968 0.447312,-0.0670968 0.782796,-0.20129038 v 1.0288176 q -0.335484,0.1341936 -0.827527,0.223656 -0.492043,0.11182801 -1.051183,0.11182801 -1.498496,0 -2.303657,-0.82752723 -0.805162,-0.82752718 -0.805162,-2.70623768 v -7.5595731 h -1.766882 v -0.715699 l 1.766882,-0.424947 0.447312,-2.728603 h 0.827527 v 2.840431 h 3.645593 v 1.028818 h -3.645593 v 7.4924763 q 0,2.50494728 1.990539,2.50494728 z"
         id="path437" />
      <path
         d="m 85.950998,-12.122156 q 1.52086,0 2.527312,0.7157 1.028818,0.693333 1.543227,1.9234414 0.536774,1.230108 0.536774,2.8180656 v 0.8722584 h -8.498928 q 0,2.3707537 1.095915,3.6455929 1.11828,1.25247368 3.175915,1.25247368 1.095914,0 1.923441,-0.17892478 0.827528,-0.2012904 1.811614,-0.6262368 v 1.16301119 q -0.894624,0.40258081 -1.766882,0.58150561 -0.872259,0.17892481 -2.012904,0.17892481 -2.683872,0 -4.115271,-1.63268881 -1.431398,-1.6326889 -1.431398,-4.4507546 0,-1.8116136 0.603871,-3.2206464 0.626237,-1.4090332 1.789248,-2.2141942 1.163011,-0.827528 2.818066,-0.827528 z m -0.02237,1.073549 q -1.632689,0 -2.661506,1.0959147 -1.006452,1.0959145 -1.163012,3.1088185 h 7.134627 q 0,-1.8787104 -0.827527,-3.0417217 -0.805162,-1.1630115 -2.482582,-1.1630115 z"
         id="path439" />
      <path
         d="m 106.46026,-4.1600017 q 0,1.4313984 -0.7157,2.4154849 -0.7157,0.98408638 -1.96817,1.47612959 -1.25248,0.49204322 -2.84043,0.49204322 -1.453769,0 -2.527318,-0.20129041 -1.073549,-0.2012904 -1.833979,-0.51440881 V -1.7668824 q 0.827527,0.335484 1.968173,0.5815056 1.140645,0.24602158 2.460214,0.24602158 1.83398,0 2.97463,-0.78279598 1.16301,-0.7827961 1.16301,-2.3483881 0,-0.9393552 -0.44731,-1.5432264 -0.42495,-0.6262369 -1.34194,-1.0735489 -0.89462,-0.4696776 -2.30366,-0.9393552 -1.341933,-0.447312 -2.303654,-1.006452 -0.961721,-0.55914 -1.476129,-1.3866672 -0.514409,-0.849893 -0.514409,-2.124732 0,-1.297205 0.648602,-2.191829 0.670968,-0.91699 1.811614,-1.386667 1.163016,-0.469678 2.639136,-0.469678 1.16302,0 2.2142,0.223656 1.05118,0.223656 1.99054,0.626237 l -0.42495,1.11828 q -1.92344,-0.805162 -3.82452,-0.805162 -1.65505,0 -2.706234,0.738065 -1.028818,0.715699 -1.028818,2.124732 0,1.028818 0.447312,1.655055 0.447312,0.6038709 1.297205,1.0288174 0.849895,0.4249464 2.080005,0.8498928 1.40903,0.4920432 2.41548,1.0288176 1.02882,0.5367744 1.58796,1.3643016 0.55914,0.8051617 0.55914,2.0800009 z"
         id="path441" />
      <path
         d="m 111.38069,-0.87225842 q 0.49204,0 0.93936,-0.0670968 0.44731,-0.0670968 0.78279,-0.20129038 v 1.0288176 q -0.33548,0.1341936 -0.82752,0.223656 -0.49205,0.11182801 -1.05119,0.11182801 -1.49849,0 -2.30365,-0.82752723 -0.80517,-0.82752718 -0.80517,-2.70623768 v -7.5595731 h -1.76688 v -0.715699 l 1.76688,-0.424947 0.44732,-2.728603 h 0.82752 v 2.840431 h 3.6456 v 1.028818 h -3.6456 v 7.4924763 q 0,2.50494728 1.99054,2.50494728 z"
         id="path443" />
      <path
         d="m 120.19273,-12.122156 q 1.52087,0 2.52732,0.7157 1.02882,0.693333 1.54322,1.9234414 0.53678,1.230108 0.53678,2.8180656 v 0.8722584 h -8.49893 q 0,2.3707537 1.09591,3.6455929 1.11828,1.25247368 3.17592,1.25247368 1.09591,0 1.92344,-0.17892478 0.82753,-0.2012904 1.81162,-0.6262368 v 1.16301119 q -0.89463,0.40258081 -1.76689,0.58150561 -0.87226,0.17892481 -2.0129,0.17892481 -2.68387,0 -4.11527,-1.63268881 -1.4314,-1.6326889 -1.4314,-4.4507546 0,-1.8116136 0.60387,-3.2206464 0.62624,-1.4090332 1.78925,-2.2141942 1.16301,-0.827528 2.81806,-0.827528 z m -0.0224,1.073549 q -1.63269,0 -2.66151,1.0959147 -1.00645,1.0959145 -1.16301,3.1088185 h 7.13463 q 0,-1.8787104 -0.82753,-3.0417217 -0.80516,-1.1630115 -2.48258,-1.1630115 z"
         id="path445" />
      <path
         d="m 124.91187,-5.4572065 v -1.1630113 h 5.41248 v 1.1630113 z"
         id="path447" />
      <path
         d="m 138.71146,0 h -1.29721 v -14.806028 h -5.14409 v -1.163011 h 11.58539 v 1.163011 h -5.14409 z"
         id="path449" />
      <path
         d="m 146.24866,-11.563016 q 0,0.469678 -0.0224,0.894625 -0.0224,0.424946 -0.0671,0.8275267 h 0.0895 q 0.46968,-0.9840867 1.47613,-1.6326887 1.02882,-0.648603 2.54968,-0.648603 2.05763,0 3.13118,1.051184 1.07355,1.051183 1.07355,3.287743 V 0 h -1.25247 v -7.6937666 q 0,-1.6997856 -0.7828,-2.5049474 -0.7828,-0.827527 -2.28129,-0.827527 -3.91398,0 -3.91398,4.5402168 V 0 h -1.27484 v -16.997856 h 1.27484 z"
         id="path451" />
      <path
         d="m 160.7863,-12.122156 q 1.52086,0 2.52731,0.7157 1.02882,0.693333 1.54323,1.9234414 0.53678,1.230108 0.53678,2.8180656 v 0.8722584 h -8.49893 q 0,2.3707537 1.09591,3.6455929 1.11828,1.25247368 3.17592,1.25247368 1.09591,0 1.92344,-0.17892478 0.82753,-0.2012904 1.81161,-0.6262368 v 1.16301119 q -0.89462,0.40258081 -1.76688,0.58150561 -0.87226,0.17892481 -2.0129,0.17892481 -2.68388,0 -4.11527,-1.63268881 -1.4314,-1.6326889 -1.4314,-4.4507546 0,-1.8116136 0.60387,-3.2206464 0.62623,-1.4090332 1.78925,-2.2141942 1.16301,-0.827528 2.81806,-0.827528 z m -0.0224,1.073549 q -1.63269,0 -2.66151,1.0959147 -1.00645,1.0959145 -1.16301,3.1088185 h 7.13463 q 0,-1.8787104 -0.82753,-3.0417217 -0.80516,-1.1630115 -2.48258,-1.1630115 z m 3.04172,-5.904518 q -0.33549,0.469677 -0.89463,1.095914 -0.53677,0.626237 -1.16301,1.252474 -0.62623,0.603871 -1.18537,1.051183 h -0.89463 v -0.20129 q 0.42495,-0.424947 0.91699,-1.028818 0.49204,-0.603871 0.93936,-1.230108 0.46967,-0.626237 0.76043,-1.11828 h 1.52086 z"
         id="path453" />
      <path
         d="m 171.47705,-12.09979 q 0.87226,0 1.61032,0.178925 l -0.20129,1.185377 q -0.7157,-0.201291 -1.47613,-0.201291 -1.63269,0 -2.59441,1.2077427 -0.96172,1.2077425 -0.96172,3.1982809 V 0 h -1.27484 v -11.8985 h 1.07355 l 0.13419,2.2141949 h 0.0671 q 0.44731,-1.0064519 1.3643,-1.6997859 0.91699,-0.715699 2.25893,-0.715699 z"
         id="path455" />
      <path
         d="m 178.09728,-12.122156 q 1.52086,0 2.52731,0.7157 1.02882,0.693333 1.54323,1.9234414 0.53677,1.230108 0.53677,2.8180656 v 0.8722584 h -8.49893 q 0,2.3707537 1.09592,3.6455929 1.11828,1.25247368 3.17591,1.25247368 1.09592,0 1.92344,-0.17892478 0.82753,-0.2012904 1.81162,-0.6262368 v 1.16301119 q -0.89463,0.40258081 -1.76689,0.58150561 -0.87225,0.17892481 -2.0129,0.17892481 -2.68387,0 -4.11527,-1.63268881 -1.4314,-1.6326889 -1.4314,-4.4507546 0,-1.8116136 0.60387,-3.2206464 0.62624,-1.4090332 1.78925,-2.2141942 1.16301,-0.827528 2.81807,-0.827528 z m -0.0224,1.073549 q -1.63269,0 -2.66151,1.0959147 -1.00645,1.0959145 -1.16301,3.1088185 h 7.13463 q 0,-1.8787104 -0.82753,-3.0417217 -0.80516,-1.1630115 -2.48258,-1.1630115 z m -1.45376,-6.083443 q 0.26838,0.492043 0.7157,1.11828 0.46967,0.626237 0.96172,1.230108 0.51441,0.603871 0.93935,1.028818 v 0.20129 h -0.89462 q -0.55914,-0.447312 -1.18538,-1.051183 -0.62624,-0.626237 -1.18538,-1.252474 -0.53677,-0.626237 -0.87225,-1.095914 v -0.178925 z"
         id="path457" />
      <path
         d="m 191.38243,-3.1535497 q 0,1.6103233 -1.20774,2.50494728 -1.20774,0.87225843 -3.39957,0.87225843 -1.25247,0 -2.2142,-0.22365601 -0.96172,-0.20129041 -1.61032,-0.53677441 V -1.7668824 q 0.7828,0.4025808 1.78925,0.670968 1.00645,0.24602158 2.05763,0.24602158 1.74452,0 2.52732,-0.58150558 0.80516,-0.6038713 0.80516,-1.6326889 0,-0.9840864 -0.82753,-1.4984952 -0.82753,-0.5367744 -2.43785,-1.0959144 -1.11828,-0.3802153 -1.96817,-0.7604305 -0.82753,-0.4025808 -1.29721,-1.006452 -0.46967,-0.6038712 -0.46967,-1.6550544 0,-1.4313982 1.16301,-2.2365602 1.16301,-0.805162 3.10882,-0.805162 1.07354,0 1.99053,0.201291 0.93936,0.20129 1.72216,0.536774 l -0.46968,1.051184 q -0.69334,-0.290753 -1.56559,-0.492044 -0.87226,-0.223656 -1.74452,-0.223656 -1.40903,0 -2.19183,0.492044 -0.7828,0.492043 -0.7828,1.431398 0,0.7156992 0.38022,1.1406456 0.38021,0.4025808 1.09591,0.6933336 0.7157,0.2907528 1.74452,0.6486024 1.07355,0.3802152 1.92344,0.782796 0.84989,0.4025809 1.3643,1.0288177 0.51441,0.6262368 0.51441,1.67742 z"
         id="path459" />
      <path
         d="m 196.75018,-12.122156 q 1.52087,0 2.52732,0.7157 1.02881,0.693333 1.54322,1.9234414 0.53678,1.230108 0.53678,2.8180656 v 0.8722584 h -8.49893 q 0,2.3707537 1.09591,3.6455929 1.11828,1.25247368 3.17592,1.25247368 1.09591,0 1.92344,-0.17892478 0.82753,-0.2012904 1.81161,-0.6262368 v 1.16301119 q -0.89462,0.40258081 -1.76688,0.58150561 -0.87226,0.17892481 -2.0129,0.17892481 -2.68387,0 -4.11527,-1.63268881 -1.4314,-1.6326889 -1.4314,-4.4507546 0,-1.8116136 0.60387,-3.2206464 0.62624,-1.4090332 1.78925,-2.2141942 1.16301,-0.827528 2.81806,-0.827528 z m -0.0224,1.073549 q -1.63269,0 -2.66151,1.0959147 -1.00645,1.0959145 -1.16301,3.1088185 h 7.13463 q 0,-1.8787104 -0.82753,-3.0417217 -0.80516,-1.1630115 -2.48258,-1.1630115 z"
         id="path461" />
    </g>
    <g
       aria-label="Fondation"
       transform="matrix(1,0,0,-1,86.6379,407.8017)"
       id="text134"
       style="font-weight:300;font-size:17.0792px;font-family:Bliss;-inkscape-font-specification:Bliss-Light;fill:#656263">
      <path
         d="M 2.6985137,0 H 1.7079201 V -12.194549 H 8.420046 v 0.888118 H 2.6985137 v 5.0212851 h 5.3970275 v 0.8881185 H 2.6985137 Z"
         id="path403" />
      <path
         d="m 16.088607,-4.5601466 q 0,1.4346529 -0.478218,2.4935633 -0.461138,1.0589105 -1.383415,1.65668248 -0.905198,0.58069283 -2.220296,0.58069283 -1.263861,0 -2.1690589,-0.58069283 Q 8.9324215,-0.99059364 8.4371246,-2.0495041 7.958907,-3.1254937 7.958907,-4.5601466 q 0,-2.2032169 1.0930689,-3.4499985 1.0930691,-1.2467817 3.0230181,-1.2467817 1.29802,0 2.186138,0.597772 0.905198,0.5806928 1.366336,1.6396033 0.461139,1.0589104 0.461139,2.4594049 z m -7.1220271,0 q 0,1.7591577 0.7344056,2.8351473 0.7514845,1.05891047 2.3227715,1.05891047 1.588365,0 2.322771,-1.07598967 0.734406,-1.0759896 0.734406,-2.8180681 0,-1.1272272 -0.307426,-1.9982665 -0.307426,-0.8710392 -0.973514,-1.366336 -0.666089,-0.4952969 -1.742079,-0.4952969 -1.537128,0 -2.3227711,1.0247521 -0.768564,1.024752 -0.768564,2.8351473 z"
         id="path405" />
      <path
         d="m 21.263604,-9.2569268 q 1.554207,0 2.374009,0.8027224 0.819802,0.8027225 0.819802,2.5106425 V 0 h -0.956436 v -5.8752451 q 0,-1.2980192 -0.597772,-1.9128704 -0.597772,-0.6319305 -1.742078,-0.6319305 -2.98886,0 -2.98886,3.4670778 V 0 h -0.973515 v -9.0861348 h 0.785643 l 0.136634,1.5712865 h 0.06832 q 0.358663,-0.7514849 1.144306,-1.2467817 0.785644,-0.4952968 1.92995,-0.4952968 z"
         id="path407" />
      <path
         d="m 29.085879,0.17079201 q -1.827475,0 -2.818068,-1.16138565 -0.973515,-1.17846486 -0.973515,-3.46707776 0,-2.3398505 1.024752,-3.5695529 1.024752,-1.2297025 2.852227,-1.2297025 1.144306,0 1.844553,0.512376 0.717327,0.4952968 1.07599,1.2126233 h 0.06832 q -0.01708,-0.3928216 -0.05124,-0.8710393 -0.01708,-0.4952968 -0.01708,-0.9051976 v -3.6720286 h 0.973514 V 0 h -0.785643 l -0.136633,-1.5883657 h -0.05124 q -0.358663,0.73440566 -1.07599,1.24678169 -0.717326,0.51237602 -1.929949,0.51237602 z m 0.119554,-0.83688084 q 1.571287,0 2.237375,-0.95643527 0.666089,-0.9564352 0.666089,-2.7668305 v -0.1537128 q 0,-1.8787121 -0.666089,-2.8693057 -0.649009,-1.0076729 -2.169058,-1.0076729 -1.468811,0 -2.220296,1.0418313 -0.751485,1.024752 -0.751485,2.9376225 0,1.8445537 0.717326,2.8180681 0.717327,0.95643527 2.186138,0.95643527 z"
         id="path409" />
      <path
         d="m 37.557159,-9.2398476 q 1.537128,0 2.288613,0.7514848 0.751485,0.7514849 0.751485,2.3740089 V 0 h -0.734406 l -0.170792,-1.5371281 h -0.05124 q -0.495297,0.76856407 -1.212623,1.24678169 -0.700248,0.46113842 -1.964109,0.46113842 -1.315098,0 -2.066583,-0.64900963 -0.751485,-0.66608878 -0.751485,-1.89579128 0,-1.3663361 1.110148,-2.0665833 1.110148,-0.7173264 3.227969,-0.8027224 l 1.656683,-0.085396 v -0.6319305 q 0,-1.3321776 -0.546535,-1.8957912 -0.529455,-0.5636137 -1.571286,-0.5636137 -0.700247,0 -1.349257,0.1878712 -0.64901,0.1878712 -1.298019,0.4952969 l -0.307426,-0.7856433 q 0.64901,-0.3074256 1.400495,-0.512376 0.768564,-0.2049504 1.588365,-0.2049504 z m 0.546535,4.7138594 q -1.742079,0.085396 -2.596039,0.6148512 -0.836881,0.5123761 -0.836881,1.5371281 0,0.85396 0.512376,1.2980193 0.529456,0.42697997 1.451732,0.42697997 1.417574,0 2.203217,-0.80272247 0.785644,-0.8198016 0.802723,-2.2544545 V -4.594305 Z"
         id="path411" />
      <path
         d="m 44.764584,-0.66608883 q 0.375742,0 0.717326,-0.0512376 0.341584,-0.0512376 0.597772,-0.15371281 V -0.085396 q -0.256188,0.1024752 -0.63193,0.170792 -0.375743,0.08539601 -0.802723,0.08539601 -1.144306,0 -1.759158,-0.63193043 Q 42.27102,-1.0930688 42.27102,-2.5277217 V -8.3004916 H 40.921763 V -8.847026 l 1.349257,-0.3245048 0.341584,-2.0836622 h 0.631931 v 2.1690582 h 2.783909 v 0.7856432 h -2.783909 v 5.7215323 q 0,1.91287047 1.520049,1.91287047 z"
         id="path413" />
      <path
         d="m 48.539088,-12.450737 q 0.666088,0 0.666088,0.734405 0,0.751485 -0.666088,0.751485 -0.666089,0 -0.666089,-0.751485 0,-0.734405 0.666089,-0.734405 z m 0.478217,3.3646022 V 0 h -0.973514 v -9.0861348 z"
         id="path415" />
      <path
         d="m 59.57225,-4.5601466 q 0,1.4346529 -0.478218,2.4935633 -0.461138,1.0589105 -1.383415,1.65668248 -0.905197,0.58069283 -2.220296,0.58069283 -1.263861,0 -2.169058,-0.58069283 -0.905198,-0.58069282 -1.400495,-1.63960328 -0.478217,-1.0759896 -0.478217,-2.5106425 0,-2.2032169 1.093068,-3.4499985 1.093069,-1.2467817 3.023019,-1.2467817 1.298019,0 2.186138,0.597772 0.905197,0.5806928 1.366336,1.6396033 0.461138,1.0589104 0.461138,2.4594049 z m -7.122027,0 q 0,1.7591577 0.734406,2.8351473 0.751485,1.05891047 2.322771,1.05891047 1.588366,0 2.322772,-1.07598967 0.734405,-1.0759896 0.734405,-2.8180681 0,-1.1272272 -0.307425,-1.9982665 -0.307426,-0.8710392 -0.973515,-1.366336 -0.666089,-0.4952969 -1.742078,-0.4952969 -1.537128,0 -2.322772,1.0247521 -0.768564,1.024752 -0.768564,2.8351473 z"
         id="path417" />
      <path
         d="m 64.747248,-9.2569268 q 1.554207,0 2.374008,0.8027224 0.819802,0.8027225 0.819802,2.5106425 V 0 h -0.956435 v -5.8752451 q 0,-1.2980192 -0.597772,-1.9128704 -0.597772,-0.6319305 -1.742079,-0.6319305 -2.98886,0 -2.98886,3.4670778 V 0 h -0.973514 v -9.0861348 h 0.785643 l 0.136634,1.5712865 h 0.06832 q 0.358664,-0.7514849 1.144307,-1.2467817 0.785643,-0.4952968 1.92995,-0.4952968 z"
         id="path419" />
    </g>
    <g
       id="g136"
       transform="translate(79.5449,419.4286)"
       style="stroke-width:1.05;stroke-dasharray:none">
      <path
         d="M 0,0 V -36.619"
         style="fill:none;stroke:#656263;stroke-width:1.05;stroke-linecap:butt;stroke-linejoin:miter;stroke-miterlimit:10;stroke-dasharray:none;stroke-opacity:1"
         id="path138" />
    </g>
    <g
       id="g140"
       transform="translate(59.8156,381.6844)">
      <path
         d="m 0,0 h -17.211 l -12.171,12.17 v 17.212 l 12.171,12.17 H 0 L 12.17,29.382 V 12.17 Z M -15.684,3.687 H -1.527 L 8.484,13.697 V 27.854 L -1.527,37.865 H -15.684 L -25.695,27.854 V 13.697 Z"
         style="fill:#24488a;fill-opacity:1;fill-rule:nonzero;stroke:none"
         id="path142" />
    </g>
    <g
       id="g144">
      <g
         id="g146"
         clip-path="url(#clipPath150)">
        <g
           id="g152"
           transform="translate(39.2195,403.2952)">
          <path
             d="m 0,0 c 0,4.167 1.154,7.652 3.461,10.456 2.308,2.804 5.146,4.205 8.516,4.205 3.388,0 6.235,-1.407 8.543,-4.222 C 22.827,7.624 23.981,4.144 23.981,0 c 0,-4.588 -1.172,-8.195 -3.516,-10.821 -2.344,-2.626 -5.174,-3.939 -8.488,-3.939 -3.315,0 -6.14,1.335 -8.475,4.005 C 1.167,-8.084 0,-4.499 0,0 m 4.565,-0.166 c 0,-4.832 0.651,-8.217 1.953,-10.157 1.302,-1.939 3.125,-2.908 5.472,-2.908 2.402,0 4.24,0.969 5.514,2.908 1.275,1.94 1.912,5.325 1.912,10.157 0,4.787 -0.633,8.2 -1.898,10.239 -1.265,2.039 -3.108,3.059 -5.528,3.059 -2.401,0 -4.239,-1.014 -5.514,-3.042 C 5.202,8.062 4.565,4.643 4.565,-0.166"
             style="fill:#24488a;fill-opacity:1;fill-rule:nonzero;stroke:none"
             id="path154" />
        </g>
        <g
           id="g156"
           transform="translate(45.6173,410.1741)">
          <path
             d="M 0,0 V 2.23 H 11.108 V 0 H 10.783 C 9.74,0 9.06,-0.251 8.745,-0.753 8.43,-1.255 8.273,-2.116 8.273,-3.335 v -16.111 c 0,-1.245 0.163,-2.113 0.488,-2.602 0.325,-0.489 0.999,-0.733 2.022,-0.733 h 0.325 v -2.23 H 0 v 2.23 c 1.116,0 1.856,0.221 2.223,0.663 0.367,0.442 0.55,1.332 0.55,2.672 v 16.111 c 0,1.299 -0.173,2.18 -0.519,2.642 C 1.908,-0.231 1.157,0 0,0"
             style="fill:#24488a;fill-opacity:1;fill-rule:nonzero;stroke:none"
             id="path158" />
        </g>
      </g>
    </g>
  </g>
</svg>
