<?xml version="1.0" encoding="utf-8"?>
<!-- Generator: Adobe Illustrator 19.1.0, SVG Export Plug-In . SVG Version: 6.00 Build 0)  -->
<svg version="1.1" id="Layer_1" xmlns="http://www.w3.org/2000/svg" xmlns:xlink="http://www.w3.org/1999/xlink" x="0px" y="0px"
	 viewBox="0 0 479 177.7" style="enable-background:new 0 0 479 177.7;" xml:space="preserve">
<style type="text/css">
	.st0{fill:#004C98;}
	.st1{fill:#F37021;}
</style>
<path class="st0" d="M207.4,42h9.9c4.5,0,7.3-3,7.3-7.3c0-4.2-2.7-6.9-7.5-6.9h-9.7V42z M189.1,12.6h28.8c8,0,13.8,2.1,17.9,5.8
	c4.5,3.9,7,9.6,7,16.6c0,12.1-8.9,21.2-21.6,21.2h-13.8v19.1h-18.3V12.6z"/>
<path class="st0" d="M269.4,59.1v-3.9c-1.6,0.8-3.6,1.5-6.4,2.1c-4.8,1.1-6.3,2.5-6.3,5.1c0,3,2.5,4.3,5.2,4.3
	C265.7,66.6,269.4,64.4,269.4,59.1 M269.3,70.4h-0.2c-3,4.1-7.7,6-13.5,6c-8.6,0-14.9-4.6-14.9-13.4c0-9.9,7.6-12.8,16.2-13.8
	c9.5-1.1,12-2.2,12-5c0-2.5-1.1-4.3-4.7-4.3c-3.6,0-5.4,2.1-5.9,5.3h-15.7c0.3-8.9,7.2-16.1,21.2-16.1c6.8,0,11.2,0.9,14.6,3
	c4.6,2.9,6.9,7.4,6.9,13.4v22.4c0,3.8,0.3,5.8,1.7,6.7v0.7h-16.3C270.2,74.2,269.6,72.8,269.3,70.4"/>
<path class="st0" d="M288.9,30.6h5.8V16.1h16.2v14.5h8.5v10h-8.5v18.1c0,4.5,3.2,4.6,8.3,4.2v12.2c-2.5,0.6-5.2,1-8.2,1
	c-10.9,0-16.4-3.1-16.4-13.8V40.6h-5.8V30.6z"/>
<path class="st0" d="M339.5,37.3h0.3c3.6-5.6,7.9-7.7,13.6-7.7c1.3,0,2.2,0.2,2.7,0.4v14.1h-0.3c-9.7-1.7-15.4,2.7-15.4,12.8v18.3
	h-16.6V30.6h15.8V37.3z"/>
<path class="st0" d="M360,30.6h16.6v44.7H360V30.6z M360,12.6h16.6v12.5H360V12.6z"/>
<path class="st0" d="M380.7,53c0-13.6,9.8-23.8,24.5-23.8c12.6,0,21,7.4,22.2,17.9h-16c-0.9-4-2.8-6.3-6.4-6.3
	c-5.1,0-7.5,4.6-7.5,12.2c0,7.5,2.6,12,7.7,12c4,0,6.1-2.7,6.5-7.8h16c0,11-9,19.5-22.4,19.5C390.5,76.7,380.7,66.6,380.7,53"/>
<polygon class="st0" points="451.3,59.2 447.8,63 447.8,75.3 431.5,75.3 431.5,12.6 447.8,12.6 447.8,43.9 458.6,30.6 477.2,30.6 
	462.3,47.1 479,75.3 460.2,75.3 "/>
<polygon class="st0" points="188.3,95.5 218.8,95.5 231.2,140.5 231.4,140.5 243.8,95.5 274.6,95.5 274.6,175.9 253.3,175.9 
	253.3,125.5 253.1,125.5 239.7,175.9 222.5,175.9 209.2,125.5 208.9,125.5 208.9,175.9 188.3,175.9 "/>
<path class="st0" d="M319.8,147.3c0-9.7-3.4-16.2-9.9-16.2c-6.5,0-9.7,6.5-9.7,16.2c0,9.7,3.2,16.2,9.7,16.2
	C316.4,163.5,319.8,157,319.8,147.3 M278.6,147.3c0-17.4,12.4-30.5,31.5-30.5c19.1,0,31.2,13,31.2,30.5c0,17.4-12.1,30.4-31.2,30.4
	C291,177.7,278.6,164.7,278.6,147.3"/>
<path class="st0" d="M364.6,127.2h0.3c4.6-7.2,10.1-9.9,17.4-9.9c1.7,0,2.8,0.2,3.5,0.6V136h-0.4c-12.5-2.1-19.8,3.5-19.8,16.4v23.5
	h-21.2v-57.3h20.2V127.2z"/>
<path class="st0" d="M390.9,118.5h21.2v57.3h-21.2V118.5z M390.9,95.5h21.2v16.1h-21.2V95.5z"/>
<path class="st0" d="M440.1,126.4h0.3c4.6-6.3,10.5-9.7,18.4-9.7c13.3,0,20.1,8.9,20.1,22v37.1h-21.2v-31.9c0-6-2.5-9.9-8-9.9
	c-5.4,0-8.7,4.7-8.7,10.9v30.9h-21.2v-57.3h20.2V126.4z"/>
<rect x="8" y="155" class="st1" width="154.6" height="20.9"/>
<polygon class="st1" points="13.9,70.6 0,84.8 13.9,84.8 "/>
<polygon class="st1" points="31.4,53 17.4,67.1 17.4,84.8 31.4,84.8 "/>
<polygon class="st1" points="48.8,35.3 34.8,49.5 34.8,84.8 48.8,84.8 "/>
<polygon class="st1" points="66.2,17.7 52.2,31.8 52.2,84.8 66.2,84.8 "/>
<polygon class="st1" points="83.6,0 69.6,14.1 69.6,84.8 83.6,84.8 "/>
<polygon class="st1" points="101,14.1 87.1,0 87.1,84.8 101,84.8 "/>
<polygon class="st1" points="118.4,31.8 104.5,17.7 104.5,84.8 118.4,84.8 "/>
<polygon class="st1" points="135.8,49.5 121.9,35.3 121.9,84.8 135.8,84.8 "/>
<polygon class="st1" points="153.2,67.1 139.3,53 139.3,84.8 153.2,84.8 "/>
<polygon class="st1" points="156.7,70.6 156.7,84.8 170.6,84.8 "/>
<polygon class="st0" points="8,12.6 8,69.3 63.9,12.6 "/>
<polygon class="st0" points="106.7,12.6 162.6,69.3 162.6,12.6 "/>
<path class="st0" d="M35,115.9h8c6.5,0,10.9-3.5,10.9-9.3c0-5.8-4.2-9.4-9.4-9.4H35V115.9z M17.4,100.9c0-2.3-1.3-3.7-3.6-3.7H8
	v-8.2h39.1c15.3,0,24.4,4.8,24.4,17.5c0,12.8-9.1,17.6-26.2,17.6H35v14.7c0,2.3,1.3,3.7,3.6,3.7h6.3v8.2H8.1v-8.2h5.7
	c2.3,0,3.6-1.4,3.6-3.7V100.9z"/>
<path class="st0" d="M107.5,88.9l10.7,38h0.2l11-38h33.2v8.2h-5.1c-2.3,0-3.6,1.4-3.6,3.7v38c0,2.3,1.3,3.7,3.6,3.7h5.1v8.2h-33.9
	v-8.2h3.9c2.3,0,3.6-1.4,3.6-3.7V99.5h-0.2l-14.7,51.3h-13.6L93.3,98.5h-0.2v40.3c0,2.3,1.3,3.7,3.6,3.7h3.9v8.2h-27v-8.2h5.6
	c2.3,0,3.6-1.4,3.6-3.7v-38c0-2.3-1.3-3.7-3.6-3.7h-5.6v-8.2H107.5z"/>
</svg>
