M48
; DRILL file {KiCad 8.0.8} date 2025-05-01T15:14:38+0530
; FORMAT={-:-/ absolute / metric / decimal}
; #@! TF.CreationDate,2025-05-01T15:14:38+05:30
; #@! TF.GenerationSoftware,Kicad,Pcbnew,8.0.8
; #@! TF.FileFunction,Plated,1,2,PTH
FMAT,2
METRIC
; #@! TA.AperFunction,Plated,PTH,ViaDrill
T1C0.300
; #@! TA.AperFunction,Plated,PTH,ComponentDrill
T2C0.990
; #@! TA.AperFunction,Plated,PTH,ComponentDrill
T3C1.270
%
G90
G05
T1
X114.58Y-159.75
X115.275Y-158.275
X117.22Y-159.72
X118.7Y-141.475
X119.02Y-151.24
X121.98Y-157.44
X122.55Y-145.875
X124.875Y-146.135
X125.451Y-151.201
X126.612Y-151.737
X128.975Y-151.725
X128.975Y-153.575
X130.71Y-149.49
T2
X133.075Y-126.475
X133.075Y-130.975
X139.575Y-126.475
X139.575Y-130.975
T3
X109.17Y-122.025
X109.17Y-137.265
X111.71Y-122.025
X111.71Y-137.265
X114.25Y-122.025
X114.25Y-137.265
X116.79Y-122.025
X116.79Y-137.265
X119.33Y-122.025
X119.33Y-137.265
X121.87Y-122.025
X121.87Y-137.265
X124.41Y-122.025
X124.41Y-137.265
X126.95Y-122.025
X126.95Y-137.265
M30
