%TF.GenerationSoftware,KiCad,Pcbnew,8.0.8*%
%TF.CreationDate,2025-05-01T15:14:52+05:30*%
%TF.ProjectId,smart_ringfinal,736d6172-745f-4726-996e-6766696e616c,rev?*%
%TF.SameCoordinates,Original*%
%TF.FileFunction,Paste,Top*%
%TF.FilePolarity,Positive*%
%FSLAX46Y46*%
G04 Gerber Fmt 4.6, Leading zero omitted, Abs format (unit mm)*
G04 Created by KiCad (PCBNEW 8.0.8) date 2025-05-01 15:14:52*
%MOMM*%
%LPD*%
G01*
G04 APERTURE LIST*
G04 Aperture macros list*
%AMRoundRect*
0 Rectangle with rounded corners*
0 $1 Rounding radius*
0 $2 $3 $4 $5 $6 $7 $8 $9 X,Y pos of 4 corners*
0 Add a 4 corners polygon primitive as box body*
4,1,4,$2,$3,$4,$5,$6,$7,$8,$9,$2,$3,0*
0 Add four circle primitives for the rounded corners*
1,1,$1+$1,$2,$3*
1,1,$1+$1,$4,$5*
1,1,$1+$1,$6,$7*
1,1,$1+$1,$8,$9*
0 Add four rect primitives between the rounded corners*
20,1,$1+$1,$2,$3,$4,$5,0*
20,1,$1+$1,$4,$5,$6,$7,0*
20,1,$1+$1,$6,$7,$8,$9,0*
20,1,$1+$1,$8,$9,$2,$3,0*%
%AMFreePoly0*
4,1,6,0.450000,-0.800000,-0.450000,-0.800000,-0.450000,0.530000,-0.180000,0.800000,0.450000,0.800000,0.450000,-0.800000,0.450000,-0.800000,$1*%
G04 Aperture macros list end*
%ADD10RoundRect,0.075000X-0.350000X-0.075000X0.350000X-0.075000X0.350000X0.075000X-0.350000X0.075000X0*%
%ADD11RoundRect,0.075000X0.075000X-0.350000X0.075000X0.350000X-0.075000X0.350000X-0.075000X-0.350000X0*%
%ADD12RoundRect,0.250000X-0.475000X0.337500X-0.475000X-0.337500X0.475000X-0.337500X0.475000X0.337500X0*%
%ADD13RoundRect,0.250000X0.450000X-0.350000X0.450000X0.350000X-0.450000X0.350000X-0.450000X-0.350000X0*%
%ADD14RoundRect,0.250000X-0.350000X-0.450000X0.350000X-0.450000X0.350000X0.450000X-0.350000X0.450000X0*%
%ADD15RoundRect,0.250000X0.337500X0.475000X-0.337500X0.475000X-0.337500X-0.475000X0.337500X-0.475000X0*%
%ADD16R,1.270000X5.080000*%
%ADD17RoundRect,0.250000X-0.450000X0.350000X-0.450000X-0.350000X0.450000X-0.350000X0.450000X0.350000X0*%
%ADD18RoundRect,0.087500X-0.087500X0.287500X-0.087500X-0.287500X0.087500X-0.287500X0.087500X0.287500X0*%
%ADD19FreePoly0,270.000000*%
%ADD20R,0.250000X0.550000*%
%TA.AperFunction,Profile*%
%ADD21C,0.050000*%
%TD*%
G04 APERTURE END LIST*
D10*
%TO.C,U3*%
X116875000Y-146975000D03*
X116875000Y-147475000D03*
X116875000Y-147975000D03*
X116875000Y-148475000D03*
X116875000Y-148975000D03*
X116875000Y-149475000D03*
D11*
X117575000Y-150175000D03*
X118075000Y-150175000D03*
X118575000Y-150175000D03*
X119075000Y-150175000D03*
X119575000Y-150175000D03*
X120075000Y-150175000D03*
D10*
X120775000Y-149475000D03*
X120775000Y-148975000D03*
X120775000Y-148475000D03*
X120775000Y-147975000D03*
X120775000Y-147475000D03*
X120775000Y-146975000D03*
D11*
X120075000Y-146275000D03*
X119575000Y-146275000D03*
X119075000Y-146275000D03*
X118575000Y-146275000D03*
X118075000Y-146275000D03*
X117575000Y-146275000D03*
%TD*%
D12*
%TO.C,C2*%
X118350000Y-157625000D03*
X118350000Y-159700000D03*
%TD*%
D13*
%TO.C,R2*%
X121075000Y-142750000D03*
X121075000Y-140750000D03*
%TD*%
D14*
%TO.C,R3*%
X123875000Y-149825000D03*
X125875000Y-149825000D03*
%TD*%
D15*
%TO.C,C3*%
X130600000Y-150825000D03*
X128525000Y-150825000D03*
%TD*%
%TO.C,C1*%
X124875000Y-147500000D03*
X122800000Y-147500000D03*
%TD*%
D16*
%TO.C,BT1*%
X109095000Y-170980000D03*
X131065000Y-170980000D03*
%TD*%
D14*
%TO.C,R4*%
X135175000Y-134450000D03*
X137175000Y-134450000D03*
%TD*%
D17*
%TO.C,R1*%
X116575000Y-140725000D03*
X116575000Y-142725000D03*
%TD*%
D18*
%TO.C,U2*%
X121125000Y-153000000D03*
X120325000Y-153000000D03*
X119525000Y-153000000D03*
X118725000Y-153000000D03*
X117925000Y-153000000D03*
X117125000Y-153000000D03*
X116325000Y-153000000D03*
X116325000Y-155400000D03*
X117125000Y-155400000D03*
X117925000Y-155400000D03*
X118725000Y-155400000D03*
X119525000Y-155400000D03*
X120325000Y-155400000D03*
X121125000Y-155400000D03*
%TD*%
D17*
%TO.C,R5*%
X120650000Y-157600000D03*
X120650000Y-159600000D03*
%TD*%
D14*
%TO.C,R6*%
X128200000Y-144075000D03*
X130200000Y-144075000D03*
%TD*%
D19*
%TO.C,U4*%
X128975000Y-147700000D03*
D20*
X129725000Y-146525000D03*
X129225000Y-146525000D03*
X128725000Y-146525000D03*
X128225000Y-146525000D03*
X128225000Y-148875000D03*
X128725000Y-148875000D03*
X129225000Y-148875000D03*
X129725000Y-148875000D03*
%TD*%
D21*
X106045000Y-117030000D02*
X142065000Y-117030000D01*
X142065000Y-180405000D01*
X106045000Y-180405000D01*
X106045000Y-117030000D01*
M02*
