%TF.GenerationSoftware,KiCad,Pcbnew,8.0.8*%
%TF.CreationDate,2025-05-01T15:14:52+05:30*%
%TF.ProjectId,smart_ringfinal,736d6172-745f-4726-996e-6766696e616c,rev?*%
%TF.SameCoordinates,Original*%
%TF.FileFunction,Copper,L1,Top*%
%TF.FilePolarity,Positive*%
%FSLAX46Y46*%
G04 Gerber Fmt 4.6, Leading zero omitted, Abs format (unit mm)*
G04 Created by KiCad (PCBNEW 8.0.8) date 2025-05-01 15:14:52*
%MOMM*%
%LPD*%
G01*
G04 APERTURE LIST*
G04 Aperture macros list*
%AMRoundRect*
0 Rectangle with rounded corners*
0 $1 Rounding radius*
0 $2 $3 $4 $5 $6 $7 $8 $9 X,Y pos of 4 corners*
0 Add a 4 corners polygon primitive as box body*
4,1,4,$2,$3,$4,$5,$6,$7,$8,$9,$2,$3,0*
0 Add four circle primitives for the rounded corners*
1,1,$1+$1,$2,$3*
1,1,$1+$1,$4,$5*
1,1,$1+$1,$6,$7*
1,1,$1+$1,$8,$9*
0 Add four rect primitives between the rounded corners*
20,1,$1+$1,$2,$3,$4,$5,0*
20,1,$1+$1,$4,$5,$6,$7,0*
20,1,$1+$1,$6,$7,$8,$9,0*
20,1,$1+$1,$8,$9,$2,$3,0*%
%AMFreePoly0*
4,1,6,0.500000,-0.850000,-0.500000,-0.850000,-0.500000,0.550000,-0.200000,0.850000,0.500000,0.850000,0.500000,-0.850000,0.500000,-0.850000,$1*%
G04 Aperture macros list end*
%TA.AperFunction,SMDPad,CuDef*%
%ADD10RoundRect,0.075000X-0.350000X-0.075000X0.350000X-0.075000X0.350000X0.075000X-0.350000X0.075000X0*%
%TD*%
%TA.AperFunction,SMDPad,CuDef*%
%ADD11RoundRect,0.075000X0.075000X-0.350000X0.075000X0.350000X-0.075000X0.350000X-0.075000X-0.350000X0*%
%TD*%
%TA.AperFunction,SMDPad,CuDef*%
%ADD12RoundRect,0.250000X-0.475000X0.337500X-0.475000X-0.337500X0.475000X-0.337500X0.475000X0.337500X0*%
%TD*%
%TA.AperFunction,SMDPad,CuDef*%
%ADD13RoundRect,0.250000X0.450000X-0.350000X0.450000X0.350000X-0.450000X0.350000X-0.450000X-0.350000X0*%
%TD*%
%TA.AperFunction,SMDPad,CuDef*%
%ADD14RoundRect,0.250000X-0.350000X-0.450000X0.350000X-0.450000X0.350000X0.450000X-0.350000X0.450000X0*%
%TD*%
%TA.AperFunction,SMDPad,CuDef*%
%ADD15RoundRect,0.250000X0.337500X0.475000X-0.337500X0.475000X-0.337500X-0.475000X0.337500X-0.475000X0*%
%TD*%
%TA.AperFunction,ComponentPad*%
%ADD16C,1.905000*%
%TD*%
%TA.AperFunction,SMDPad,CuDef*%
%ADD17R,3.960000X3.960000*%
%TD*%
%TA.AperFunction,SMDPad,CuDef*%
%ADD18R,1.270000X5.080000*%
%TD*%
%TA.AperFunction,SMDPad,CuDef*%
%ADD19RoundRect,0.250000X-0.450000X0.350000X-0.450000X-0.350000X0.450000X-0.350000X0.450000X0.350000X0*%
%TD*%
%TA.AperFunction,ComponentPad*%
%ADD20R,1.498000X1.498000*%
%TD*%
%TA.AperFunction,ComponentPad*%
%ADD21C,1.498000*%
%TD*%
%TA.AperFunction,SMDPad,CuDef*%
%ADD22RoundRect,0.087500X-0.087500X0.287500X-0.087500X-0.287500X0.087500X-0.287500X0.087500X0.287500X0*%
%TD*%
%TA.AperFunction,SMDPad,CuDef*%
%ADD23R,0.250000X0.550000*%
%TD*%
%TA.AperFunction,SMDPad,CuDef*%
%ADD24FreePoly0,270.000000*%
%TD*%
%TA.AperFunction,ViaPad*%
%ADD25C,0.600000*%
%TD*%
%TA.AperFunction,Conductor*%
%ADD26C,0.500000*%
%TD*%
%TA.AperFunction,Conductor*%
%ADD27C,0.200000*%
%TD*%
%TA.AperFunction,Profile*%
%ADD28C,0.050000*%
%TD*%
G04 APERTURE END LIST*
D10*
%TO.P,U3,1,CLKIN*%
%TO.N,unconnected-(U3-CLKIN-Pad1)*%
X116875000Y-146975000D03*
%TO.P,U3,2,NC*%
%TO.N,unconnected-(U3-NC-Pad2)*%
X116875000Y-147475000D03*
%TO.P,U3,3,NC*%
%TO.N,unconnected-(U3-NC-Pad3)*%
X116875000Y-147975000D03*
%TO.P,U3,4,NC*%
%TO.N,unconnected-(U3-NC-Pad4)*%
X116875000Y-148475000D03*
%TO.P,U3,5,NC*%
%TO.N,unconnected-(U3-NC-Pad5)*%
X116875000Y-148975000D03*
%TO.P,U3,6,AUX_DA*%
%TO.N,unconnected-(U3-AUX_DA-Pad6)*%
X116875000Y-149475000D03*
D11*
%TO.P,U3,7,AUX_CL*%
%TO.N,unconnected-(U3-AUX_CL-Pad7)*%
X117575000Y-150175000D03*
%TO.P,U3,8,VLOGIC*%
%TO.N,unconnected-(U3-VLOGIC-Pad8)*%
X118075000Y-150175000D03*
%TO.P,U3,9,AD0*%
%TO.N,GND*%
X118575000Y-150175000D03*
%TO.P,U3,10,REGOUT*%
%TO.N,unconnected-(U3-REGOUT-Pad10)*%
X119075000Y-150175000D03*
%TO.P,U3,11,FSYNC*%
%TO.N,GND*%
X119575000Y-150175000D03*
%TO.P,U3,12,INT*%
%TO.N,Net-(U3-INT)*%
X120075000Y-150175000D03*
D10*
%TO.P,U3,13,VDD*%
%TO.N,3.3V*%
X120775000Y-149475000D03*
%TO.P,U3,14,NC*%
%TO.N,unconnected-(U3-NC-Pad14)*%
X120775000Y-148975000D03*
%TO.P,U3,15,NC*%
%TO.N,unconnected-(U3-NC-Pad15)*%
X120775000Y-148475000D03*
%TO.P,U3,16,NC*%
%TO.N,unconnected-(U3-NC-Pad16)*%
X120775000Y-147975000D03*
%TO.P,U3,17,NC*%
%TO.N,unconnected-(U3-NC-Pad17)*%
X120775000Y-147475000D03*
%TO.P,U3,18,GND*%
%TO.N,GND*%
X120775000Y-146975000D03*
D11*
%TO.P,U3,19,RESV*%
%TO.N,unconnected-(U3-RESV-Pad19)*%
X120075000Y-146275000D03*
%TO.P,U3,20,CPOUT*%
%TO.N,unconnected-(U3-CPOUT-Pad20)*%
X119575000Y-146275000D03*
%TO.P,U3,21,RESV*%
%TO.N,unconnected-(U3-RESV-Pad21)*%
X119075000Y-146275000D03*
%TO.P,U3,22,RESV*%
%TO.N,unconnected-(U3-RESV-Pad22)*%
X118575000Y-146275000D03*
%TO.P,U3,23,SCL*%
%TO.N,SCL*%
X118075000Y-146275000D03*
%TO.P,U3,24,SDA*%
%TO.N,SDA*%
X117575000Y-146275000D03*
%TD*%
D12*
%TO.P,C2,1*%
%TO.N,3.3V*%
X118350000Y-157625000D03*
%TO.P,C2,2*%
%TO.N,GND*%
X118350000Y-159700000D03*
%TD*%
D13*
%TO.P,R2,1*%
%TO.N,SCL*%
X121075000Y-142750000D03*
%TO.P,R2,2*%
%TO.N,3.3V*%
X121075000Y-140750000D03*
%TD*%
D14*
%TO.P,R3,1*%
%TO.N,Net-(U3-INT)*%
X123875000Y-149825000D03*
%TO.P,R3,2*%
%TO.N,GND*%
X125875000Y-149825000D03*
%TD*%
D15*
%TO.P,C3,1*%
%TO.N,GND*%
X130600000Y-150825000D03*
%TO.P,C3,2*%
%TO.N,3.3V*%
X128525000Y-150825000D03*
%TD*%
%TO.P,C1,1*%
%TO.N,GND*%
X124875000Y-147500000D03*
%TO.P,C1,2*%
%TO.N,3.3V*%
X122800000Y-147500000D03*
%TD*%
D16*
%TO.P,U1,0,GPIO0*%
%TO.N,unconnected-(U1-GPIO0-Pad0)*%
X126950000Y-122025000D03*
%TO.P,U1,1,GPIO1*%
%TO.N,unconnected-(U1-GPIO1-Pad1)*%
X124410000Y-122025000D03*
%TO.P,U1,2,GPIO2*%
%TO.N,Net-(U1-GPIO2)*%
X121870000Y-122025000D03*
%TO.P,U1,3,GPIO3*%
%TO.N,Net-(U1-GPIO3)*%
X119330000Y-122025000D03*
%TO.P,U1,3.3,3V3*%
%TO.N,3.3V*%
X114250000Y-122025000D03*
%TO.P,U1,4,GPIO4*%
%TO.N,unconnected-(U1-GPIO4-Pad4)*%
X116790000Y-122025000D03*
%TO.P,U1,5,GPIO5*%
%TO.N,unconnected-(U1-GPIO5-Pad5)*%
X109170000Y-137265000D03*
%TO.P,U1,5V,5V*%
%TO.N,unconnected-(U1-Pad5V)*%
X109170000Y-122025000D03*
%TO.P,U1,6,GPIO6*%
%TO.N,unconnected-(U1-GPIO6-Pad6)*%
X111710000Y-137265000D03*
%TO.P,U1,7,GPIO7*%
%TO.N,unconnected-(U1-GPIO7-Pad7)*%
X114250000Y-137265000D03*
%TO.P,U1,8,GPIO8*%
%TO.N,SDA*%
X116790000Y-137265000D03*
%TO.P,U1,9,GPIO9*%
%TO.N,SCL*%
X119330000Y-137265000D03*
%TO.P,U1,10,GPIO10*%
%TO.N,Net-(U1-GPIO10)*%
X121870000Y-137265000D03*
%TO.P,U1,20,GPIO20*%
%TO.N,unconnected-(U1-GPIO20-Pad20)*%
X124410000Y-137265000D03*
%TO.P,U1,21,GPIO21*%
%TO.N,unconnected-(U1-GPIO21-Pad21)*%
X126950000Y-137265000D03*
%TO.P,U1,G,GND*%
%TO.N,unconnected-(U1-GND-PadG)*%
X111710000Y-122025000D03*
%TD*%
D17*
%TO.P,BT1,N*%
%TO.N,GND*%
X120080000Y-170980000D03*
D18*
%TO.P,BT1,P1*%
%TO.N,3.3V*%
X109095000Y-170980000D03*
%TO.P,BT1,P2*%
X131065000Y-170980000D03*
%TD*%
D14*
%TO.P,R4,1*%
%TO.N,Net-(R4-Pad1)*%
X135175000Y-134450000D03*
%TO.P,R4,2*%
%TO.N,GND*%
X137175000Y-134450000D03*
%TD*%
D19*
%TO.P,R1,1*%
%TO.N,3.3V*%
X116575000Y-140725000D03*
%TO.P,R1,2*%
%TO.N,SDA*%
X116575000Y-142725000D03*
%TD*%
D20*
%TO.P,S1,1*%
%TO.N,3.3V*%
X133075000Y-126475000D03*
D21*
%TO.P,S1,2*%
%TO.N,unconnected-(S1-Pad2)*%
X133075000Y-130975000D03*
%TO.P,S1,3*%
%TO.N,Net-(U1-GPIO3)*%
X139575000Y-126475000D03*
%TO.P,S1,4*%
%TO.N,Net-(R4-Pad1)*%
X139575000Y-130975000D03*
%TD*%
D22*
%TO.P,U2,1,NC*%
%TO.N,unconnected-(U2-NC-Pad1)*%
X121125000Y-153000000D03*
%TO.P,U2,2,SCL*%
%TO.N,SCL*%
X120325000Y-153000000D03*
%TO.P,U2,3,SDA*%
%TO.N,SDA*%
X119525000Y-153000000D03*
%TO.P,U2,4,PGND*%
%TO.N,unconnected-(U2-PGND-Pad4)*%
X118725000Y-153000000D03*
%TO.P,U2,5,NC*%
%TO.N,unconnected-(U2-NC-Pad5)*%
X117925000Y-153000000D03*
%TO.P,U2,6,NC*%
%TO.N,unconnected-(U2-NC-Pad6)*%
X117125000Y-153000000D03*
%TO.P,U2,7,NC*%
%TO.N,unconnected-(U2-NC-Pad7)*%
X116325000Y-153000000D03*
%TO.P,U2,8,NC*%
%TO.N,unconnected-(U2-NC-Pad8)*%
X116325000Y-155400000D03*
%TO.P,U2,9,VLED+*%
%TO.N,unconnected-(U2-VLED+-Pad10)*%
X117125000Y-155400000D03*
%TO.P,U2,10,VLED+*%
%TO.N,unconnected-(U2-VLED+-Pad10)_1*%
X117925000Y-155400000D03*
%TO.P,U2,11,VDD*%
%TO.N,3.3V*%
X118725000Y-155400000D03*
%TO.P,U2,12,GND*%
%TO.N,GND*%
X119525000Y-155400000D03*
%TO.P,U2,13,~{INT}*%
%TO.N,Net-(U1-GPIO2)*%
X120325000Y-155400000D03*
%TO.P,U2,14,NC*%
%TO.N,unconnected-(U2-NC-Pad14)*%
X121125000Y-155400000D03*
%TD*%
D19*
%TO.P,R5,1*%
%TO.N,Net-(U1-GPIO2)*%
X120650000Y-157600000D03*
%TO.P,R5,2*%
%TO.N,3.3V*%
X120650000Y-159600000D03*
%TD*%
D14*
%TO.P,R6,1*%
%TO.N,Net-(U1-GPIO10)*%
X128200000Y-144075000D03*
%TO.P,R6,2*%
%TO.N,3.3V*%
X130200000Y-144075000D03*
%TD*%
D23*
%TO.P,U4,1,SDA*%
%TO.N,SDA*%
X129725000Y-146525000D03*
%TO.P,U4,2,ADDR*%
%TO.N,GND*%
X129225000Y-146525000D03*
%TO.P,U4,3,ALERT*%
%TO.N,Net-(U1-GPIO10)*%
X128725000Y-146525000D03*
%TO.P,U4,4,SCL*%
%TO.N,SCL*%
X128225000Y-146525000D03*
%TO.P,U4,5,VDD*%
%TO.N,3.3V*%
X128225000Y-148875000D03*
%TO.P,U4,6,~{RESET}*%
%TO.N,unconnected-(U4-~{RESET}-Pad6)*%
X128725000Y-148875000D03*
%TO.P,U4,7,R*%
%TO.N,unconnected-(U4-R-Pad7)*%
X129225000Y-148875000D03*
%TO.P,U4,8,VSS*%
%TO.N,GND*%
X129725000Y-148875000D03*
D24*
%TO.P,U4,9,VSS*%
X128975000Y-147700000D03*
%TD*%
D25*
%TO.N,3.3V*%
X118700000Y-141475000D03*
X115275000Y-158275000D03*
X128975000Y-151725000D03*
X128975000Y-153575000D03*
X122550000Y-145875000D03*
%TO.N,GND*%
X117220000Y-159720000D03*
X119020000Y-151240000D03*
X130710000Y-149490000D03*
X124875000Y-146135000D03*
X114580000Y-159750000D03*
%TO.N,SDA*%
X125450735Y-151200735D03*
X126611765Y-151736765D03*
%TO.N,Net-(U1-GPIO2)*%
X121980000Y-157440000D03*
%TD*%
D26*
%TO.N,3.3V*%
X125482500Y-157742500D02*
X129650000Y-153575000D01*
X125110000Y-176050000D02*
X114165000Y-176050000D01*
X118550000Y-141325000D02*
X118700000Y-141475000D01*
X118550000Y-140725000D02*
X121050000Y-140725000D01*
X118350000Y-157625000D02*
X118725000Y-157250000D01*
X133375000Y-147250000D02*
X130200000Y-144075000D01*
X128975000Y-153575000D02*
X129650000Y-153575000D01*
X130200000Y-130840000D02*
X129570000Y-131470000D01*
X129570000Y-131470000D02*
X120970000Y-131470000D01*
X121050000Y-140725000D02*
X121075000Y-140750000D01*
X123625000Y-159600000D02*
X125482500Y-157742500D01*
X116162500Y-158887500D02*
X115775000Y-159275000D01*
X131890000Y-127660000D02*
X133075000Y-126475000D01*
X128525000Y-151275000D02*
X128975000Y-151725000D01*
X122550000Y-145875000D02*
X122550000Y-147250000D01*
X120250000Y-161325000D02*
X120650000Y-160925000D01*
X133375000Y-151800000D02*
X133375000Y-147250000D01*
D27*
X121550000Y-149475000D02*
X122800000Y-148225000D01*
D26*
X131065000Y-163325000D02*
X131065000Y-170980000D01*
X117425000Y-157625000D02*
X116162500Y-158887500D01*
X118350000Y-157625000D02*
X117425000Y-157625000D01*
X120970000Y-131470000D02*
X114250000Y-124750000D01*
X131890000Y-129150000D02*
X131890000Y-127660000D01*
X131600000Y-153575000D02*
X133375000Y-151800000D01*
D27*
X122800000Y-148225000D02*
X122800000Y-147500000D01*
D26*
X122550000Y-147250000D02*
X122800000Y-147500000D01*
X118550000Y-140725000D02*
X118550000Y-141325000D01*
X129650000Y-153575000D02*
X131600000Y-153575000D01*
X128150000Y-150450000D02*
X128150000Y-148875000D01*
X120650000Y-160925000D02*
X120650000Y-159600000D01*
X128525000Y-150825000D02*
X128525000Y-151275000D01*
X115275000Y-158275000D02*
X115887500Y-158887500D01*
X116575000Y-140725000D02*
X118550000Y-140725000D01*
X125482500Y-157742500D02*
X131065000Y-163325000D01*
X120650000Y-159600000D02*
X121600000Y-159600000D01*
X130200000Y-130840000D02*
X131890000Y-129150000D01*
X130200000Y-144075000D02*
X130200000Y-130840000D01*
X131065000Y-170980000D02*
X130180000Y-170980000D01*
X115775000Y-159275000D02*
X115775000Y-160925000D01*
X114250000Y-124750000D02*
X114250000Y-122025000D01*
D27*
X120775000Y-149475000D02*
X121550000Y-149475000D01*
D26*
X128525000Y-150825000D02*
X128150000Y-150450000D01*
X114165000Y-176050000D02*
X109095000Y-170980000D01*
X116175000Y-161325000D02*
X120250000Y-161325000D01*
X121600000Y-159600000D02*
X123625000Y-159600000D01*
X115775000Y-160925000D02*
X116175000Y-161325000D01*
X118725000Y-157250000D02*
X118725000Y-155400000D01*
X130180000Y-170980000D02*
X125110000Y-176050000D01*
X115887500Y-158887500D02*
X116162500Y-158887500D01*
D27*
%TO.N,GND*%
X125875000Y-148675000D02*
X125950000Y-148600000D01*
X120775000Y-146975000D02*
X121210000Y-146540000D01*
X128975000Y-147700000D02*
X129725000Y-148450000D01*
X129725000Y-148450000D02*
X129725000Y-148875000D01*
X119100000Y-151000000D02*
X119390000Y-151000000D01*
X128975000Y-147700000D02*
X129225000Y-147450000D01*
X129225000Y-147450000D02*
X129225000Y-146525000D01*
D26*
X119525000Y-154365000D02*
X119540000Y-154350000D01*
D27*
X124875000Y-147500000D02*
X124875000Y-146135000D01*
D26*
X119525000Y-155400000D02*
X119525000Y-154365000D01*
D27*
X119100000Y-151000000D02*
X119100000Y-151160000D01*
X130600000Y-149750000D02*
X130530000Y-149680000D01*
X118750000Y-151000000D02*
X119100000Y-151000000D01*
X121210000Y-146540000D02*
X121210000Y-145930000D01*
X130600000Y-150825000D02*
X130600000Y-149750000D01*
X118575000Y-150175000D02*
X118575000Y-150825000D01*
X130530000Y-149680000D02*
X130710000Y-149500000D01*
X125875000Y-149825000D02*
X125875000Y-148675000D01*
X124860000Y-146120000D02*
X124875000Y-146135000D01*
D26*
X118350000Y-159700000D02*
X117240000Y-159700000D01*
D27*
X130710000Y-149500000D02*
X130710000Y-149490000D01*
X130530000Y-149680000D02*
X129725000Y-148875000D01*
X119575000Y-150815000D02*
X119575000Y-150175000D01*
D26*
X117240000Y-159700000D02*
X117220000Y-159720000D01*
D27*
X119390000Y-151000000D02*
X119575000Y-150815000D01*
X118575000Y-150825000D02*
X118750000Y-151000000D01*
D26*
X118300000Y-170925000D02*
X119635000Y-170925000D01*
D27*
X119100000Y-151160000D02*
X119020000Y-151240000D01*
%TO.N,SDA*%
X114675000Y-139380000D02*
X114675000Y-141850000D01*
X115550000Y-151075000D02*
X116575000Y-152100000D01*
X117575000Y-144500000D02*
X117575000Y-143725000D01*
X115550000Y-142725000D02*
X116575000Y-142725000D01*
X116600000Y-144500000D02*
X115550000Y-145550000D01*
X114675000Y-141850000D02*
X115550000Y-142725000D01*
X131875000Y-148325000D02*
X130075000Y-146525000D01*
X115550000Y-145550000D02*
X115550000Y-151075000D01*
X117575000Y-146275000D02*
X117575000Y-144500000D01*
X131875000Y-151550000D02*
X131875000Y-148325000D01*
X116575000Y-152100000D02*
X118750432Y-152100000D01*
X127275000Y-152400000D02*
X131025000Y-152400000D01*
X130075000Y-146525000D02*
X129725000Y-146525000D01*
X119525000Y-152874568D02*
X119525000Y-153000000D01*
X126611765Y-151736765D02*
X127275000Y-152400000D01*
X117575000Y-143725000D02*
X116575000Y-142725000D01*
X118750432Y-152100000D02*
X119525000Y-152874568D01*
X116790000Y-137265000D02*
X114675000Y-139380000D01*
X119525000Y-152874568D02*
X121198833Y-151200735D01*
X121198833Y-151200735D02*
X125450735Y-151200735D01*
X117575000Y-144500000D02*
X116600000Y-144500000D01*
X131025000Y-152400000D02*
X131875000Y-151550000D01*
%TO.N,SCL*%
X122750000Y-139950000D02*
X120065000Y-137265000D01*
X118075000Y-146275000D02*
X118075000Y-145817590D01*
X119475000Y-145550000D02*
X121075000Y-143950000D01*
X127025000Y-146950000D02*
X127025000Y-150475000D01*
X127025000Y-150475000D02*
X125450000Y-152050000D01*
X121075000Y-143950000D02*
X121075000Y-142750000D01*
X122750000Y-142100000D02*
X122750000Y-141825000D01*
X118342590Y-145550000D02*
X119475000Y-145550000D01*
X120065000Y-137265000D02*
X119330000Y-137265000D01*
X125450000Y-152050000D02*
X120925000Y-152050000D01*
X120925000Y-152050000D02*
X120325000Y-152650000D01*
X122750000Y-141825000D02*
X122750000Y-139950000D01*
X120325000Y-152650000D02*
X120325000Y-153000000D01*
X127450000Y-146525000D02*
X127025000Y-146950000D01*
X122100000Y-142750000D02*
X122750000Y-142100000D01*
X121075000Y-142750000D02*
X122100000Y-142750000D01*
X127450000Y-146525000D02*
X122750000Y-141825000D01*
X118075000Y-145817590D02*
X118342590Y-145550000D01*
X128225000Y-146525000D02*
X127450000Y-146525000D01*
%TO.N,Net-(U3-INT)*%
X123875000Y-149825000D02*
X123525000Y-150175000D01*
X123525000Y-150175000D02*
X120075000Y-150175000D01*
%TO.N,Net-(R4-Pad1)*%
X137375000Y-132250000D02*
X135175000Y-134450000D01*
X138300000Y-132250000D02*
X137375000Y-132250000D01*
X139575000Y-130975000D02*
X138300000Y-132250000D01*
%TO.N,Net-(U1-GPIO2)*%
X120650000Y-155725000D02*
X120325000Y-155400000D01*
X121820000Y-157600000D02*
X121980000Y-157440000D01*
X120650000Y-157600000D02*
X120650000Y-155725000D01*
X120650000Y-157600000D02*
X121820000Y-157600000D01*
%TO.N,Net-(U1-GPIO10)*%
X128725000Y-144600000D02*
X128725000Y-146525000D01*
X128200000Y-143595000D02*
X121870000Y-137265000D01*
X128200000Y-144075000D02*
X128200000Y-143595000D01*
X128200000Y-144075000D02*
X128725000Y-144600000D01*
%TO.N,Net-(U1-GPIO3)*%
X139575000Y-126475000D02*
X132575000Y-119475000D01*
X132575000Y-119475000D02*
X121880000Y-119475000D01*
X121880000Y-119475000D02*
X119330000Y-122025000D01*
%TD*%
%TA.AperFunction,Conductor*%
%TO.N,GND*%
G36*
X117046663Y-159167217D02*
G01*
X117102596Y-159209089D01*
X117127013Y-159274553D01*
X117126687Y-159295998D01*
X117125001Y-159312504D01*
X117125000Y-159312526D01*
X117125000Y-159450000D01*
X118226000Y-159450000D01*
X118293039Y-159469685D01*
X118338794Y-159522489D01*
X118350000Y-159574000D01*
X118350000Y-159826000D01*
X118330315Y-159893039D01*
X118277511Y-159938794D01*
X118226000Y-159950000D01*
X117125001Y-159950000D01*
X117125001Y-160087486D01*
X117135494Y-160190197D01*
X117190641Y-160356619D01*
X117190646Y-160356630D01*
X117208394Y-160385403D01*
X117226835Y-160452795D01*
X117205913Y-160519459D01*
X117152271Y-160564228D01*
X117102856Y-160574500D01*
X116649500Y-160574500D01*
X116582461Y-160554815D01*
X116536706Y-160502011D01*
X116525500Y-160450500D01*
X116525500Y-159637230D01*
X116545185Y-159570191D01*
X116561819Y-159549549D01*
X116661368Y-159450000D01*
X116745452Y-159365916D01*
X116745452Y-159365915D01*
X116915650Y-159195716D01*
X116976971Y-159162233D01*
X117046663Y-159167217D01*
G37*
%TD.AperFunction*%
%TA.AperFunction,Conductor*%
G36*
X116321945Y-150088808D02*
G01*
X116374764Y-150110687D01*
X116487280Y-150125500D01*
X116800500Y-150125500D01*
X116867539Y-150145185D01*
X116913294Y-150197989D01*
X116924500Y-150249500D01*
X116924500Y-150562727D01*
X116939313Y-150675235D01*
X116939313Y-150675236D01*
X116993193Y-150805315D01*
X116997302Y-150815233D01*
X117089549Y-150935451D01*
X117209767Y-151027698D01*
X117349764Y-151085687D01*
X117456586Y-151099750D01*
X117462264Y-151100498D01*
X117462280Y-151100500D01*
X117462287Y-151100500D01*
X117687713Y-151100500D01*
X117687720Y-151100500D01*
X117800236Y-151085687D01*
X117800236Y-151085686D01*
X117808295Y-151084626D01*
X117808698Y-151087689D01*
X117841302Y-151087689D01*
X117841705Y-151084626D01*
X117849763Y-151085686D01*
X117849764Y-151085687D01*
X117962280Y-151100500D01*
X117962287Y-151100500D01*
X118187713Y-151100500D01*
X118187720Y-151100500D01*
X118300236Y-151085687D01*
X118300236Y-151085686D01*
X118308295Y-151084626D01*
X118308530Y-151086418D01*
X118342269Y-151084195D01*
X118424999Y-151095086D01*
X118427155Y-151093195D01*
X118444685Y-151033497D01*
X118473512Y-151002161D01*
X118499515Y-150982208D01*
X118564684Y-150957016D01*
X118633129Y-150971055D01*
X118650484Y-150982208D01*
X118676486Y-151002160D01*
X118717689Y-151058587D01*
X118723878Y-151094102D01*
X118725000Y-151095086D01*
X118807730Y-151084195D01*
X118841469Y-151086415D01*
X118841705Y-151084626D01*
X118849763Y-151085686D01*
X118849764Y-151085687D01*
X118962280Y-151100500D01*
X118962287Y-151100500D01*
X119187713Y-151100500D01*
X119187720Y-151100500D01*
X119300236Y-151085687D01*
X119300236Y-151085686D01*
X119308295Y-151084626D01*
X119308530Y-151086418D01*
X119342269Y-151084195D01*
X119424999Y-151095086D01*
X119427155Y-151093195D01*
X119444685Y-151033497D01*
X119473512Y-151002161D01*
X119499515Y-150982208D01*
X119564684Y-150957016D01*
X119633129Y-150971055D01*
X119650484Y-150982208D01*
X119676486Y-151002160D01*
X119717689Y-151058587D01*
X119723878Y-151094102D01*
X119725000Y-151095086D01*
X119807730Y-151084195D01*
X119841469Y-151086415D01*
X119841705Y-151084626D01*
X119849763Y-151085686D01*
X119849764Y-151085687D01*
X119962280Y-151100500D01*
X119962287Y-151100500D01*
X120150470Y-151100500D01*
X120217509Y-151120185D01*
X120263264Y-151172989D01*
X120273208Y-151242147D01*
X120244183Y-151305703D01*
X120238151Y-151312181D01*
X119612680Y-151937651D01*
X119551357Y-151971136D01*
X119481665Y-151966152D01*
X119437319Y-151937652D01*
X119238021Y-151738354D01*
X119238020Y-151738352D01*
X119119149Y-151619481D01*
X119119148Y-151619480D01*
X119008366Y-151555520D01*
X119008366Y-151555519D01*
X119008361Y-151555518D01*
X118991435Y-151545745D01*
X118982218Y-151540423D01*
X118944035Y-151530192D01*
X118829489Y-151499499D01*
X118671375Y-151499499D01*
X118663779Y-151499499D01*
X118663763Y-151499500D01*
X116875097Y-151499500D01*
X116808058Y-151479815D01*
X116787416Y-151463181D01*
X116186819Y-150862584D01*
X116153334Y-150801261D01*
X116150500Y-150774903D01*
X116150500Y-150203372D01*
X116170185Y-150136333D01*
X116222989Y-150090578D01*
X116292147Y-150080634D01*
X116321945Y-150088808D01*
G37*
%TD.AperFunction*%
%TA.AperFunction,Conductor*%
G36*
X130535203Y-147834884D02*
G01*
X130541681Y-147840916D01*
X131238181Y-148537416D01*
X131271666Y-148598739D01*
X131274500Y-148625097D01*
X131274500Y-149499846D01*
X131254815Y-149566885D01*
X131202011Y-149612640D01*
X131132853Y-149622584D01*
X131111498Y-149617553D01*
X131090195Y-149610494D01*
X131090190Y-149610493D01*
X130987486Y-149600000D01*
X130850000Y-149600000D01*
X130850000Y-150701000D01*
X130830315Y-150768039D01*
X130777511Y-150813794D01*
X130726000Y-150825000D01*
X130474000Y-150825000D01*
X130406961Y-150805315D01*
X130361206Y-150752511D01*
X130350000Y-150701000D01*
X130350000Y-149600000D01*
X130335269Y-149585270D01*
X130318394Y-149580315D01*
X130272639Y-149527511D01*
X130262695Y-149458353D01*
X130286167Y-149401688D01*
X130293352Y-149392089D01*
X130293354Y-149392086D01*
X130343596Y-149257379D01*
X130343598Y-149257372D01*
X130349999Y-149197844D01*
X130350000Y-149197827D01*
X130350000Y-149000000D01*
X129974500Y-149000000D01*
X129907461Y-148980315D01*
X129861706Y-148927511D01*
X129850500Y-148876062D01*
X129850499Y-148874062D01*
X129870150Y-148807013D01*
X129922931Y-148761231D01*
X129974499Y-148750000D01*
X130350000Y-148750000D01*
X130350000Y-148552172D01*
X130349999Y-148552155D01*
X130343598Y-148492623D01*
X130314266Y-148413982D01*
X130309781Y-148351269D01*
X130308282Y-148351054D01*
X130329999Y-148199998D01*
X130330000Y-148199997D01*
X130330000Y-147928597D01*
X130349685Y-147861558D01*
X130402489Y-147815803D01*
X130471647Y-147805859D01*
X130535203Y-147834884D01*
G37*
%TD.AperFunction*%
%TA.AperFunction,Conductor*%
G36*
X122930833Y-142870914D02*
G01*
X122975177Y-142899413D01*
X124753561Y-144677796D01*
X126518402Y-146442637D01*
X126551887Y-146503960D01*
X126546903Y-146573652D01*
X126538110Y-146592315D01*
X126523512Y-146617601D01*
X126508435Y-146643716D01*
X126465423Y-146718215D01*
X126424499Y-146870943D01*
X126424499Y-146870945D01*
X126424499Y-147039046D01*
X126424500Y-147039059D01*
X126424500Y-148502961D01*
X126404815Y-148570000D01*
X126352011Y-148615755D01*
X126287902Y-148626319D01*
X126274998Y-148625001D01*
X126274974Y-148625000D01*
X126125000Y-148625000D01*
X126125000Y-149701000D01*
X126105315Y-149768039D01*
X126052511Y-149813794D01*
X126001000Y-149825000D01*
X125749000Y-149825000D01*
X125681961Y-149805315D01*
X125636206Y-149752511D01*
X125625000Y-149701000D01*
X125625000Y-148619000D01*
X125644685Y-148551961D01*
X125697489Y-148506206D01*
X125749000Y-148495000D01*
X125753161Y-148495000D01*
X125753161Y-148494999D01*
X125804815Y-148443345D01*
X125896856Y-148294124D01*
X125896858Y-148294119D01*
X125952005Y-148127697D01*
X125952006Y-148127690D01*
X125962499Y-148024986D01*
X125962500Y-148024973D01*
X125962500Y-147750000D01*
X124999000Y-147750000D01*
X124931961Y-147730315D01*
X124886206Y-147677511D01*
X124875000Y-147626000D01*
X124875000Y-147500000D01*
X124749000Y-147500000D01*
X124681961Y-147480315D01*
X124636206Y-147427511D01*
X124625000Y-147376000D01*
X124625000Y-147250000D01*
X125125000Y-147250000D01*
X125962499Y-147250000D01*
X125962499Y-146975028D01*
X125962498Y-146975013D01*
X125952005Y-146872302D01*
X125896858Y-146705880D01*
X125896856Y-146705875D01*
X125804815Y-146556654D01*
X125680845Y-146432684D01*
X125531624Y-146340643D01*
X125531619Y-146340641D01*
X125365197Y-146285494D01*
X125365190Y-146285493D01*
X125262486Y-146275000D01*
X125125000Y-146275000D01*
X125125000Y-147250000D01*
X124625000Y-147250000D01*
X124625000Y-146275000D01*
X124487527Y-146275000D01*
X124487512Y-146275001D01*
X124384802Y-146285494D01*
X124218380Y-146340641D01*
X124218375Y-146340643D01*
X124069154Y-146432684D01*
X123945183Y-146556655D01*
X123945179Y-146556660D01*
X123943326Y-146559665D01*
X123941518Y-146561290D01*
X123940702Y-146562323D01*
X123940525Y-146562183D01*
X123891374Y-146606385D01*
X123822411Y-146617601D01*
X123758331Y-146589752D01*
X123732253Y-146559653D01*
X123732237Y-146559628D01*
X123730212Y-146556344D01*
X123606156Y-146432288D01*
X123456834Y-146340186D01*
X123456832Y-146340185D01*
X123456830Y-146340184D01*
X123456829Y-146340183D01*
X123385495Y-146316545D01*
X123328050Y-146276772D01*
X123301228Y-146212256D01*
X123300500Y-146198840D01*
X123300500Y-146174972D01*
X123307458Y-146134017D01*
X123335368Y-146054254D01*
X123335369Y-146054249D01*
X123355565Y-145875003D01*
X123355565Y-145874996D01*
X123335369Y-145695750D01*
X123335368Y-145695745D01*
X123275788Y-145525476D01*
X123179815Y-145372737D01*
X123052262Y-145245184D01*
X122899523Y-145149211D01*
X122729254Y-145089631D01*
X122729249Y-145089630D01*
X122550004Y-145069435D01*
X122549996Y-145069435D01*
X122370750Y-145089630D01*
X122370745Y-145089631D01*
X122200476Y-145149211D01*
X122047737Y-145245184D01*
X121920184Y-145372737D01*
X121824211Y-145525476D01*
X121764631Y-145695745D01*
X121764630Y-145695750D01*
X121744435Y-145874996D01*
X121744435Y-145875003D01*
X121764630Y-146054249D01*
X121764631Y-146054254D01*
X121792542Y-146134017D01*
X121799500Y-146174972D01*
X121799500Y-146469192D01*
X121779815Y-146536231D01*
X121727011Y-146581986D01*
X121657853Y-146591930D01*
X121594297Y-146562905D01*
X121577125Y-146544679D01*
X121535096Y-146489907D01*
X121414978Y-146397736D01*
X121275108Y-146339801D01*
X121275104Y-146339800D01*
X121162697Y-146325000D01*
X120914873Y-146325000D01*
X120875858Y-146346304D01*
X120806166Y-146341320D01*
X120750233Y-146299448D01*
X120725816Y-146233984D01*
X120725500Y-146225138D01*
X120725500Y-145887286D01*
X120725499Y-145887272D01*
X120721974Y-145860498D01*
X120710687Y-145774764D01*
X120652698Y-145634767D01*
X120560451Y-145514549D01*
X120560449Y-145514547D01*
X120560448Y-145514546D01*
X120559028Y-145513457D01*
X120558132Y-145512230D01*
X120554704Y-145508802D01*
X120555238Y-145508267D01*
X120517825Y-145457029D01*
X120513671Y-145387283D01*
X120546834Y-145327401D01*
X120997224Y-144877011D01*
X121555520Y-144318716D01*
X121634577Y-144181784D01*
X121675501Y-144029057D01*
X121675501Y-143930300D01*
X121695186Y-143863261D01*
X121747990Y-143817506D01*
X121760489Y-143812597D01*
X121844334Y-143784814D01*
X121993656Y-143692712D01*
X122117712Y-143568656D01*
X122209814Y-143419334D01*
X122216811Y-143398218D01*
X122256582Y-143340772D01*
X122302422Y-143317444D01*
X122331785Y-143309577D01*
X122381904Y-143280639D01*
X122468716Y-143230520D01*
X122580520Y-143118716D01*
X122580520Y-143118714D01*
X122590728Y-143108507D01*
X122590730Y-143108504D01*
X122799820Y-142899413D01*
X122861141Y-142865930D01*
X122930833Y-142870914D01*
G37*
%TD.AperFunction*%
%TA.AperFunction,Conductor*%
G36*
X141507539Y-117550185D02*
G01*
X141553294Y-117602989D01*
X141564500Y-117654500D01*
X141564500Y-179780500D01*
X141544815Y-179847539D01*
X141492011Y-179893294D01*
X141440500Y-179904500D01*
X106669500Y-179904500D01*
X106602461Y-179884815D01*
X106556706Y-179832011D01*
X106545500Y-179780500D01*
X106545500Y-122024994D01*
X107712020Y-122024994D01*
X107712020Y-122025005D01*
X107731904Y-122264972D01*
X107731904Y-122264975D01*
X107731905Y-122264976D01*
X107791017Y-122498405D01*
X107887745Y-122718922D01*
X108019449Y-122920510D01*
X108182537Y-123097671D01*
X108372561Y-123245572D01*
X108584336Y-123360179D01*
X108680820Y-123393302D01*
X108812083Y-123438365D01*
X108812085Y-123438365D01*
X108812087Y-123438366D01*
X109049601Y-123478000D01*
X109049602Y-123478000D01*
X109290398Y-123478000D01*
X109290399Y-123478000D01*
X109527913Y-123438366D01*
X109755664Y-123360179D01*
X109967439Y-123245572D01*
X110157463Y-123097671D01*
X110320551Y-122920510D01*
X110336190Y-122896571D01*
X110389336Y-122851214D01*
X110458567Y-122841790D01*
X110521904Y-122871291D01*
X110543808Y-122896570D01*
X110559449Y-122920510D01*
X110722537Y-123097671D01*
X110912561Y-123245572D01*
X111124336Y-123360179D01*
X111220820Y-123393302D01*
X111352083Y-123438365D01*
X111352085Y-123438365D01*
X111352087Y-123438366D01*
X111589601Y-123478000D01*
X111589602Y-123478000D01*
X111830398Y-123478000D01*
X111830399Y-123478000D01*
X112067913Y-123438366D01*
X112295664Y-123360179D01*
X112507439Y-123245572D01*
X112697463Y-123097671D01*
X112860551Y-122920510D01*
X112876190Y-122896571D01*
X112929336Y-122851214D01*
X112998567Y-122841790D01*
X113061904Y-122871291D01*
X113083808Y-122896570D01*
X113099449Y-122920510D01*
X113262537Y-123097671D01*
X113335306Y-123154309D01*
X113451662Y-123244873D01*
X113492475Y-123301583D01*
X113499500Y-123342726D01*
X113499500Y-124823918D01*
X113499500Y-124823920D01*
X113499499Y-124823920D01*
X113528340Y-124968907D01*
X113528343Y-124968917D01*
X113584914Y-125105492D01*
X113617812Y-125154727D01*
X113617813Y-125154730D01*
X113667046Y-125228414D01*
X113667052Y-125228421D01*
X120387049Y-131948416D01*
X120491584Y-132052951D01*
X120491585Y-132052952D01*
X120614498Y-132135080D01*
X120614511Y-132135087D01*
X120710091Y-132174677D01*
X120751087Y-132191658D01*
X120751091Y-132191658D01*
X120751092Y-132191659D01*
X120896079Y-132220500D01*
X120896082Y-132220500D01*
X121043917Y-132220500D01*
X129325500Y-132220500D01*
X129392539Y-132240185D01*
X129438294Y-132292989D01*
X129449500Y-132344500D01*
X129449500Y-142921042D01*
X129429815Y-142988081D01*
X129390598Y-143026580D01*
X129381344Y-143032287D01*
X129381343Y-143032288D01*
X129287681Y-143125951D01*
X129226358Y-143159436D01*
X129156666Y-143154452D01*
X129112319Y-143125951D01*
X129018657Y-143032289D01*
X129018656Y-143032288D01*
X128869334Y-142940186D01*
X128702797Y-142885001D01*
X128702795Y-142885000D01*
X128600016Y-142874500D01*
X128600009Y-142874500D01*
X128380097Y-142874500D01*
X128313058Y-142854815D01*
X128292416Y-142838181D01*
X124383916Y-138929681D01*
X124350431Y-138868358D01*
X124355415Y-138798666D01*
X124397287Y-138742733D01*
X124462751Y-138718316D01*
X124471597Y-138718000D01*
X124530398Y-138718000D01*
X124530399Y-138718000D01*
X124767913Y-138678366D01*
X124995664Y-138600179D01*
X125207439Y-138485572D01*
X125397463Y-138337671D01*
X125560551Y-138160510D01*
X125576190Y-138136571D01*
X125629336Y-138091214D01*
X125698567Y-138081790D01*
X125761904Y-138111291D01*
X125783808Y-138136570D01*
X125799449Y-138160510D01*
X125962537Y-138337671D01*
X126152561Y-138485572D01*
X126364336Y-138600179D01*
X126482598Y-138640778D01*
X126592083Y-138678365D01*
X126592085Y-138678365D01*
X126592087Y-138678366D01*
X126829601Y-138718000D01*
X126829602Y-138718000D01*
X127070398Y-138718000D01*
X127070399Y-138718000D01*
X127307913Y-138678366D01*
X127535664Y-138600179D01*
X127747439Y-138485572D01*
X127937463Y-138337671D01*
X128100551Y-138160510D01*
X128232255Y-137958922D01*
X128328983Y-137738405D01*
X128388095Y-137504976D01*
X128407980Y-137265000D01*
X128388095Y-137025024D01*
X128328983Y-136791595D01*
X128232255Y-136571078D01*
X128100551Y-136369490D01*
X127937463Y-136192329D01*
X127803358Y-136087951D01*
X127747441Y-136044429D01*
X127535665Y-135929821D01*
X127535656Y-135929818D01*
X127307916Y-135851634D01*
X127129777Y-135821908D01*
X127070399Y-135812000D01*
X126829601Y-135812000D01*
X126782098Y-135819926D01*
X126592083Y-135851634D01*
X126364343Y-135929818D01*
X126364334Y-135929821D01*
X126152558Y-136044429D01*
X126018456Y-136148805D01*
X125962537Y-136192329D01*
X125799449Y-136369490D01*
X125783808Y-136393431D01*
X125730661Y-136438787D01*
X125661430Y-136448210D01*
X125598094Y-136418707D01*
X125576192Y-136393431D01*
X125560551Y-136369490D01*
X125397463Y-136192329D01*
X125263358Y-136087951D01*
X125207441Y-136044429D01*
X124995665Y-135929821D01*
X124995656Y-135929818D01*
X124767916Y-135851634D01*
X124589777Y-135821908D01*
X124530399Y-135812000D01*
X124289601Y-135812000D01*
X124242098Y-135819926D01*
X124052083Y-135851634D01*
X123824343Y-135929818D01*
X123824334Y-135929821D01*
X123612558Y-136044429D01*
X123478456Y-136148805D01*
X123422537Y-136192329D01*
X123259449Y-136369490D01*
X123243808Y-136393431D01*
X123190661Y-136438787D01*
X123121430Y-136448210D01*
X123058094Y-136418707D01*
X123036192Y-136393431D01*
X123020551Y-136369490D01*
X122857463Y-136192329D01*
X122723358Y-136087951D01*
X122667441Y-136044429D01*
X122455665Y-135929821D01*
X122455656Y-135929818D01*
X122227916Y-135851634D01*
X122049777Y-135821908D01*
X121990399Y-135812000D01*
X121749601Y-135812000D01*
X121702098Y-135819926D01*
X121512083Y-135851634D01*
X121284343Y-135929818D01*
X121284334Y-135929821D01*
X121072558Y-136044429D01*
X120938456Y-136148805D01*
X120882537Y-136192329D01*
X120719449Y-136369490D01*
X120703808Y-136393431D01*
X120650661Y-136438787D01*
X120581430Y-136448210D01*
X120518094Y-136418707D01*
X120496192Y-136393431D01*
X120480551Y-136369490D01*
X120317463Y-136192329D01*
X120183358Y-136087951D01*
X120127441Y-136044429D01*
X119915665Y-135929821D01*
X119915656Y-135929818D01*
X119687916Y-135851634D01*
X119509777Y-135821908D01*
X119450399Y-135812000D01*
X119209601Y-135812000D01*
X119162098Y-135819926D01*
X118972083Y-135851634D01*
X118744343Y-135929818D01*
X118744334Y-135929821D01*
X118532558Y-136044429D01*
X118398456Y-136148805D01*
X118342537Y-136192329D01*
X118179449Y-136369490D01*
X118163808Y-136393431D01*
X118110661Y-136438787D01*
X118041430Y-136448210D01*
X117978094Y-136418707D01*
X117956192Y-136393431D01*
X117940551Y-136369490D01*
X117777463Y-136192329D01*
X117643358Y-136087951D01*
X117587441Y-136044429D01*
X117375665Y-135929821D01*
X117375656Y-135929818D01*
X117147916Y-135851634D01*
X116969777Y-135821908D01*
X116910399Y-135812000D01*
X116669601Y-135812000D01*
X116622098Y-135819926D01*
X116432083Y-135851634D01*
X116204343Y-135929818D01*
X116204334Y-135929821D01*
X115992558Y-136044429D01*
X115858456Y-136148805D01*
X115802537Y-136192329D01*
X115639449Y-136369490D01*
X115623808Y-136393431D01*
X115570661Y-136438787D01*
X115501430Y-136448210D01*
X115438094Y-136418707D01*
X115416192Y-136393431D01*
X115400551Y-136369490D01*
X115237463Y-136192329D01*
X115103358Y-136087951D01*
X115047441Y-136044429D01*
X114835665Y-135929821D01*
X114835656Y-135929818D01*
X114607916Y-135851634D01*
X114429777Y-135821908D01*
X114370399Y-135812000D01*
X114129601Y-135812000D01*
X114082098Y-135819926D01*
X113892083Y-135851634D01*
X113664343Y-135929818D01*
X113664334Y-135929821D01*
X113452558Y-136044429D01*
X113318456Y-136148805D01*
X113262537Y-136192329D01*
X113099449Y-136369490D01*
X113083808Y-136393431D01*
X113030661Y-136438787D01*
X112961430Y-136448210D01*
X112898094Y-136418707D01*
X112876192Y-136393431D01*
X112860551Y-136369490D01*
X112697463Y-136192329D01*
X112563358Y-136087951D01*
X112507441Y-136044429D01*
X112295665Y-135929821D01*
X112295656Y-135929818D01*
X112067916Y-135851634D01*
X111889777Y-135821908D01*
X111830399Y-135812000D01*
X111589601Y-135812000D01*
X111542098Y-135819926D01*
X111352083Y-135851634D01*
X111124343Y-135929818D01*
X111124334Y-135929821D01*
X110912558Y-136044429D01*
X110778456Y-136148805D01*
X110722537Y-136192329D01*
X110559449Y-136369490D01*
X110543808Y-136393431D01*
X110490661Y-136438787D01*
X110421430Y-136448210D01*
X110358094Y-136418707D01*
X110336192Y-136393431D01*
X110320551Y-136369490D01*
X110157463Y-136192329D01*
X110023358Y-136087951D01*
X109967441Y-136044429D01*
X109755665Y-135929821D01*
X109755656Y-135929818D01*
X109527916Y-135851634D01*
X109349777Y-135821908D01*
X109290399Y-135812000D01*
X109049601Y-135812000D01*
X109002098Y-135819926D01*
X108812083Y-135851634D01*
X108584343Y-135929818D01*
X108584334Y-135929821D01*
X108372558Y-136044429D01*
X108238456Y-136148805D01*
X108182537Y-136192329D01*
X108182534Y-136192331D01*
X108182534Y-136192332D01*
X108019449Y-136369490D01*
X107887743Y-136571081D01*
X107791017Y-136791594D01*
X107731904Y-137025027D01*
X107712020Y-137264994D01*
X107712020Y-137265005D01*
X107731904Y-137504972D01*
X107731904Y-137504975D01*
X107731905Y-137504976D01*
X107791017Y-137738405D01*
X107887745Y-137958922D01*
X108019449Y-138160510D01*
X108182537Y-138337671D01*
X108372561Y-138485572D01*
X108584336Y-138600179D01*
X108702598Y-138640778D01*
X108812083Y-138678365D01*
X108812085Y-138678365D01*
X108812087Y-138678366D01*
X109049601Y-138718000D01*
X109049602Y-138718000D01*
X109290398Y-138718000D01*
X109290399Y-138718000D01*
X109527913Y-138678366D01*
X109755664Y-138600179D01*
X109967439Y-138485572D01*
X110157463Y-138337671D01*
X110320551Y-138160510D01*
X110336190Y-138136571D01*
X110389336Y-138091214D01*
X110458567Y-138081790D01*
X110521904Y-138111291D01*
X110543808Y-138136570D01*
X110559449Y-138160510D01*
X110722537Y-138337671D01*
X110912561Y-138485572D01*
X111124336Y-138600179D01*
X111242598Y-138640778D01*
X111352083Y-138678365D01*
X111352085Y-138678365D01*
X111352087Y-138678366D01*
X111589601Y-138718000D01*
X111589602Y-138718000D01*
X111830398Y-138718000D01*
X111830399Y-138718000D01*
X112067913Y-138678366D01*
X112295664Y-138600179D01*
X112507439Y-138485572D01*
X112697463Y-138337671D01*
X112860551Y-138160510D01*
X112876190Y-138136571D01*
X112929336Y-138091214D01*
X112998567Y-138081790D01*
X113061904Y-138111291D01*
X113083808Y-138136570D01*
X113099449Y-138160510D01*
X113262537Y-138337671D01*
X113452561Y-138485572D01*
X113664336Y-138600179D01*
X113782598Y-138640778D01*
X113892083Y-138678365D01*
X113892085Y-138678365D01*
X113892087Y-138678366D01*
X114129601Y-138718000D01*
X114129602Y-138718000D01*
X114188402Y-138718000D01*
X114255441Y-138737685D01*
X114301196Y-138790489D01*
X114311140Y-138859647D01*
X114282115Y-138923203D01*
X114276083Y-138929681D01*
X114194481Y-139011282D01*
X114194479Y-139011285D01*
X114144361Y-139098094D01*
X114144359Y-139098096D01*
X114115425Y-139148209D01*
X114115424Y-139148210D01*
X114115423Y-139148215D01*
X114074499Y-139300943D01*
X114074499Y-139300945D01*
X114074499Y-139469046D01*
X114074500Y-139469059D01*
X114074500Y-141763330D01*
X114074499Y-141763348D01*
X114074499Y-141929054D01*
X114074498Y-141929054D01*
X114074499Y-141929057D01*
X114115122Y-142080663D01*
X114115423Y-142081784D01*
X114115424Y-142081787D01*
X114118837Y-142087698D01*
X114118838Y-142087700D01*
X114194477Y-142218712D01*
X114194481Y-142218717D01*
X114313349Y-142337585D01*
X114313355Y-142337590D01*
X115065139Y-143089374D01*
X115065149Y-143089385D01*
X115069479Y-143093715D01*
X115069480Y-143093716D01*
X115181284Y-143205520D01*
X115263171Y-143252797D01*
X115263172Y-143252798D01*
X115318209Y-143284574D01*
X115318213Y-143284576D01*
X115318215Y-143284577D01*
X115347574Y-143292443D01*
X115407234Y-143328807D01*
X115433186Y-143373212D01*
X115440184Y-143394331D01*
X115440186Y-143394334D01*
X115532288Y-143543656D01*
X115656344Y-143667712D01*
X115805666Y-143759814D01*
X115972203Y-143814999D01*
X116074991Y-143825500D01*
X116125903Y-143825499D01*
X116192940Y-143845182D01*
X116238695Y-143897985D01*
X116248640Y-143967144D01*
X116219616Y-144030700D01*
X116213584Y-144037180D01*
X116119480Y-144131284D01*
X115069481Y-145181282D01*
X115069475Y-145181290D01*
X115032588Y-145245182D01*
X115032588Y-145245184D01*
X114990423Y-145318214D01*
X114982445Y-145347987D01*
X114949499Y-145470943D01*
X114949499Y-145470945D01*
X114949499Y-145639046D01*
X114949500Y-145639059D01*
X114949500Y-150988330D01*
X114949499Y-150988348D01*
X114949499Y-151154054D01*
X114949498Y-151154054D01*
X114949499Y-151154057D01*
X114990423Y-151306785D01*
X115014748Y-151348917D01*
X115069477Y-151443712D01*
X115069481Y-151443717D01*
X115188349Y-151562585D01*
X115188355Y-151562590D01*
X115784987Y-152159222D01*
X115818472Y-152220545D01*
X115813488Y-152290237D01*
X115795683Y-152322388D01*
X115723882Y-152415963D01*
X115664636Y-152558997D01*
X115664635Y-152559002D01*
X115649500Y-152673952D01*
X115649500Y-153326047D01*
X115664635Y-153440997D01*
X115664636Y-153441002D01*
X115723882Y-153584036D01*
X115723883Y-153584037D01*
X115818133Y-153706867D01*
X115940963Y-153801117D01*
X115940962Y-153801117D01*
X116019189Y-153833519D01*
X116084001Y-153860365D01*
X116198960Y-153875500D01*
X116198967Y-153875500D01*
X116451033Y-153875500D01*
X116451040Y-153875500D01*
X116565999Y-153860365D01*
X116677548Y-153814159D01*
X116747017Y-153806691D01*
X116772448Y-153814158D01*
X116884001Y-153860365D01*
X116998960Y-153875500D01*
X116998967Y-153875500D01*
X117251033Y-153875500D01*
X117251040Y-153875500D01*
X117365999Y-153860365D01*
X117477548Y-153814159D01*
X117547017Y-153806691D01*
X117572448Y-153814158D01*
X117684001Y-153860365D01*
X117798960Y-153875500D01*
X117798967Y-153875500D01*
X118051033Y-153875500D01*
X118051040Y-153875500D01*
X118165999Y-153860365D01*
X118277548Y-153814159D01*
X118347017Y-153806691D01*
X118372448Y-153814158D01*
X118484001Y-153860365D01*
X118598960Y-153875500D01*
X118598967Y-153875500D01*
X118851033Y-153875500D01*
X118851040Y-153875500D01*
X118965999Y-153860365D01*
X119077548Y-153814159D01*
X119147017Y-153806691D01*
X119172448Y-153814158D01*
X119284001Y-153860365D01*
X119398960Y-153875500D01*
X119398967Y-153875500D01*
X119651033Y-153875500D01*
X119651040Y-153875500D01*
X119765999Y-153860365D01*
X119877548Y-153814159D01*
X119947017Y-153806691D01*
X119972448Y-153814158D01*
X120084001Y-153860365D01*
X120198960Y-153875500D01*
X120198967Y-153875500D01*
X120451033Y-153875500D01*
X120451040Y-153875500D01*
X120565999Y-153860365D01*
X120677548Y-153814159D01*
X120747017Y-153806691D01*
X120772448Y-153814158D01*
X120884001Y-153860365D01*
X120998960Y-153875500D01*
X120998967Y-153875500D01*
X121251033Y-153875500D01*
X121251040Y-153875500D01*
X121365999Y-153860365D01*
X121509037Y-153801117D01*
X121631867Y-153706867D01*
X121726117Y-153584037D01*
X121785365Y-153440999D01*
X121800500Y-153326040D01*
X121800500Y-152774500D01*
X121820185Y-152707461D01*
X121872989Y-152661706D01*
X121924500Y-152650500D01*
X125363331Y-152650500D01*
X125363347Y-152650501D01*
X125370943Y-152650501D01*
X125529054Y-152650501D01*
X125529057Y-152650501D01*
X125681785Y-152609577D01*
X125695420Y-152601704D01*
X125732091Y-152580533D01*
X125732102Y-152580525D01*
X125732114Y-152580519D01*
X125818716Y-152530520D01*
X125930520Y-152418716D01*
X125930520Y-152418714D01*
X125940724Y-152408511D01*
X125940728Y-152408506D01*
X125961680Y-152387553D01*
X126023001Y-152354070D01*
X126092693Y-152359054D01*
X126115327Y-152370240D01*
X126262243Y-152462554D01*
X126432510Y-152522133D01*
X126519434Y-152531926D01*
X126583845Y-152558991D01*
X126593230Y-152567465D01*
X126790139Y-152764374D01*
X126790149Y-152764385D01*
X126794479Y-152768715D01*
X126794480Y-152768716D01*
X126906284Y-152880520D01*
X126993095Y-152930639D01*
X126993097Y-152930641D01*
X127031151Y-152952611D01*
X127043215Y-152959577D01*
X127195943Y-153000501D01*
X127195946Y-153000501D01*
X127361653Y-153000501D01*
X127361669Y-153000500D01*
X128166213Y-153000500D01*
X128233252Y-153020185D01*
X128279007Y-153072989D01*
X128288951Y-153142147D01*
X128271206Y-153190473D01*
X128249211Y-153225475D01*
X128189631Y-153395745D01*
X128189630Y-153395750D01*
X128169435Y-153574996D01*
X128169435Y-153575003D01*
X128189631Y-153754252D01*
X128189631Y-153754254D01*
X128189632Y-153754255D01*
X128210593Y-153814160D01*
X128220859Y-153843497D01*
X128224420Y-153913275D01*
X128191498Y-153972132D01*
X125004084Y-157159548D01*
X123350451Y-158813181D01*
X123289128Y-158846666D01*
X123262770Y-158849500D01*
X121803958Y-158849500D01*
X121736919Y-158829815D01*
X121698420Y-158790598D01*
X121692712Y-158781344D01*
X121599049Y-158687681D01*
X121565564Y-158626358D01*
X121570548Y-158556666D01*
X121599049Y-158512319D01*
X121692712Y-158418656D01*
X121769924Y-158293473D01*
X121821870Y-158246750D01*
X121889346Y-158235351D01*
X121979997Y-158245565D01*
X121980000Y-158245565D01*
X121980004Y-158245565D01*
X122159249Y-158225369D01*
X122159252Y-158225368D01*
X122159255Y-158225368D01*
X122329522Y-158165789D01*
X122482262Y-158069816D01*
X122609816Y-157942262D01*
X122705789Y-157789522D01*
X122765368Y-157619255D01*
X122785565Y-157440000D01*
X122765368Y-157260745D01*
X122705789Y-157090478D01*
X122609816Y-156937738D01*
X122482262Y-156810184D01*
X122329523Y-156714211D01*
X122159254Y-156654631D01*
X122159249Y-156654630D01*
X121980004Y-156634435D01*
X121979996Y-156634435D01*
X121800750Y-156654630D01*
X121800742Y-156654632D01*
X121700389Y-156689747D01*
X121630610Y-156693308D01*
X121571754Y-156660386D01*
X121568657Y-156657289D01*
X121568656Y-156657288D01*
X121419334Y-156565186D01*
X121335495Y-156537404D01*
X121278051Y-156497632D01*
X121251228Y-156433116D01*
X121250500Y-156419699D01*
X121250500Y-156384315D01*
X121270185Y-156317276D01*
X121322989Y-156271521D01*
X121358309Y-156261377D01*
X121365999Y-156260365D01*
X121509037Y-156201117D01*
X121631867Y-156106867D01*
X121726117Y-155984037D01*
X121785365Y-155840999D01*
X121800500Y-155726040D01*
X121800500Y-155073960D01*
X121785365Y-154959001D01*
X121726117Y-154815963D01*
X121631867Y-154693133D01*
X121509037Y-154598883D01*
X121509036Y-154598882D01*
X121509037Y-154598882D01*
X121366002Y-154539636D01*
X121366000Y-154539635D01*
X121365999Y-154539635D01*
X121340452Y-154536271D01*
X121251047Y-154524500D01*
X121251040Y-154524500D01*
X120998960Y-154524500D01*
X120998952Y-154524500D01*
X120896774Y-154537953D01*
X120884001Y-154539635D01*
X120884000Y-154539635D01*
X120883997Y-154539636D01*
X120772452Y-154585839D01*
X120702983Y-154593308D01*
X120677548Y-154585839D01*
X120566002Y-154539636D01*
X120566000Y-154539635D01*
X120565999Y-154539635D01*
X120540452Y-154536271D01*
X120451047Y-154524500D01*
X120451040Y-154524500D01*
X120198960Y-154524500D01*
X120198952Y-154524500D01*
X120096774Y-154537953D01*
X120084001Y-154539635D01*
X120084000Y-154539635D01*
X120083997Y-154539636D01*
X119971800Y-154586109D01*
X119902330Y-154593578D01*
X119876896Y-154586109D01*
X119765868Y-154540121D01*
X119700000Y-154531448D01*
X119700000Y-154848957D01*
X119690561Y-154896409D01*
X119664636Y-154958997D01*
X119664635Y-154959002D01*
X119650280Y-155068032D01*
X119622013Y-155131929D01*
X119563688Y-155170399D01*
X119493823Y-155171230D01*
X119434600Y-155134157D01*
X119412779Y-155099298D01*
X119405912Y-155082719D01*
X119397537Y-155051457D01*
X119385365Y-154959001D01*
X119359439Y-154896409D01*
X119350000Y-154848957D01*
X119350000Y-154531450D01*
X119349998Y-154531449D01*
X119284140Y-154540118D01*
X119284128Y-154540122D01*
X119173104Y-154586109D01*
X119103634Y-154593578D01*
X119078200Y-154586109D01*
X118966002Y-154539636D01*
X118966000Y-154539635D01*
X118965999Y-154539635D01*
X118940452Y-154536271D01*
X118851047Y-154524500D01*
X118851040Y-154524500D01*
X118598960Y-154524500D01*
X118598952Y-154524500D01*
X118496774Y-154537953D01*
X118484001Y-154539635D01*
X118484000Y-154539635D01*
X118483997Y-154539636D01*
X118372452Y-154585839D01*
X118302983Y-154593308D01*
X118277548Y-154585839D01*
X118166002Y-154539636D01*
X118166000Y-154539635D01*
X118165999Y-154539635D01*
X118140452Y-154536271D01*
X118051047Y-154524500D01*
X118051040Y-154524500D01*
X117798960Y-154524500D01*
X117798952Y-154524500D01*
X117696774Y-154537953D01*
X117684001Y-154539635D01*
X117684000Y-154539635D01*
X117683997Y-154539636D01*
X117572452Y-154585839D01*
X117502983Y-154593308D01*
X117477548Y-154585839D01*
X117366002Y-154539636D01*
X117366000Y-154539635D01*
X117365999Y-154539635D01*
X117340452Y-154536271D01*
X117251047Y-154524500D01*
X117251040Y-154524500D01*
X116998960Y-154524500D01*
X116998952Y-154524500D01*
X116896774Y-154537953D01*
X116884001Y-154539635D01*
X116884000Y-154539635D01*
X116883997Y-154539636D01*
X116772452Y-154585839D01*
X116702983Y-154593308D01*
X116677548Y-154585839D01*
X116566002Y-154539636D01*
X116566000Y-154539635D01*
X116565999Y-154539635D01*
X116540452Y-154536271D01*
X116451047Y-154524500D01*
X116451040Y-154524500D01*
X116198960Y-154524500D01*
X116198952Y-154524500D01*
X116096774Y-154537953D01*
X116084001Y-154539635D01*
X116084000Y-154539635D01*
X116083997Y-154539636D01*
X115940963Y-154598882D01*
X115818133Y-154693133D01*
X115723882Y-154815963D01*
X115664636Y-154958997D01*
X115664635Y-154959002D01*
X115649500Y-155073952D01*
X115649500Y-155726047D01*
X115664635Y-155840997D01*
X115664636Y-155841002D01*
X115723882Y-155984036D01*
X115723883Y-155984037D01*
X115818133Y-156106867D01*
X115940963Y-156201117D01*
X115940962Y-156201117D01*
X115992835Y-156222603D01*
X116084001Y-156260365D01*
X116198960Y-156275500D01*
X116198967Y-156275500D01*
X116451033Y-156275500D01*
X116451040Y-156275500D01*
X116565999Y-156260365D01*
X116677548Y-156214159D01*
X116747017Y-156206691D01*
X116772448Y-156214158D01*
X116884001Y-156260365D01*
X116998960Y-156275500D01*
X116998967Y-156275500D01*
X117251033Y-156275500D01*
X117251040Y-156275500D01*
X117365999Y-156260365D01*
X117477548Y-156214159D01*
X117547017Y-156206691D01*
X117572448Y-156214158D01*
X117684001Y-156260365D01*
X117798960Y-156275500D01*
X117850500Y-156275500D01*
X117917539Y-156295185D01*
X117963294Y-156347989D01*
X117974500Y-156399500D01*
X117974500Y-156413000D01*
X117954815Y-156480039D01*
X117902011Y-156525794D01*
X117850504Y-156537000D01*
X117825000Y-156537000D01*
X117824980Y-156537001D01*
X117722203Y-156547500D01*
X117722200Y-156547501D01*
X117555668Y-156602685D01*
X117555663Y-156602687D01*
X117406345Y-156694787D01*
X117282285Y-156818846D01*
X117259477Y-156855823D01*
X117207528Y-156902547D01*
X117201394Y-156905284D01*
X117140121Y-156930665D01*
X117140120Y-156930666D01*
X117069509Y-156959914D01*
X117069501Y-156959918D01*
X116987372Y-157014795D01*
X116946585Y-157042047D01*
X116946581Y-157042050D01*
X116134802Y-157853829D01*
X116073479Y-157887314D01*
X116003787Y-157882330D01*
X115947854Y-157840458D01*
X115942133Y-157832129D01*
X115904816Y-157772738D01*
X115777262Y-157645184D01*
X115624523Y-157549211D01*
X115454254Y-157489631D01*
X115454249Y-157489630D01*
X115275004Y-157469435D01*
X115274996Y-157469435D01*
X115095750Y-157489630D01*
X115095745Y-157489631D01*
X114925476Y-157549211D01*
X114772737Y-157645184D01*
X114645184Y-157772737D01*
X114549211Y-157925476D01*
X114489631Y-158095745D01*
X114489630Y-158095750D01*
X114469435Y-158274996D01*
X114469435Y-158275003D01*
X114489630Y-158454249D01*
X114489631Y-158454254D01*
X114549211Y-158624523D01*
X114637920Y-158765702D01*
X114645184Y-158777262D01*
X114772738Y-158904816D01*
X114925478Y-159000789D01*
X114925480Y-159000789D01*
X114925484Y-159000792D01*
X114931756Y-159003813D01*
X114930869Y-159005653D01*
X114966939Y-159028307D01*
X114996748Y-159058116D01*
X115030233Y-159119439D01*
X115030685Y-159169987D01*
X115024500Y-159201082D01*
X115024500Y-160998918D01*
X115024500Y-160998920D01*
X115024499Y-160998920D01*
X115053340Y-161143907D01*
X115053343Y-161143917D01*
X115109914Y-161280492D01*
X115142812Y-161329727D01*
X115142813Y-161329730D01*
X115192046Y-161403414D01*
X115192052Y-161403421D01*
X115696580Y-161907948D01*
X115696584Y-161907951D01*
X115819498Y-161990080D01*
X115819511Y-161990087D01*
X115956082Y-162046656D01*
X115956087Y-162046658D01*
X115956091Y-162046658D01*
X115956092Y-162046659D01*
X116101079Y-162075500D01*
X116101082Y-162075500D01*
X120323920Y-162075500D01*
X120421462Y-162056096D01*
X120468913Y-162046658D01*
X120605495Y-161990084D01*
X120654729Y-161957186D01*
X120728416Y-161907952D01*
X121232951Y-161403416D01*
X121315084Y-161280495D01*
X121371658Y-161143913D01*
X121400500Y-160998918D01*
X121400500Y-160851083D01*
X121400500Y-160715638D01*
X121420185Y-160648599D01*
X121459401Y-160610100D01*
X121568656Y-160542712D01*
X121692712Y-160418656D01*
X121698420Y-160409402D01*
X121750368Y-160362678D01*
X121803958Y-160350500D01*
X123698920Y-160350500D01*
X123796462Y-160331096D01*
X123843913Y-160321658D01*
X123980495Y-160265084D01*
X124029729Y-160232186D01*
X124103416Y-160182952D01*
X125394819Y-158891547D01*
X125456142Y-158858063D01*
X125525834Y-158863047D01*
X125570181Y-158891548D01*
X130278181Y-163599548D01*
X130311666Y-163660871D01*
X130314500Y-163687229D01*
X130314500Y-167862803D01*
X130294815Y-167929842D01*
X130242011Y-167975597D01*
X130233834Y-167978985D01*
X130187670Y-167996203D01*
X130187664Y-167996206D01*
X130072455Y-168082452D01*
X130072452Y-168082455D01*
X129986206Y-168197664D01*
X129986202Y-168197671D01*
X129935908Y-168332517D01*
X129929501Y-168392116D01*
X129929501Y-168392123D01*
X129929500Y-168392135D01*
X129929500Y-170188571D01*
X129909815Y-170255610D01*
X129857011Y-170301365D01*
X129852955Y-170303131D01*
X129824502Y-170314916D01*
X129775269Y-170347813D01*
X129701588Y-170397044D01*
X129701580Y-170397050D01*
X124835451Y-175263181D01*
X124774128Y-175296666D01*
X124747770Y-175299500D01*
X114527230Y-175299500D01*
X114460191Y-175279815D01*
X114439549Y-175263181D01*
X112184212Y-173007844D01*
X117600000Y-173007844D01*
X117606401Y-173067372D01*
X117606403Y-173067379D01*
X117656645Y-173202086D01*
X117656649Y-173202093D01*
X117742809Y-173317187D01*
X117742812Y-173317190D01*
X117857906Y-173403350D01*
X117857913Y-173403354D01*
X117992620Y-173453596D01*
X117992627Y-173453598D01*
X118052155Y-173459999D01*
X118052172Y-173460000D01*
X119830000Y-173460000D01*
X120330000Y-173460000D01*
X122107828Y-173460000D01*
X122107844Y-173459999D01*
X122167372Y-173453598D01*
X122167379Y-173453596D01*
X122302086Y-173403354D01*
X122302093Y-173403350D01*
X122417187Y-173317190D01*
X122417190Y-173317187D01*
X122503350Y-173202093D01*
X122503354Y-173202086D01*
X122553596Y-173067379D01*
X122553598Y-173067372D01*
X122559999Y-173007844D01*
X122560000Y-173007827D01*
X122560000Y-171230000D01*
X120330000Y-171230000D01*
X120330000Y-173460000D01*
X119830000Y-173460000D01*
X119830000Y-171230000D01*
X117600000Y-171230000D01*
X117600000Y-173007844D01*
X112184212Y-173007844D01*
X110266818Y-171090450D01*
X110233333Y-171029127D01*
X110230499Y-171002769D01*
X110230499Y-168952155D01*
X117600000Y-168952155D01*
X117600000Y-170730000D01*
X119830000Y-170730000D01*
X120330000Y-170730000D01*
X122560000Y-170730000D01*
X122560000Y-168952172D01*
X122559999Y-168952155D01*
X122553598Y-168892627D01*
X122553596Y-168892620D01*
X122503354Y-168757913D01*
X122503350Y-168757906D01*
X122417190Y-168642812D01*
X122417187Y-168642809D01*
X122302093Y-168556649D01*
X122302086Y-168556645D01*
X122167379Y-168506403D01*
X122167372Y-168506401D01*
X122107844Y-168500000D01*
X120330000Y-168500000D01*
X120330000Y-170730000D01*
X119830000Y-170730000D01*
X119830000Y-168500000D01*
X118052155Y-168500000D01*
X117992627Y-168506401D01*
X117992620Y-168506403D01*
X117857913Y-168556645D01*
X117857906Y-168556649D01*
X117742812Y-168642809D01*
X117742809Y-168642812D01*
X117656649Y-168757906D01*
X117656645Y-168757913D01*
X117606403Y-168892620D01*
X117606401Y-168892627D01*
X117600000Y-168952155D01*
X110230499Y-168952155D01*
X110230499Y-168392129D01*
X110230498Y-168392123D01*
X110230497Y-168392116D01*
X110224091Y-168332517D01*
X110173796Y-168197669D01*
X110173795Y-168197668D01*
X110173793Y-168197664D01*
X110087547Y-168082455D01*
X110087544Y-168082452D01*
X109972335Y-167996206D01*
X109972328Y-167996202D01*
X109837482Y-167945908D01*
X109837483Y-167945908D01*
X109777883Y-167939501D01*
X109777881Y-167939500D01*
X109777873Y-167939500D01*
X109777864Y-167939500D01*
X108412129Y-167939500D01*
X108412123Y-167939501D01*
X108352516Y-167945908D01*
X108217671Y-167996202D01*
X108217664Y-167996206D01*
X108102455Y-168082452D01*
X108102452Y-168082455D01*
X108016206Y-168197664D01*
X108016202Y-168197671D01*
X107965908Y-168332517D01*
X107959501Y-168392116D01*
X107959501Y-168392123D01*
X107959500Y-168392135D01*
X107959500Y-173567870D01*
X107959501Y-173567876D01*
X107965908Y-173627483D01*
X108016202Y-173762328D01*
X108016206Y-173762335D01*
X108102452Y-173877544D01*
X108102455Y-173877547D01*
X108217664Y-173963793D01*
X108217671Y-173963797D01*
X108352517Y-174014091D01*
X108352516Y-174014091D01*
X108359444Y-174014835D01*
X108412127Y-174020500D01*
X109777872Y-174020499D01*
X109837483Y-174014091D01*
X109972331Y-173963796D01*
X110087546Y-173877546D01*
X110173796Y-173762331D01*
X110224091Y-173627483D01*
X110230500Y-173567873D01*
X110230499Y-173476227D01*
X110250183Y-173409191D01*
X110302986Y-173363435D01*
X110372145Y-173353491D01*
X110435701Y-173382515D01*
X110442180Y-173388548D01*
X113686586Y-176632954D01*
X113716058Y-176652645D01*
X113760268Y-176682184D01*
X113760270Y-176682187D01*
X113760271Y-176682187D01*
X113809496Y-176715079D01*
X113809511Y-176715087D01*
X113866079Y-176738518D01*
X113866080Y-176738518D01*
X113946088Y-176771659D01*
X114062241Y-176794763D01*
X114081468Y-176798587D01*
X114091081Y-176800500D01*
X114091082Y-176800500D01*
X125183920Y-176800500D01*
X125281462Y-176781096D01*
X125328913Y-176771658D01*
X125465495Y-176715084D01*
X125514729Y-176682186D01*
X125514734Y-176682183D01*
X125539071Y-176665921D01*
X125588416Y-176632952D01*
X129717821Y-172503545D01*
X129779142Y-172470062D01*
X129848834Y-172475046D01*
X129904767Y-172516918D01*
X129929184Y-172582382D01*
X129929500Y-172591228D01*
X129929500Y-173567870D01*
X129929501Y-173567876D01*
X129935908Y-173627483D01*
X129986202Y-173762328D01*
X129986206Y-173762335D01*
X130072452Y-173877544D01*
X130072455Y-173877547D01*
X130187664Y-173963793D01*
X130187671Y-173963797D01*
X130322517Y-174014091D01*
X130322516Y-174014091D01*
X130329444Y-174014835D01*
X130382127Y-174020500D01*
X131747872Y-174020499D01*
X131807483Y-174014091D01*
X131942331Y-173963796D01*
X132057546Y-173877546D01*
X132143796Y-173762331D01*
X132194091Y-173627483D01*
X132200500Y-173567873D01*
X132200499Y-168392128D01*
X132194091Y-168332517D01*
X132143796Y-168197669D01*
X132143795Y-168197668D01*
X132143793Y-168197664D01*
X132057547Y-168082455D01*
X132057544Y-168082452D01*
X131942335Y-167996206D01*
X131942329Y-167996203D01*
X131896166Y-167978985D01*
X131840233Y-167937113D01*
X131815816Y-167871649D01*
X131815500Y-167862803D01*
X131815500Y-163251079D01*
X131786659Y-163106092D01*
X131786658Y-163106091D01*
X131786658Y-163106087D01*
X131786656Y-163106082D01*
X131730087Y-162969511D01*
X131730080Y-162969498D01*
X131647952Y-162846585D01*
X131647951Y-162846584D01*
X131543416Y-162742049D01*
X126631548Y-157830181D01*
X126598063Y-157768858D01*
X126603047Y-157699166D01*
X126631548Y-157654819D01*
X129924549Y-154361819D01*
X129985872Y-154328334D01*
X130012230Y-154325500D01*
X131673920Y-154325500D01*
X131771462Y-154306096D01*
X131818913Y-154296658D01*
X131955495Y-154240084D01*
X132008277Y-154204816D01*
X132078416Y-154157952D01*
X133957952Y-152278416D01*
X134024340Y-152179057D01*
X134040084Y-152155495D01*
X134096658Y-152018913D01*
X134107153Y-151966152D01*
X134125500Y-151873920D01*
X134125500Y-147176079D01*
X134096659Y-147031092D01*
X134096658Y-147031091D01*
X134096658Y-147031087D01*
X134095817Y-147029057D01*
X134040085Y-146894507D01*
X134003206Y-146839313D01*
X134003205Y-146839312D01*
X133957952Y-146771584D01*
X131336818Y-144150450D01*
X131303333Y-144089127D01*
X131300499Y-144062769D01*
X131300499Y-143574998D01*
X131300498Y-143574981D01*
X131289999Y-143472203D01*
X131289998Y-143472200D01*
X131284694Y-143456195D01*
X131234814Y-143305666D01*
X131142712Y-143156344D01*
X131018656Y-143032288D01*
X131018655Y-143032287D01*
X131009402Y-143026580D01*
X130962678Y-142974632D01*
X130950500Y-142921042D01*
X130950500Y-133949983D01*
X134074500Y-133949983D01*
X134074500Y-134950001D01*
X134074501Y-134950019D01*
X134085000Y-135052796D01*
X134085001Y-135052799D01*
X134140115Y-135219119D01*
X134140186Y-135219334D01*
X134232288Y-135368656D01*
X134356344Y-135492712D01*
X134505666Y-135584814D01*
X134672203Y-135639999D01*
X134774991Y-135650500D01*
X135575008Y-135650499D01*
X135575016Y-135650498D01*
X135575019Y-135650498D01*
X135631302Y-135644748D01*
X135677797Y-135639999D01*
X135844334Y-135584814D01*
X135993656Y-135492712D01*
X136087675Y-135398692D01*
X136148994Y-135365210D01*
X136218686Y-135370194D01*
X136263034Y-135398695D01*
X136356654Y-135492315D01*
X136505875Y-135584356D01*
X136505880Y-135584358D01*
X136672302Y-135639505D01*
X136672309Y-135639506D01*
X136775019Y-135649999D01*
X136924999Y-135649999D01*
X137425000Y-135649999D01*
X137574972Y-135649999D01*
X137574986Y-135649998D01*
X137677697Y-135639505D01*
X137844119Y-135584358D01*
X137844124Y-135584356D01*
X137993345Y-135492315D01*
X138117315Y-135368345D01*
X138209356Y-135219124D01*
X138209358Y-135219119D01*
X138264505Y-135052697D01*
X138264506Y-135052690D01*
X138274999Y-134949986D01*
X138275000Y-134949973D01*
X138275000Y-134700000D01*
X137425000Y-134700000D01*
X137425000Y-135649999D01*
X136924999Y-135649999D01*
X136925000Y-135649998D01*
X136925000Y-134574000D01*
X136944685Y-134506961D01*
X136997489Y-134461206D01*
X137049000Y-134450000D01*
X137175000Y-134450000D01*
X137175000Y-134324000D01*
X137194685Y-134256961D01*
X137247489Y-134211206D01*
X137299000Y-134200000D01*
X138274999Y-134200000D01*
X138274999Y-133950028D01*
X138274998Y-133950013D01*
X138264505Y-133847302D01*
X138209358Y-133680880D01*
X138209356Y-133680875D01*
X138117315Y-133531654D01*
X137993345Y-133407684D01*
X137844124Y-133315643D01*
X137844119Y-133315641D01*
X137677697Y-133260494D01*
X137677690Y-133260493D01*
X137574986Y-133250000D01*
X137523597Y-133250000D01*
X137456558Y-133230315D01*
X137410803Y-133177511D01*
X137400859Y-133108353D01*
X137429884Y-133044797D01*
X137435916Y-133038319D01*
X137587416Y-132886819D01*
X137648739Y-132853334D01*
X137675097Y-132850500D01*
X138213331Y-132850500D01*
X138213347Y-132850501D01*
X138220943Y-132850501D01*
X138379054Y-132850501D01*
X138379057Y-132850501D01*
X138531785Y-132809577D01*
X138581904Y-132780639D01*
X138668716Y-132730520D01*
X138780520Y-132618716D01*
X138780520Y-132618714D01*
X138790728Y-132608507D01*
X138790730Y-132608504D01*
X139173935Y-132225298D01*
X139235256Y-132191815D01*
X139293707Y-132193206D01*
X139323126Y-132201088D01*
X139357198Y-132210218D01*
X139512770Y-132223828D01*
X139574998Y-132229273D01*
X139575000Y-132229273D01*
X139575002Y-132229273D01*
X139629450Y-132224509D01*
X139792802Y-132210218D01*
X140003987Y-132153631D01*
X140202137Y-132061232D01*
X140381231Y-131935829D01*
X140535829Y-131781231D01*
X140661232Y-131602137D01*
X140753631Y-131403987D01*
X140810218Y-131192802D01*
X140829273Y-130975000D01*
X140810218Y-130757198D01*
X140753631Y-130546013D01*
X140661232Y-130347864D01*
X140535829Y-130168769D01*
X140381231Y-130014171D01*
X140381227Y-130014168D01*
X140381226Y-130014167D01*
X140202141Y-129888770D01*
X140202137Y-129888768D01*
X140202133Y-129888766D01*
X140003987Y-129796369D01*
X140003983Y-129796368D01*
X140003979Y-129796366D01*
X139792807Y-129739783D01*
X139792803Y-129739782D01*
X139792802Y-129739782D01*
X139792801Y-129739781D01*
X139792796Y-129739781D01*
X139575002Y-129720727D01*
X139574998Y-129720727D01*
X139357203Y-129739781D01*
X139357192Y-129739783D01*
X139146020Y-129796366D01*
X139146011Y-129796370D01*
X138947866Y-129888766D01*
X138768766Y-130014172D01*
X138614172Y-130168766D01*
X138488766Y-130347866D01*
X138396370Y-130546011D01*
X138396366Y-130546020D01*
X138339783Y-130757192D01*
X138339781Y-130757203D01*
X138320727Y-130974998D01*
X138320727Y-130975000D01*
X138339781Y-131192796D01*
X138339782Y-131192800D01*
X138339783Y-131192807D01*
X138356793Y-131256291D01*
X138355130Y-131326140D01*
X138324699Y-131376064D01*
X138087582Y-131613182D01*
X138026262Y-131646666D01*
X137999903Y-131649500D01*
X137461669Y-131649500D01*
X137461653Y-131649499D01*
X137454057Y-131649499D01*
X137295943Y-131649499D01*
X137188587Y-131678265D01*
X137143210Y-131690424D01*
X137143209Y-131690425D01*
X137093096Y-131719359D01*
X137093095Y-131719360D01*
X137049689Y-131744420D01*
X137006285Y-131769479D01*
X137006282Y-131769481D01*
X136894478Y-131881286D01*
X135562582Y-133213181D01*
X135501259Y-133246666D01*
X135474901Y-133249500D01*
X134774998Y-133249500D01*
X134774980Y-133249501D01*
X134672203Y-133260000D01*
X134672200Y-133260001D01*
X134505668Y-133315185D01*
X134505663Y-133315187D01*
X134356342Y-133407289D01*
X134232289Y-133531342D01*
X134140187Y-133680663D01*
X134140185Y-133680668D01*
X134140115Y-133680880D01*
X134085001Y-133847203D01*
X134085001Y-133847204D01*
X134085000Y-133847204D01*
X134074500Y-133949983D01*
X130950500Y-133949983D01*
X130950500Y-131202230D01*
X130970185Y-131135191D01*
X130986819Y-131114549D01*
X131126370Y-130974998D01*
X131697064Y-130404303D01*
X131758385Y-130370820D01*
X131828076Y-130375804D01*
X131884010Y-130417675D01*
X131908427Y-130483140D01*
X131897794Y-130540777D01*
X131898219Y-130540932D01*
X131897299Y-130543456D01*
X131897129Y-130544383D01*
X131896370Y-130546009D01*
X131896366Y-130546020D01*
X131839783Y-130757192D01*
X131839781Y-130757203D01*
X131820727Y-130974998D01*
X131820727Y-130975001D01*
X131839781Y-131192796D01*
X131839783Y-131192807D01*
X131896366Y-131403979D01*
X131896368Y-131403983D01*
X131896369Y-131403987D01*
X131988768Y-131602137D01*
X131988770Y-131602141D01*
X132114167Y-131781226D01*
X132114172Y-131781232D01*
X132268767Y-131935827D01*
X132268773Y-131935832D01*
X132447858Y-132061229D01*
X132447860Y-132061230D01*
X132447863Y-132061232D01*
X132646013Y-132153631D01*
X132857198Y-132210218D01*
X133012770Y-132223828D01*
X133074998Y-132229273D01*
X133075000Y-132229273D01*
X133075002Y-132229273D01*
X133129450Y-132224509D01*
X133292802Y-132210218D01*
X133503987Y-132153631D01*
X133702137Y-132061232D01*
X133881231Y-131935829D01*
X134035829Y-131781231D01*
X134161232Y-131602137D01*
X134253631Y-131403987D01*
X134310218Y-131192802D01*
X134329273Y-130975000D01*
X134310218Y-130757198D01*
X134253631Y-130546013D01*
X134161232Y-130347864D01*
X134035829Y-130168769D01*
X133881231Y-130014171D01*
X133881227Y-130014168D01*
X133881226Y-130014167D01*
X133702141Y-129888770D01*
X133702137Y-129888768D01*
X133702133Y-129888766D01*
X133503987Y-129796369D01*
X133503983Y-129796368D01*
X133503979Y-129796366D01*
X133292807Y-129739783D01*
X133292803Y-129739782D01*
X133292802Y-129739782D01*
X133292801Y-129739781D01*
X133292796Y-129739781D01*
X133075002Y-129720727D01*
X133074998Y-129720727D01*
X132857203Y-129739781D01*
X132857192Y-129739783D01*
X132646020Y-129796366D01*
X132646015Y-129796368D01*
X132633438Y-129802233D01*
X132564360Y-129812723D01*
X132500577Y-129784201D01*
X132462339Y-129725723D01*
X132461786Y-129655856D01*
X132477931Y-129620963D01*
X132522186Y-129554729D01*
X132555084Y-129505495D01*
X132611658Y-129368913D01*
X132640500Y-129223918D01*
X132640500Y-128022229D01*
X132660185Y-127955190D01*
X132676815Y-127934552D01*
X132850549Y-127760817D01*
X132911872Y-127727333D01*
X132938230Y-127724499D01*
X133871871Y-127724499D01*
X133871872Y-127724499D01*
X133931483Y-127718091D01*
X134066331Y-127667796D01*
X134181546Y-127581546D01*
X134267796Y-127466331D01*
X134318091Y-127331483D01*
X134324500Y-127271873D01*
X134324499Y-125678128D01*
X134318091Y-125618517D01*
X134279172Y-125514171D01*
X134267797Y-125483671D01*
X134267793Y-125483664D01*
X134181547Y-125368455D01*
X134181544Y-125368452D01*
X134066335Y-125282206D01*
X134066328Y-125282202D01*
X133931482Y-125231908D01*
X133931483Y-125231908D01*
X133871883Y-125225501D01*
X133871881Y-125225500D01*
X133871873Y-125225500D01*
X133871864Y-125225500D01*
X132278129Y-125225500D01*
X132278123Y-125225501D01*
X132218516Y-125231908D01*
X132083671Y-125282202D01*
X132083664Y-125282206D01*
X131968455Y-125368452D01*
X131968452Y-125368455D01*
X131882206Y-125483664D01*
X131882202Y-125483671D01*
X131831908Y-125618517D01*
X131826506Y-125668769D01*
X131825501Y-125678123D01*
X131825500Y-125678135D01*
X131825500Y-126611769D01*
X131805815Y-126678808D01*
X131789181Y-126699450D01*
X131434143Y-127054488D01*
X131372820Y-127087973D01*
X131303128Y-127082989D01*
X131247195Y-127041117D01*
X131222778Y-126975653D01*
X131222700Y-126959140D01*
X131570000Y-121360000D01*
X131570001Y-121360000D01*
X128801925Y-121260428D01*
X128778373Y-121257303D01*
X128103477Y-121100806D01*
X128042617Y-121066487D01*
X128040284Y-121064022D01*
X127937463Y-120952329D01*
X127803358Y-120847951D01*
X127747441Y-120804429D01*
X127535665Y-120689821D01*
X127535656Y-120689818D01*
X127307916Y-120611634D01*
X127129777Y-120581908D01*
X127070399Y-120572000D01*
X126829601Y-120572000D01*
X126782098Y-120579926D01*
X126592083Y-120611634D01*
X126364343Y-120689818D01*
X126364334Y-120689821D01*
X126152558Y-120804429D01*
X126018456Y-120908805D01*
X125962537Y-120952329D01*
X125799449Y-121129490D01*
X125783808Y-121153431D01*
X125730661Y-121198787D01*
X125661430Y-121208210D01*
X125598094Y-121178707D01*
X125576192Y-121153431D01*
X125560551Y-121129490D01*
X125397463Y-120952329D01*
X125263358Y-120847951D01*
X125207441Y-120804429D01*
X124995665Y-120689821D01*
X124995656Y-120689818D01*
X124767916Y-120611634D01*
X124589777Y-120581908D01*
X124530399Y-120572000D01*
X124289601Y-120572000D01*
X124242098Y-120579926D01*
X124052083Y-120611634D01*
X123824343Y-120689818D01*
X123824334Y-120689821D01*
X123612558Y-120804429D01*
X123478456Y-120908805D01*
X123422537Y-120952329D01*
X123259449Y-121129490D01*
X123243808Y-121153431D01*
X123190661Y-121198787D01*
X123121430Y-121208210D01*
X123058094Y-121178707D01*
X123036192Y-121153431D01*
X123020551Y-121129490D01*
X122857463Y-120952329D01*
X122723358Y-120847951D01*
X122667441Y-120804429D01*
X122455665Y-120689821D01*
X122455656Y-120689818D01*
X122227916Y-120611634D01*
X122049777Y-120581908D01*
X121990399Y-120572000D01*
X121931597Y-120572000D01*
X121864558Y-120552315D01*
X121818803Y-120499511D01*
X121808859Y-120430353D01*
X121837884Y-120366797D01*
X121843916Y-120360319D01*
X122092417Y-120111819D01*
X122153740Y-120078334D01*
X122180098Y-120075500D01*
X132274903Y-120075500D01*
X132341942Y-120095185D01*
X132362584Y-120111819D01*
X138324699Y-126073934D01*
X138358184Y-126135257D01*
X138356793Y-126193706D01*
X138339784Y-126257186D01*
X138339781Y-126257204D01*
X138320727Y-126474998D01*
X138320727Y-126475001D01*
X138339781Y-126692796D01*
X138339783Y-126692807D01*
X138396366Y-126903979D01*
X138396368Y-126903983D01*
X138396369Y-126903987D01*
X138460314Y-127041117D01*
X138488768Y-127102137D01*
X138488770Y-127102141D01*
X138614167Y-127281226D01*
X138614172Y-127281232D01*
X138768767Y-127435827D01*
X138768773Y-127435832D01*
X138947858Y-127561229D01*
X138947860Y-127561230D01*
X138947863Y-127561232D01*
X139146013Y-127653631D01*
X139357198Y-127710218D01*
X139512770Y-127723828D01*
X139574998Y-127729273D01*
X139575000Y-127729273D01*
X139575002Y-127729273D01*
X139629579Y-127724498D01*
X139792802Y-127710218D01*
X140003987Y-127653631D01*
X140202137Y-127561232D01*
X140381231Y-127435829D01*
X140535829Y-127281231D01*
X140661232Y-127102137D01*
X140753631Y-126903987D01*
X140810218Y-126692802D01*
X140829273Y-126475000D01*
X140810218Y-126257198D01*
X140753631Y-126046013D01*
X140661232Y-125847864D01*
X140535829Y-125668769D01*
X140381231Y-125514171D01*
X140381227Y-125514168D01*
X140381226Y-125514167D01*
X140202141Y-125388770D01*
X140202137Y-125388768D01*
X140003987Y-125296369D01*
X140003983Y-125296368D01*
X140003979Y-125296366D01*
X139792807Y-125239783D01*
X139792803Y-125239782D01*
X139792802Y-125239782D01*
X139792801Y-125239781D01*
X139792796Y-125239781D01*
X139575002Y-125220727D01*
X139574998Y-125220727D01*
X139357204Y-125239781D01*
X139357186Y-125239784D01*
X139293706Y-125256793D01*
X139223856Y-125255129D01*
X139173934Y-125224699D01*
X133062590Y-119113355D01*
X133062588Y-119113352D01*
X132943717Y-118994481D01*
X132943716Y-118994480D01*
X132856904Y-118944360D01*
X132856904Y-118944359D01*
X132856900Y-118944358D01*
X132806785Y-118915423D01*
X132654057Y-118874499D01*
X132495943Y-118874499D01*
X132488347Y-118874499D01*
X132488331Y-118874500D01*
X121966670Y-118874500D01*
X121966654Y-118874499D01*
X121959058Y-118874499D01*
X121800943Y-118874499D01*
X121724579Y-118894961D01*
X121648214Y-118915423D01*
X121648209Y-118915426D01*
X121511290Y-118994475D01*
X121511282Y-118994481D01*
X119896161Y-120609601D01*
X119834838Y-120643086D01*
X119768218Y-120639202D01*
X119687913Y-120611633D01*
X119484364Y-120577667D01*
X119450399Y-120572000D01*
X119209601Y-120572000D01*
X119162098Y-120579926D01*
X118972083Y-120611634D01*
X118744343Y-120689818D01*
X118744334Y-120689821D01*
X118532558Y-120804429D01*
X118398456Y-120908805D01*
X118342537Y-120952329D01*
X118179449Y-121129490D01*
X118163808Y-121153431D01*
X118110661Y-121198787D01*
X118041430Y-121208210D01*
X117978094Y-121178707D01*
X117956192Y-121153431D01*
X117940551Y-121129490D01*
X117777463Y-120952329D01*
X117643358Y-120847951D01*
X117587441Y-120804429D01*
X117375665Y-120689821D01*
X117375656Y-120689818D01*
X117147916Y-120611634D01*
X116969777Y-120581908D01*
X116910399Y-120572000D01*
X116669601Y-120572000D01*
X116622098Y-120579926D01*
X116432083Y-120611634D01*
X116204343Y-120689818D01*
X116204334Y-120689821D01*
X115992558Y-120804429D01*
X115858456Y-120908805D01*
X115802537Y-120952329D01*
X115639449Y-121129490D01*
X115623808Y-121153431D01*
X115570661Y-121198787D01*
X115501430Y-121208210D01*
X115438094Y-121178707D01*
X115416192Y-121153431D01*
X115400551Y-121129490D01*
X115237463Y-120952329D01*
X115103358Y-120847951D01*
X115047441Y-120804429D01*
X114835665Y-120689821D01*
X114835656Y-120689818D01*
X114607916Y-120611634D01*
X114429777Y-120581908D01*
X114370399Y-120572000D01*
X114129601Y-120572000D01*
X114082098Y-120579926D01*
X113892083Y-120611634D01*
X113664343Y-120689818D01*
X113664334Y-120689821D01*
X113452558Y-120804429D01*
X113318456Y-120908805D01*
X113262537Y-120952329D01*
X113099449Y-121129490D01*
X113083808Y-121153431D01*
X113030661Y-121198787D01*
X112961430Y-121208210D01*
X112898094Y-121178707D01*
X112876192Y-121153431D01*
X112860551Y-121129490D01*
X112697463Y-120952329D01*
X112563358Y-120847951D01*
X112507441Y-120804429D01*
X112295665Y-120689821D01*
X112295656Y-120689818D01*
X112067916Y-120611634D01*
X111889777Y-120581908D01*
X111830399Y-120572000D01*
X111589601Y-120572000D01*
X111542098Y-120579926D01*
X111352083Y-120611634D01*
X111124343Y-120689818D01*
X111124334Y-120689821D01*
X110912558Y-120804429D01*
X110778456Y-120908805D01*
X110722537Y-120952329D01*
X110559449Y-121129490D01*
X110543808Y-121153431D01*
X110490661Y-121198787D01*
X110421430Y-121208210D01*
X110358094Y-121178707D01*
X110336192Y-121153431D01*
X110320551Y-121129490D01*
X110157463Y-120952329D01*
X110023358Y-120847951D01*
X109967441Y-120804429D01*
X109755665Y-120689821D01*
X109755656Y-120689818D01*
X109527916Y-120611634D01*
X109349777Y-120581908D01*
X109290399Y-120572000D01*
X109049601Y-120572000D01*
X109002098Y-120579926D01*
X108812083Y-120611634D01*
X108584343Y-120689818D01*
X108584334Y-120689821D01*
X108372558Y-120804429D01*
X108238456Y-120908805D01*
X108182537Y-120952329D01*
X108182534Y-120952331D01*
X108182534Y-120952332D01*
X108019449Y-121129490D01*
X107887743Y-121331081D01*
X107791017Y-121551594D01*
X107731904Y-121785027D01*
X107712020Y-122024994D01*
X106545500Y-122024994D01*
X106545500Y-117654500D01*
X106565185Y-117587461D01*
X106617989Y-117541706D01*
X106669500Y-117530500D01*
X141440500Y-117530500D01*
X141507539Y-117550185D01*
G37*
%TD.AperFunction*%
%TD*%
D28*
X106045000Y-117030000D02*
X142065000Y-117030000D01*
X142065000Y-180405000D01*
X106045000Y-180405000D01*
X106045000Y-117030000D01*
M02*
