%TF.GenerationSoftware,KiCad,Pcbnew,8.0.8*%
%TF.CreationDate,2025-05-01T15:14:40+05:30*%
%TF.ProjectId,smart_ringfinal,736d6172-745f-4726-996e-6766696e616c,rev?*%
%TF.SameCoordinates,Original*%
%TF.FileFunction,Drillmap*%
%TF.FilePolarity,Positive*%
%FSLAX45Y45*%
G04 Gerber Fmt 4.5, Leading zero omitted, Abs format (unit mm)*
G04 Created by KiCad (PCBNEW 8.0.8) date 2025-05-01 15:14:40*
%MOMM*%
%LPD*%
G01*
G04 APERTURE LIST*
%ADD10C,0.050000*%
%ADD11C,0.200000*%
%ADD12C,0.100000*%
%ADD13C,0.127000*%
G04 APERTURE END LIST*
D10*
X10604500Y-11703000D02*
X14206500Y-11703000D01*
X14206500Y-18040500D01*
X10604500Y-18040500D01*
X10604500Y-11703000D01*
D11*
D12*
X11443000Y-15960000D02*
X11473000Y-15990000D01*
X11473000Y-15960000D02*
X11443000Y-15990000D01*
X11512500Y-15812500D02*
X11542500Y-15842500D01*
X11542500Y-15812500D02*
X11512500Y-15842500D01*
X11707000Y-15957000D02*
X11737000Y-15987000D01*
X11737000Y-15957000D02*
X11707000Y-15987000D01*
X11855000Y-14132500D02*
X11885000Y-14162500D01*
X11885000Y-14132500D02*
X11855000Y-14162500D01*
X11887000Y-15109000D02*
X11917000Y-15139000D01*
X11917000Y-15109000D02*
X11887000Y-15139000D01*
X12183000Y-15729000D02*
X12213000Y-15759000D01*
X12213000Y-15729000D02*
X12183000Y-15759000D01*
X12240000Y-14572500D02*
X12270000Y-14602500D01*
X12270000Y-14572500D02*
X12240000Y-14602500D01*
X12472500Y-14598500D02*
X12502500Y-14628500D01*
X12502500Y-14598500D02*
X12472500Y-14628500D01*
X12530073Y-15105073D02*
X12560073Y-15135073D01*
X12560073Y-15105073D02*
X12530073Y-15135073D01*
X12646176Y-15158676D02*
X12676176Y-15188676D01*
X12676176Y-15158676D02*
X12646176Y-15188676D01*
X12882500Y-15157500D02*
X12912500Y-15187500D01*
X12912500Y-15157500D02*
X12882500Y-15187500D01*
X12882500Y-15342500D02*
X12912500Y-15372500D01*
X12912500Y-15342500D02*
X12882500Y-15372500D01*
X13056000Y-14934000D02*
X13086000Y-14964000D01*
X13086000Y-14934000D02*
X13056000Y-14964000D01*
X13357000Y-12647500D02*
G75*
G02*
X13258000Y-12647500I-49500J0D01*
G01*
X13258000Y-12647500D02*
G75*
G02*
X13357000Y-12647500I49500J0D01*
G01*
X13357000Y-13097500D02*
G75*
G02*
X13258000Y-13097500I-49500J0D01*
G01*
X13258000Y-13097500D02*
G75*
G02*
X13357000Y-13097500I49500J0D01*
G01*
X14007000Y-12647500D02*
G75*
G02*
X13908000Y-12647500I-49500J0D01*
G01*
X13908000Y-12647500D02*
G75*
G02*
X14007000Y-12647500I49500J0D01*
G01*
X14007000Y-13097500D02*
G75*
G02*
X13908000Y-13097500I-49500J0D01*
G01*
X13908000Y-13097500D02*
G75*
G02*
X14007000Y-13097500I49500J0D01*
G01*
D13*
X10917000Y-12139000D02*
X10917000Y-12266000D01*
X10853500Y-12202500D02*
X10980500Y-12202500D01*
X10917000Y-13663000D02*
X10917000Y-13790000D01*
X10853500Y-13726500D02*
X10980500Y-13726500D01*
X11171000Y-12139000D02*
X11171000Y-12266000D01*
X11107500Y-12202500D02*
X11234500Y-12202500D01*
X11171000Y-13663000D02*
X11171000Y-13790000D01*
X11107500Y-13726500D02*
X11234500Y-13726500D01*
X11425000Y-12139000D02*
X11425000Y-12266000D01*
X11361500Y-12202500D02*
X11488500Y-12202500D01*
X11425000Y-13663000D02*
X11425000Y-13790000D01*
X11361500Y-13726500D02*
X11488500Y-13726500D01*
X11679000Y-12139000D02*
X11679000Y-12266000D01*
X11615500Y-12202500D02*
X11742500Y-12202500D01*
X11679000Y-13663000D02*
X11679000Y-13790000D01*
X11615500Y-13726500D02*
X11742500Y-13726500D01*
X11933000Y-12139000D02*
X11933000Y-12266000D01*
X11869500Y-12202500D02*
X11996500Y-12202500D01*
X11933000Y-13663000D02*
X11933000Y-13790000D01*
X11869500Y-13726500D02*
X11996500Y-13726500D01*
X12187000Y-12139000D02*
X12187000Y-12266000D01*
X12123500Y-12202500D02*
X12250500Y-12202500D01*
X12187000Y-13663000D02*
X12187000Y-13790000D01*
X12123500Y-13726500D02*
X12250500Y-13726500D01*
X12441000Y-12139000D02*
X12441000Y-12266000D01*
X12377500Y-12202500D02*
X12504500Y-12202500D01*
X12441000Y-13663000D02*
X12441000Y-13790000D01*
X12377500Y-13726500D02*
X12504500Y-13726500D01*
X12695000Y-12139000D02*
X12695000Y-12266000D01*
X12631500Y-12202500D02*
X12758500Y-12202500D01*
X12695000Y-13663000D02*
X12695000Y-13790000D01*
X12631500Y-13726500D02*
X12758500Y-13726500D01*
D11*
X10862777Y-18354484D02*
X10862777Y-18154484D01*
X10862777Y-18154484D02*
X10910396Y-18154484D01*
X10910396Y-18154484D02*
X10938967Y-18164008D01*
X10938967Y-18164008D02*
X10958015Y-18183055D01*
X10958015Y-18183055D02*
X10967539Y-18202103D01*
X10967539Y-18202103D02*
X10977063Y-18240198D01*
X10977063Y-18240198D02*
X10977063Y-18268770D01*
X10977063Y-18268770D02*
X10967539Y-18306865D01*
X10967539Y-18306865D02*
X10958015Y-18325912D01*
X10958015Y-18325912D02*
X10938967Y-18344960D01*
X10938967Y-18344960D02*
X10910396Y-18354484D01*
X10910396Y-18354484D02*
X10862777Y-18354484D01*
X11062777Y-18354484D02*
X11062777Y-18221150D01*
X11062777Y-18259246D02*
X11072301Y-18240198D01*
X11072301Y-18240198D02*
X11081824Y-18230674D01*
X11081824Y-18230674D02*
X11100872Y-18221150D01*
X11100872Y-18221150D02*
X11119920Y-18221150D01*
X11186586Y-18354484D02*
X11186586Y-18221150D01*
X11186586Y-18154484D02*
X11177063Y-18164008D01*
X11177063Y-18164008D02*
X11186586Y-18173531D01*
X11186586Y-18173531D02*
X11196110Y-18164008D01*
X11196110Y-18164008D02*
X11186586Y-18154484D01*
X11186586Y-18154484D02*
X11186586Y-18173531D01*
X11310396Y-18354484D02*
X11291348Y-18344960D01*
X11291348Y-18344960D02*
X11281824Y-18325912D01*
X11281824Y-18325912D02*
X11281824Y-18154484D01*
X11415158Y-18354484D02*
X11396110Y-18344960D01*
X11396110Y-18344960D02*
X11386586Y-18325912D01*
X11386586Y-18325912D02*
X11386586Y-18154484D01*
X11643729Y-18354484D02*
X11643729Y-18154484D01*
X11643729Y-18154484D02*
X11710396Y-18297341D01*
X11710396Y-18297341D02*
X11777062Y-18154484D01*
X11777062Y-18154484D02*
X11777062Y-18354484D01*
X11958015Y-18354484D02*
X11958015Y-18249722D01*
X11958015Y-18249722D02*
X11948491Y-18230674D01*
X11948491Y-18230674D02*
X11929443Y-18221150D01*
X11929443Y-18221150D02*
X11891348Y-18221150D01*
X11891348Y-18221150D02*
X11872301Y-18230674D01*
X11958015Y-18344960D02*
X11938967Y-18354484D01*
X11938967Y-18354484D02*
X11891348Y-18354484D01*
X11891348Y-18354484D02*
X11872301Y-18344960D01*
X11872301Y-18344960D02*
X11862777Y-18325912D01*
X11862777Y-18325912D02*
X11862777Y-18306865D01*
X11862777Y-18306865D02*
X11872301Y-18287817D01*
X11872301Y-18287817D02*
X11891348Y-18278293D01*
X11891348Y-18278293D02*
X11938967Y-18278293D01*
X11938967Y-18278293D02*
X11958015Y-18268770D01*
X12053253Y-18221150D02*
X12053253Y-18421150D01*
X12053253Y-18230674D02*
X12072301Y-18221150D01*
X12072301Y-18221150D02*
X12110396Y-18221150D01*
X12110396Y-18221150D02*
X12129443Y-18230674D01*
X12129443Y-18230674D02*
X12138967Y-18240198D01*
X12138967Y-18240198D02*
X12148491Y-18259246D01*
X12148491Y-18259246D02*
X12148491Y-18316389D01*
X12148491Y-18316389D02*
X12138967Y-18335436D01*
X12138967Y-18335436D02*
X12129443Y-18344960D01*
X12129443Y-18344960D02*
X12110396Y-18354484D01*
X12110396Y-18354484D02*
X12072301Y-18354484D01*
X12072301Y-18354484D02*
X12053253Y-18344960D01*
X12234205Y-18335436D02*
X12243729Y-18344960D01*
X12243729Y-18344960D02*
X12234205Y-18354484D01*
X12234205Y-18354484D02*
X12224682Y-18344960D01*
X12224682Y-18344960D02*
X12234205Y-18335436D01*
X12234205Y-18335436D02*
X12234205Y-18354484D01*
X12234205Y-18230674D02*
X12243729Y-18240198D01*
X12243729Y-18240198D02*
X12234205Y-18249722D01*
X12234205Y-18249722D02*
X12224682Y-18240198D01*
X12224682Y-18240198D02*
X12234205Y-18230674D01*
X12234205Y-18230674D02*
X12234205Y-18249722D01*
D12*
X10572000Y-18668000D02*
X10602000Y-18698000D01*
X10602000Y-18668000D02*
X10572000Y-18698000D01*
D11*
X10900872Y-18574484D02*
X10919920Y-18574484D01*
X10919920Y-18574484D02*
X10938967Y-18584008D01*
X10938967Y-18584008D02*
X10948491Y-18593531D01*
X10948491Y-18593531D02*
X10958015Y-18612579D01*
X10958015Y-18612579D02*
X10967539Y-18650674D01*
X10967539Y-18650674D02*
X10967539Y-18698293D01*
X10967539Y-18698293D02*
X10958015Y-18736389D01*
X10958015Y-18736389D02*
X10948491Y-18755436D01*
X10948491Y-18755436D02*
X10938967Y-18764960D01*
X10938967Y-18764960D02*
X10919920Y-18774484D01*
X10919920Y-18774484D02*
X10900872Y-18774484D01*
X10900872Y-18774484D02*
X10881824Y-18764960D01*
X10881824Y-18764960D02*
X10872301Y-18755436D01*
X10872301Y-18755436D02*
X10862777Y-18736389D01*
X10862777Y-18736389D02*
X10853253Y-18698293D01*
X10853253Y-18698293D02*
X10853253Y-18650674D01*
X10853253Y-18650674D02*
X10862777Y-18612579D01*
X10862777Y-18612579D02*
X10872301Y-18593531D01*
X10872301Y-18593531D02*
X10881824Y-18584008D01*
X10881824Y-18584008D02*
X10900872Y-18574484D01*
X11053253Y-18755436D02*
X11062777Y-18764960D01*
X11062777Y-18764960D02*
X11053253Y-18774484D01*
X11053253Y-18774484D02*
X11043729Y-18764960D01*
X11043729Y-18764960D02*
X11053253Y-18755436D01*
X11053253Y-18755436D02*
X11053253Y-18774484D01*
X11129444Y-18574484D02*
X11253253Y-18574484D01*
X11253253Y-18574484D02*
X11186586Y-18650674D01*
X11186586Y-18650674D02*
X11215158Y-18650674D01*
X11215158Y-18650674D02*
X11234205Y-18660198D01*
X11234205Y-18660198D02*
X11243729Y-18669722D01*
X11243729Y-18669722D02*
X11253253Y-18688770D01*
X11253253Y-18688770D02*
X11253253Y-18736389D01*
X11253253Y-18736389D02*
X11243729Y-18755436D01*
X11243729Y-18755436D02*
X11234205Y-18764960D01*
X11234205Y-18764960D02*
X11215158Y-18774484D01*
X11215158Y-18774484D02*
X11158015Y-18774484D01*
X11158015Y-18774484D02*
X11138967Y-18764960D01*
X11138967Y-18764960D02*
X11129444Y-18755436D01*
X11377062Y-18574484D02*
X11396110Y-18574484D01*
X11396110Y-18574484D02*
X11415158Y-18584008D01*
X11415158Y-18584008D02*
X11424682Y-18593531D01*
X11424682Y-18593531D02*
X11434205Y-18612579D01*
X11434205Y-18612579D02*
X11443729Y-18650674D01*
X11443729Y-18650674D02*
X11443729Y-18698293D01*
X11443729Y-18698293D02*
X11434205Y-18736389D01*
X11434205Y-18736389D02*
X11424682Y-18755436D01*
X11424682Y-18755436D02*
X11415158Y-18764960D01*
X11415158Y-18764960D02*
X11396110Y-18774484D01*
X11396110Y-18774484D02*
X11377062Y-18774484D01*
X11377062Y-18774484D02*
X11358015Y-18764960D01*
X11358015Y-18764960D02*
X11348491Y-18755436D01*
X11348491Y-18755436D02*
X11338967Y-18736389D01*
X11338967Y-18736389D02*
X11329443Y-18698293D01*
X11329443Y-18698293D02*
X11329443Y-18650674D01*
X11329443Y-18650674D02*
X11338967Y-18612579D01*
X11338967Y-18612579D02*
X11348491Y-18593531D01*
X11348491Y-18593531D02*
X11358015Y-18584008D01*
X11358015Y-18584008D02*
X11377062Y-18574484D01*
X11567539Y-18574484D02*
X11586586Y-18574484D01*
X11586586Y-18574484D02*
X11605634Y-18584008D01*
X11605634Y-18584008D02*
X11615158Y-18593531D01*
X11615158Y-18593531D02*
X11624682Y-18612579D01*
X11624682Y-18612579D02*
X11634205Y-18650674D01*
X11634205Y-18650674D02*
X11634205Y-18698293D01*
X11634205Y-18698293D02*
X11624682Y-18736389D01*
X11624682Y-18736389D02*
X11615158Y-18755436D01*
X11615158Y-18755436D02*
X11605634Y-18764960D01*
X11605634Y-18764960D02*
X11586586Y-18774484D01*
X11586586Y-18774484D02*
X11567539Y-18774484D01*
X11567539Y-18774484D02*
X11548491Y-18764960D01*
X11548491Y-18764960D02*
X11538967Y-18755436D01*
X11538967Y-18755436D02*
X11529443Y-18736389D01*
X11529443Y-18736389D02*
X11519920Y-18698293D01*
X11519920Y-18698293D02*
X11519920Y-18650674D01*
X11519920Y-18650674D02*
X11529443Y-18612579D01*
X11529443Y-18612579D02*
X11538967Y-18593531D01*
X11538967Y-18593531D02*
X11548491Y-18584008D01*
X11548491Y-18584008D02*
X11567539Y-18574484D01*
X11719920Y-18774484D02*
X11719920Y-18641150D01*
X11719920Y-18660198D02*
X11729443Y-18650674D01*
X11729443Y-18650674D02*
X11748491Y-18641150D01*
X11748491Y-18641150D02*
X11777063Y-18641150D01*
X11777063Y-18641150D02*
X11796110Y-18650674D01*
X11796110Y-18650674D02*
X11805634Y-18669722D01*
X11805634Y-18669722D02*
X11805634Y-18774484D01*
X11805634Y-18669722D02*
X11815158Y-18650674D01*
X11815158Y-18650674D02*
X11834205Y-18641150D01*
X11834205Y-18641150D02*
X11862777Y-18641150D01*
X11862777Y-18641150D02*
X11881824Y-18650674D01*
X11881824Y-18650674D02*
X11891348Y-18669722D01*
X11891348Y-18669722D02*
X11891348Y-18774484D01*
X11986586Y-18774484D02*
X11986586Y-18641150D01*
X11986586Y-18660198D02*
X11996110Y-18650674D01*
X11996110Y-18650674D02*
X12015158Y-18641150D01*
X12015158Y-18641150D02*
X12043729Y-18641150D01*
X12043729Y-18641150D02*
X12062777Y-18650674D01*
X12062777Y-18650674D02*
X12072301Y-18669722D01*
X12072301Y-18669722D02*
X12072301Y-18774484D01*
X12072301Y-18669722D02*
X12081824Y-18650674D01*
X12081824Y-18650674D02*
X12100872Y-18641150D01*
X12100872Y-18641150D02*
X12129443Y-18641150D01*
X12129443Y-18641150D02*
X12148491Y-18650674D01*
X12148491Y-18650674D02*
X12158015Y-18669722D01*
X12158015Y-18669722D02*
X12158015Y-18774484D01*
X12548491Y-18564960D02*
X12377063Y-18822103D01*
X12805634Y-18574484D02*
X12824682Y-18574484D01*
X12824682Y-18574484D02*
X12843729Y-18584008D01*
X12843729Y-18584008D02*
X12853253Y-18593531D01*
X12853253Y-18593531D02*
X12862777Y-18612579D01*
X12862777Y-18612579D02*
X12872301Y-18650674D01*
X12872301Y-18650674D02*
X12872301Y-18698293D01*
X12872301Y-18698293D02*
X12862777Y-18736389D01*
X12862777Y-18736389D02*
X12853253Y-18755436D01*
X12853253Y-18755436D02*
X12843729Y-18764960D01*
X12843729Y-18764960D02*
X12824682Y-18774484D01*
X12824682Y-18774484D02*
X12805634Y-18774484D01*
X12805634Y-18774484D02*
X12786586Y-18764960D01*
X12786586Y-18764960D02*
X12777063Y-18755436D01*
X12777063Y-18755436D02*
X12767539Y-18736389D01*
X12767539Y-18736389D02*
X12758015Y-18698293D01*
X12758015Y-18698293D02*
X12758015Y-18650674D01*
X12758015Y-18650674D02*
X12767539Y-18612579D01*
X12767539Y-18612579D02*
X12777063Y-18593531D01*
X12777063Y-18593531D02*
X12786586Y-18584008D01*
X12786586Y-18584008D02*
X12805634Y-18574484D01*
X12958015Y-18755436D02*
X12967539Y-18764960D01*
X12967539Y-18764960D02*
X12958015Y-18774484D01*
X12958015Y-18774484D02*
X12948491Y-18764960D01*
X12948491Y-18764960D02*
X12958015Y-18755436D01*
X12958015Y-18755436D02*
X12958015Y-18774484D01*
X13091348Y-18574484D02*
X13110396Y-18574484D01*
X13110396Y-18574484D02*
X13129444Y-18584008D01*
X13129444Y-18584008D02*
X13138967Y-18593531D01*
X13138967Y-18593531D02*
X13148491Y-18612579D01*
X13148491Y-18612579D02*
X13158015Y-18650674D01*
X13158015Y-18650674D02*
X13158015Y-18698293D01*
X13158015Y-18698293D02*
X13148491Y-18736389D01*
X13148491Y-18736389D02*
X13138967Y-18755436D01*
X13138967Y-18755436D02*
X13129444Y-18764960D01*
X13129444Y-18764960D02*
X13110396Y-18774484D01*
X13110396Y-18774484D02*
X13091348Y-18774484D01*
X13091348Y-18774484D02*
X13072301Y-18764960D01*
X13072301Y-18764960D02*
X13062777Y-18755436D01*
X13062777Y-18755436D02*
X13053253Y-18736389D01*
X13053253Y-18736389D02*
X13043729Y-18698293D01*
X13043729Y-18698293D02*
X13043729Y-18650674D01*
X13043729Y-18650674D02*
X13053253Y-18612579D01*
X13053253Y-18612579D02*
X13062777Y-18593531D01*
X13062777Y-18593531D02*
X13072301Y-18584008D01*
X13072301Y-18584008D02*
X13091348Y-18574484D01*
X13348491Y-18774484D02*
X13234206Y-18774484D01*
X13291348Y-18774484D02*
X13291348Y-18574484D01*
X13291348Y-18574484D02*
X13272301Y-18603055D01*
X13272301Y-18603055D02*
X13253253Y-18622103D01*
X13253253Y-18622103D02*
X13234206Y-18631627D01*
X13538967Y-18774484D02*
X13424682Y-18774484D01*
X13481825Y-18774484D02*
X13481825Y-18574484D01*
X13481825Y-18574484D02*
X13462777Y-18603055D01*
X13462777Y-18603055D02*
X13443729Y-18622103D01*
X13443729Y-18622103D02*
X13424682Y-18631627D01*
X13653253Y-18660198D02*
X13634206Y-18650674D01*
X13634206Y-18650674D02*
X13624682Y-18641150D01*
X13624682Y-18641150D02*
X13615158Y-18622103D01*
X13615158Y-18622103D02*
X13615158Y-18612579D01*
X13615158Y-18612579D02*
X13624682Y-18593531D01*
X13624682Y-18593531D02*
X13634206Y-18584008D01*
X13634206Y-18584008D02*
X13653253Y-18574484D01*
X13653253Y-18574484D02*
X13691348Y-18574484D01*
X13691348Y-18574484D02*
X13710396Y-18584008D01*
X13710396Y-18584008D02*
X13719920Y-18593531D01*
X13719920Y-18593531D02*
X13729444Y-18612579D01*
X13729444Y-18612579D02*
X13729444Y-18622103D01*
X13729444Y-18622103D02*
X13719920Y-18641150D01*
X13719920Y-18641150D02*
X13710396Y-18650674D01*
X13710396Y-18650674D02*
X13691348Y-18660198D01*
X13691348Y-18660198D02*
X13653253Y-18660198D01*
X13653253Y-18660198D02*
X13634206Y-18669722D01*
X13634206Y-18669722D02*
X13624682Y-18679246D01*
X13624682Y-18679246D02*
X13615158Y-18698293D01*
X13615158Y-18698293D02*
X13615158Y-18736389D01*
X13615158Y-18736389D02*
X13624682Y-18755436D01*
X13624682Y-18755436D02*
X13634206Y-18764960D01*
X13634206Y-18764960D02*
X13653253Y-18774484D01*
X13653253Y-18774484D02*
X13691348Y-18774484D01*
X13691348Y-18774484D02*
X13710396Y-18764960D01*
X13710396Y-18764960D02*
X13719920Y-18755436D01*
X13719920Y-18755436D02*
X13729444Y-18736389D01*
X13729444Y-18736389D02*
X13729444Y-18698293D01*
X13729444Y-18698293D02*
X13719920Y-18679246D01*
X13719920Y-18679246D02*
X13710396Y-18669722D01*
X13710396Y-18669722D02*
X13691348Y-18660198D01*
X13805634Y-18574484D02*
X13805634Y-18612579D01*
X13881825Y-18574484D02*
X13881825Y-18612579D01*
X14177063Y-18850674D02*
X14167539Y-18841150D01*
X14167539Y-18841150D02*
X14148491Y-18812579D01*
X14148491Y-18812579D02*
X14138968Y-18793531D01*
X14138968Y-18793531D02*
X14129444Y-18764960D01*
X14129444Y-18764960D02*
X14119920Y-18717341D01*
X14119920Y-18717341D02*
X14119920Y-18679246D01*
X14119920Y-18679246D02*
X14129444Y-18631627D01*
X14129444Y-18631627D02*
X14138968Y-18603055D01*
X14138968Y-18603055D02*
X14148491Y-18584008D01*
X14148491Y-18584008D02*
X14167539Y-18555436D01*
X14167539Y-18555436D02*
X14177063Y-18545912D01*
X14358015Y-18774484D02*
X14243729Y-18774484D01*
X14300872Y-18774484D02*
X14300872Y-18574484D01*
X14300872Y-18574484D02*
X14281825Y-18603055D01*
X14281825Y-18603055D02*
X14262777Y-18622103D01*
X14262777Y-18622103D02*
X14243729Y-18631627D01*
X14424682Y-18574484D02*
X14548491Y-18574484D01*
X14548491Y-18574484D02*
X14481825Y-18650674D01*
X14481825Y-18650674D02*
X14510396Y-18650674D01*
X14510396Y-18650674D02*
X14529444Y-18660198D01*
X14529444Y-18660198D02*
X14538968Y-18669722D01*
X14538968Y-18669722D02*
X14548491Y-18688770D01*
X14548491Y-18688770D02*
X14548491Y-18736389D01*
X14548491Y-18736389D02*
X14538968Y-18755436D01*
X14538968Y-18755436D02*
X14529444Y-18764960D01*
X14529444Y-18764960D02*
X14510396Y-18774484D01*
X14510396Y-18774484D02*
X14453253Y-18774484D01*
X14453253Y-18774484D02*
X14434206Y-18764960D01*
X14434206Y-18764960D02*
X14424682Y-18755436D01*
X14786587Y-18774484D02*
X14786587Y-18574484D01*
X14872301Y-18774484D02*
X14872301Y-18669722D01*
X14872301Y-18669722D02*
X14862777Y-18650674D01*
X14862777Y-18650674D02*
X14843730Y-18641150D01*
X14843730Y-18641150D02*
X14815158Y-18641150D01*
X14815158Y-18641150D02*
X14796110Y-18650674D01*
X14796110Y-18650674D02*
X14786587Y-18660198D01*
X14996110Y-18774484D02*
X14977063Y-18764960D01*
X14977063Y-18764960D02*
X14967539Y-18755436D01*
X14967539Y-18755436D02*
X14958015Y-18736389D01*
X14958015Y-18736389D02*
X14958015Y-18679246D01*
X14958015Y-18679246D02*
X14967539Y-18660198D01*
X14967539Y-18660198D02*
X14977063Y-18650674D01*
X14977063Y-18650674D02*
X14996110Y-18641150D01*
X14996110Y-18641150D02*
X15024682Y-18641150D01*
X15024682Y-18641150D02*
X15043730Y-18650674D01*
X15043730Y-18650674D02*
X15053253Y-18660198D01*
X15053253Y-18660198D02*
X15062777Y-18679246D01*
X15062777Y-18679246D02*
X15062777Y-18736389D01*
X15062777Y-18736389D02*
X15053253Y-18755436D01*
X15053253Y-18755436D02*
X15043730Y-18764960D01*
X15043730Y-18764960D02*
X15024682Y-18774484D01*
X15024682Y-18774484D02*
X14996110Y-18774484D01*
X15177063Y-18774484D02*
X15158015Y-18764960D01*
X15158015Y-18764960D02*
X15148491Y-18745912D01*
X15148491Y-18745912D02*
X15148491Y-18574484D01*
X15329444Y-18764960D02*
X15310396Y-18774484D01*
X15310396Y-18774484D02*
X15272301Y-18774484D01*
X15272301Y-18774484D02*
X15253253Y-18764960D01*
X15253253Y-18764960D02*
X15243730Y-18745912D01*
X15243730Y-18745912D02*
X15243730Y-18669722D01*
X15243730Y-18669722D02*
X15253253Y-18650674D01*
X15253253Y-18650674D02*
X15272301Y-18641150D01*
X15272301Y-18641150D02*
X15310396Y-18641150D01*
X15310396Y-18641150D02*
X15329444Y-18650674D01*
X15329444Y-18650674D02*
X15338968Y-18669722D01*
X15338968Y-18669722D02*
X15338968Y-18688770D01*
X15338968Y-18688770D02*
X15243730Y-18707817D01*
X15415158Y-18764960D02*
X15434206Y-18774484D01*
X15434206Y-18774484D02*
X15472301Y-18774484D01*
X15472301Y-18774484D02*
X15491349Y-18764960D01*
X15491349Y-18764960D02*
X15500872Y-18745912D01*
X15500872Y-18745912D02*
X15500872Y-18736389D01*
X15500872Y-18736389D02*
X15491349Y-18717341D01*
X15491349Y-18717341D02*
X15472301Y-18707817D01*
X15472301Y-18707817D02*
X15443730Y-18707817D01*
X15443730Y-18707817D02*
X15424682Y-18698293D01*
X15424682Y-18698293D02*
X15415158Y-18679246D01*
X15415158Y-18679246D02*
X15415158Y-18669722D01*
X15415158Y-18669722D02*
X15424682Y-18650674D01*
X15424682Y-18650674D02*
X15443730Y-18641150D01*
X15443730Y-18641150D02*
X15472301Y-18641150D01*
X15472301Y-18641150D02*
X15491349Y-18650674D01*
X15567539Y-18850674D02*
X15577063Y-18841150D01*
X15577063Y-18841150D02*
X15596111Y-18812579D01*
X15596111Y-18812579D02*
X15605634Y-18793531D01*
X15605634Y-18793531D02*
X15615158Y-18764960D01*
X15615158Y-18764960D02*
X15624682Y-18717341D01*
X15624682Y-18717341D02*
X15624682Y-18679246D01*
X15624682Y-18679246D02*
X15615158Y-18631627D01*
X15615158Y-18631627D02*
X15605634Y-18603055D01*
X15605634Y-18603055D02*
X15596111Y-18584008D01*
X15596111Y-18584008D02*
X15577063Y-18555436D01*
X15577063Y-18555436D02*
X15567539Y-18545912D01*
D12*
X10602000Y-18947000D02*
G75*
G02*
X10503000Y-18947000I-49500J0D01*
G01*
X10503000Y-18947000D02*
G75*
G02*
X10602000Y-18947000I49500J0D01*
G01*
D11*
X10900872Y-18838484D02*
X10919920Y-18838484D01*
X10919920Y-18838484D02*
X10938967Y-18848008D01*
X10938967Y-18848008D02*
X10948491Y-18857531D01*
X10948491Y-18857531D02*
X10958015Y-18876579D01*
X10958015Y-18876579D02*
X10967539Y-18914674D01*
X10967539Y-18914674D02*
X10967539Y-18962293D01*
X10967539Y-18962293D02*
X10958015Y-19000389D01*
X10958015Y-19000389D02*
X10948491Y-19019436D01*
X10948491Y-19019436D02*
X10938967Y-19028960D01*
X10938967Y-19028960D02*
X10919920Y-19038484D01*
X10919920Y-19038484D02*
X10900872Y-19038484D01*
X10900872Y-19038484D02*
X10881824Y-19028960D01*
X10881824Y-19028960D02*
X10872301Y-19019436D01*
X10872301Y-19019436D02*
X10862777Y-19000389D01*
X10862777Y-19000389D02*
X10853253Y-18962293D01*
X10853253Y-18962293D02*
X10853253Y-18914674D01*
X10853253Y-18914674D02*
X10862777Y-18876579D01*
X10862777Y-18876579D02*
X10872301Y-18857531D01*
X10872301Y-18857531D02*
X10881824Y-18848008D01*
X10881824Y-18848008D02*
X10900872Y-18838484D01*
X11053253Y-19019436D02*
X11062777Y-19028960D01*
X11062777Y-19028960D02*
X11053253Y-19038484D01*
X11053253Y-19038484D02*
X11043729Y-19028960D01*
X11043729Y-19028960D02*
X11053253Y-19019436D01*
X11053253Y-19019436D02*
X11053253Y-19038484D01*
X11158015Y-19038484D02*
X11196110Y-19038484D01*
X11196110Y-19038484D02*
X11215158Y-19028960D01*
X11215158Y-19028960D02*
X11224682Y-19019436D01*
X11224682Y-19019436D02*
X11243729Y-18990865D01*
X11243729Y-18990865D02*
X11253253Y-18952770D01*
X11253253Y-18952770D02*
X11253253Y-18876579D01*
X11253253Y-18876579D02*
X11243729Y-18857531D01*
X11243729Y-18857531D02*
X11234205Y-18848008D01*
X11234205Y-18848008D02*
X11215158Y-18838484D01*
X11215158Y-18838484D02*
X11177063Y-18838484D01*
X11177063Y-18838484D02*
X11158015Y-18848008D01*
X11158015Y-18848008D02*
X11148491Y-18857531D01*
X11148491Y-18857531D02*
X11138967Y-18876579D01*
X11138967Y-18876579D02*
X11138967Y-18924198D01*
X11138967Y-18924198D02*
X11148491Y-18943246D01*
X11148491Y-18943246D02*
X11158015Y-18952770D01*
X11158015Y-18952770D02*
X11177063Y-18962293D01*
X11177063Y-18962293D02*
X11215158Y-18962293D01*
X11215158Y-18962293D02*
X11234205Y-18952770D01*
X11234205Y-18952770D02*
X11243729Y-18943246D01*
X11243729Y-18943246D02*
X11253253Y-18924198D01*
X11348491Y-19038484D02*
X11386586Y-19038484D01*
X11386586Y-19038484D02*
X11405634Y-19028960D01*
X11405634Y-19028960D02*
X11415158Y-19019436D01*
X11415158Y-19019436D02*
X11434205Y-18990865D01*
X11434205Y-18990865D02*
X11443729Y-18952770D01*
X11443729Y-18952770D02*
X11443729Y-18876579D01*
X11443729Y-18876579D02*
X11434205Y-18857531D01*
X11434205Y-18857531D02*
X11424682Y-18848008D01*
X11424682Y-18848008D02*
X11405634Y-18838484D01*
X11405634Y-18838484D02*
X11367539Y-18838484D01*
X11367539Y-18838484D02*
X11348491Y-18848008D01*
X11348491Y-18848008D02*
X11338967Y-18857531D01*
X11338967Y-18857531D02*
X11329443Y-18876579D01*
X11329443Y-18876579D02*
X11329443Y-18924198D01*
X11329443Y-18924198D02*
X11338967Y-18943246D01*
X11338967Y-18943246D02*
X11348491Y-18952770D01*
X11348491Y-18952770D02*
X11367539Y-18962293D01*
X11367539Y-18962293D02*
X11405634Y-18962293D01*
X11405634Y-18962293D02*
X11424682Y-18952770D01*
X11424682Y-18952770D02*
X11434205Y-18943246D01*
X11434205Y-18943246D02*
X11443729Y-18924198D01*
X11567539Y-18838484D02*
X11586586Y-18838484D01*
X11586586Y-18838484D02*
X11605634Y-18848008D01*
X11605634Y-18848008D02*
X11615158Y-18857531D01*
X11615158Y-18857531D02*
X11624682Y-18876579D01*
X11624682Y-18876579D02*
X11634205Y-18914674D01*
X11634205Y-18914674D02*
X11634205Y-18962293D01*
X11634205Y-18962293D02*
X11624682Y-19000389D01*
X11624682Y-19000389D02*
X11615158Y-19019436D01*
X11615158Y-19019436D02*
X11605634Y-19028960D01*
X11605634Y-19028960D02*
X11586586Y-19038484D01*
X11586586Y-19038484D02*
X11567539Y-19038484D01*
X11567539Y-19038484D02*
X11548491Y-19028960D01*
X11548491Y-19028960D02*
X11538967Y-19019436D01*
X11538967Y-19019436D02*
X11529443Y-19000389D01*
X11529443Y-19000389D02*
X11519920Y-18962293D01*
X11519920Y-18962293D02*
X11519920Y-18914674D01*
X11519920Y-18914674D02*
X11529443Y-18876579D01*
X11529443Y-18876579D02*
X11538967Y-18857531D01*
X11538967Y-18857531D02*
X11548491Y-18848008D01*
X11548491Y-18848008D02*
X11567539Y-18838484D01*
X11719920Y-19038484D02*
X11719920Y-18905150D01*
X11719920Y-18924198D02*
X11729443Y-18914674D01*
X11729443Y-18914674D02*
X11748491Y-18905150D01*
X11748491Y-18905150D02*
X11777063Y-18905150D01*
X11777063Y-18905150D02*
X11796110Y-18914674D01*
X11796110Y-18914674D02*
X11805634Y-18933722D01*
X11805634Y-18933722D02*
X11805634Y-19038484D01*
X11805634Y-18933722D02*
X11815158Y-18914674D01*
X11815158Y-18914674D02*
X11834205Y-18905150D01*
X11834205Y-18905150D02*
X11862777Y-18905150D01*
X11862777Y-18905150D02*
X11881824Y-18914674D01*
X11881824Y-18914674D02*
X11891348Y-18933722D01*
X11891348Y-18933722D02*
X11891348Y-19038484D01*
X11986586Y-19038484D02*
X11986586Y-18905150D01*
X11986586Y-18924198D02*
X11996110Y-18914674D01*
X11996110Y-18914674D02*
X12015158Y-18905150D01*
X12015158Y-18905150D02*
X12043729Y-18905150D01*
X12043729Y-18905150D02*
X12062777Y-18914674D01*
X12062777Y-18914674D02*
X12072301Y-18933722D01*
X12072301Y-18933722D02*
X12072301Y-19038484D01*
X12072301Y-18933722D02*
X12081824Y-18914674D01*
X12081824Y-18914674D02*
X12100872Y-18905150D01*
X12100872Y-18905150D02*
X12129443Y-18905150D01*
X12129443Y-18905150D02*
X12148491Y-18914674D01*
X12148491Y-18914674D02*
X12158015Y-18933722D01*
X12158015Y-18933722D02*
X12158015Y-19038484D01*
X12548491Y-18828960D02*
X12377063Y-19086103D01*
X12805634Y-18838484D02*
X12824682Y-18838484D01*
X12824682Y-18838484D02*
X12843729Y-18848008D01*
X12843729Y-18848008D02*
X12853253Y-18857531D01*
X12853253Y-18857531D02*
X12862777Y-18876579D01*
X12862777Y-18876579D02*
X12872301Y-18914674D01*
X12872301Y-18914674D02*
X12872301Y-18962293D01*
X12872301Y-18962293D02*
X12862777Y-19000389D01*
X12862777Y-19000389D02*
X12853253Y-19019436D01*
X12853253Y-19019436D02*
X12843729Y-19028960D01*
X12843729Y-19028960D02*
X12824682Y-19038484D01*
X12824682Y-19038484D02*
X12805634Y-19038484D01*
X12805634Y-19038484D02*
X12786586Y-19028960D01*
X12786586Y-19028960D02*
X12777063Y-19019436D01*
X12777063Y-19019436D02*
X12767539Y-19000389D01*
X12767539Y-19000389D02*
X12758015Y-18962293D01*
X12758015Y-18962293D02*
X12758015Y-18914674D01*
X12758015Y-18914674D02*
X12767539Y-18876579D01*
X12767539Y-18876579D02*
X12777063Y-18857531D01*
X12777063Y-18857531D02*
X12786586Y-18848008D01*
X12786586Y-18848008D02*
X12805634Y-18838484D01*
X12958015Y-19019436D02*
X12967539Y-19028960D01*
X12967539Y-19028960D02*
X12958015Y-19038484D01*
X12958015Y-19038484D02*
X12948491Y-19028960D01*
X12948491Y-19028960D02*
X12958015Y-19019436D01*
X12958015Y-19019436D02*
X12958015Y-19038484D01*
X13091348Y-18838484D02*
X13110396Y-18838484D01*
X13110396Y-18838484D02*
X13129444Y-18848008D01*
X13129444Y-18848008D02*
X13138967Y-18857531D01*
X13138967Y-18857531D02*
X13148491Y-18876579D01*
X13148491Y-18876579D02*
X13158015Y-18914674D01*
X13158015Y-18914674D02*
X13158015Y-18962293D01*
X13158015Y-18962293D02*
X13148491Y-19000389D01*
X13148491Y-19000389D02*
X13138967Y-19019436D01*
X13138967Y-19019436D02*
X13129444Y-19028960D01*
X13129444Y-19028960D02*
X13110396Y-19038484D01*
X13110396Y-19038484D02*
X13091348Y-19038484D01*
X13091348Y-19038484D02*
X13072301Y-19028960D01*
X13072301Y-19028960D02*
X13062777Y-19019436D01*
X13062777Y-19019436D02*
X13053253Y-19000389D01*
X13053253Y-19000389D02*
X13043729Y-18962293D01*
X13043729Y-18962293D02*
X13043729Y-18914674D01*
X13043729Y-18914674D02*
X13053253Y-18876579D01*
X13053253Y-18876579D02*
X13062777Y-18857531D01*
X13062777Y-18857531D02*
X13072301Y-18848008D01*
X13072301Y-18848008D02*
X13091348Y-18838484D01*
X13224682Y-18838484D02*
X13348491Y-18838484D01*
X13348491Y-18838484D02*
X13281825Y-18914674D01*
X13281825Y-18914674D02*
X13310396Y-18914674D01*
X13310396Y-18914674D02*
X13329444Y-18924198D01*
X13329444Y-18924198D02*
X13338967Y-18933722D01*
X13338967Y-18933722D02*
X13348491Y-18952770D01*
X13348491Y-18952770D02*
X13348491Y-19000389D01*
X13348491Y-19000389D02*
X13338967Y-19019436D01*
X13338967Y-19019436D02*
X13329444Y-19028960D01*
X13329444Y-19028960D02*
X13310396Y-19038484D01*
X13310396Y-19038484D02*
X13253253Y-19038484D01*
X13253253Y-19038484D02*
X13234206Y-19028960D01*
X13234206Y-19028960D02*
X13224682Y-19019436D01*
X13443729Y-19038484D02*
X13481825Y-19038484D01*
X13481825Y-19038484D02*
X13500872Y-19028960D01*
X13500872Y-19028960D02*
X13510396Y-19019436D01*
X13510396Y-19019436D02*
X13529444Y-18990865D01*
X13529444Y-18990865D02*
X13538967Y-18952770D01*
X13538967Y-18952770D02*
X13538967Y-18876579D01*
X13538967Y-18876579D02*
X13529444Y-18857531D01*
X13529444Y-18857531D02*
X13519920Y-18848008D01*
X13519920Y-18848008D02*
X13500872Y-18838484D01*
X13500872Y-18838484D02*
X13462777Y-18838484D01*
X13462777Y-18838484D02*
X13443729Y-18848008D01*
X13443729Y-18848008D02*
X13434206Y-18857531D01*
X13434206Y-18857531D02*
X13424682Y-18876579D01*
X13424682Y-18876579D02*
X13424682Y-18924198D01*
X13424682Y-18924198D02*
X13434206Y-18943246D01*
X13434206Y-18943246D02*
X13443729Y-18952770D01*
X13443729Y-18952770D02*
X13462777Y-18962293D01*
X13462777Y-18962293D02*
X13500872Y-18962293D01*
X13500872Y-18962293D02*
X13519920Y-18952770D01*
X13519920Y-18952770D02*
X13529444Y-18943246D01*
X13529444Y-18943246D02*
X13538967Y-18924198D01*
X13662777Y-18838484D02*
X13681825Y-18838484D01*
X13681825Y-18838484D02*
X13700872Y-18848008D01*
X13700872Y-18848008D02*
X13710396Y-18857531D01*
X13710396Y-18857531D02*
X13719920Y-18876579D01*
X13719920Y-18876579D02*
X13729444Y-18914674D01*
X13729444Y-18914674D02*
X13729444Y-18962293D01*
X13729444Y-18962293D02*
X13719920Y-19000389D01*
X13719920Y-19000389D02*
X13710396Y-19019436D01*
X13710396Y-19019436D02*
X13700872Y-19028960D01*
X13700872Y-19028960D02*
X13681825Y-19038484D01*
X13681825Y-19038484D02*
X13662777Y-19038484D01*
X13662777Y-19038484D02*
X13643729Y-19028960D01*
X13643729Y-19028960D02*
X13634206Y-19019436D01*
X13634206Y-19019436D02*
X13624682Y-19000389D01*
X13624682Y-19000389D02*
X13615158Y-18962293D01*
X13615158Y-18962293D02*
X13615158Y-18914674D01*
X13615158Y-18914674D02*
X13624682Y-18876579D01*
X13624682Y-18876579D02*
X13634206Y-18857531D01*
X13634206Y-18857531D02*
X13643729Y-18848008D01*
X13643729Y-18848008D02*
X13662777Y-18838484D01*
X13805634Y-18838484D02*
X13805634Y-18876579D01*
X13881825Y-18838484D02*
X13881825Y-18876579D01*
X14177063Y-19114674D02*
X14167539Y-19105150D01*
X14167539Y-19105150D02*
X14148491Y-19076579D01*
X14148491Y-19076579D02*
X14138968Y-19057531D01*
X14138968Y-19057531D02*
X14129444Y-19028960D01*
X14129444Y-19028960D02*
X14119920Y-18981341D01*
X14119920Y-18981341D02*
X14119920Y-18943246D01*
X14119920Y-18943246D02*
X14129444Y-18895627D01*
X14129444Y-18895627D02*
X14138968Y-18867055D01*
X14138968Y-18867055D02*
X14148491Y-18848008D01*
X14148491Y-18848008D02*
X14167539Y-18819436D01*
X14167539Y-18819436D02*
X14177063Y-18809912D01*
X14338968Y-18905150D02*
X14338968Y-19038484D01*
X14291348Y-18828960D02*
X14243729Y-18971817D01*
X14243729Y-18971817D02*
X14367539Y-18971817D01*
X14596110Y-19038484D02*
X14596110Y-18838484D01*
X14681825Y-19038484D02*
X14681825Y-18933722D01*
X14681825Y-18933722D02*
X14672301Y-18914674D01*
X14672301Y-18914674D02*
X14653253Y-18905150D01*
X14653253Y-18905150D02*
X14624682Y-18905150D01*
X14624682Y-18905150D02*
X14605634Y-18914674D01*
X14605634Y-18914674D02*
X14596110Y-18924198D01*
X14805634Y-19038484D02*
X14786587Y-19028960D01*
X14786587Y-19028960D02*
X14777063Y-19019436D01*
X14777063Y-19019436D02*
X14767539Y-19000389D01*
X14767539Y-19000389D02*
X14767539Y-18943246D01*
X14767539Y-18943246D02*
X14777063Y-18924198D01*
X14777063Y-18924198D02*
X14786587Y-18914674D01*
X14786587Y-18914674D02*
X14805634Y-18905150D01*
X14805634Y-18905150D02*
X14834206Y-18905150D01*
X14834206Y-18905150D02*
X14853253Y-18914674D01*
X14853253Y-18914674D02*
X14862777Y-18924198D01*
X14862777Y-18924198D02*
X14872301Y-18943246D01*
X14872301Y-18943246D02*
X14872301Y-19000389D01*
X14872301Y-19000389D02*
X14862777Y-19019436D01*
X14862777Y-19019436D02*
X14853253Y-19028960D01*
X14853253Y-19028960D02*
X14834206Y-19038484D01*
X14834206Y-19038484D02*
X14805634Y-19038484D01*
X14986587Y-19038484D02*
X14967539Y-19028960D01*
X14967539Y-19028960D02*
X14958015Y-19009912D01*
X14958015Y-19009912D02*
X14958015Y-18838484D01*
X15138968Y-19028960D02*
X15119920Y-19038484D01*
X15119920Y-19038484D02*
X15081825Y-19038484D01*
X15081825Y-19038484D02*
X15062777Y-19028960D01*
X15062777Y-19028960D02*
X15053253Y-19009912D01*
X15053253Y-19009912D02*
X15053253Y-18933722D01*
X15053253Y-18933722D02*
X15062777Y-18914674D01*
X15062777Y-18914674D02*
X15081825Y-18905150D01*
X15081825Y-18905150D02*
X15119920Y-18905150D01*
X15119920Y-18905150D02*
X15138968Y-18914674D01*
X15138968Y-18914674D02*
X15148491Y-18933722D01*
X15148491Y-18933722D02*
X15148491Y-18952770D01*
X15148491Y-18952770D02*
X15053253Y-18971817D01*
X15224682Y-19028960D02*
X15243730Y-19038484D01*
X15243730Y-19038484D02*
X15281825Y-19038484D01*
X15281825Y-19038484D02*
X15300872Y-19028960D01*
X15300872Y-19028960D02*
X15310396Y-19009912D01*
X15310396Y-19009912D02*
X15310396Y-19000389D01*
X15310396Y-19000389D02*
X15300872Y-18981341D01*
X15300872Y-18981341D02*
X15281825Y-18971817D01*
X15281825Y-18971817D02*
X15253253Y-18971817D01*
X15253253Y-18971817D02*
X15234206Y-18962293D01*
X15234206Y-18962293D02*
X15224682Y-18943246D01*
X15224682Y-18943246D02*
X15224682Y-18933722D01*
X15224682Y-18933722D02*
X15234206Y-18914674D01*
X15234206Y-18914674D02*
X15253253Y-18905150D01*
X15253253Y-18905150D02*
X15281825Y-18905150D01*
X15281825Y-18905150D02*
X15300872Y-18914674D01*
X15377063Y-19114674D02*
X15386587Y-19105150D01*
X15386587Y-19105150D02*
X15405634Y-19076579D01*
X15405634Y-19076579D02*
X15415158Y-19057531D01*
X15415158Y-19057531D02*
X15424682Y-19028960D01*
X15424682Y-19028960D02*
X15434206Y-18981341D01*
X15434206Y-18981341D02*
X15434206Y-18943246D01*
X15434206Y-18943246D02*
X15424682Y-18895627D01*
X15424682Y-18895627D02*
X15415158Y-18867055D01*
X15415158Y-18867055D02*
X15405634Y-18848008D01*
X15405634Y-18848008D02*
X15386587Y-18819436D01*
X15386587Y-18819436D02*
X15377063Y-18809912D01*
D13*
X10538500Y-19147500D02*
X10538500Y-19274500D01*
X10475000Y-19211000D02*
X10602000Y-19211000D01*
D11*
X10967539Y-19302484D02*
X10853253Y-19302484D01*
X10910396Y-19302484D02*
X10910396Y-19102484D01*
X10910396Y-19102484D02*
X10891348Y-19131055D01*
X10891348Y-19131055D02*
X10872301Y-19150103D01*
X10872301Y-19150103D02*
X10853253Y-19159627D01*
X11053253Y-19283436D02*
X11062777Y-19292960D01*
X11062777Y-19292960D02*
X11053253Y-19302484D01*
X11053253Y-19302484D02*
X11043729Y-19292960D01*
X11043729Y-19292960D02*
X11053253Y-19283436D01*
X11053253Y-19283436D02*
X11053253Y-19302484D01*
X11138967Y-19121531D02*
X11148491Y-19112008D01*
X11148491Y-19112008D02*
X11167539Y-19102484D01*
X11167539Y-19102484D02*
X11215158Y-19102484D01*
X11215158Y-19102484D02*
X11234205Y-19112008D01*
X11234205Y-19112008D02*
X11243729Y-19121531D01*
X11243729Y-19121531D02*
X11253253Y-19140579D01*
X11253253Y-19140579D02*
X11253253Y-19159627D01*
X11253253Y-19159627D02*
X11243729Y-19188198D01*
X11243729Y-19188198D02*
X11129444Y-19302484D01*
X11129444Y-19302484D02*
X11253253Y-19302484D01*
X11319920Y-19102484D02*
X11453253Y-19102484D01*
X11453253Y-19102484D02*
X11367539Y-19302484D01*
X11567539Y-19102484D02*
X11586586Y-19102484D01*
X11586586Y-19102484D02*
X11605634Y-19112008D01*
X11605634Y-19112008D02*
X11615158Y-19121531D01*
X11615158Y-19121531D02*
X11624682Y-19140579D01*
X11624682Y-19140579D02*
X11634205Y-19178674D01*
X11634205Y-19178674D02*
X11634205Y-19226293D01*
X11634205Y-19226293D02*
X11624682Y-19264389D01*
X11624682Y-19264389D02*
X11615158Y-19283436D01*
X11615158Y-19283436D02*
X11605634Y-19292960D01*
X11605634Y-19292960D02*
X11586586Y-19302484D01*
X11586586Y-19302484D02*
X11567539Y-19302484D01*
X11567539Y-19302484D02*
X11548491Y-19292960D01*
X11548491Y-19292960D02*
X11538967Y-19283436D01*
X11538967Y-19283436D02*
X11529443Y-19264389D01*
X11529443Y-19264389D02*
X11519920Y-19226293D01*
X11519920Y-19226293D02*
X11519920Y-19178674D01*
X11519920Y-19178674D02*
X11529443Y-19140579D01*
X11529443Y-19140579D02*
X11538967Y-19121531D01*
X11538967Y-19121531D02*
X11548491Y-19112008D01*
X11548491Y-19112008D02*
X11567539Y-19102484D01*
X11719920Y-19302484D02*
X11719920Y-19169150D01*
X11719920Y-19188198D02*
X11729443Y-19178674D01*
X11729443Y-19178674D02*
X11748491Y-19169150D01*
X11748491Y-19169150D02*
X11777063Y-19169150D01*
X11777063Y-19169150D02*
X11796110Y-19178674D01*
X11796110Y-19178674D02*
X11805634Y-19197722D01*
X11805634Y-19197722D02*
X11805634Y-19302484D01*
X11805634Y-19197722D02*
X11815158Y-19178674D01*
X11815158Y-19178674D02*
X11834205Y-19169150D01*
X11834205Y-19169150D02*
X11862777Y-19169150D01*
X11862777Y-19169150D02*
X11881824Y-19178674D01*
X11881824Y-19178674D02*
X11891348Y-19197722D01*
X11891348Y-19197722D02*
X11891348Y-19302484D01*
X11986586Y-19302484D02*
X11986586Y-19169150D01*
X11986586Y-19188198D02*
X11996110Y-19178674D01*
X11996110Y-19178674D02*
X12015158Y-19169150D01*
X12015158Y-19169150D02*
X12043729Y-19169150D01*
X12043729Y-19169150D02*
X12062777Y-19178674D01*
X12062777Y-19178674D02*
X12072301Y-19197722D01*
X12072301Y-19197722D02*
X12072301Y-19302484D01*
X12072301Y-19197722D02*
X12081824Y-19178674D01*
X12081824Y-19178674D02*
X12100872Y-19169150D01*
X12100872Y-19169150D02*
X12129443Y-19169150D01*
X12129443Y-19169150D02*
X12148491Y-19178674D01*
X12148491Y-19178674D02*
X12158015Y-19197722D01*
X12158015Y-19197722D02*
X12158015Y-19302484D01*
X12548491Y-19092960D02*
X12377063Y-19350103D01*
X12805634Y-19102484D02*
X12824682Y-19102484D01*
X12824682Y-19102484D02*
X12843729Y-19112008D01*
X12843729Y-19112008D02*
X12853253Y-19121531D01*
X12853253Y-19121531D02*
X12862777Y-19140579D01*
X12862777Y-19140579D02*
X12872301Y-19178674D01*
X12872301Y-19178674D02*
X12872301Y-19226293D01*
X12872301Y-19226293D02*
X12862777Y-19264389D01*
X12862777Y-19264389D02*
X12853253Y-19283436D01*
X12853253Y-19283436D02*
X12843729Y-19292960D01*
X12843729Y-19292960D02*
X12824682Y-19302484D01*
X12824682Y-19302484D02*
X12805634Y-19302484D01*
X12805634Y-19302484D02*
X12786586Y-19292960D01*
X12786586Y-19292960D02*
X12777063Y-19283436D01*
X12777063Y-19283436D02*
X12767539Y-19264389D01*
X12767539Y-19264389D02*
X12758015Y-19226293D01*
X12758015Y-19226293D02*
X12758015Y-19178674D01*
X12758015Y-19178674D02*
X12767539Y-19140579D01*
X12767539Y-19140579D02*
X12777063Y-19121531D01*
X12777063Y-19121531D02*
X12786586Y-19112008D01*
X12786586Y-19112008D02*
X12805634Y-19102484D01*
X12958015Y-19283436D02*
X12967539Y-19292960D01*
X12967539Y-19292960D02*
X12958015Y-19302484D01*
X12958015Y-19302484D02*
X12948491Y-19292960D01*
X12948491Y-19292960D02*
X12958015Y-19283436D01*
X12958015Y-19283436D02*
X12958015Y-19302484D01*
X13091348Y-19102484D02*
X13110396Y-19102484D01*
X13110396Y-19102484D02*
X13129444Y-19112008D01*
X13129444Y-19112008D02*
X13138967Y-19121531D01*
X13138967Y-19121531D02*
X13148491Y-19140579D01*
X13148491Y-19140579D02*
X13158015Y-19178674D01*
X13158015Y-19178674D02*
X13158015Y-19226293D01*
X13158015Y-19226293D02*
X13148491Y-19264389D01*
X13148491Y-19264389D02*
X13138967Y-19283436D01*
X13138967Y-19283436D02*
X13129444Y-19292960D01*
X13129444Y-19292960D02*
X13110396Y-19302484D01*
X13110396Y-19302484D02*
X13091348Y-19302484D01*
X13091348Y-19302484D02*
X13072301Y-19292960D01*
X13072301Y-19292960D02*
X13062777Y-19283436D01*
X13062777Y-19283436D02*
X13053253Y-19264389D01*
X13053253Y-19264389D02*
X13043729Y-19226293D01*
X13043729Y-19226293D02*
X13043729Y-19178674D01*
X13043729Y-19178674D02*
X13053253Y-19140579D01*
X13053253Y-19140579D02*
X13062777Y-19121531D01*
X13062777Y-19121531D02*
X13072301Y-19112008D01*
X13072301Y-19112008D02*
X13091348Y-19102484D01*
X13338967Y-19102484D02*
X13243729Y-19102484D01*
X13243729Y-19102484D02*
X13234206Y-19197722D01*
X13234206Y-19197722D02*
X13243729Y-19188198D01*
X13243729Y-19188198D02*
X13262777Y-19178674D01*
X13262777Y-19178674D02*
X13310396Y-19178674D01*
X13310396Y-19178674D02*
X13329444Y-19188198D01*
X13329444Y-19188198D02*
X13338967Y-19197722D01*
X13338967Y-19197722D02*
X13348491Y-19216770D01*
X13348491Y-19216770D02*
X13348491Y-19264389D01*
X13348491Y-19264389D02*
X13338967Y-19283436D01*
X13338967Y-19283436D02*
X13329444Y-19292960D01*
X13329444Y-19292960D02*
X13310396Y-19302484D01*
X13310396Y-19302484D02*
X13262777Y-19302484D01*
X13262777Y-19302484D02*
X13243729Y-19292960D01*
X13243729Y-19292960D02*
X13234206Y-19283436D01*
X13472301Y-19102484D02*
X13491348Y-19102484D01*
X13491348Y-19102484D02*
X13510396Y-19112008D01*
X13510396Y-19112008D02*
X13519920Y-19121531D01*
X13519920Y-19121531D02*
X13529444Y-19140579D01*
X13529444Y-19140579D02*
X13538967Y-19178674D01*
X13538967Y-19178674D02*
X13538967Y-19226293D01*
X13538967Y-19226293D02*
X13529444Y-19264389D01*
X13529444Y-19264389D02*
X13519920Y-19283436D01*
X13519920Y-19283436D02*
X13510396Y-19292960D01*
X13510396Y-19292960D02*
X13491348Y-19302484D01*
X13491348Y-19302484D02*
X13472301Y-19302484D01*
X13472301Y-19302484D02*
X13453253Y-19292960D01*
X13453253Y-19292960D02*
X13443729Y-19283436D01*
X13443729Y-19283436D02*
X13434206Y-19264389D01*
X13434206Y-19264389D02*
X13424682Y-19226293D01*
X13424682Y-19226293D02*
X13424682Y-19178674D01*
X13424682Y-19178674D02*
X13434206Y-19140579D01*
X13434206Y-19140579D02*
X13443729Y-19121531D01*
X13443729Y-19121531D02*
X13453253Y-19112008D01*
X13453253Y-19112008D02*
X13472301Y-19102484D01*
X13662777Y-19102484D02*
X13681825Y-19102484D01*
X13681825Y-19102484D02*
X13700872Y-19112008D01*
X13700872Y-19112008D02*
X13710396Y-19121531D01*
X13710396Y-19121531D02*
X13719920Y-19140579D01*
X13719920Y-19140579D02*
X13729444Y-19178674D01*
X13729444Y-19178674D02*
X13729444Y-19226293D01*
X13729444Y-19226293D02*
X13719920Y-19264389D01*
X13719920Y-19264389D02*
X13710396Y-19283436D01*
X13710396Y-19283436D02*
X13700872Y-19292960D01*
X13700872Y-19292960D02*
X13681825Y-19302484D01*
X13681825Y-19302484D02*
X13662777Y-19302484D01*
X13662777Y-19302484D02*
X13643729Y-19292960D01*
X13643729Y-19292960D02*
X13634206Y-19283436D01*
X13634206Y-19283436D02*
X13624682Y-19264389D01*
X13624682Y-19264389D02*
X13615158Y-19226293D01*
X13615158Y-19226293D02*
X13615158Y-19178674D01*
X13615158Y-19178674D02*
X13624682Y-19140579D01*
X13624682Y-19140579D02*
X13634206Y-19121531D01*
X13634206Y-19121531D02*
X13643729Y-19112008D01*
X13643729Y-19112008D02*
X13662777Y-19102484D01*
X13805634Y-19102484D02*
X13805634Y-19140579D01*
X13881825Y-19102484D02*
X13881825Y-19140579D01*
X14177063Y-19378674D02*
X14167539Y-19369150D01*
X14167539Y-19369150D02*
X14148491Y-19340579D01*
X14148491Y-19340579D02*
X14138968Y-19321531D01*
X14138968Y-19321531D02*
X14129444Y-19292960D01*
X14129444Y-19292960D02*
X14119920Y-19245341D01*
X14119920Y-19245341D02*
X14119920Y-19207246D01*
X14119920Y-19207246D02*
X14129444Y-19159627D01*
X14129444Y-19159627D02*
X14138968Y-19131055D01*
X14138968Y-19131055D02*
X14148491Y-19112008D01*
X14148491Y-19112008D02*
X14167539Y-19083436D01*
X14167539Y-19083436D02*
X14177063Y-19073912D01*
X14358015Y-19302484D02*
X14243729Y-19302484D01*
X14300872Y-19302484D02*
X14300872Y-19102484D01*
X14300872Y-19102484D02*
X14281825Y-19131055D01*
X14281825Y-19131055D02*
X14262777Y-19150103D01*
X14262777Y-19150103D02*
X14243729Y-19159627D01*
X14529444Y-19102484D02*
X14491348Y-19102484D01*
X14491348Y-19102484D02*
X14472301Y-19112008D01*
X14472301Y-19112008D02*
X14462777Y-19121531D01*
X14462777Y-19121531D02*
X14443729Y-19150103D01*
X14443729Y-19150103D02*
X14434206Y-19188198D01*
X14434206Y-19188198D02*
X14434206Y-19264389D01*
X14434206Y-19264389D02*
X14443729Y-19283436D01*
X14443729Y-19283436D02*
X14453253Y-19292960D01*
X14453253Y-19292960D02*
X14472301Y-19302484D01*
X14472301Y-19302484D02*
X14510396Y-19302484D01*
X14510396Y-19302484D02*
X14529444Y-19292960D01*
X14529444Y-19292960D02*
X14538968Y-19283436D01*
X14538968Y-19283436D02*
X14548491Y-19264389D01*
X14548491Y-19264389D02*
X14548491Y-19216770D01*
X14548491Y-19216770D02*
X14538968Y-19197722D01*
X14538968Y-19197722D02*
X14529444Y-19188198D01*
X14529444Y-19188198D02*
X14510396Y-19178674D01*
X14510396Y-19178674D02*
X14472301Y-19178674D01*
X14472301Y-19178674D02*
X14453253Y-19188198D01*
X14453253Y-19188198D02*
X14443729Y-19197722D01*
X14443729Y-19197722D02*
X14434206Y-19216770D01*
X14786587Y-19302484D02*
X14786587Y-19102484D01*
X14872301Y-19302484D02*
X14872301Y-19197722D01*
X14872301Y-19197722D02*
X14862777Y-19178674D01*
X14862777Y-19178674D02*
X14843730Y-19169150D01*
X14843730Y-19169150D02*
X14815158Y-19169150D01*
X14815158Y-19169150D02*
X14796110Y-19178674D01*
X14796110Y-19178674D02*
X14786587Y-19188198D01*
X14996110Y-19302484D02*
X14977063Y-19292960D01*
X14977063Y-19292960D02*
X14967539Y-19283436D01*
X14967539Y-19283436D02*
X14958015Y-19264389D01*
X14958015Y-19264389D02*
X14958015Y-19207246D01*
X14958015Y-19207246D02*
X14967539Y-19188198D01*
X14967539Y-19188198D02*
X14977063Y-19178674D01*
X14977063Y-19178674D02*
X14996110Y-19169150D01*
X14996110Y-19169150D02*
X15024682Y-19169150D01*
X15024682Y-19169150D02*
X15043730Y-19178674D01*
X15043730Y-19178674D02*
X15053253Y-19188198D01*
X15053253Y-19188198D02*
X15062777Y-19207246D01*
X15062777Y-19207246D02*
X15062777Y-19264389D01*
X15062777Y-19264389D02*
X15053253Y-19283436D01*
X15053253Y-19283436D02*
X15043730Y-19292960D01*
X15043730Y-19292960D02*
X15024682Y-19302484D01*
X15024682Y-19302484D02*
X14996110Y-19302484D01*
X15177063Y-19302484D02*
X15158015Y-19292960D01*
X15158015Y-19292960D02*
X15148491Y-19273912D01*
X15148491Y-19273912D02*
X15148491Y-19102484D01*
X15329444Y-19292960D02*
X15310396Y-19302484D01*
X15310396Y-19302484D02*
X15272301Y-19302484D01*
X15272301Y-19302484D02*
X15253253Y-19292960D01*
X15253253Y-19292960D02*
X15243730Y-19273912D01*
X15243730Y-19273912D02*
X15243730Y-19197722D01*
X15243730Y-19197722D02*
X15253253Y-19178674D01*
X15253253Y-19178674D02*
X15272301Y-19169150D01*
X15272301Y-19169150D02*
X15310396Y-19169150D01*
X15310396Y-19169150D02*
X15329444Y-19178674D01*
X15329444Y-19178674D02*
X15338968Y-19197722D01*
X15338968Y-19197722D02*
X15338968Y-19216770D01*
X15338968Y-19216770D02*
X15243730Y-19235817D01*
X15415158Y-19292960D02*
X15434206Y-19302484D01*
X15434206Y-19302484D02*
X15472301Y-19302484D01*
X15472301Y-19302484D02*
X15491349Y-19292960D01*
X15491349Y-19292960D02*
X15500872Y-19273912D01*
X15500872Y-19273912D02*
X15500872Y-19264389D01*
X15500872Y-19264389D02*
X15491349Y-19245341D01*
X15491349Y-19245341D02*
X15472301Y-19235817D01*
X15472301Y-19235817D02*
X15443730Y-19235817D01*
X15443730Y-19235817D02*
X15424682Y-19226293D01*
X15424682Y-19226293D02*
X15415158Y-19207246D01*
X15415158Y-19207246D02*
X15415158Y-19197722D01*
X15415158Y-19197722D02*
X15424682Y-19178674D01*
X15424682Y-19178674D02*
X15443730Y-19169150D01*
X15443730Y-19169150D02*
X15472301Y-19169150D01*
X15472301Y-19169150D02*
X15491349Y-19178674D01*
X15567539Y-19378674D02*
X15577063Y-19369150D01*
X15577063Y-19369150D02*
X15596111Y-19340579D01*
X15596111Y-19340579D02*
X15605634Y-19321531D01*
X15605634Y-19321531D02*
X15615158Y-19292960D01*
X15615158Y-19292960D02*
X15624682Y-19245341D01*
X15624682Y-19245341D02*
X15624682Y-19207246D01*
X15624682Y-19207246D02*
X15615158Y-19159627D01*
X15615158Y-19159627D02*
X15605634Y-19131055D01*
X15605634Y-19131055D02*
X15596111Y-19112008D01*
X15596111Y-19112008D02*
X15577063Y-19083436D01*
X15577063Y-19083436D02*
X15567539Y-19073912D01*
M02*
