<?xml version="1.0" encoding="UTF-8"?>
<!-- Generated by SVGo -->
<svg width="411.001mm" height="163.009mm" viewBox="0.000 0.000 411.001 163.009" xmlns="http://www.w3.org/2000/svg" xmlns:xlink="http://www.w3.org/1999/xlink">
<polygon points="406.001,158.009 5.000,158.009 5.000,5.000 406.001,5.000" style="fill:none;stroke-width:0.050000mm;stroke:black"/>
<polygon points="157.495,137.558 169.620,144.558 176.620,132.434 164.495,125.434" style="fill:none;stroke-width:0.050000mm;stroke:black"/>
<polygon points="236.590,131.158 243.590,143.282 255.714,136.282 248.714,124.158" style="fill:none;stroke-width:0.050000mm;stroke:black"/>
<polygon points="140.998,128.032 153.122,135.033 160.122,122.909 147.998,115.909" style="fill:none;stroke-width:0.050000mm;stroke:black"/>
<polygon points="253.087,121.633 260.087,133.757 272.212,126.757 265.212,114.633" style="fill:none;stroke-width:0.050000mm;stroke:black"/>
<polygon points="167.020,121.061 179.145,128.061 186.145,115.936 174.020,108.936" style="fill:none;stroke-width:0.050000mm;stroke:black"/>
<polygon points="227.065,114.660 234.065,126.784 246.189,119.784 239.189,107.660" style="fill:none;stroke-width:0.050000mm;stroke:black"/>
<polygon points="150.523,111.536 162.647,118.536 169.647,106.411 157.523,99.411" style="fill:none;stroke-width:0.050000mm;stroke:black"/>
<polygon points="243.562,105.135 250.562,117.259 262.687,110.259 255.687,98.135" style="fill:none;stroke-width:0.050000mm;stroke:black"/>
<polygon points="17.525,103.250 17.525,117.250 31.525,117.250 31.525,103.250" style="fill:none;stroke-width:0.050000mm;stroke:black"/>
<polygon points="379.474,103.250 379.474,117.250 393.474,117.250 393.474,103.250" style="fill:none;stroke-width:0.050000mm;stroke:black"/>
<polygon points="36.574,98.487 36.574,112.487 50.574,112.487 50.574,98.487" style="fill:none;stroke-width:0.050000mm;stroke:black"/>
<polygon points="93.725,98.487 93.725,112.487 107.725,112.487 107.725,98.487" style="fill:none;stroke-width:0.050000mm;stroke:black"/>
<polygon points="303.275,98.487 303.275,112.487 317.275,112.487 317.275,98.487" style="fill:none;stroke-width:0.050000mm;stroke:black"/>
<polygon points="360.424,98.487 360.424,112.487 374.424,112.487 374.424,98.487" style="fill:none;stroke-width:0.050000mm;stroke:black"/>
<polygon points="176.545,104.563 188.670,111.563 195.670,99.438 183.545,92.438" style="fill:none;stroke-width:0.050000mm;stroke:black"/>
<polygon points="217.540,98.162 224.540,110.287 236.664,103.287 229.664,91.162" style="fill:none;stroke-width:0.050000mm;stroke:black"/>
<polygon points="55.625,93.725 55.625,107.725 69.625,107.725 69.625,93.725" style="fill:none;stroke-width:0.050000mm;stroke:black"/>
<polygon points="74.675,93.725 74.675,107.725 88.675,107.725 88.675,93.725" style="fill:none;stroke-width:0.050000mm;stroke:black"/>
<polygon points="322.325,93.725 322.325,107.725 336.325,107.725 336.325,93.725" style="fill:none;stroke-width:0.050000mm;stroke:black"/>
<polygon points="341.375,93.725 341.375,107.725 355.375,107.725 355.375,93.725" style="fill:none;stroke-width:0.050000mm;stroke:black"/>
<polygon points="160.048,95.038 172.172,102.038 179.172,89.913 167.048,82.913" style="fill:none;stroke-width:0.050000mm;stroke:black"/>
<polygon points="234.037,88.637 241.037,100.762 253.162,93.762 246.162,81.637" style="fill:none;stroke-width:0.050000mm;stroke:black"/>
<polygon points="17.525,84.200 17.525,98.200 31.525,98.200 31.525,84.200" style="fill:none;stroke-width:0.050000mm;stroke:black"/>
<polygon points="112.775,84.200 112.775,98.200 126.775,98.200 126.775,84.200" style="fill:none;stroke-width:0.050000mm;stroke:black"/>
<polygon points="284.225,84.200 284.225,98.200 298.225,98.200 298.225,84.200" style="fill:none;stroke-width:0.050000mm;stroke:black"/>
<polygon points="379.475,84.200 379.475,98.200 393.475,98.200 393.475,84.200" style="fill:none;stroke-width:0.050000mm;stroke:black"/>
<polygon points="36.574,79.437 36.574,93.437 50.574,93.437 50.574,79.437" style="fill:none;stroke-width:0.050000mm;stroke:black"/>
<polygon points="93.725,79.437 93.725,93.437 107.725,93.437 107.725,79.437" style="fill:none;stroke-width:0.050000mm;stroke:black"/>
<polygon points="303.275,79.437 303.275,93.437 317.275,93.437 317.275,79.437" style="fill:none;stroke-width:0.050000mm;stroke:black"/>
<polygon points="360.424,79.437 360.424,93.437 374.424,93.437 374.424,79.437" style="fill:none;stroke-width:0.050000mm;stroke:black"/>
<polygon points="55.625,74.675 55.625,88.675 69.625,88.675 69.625,74.675" style="fill:none;stroke-width:0.050000mm;stroke:black"/>
<polygon points="74.675,74.675 74.675,88.675 88.675,88.675 88.675,74.675" style="fill:none;stroke-width:0.050000mm;stroke:black"/>
<polygon points="322.325,74.675 322.325,88.675 336.325,88.675 336.325,74.675" style="fill:none;stroke-width:0.050000mm;stroke:black"/>
<polygon points="341.375,74.675 341.375,88.675 355.375,88.675 355.375,74.675" style="fill:none;stroke-width:0.050000mm;stroke:black"/>
<polygon points="17.525,65.149 17.525,79.149 31.525,79.149 31.525,65.149" style="fill:none;stroke-width:0.050000mm;stroke:black"/>
<polygon points="112.775,65.149 112.775,79.149 126.775,79.149 126.775,65.149" style="fill:none;stroke-width:0.050000mm;stroke:black"/>
<polygon points="284.225,65.149 284.225,79.149 298.225,79.149 298.225,65.149" style="fill:none;stroke-width:0.050000mm;stroke:black"/>
<polygon points="379.475,65.149 379.475,79.149 393.475,79.149 393.475,65.149" style="fill:none;stroke-width:0.050000mm;stroke:black"/>
<polygon points="36.574,60.387 36.574,74.387 50.574,74.387 50.574,60.387" style="fill:none;stroke-width:0.050000mm;stroke:black"/>
<polygon points="93.725,60.387 93.725,74.387 107.725,74.387 107.725,60.387" style="fill:none;stroke-width:0.050000mm;stroke:black"/>
<polygon points="303.275,60.387 303.275,74.387 317.275,74.387 317.275,60.387" style="fill:none;stroke-width:0.050000mm;stroke:black"/>
<polygon points="360.424,60.387 360.424,74.387 374.424,74.387 374.424,60.387" style="fill:none;stroke-width:0.050000mm;stroke:black"/>
<polygon points="55.625,55.624 55.625,69.625 69.625,69.625 69.625,55.624" style="fill:none;stroke-width:0.050000mm;stroke:black"/>
<polygon points="74.675,55.624 74.675,69.625 88.675,69.625 88.675,55.624" style="fill:none;stroke-width:0.050000mm;stroke:black"/>
<polygon points="322.325,55.624 322.325,69.625 336.325,69.625 336.325,55.624" style="fill:none;stroke-width:0.050000mm;stroke:black"/>
<polygon points="341.375,55.624 341.375,69.625 355.375,69.625 355.375,55.624" style="fill:none;stroke-width:0.050000mm;stroke:black"/>
<polygon points="17.525,46.099 17.525,60.099 31.525,60.099 31.525,46.099" style="fill:none;stroke-width:0.050000mm;stroke:black"/>
<polygon points="112.775,46.099 112.775,60.099 126.775,60.099 126.775,46.099" style="fill:none;stroke-width:0.050000mm;stroke:black"/>
<polygon points="284.225,46.099 284.225,60.099 298.225,60.099 298.225,46.099" style="fill:none;stroke-width:0.050000mm;stroke:black"/>
<polygon points="379.475,46.099 379.475,60.099 393.475,60.099 393.475,46.099" style="fill:none;stroke-width:0.050000mm;stroke:black"/>
<polygon points="36.574,41.337 36.574,55.337 50.574,55.337 50.574,41.337" style="fill:none;stroke-width:0.050000mm;stroke:black"/>
<polygon points="93.725,41.337 93.725,55.337 107.725,55.337 107.725,41.337" style="fill:none;stroke-width:0.050000mm;stroke:black"/>
<polygon points="303.275,41.337 303.275,55.337 317.275,55.337 317.275,41.337" style="fill:none;stroke-width:0.050000mm;stroke:black"/>
<polygon points="360.424,41.337 360.424,55.337 374.424,55.337 374.424,41.337" style="fill:none;stroke-width:0.050000mm;stroke:black"/>
<polygon points="55.625,36.574 55.625,50.574 69.625,50.574 69.625,36.574" style="fill:none;stroke-width:0.050000mm;stroke:black"/>
<polygon points="74.675,36.574 74.675,50.574 88.675,50.574 88.675,36.574" style="fill:none;stroke-width:0.050000mm;stroke:black"/>
<polygon points="322.325,36.574 322.325,50.574 336.325,50.574 336.325,36.574" style="fill:none;stroke-width:0.050000mm;stroke:black"/>
<polygon points="341.375,36.574 341.375,50.574 355.375,50.574 355.375,36.574" style="fill:none;stroke-width:0.050000mm;stroke:black"/>
<polygon points="17.525,27.049 17.525,41.050 31.525,41.050 31.525,27.049" style="fill:none;stroke-width:0.050000mm;stroke:black"/>
<polygon points="112.775,27.049 112.775,41.050 126.775,41.050 126.775,27.049" style="fill:none;stroke-width:0.050000mm;stroke:black"/>
<polygon points="284.225,27.049 284.225,41.050 298.225,41.050 298.225,27.049" style="fill:none;stroke-width:0.050000mm;stroke:black"/>
<polygon points="379.475,27.049 379.475,41.050 393.475,41.050 393.475,27.049" style="fill:none;stroke-width:0.050000mm;stroke:black"/>
<polygon points="36.574,22.287 36.574,36.287 50.574,36.287 50.574,22.287" style="fill:none;stroke-width:0.050000mm;stroke:black"/>
<polygon points="93.725,22.287 93.725,36.287 107.725,36.287 107.725,22.287" style="fill:none;stroke-width:0.050000mm;stroke:black"/>
<polygon points="303.275,22.287 303.275,36.287 317.275,36.287 317.275,22.287" style="fill:none;stroke-width:0.050000mm;stroke:black"/>
<polygon points="360.424,22.287 360.424,36.287 374.424,36.287 374.424,22.287" style="fill:none;stroke-width:0.050000mm;stroke:black"/>
<polygon points="55.625,17.525 55.625,31.525 69.625,31.525 69.625,17.525" style="fill:none;stroke-width:0.050000mm;stroke:black"/>
<polygon points="74.675,17.525 74.675,31.525 88.675,31.525 88.675,17.525" style="fill:none;stroke-width:0.050000mm;stroke:black"/>
<polygon points="322.325,17.525 322.325,31.525 336.325,31.525 336.325,17.525" style="fill:none;stroke-width:0.050000mm;stroke:black"/>
<polygon points="341.375,17.525 341.375,31.525 355.375,31.525 355.375,17.525" style="fill:none;stroke-width:0.050000mm;stroke:black"/>
</svg>