%TF.GenerationSoftware,KiCad,Pcbnew,7.0.8*%
%TF.CreationDate,2023-10-31T17:03:34+08:00*%
%TF.ProjectId,MacroKeypad,4d616372-6f4b-4657-9970-61642e6b6963,rev?*%
%TF.SameCoordinates,Original*%
%TF.FileFunction,Soldermask,Top*%
%TF.FilePolarity,Negative*%
%FSLAX46Y46*%
G04 Gerber Fmt 4.6, Leading zero omitted, Abs format (unit mm)*
G04 Created by KiCad (PCBNEW 7.0.8) date 2023-10-31 17:03:34*
%MOMM*%
%LPD*%
G01*
G04 APERTURE LIST*
G04 Aperture macros list*
%AMRoundRect*
0 Rectangle with rounded corners*
0 $1 Rounding radius*
0 $2 $3 $4 $5 $6 $7 $8 $9 X,Y pos of 4 corners*
0 Add a 4 corners polygon primitive as box body*
4,1,4,$2,$3,$4,$5,$6,$7,$8,$9,$2,$3,0*
0 Add four circle primitives for the rounded corners*
1,1,$1+$1,$2,$3*
1,1,$1+$1,$4,$5*
1,1,$1+$1,$6,$7*
1,1,$1+$1,$8,$9*
0 Add four rect primitives between the rounded corners*
20,1,$1+$1,$2,$3,$4,$5,0*
20,1,$1+$1,$4,$5,$6,$7,0*
20,1,$1+$1,$6,$7,$8,$9,0*
20,1,$1+$1,$8,$9,$2,$3,0*%
G04 Aperture macros list end*
%ADD10C,1.700000*%
%ADD11C,4.000000*%
%ADD12C,2.200000*%
%ADD13R,1.524000X2.700000*%
%ADD14C,3.600000*%
%ADD15C,5.700000*%
%ADD16C,1.600000*%
%ADD17RoundRect,0.250000X-0.400000X-0.625000X0.400000X-0.625000X0.400000X0.625000X-0.400000X0.625000X0*%
%ADD18O,1.600000X1.600000*%
%ADD19R,1.700000X1.700000*%
%ADD20O,1.700000X1.700000*%
%ADD21O,2.400000X1.600000*%
G04 APERTURE END LIST*
D10*
%TO.C,SW2*%
X90170000Y-53340000D03*
D11*
X95250000Y-53340000D03*
D10*
X100330000Y-53340000D03*
D12*
X97790000Y-48260000D03*
X91440000Y-50800000D03*
D13*
X93725500Y-58694000D03*
X96700500Y-58694000D03*
%TD*%
D14*
%TO.C,REF\u002A\u002A*%
X63063000Y-81989000D03*
D15*
X63063000Y-81989000D03*
%TD*%
D16*
%TO.C,R6*%
X96660000Y-106684000D03*
D17*
X100210000Y-106664000D03*
X103310000Y-106664000D03*
D18*
X106820000Y-106684000D03*
%TD*%
D14*
%TO.C,REF\u002A\u002A*%
X146463000Y-42489000D03*
D15*
X146463000Y-42489000D03*
%TD*%
D10*
%TO.C,SW4*%
X128270000Y-53340000D03*
D11*
X133350000Y-53340000D03*
D10*
X138430000Y-53340000D03*
D12*
X135890000Y-48260000D03*
X129540000Y-50800000D03*
D13*
X131825500Y-58694000D03*
X134800500Y-58694000D03*
%TD*%
D14*
%TO.C,REF\u002A\u002A*%
X146463000Y-133989000D03*
D15*
X146463000Y-133989000D03*
%TD*%
D14*
%TO.C,REF\u002A\u002A*%
X247039000Y-81989000D03*
D15*
X247039000Y-81989000D03*
%TD*%
D14*
%TO.C,REF\u002A\u002A*%
X146463000Y-81989000D03*
D15*
X146463000Y-81989000D03*
%TD*%
D14*
%TO.C,REF\u002A\u002A*%
X63063000Y-133989000D03*
D15*
X63063000Y-133989000D03*
%TD*%
D14*
%TO.C,REF\u002A\u002A*%
X63063000Y-42489000D03*
D15*
X63063000Y-42489000D03*
%TD*%
D16*
%TO.C,R5*%
X96660000Y-110018000D03*
D17*
X100210000Y-109998000D03*
X103310000Y-109998000D03*
D18*
X106820000Y-110018000D03*
%TD*%
D10*
%TO.C,SW1*%
X71120000Y-53340000D03*
D11*
X76200000Y-53340000D03*
D10*
X81280000Y-53340000D03*
D12*
X78740000Y-48260000D03*
X72390000Y-50800000D03*
D13*
X74675500Y-58694000D03*
X77650500Y-58694000D03*
%TD*%
D14*
%TO.C,REF\u002A\u002A*%
X163639000Y-42489000D03*
D15*
X163639000Y-42489000D03*
%TD*%
D10*
%TO.C,SW5*%
X75876000Y-72390000D03*
D11*
X80956000Y-72390000D03*
D10*
X86036000Y-72390000D03*
D12*
X83496000Y-67310000D03*
X77146000Y-69850000D03*
D13*
X79431500Y-77744000D03*
X82406500Y-77744000D03*
%TD*%
D14*
%TO.C,REF\u002A\u002A*%
X247039000Y-42489000D03*
D15*
X247039000Y-42489000D03*
%TD*%
D16*
%TO.C,R7*%
X96660000Y-103438000D03*
D17*
X100210000Y-103418000D03*
X103310000Y-103418000D03*
D18*
X106820000Y-103438000D03*
%TD*%
D10*
%TO.C,SW3*%
X109220000Y-53340000D03*
D11*
X114300000Y-53340000D03*
D10*
X119380000Y-53340000D03*
D12*
X116840000Y-48260000D03*
X110490000Y-50800000D03*
D13*
X112775500Y-58694000D03*
X115750500Y-58694000D03*
%TD*%
D16*
%TO.C,R3*%
X96660000Y-116598000D03*
D17*
X100210000Y-116578000D03*
X103310000Y-116578000D03*
D18*
X106820000Y-116598000D03*
%TD*%
D14*
%TO.C,REF\u002A\u002A*%
X63063000Y-94489000D03*
D15*
X63063000Y-94489000D03*
%TD*%
D19*
%TO.C,J4*%
X146463000Y-105340000D03*
D20*
X146463000Y-107880000D03*
X146463000Y-110420000D03*
X146463000Y-112960000D03*
X146463000Y-115500000D03*
X146463000Y-118040000D03*
X146463000Y-120580000D03*
X146463000Y-123120000D03*
%TD*%
D14*
%TO.C,REF\u002A\u002A*%
X146463000Y-94489000D03*
D15*
X146463000Y-94489000D03*
%TD*%
D19*
%TO.C,J2*%
X63063000Y-105340000D03*
D20*
X63063000Y-107880000D03*
X63063000Y-110420000D03*
X63063000Y-112960000D03*
X63063000Y-115500000D03*
X63063000Y-118040000D03*
X63063000Y-120580000D03*
X63063000Y-123120000D03*
%TD*%
D16*
%TO.C,R1*%
X96660000Y-123178000D03*
D17*
X100210000Y-123158000D03*
X103310000Y-123158000D03*
D18*
X106820000Y-123178000D03*
%TD*%
D10*
%TO.C,SW6*%
X99688000Y-72390000D03*
D11*
X104768000Y-72390000D03*
D10*
X109848000Y-72390000D03*
D12*
X107308000Y-67310000D03*
X100958000Y-69850000D03*
D13*
X103243500Y-77744000D03*
X106218500Y-77744000D03*
%TD*%
D14*
%TO.C,REF\u002A\u002A*%
X163639000Y-81989000D03*
D15*
X163639000Y-81989000D03*
%TD*%
D21*
%TO.C,U1*%
X73443000Y-94811500D03*
X73443000Y-97351500D03*
X73443000Y-99891500D03*
X73443000Y-102431500D03*
X73443000Y-104971500D03*
X73443000Y-107511500D03*
X73443000Y-110051500D03*
X73443000Y-112591500D03*
X73443000Y-115131500D03*
X73443000Y-117671500D03*
X73443000Y-120211500D03*
X73443000Y-122751500D03*
X88683000Y-122751500D03*
X88683000Y-120211500D03*
X88683000Y-117671500D03*
X88683000Y-115131500D03*
X88683000Y-112591500D03*
X88683000Y-110051500D03*
X88683000Y-107511500D03*
X88683000Y-104971500D03*
X88683000Y-102431500D03*
X88683000Y-99891500D03*
X88683000Y-97351500D03*
X88683000Y-94811500D03*
%TD*%
D10*
%TO.C,SW7*%
X123501000Y-72390000D03*
D11*
X128581000Y-72390000D03*
D10*
X133661000Y-72390000D03*
D12*
X131121000Y-67310000D03*
X124771000Y-69850000D03*
D13*
X127056500Y-77744000D03*
X130031500Y-77744000D03*
%TD*%
D16*
%TO.C,R2*%
X96660000Y-119888000D03*
D17*
X100210000Y-119868000D03*
X103310000Y-119868000D03*
D18*
X106820000Y-119888000D03*
%TD*%
D16*
%TO.C,R4*%
X96660000Y-113308000D03*
D17*
X100210000Y-113288000D03*
X103310000Y-113288000D03*
D18*
X106820000Y-113308000D03*
%TD*%
D19*
%TO.C,J3*%
X146463000Y-53340000D03*
D20*
X146463000Y-55880000D03*
X146463000Y-58420000D03*
X146463000Y-60960000D03*
X146463000Y-63500000D03*
X146463000Y-66040000D03*
X146463000Y-68580000D03*
X146463000Y-71120000D03*
%TD*%
D19*
%TO.C,J1*%
X63063000Y-53340000D03*
D20*
X63063000Y-55880000D03*
X63063000Y-58420000D03*
X63063000Y-60960000D03*
X63063000Y-63500000D03*
X63063000Y-66040000D03*
X63063000Y-68580000D03*
X63063000Y-71120000D03*
%TD*%
M02*
