M48
; DRILL file {KiCad 7.0.8} date Tuesday, October 31, 2023 PM05:03:38
; FORMAT={-:-/ absolute / inch / decimal}
; #@! TF.CreationDate,2023-10-31T17:03:38+08:00
; #@! TF.GenerationSoftware,Kicad,Pcbnew,7.0.8
; #@! TF.FileFunction,NonPlated,1,2,NPTH
FMAT,2
INCH
; #@! TA.AperFunction,NonPlated,NPTH,ComponentDrill
T1C0.0669
; #@! TA.AperFunction,NonPlated,NPTH,ComponentDrill
T2C0.1575
%
G90
G05
T1
X2.8Y-2.1
X2.9872Y-2.85
X3.2Y-2.1
X3.3872Y-2.85
X3.55Y-2.1
X3.9247Y-2.85
X3.95Y-2.1
X4.3Y-2.1
X4.3247Y-2.85
X4.7Y-2.1
X4.8622Y-2.85
X5.05Y-2.1
X5.2622Y-2.85
X5.45Y-2.1
T2
X3.0Y-2.1
X3.1872Y-2.85
X3.75Y-2.1
X4.1247Y-2.85
X4.5Y-2.1
X5.0622Y-2.85
X5.25Y-2.1
T0
M30
