%TF.GenerationSoftware,KiCad,Pcbnew,7.0.8*%
%TF.CreationDate,2023-10-31T17:03:34+08:00*%
%TF.ProjectId,MacroKeypad,4d616372-6f4b-4657-9970-61642e6b6963,rev?*%
%TF.SameCoordinates,Original*%
%TF.FileFunction,Profile,NP*%
%FSLAX46Y46*%
G04 Gerber Fmt 4.6, Leading zero omitted, Abs format (unit mm)*
G04 Created by KiCad (PCBNEW 7.0.8) date 2023-10-31 17:03:34*
%MOMM*%
%LPD*%
G01*
G04 APERTURE LIST*
%TA.AperFunction,Profile*%
%ADD10C,0.100000*%
%TD*%
%TA.AperFunction,Profile*%
%ADD11C,0.150000*%
%TD*%
G04 APERTURE END LIST*
D10*
X61595000Y-90989000D02*
G75*
G03*
X59563000Y-93021000I0J-2032000D01*
G01*
X160139000Y-41021000D02*
X160139000Y-83439000D01*
X59563000Y-41021000D02*
X59563000Y-83439000D01*
X147955000Y-137471000D02*
G75*
G03*
X149987000Y-135439000I0J2032000D01*
G01*
X248531000Y-38989000D02*
X162171000Y-38989000D01*
D11*
X226863000Y-46289000D02*
X241013000Y-46289000D01*
X241013000Y-60389000D01*
X226863000Y-60389000D01*
X226863000Y-46289000D01*
D10*
X250563000Y-83439000D02*
X250563000Y-41021000D01*
X149987000Y-93021000D02*
G75*
G03*
X147955000Y-90989000I-2032000J0D01*
G01*
X59563000Y-93021000D02*
X59563000Y-135439000D01*
D11*
X222094000Y-65339000D02*
X236244000Y-65339000D01*
X236244000Y-79439000D01*
X222094000Y-79439000D01*
X222094000Y-65339000D01*
D10*
X250563000Y-41021000D02*
G75*
G03*
X248531000Y-38989000I-2032000J0D01*
G01*
X248531000Y-85471000D02*
G75*
G03*
X250563000Y-83439000I0J2032000D01*
G01*
D11*
X188763000Y-46289000D02*
X202913000Y-46289000D01*
X202913000Y-60389000D01*
X188763000Y-60389000D01*
X188763000Y-46289000D01*
D10*
X61595000Y-85471000D02*
X147955000Y-85471000D01*
X59563000Y-135439000D02*
G75*
G03*
X61595000Y-137471000I2032000J0D01*
G01*
D11*
X169713000Y-46289000D02*
X183863000Y-46289000D01*
X183863000Y-60389000D01*
X169713000Y-60389000D01*
X169713000Y-46289000D01*
D10*
X61595000Y-137471000D02*
X147955000Y-137471000D01*
X162171000Y-85471000D02*
X248531000Y-85471000D01*
X147955000Y-85471000D02*
G75*
G03*
X149987000Y-83439000I0J2032000D01*
G01*
X149987000Y-83439000D02*
X149987000Y-41021000D01*
X61595000Y-38989000D02*
G75*
G03*
X59563000Y-41021000I0J-2032000D01*
G01*
X149987000Y-41021000D02*
G75*
G03*
X147955000Y-38989000I-2032000J0D01*
G01*
D11*
X207813000Y-46289000D02*
X221963000Y-46289000D01*
X221963000Y-60389000D01*
X207813000Y-60389000D01*
X207813000Y-46289000D01*
D10*
X147955000Y-90989000D02*
X61595000Y-90989000D01*
X149987000Y-135439000D02*
X149987000Y-93021000D01*
D11*
X174469000Y-65339000D02*
X188619000Y-65339000D01*
X188619000Y-79439000D01*
X174469000Y-79439000D01*
X174469000Y-65339000D01*
D10*
X147955000Y-38989000D02*
X61595000Y-38989000D01*
X59563000Y-83439000D02*
G75*
G03*
X61595000Y-85471000I2032000J0D01*
G01*
X160139000Y-83439000D02*
G75*
G03*
X162171000Y-85471000I2032000J0D01*
G01*
X162171000Y-38989000D02*
G75*
G03*
X160139000Y-41021000I0J-2032000D01*
G01*
D11*
X198281000Y-65339000D02*
X212431000Y-65339000D01*
X212431000Y-79439000D01*
X198281000Y-79439000D01*
X198281000Y-65339000D01*
M02*
