M48
; DRILL file {KiCad 7.0.8} date Tuesday, October 31, 2023 PM05:03:38
; FORMAT={-:-/ absolute / inch / decimal}
; #@! TF.CreationDate,2023-10-31T17:03:38+08:00
; #@! TF.GenerationSoftware,Kicad,Pcbnew,7.0.8
; #@! TF.FileFunction,Plated,1,2,PTH
FMAT,2
INCH
; #@! TA.AperFunction,Plated,PTH,ComponentDrill
T1C0.0300
; #@! TA.AperFunction,Plated,PTH,ComponentDrill
T2C0.0315
; #@! TA.AperFunction,Plated,PTH,ComponentDrill
T3C0.0394
; #@! TA.AperFunction,Plated,PTH,ComponentDrill
T4C0.0591
; #@! TA.AperFunction,Plated,PTH,ComponentDrill
T5C0.1260
%
G90
G05
T1
X2.94Y-2.3108
X3.0571Y-2.3108
X3.1272Y-3.0608
X3.2444Y-3.0608
X3.69Y-2.3108
X3.8071Y-2.3108
X4.0647Y-3.0608
X4.1818Y-3.0608
X4.44Y-2.3108
X4.5571Y-2.3108
X5.0022Y-3.0608
X5.1194Y-3.0608
X5.19Y-2.3108
X5.3071Y-2.3108
T2
X2.8915Y-3.7327
X2.8915Y-3.8327
X2.8915Y-3.9327
X2.8915Y-4.0327
X2.8915Y-4.1327
X2.8915Y-4.2327
X2.8915Y-4.3327
X2.8915Y-4.4327
X2.8915Y-4.5327
X2.8915Y-4.6327
X2.8915Y-4.7327
X2.8915Y-4.8327
X3.4915Y-3.7327
X3.4915Y-3.8327
X3.4915Y-3.9327
X3.4915Y-4.0327
X3.4915Y-4.1327
X3.4915Y-4.2327
X3.4915Y-4.3327
X3.4915Y-4.4327
X3.4915Y-4.5327
X3.4915Y-4.6327
X3.4915Y-4.7327
X3.4915Y-4.8327
X3.8055Y-4.0724
X3.8055Y-4.2002
X3.8055Y-4.3314
X3.8055Y-4.4609
X3.8055Y-4.5905
X3.8055Y-4.72
X3.8055Y-4.8495
X4.2055Y-4.0724
X4.2055Y-4.2002
X4.2055Y-4.3314
X4.2055Y-4.4609
X4.2055Y-4.5905
X4.2055Y-4.72
X4.2055Y-4.8495
T3
X2.4828Y-2.1
X2.4828Y-2.2
X2.4828Y-2.3
X2.4828Y-2.4
X2.4828Y-2.5
X2.4828Y-2.6
X2.4828Y-2.7
X2.4828Y-2.8
X2.4828Y-4.1472
X2.4828Y-4.2472
X2.4828Y-4.3472
X2.4828Y-4.4472
X2.4828Y-4.5472
X2.4828Y-4.6472
X2.4828Y-4.7472
X2.4828Y-4.8472
X5.7663Y-2.1
X5.7663Y-2.2
X5.7663Y-2.3
X5.7663Y-2.4
X5.7663Y-2.5
X5.7663Y-2.6
X5.7663Y-2.7
X5.7663Y-2.8
X5.7663Y-4.1472
X5.7663Y-4.2472
X5.7663Y-4.3472
X5.7663Y-4.4472
X5.7663Y-4.5472
X5.7663Y-4.6472
X5.7663Y-4.7472
X5.7663Y-4.8472
T4
X2.85Y-2.0
X3.0372Y-2.75
X3.1Y-1.9
X3.2872Y-2.65
X3.6Y-2.0
X3.85Y-1.9
X3.9747Y-2.75
X4.2247Y-2.65
X4.35Y-2.0
X4.6Y-1.9
X4.9122Y-2.75
X5.1Y-2.0
X5.1622Y-2.65
X5.35Y-1.9
T5
X2.4828Y-1.6728
X2.4828Y-3.2279
X2.4828Y-3.72
X2.4828Y-5.2752
X5.7663Y-1.6728
X5.7663Y-3.2279
X5.7663Y-3.72
X5.7663Y-5.2752
X6.4425Y-1.6728
X6.4425Y-3.2279
X9.7259Y-1.6728
X9.7259Y-3.2279
T0
M30
