<svg xmlns="http://www.w3.org/2000/svg" version="1.1" viewBox="-5.0 -10.0 110.0 135.0">
 <path d="m81.262 35.621c-0.36328-4.707-4.2461-8.3633-8.9609-8.4414-1.2734-3.7773-4.8164-6.3203-8.8008-6.3203-1.1758 0.007813-2.3438 0.23047-3.4414 0.66016-2.9375-2.0898-6.7969-2.3594-10-0.69922-4.3203-2.418-9.7734-1.0195-12.398 3.1797-0.66016-0.12891-1.3281-0.19922-2-0.19922-3.2969-0.007812-6.3477 1.7461-8 4.5977-4.9062 0.12109-8.8359 4.0977-8.8984 9v0.82031c-3.2773 1.9531-5.2852 5.4883-5.2812 9.3008 0.085937 6.1133 5.1094 11 11.219 10.922 1.1484 0.027344 2.2969-0.12109 3.4023-0.44141v0.23828c0 7.1211 5.0391 8.8594 10.379 10.719 5.3398 1.8594 11 3.8008 15.238 10.738v0.003907c0.27344 0.44922 0.75781 0.71875 1.2812 0.72266 0.27734-0.003906 0.55078-0.085937 0.78125-0.24219 0.67969-0.42188 0.89844-1.3086 0.5-2-4.8008-7.8398-11.461-10.141-16.82-12-5.3594-1.8594-8.3594-3.1016-8.3594-7.8789 0-2.543 1.2383-4.9219 3.3203-6.3789 0.5625-0.51562 0.65234-1.3672 0.20703-1.9883-0.44531-0.61719-1.2852-0.80469-1.9492-0.43359-1.7578 1.2539-3.1094 3-3.8789 5.0195-1.2266 0.67969-2.6016 1.043-4 1.0586-2.1602 0.0625-4.2539-0.75391-5.8008-2.2617-1.5469-1.5078-2.4219-3.5742-2.4219-5.7383 0.011719-3.0625 1.7969-5.8398 4.582-7.1172 0.63281-0.30859 0.97266-1.0117 0.82031-1.6992-0.097657-0.42969-0.14453-0.86328-0.14062-1.3008 0.015625-2.8633 2.0508-5.3164 4.8594-5.8594-0.074219 0.42969-0.12109 0.86328-0.14062 1.2969 0.015625 1.3945 0.35938 2.7656 1 4 0.84375 2.5508-0.30469 5.332-2.6992 6.543-0.63672 0.29297-0.98047 0.99219-0.83203 1.6758 0.14844 0.6875 0.75 1.1758 1.4531 1.1836 0.22266 0.003907 0.44141-0.042969 0.64062-0.14062 2.3516-1.1211 4.0234-3.3008 4.5-5.8594 0.23828 0.15234 0.51562 0.23828 0.80078 0.23828 0.49609-0.003906 0.95703-0.25 1.2383-0.66016 0.41797-0.67188 0.23047-1.5508-0.42188-2-1.6602-1.1016-2.6641-2.9609-2.6797-4.957-0.023438-0.82422 0.125-1.6406 0.44141-2.4023 1.0078-2.2617 3.2617-3.7148 5.7383-3.6992 0.76953-0.003906 1.5352 0.125 2.2617 0.37891 0.75 0.27734 1.5859-0.082031 1.8984-0.82031 1.2891-2.9023 4.5469-4.3828 7.582-3.4375-1.1914 1.3633-1.9297 3.0586-2.1211 4.8594-0.035156 0.79297 0.55859 1.4766 1.3477 1.5547 0.79297 0.082031 1.5078-0.46875 1.6328-1.2539 0.19531-1.7578 1.1523-3.3359 2.6211-4.3203 2.4805-1.6719 5.7852-1.4336 8 0.57812 0.46875 0.44141 1.168 0.53906 1.7383 0.24219 0.91797-0.48828 1.9414-0.74219 2.9805-0.74219 3.0273-0.027344 5.6328 2.1367 6.1602 5.1211 0.13281 0.79297 0.85938 1.3438 1.6602 1.2578 0.25391-0.019531 0.50781-0.019531 0.76172 0 2.8047-0.003906 5.2656 1.875 6 4.582-2.0508-0.18359-4.1094 0.30078-5.8633 1.3789-0.69922 0.44141-0.91016 1.3711-0.46875 2.0703 0.44141 0.70312 1.3672 0.91406 2.0703 0.46875 1.5898-1 3.5352-1.2695 5.3398-0.73828 2.4688 0.79688 4.1484 3.0859 4.1602 5.6797 0 0.96484-0.23828 1.9141-0.69922 2.7617-0.21875 0.44531-0.21875 0.96875 0 1.418 0.46094 0.84766 0.69922 1.7969 0.69922 2.7617-0.023438 2.0586-1.1055 3.9609-2.8594 5.0391-0.14062-1.25-0.42578-2.4805-0.85938-3.6602-0.14453-0.38672-0.4375-0.69922-0.81641-0.85938-0.37891-0.16406-0.80469-0.16406-1.1836 0-0.39453 0.13281-0.71484 0.42578-0.88281 0.80469-0.16797 0.38281-0.16797 0.81641 0 1.1953 0.51953 1.3594 0.78125 2.8047 0.78125 4.2578-0.13281 6.9609-5.8594 12.512-12.82 12.422-1.8984 0.007813-3.7773-0.40234-5.5-1.1992-0.66016-0.31641-1.4492-0.10547-1.8711 0.49219-0.42188 0.59766-0.34766 1.4102 0.17188 1.9258 1.9453 2.4609 3.3594 5.3008 4.1406 8.3398 0.21094 0.60547 0.77734 1.0156 1.418 1.0195 0.48438-0.015626 0.92969-0.25391 1.207-0.64453 0.27734-0.39453 0.35938-0.89453 0.21484-1.3555-0.64062-1.9727-1.4102-3.9023-2.3008-5.7773 0.83203 0.13672 1.6758 0.20312 2.5195 0.19922 3.8516 0.039063 7.582-1.3398 10.48-3.875 2.8984-2.5312 4.7656-6.043 5.2383-9.8672 2.293-0.83594 4.1445-2.5742 5.1172-4.8125 0.97656-2.2383 0.99219-4.7773 0.042969-7.0273 0.46484-1.0938 0.70312-2.2695 0.70312-3.457 0.003906-3.4961-2.0156-6.6797-5.1797-8.1602z"/>
 <path d="m36.559 43.141h-0.32031c-0.82812 0.03125-1.4805 0.72656-1.457 1.5586-0.003906 0.40625 0.16406 0.78906 0.46094 1.0625 0.29687 0.27344 0.69531 0.41016 1.0977 0.37891 3.0469-0.14844 5.6484 2.1758 5.8398 5.2188 0.042968 0.80078 0.69922 1.4297 1.5 1.4414 0.39844-0.011719 0.77734-0.18359 1.0508-0.47656 0.26953-0.29297 0.41016-0.68359 0.39062-1.0859-0.11328-2.375-1.2344-4.5938-3.082-6.0977 0.16406-1.1445 0.70313-2.2031 1.5391-3 0.58594-0.58594 0.58594-1.5352 0-2.1211-0.58203-0.58594-1.5312-0.58594-2.1172 0-1.0234 1.0156-1.7656 2.2734-2.1602 3.6602-0.87891-0.32422-1.8047-0.50391-2.7422-0.53906z"/>
 <path d="m69.102 41.219c-1.543 0.023438-2.8164-1.1953-2.8633-2.7383 0-0.82812-0.66797-1.5-1.5-1.5-0.82812 0-1.5 0.67188-1.5 1.5 0.011719 1.2812 0.45703 2.5234 1.2617 3.5195-0.39062 1.1133-1.4414 1.8594-2.6211 1.8594-0.82812 0-1.5 0.67188-1.5 1.5s0.67188 1.5 1.5 1.5c2.1406 0.019531 4.1172-1.1406 5.1406-3.0195 0.64062 0.24609 1.3164 0.38281 2 0.39844 0.82812 0 1.5-0.66797 1.5-1.5 0-0.82812-0.67188-1.5-1.5-1.5z"/>
 <path d="m64.781 30.48c0.51562-0.64062 0.4375-1.5742-0.17969-2.1211-0.30469-0.25781-0.69922-0.38281-1.0977-0.35156-0.39844 0.035157-0.76562 0.22656-1.0234 0.53125-1.3984 1.6914-3.8945 1.9414-5.6016 0.5625-0.64062-0.55469-1.6055-0.48047-2.1602 0.16016-0.55078 0.64062-0.48047 1.6055 0.16016 2.1602 1.2305 1.0234 2.7812 1.5859 4.3828 1.5781 2.1211 0.023438 4.1445-0.90234 5.5195-2.5195z"/>
 <path d="m47.66 63.859c0.92578 0.003906 1.8398-0.21484 2.6602-0.64062 0.375-0.16406 0.66797-0.47656 0.80859-0.86328 0.13672-0.38672 0.11328-0.8125-0.070312-1.1797-0.18359-0.36719-0.51172-0.64453-0.90234-0.76172-0.39453-0.12109-0.82031-0.074218-1.1758 0.125-0.65625 0.35547-1.4297 0.42969-2.1406 0.21094-0.71484-0.21875-1.3125-0.71094-1.6602-1.3711-0.375-0.73828-1.2812-1.0352-2.0195-0.66016-0.73828 0.375-1.0352 1.2812-0.66016 2.0195 1 1.9258 2.9922 3.1328 5.1602 3.1211z"/>
 <path d="m72.699 51.078c0.60156-0.003906 1.1445-0.36719 1.3789-0.91797 0.28516-0.6875 0.83203-1.2344 1.5156-1.5195 0.6875-0.28516 1.4609-0.28516 2.1445 0 0.37109 0.16406 0.79297 0.17188 1.1719 0.023437 0.375-0.15234 0.67578-0.44922 0.82812-0.82422 0.16016-0.37109 0.16797-0.78906 0.015625-1.168-0.14844-0.375-0.44141-0.67188-0.8125-0.83203-2.957-1.207-6.332 0.18359-7.582 3.1211-0.16797 0.36719-0.17578 0.78516-0.03125 1.1641 0.14844 0.375 0.44141 0.67578 0.8125 0.83594 0.17578 0.074218 0.36719 0.11328 0.55859 0.11719z"/>
 <path d="m46.801 36.762c0.56641 0.003906 1.1328-0.070313 1.6797-0.22266 0.80078-0.21484 1.2734-1.0391 1.0586-1.8398-0.21484-0.80078-1.0391-1.2734-1.8398-1.0586-1.8516 0.50781-3.7695-0.54688-4.3398-2.3789-0.10547-0.38672-0.36328-0.71094-0.71484-0.89844-0.35156-0.19141-0.76562-0.22656-1.1445-0.10156-0.38281 0.10938-0.70312 0.36719-0.89062 0.71875-0.1875 0.34766-0.22656 0.76172-0.10938 1.1406 0.85938 2.7578 3.4102 4.6367 6.3008 4.6406z"/>
 <path d="m54.34 43.059c-0.32422-0.23047-0.73047-0.32422-1.125-0.25781-0.39453 0.070313-0.74609 0.29297-0.97656 0.62109-1.6484 2.3555-1.1484 5.5938 1.1406 7.3398 0.26172 0.1875 0.57812 0.28516 0.90234 0.27734 0.47266 0.007813 0.91797-0.21484 1.1992-0.59766 0.42969-0.64453 0.30078-1.5117-0.30078-2-1.0078-0.75-1.2227-2.168-0.48047-3.1797 0.26562-0.33203 0.37891-0.76172 0.30859-1.1836-0.066406-0.41797-0.30859-0.78906-0.66797-1.0195z"/>
 <path d="m62.141 64.84c0.82422-0.023438 1.4805-0.69531 1.4805-1.5195-0.03125-1.332 0.48047-2.6172 1.418-3.5586 0.96094-0.94141 2.2539-1.4688 3.6016-1.4609h0.10156-0.003907c0.83203 0 1.5-0.67188 1.5-1.5s-0.66797-1.5-1.5-1.5h-0.10156 0.003906c-1.9258 0.015625-3.7773 0.72656-5.2188 2-1.1562-0.38672-1.9492-1.4453-2-2.6602-0.011719-0.82031-0.67969-1.4805-1.5-1.4805-0.40234 0-0.78516 0.16016-1.0625 0.44922-0.27734 0.28516-0.42969 0.67188-0.41797 1.0703 0.058594 2.1211 1.2383 4.0547 3.0977 5.082-0.57422 1.1328-0.86719 2.3867-0.85937 3.6602 0.042968 0.78125 0.67578 1.3984 1.4609 1.418z"/>
<text x="0.0" y="117.5" font-size="5.0" font-weight="bold" font-family="Arbeit Regular, Helvetica, Arial-Unicode, Arial, Sans-serif" fill="#000000">Created by ridhobadal</text><text x="0.0" y="122.5" font-size="5.0" font-weight="bold" font-family="Arbeit Regular, Helvetica, Arial-Unicode, Arial, Sans-serif" fill="#000000">from Noun Project</text></svg>