<svg xmlns="http://www.w3.org/2000/svg" version="1.1" viewBox="-5.0 -10.0 110.0 135.0">
 <path d="m65 23c-1.3125 0-2.4062 0.85938-2.8125 2.0312 2.0703 0 3.7539 0.066406 5.6875 0.1875-0.67578-1.5352-1.7148-2.1875-2.875-2.2188zm-2 3c-18.711 0.17578-29.027 11.102-33 29.086 18.23 0.62109 35.414 7.0312 49.031 6.875 1.8164-11.391-1.8398-26.215-14.031-34.961-9.3555 4.8516-13 12-15.031 19.246-0.085938 0.54297-0.6875 0.94531-1.2227 0.81641s-0.88672-0.76172-0.71484-1.2852c2.9688-10.777 9.8945-16.508 14.969-19.777zm4 0c12.219 9.2617 15.91 24.117 14.031 35.93 4.2656-0.40234 8.6367-1.3438 12.969-2.0938 0.046875-22.723-10.566-33.023-27-33.836zm-37.938 29.367c-8.9844 3.3906-16.859 5.9062-23.062 12.621 17.301-8.8555 41.152 12.641 56.594 8.4648 8.2031-2.2188 13.969-8.2617 18.594-13.527-14.324 0.96875-32.266-6.1992-51.219-6.8438-0.41016-0.023437-0.79297-0.32422-0.90625-0.71875zm-21.75 13.121c3.418 0.86719 9.4922-0.16797 14.594-0.9375-5.0781-1.293-10.262-1.2344-14.594 0.9375z"/>
<text x="0.0" y="117.5" font-size="5.0" font-weight="bold" font-family="Arbeit Regular, Helvetica, Arial-Unicode, Arial, Sans-serif" fill="#000000">Created by arif fajar yulianto</text><text x="0.0" y="122.5" font-size="5.0" font-weight="bold" font-family="Arbeit Regular, Helvetica, Arial-Unicode, Arial, Sans-serif" fill="#000000">from Noun Project</text></svg>