%TF.GenerationSoftware,KiCad,Pcbnew,8.99.0-3402-gadd58faa30*%
%TF.CreationDate,2025-02-18T01:25:43+05:30*%
%TF.ProjectId,xmas_tree,786d6173-5f74-4726-9565-2e6b69636164,rev?*%
%TF.SameCoordinates,Original*%
%TF.FileFunction,Legend,Bot*%
%TF.FilePolarity,Positive*%
%FSLAX46Y46*%
G04 Gerber Fmt 4.6, Leading zero omitted, Abs format (unit mm)*
G04 Created by KiCad (PCBNEW 8.99.0-3402-gadd58faa30) date 2025-02-18 01:25:43*
%MOMM*%
%LPD*%
G01*
G04 APERTURE LIST*
G04 Aperture macros list*
%AMRoundRect*
0 Rectangle with rounded corners*
0 $1 Rounding radius*
0 $2 $3 $4 $5 $6 $7 $8 $9 X,Y pos of 4 corners*
0 Add a 4 corners polygon primitive as box body*
4,1,4,$2,$3,$4,$5,$6,$7,$8,$9,$2,$3,0*
0 Add four circle primitives for the rounded corners*
1,1,$1+$1,$2,$3*
1,1,$1+$1,$4,$5*
1,1,$1+$1,$6,$7*
1,1,$1+$1,$8,$9*
0 Add four rect primitives between the rounded corners*
20,1,$1+$1,$2,$3,$4,$5,0*
20,1,$1+$1,$4,$5,$6,$7,0*
20,1,$1+$1,$6,$7,$8,$9,0*
20,1,$1+$1,$8,$9,$2,$3,0*%
%AMOutline5P*
0 Free polygon, 5 corners , with rotation*
0 The origin of the aperture is its center*
0 number of corners: always 5*
0 $1 to $10 corner X, Y*
0 $11 Rotation angle, in degrees counterclockwise*
0 create outline with 5 corners*
4,1,5,$1,$2,$3,$4,$5,$6,$7,$8,$9,$10,$1,$2,$11*%
%AMOutline6P*
0 Free polygon, 6 corners , with rotation*
0 The origin of the aperture is its center*
0 number of corners: always 6*
0 $1 to $12 corner X, Y*
0 $13 Rotation angle, in degrees counterclockwise*
0 create outline with 6 corners*
4,1,6,$1,$2,$3,$4,$5,$6,$7,$8,$9,$10,$11,$12,$1,$2,$13*%
%AMOutline7P*
0 Free polygon, 7 corners , with rotation*
0 The origin of the aperture is its center*
0 number of corners: always 7*
0 $1 to $14 corner X, Y*
0 $15 Rotation angle, in degrees counterclockwise*
0 create outline with 7 corners*
4,1,7,$1,$2,$3,$4,$5,$6,$7,$8,$9,$10,$11,$12,$13,$14,$1,$2,$15*%
%AMOutline8P*
0 Free polygon, 8 corners , with rotation*
0 The origin of the aperture is its center*
0 number of corners: always 8*
0 $1 to $16 corner X, Y*
0 $17 Rotation angle, in degrees counterclockwise*
0 create outline with 8 corners*
4,1,8,$1,$2,$3,$4,$5,$6,$7,$8,$9,$10,$11,$12,$13,$14,$15,$16,$1,$2,$17*%
%AMFreePoly0*
4,1,17,0.393636,0.899521,0.899521,0.393636,0.914400,0.357715,0.914400,-0.357715,0.899521,-0.393636,0.393636,-0.899521,0.357715,-0.914400,-0.357715,-0.914400,-0.393636,-0.899521,-0.899521,-0.393636,-0.914400,-0.357715,-0.914400,0.357715,-0.899521,0.393636,-0.393636,0.899521,-0.357715,0.914400,0.357715,0.914400,0.393636,0.899521,0.393636,0.899521,$1*%
%AMFreePoly1*
4,1,17,0.425199,0.975721,0.975721,0.425199,0.990600,0.389278,0.990600,-0.389278,0.975721,-0.425199,0.425199,-0.975721,0.389278,-0.990600,-0.389278,-0.990600,-0.425199,-0.975721,-0.975721,-0.425199,-0.990600,-0.389278,-0.990600,0.389278,-0.975721,0.425199,-0.425199,0.975721,-0.389278,0.990600,0.389278,0.990600,0.425199,0.975721,0.425199,0.975721,$1*%
G04 Aperture macros list end*
%ADD10C,0.100000*%
%ADD11C,0.150000*%
%ADD12C,0.300000*%
%ADD13C,0.400000*%
%ADD14C,0.127000*%
%TA.AperFunction,ComponentPad*%
%ADD15C,1.879600*%
%TD*%
%TA.AperFunction,ComponentPad*%
%ADD16Outline8P,-0.863600X0.357715X-0.357715X0.863600X0.357715X0.863600X0.863600X0.357715X0.863600X-0.357715X0.357715X-0.863600X-0.357715X-0.863600X-0.863600X-0.357715X90.000000*%
%TD*%
%TA.AperFunction,ComponentPad*%
%ADD17Outline8P,-0.939800X0.389278X-0.389278X0.939800X0.389278X0.939800X0.939800X0.389278X0.939800X-0.389278X0.389278X-0.939800X-0.389278X-0.939800X-0.939800X-0.389278X270.000000*%
%TD*%
%TA.AperFunction,ComponentPad*%
%ADD18O,3.048000X1.524000*%
%TD*%
%TA.AperFunction,ComponentPad*%
%ADD19C,2.032000*%
%TD*%
%TA.AperFunction,ViaPad*%
%ADD20C,0.600000*%
%TD*%
%TA.AperFunction,Conductor*%
%ADD21C,0.200000*%
%TD*%
%ADD22C,1.879600*%
%ADD23Outline8P,-0.863600X0.357715X-0.357715X0.863600X0.357715X0.863600X0.863600X0.357715X0.863600X-0.357715X0.357715X-0.863600X-0.357715X-0.863600X-0.863600X-0.357715X90.000000*%
%ADD24Outline8P,-0.939800X0.389278X-0.389278X0.939800X0.389278X0.939800X0.939800X0.389278X0.939800X-0.389278X0.389278X-0.939800X-0.389278X-0.939800X-0.939800X-0.389278X270.000000*%
%ADD25O,3.048000X1.524000*%
%ADD26C,2.032000*%
%TA.AperFunction,SMDPad,CuDef*%
%ADD27R,1.600000X1.800000*%
%TD*%
%ADD28C,0.406400*%
%ADD29C,1.981200*%
%ADD30FreePoly0,90.000000*%
%ADD31RoundRect,0.050800X-0.800000X-0.900000X0.800000X-0.900000X0.800000X0.900000X-0.800000X0.900000X0*%
%ADD32FreePoly1,270.000000*%
%ADD33O,3.149600X1.625600*%
%ADD34RoundRect,0.050800X0.800000X0.900000X-0.800000X0.900000X-0.800000X-0.900000X0.800000X-0.900000X0*%
%ADD35C,2.133600*%
%ADD36R,1.600000X1.800000*%
%ADD37C,0.114300*%
%ADD38C,0.036576*%
%ADD39C,0.029911*%
%ADD40C,0.203200*%
%ADD41C,0.254000*%
%ADD42C,0.000000*%
%ADD43C,0.050800*%
%ADD44C,0.101600*%
%TA.AperFunction,Profile*%
%ADD45C,0.406400*%
%TD*%
G04 APERTURE END LIST*
D10*
D11*
X177002200Y-166007200D02*
X285002200Y-166007200D01*
X285002200Y-198007200D01*
X177002200Y-198007200D01*
X177002200Y-166007200D01*
D10*
D11*
X10000000Y-10000000D02*
X287002200Y-10000000D01*
X287002200Y-200007200D01*
X10000000Y-200007200D01*
X10000000Y-10000000D01*
D10*
D11*
X12000000Y-12000000D02*
X285002200Y-12000000D01*
X285002200Y-198007200D01*
X12000000Y-198007200D01*
X12000000Y-12000000D01*
D10*
D11*
X60000000Y-12000000D02*
X60000000Y-10000000D01*
D10*
D11*
X110000000Y-12000000D02*
X110000000Y-10000000D01*
D10*
D11*
X160000000Y-12000000D02*
X160000000Y-10000000D01*
D10*
D11*
X210000000Y-12000000D02*
X210000000Y-10000000D01*
D10*
D11*
X260000000Y-12000000D02*
X260000000Y-10000000D01*
D10*
D11*
X36089160Y-11593604D02*
X35346303Y-11593604D01*
X35717731Y-11593604D02*
X35717731Y-10293604D01*
X35717731Y-10293604D02*
X35593922Y-10479319D01*
X35593922Y-10479319D02*
X35470112Y-10603128D01*
X35470112Y-10603128D02*
X35346303Y-10665033D01*
D10*
D11*
X85346303Y-10417414D02*
X85408207Y-10355509D01*
X85408207Y-10355509D02*
X85532017Y-10293604D01*
X85532017Y-10293604D02*
X85841541Y-10293604D01*
X85841541Y-10293604D02*
X85965350Y-10355509D01*
X85965350Y-10355509D02*
X86027255Y-10417414D01*
X86027255Y-10417414D02*
X86089160Y-10541223D01*
X86089160Y-10541223D02*
X86089160Y-10665033D01*
X86089160Y-10665033D02*
X86027255Y-10850747D01*
X86027255Y-10850747D02*
X85284398Y-11593604D01*
X85284398Y-11593604D02*
X86089160Y-11593604D01*
D10*
D11*
X135284398Y-10293604D02*
X136089160Y-10293604D01*
X136089160Y-10293604D02*
X135655826Y-10788842D01*
X135655826Y-10788842D02*
X135841541Y-10788842D01*
X135841541Y-10788842D02*
X135965350Y-10850747D01*
X135965350Y-10850747D02*
X136027255Y-10912652D01*
X136027255Y-10912652D02*
X136089160Y-11036461D01*
X136089160Y-11036461D02*
X136089160Y-11345985D01*
X136089160Y-11345985D02*
X136027255Y-11469795D01*
X136027255Y-11469795D02*
X135965350Y-11531700D01*
X135965350Y-11531700D02*
X135841541Y-11593604D01*
X135841541Y-11593604D02*
X135470112Y-11593604D01*
X135470112Y-11593604D02*
X135346303Y-11531700D01*
X135346303Y-11531700D02*
X135284398Y-11469795D01*
D10*
D11*
X185965350Y-10726938D02*
X185965350Y-11593604D01*
X185655826Y-10231700D02*
X185346303Y-11160271D01*
X185346303Y-11160271D02*
X186151064Y-11160271D01*
D10*
D11*
X236027255Y-10293604D02*
X235408207Y-10293604D01*
X235408207Y-10293604D02*
X235346303Y-10912652D01*
X235346303Y-10912652D02*
X235408207Y-10850747D01*
X235408207Y-10850747D02*
X235532017Y-10788842D01*
X235532017Y-10788842D02*
X235841541Y-10788842D01*
X235841541Y-10788842D02*
X235965350Y-10850747D01*
X235965350Y-10850747D02*
X236027255Y-10912652D01*
X236027255Y-10912652D02*
X236089160Y-11036461D01*
X236089160Y-11036461D02*
X236089160Y-11345985D01*
X236089160Y-11345985D02*
X236027255Y-11469795D01*
X236027255Y-11469795D02*
X235965350Y-11531700D01*
X235965350Y-11531700D02*
X235841541Y-11593604D01*
X235841541Y-11593604D02*
X235532017Y-11593604D01*
X235532017Y-11593604D02*
X235408207Y-11531700D01*
X235408207Y-11531700D02*
X235346303Y-11469795D01*
D10*
D11*
X285965350Y-10293604D02*
X285717731Y-10293604D01*
X285717731Y-10293604D02*
X285593922Y-10355509D01*
X285593922Y-10355509D02*
X285532017Y-10417414D01*
X285532017Y-10417414D02*
X285408207Y-10603128D01*
X285408207Y-10603128D02*
X285346303Y-10850747D01*
X285346303Y-10850747D02*
X285346303Y-11345985D01*
X285346303Y-11345985D02*
X285408207Y-11469795D01*
X285408207Y-11469795D02*
X285470112Y-11531700D01*
X285470112Y-11531700D02*
X285593922Y-11593604D01*
X285593922Y-11593604D02*
X285841541Y-11593604D01*
X285841541Y-11593604D02*
X285965350Y-11531700D01*
X285965350Y-11531700D02*
X286027255Y-11469795D01*
X286027255Y-11469795D02*
X286089160Y-11345985D01*
X286089160Y-11345985D02*
X286089160Y-11036461D01*
X286089160Y-11036461D02*
X286027255Y-10912652D01*
X286027255Y-10912652D02*
X285965350Y-10850747D01*
X285965350Y-10850747D02*
X285841541Y-10788842D01*
X285841541Y-10788842D02*
X285593922Y-10788842D01*
X285593922Y-10788842D02*
X285470112Y-10850747D01*
X285470112Y-10850747D02*
X285408207Y-10912652D01*
X285408207Y-10912652D02*
X285346303Y-11036461D01*
D10*
D11*
X60000000Y-198007200D02*
X60000000Y-200007200D01*
D10*
D11*
X110000000Y-198007200D02*
X110000000Y-200007200D01*
D10*
D11*
X160000000Y-198007200D02*
X160000000Y-200007200D01*
D10*
D11*
X210000000Y-198007200D02*
X210000000Y-200007200D01*
D10*
D11*
X260000000Y-198007200D02*
X260000000Y-200007200D01*
D10*
D11*
X36089160Y-199600804D02*
X35346303Y-199600804D01*
X35717731Y-199600804D02*
X35717731Y-198300804D01*
X35717731Y-198300804D02*
X35593922Y-198486519D01*
X35593922Y-198486519D02*
X35470112Y-198610328D01*
X35470112Y-198610328D02*
X35346303Y-198672233D01*
D10*
D11*
X85346303Y-198424614D02*
X85408207Y-198362709D01*
X85408207Y-198362709D02*
X85532017Y-198300804D01*
X85532017Y-198300804D02*
X85841541Y-198300804D01*
X85841541Y-198300804D02*
X85965350Y-198362709D01*
X85965350Y-198362709D02*
X86027255Y-198424614D01*
X86027255Y-198424614D02*
X86089160Y-198548423D01*
X86089160Y-198548423D02*
X86089160Y-198672233D01*
X86089160Y-198672233D02*
X86027255Y-198857947D01*
X86027255Y-198857947D02*
X85284398Y-199600804D01*
X85284398Y-199600804D02*
X86089160Y-199600804D01*
D10*
D11*
X135284398Y-198300804D02*
X136089160Y-198300804D01*
X136089160Y-198300804D02*
X135655826Y-198796042D01*
X135655826Y-198796042D02*
X135841541Y-198796042D01*
X135841541Y-198796042D02*
X135965350Y-198857947D01*
X135965350Y-198857947D02*
X136027255Y-198919852D01*
X136027255Y-198919852D02*
X136089160Y-199043661D01*
X136089160Y-199043661D02*
X136089160Y-199353185D01*
X136089160Y-199353185D02*
X136027255Y-199476995D01*
X136027255Y-199476995D02*
X135965350Y-199538900D01*
X135965350Y-199538900D02*
X135841541Y-199600804D01*
X135841541Y-199600804D02*
X135470112Y-199600804D01*
X135470112Y-199600804D02*
X135346303Y-199538900D01*
X135346303Y-199538900D02*
X135284398Y-199476995D01*
D10*
D11*
X185965350Y-198734138D02*
X185965350Y-199600804D01*
X185655826Y-198238900D02*
X185346303Y-199167471D01*
X185346303Y-199167471D02*
X186151064Y-199167471D01*
D10*
D11*
X236027255Y-198300804D02*
X235408207Y-198300804D01*
X235408207Y-198300804D02*
X235346303Y-198919852D01*
X235346303Y-198919852D02*
X235408207Y-198857947D01*
X235408207Y-198857947D02*
X235532017Y-198796042D01*
X235532017Y-198796042D02*
X235841541Y-198796042D01*
X235841541Y-198796042D02*
X235965350Y-198857947D01*
X235965350Y-198857947D02*
X236027255Y-198919852D01*
X236027255Y-198919852D02*
X236089160Y-199043661D01*
X236089160Y-199043661D02*
X236089160Y-199353185D01*
X236089160Y-199353185D02*
X236027255Y-199476995D01*
X236027255Y-199476995D02*
X235965350Y-199538900D01*
X235965350Y-199538900D02*
X235841541Y-199600804D01*
X235841541Y-199600804D02*
X235532017Y-199600804D01*
X235532017Y-199600804D02*
X235408207Y-199538900D01*
X235408207Y-199538900D02*
X235346303Y-199476995D01*
D10*
D11*
X285965350Y-198300804D02*
X285717731Y-198300804D01*
X285717731Y-198300804D02*
X285593922Y-198362709D01*
X285593922Y-198362709D02*
X285532017Y-198424614D01*
X285532017Y-198424614D02*
X285408207Y-198610328D01*
X285408207Y-198610328D02*
X285346303Y-198857947D01*
X285346303Y-198857947D02*
X285346303Y-199353185D01*
X285346303Y-199353185D02*
X285408207Y-199476995D01*
X285408207Y-199476995D02*
X285470112Y-199538900D01*
X285470112Y-199538900D02*
X285593922Y-199600804D01*
X285593922Y-199600804D02*
X285841541Y-199600804D01*
X285841541Y-199600804D02*
X285965350Y-199538900D01*
X285965350Y-199538900D02*
X286027255Y-199476995D01*
X286027255Y-199476995D02*
X286089160Y-199353185D01*
X286089160Y-199353185D02*
X286089160Y-199043661D01*
X286089160Y-199043661D02*
X286027255Y-198919852D01*
X286027255Y-198919852D02*
X285965350Y-198857947D01*
X285965350Y-198857947D02*
X285841541Y-198796042D01*
X285841541Y-198796042D02*
X285593922Y-198796042D01*
X285593922Y-198796042D02*
X285470112Y-198857947D01*
X285470112Y-198857947D02*
X285408207Y-198919852D01*
X285408207Y-198919852D02*
X285346303Y-199043661D01*
D10*
D11*
X10000000Y-60000000D02*
X12000000Y-60000000D01*
D10*
D11*
X10000000Y-110000000D02*
X12000000Y-110000000D01*
D10*
D11*
X10000000Y-160000000D02*
X12000000Y-160000000D01*
D10*
D11*
X10690476Y-35222176D02*
X11309523Y-35222176D01*
X10566666Y-35593604D02*
X10999999Y-34293604D01*
X10999999Y-34293604D02*
X11433333Y-35593604D01*
D10*
D11*
X11092857Y-84912652D02*
X11278571Y-84974557D01*
X11278571Y-84974557D02*
X11340476Y-85036461D01*
X11340476Y-85036461D02*
X11402380Y-85160271D01*
X11402380Y-85160271D02*
X11402380Y-85345985D01*
X11402380Y-85345985D02*
X11340476Y-85469795D01*
X11340476Y-85469795D02*
X11278571Y-85531700D01*
X11278571Y-85531700D02*
X11154761Y-85593604D01*
X11154761Y-85593604D02*
X10659523Y-85593604D01*
X10659523Y-85593604D02*
X10659523Y-84293604D01*
X10659523Y-84293604D02*
X11092857Y-84293604D01*
X11092857Y-84293604D02*
X11216666Y-84355509D01*
X11216666Y-84355509D02*
X11278571Y-84417414D01*
X11278571Y-84417414D02*
X11340476Y-84541223D01*
X11340476Y-84541223D02*
X11340476Y-84665033D01*
X11340476Y-84665033D02*
X11278571Y-84788842D01*
X11278571Y-84788842D02*
X11216666Y-84850747D01*
X11216666Y-84850747D02*
X11092857Y-84912652D01*
X11092857Y-84912652D02*
X10659523Y-84912652D01*
D10*
D11*
X11402380Y-135469795D02*
X11340476Y-135531700D01*
X11340476Y-135531700D02*
X11154761Y-135593604D01*
X11154761Y-135593604D02*
X11030952Y-135593604D01*
X11030952Y-135593604D02*
X10845238Y-135531700D01*
X10845238Y-135531700D02*
X10721428Y-135407890D01*
X10721428Y-135407890D02*
X10659523Y-135284080D01*
X10659523Y-135284080D02*
X10597619Y-135036461D01*
X10597619Y-135036461D02*
X10597619Y-134850747D01*
X10597619Y-134850747D02*
X10659523Y-134603128D01*
X10659523Y-134603128D02*
X10721428Y-134479319D01*
X10721428Y-134479319D02*
X10845238Y-134355509D01*
X10845238Y-134355509D02*
X11030952Y-134293604D01*
X11030952Y-134293604D02*
X11154761Y-134293604D01*
X11154761Y-134293604D02*
X11340476Y-134355509D01*
X11340476Y-134355509D02*
X11402380Y-134417414D01*
D10*
D11*
X10659523Y-185593604D02*
X10659523Y-184293604D01*
X10659523Y-184293604D02*
X10969047Y-184293604D01*
X10969047Y-184293604D02*
X11154761Y-184355509D01*
X11154761Y-184355509D02*
X11278571Y-184479319D01*
X11278571Y-184479319D02*
X11340476Y-184603128D01*
X11340476Y-184603128D02*
X11402380Y-184850747D01*
X11402380Y-184850747D02*
X11402380Y-185036461D01*
X11402380Y-185036461D02*
X11340476Y-185284080D01*
X11340476Y-185284080D02*
X11278571Y-185407890D01*
X11278571Y-185407890D02*
X11154761Y-185531700D01*
X11154761Y-185531700D02*
X10969047Y-185593604D01*
X10969047Y-185593604D02*
X10659523Y-185593604D01*
D10*
D11*
X287002200Y-60000000D02*
X285002200Y-60000000D01*
D10*
D11*
X287002200Y-110000000D02*
X285002200Y-110000000D01*
D10*
D11*
X287002200Y-160000000D02*
X285002200Y-160000000D01*
D10*
D11*
X285692676Y-35222176D02*
X286311723Y-35222176D01*
X285568866Y-35593604D02*
X286002199Y-34293604D01*
X286002199Y-34293604D02*
X286435533Y-35593604D01*
D10*
D11*
X286095057Y-84912652D02*
X286280771Y-84974557D01*
X286280771Y-84974557D02*
X286342676Y-85036461D01*
X286342676Y-85036461D02*
X286404580Y-85160271D01*
X286404580Y-85160271D02*
X286404580Y-85345985D01*
X286404580Y-85345985D02*
X286342676Y-85469795D01*
X286342676Y-85469795D02*
X286280771Y-85531700D01*
X286280771Y-85531700D02*
X286156961Y-85593604D01*
X286156961Y-85593604D02*
X285661723Y-85593604D01*
X285661723Y-85593604D02*
X285661723Y-84293604D01*
X285661723Y-84293604D02*
X286095057Y-84293604D01*
X286095057Y-84293604D02*
X286218866Y-84355509D01*
X286218866Y-84355509D02*
X286280771Y-84417414D01*
X286280771Y-84417414D02*
X286342676Y-84541223D01*
X286342676Y-84541223D02*
X286342676Y-84665033D01*
X286342676Y-84665033D02*
X286280771Y-84788842D01*
X286280771Y-84788842D02*
X286218866Y-84850747D01*
X286218866Y-84850747D02*
X286095057Y-84912652D01*
X286095057Y-84912652D02*
X285661723Y-84912652D01*
D10*
D11*
X286404580Y-135469795D02*
X286342676Y-135531700D01*
X286342676Y-135531700D02*
X286156961Y-135593604D01*
X286156961Y-135593604D02*
X286033152Y-135593604D01*
X286033152Y-135593604D02*
X285847438Y-135531700D01*
X285847438Y-135531700D02*
X285723628Y-135407890D01*
X285723628Y-135407890D02*
X285661723Y-135284080D01*
X285661723Y-135284080D02*
X285599819Y-135036461D01*
X285599819Y-135036461D02*
X285599819Y-134850747D01*
X285599819Y-134850747D02*
X285661723Y-134603128D01*
X285661723Y-134603128D02*
X285723628Y-134479319D01*
X285723628Y-134479319D02*
X285847438Y-134355509D01*
X285847438Y-134355509D02*
X286033152Y-134293604D01*
X286033152Y-134293604D02*
X286156961Y-134293604D01*
X286156961Y-134293604D02*
X286342676Y-134355509D01*
X286342676Y-134355509D02*
X286404580Y-134417414D01*
D10*
D11*
X285661723Y-185593604D02*
X285661723Y-184293604D01*
X285661723Y-184293604D02*
X285971247Y-184293604D01*
X285971247Y-184293604D02*
X286156961Y-184355509D01*
X286156961Y-184355509D02*
X286280771Y-184479319D01*
X286280771Y-184479319D02*
X286342676Y-184603128D01*
X286342676Y-184603128D02*
X286404580Y-184850747D01*
X286404580Y-184850747D02*
X286404580Y-185036461D01*
X286404580Y-185036461D02*
X286342676Y-185284080D01*
X286342676Y-185284080D02*
X286280771Y-185407890D01*
X286280771Y-185407890D02*
X286156961Y-185531700D01*
X286156961Y-185531700D02*
X285971247Y-185593604D01*
X285971247Y-185593604D02*
X285661723Y-185593604D01*
D10*
D11*
X200458026Y-193793328D02*
X200458026Y-192293328D01*
X200458026Y-192293328D02*
X200815169Y-192293328D01*
X200815169Y-192293328D02*
X201029455Y-192364757D01*
X201029455Y-192364757D02*
X201172312Y-192507614D01*
X201172312Y-192507614D02*
X201243741Y-192650471D01*
X201243741Y-192650471D02*
X201315169Y-192936185D01*
X201315169Y-192936185D02*
X201315169Y-193150471D01*
X201315169Y-193150471D02*
X201243741Y-193436185D01*
X201243741Y-193436185D02*
X201172312Y-193579042D01*
X201172312Y-193579042D02*
X201029455Y-193721900D01*
X201029455Y-193721900D02*
X200815169Y-193793328D01*
X200815169Y-193793328D02*
X200458026Y-193793328D01*
X202600884Y-193793328D02*
X202600884Y-193007614D01*
X202600884Y-193007614D02*
X202529455Y-192864757D01*
X202529455Y-192864757D02*
X202386598Y-192793328D01*
X202386598Y-192793328D02*
X202100884Y-192793328D01*
X202100884Y-192793328D02*
X201958026Y-192864757D01*
X202600884Y-193721900D02*
X202458026Y-193793328D01*
X202458026Y-193793328D02*
X202100884Y-193793328D01*
X202100884Y-193793328D02*
X201958026Y-193721900D01*
X201958026Y-193721900D02*
X201886598Y-193579042D01*
X201886598Y-193579042D02*
X201886598Y-193436185D01*
X201886598Y-193436185D02*
X201958026Y-193293328D01*
X201958026Y-193293328D02*
X202100884Y-193221900D01*
X202100884Y-193221900D02*
X202458026Y-193221900D01*
X202458026Y-193221900D02*
X202600884Y-193150471D01*
X203100884Y-192793328D02*
X203672312Y-192793328D01*
X203315169Y-192293328D02*
X203315169Y-193579042D01*
X203315169Y-193579042D02*
X203386598Y-193721900D01*
X203386598Y-193721900D02*
X203529455Y-193793328D01*
X203529455Y-193793328D02*
X203672312Y-193793328D01*
X204743741Y-193721900D02*
X204600884Y-193793328D01*
X204600884Y-193793328D02*
X204315170Y-193793328D01*
X204315170Y-193793328D02*
X204172312Y-193721900D01*
X204172312Y-193721900D02*
X204100884Y-193579042D01*
X204100884Y-193579042D02*
X204100884Y-193007614D01*
X204100884Y-193007614D02*
X204172312Y-192864757D01*
X204172312Y-192864757D02*
X204315170Y-192793328D01*
X204315170Y-192793328D02*
X204600884Y-192793328D01*
X204600884Y-192793328D02*
X204743741Y-192864757D01*
X204743741Y-192864757D02*
X204815170Y-193007614D01*
X204815170Y-193007614D02*
X204815170Y-193150471D01*
X204815170Y-193150471D02*
X204100884Y-193293328D01*
X205458026Y-193650471D02*
X205529455Y-193721900D01*
X205529455Y-193721900D02*
X205458026Y-193793328D01*
X205458026Y-193793328D02*
X205386598Y-193721900D01*
X205386598Y-193721900D02*
X205458026Y-193650471D01*
X205458026Y-193650471D02*
X205458026Y-193793328D01*
X205458026Y-192864757D02*
X205529455Y-192936185D01*
X205529455Y-192936185D02*
X205458026Y-193007614D01*
X205458026Y-193007614D02*
X205386598Y-192936185D01*
X205386598Y-192936185D02*
X205458026Y-192864757D01*
X205458026Y-192864757D02*
X205458026Y-193007614D01*
D10*
D11*
X177002200Y-194507200D02*
X285002200Y-194507200D01*
D10*
D11*
X178458026Y-196593328D02*
X178458026Y-195093328D01*
X179315169Y-196593328D02*
X178672312Y-195736185D01*
X179315169Y-195093328D02*
X178458026Y-195950471D01*
X179958026Y-196593328D02*
X179958026Y-195593328D01*
X179958026Y-195093328D02*
X179886598Y-195164757D01*
X179886598Y-195164757D02*
X179958026Y-195236185D01*
X179958026Y-195236185D02*
X180029455Y-195164757D01*
X180029455Y-195164757D02*
X179958026Y-195093328D01*
X179958026Y-195093328D02*
X179958026Y-195236185D01*
X181529455Y-196450471D02*
X181458027Y-196521900D01*
X181458027Y-196521900D02*
X181243741Y-196593328D01*
X181243741Y-196593328D02*
X181100884Y-196593328D01*
X181100884Y-196593328D02*
X180886598Y-196521900D01*
X180886598Y-196521900D02*
X180743741Y-196379042D01*
X180743741Y-196379042D02*
X180672312Y-196236185D01*
X180672312Y-196236185D02*
X180600884Y-195950471D01*
X180600884Y-195950471D02*
X180600884Y-195736185D01*
X180600884Y-195736185D02*
X180672312Y-195450471D01*
X180672312Y-195450471D02*
X180743741Y-195307614D01*
X180743741Y-195307614D02*
X180886598Y-195164757D01*
X180886598Y-195164757D02*
X181100884Y-195093328D01*
X181100884Y-195093328D02*
X181243741Y-195093328D01*
X181243741Y-195093328D02*
X181458027Y-195164757D01*
X181458027Y-195164757D02*
X181529455Y-195236185D01*
X182815170Y-196593328D02*
X182815170Y-195807614D01*
X182815170Y-195807614D02*
X182743741Y-195664757D01*
X182743741Y-195664757D02*
X182600884Y-195593328D01*
X182600884Y-195593328D02*
X182315170Y-195593328D01*
X182315170Y-195593328D02*
X182172312Y-195664757D01*
X182815170Y-196521900D02*
X182672312Y-196593328D01*
X182672312Y-196593328D02*
X182315170Y-196593328D01*
X182315170Y-196593328D02*
X182172312Y-196521900D01*
X182172312Y-196521900D02*
X182100884Y-196379042D01*
X182100884Y-196379042D02*
X182100884Y-196236185D01*
X182100884Y-196236185D02*
X182172312Y-196093328D01*
X182172312Y-196093328D02*
X182315170Y-196021900D01*
X182315170Y-196021900D02*
X182672312Y-196021900D01*
X182672312Y-196021900D02*
X182815170Y-195950471D01*
X184172313Y-196593328D02*
X184172313Y-195093328D01*
X184172313Y-196521900D02*
X184029455Y-196593328D01*
X184029455Y-196593328D02*
X183743741Y-196593328D01*
X183743741Y-196593328D02*
X183600884Y-196521900D01*
X183600884Y-196521900D02*
X183529455Y-196450471D01*
X183529455Y-196450471D02*
X183458027Y-196307614D01*
X183458027Y-196307614D02*
X183458027Y-195879042D01*
X183458027Y-195879042D02*
X183529455Y-195736185D01*
X183529455Y-195736185D02*
X183600884Y-195664757D01*
X183600884Y-195664757D02*
X183743741Y-195593328D01*
X183743741Y-195593328D02*
X184029455Y-195593328D01*
X184029455Y-195593328D02*
X184172313Y-195664757D01*
X186029455Y-195807614D02*
X186529455Y-195807614D01*
X186743741Y-196593328D02*
X186029455Y-196593328D01*
X186029455Y-196593328D02*
X186029455Y-195093328D01*
X186029455Y-195093328D02*
X186743741Y-195093328D01*
X187386598Y-196450471D02*
X187458027Y-196521900D01*
X187458027Y-196521900D02*
X187386598Y-196593328D01*
X187386598Y-196593328D02*
X187315170Y-196521900D01*
X187315170Y-196521900D02*
X187386598Y-196450471D01*
X187386598Y-196450471D02*
X187386598Y-196593328D01*
X188100884Y-196593328D02*
X188100884Y-195093328D01*
X188100884Y-195093328D02*
X188458027Y-195093328D01*
X188458027Y-195093328D02*
X188672313Y-195164757D01*
X188672313Y-195164757D02*
X188815170Y-195307614D01*
X188815170Y-195307614D02*
X188886599Y-195450471D01*
X188886599Y-195450471D02*
X188958027Y-195736185D01*
X188958027Y-195736185D02*
X188958027Y-195950471D01*
X188958027Y-195950471D02*
X188886599Y-196236185D01*
X188886599Y-196236185D02*
X188815170Y-196379042D01*
X188815170Y-196379042D02*
X188672313Y-196521900D01*
X188672313Y-196521900D02*
X188458027Y-196593328D01*
X188458027Y-196593328D02*
X188100884Y-196593328D01*
X189600884Y-196450471D02*
X189672313Y-196521900D01*
X189672313Y-196521900D02*
X189600884Y-196593328D01*
X189600884Y-196593328D02*
X189529456Y-196521900D01*
X189529456Y-196521900D02*
X189600884Y-196450471D01*
X189600884Y-196450471D02*
X189600884Y-196593328D01*
X190243742Y-196164757D02*
X190958028Y-196164757D01*
X190100885Y-196593328D02*
X190600885Y-195093328D01*
X190600885Y-195093328D02*
X191100885Y-196593328D01*
X191600884Y-196450471D02*
X191672313Y-196521900D01*
X191672313Y-196521900D02*
X191600884Y-196593328D01*
X191600884Y-196593328D02*
X191529456Y-196521900D01*
X191529456Y-196521900D02*
X191600884Y-196450471D01*
X191600884Y-196450471D02*
X191600884Y-196593328D01*
X193672313Y-195736185D02*
X193529456Y-195664757D01*
X193529456Y-195664757D02*
X193458027Y-195593328D01*
X193458027Y-195593328D02*
X193386599Y-195450471D01*
X193386599Y-195450471D02*
X193386599Y-195379042D01*
X193386599Y-195379042D02*
X193458027Y-195236185D01*
X193458027Y-195236185D02*
X193529456Y-195164757D01*
X193529456Y-195164757D02*
X193672313Y-195093328D01*
X193672313Y-195093328D02*
X193958027Y-195093328D01*
X193958027Y-195093328D02*
X194100885Y-195164757D01*
X194100885Y-195164757D02*
X194172313Y-195236185D01*
X194172313Y-195236185D02*
X194243742Y-195379042D01*
X194243742Y-195379042D02*
X194243742Y-195450471D01*
X194243742Y-195450471D02*
X194172313Y-195593328D01*
X194172313Y-195593328D02*
X194100885Y-195664757D01*
X194100885Y-195664757D02*
X193958027Y-195736185D01*
X193958027Y-195736185D02*
X193672313Y-195736185D01*
X193672313Y-195736185D02*
X193529456Y-195807614D01*
X193529456Y-195807614D02*
X193458027Y-195879042D01*
X193458027Y-195879042D02*
X193386599Y-196021900D01*
X193386599Y-196021900D02*
X193386599Y-196307614D01*
X193386599Y-196307614D02*
X193458027Y-196450471D01*
X193458027Y-196450471D02*
X193529456Y-196521900D01*
X193529456Y-196521900D02*
X193672313Y-196593328D01*
X193672313Y-196593328D02*
X193958027Y-196593328D01*
X193958027Y-196593328D02*
X194100885Y-196521900D01*
X194100885Y-196521900D02*
X194172313Y-196450471D01*
X194172313Y-196450471D02*
X194243742Y-196307614D01*
X194243742Y-196307614D02*
X194243742Y-196021900D01*
X194243742Y-196021900D02*
X194172313Y-195879042D01*
X194172313Y-195879042D02*
X194100885Y-195807614D01*
X194100885Y-195807614D02*
X193958027Y-195736185D01*
X194886598Y-196450471D02*
X194958027Y-196521900D01*
X194958027Y-196521900D02*
X194886598Y-196593328D01*
X194886598Y-196593328D02*
X194815170Y-196521900D01*
X194815170Y-196521900D02*
X194886598Y-196450471D01*
X194886598Y-196450471D02*
X194886598Y-196593328D01*
X195672313Y-196593328D02*
X195958027Y-196593328D01*
X195958027Y-196593328D02*
X196100884Y-196521900D01*
X196100884Y-196521900D02*
X196172313Y-196450471D01*
X196172313Y-196450471D02*
X196315170Y-196236185D01*
X196315170Y-196236185D02*
X196386599Y-195950471D01*
X196386599Y-195950471D02*
X196386599Y-195379042D01*
X196386599Y-195379042D02*
X196315170Y-195236185D01*
X196315170Y-195236185D02*
X196243742Y-195164757D01*
X196243742Y-195164757D02*
X196100884Y-195093328D01*
X196100884Y-195093328D02*
X195815170Y-195093328D01*
X195815170Y-195093328D02*
X195672313Y-195164757D01*
X195672313Y-195164757D02*
X195600884Y-195236185D01*
X195600884Y-195236185D02*
X195529456Y-195379042D01*
X195529456Y-195379042D02*
X195529456Y-195736185D01*
X195529456Y-195736185D02*
X195600884Y-195879042D01*
X195600884Y-195879042D02*
X195672313Y-195950471D01*
X195672313Y-195950471D02*
X195815170Y-196021900D01*
X195815170Y-196021900D02*
X196100884Y-196021900D01*
X196100884Y-196021900D02*
X196243742Y-195950471D01*
X196243742Y-195950471D02*
X196315170Y-195879042D01*
X196315170Y-195879042D02*
X196386599Y-195736185D01*
X197100884Y-196593328D02*
X197386598Y-196593328D01*
X197386598Y-196593328D02*
X197529455Y-196521900D01*
X197529455Y-196521900D02*
X197600884Y-196450471D01*
X197600884Y-196450471D02*
X197743741Y-196236185D01*
X197743741Y-196236185D02*
X197815170Y-195950471D01*
X197815170Y-195950471D02*
X197815170Y-195379042D01*
X197815170Y-195379042D02*
X197743741Y-195236185D01*
X197743741Y-195236185D02*
X197672313Y-195164757D01*
X197672313Y-195164757D02*
X197529455Y-195093328D01*
X197529455Y-195093328D02*
X197243741Y-195093328D01*
X197243741Y-195093328D02*
X197100884Y-195164757D01*
X197100884Y-195164757D02*
X197029455Y-195236185D01*
X197029455Y-195236185D02*
X196958027Y-195379042D01*
X196958027Y-195379042D02*
X196958027Y-195736185D01*
X196958027Y-195736185D02*
X197029455Y-195879042D01*
X197029455Y-195879042D02*
X197100884Y-195950471D01*
X197100884Y-195950471D02*
X197243741Y-196021900D01*
X197243741Y-196021900D02*
X197529455Y-196021900D01*
X197529455Y-196021900D02*
X197672313Y-195950471D01*
X197672313Y-195950471D02*
X197743741Y-195879042D01*
X197743741Y-195879042D02*
X197815170Y-195736185D01*
X198458026Y-196450471D02*
X198529455Y-196521900D01*
X198529455Y-196521900D02*
X198458026Y-196593328D01*
X198458026Y-196593328D02*
X198386598Y-196521900D01*
X198386598Y-196521900D02*
X198458026Y-196450471D01*
X198458026Y-196450471D02*
X198458026Y-196593328D01*
X199458027Y-195093328D02*
X199600884Y-195093328D01*
X199600884Y-195093328D02*
X199743741Y-195164757D01*
X199743741Y-195164757D02*
X199815170Y-195236185D01*
X199815170Y-195236185D02*
X199886598Y-195379042D01*
X199886598Y-195379042D02*
X199958027Y-195664757D01*
X199958027Y-195664757D02*
X199958027Y-196021900D01*
X199958027Y-196021900D02*
X199886598Y-196307614D01*
X199886598Y-196307614D02*
X199815170Y-196450471D01*
X199815170Y-196450471D02*
X199743741Y-196521900D01*
X199743741Y-196521900D02*
X199600884Y-196593328D01*
X199600884Y-196593328D02*
X199458027Y-196593328D01*
X199458027Y-196593328D02*
X199315170Y-196521900D01*
X199315170Y-196521900D02*
X199243741Y-196450471D01*
X199243741Y-196450471D02*
X199172312Y-196307614D01*
X199172312Y-196307614D02*
X199100884Y-196021900D01*
X199100884Y-196021900D02*
X199100884Y-195664757D01*
X199100884Y-195664757D02*
X199172312Y-195379042D01*
X199172312Y-195379042D02*
X199243741Y-195236185D01*
X199243741Y-195236185D02*
X199315170Y-195164757D01*
X199315170Y-195164757D02*
X199458027Y-195093328D01*
X200600883Y-196021900D02*
X201743741Y-196021900D01*
X202315169Y-195093328D02*
X203243741Y-195093328D01*
X203243741Y-195093328D02*
X202743741Y-195664757D01*
X202743741Y-195664757D02*
X202958026Y-195664757D01*
X202958026Y-195664757D02*
X203100884Y-195736185D01*
X203100884Y-195736185D02*
X203172312Y-195807614D01*
X203172312Y-195807614D02*
X203243741Y-195950471D01*
X203243741Y-195950471D02*
X203243741Y-196307614D01*
X203243741Y-196307614D02*
X203172312Y-196450471D01*
X203172312Y-196450471D02*
X203100884Y-196521900D01*
X203100884Y-196521900D02*
X202958026Y-196593328D01*
X202958026Y-196593328D02*
X202529455Y-196593328D01*
X202529455Y-196593328D02*
X202386598Y-196521900D01*
X202386598Y-196521900D02*
X202315169Y-196450471D01*
X204529455Y-195593328D02*
X204529455Y-196593328D01*
X204172312Y-195021900D02*
X203815169Y-196093328D01*
X203815169Y-196093328D02*
X204743740Y-196093328D01*
X205600883Y-195093328D02*
X205743740Y-195093328D01*
X205743740Y-195093328D02*
X205886597Y-195164757D01*
X205886597Y-195164757D02*
X205958026Y-195236185D01*
X205958026Y-195236185D02*
X206029454Y-195379042D01*
X206029454Y-195379042D02*
X206100883Y-195664757D01*
X206100883Y-195664757D02*
X206100883Y-196021900D01*
X206100883Y-196021900D02*
X206029454Y-196307614D01*
X206029454Y-196307614D02*
X205958026Y-196450471D01*
X205958026Y-196450471D02*
X205886597Y-196521900D01*
X205886597Y-196521900D02*
X205743740Y-196593328D01*
X205743740Y-196593328D02*
X205600883Y-196593328D01*
X205600883Y-196593328D02*
X205458026Y-196521900D01*
X205458026Y-196521900D02*
X205386597Y-196450471D01*
X205386597Y-196450471D02*
X205315168Y-196307614D01*
X205315168Y-196307614D02*
X205243740Y-196021900D01*
X205243740Y-196021900D02*
X205243740Y-195664757D01*
X205243740Y-195664757D02*
X205315168Y-195379042D01*
X205315168Y-195379042D02*
X205386597Y-195236185D01*
X205386597Y-195236185D02*
X205458026Y-195164757D01*
X205458026Y-195164757D02*
X205600883Y-195093328D01*
X206672311Y-195236185D02*
X206743739Y-195164757D01*
X206743739Y-195164757D02*
X206886597Y-195093328D01*
X206886597Y-195093328D02*
X207243739Y-195093328D01*
X207243739Y-195093328D02*
X207386597Y-195164757D01*
X207386597Y-195164757D02*
X207458025Y-195236185D01*
X207458025Y-195236185D02*
X207529454Y-195379042D01*
X207529454Y-195379042D02*
X207529454Y-195521900D01*
X207529454Y-195521900D02*
X207458025Y-195736185D01*
X207458025Y-195736185D02*
X206600882Y-196593328D01*
X206600882Y-196593328D02*
X207529454Y-196593328D01*
X208172310Y-196021900D02*
X209315168Y-196021900D01*
X210672311Y-195593328D02*
X210672311Y-196807614D01*
X210672311Y-196807614D02*
X210600882Y-196950471D01*
X210600882Y-196950471D02*
X210529453Y-197021900D01*
X210529453Y-197021900D02*
X210386596Y-197093328D01*
X210386596Y-197093328D02*
X210172311Y-197093328D01*
X210172311Y-197093328D02*
X210029453Y-197021900D01*
X210672311Y-196521900D02*
X210529453Y-196593328D01*
X210529453Y-196593328D02*
X210243739Y-196593328D01*
X210243739Y-196593328D02*
X210100882Y-196521900D01*
X210100882Y-196521900D02*
X210029453Y-196450471D01*
X210029453Y-196450471D02*
X209958025Y-196307614D01*
X209958025Y-196307614D02*
X209958025Y-195879042D01*
X209958025Y-195879042D02*
X210029453Y-195736185D01*
X210029453Y-195736185D02*
X210100882Y-195664757D01*
X210100882Y-195664757D02*
X210243739Y-195593328D01*
X210243739Y-195593328D02*
X210529453Y-195593328D01*
X210529453Y-195593328D02*
X210672311Y-195664757D01*
X212029454Y-196593328D02*
X212029454Y-195807614D01*
X212029454Y-195807614D02*
X211958025Y-195664757D01*
X211958025Y-195664757D02*
X211815168Y-195593328D01*
X211815168Y-195593328D02*
X211529454Y-195593328D01*
X211529454Y-195593328D02*
X211386596Y-195664757D01*
X212029454Y-196521900D02*
X211886596Y-196593328D01*
X211886596Y-196593328D02*
X211529454Y-196593328D01*
X211529454Y-196593328D02*
X211386596Y-196521900D01*
X211386596Y-196521900D02*
X211315168Y-196379042D01*
X211315168Y-196379042D02*
X211315168Y-196236185D01*
X211315168Y-196236185D02*
X211386596Y-196093328D01*
X211386596Y-196093328D02*
X211529454Y-196021900D01*
X211529454Y-196021900D02*
X211886596Y-196021900D01*
X211886596Y-196021900D02*
X212029454Y-195950471D01*
X213386597Y-196593328D02*
X213386597Y-195093328D01*
X213386597Y-196521900D02*
X213243739Y-196593328D01*
X213243739Y-196593328D02*
X212958025Y-196593328D01*
X212958025Y-196593328D02*
X212815168Y-196521900D01*
X212815168Y-196521900D02*
X212743739Y-196450471D01*
X212743739Y-196450471D02*
X212672311Y-196307614D01*
X212672311Y-196307614D02*
X212672311Y-195879042D01*
X212672311Y-195879042D02*
X212743739Y-195736185D01*
X212743739Y-195736185D02*
X212815168Y-195664757D01*
X212815168Y-195664757D02*
X212958025Y-195593328D01*
X212958025Y-195593328D02*
X213243739Y-195593328D01*
X213243739Y-195593328D02*
X213386597Y-195664757D01*
X214743740Y-196593328D02*
X214743740Y-195093328D01*
X214743740Y-196521900D02*
X214600882Y-196593328D01*
X214600882Y-196593328D02*
X214315168Y-196593328D01*
X214315168Y-196593328D02*
X214172311Y-196521900D01*
X214172311Y-196521900D02*
X214100882Y-196450471D01*
X214100882Y-196450471D02*
X214029454Y-196307614D01*
X214029454Y-196307614D02*
X214029454Y-195879042D01*
X214029454Y-195879042D02*
X214100882Y-195736185D01*
X214100882Y-195736185D02*
X214172311Y-195664757D01*
X214172311Y-195664757D02*
X214315168Y-195593328D01*
X214315168Y-195593328D02*
X214600882Y-195593328D01*
X214600882Y-195593328D02*
X214743740Y-195664757D01*
X216172311Y-195093328D02*
X215458025Y-195093328D01*
X215458025Y-195093328D02*
X215386597Y-195807614D01*
X215386597Y-195807614D02*
X215458025Y-195736185D01*
X215458025Y-195736185D02*
X215600883Y-195664757D01*
X215600883Y-195664757D02*
X215958025Y-195664757D01*
X215958025Y-195664757D02*
X216100883Y-195736185D01*
X216100883Y-195736185D02*
X216172311Y-195807614D01*
X216172311Y-195807614D02*
X216243740Y-195950471D01*
X216243740Y-195950471D02*
X216243740Y-196307614D01*
X216243740Y-196307614D02*
X216172311Y-196450471D01*
X216172311Y-196450471D02*
X216100883Y-196521900D01*
X216100883Y-196521900D02*
X215958025Y-196593328D01*
X215958025Y-196593328D02*
X215600883Y-196593328D01*
X215600883Y-196593328D02*
X215458025Y-196521900D01*
X215458025Y-196521900D02*
X215386597Y-196450471D01*
X217100882Y-195736185D02*
X216958025Y-195664757D01*
X216958025Y-195664757D02*
X216886596Y-195593328D01*
X216886596Y-195593328D02*
X216815168Y-195450471D01*
X216815168Y-195450471D02*
X216815168Y-195379042D01*
X216815168Y-195379042D02*
X216886596Y-195236185D01*
X216886596Y-195236185D02*
X216958025Y-195164757D01*
X216958025Y-195164757D02*
X217100882Y-195093328D01*
X217100882Y-195093328D02*
X217386596Y-195093328D01*
X217386596Y-195093328D02*
X217529454Y-195164757D01*
X217529454Y-195164757D02*
X217600882Y-195236185D01*
X217600882Y-195236185D02*
X217672311Y-195379042D01*
X217672311Y-195379042D02*
X217672311Y-195450471D01*
X217672311Y-195450471D02*
X217600882Y-195593328D01*
X217600882Y-195593328D02*
X217529454Y-195664757D01*
X217529454Y-195664757D02*
X217386596Y-195736185D01*
X217386596Y-195736185D02*
X217100882Y-195736185D01*
X217100882Y-195736185D02*
X216958025Y-195807614D01*
X216958025Y-195807614D02*
X216886596Y-195879042D01*
X216886596Y-195879042D02*
X216815168Y-196021900D01*
X216815168Y-196021900D02*
X216815168Y-196307614D01*
X216815168Y-196307614D02*
X216886596Y-196450471D01*
X216886596Y-196450471D02*
X216958025Y-196521900D01*
X216958025Y-196521900D02*
X217100882Y-196593328D01*
X217100882Y-196593328D02*
X217386596Y-196593328D01*
X217386596Y-196593328D02*
X217529454Y-196521900D01*
X217529454Y-196521900D02*
X217600882Y-196450471D01*
X217600882Y-196450471D02*
X217672311Y-196307614D01*
X217672311Y-196307614D02*
X217672311Y-196021900D01*
X217672311Y-196021900D02*
X217600882Y-195879042D01*
X217600882Y-195879042D02*
X217529454Y-195807614D01*
X217529454Y-195807614D02*
X217386596Y-195736185D01*
X218100882Y-195593328D02*
X218672310Y-195593328D01*
X218315167Y-196593328D02*
X218315167Y-195307614D01*
X218315167Y-195307614D02*
X218386596Y-195164757D01*
X218386596Y-195164757D02*
X218529453Y-195093328D01*
X218529453Y-195093328D02*
X218672310Y-195093328D01*
X219815168Y-196593328D02*
X219815168Y-195807614D01*
X219815168Y-195807614D02*
X219743739Y-195664757D01*
X219743739Y-195664757D02*
X219600882Y-195593328D01*
X219600882Y-195593328D02*
X219315168Y-195593328D01*
X219315168Y-195593328D02*
X219172310Y-195664757D01*
X219815168Y-196521900D02*
X219672310Y-196593328D01*
X219672310Y-196593328D02*
X219315168Y-196593328D01*
X219315168Y-196593328D02*
X219172310Y-196521900D01*
X219172310Y-196521900D02*
X219100882Y-196379042D01*
X219100882Y-196379042D02*
X219100882Y-196236185D01*
X219100882Y-196236185D02*
X219172310Y-196093328D01*
X219172310Y-196093328D02*
X219315168Y-196021900D01*
X219315168Y-196021900D02*
X219672310Y-196021900D01*
X219672310Y-196021900D02*
X219815168Y-195950471D01*
X221172311Y-196593328D02*
X221172311Y-195807614D01*
X221172311Y-195807614D02*
X221100882Y-195664757D01*
X221100882Y-195664757D02*
X220958025Y-195593328D01*
X220958025Y-195593328D02*
X220672311Y-195593328D01*
X220672311Y-195593328D02*
X220529453Y-195664757D01*
X221172311Y-196521900D02*
X221029453Y-196593328D01*
X221029453Y-196593328D02*
X220672311Y-196593328D01*
X220672311Y-196593328D02*
X220529453Y-196521900D01*
X220529453Y-196521900D02*
X220458025Y-196379042D01*
X220458025Y-196379042D02*
X220458025Y-196236185D01*
X220458025Y-196236185D02*
X220529453Y-196093328D01*
X220529453Y-196093328D02*
X220672311Y-196021900D01*
X220672311Y-196021900D02*
X221029453Y-196021900D01*
X221029453Y-196021900D02*
X221172311Y-195950471D01*
X221743739Y-195093328D02*
X222672311Y-195093328D01*
X222672311Y-195093328D02*
X222172311Y-195664757D01*
X222172311Y-195664757D02*
X222386596Y-195664757D01*
X222386596Y-195664757D02*
X222529454Y-195736185D01*
X222529454Y-195736185D02*
X222600882Y-195807614D01*
X222600882Y-195807614D02*
X222672311Y-195950471D01*
X222672311Y-195950471D02*
X222672311Y-196307614D01*
X222672311Y-196307614D02*
X222600882Y-196450471D01*
X222600882Y-196450471D02*
X222529454Y-196521900D01*
X222529454Y-196521900D02*
X222386596Y-196593328D01*
X222386596Y-196593328D02*
X221958025Y-196593328D01*
X221958025Y-196593328D02*
X221815168Y-196521900D01*
X221815168Y-196521900D02*
X221743739Y-196450471D01*
X223600882Y-195093328D02*
X223743739Y-195093328D01*
X223743739Y-195093328D02*
X223886596Y-195164757D01*
X223886596Y-195164757D02*
X223958025Y-195236185D01*
X223958025Y-195236185D02*
X224029453Y-195379042D01*
X224029453Y-195379042D02*
X224100882Y-195664757D01*
X224100882Y-195664757D02*
X224100882Y-196021900D01*
X224100882Y-196021900D02*
X224029453Y-196307614D01*
X224029453Y-196307614D02*
X223958025Y-196450471D01*
X223958025Y-196450471D02*
X223886596Y-196521900D01*
X223886596Y-196521900D02*
X223743739Y-196593328D01*
X223743739Y-196593328D02*
X223600882Y-196593328D01*
X223600882Y-196593328D02*
X223458025Y-196521900D01*
X223458025Y-196521900D02*
X223386596Y-196450471D01*
X223386596Y-196450471D02*
X223315167Y-196307614D01*
X223315167Y-196307614D02*
X223243739Y-196021900D01*
X223243739Y-196021900D02*
X223243739Y-195664757D01*
X223243739Y-195664757D02*
X223315167Y-195379042D01*
X223315167Y-195379042D02*
X223386596Y-195236185D01*
X223386596Y-195236185D02*
X223458025Y-195164757D01*
X223458025Y-195164757D02*
X223600882Y-195093328D01*
D10*
D11*
X177002200Y-191507200D02*
X285002200Y-191507200D01*
D10*
D12*
X264413853Y-193785528D02*
X263913853Y-193071242D01*
X263556710Y-193785528D02*
X263556710Y-192285528D01*
X263556710Y-192285528D02*
X264128139Y-192285528D01*
X264128139Y-192285528D02*
X264270996Y-192356957D01*
X264270996Y-192356957D02*
X264342425Y-192428385D01*
X264342425Y-192428385D02*
X264413853Y-192571242D01*
X264413853Y-192571242D02*
X264413853Y-192785528D01*
X264413853Y-192785528D02*
X264342425Y-192928385D01*
X264342425Y-192928385D02*
X264270996Y-192999814D01*
X264270996Y-192999814D02*
X264128139Y-193071242D01*
X264128139Y-193071242D02*
X263556710Y-193071242D01*
X265628139Y-193714100D02*
X265485282Y-193785528D01*
X265485282Y-193785528D02*
X265199568Y-193785528D01*
X265199568Y-193785528D02*
X265056710Y-193714100D01*
X265056710Y-193714100D02*
X264985282Y-193571242D01*
X264985282Y-193571242D02*
X264985282Y-192999814D01*
X264985282Y-192999814D02*
X265056710Y-192856957D01*
X265056710Y-192856957D02*
X265199568Y-192785528D01*
X265199568Y-192785528D02*
X265485282Y-192785528D01*
X265485282Y-192785528D02*
X265628139Y-192856957D01*
X265628139Y-192856957D02*
X265699568Y-192999814D01*
X265699568Y-192999814D02*
X265699568Y-193142671D01*
X265699568Y-193142671D02*
X264985282Y-193285528D01*
X266199567Y-192785528D02*
X266556710Y-193785528D01*
X266556710Y-193785528D02*
X266913853Y-192785528D01*
X267485281Y-193642671D02*
X267556710Y-193714100D01*
X267556710Y-193714100D02*
X267485281Y-193785528D01*
X267485281Y-193785528D02*
X267413853Y-193714100D01*
X267413853Y-193714100D02*
X267485281Y-193642671D01*
X267485281Y-193642671D02*
X267485281Y-193785528D01*
X267485281Y-192856957D02*
X267556710Y-192928385D01*
X267556710Y-192928385D02*
X267485281Y-192999814D01*
X267485281Y-192999814D02*
X267413853Y-192928385D01*
X267413853Y-192928385D02*
X267485281Y-192856957D01*
X267485281Y-192856957D02*
X267485281Y-192999814D01*
D10*
D11*
X178386598Y-193721900D02*
X178600884Y-193793328D01*
X178600884Y-193793328D02*
X178958026Y-193793328D01*
X178958026Y-193793328D02*
X179100884Y-193721900D01*
X179100884Y-193721900D02*
X179172312Y-193650471D01*
X179172312Y-193650471D02*
X179243741Y-193507614D01*
X179243741Y-193507614D02*
X179243741Y-193364757D01*
X179243741Y-193364757D02*
X179172312Y-193221900D01*
X179172312Y-193221900D02*
X179100884Y-193150471D01*
X179100884Y-193150471D02*
X178958026Y-193079042D01*
X178958026Y-193079042D02*
X178672312Y-193007614D01*
X178672312Y-193007614D02*
X178529455Y-192936185D01*
X178529455Y-192936185D02*
X178458026Y-192864757D01*
X178458026Y-192864757D02*
X178386598Y-192721900D01*
X178386598Y-192721900D02*
X178386598Y-192579042D01*
X178386598Y-192579042D02*
X178458026Y-192436185D01*
X178458026Y-192436185D02*
X178529455Y-192364757D01*
X178529455Y-192364757D02*
X178672312Y-192293328D01*
X178672312Y-192293328D02*
X179029455Y-192293328D01*
X179029455Y-192293328D02*
X179243741Y-192364757D01*
X179886597Y-193793328D02*
X179886597Y-192793328D01*
X179886597Y-192293328D02*
X179815169Y-192364757D01*
X179815169Y-192364757D02*
X179886597Y-192436185D01*
X179886597Y-192436185D02*
X179958026Y-192364757D01*
X179958026Y-192364757D02*
X179886597Y-192293328D01*
X179886597Y-192293328D02*
X179886597Y-192436185D01*
X180458026Y-192793328D02*
X181243741Y-192793328D01*
X181243741Y-192793328D02*
X180458026Y-193793328D01*
X180458026Y-193793328D02*
X181243741Y-193793328D01*
X182386598Y-193721900D02*
X182243741Y-193793328D01*
X182243741Y-193793328D02*
X181958027Y-193793328D01*
X181958027Y-193793328D02*
X181815169Y-193721900D01*
X181815169Y-193721900D02*
X181743741Y-193579042D01*
X181743741Y-193579042D02*
X181743741Y-193007614D01*
X181743741Y-193007614D02*
X181815169Y-192864757D01*
X181815169Y-192864757D02*
X181958027Y-192793328D01*
X181958027Y-192793328D02*
X182243741Y-192793328D01*
X182243741Y-192793328D02*
X182386598Y-192864757D01*
X182386598Y-192864757D02*
X182458027Y-193007614D01*
X182458027Y-193007614D02*
X182458027Y-193150471D01*
X182458027Y-193150471D02*
X181743741Y-193293328D01*
X183100883Y-193650471D02*
X183172312Y-193721900D01*
X183172312Y-193721900D02*
X183100883Y-193793328D01*
X183100883Y-193793328D02*
X183029455Y-193721900D01*
X183029455Y-193721900D02*
X183100883Y-193650471D01*
X183100883Y-193650471D02*
X183100883Y-193793328D01*
X183100883Y-192864757D02*
X183172312Y-192936185D01*
X183172312Y-192936185D02*
X183100883Y-193007614D01*
X183100883Y-193007614D02*
X183029455Y-192936185D01*
X183029455Y-192936185D02*
X183100883Y-192864757D01*
X183100883Y-192864757D02*
X183100883Y-193007614D01*
X184886598Y-193364757D02*
X185600884Y-193364757D01*
X184743741Y-193793328D02*
X185243741Y-192293328D01*
X185243741Y-192293328D02*
X185743741Y-193793328D01*
X186886598Y-192793328D02*
X186886598Y-193793328D01*
X186529455Y-192221900D02*
X186172312Y-193293328D01*
X186172312Y-193293328D02*
X187100883Y-193293328D01*
D10*
D11*
X263458026Y-196593328D02*
X263458026Y-195093328D01*
X264815170Y-196593328D02*
X264815170Y-195093328D01*
X264815170Y-196521900D02*
X264672312Y-196593328D01*
X264672312Y-196593328D02*
X264386598Y-196593328D01*
X264386598Y-196593328D02*
X264243741Y-196521900D01*
X264243741Y-196521900D02*
X264172312Y-196450471D01*
X264172312Y-196450471D02*
X264100884Y-196307614D01*
X264100884Y-196307614D02*
X264100884Y-195879042D01*
X264100884Y-195879042D02*
X264172312Y-195736185D01*
X264172312Y-195736185D02*
X264243741Y-195664757D01*
X264243741Y-195664757D02*
X264386598Y-195593328D01*
X264386598Y-195593328D02*
X264672312Y-195593328D01*
X264672312Y-195593328D02*
X264815170Y-195664757D01*
X265529455Y-196450471D02*
X265600884Y-196521900D01*
X265600884Y-196521900D02*
X265529455Y-196593328D01*
X265529455Y-196593328D02*
X265458027Y-196521900D01*
X265458027Y-196521900D02*
X265529455Y-196450471D01*
X265529455Y-196450471D02*
X265529455Y-196593328D01*
X265529455Y-195664757D02*
X265600884Y-195736185D01*
X265600884Y-195736185D02*
X265529455Y-195807614D01*
X265529455Y-195807614D02*
X265458027Y-195736185D01*
X265458027Y-195736185D02*
X265529455Y-195664757D01*
X265529455Y-195664757D02*
X265529455Y-195807614D01*
X268172313Y-196593328D02*
X267315170Y-196593328D01*
X267743741Y-196593328D02*
X267743741Y-195093328D01*
X267743741Y-195093328D02*
X267600884Y-195307614D01*
X267600884Y-195307614D02*
X267458027Y-195450471D01*
X267458027Y-195450471D02*
X267315170Y-195521900D01*
X269886598Y-195021900D02*
X268600884Y-196950471D01*
X271172313Y-196593328D02*
X270315170Y-196593328D01*
X270743741Y-196593328D02*
X270743741Y-195093328D01*
X270743741Y-195093328D02*
X270600884Y-195307614D01*
X270600884Y-195307614D02*
X270458027Y-195450471D01*
X270458027Y-195450471D02*
X270315170Y-195521900D01*
D10*
D11*
X177002200Y-187507200D02*
X285002200Y-187507200D01*
D10*
D13*
X178693928Y-188211638D02*
X179836785Y-188211638D01*
X179015357Y-190211638D02*
X179265357Y-188211638D01*
X180253452Y-190211638D02*
X180420119Y-188878304D01*
X180503452Y-188211638D02*
X180396309Y-188306876D01*
X180396309Y-188306876D02*
X180479643Y-188402114D01*
X180479643Y-188402114D02*
X180586786Y-188306876D01*
X180586786Y-188306876D02*
X180503452Y-188211638D01*
X180503452Y-188211638D02*
X180479643Y-188402114D01*
X181086786Y-188878304D02*
X181848690Y-188878304D01*
X181455833Y-188211638D02*
X181241548Y-189925923D01*
X181241548Y-189925923D02*
X181312976Y-190116400D01*
X181312976Y-190116400D02*
X181491548Y-190211638D01*
X181491548Y-190211638D02*
X181682024Y-190211638D01*
X182634405Y-190211638D02*
X182455833Y-190116400D01*
X182455833Y-190116400D02*
X182384405Y-189925923D01*
X182384405Y-189925923D02*
X182598690Y-188211638D01*
X184170119Y-190116400D02*
X183967738Y-190211638D01*
X183967738Y-190211638D02*
X183586785Y-190211638D01*
X183586785Y-190211638D02*
X183408214Y-190116400D01*
X183408214Y-190116400D02*
X183336785Y-189925923D01*
X183336785Y-189925923D02*
X183432024Y-189164019D01*
X183432024Y-189164019D02*
X183551071Y-188973542D01*
X183551071Y-188973542D02*
X183753452Y-188878304D01*
X183753452Y-188878304D02*
X184134404Y-188878304D01*
X184134404Y-188878304D02*
X184312976Y-188973542D01*
X184312976Y-188973542D02*
X184384404Y-189164019D01*
X184384404Y-189164019D02*
X184360595Y-189354495D01*
X184360595Y-189354495D02*
X183384404Y-189544971D01*
X185134405Y-190021161D02*
X185217738Y-190116400D01*
X185217738Y-190116400D02*
X185110595Y-190211638D01*
X185110595Y-190211638D02*
X185027262Y-190116400D01*
X185027262Y-190116400D02*
X185134405Y-190021161D01*
X185134405Y-190021161D02*
X185110595Y-190211638D01*
X185265357Y-188973542D02*
X185348690Y-189068780D01*
X185348690Y-189068780D02*
X185241548Y-189164019D01*
X185241548Y-189164019D02*
X185158214Y-189068780D01*
X185158214Y-189068780D02*
X185265357Y-188973542D01*
X185265357Y-188973542D02*
X185241548Y-189164019D01*
D10*
D11*
X178958026Y-185607614D02*
X178458026Y-185607614D01*
X178458026Y-186393328D02*
X178458026Y-184893328D01*
X178458026Y-184893328D02*
X179172312Y-184893328D01*
X179743740Y-186393328D02*
X179743740Y-185393328D01*
X179743740Y-184893328D02*
X179672312Y-184964757D01*
X179672312Y-184964757D02*
X179743740Y-185036185D01*
X179743740Y-185036185D02*
X179815169Y-184964757D01*
X179815169Y-184964757D02*
X179743740Y-184893328D01*
X179743740Y-184893328D02*
X179743740Y-185036185D01*
X180672312Y-186393328D02*
X180529455Y-186321900D01*
X180529455Y-186321900D02*
X180458026Y-186179042D01*
X180458026Y-186179042D02*
X180458026Y-184893328D01*
X181815169Y-186321900D02*
X181672312Y-186393328D01*
X181672312Y-186393328D02*
X181386598Y-186393328D01*
X181386598Y-186393328D02*
X181243740Y-186321900D01*
X181243740Y-186321900D02*
X181172312Y-186179042D01*
X181172312Y-186179042D02*
X181172312Y-185607614D01*
X181172312Y-185607614D02*
X181243740Y-185464757D01*
X181243740Y-185464757D02*
X181386598Y-185393328D01*
X181386598Y-185393328D02*
X181672312Y-185393328D01*
X181672312Y-185393328D02*
X181815169Y-185464757D01*
X181815169Y-185464757D02*
X181886598Y-185607614D01*
X181886598Y-185607614D02*
X181886598Y-185750471D01*
X181886598Y-185750471D02*
X181172312Y-185893328D01*
X182529454Y-186250471D02*
X182600883Y-186321900D01*
X182600883Y-186321900D02*
X182529454Y-186393328D01*
X182529454Y-186393328D02*
X182458026Y-186321900D01*
X182458026Y-186321900D02*
X182529454Y-186250471D01*
X182529454Y-186250471D02*
X182529454Y-186393328D01*
X182529454Y-185464757D02*
X182600883Y-185536185D01*
X182600883Y-185536185D02*
X182529454Y-185607614D01*
X182529454Y-185607614D02*
X182458026Y-185536185D01*
X182458026Y-185536185D02*
X182529454Y-185464757D01*
X182529454Y-185464757D02*
X182529454Y-185607614D01*
X184243740Y-186393328D02*
X185029455Y-185393328D01*
X184243740Y-185393328D02*
X185029455Y-186393328D01*
X185600883Y-186393328D02*
X185600883Y-185393328D01*
X185600883Y-185536185D02*
X185672312Y-185464757D01*
X185672312Y-185464757D02*
X185815169Y-185393328D01*
X185815169Y-185393328D02*
X186029455Y-185393328D01*
X186029455Y-185393328D02*
X186172312Y-185464757D01*
X186172312Y-185464757D02*
X186243741Y-185607614D01*
X186243741Y-185607614D02*
X186243741Y-186393328D01*
X186243741Y-185607614D02*
X186315169Y-185464757D01*
X186315169Y-185464757D02*
X186458026Y-185393328D01*
X186458026Y-185393328D02*
X186672312Y-185393328D01*
X186672312Y-185393328D02*
X186815169Y-185464757D01*
X186815169Y-185464757D02*
X186886598Y-185607614D01*
X186886598Y-185607614D02*
X186886598Y-186393328D01*
X188243741Y-186393328D02*
X188243741Y-185607614D01*
X188243741Y-185607614D02*
X188172312Y-185464757D01*
X188172312Y-185464757D02*
X188029455Y-185393328D01*
X188029455Y-185393328D02*
X187743741Y-185393328D01*
X187743741Y-185393328D02*
X187600883Y-185464757D01*
X188243741Y-186321900D02*
X188100883Y-186393328D01*
X188100883Y-186393328D02*
X187743741Y-186393328D01*
X187743741Y-186393328D02*
X187600883Y-186321900D01*
X187600883Y-186321900D02*
X187529455Y-186179042D01*
X187529455Y-186179042D02*
X187529455Y-186036185D01*
X187529455Y-186036185D02*
X187600883Y-185893328D01*
X187600883Y-185893328D02*
X187743741Y-185821900D01*
X187743741Y-185821900D02*
X188100883Y-185821900D01*
X188100883Y-185821900D02*
X188243741Y-185750471D01*
X188886598Y-186321900D02*
X189029455Y-186393328D01*
X189029455Y-186393328D02*
X189315169Y-186393328D01*
X189315169Y-186393328D02*
X189458026Y-186321900D01*
X189458026Y-186321900D02*
X189529455Y-186179042D01*
X189529455Y-186179042D02*
X189529455Y-186107614D01*
X189529455Y-186107614D02*
X189458026Y-185964757D01*
X189458026Y-185964757D02*
X189315169Y-185893328D01*
X189315169Y-185893328D02*
X189100884Y-185893328D01*
X189100884Y-185893328D02*
X188958026Y-185821900D01*
X188958026Y-185821900D02*
X188886598Y-185679042D01*
X188886598Y-185679042D02*
X188886598Y-185607614D01*
X188886598Y-185607614D02*
X188958026Y-185464757D01*
X188958026Y-185464757D02*
X189100884Y-185393328D01*
X189100884Y-185393328D02*
X189315169Y-185393328D01*
X189315169Y-185393328D02*
X189458026Y-185464757D01*
X189815170Y-186536185D02*
X190958027Y-186536185D01*
X191100884Y-185393328D02*
X191672312Y-185393328D01*
X191315169Y-184893328D02*
X191315169Y-186179042D01*
X191315169Y-186179042D02*
X191386598Y-186321900D01*
X191386598Y-186321900D02*
X191529455Y-186393328D01*
X191529455Y-186393328D02*
X191672312Y-186393328D01*
X192172312Y-186393328D02*
X192172312Y-185393328D01*
X192172312Y-185679042D02*
X192243741Y-185536185D01*
X192243741Y-185536185D02*
X192315170Y-185464757D01*
X192315170Y-185464757D02*
X192458027Y-185393328D01*
X192458027Y-185393328D02*
X192600884Y-185393328D01*
X193672312Y-186321900D02*
X193529455Y-186393328D01*
X193529455Y-186393328D02*
X193243741Y-186393328D01*
X193243741Y-186393328D02*
X193100883Y-186321900D01*
X193100883Y-186321900D02*
X193029455Y-186179042D01*
X193029455Y-186179042D02*
X193029455Y-185607614D01*
X193029455Y-185607614D02*
X193100883Y-185464757D01*
X193100883Y-185464757D02*
X193243741Y-185393328D01*
X193243741Y-185393328D02*
X193529455Y-185393328D01*
X193529455Y-185393328D02*
X193672312Y-185464757D01*
X193672312Y-185464757D02*
X193743741Y-185607614D01*
X193743741Y-185607614D02*
X193743741Y-185750471D01*
X193743741Y-185750471D02*
X193029455Y-185893328D01*
X194958026Y-186321900D02*
X194815169Y-186393328D01*
X194815169Y-186393328D02*
X194529455Y-186393328D01*
X194529455Y-186393328D02*
X194386597Y-186321900D01*
X194386597Y-186321900D02*
X194315169Y-186179042D01*
X194315169Y-186179042D02*
X194315169Y-185607614D01*
X194315169Y-185607614D02*
X194386597Y-185464757D01*
X194386597Y-185464757D02*
X194529455Y-185393328D01*
X194529455Y-185393328D02*
X194815169Y-185393328D01*
X194815169Y-185393328D02*
X194958026Y-185464757D01*
X194958026Y-185464757D02*
X195029455Y-185607614D01*
X195029455Y-185607614D02*
X195029455Y-185750471D01*
X195029455Y-185750471D02*
X194315169Y-185893328D01*
X195672311Y-186250471D02*
X195743740Y-186321900D01*
X195743740Y-186321900D02*
X195672311Y-186393328D01*
X195672311Y-186393328D02*
X195600883Y-186321900D01*
X195600883Y-186321900D02*
X195672311Y-186250471D01*
X195672311Y-186250471D02*
X195672311Y-186393328D01*
X196386597Y-186393328D02*
X196386597Y-184893328D01*
X196529455Y-185821900D02*
X196958026Y-186393328D01*
X196958026Y-185393328D02*
X196386597Y-185964757D01*
X197600883Y-186393328D02*
X197600883Y-185393328D01*
X197600883Y-184893328D02*
X197529455Y-184964757D01*
X197529455Y-184964757D02*
X197600883Y-185036185D01*
X197600883Y-185036185D02*
X197672312Y-184964757D01*
X197672312Y-184964757D02*
X197600883Y-184893328D01*
X197600883Y-184893328D02*
X197600883Y-185036185D01*
X198958027Y-186321900D02*
X198815169Y-186393328D01*
X198815169Y-186393328D02*
X198529455Y-186393328D01*
X198529455Y-186393328D02*
X198386598Y-186321900D01*
X198386598Y-186321900D02*
X198315169Y-186250471D01*
X198315169Y-186250471D02*
X198243741Y-186107614D01*
X198243741Y-186107614D02*
X198243741Y-185679042D01*
X198243741Y-185679042D02*
X198315169Y-185536185D01*
X198315169Y-185536185D02*
X198386598Y-185464757D01*
X198386598Y-185464757D02*
X198529455Y-185393328D01*
X198529455Y-185393328D02*
X198815169Y-185393328D01*
X198815169Y-185393328D02*
X198958027Y-185464757D01*
X200243741Y-186393328D02*
X200243741Y-185607614D01*
X200243741Y-185607614D02*
X200172312Y-185464757D01*
X200172312Y-185464757D02*
X200029455Y-185393328D01*
X200029455Y-185393328D02*
X199743741Y-185393328D01*
X199743741Y-185393328D02*
X199600883Y-185464757D01*
X200243741Y-186321900D02*
X200100883Y-186393328D01*
X200100883Y-186393328D02*
X199743741Y-186393328D01*
X199743741Y-186393328D02*
X199600883Y-186321900D01*
X199600883Y-186321900D02*
X199529455Y-186179042D01*
X199529455Y-186179042D02*
X199529455Y-186036185D01*
X199529455Y-186036185D02*
X199600883Y-185893328D01*
X199600883Y-185893328D02*
X199743741Y-185821900D01*
X199743741Y-185821900D02*
X200100883Y-185821900D01*
X200100883Y-185821900D02*
X200243741Y-185750471D01*
X201600884Y-186393328D02*
X201600884Y-184893328D01*
X201600884Y-186321900D02*
X201458026Y-186393328D01*
X201458026Y-186393328D02*
X201172312Y-186393328D01*
X201172312Y-186393328D02*
X201029455Y-186321900D01*
X201029455Y-186321900D02*
X200958026Y-186250471D01*
X200958026Y-186250471D02*
X200886598Y-186107614D01*
X200886598Y-186107614D02*
X200886598Y-185679042D01*
X200886598Y-185679042D02*
X200958026Y-185536185D01*
X200958026Y-185536185D02*
X201029455Y-185464757D01*
X201029455Y-185464757D02*
X201172312Y-185393328D01*
X201172312Y-185393328D02*
X201458026Y-185393328D01*
X201458026Y-185393328D02*
X201600884Y-185464757D01*
X201958027Y-186536185D02*
X203100884Y-186536185D01*
X203458026Y-185393328D02*
X203458026Y-186893328D01*
X203458026Y-185464757D02*
X203600884Y-185393328D01*
X203600884Y-185393328D02*
X203886598Y-185393328D01*
X203886598Y-185393328D02*
X204029455Y-185464757D01*
X204029455Y-185464757D02*
X204100884Y-185536185D01*
X204100884Y-185536185D02*
X204172312Y-185679042D01*
X204172312Y-185679042D02*
X204172312Y-186107614D01*
X204172312Y-186107614D02*
X204100884Y-186250471D01*
X204100884Y-186250471D02*
X204029455Y-186321900D01*
X204029455Y-186321900D02*
X203886598Y-186393328D01*
X203886598Y-186393328D02*
X203600884Y-186393328D01*
X203600884Y-186393328D02*
X203458026Y-186321900D01*
X205458027Y-186321900D02*
X205315169Y-186393328D01*
X205315169Y-186393328D02*
X205029455Y-186393328D01*
X205029455Y-186393328D02*
X204886598Y-186321900D01*
X204886598Y-186321900D02*
X204815169Y-186250471D01*
X204815169Y-186250471D02*
X204743741Y-186107614D01*
X204743741Y-186107614D02*
X204743741Y-185679042D01*
X204743741Y-185679042D02*
X204815169Y-185536185D01*
X204815169Y-185536185D02*
X204886598Y-185464757D01*
X204886598Y-185464757D02*
X205029455Y-185393328D01*
X205029455Y-185393328D02*
X205315169Y-185393328D01*
X205315169Y-185393328D02*
X205458027Y-185464757D01*
X206100883Y-186393328D02*
X206100883Y-184893328D01*
X206100883Y-185464757D02*
X206243741Y-185393328D01*
X206243741Y-185393328D02*
X206529455Y-185393328D01*
X206529455Y-185393328D02*
X206672312Y-185464757D01*
X206672312Y-185464757D02*
X206743741Y-185536185D01*
X206743741Y-185536185D02*
X206815169Y-185679042D01*
X206815169Y-185679042D02*
X206815169Y-186107614D01*
X206815169Y-186107614D02*
X206743741Y-186250471D01*
X206743741Y-186250471D02*
X206672312Y-186321900D01*
X206672312Y-186321900D02*
X206529455Y-186393328D01*
X206529455Y-186393328D02*
X206243741Y-186393328D01*
X206243741Y-186393328D02*
X206100883Y-186321900D01*
D10*
D11*
X177002200Y-181507200D02*
X285002200Y-181507200D01*
D10*
D11*
X178386598Y-183621900D02*
X178600884Y-183693328D01*
X178600884Y-183693328D02*
X178958026Y-183693328D01*
X178958026Y-183693328D02*
X179100884Y-183621900D01*
X179100884Y-183621900D02*
X179172312Y-183550471D01*
X179172312Y-183550471D02*
X179243741Y-183407614D01*
X179243741Y-183407614D02*
X179243741Y-183264757D01*
X179243741Y-183264757D02*
X179172312Y-183121900D01*
X179172312Y-183121900D02*
X179100884Y-183050471D01*
X179100884Y-183050471D02*
X178958026Y-182979042D01*
X178958026Y-182979042D02*
X178672312Y-182907614D01*
X178672312Y-182907614D02*
X178529455Y-182836185D01*
X178529455Y-182836185D02*
X178458026Y-182764757D01*
X178458026Y-182764757D02*
X178386598Y-182621900D01*
X178386598Y-182621900D02*
X178386598Y-182479042D01*
X178386598Y-182479042D02*
X178458026Y-182336185D01*
X178458026Y-182336185D02*
X178529455Y-182264757D01*
X178529455Y-182264757D02*
X178672312Y-182193328D01*
X178672312Y-182193328D02*
X179029455Y-182193328D01*
X179029455Y-182193328D02*
X179243741Y-182264757D01*
X179886597Y-183693328D02*
X179886597Y-182193328D01*
X180529455Y-183693328D02*
X180529455Y-182907614D01*
X180529455Y-182907614D02*
X180458026Y-182764757D01*
X180458026Y-182764757D02*
X180315169Y-182693328D01*
X180315169Y-182693328D02*
X180100883Y-182693328D01*
X180100883Y-182693328D02*
X179958026Y-182764757D01*
X179958026Y-182764757D02*
X179886597Y-182836185D01*
X181815169Y-183621900D02*
X181672312Y-183693328D01*
X181672312Y-183693328D02*
X181386598Y-183693328D01*
X181386598Y-183693328D02*
X181243740Y-183621900D01*
X181243740Y-183621900D02*
X181172312Y-183479042D01*
X181172312Y-183479042D02*
X181172312Y-182907614D01*
X181172312Y-182907614D02*
X181243740Y-182764757D01*
X181243740Y-182764757D02*
X181386598Y-182693328D01*
X181386598Y-182693328D02*
X181672312Y-182693328D01*
X181672312Y-182693328D02*
X181815169Y-182764757D01*
X181815169Y-182764757D02*
X181886598Y-182907614D01*
X181886598Y-182907614D02*
X181886598Y-183050471D01*
X181886598Y-183050471D02*
X181172312Y-183193328D01*
X183100883Y-183621900D02*
X182958026Y-183693328D01*
X182958026Y-183693328D02*
X182672312Y-183693328D01*
X182672312Y-183693328D02*
X182529454Y-183621900D01*
X182529454Y-183621900D02*
X182458026Y-183479042D01*
X182458026Y-183479042D02*
X182458026Y-182907614D01*
X182458026Y-182907614D02*
X182529454Y-182764757D01*
X182529454Y-182764757D02*
X182672312Y-182693328D01*
X182672312Y-182693328D02*
X182958026Y-182693328D01*
X182958026Y-182693328D02*
X183100883Y-182764757D01*
X183100883Y-182764757D02*
X183172312Y-182907614D01*
X183172312Y-182907614D02*
X183172312Y-183050471D01*
X183172312Y-183050471D02*
X182458026Y-183193328D01*
X183600883Y-182693328D02*
X184172311Y-182693328D01*
X183815168Y-182193328D02*
X183815168Y-183479042D01*
X183815168Y-183479042D02*
X183886597Y-183621900D01*
X183886597Y-183621900D02*
X184029454Y-183693328D01*
X184029454Y-183693328D02*
X184172311Y-183693328D01*
X184672311Y-183550471D02*
X184743740Y-183621900D01*
X184743740Y-183621900D02*
X184672311Y-183693328D01*
X184672311Y-183693328D02*
X184600883Y-183621900D01*
X184600883Y-183621900D02*
X184672311Y-183550471D01*
X184672311Y-183550471D02*
X184672311Y-183693328D01*
X184672311Y-182764757D02*
X184743740Y-182836185D01*
X184743740Y-182836185D02*
X184672311Y-182907614D01*
X184672311Y-182907614D02*
X184600883Y-182836185D01*
X184600883Y-182836185D02*
X184672311Y-182764757D01*
X184672311Y-182764757D02*
X184672311Y-182907614D01*
D10*
D11*
X197002200Y-191507200D02*
X197002200Y-194507200D01*
D10*
D11*
X261002200Y-191507200D02*
X261002200Y-198007200D01*
D14*
%TO.C,BATTERY_1*%
X145326100Y-113658600D02*
X145326100Y-109848600D01*
X151676100Y-109848600D02*
X151676100Y-113658600D01*
X151676100Y-113658600D02*
X145326100Y-113658600D01*
X159423100Y-99434600D02*
G75*
G02*
X137579100Y-99434600I-10922000J0D01*
G01*
X137579100Y-99434600D02*
G75*
G02*
X159423100Y-99434600I10922000J0D01*
G01*
%TD*%
D15*
%TO.P,D4,A*%
%TO.N,N$6*%
X148535100Y-75053600D03*
%TO.P,D4,K*%
%TO.N,GND*%
X148535100Y-72513600D03*
%TD*%
%TO.P,D2,A*%
%TO.N,VCC*%
X172027074Y-121005574D03*
%TO.P,D2,K*%
%TO.N,L1*%
X173823126Y-122801626D03*
%TD*%
D16*
%TO.P,U1,1*%
%TO.N,RST*%
X152071100Y-121568600D03*
%TO.P,U1,2*%
%TO.N,T1*%
X152071100Y-119028600D03*
%TO.P,U1,3*%
%TO.N,T2*%
X152071100Y-116488600D03*
%TO.P,U1,4*%
%TO.N,GND*%
X152071100Y-113948600D03*
%TO.P,U1,5*%
%TO.N,MOSI/TOP*%
X144451100Y-113948600D03*
%TO.P,U1,6*%
%TO.N,MISO/T3*%
X144451100Y-116488600D03*
%TO.P,U1,7*%
%TO.N,SCK/SW*%
X144451100Y-119028600D03*
%TO.P,U1,8*%
%TO.N,VCC*%
X144451100Y-121568600D03*
%TD*%
D15*
%TO.P,Q2,1*%
%TO.N,GND*%
X161001100Y-118773600D03*
%TO.P,Q2,2*%
%TO.N,T2*%
X159096100Y-117503600D03*
%TO.P,Q2,3*%
%TO.N,N$4*%
X161001100Y-116233600D03*
%TD*%
%TO.P,D5,A*%
%TO.N,VCC*%
X125262126Y-121005574D03*
%TO.P,D5,K*%
%TO.N,L1*%
X123466074Y-122801626D03*
%TD*%
%TO.P,Q1,1*%
%TO.N,GND*%
X136001100Y-116233600D03*
%TO.P,Q1,2*%
%TO.N,MISO/T3*%
X137906100Y-117503600D03*
%TO.P,Q1,3*%
%TO.N,N$2*%
X136001100Y-118773600D03*
%TD*%
%TO.P,Q3,1*%
%TO.N,GND*%
X147231100Y-127503600D03*
%TO.P,Q3,2*%
%TO.N,T1*%
X148501100Y-125598600D03*
%TO.P,Q3,3*%
%TO.N,N$5*%
X149771100Y-127503600D03*
%TD*%
D17*
%TO.P,J1,1*%
%TO.N,MISO/T3*%
X147211100Y-132153600D03*
%TO.P,J1,2*%
%TO.N,VCC*%
X149751100Y-132153600D03*
%TO.P,J1,3*%
%TO.N,SCK/SW*%
X147211100Y-134693600D03*
%TO.P,J1,4*%
%TO.N,MOSI/TOP*%
X149751100Y-134693600D03*
%TO.P,J1,5*%
%TO.N,RST*%
X147211100Y-137233600D03*
%TO.P,J1,6*%
%TO.N,GND*%
X149751100Y-137233600D03*
%TD*%
D18*
%TO.P,U$1,1*%
%TO.N,VCC*%
X145249900Y-81493000D03*
%TO.P,U$1,2*%
%TO.N,N/C*%
X151752300Y-81493000D03*
%TO.P,U$1,3*%
%TO.N,SCK/SW*%
X145249900Y-86014200D03*
%TO.P,U$1,4*%
%TO.N,N$3*%
X151752300Y-86014200D03*
%TD*%
D15*
%TO.P,D6,A*%
%TO.N,VCC*%
X129975126Y-106029574D03*
%TO.P,D6,K*%
%TO.N,L2*%
X128179074Y-107825626D03*
%TD*%
%TO.P,D3,A*%
%TO.N,VCC*%
X166927074Y-106039574D03*
%TO.P,D3,K*%
%TO.N,L2*%
X168723126Y-107835626D03*
%TD*%
%TO.P,D7,A*%
%TO.N,VCC*%
X134975126Y-91005574D03*
%TO.P,D7,K*%
%TO.N,L3*%
X133179074Y-92801626D03*
%TD*%
D19*
%TO.P,BATTERY_1,+*%
%TO.N,VCC*%
X148501100Y-111753600D03*
%TO.P,BATTERY_1,-*%
%TO.N,GND*%
X148501100Y-91433600D03*
%TD*%
D20*
%TO.N,VCC*%
X145634700Y-91839800D03*
X146590400Y-121090800D03*
%TO.N,GND*%
X148369800Y-88843200D03*
%TO.N,MOSI/TOP*%
X137934500Y-112815800D03*
%TO.N,RST*%
X155366100Y-122251400D03*
%TO.N,L2*%
X157752200Y-104819500D03*
%TO.N,L1*%
X160443500Y-114535900D03*
%TD*%
D21*
%TO.N,VCC*%
X147266800Y-120414400D02*
X171435900Y-120414400D01*
X125262100Y-121005600D02*
X125825100Y-121568600D01*
X146590400Y-121090800D02*
X147266800Y-120414400D01*
X161213100Y-111753600D02*
X148501100Y-111753600D01*
X135809300Y-91839800D02*
X145634700Y-91839800D01*
X144451100Y-121568600D02*
X146112600Y-121568600D01*
X129975100Y-106029600D02*
X135699100Y-111753600D01*
X166927100Y-106039600D02*
X161213100Y-111753600D01*
X134975100Y-91005600D02*
X135809300Y-91839800D01*
X125825100Y-121568600D02*
X144451100Y-121568600D01*
X146112600Y-121568600D02*
X146590400Y-121090800D01*
X171435900Y-120414400D02*
X172027100Y-121005600D01*
X143471800Y-82508900D02*
X143471800Y-81493000D01*
X145249900Y-81493000D02*
X143471800Y-81493000D01*
X134975100Y-91005600D02*
X143471800Y-82508900D01*
X135699100Y-111753600D02*
X148501100Y-111753600D01*
%TO.N,MOSI/TOP*%
X142199000Y-112815800D02*
X143331800Y-113948600D01*
X137934500Y-112815800D02*
X142199000Y-112815800D01*
X144451100Y-113948600D02*
X143331800Y-113948600D01*
%TO.N,MISO/T3*%
X138921100Y-116488600D02*
X137906100Y-117503600D01*
X144451100Y-116488600D02*
X138921100Y-116488600D01*
%TO.N,RST*%
X154683300Y-121568600D02*
X155366100Y-122251400D01*
X152071100Y-121568600D02*
X154683300Y-121568600D01*
%TO.N,L2*%
X128179100Y-106121500D02*
X129481100Y-104819500D01*
X128179100Y-107825600D02*
X128179100Y-106121500D01*
X157752200Y-104819500D02*
X167503000Y-104819500D01*
X129481100Y-104819500D02*
X157752200Y-104819500D01*
X167503000Y-104819500D02*
X168723100Y-106039600D01*
X168723100Y-106039600D02*
X168723100Y-107835600D01*
%TO.N,L1*%
X173823100Y-121018900D02*
X167340100Y-114535900D01*
X123470000Y-122805500D02*
X173819200Y-122805500D01*
X173819200Y-122805500D02*
X173823100Y-122801600D01*
X167340100Y-114535900D02*
X160443500Y-114535900D01*
X173823100Y-122801600D02*
X173823100Y-121018900D01*
X123466100Y-122801600D02*
X123470000Y-122805500D01*
%TO.N,T2*%
X152071100Y-116488600D02*
X158081100Y-116488600D01*
X158081100Y-116488600D02*
X159096100Y-117503600D01*
%TD*%
%TA.AperFunction,Conductor*%
%TO.N,GND*%
G36*
X163312559Y-110110099D02*
G01*
X163338023Y-110128599D01*
X163399857Y-110190433D01*
X163399864Y-110190439D01*
X167320690Y-114111265D01*
X167348916Y-114166663D01*
X167339190Y-114228071D01*
X167295226Y-114272035D01*
X167249555Y-114283000D01*
X160872767Y-114283000D01*
X160813636Y-114263787D01*
X160801632Y-114253535D01*
X160721585Y-114173488D01*
X160618314Y-114113864D01*
X160618309Y-114113862D01*
X160503130Y-114083000D01*
X160503125Y-114083000D01*
X160383875Y-114083000D01*
X160383869Y-114083000D01*
X160268690Y-114113862D01*
X160268685Y-114113864D01*
X160165414Y-114173488D01*
X160165413Y-114173490D01*
X160081090Y-114257813D01*
X160081088Y-114257814D01*
X160021464Y-114361085D01*
X160021462Y-114361090D01*
X159990600Y-114476269D01*
X159990600Y-114595530D01*
X160021462Y-114710709D01*
X160021464Y-114710714D01*
X160081088Y-114813985D01*
X160165414Y-114898311D01*
X160265730Y-114956229D01*
X160268687Y-114957936D01*
X160268688Y-114957936D01*
X160268690Y-114957937D01*
X160383869Y-114988799D01*
X160383873Y-114988799D01*
X160383875Y-114988800D01*
X160383877Y-114988800D01*
X160503123Y-114988800D01*
X160503125Y-114988800D01*
X160503127Y-114988799D01*
X160503130Y-114988799D01*
X160618309Y-114957937D01*
X160618308Y-114957937D01*
X160618313Y-114957936D01*
X160721587Y-114898310D01*
X160801632Y-114818265D01*
X160857030Y-114790039D01*
X160872767Y-114788800D01*
X167193676Y-114788800D01*
X167252807Y-114808013D01*
X167264811Y-114818265D01*
X172187684Y-119741139D01*
X172215910Y-119796537D01*
X172206184Y-119857945D01*
X172162220Y-119901909D01*
X172116549Y-119912874D01*
X171941070Y-119912874D01*
X171771205Y-119939778D01*
X171771189Y-119939782D01*
X171607622Y-119992928D01*
X171454373Y-120071013D01*
X171356274Y-120142287D01*
X171297143Y-120161500D01*
X161771616Y-120161500D01*
X161712485Y-120142287D01*
X161675940Y-120091987D01*
X161675940Y-120029813D01*
X161712485Y-119979513D01*
X161725945Y-119971265D01*
X161732864Y-119967739D01*
X161732868Y-119967736D01*
X161910661Y-119838562D01*
X162066062Y-119683161D01*
X162195236Y-119505368D01*
X162295009Y-119309555D01*
X162362918Y-119100553D01*
X162362919Y-119100550D01*
X162378559Y-119001800D01*
X161338619Y-119001800D01*
X161379805Y-118930465D01*
X161407500Y-118827104D01*
X161407500Y-118720096D01*
X161379805Y-118616735D01*
X161338619Y-118545400D01*
X162378559Y-118545400D01*
X162362919Y-118446649D01*
X162362918Y-118446646D01*
X162295009Y-118237644D01*
X162195236Y-118041831D01*
X162066062Y-117864038D01*
X161910661Y-117708637D01*
X161732868Y-117579463D01*
X161732869Y-117579463D01*
X161537057Y-117479691D01*
X161414027Y-117439716D01*
X161363728Y-117403171D01*
X161344515Y-117344039D01*
X161363728Y-117284908D01*
X161414026Y-117248364D01*
X161420551Y-117246245D01*
X161573800Y-117168161D01*
X161712946Y-117067065D01*
X161834565Y-116945446D01*
X161935661Y-116806300D01*
X162013745Y-116653051D01*
X162066894Y-116489475D01*
X162093800Y-116319597D01*
X162093800Y-116147603D01*
X162066894Y-115977725D01*
X162013745Y-115814149D01*
X162013745Y-115814148D01*
X161935660Y-115660899D01*
X161834566Y-115521755D01*
X161712944Y-115400133D01*
X161573800Y-115299039D01*
X161573801Y-115299039D01*
X161420551Y-115220954D01*
X161256984Y-115167808D01*
X161256968Y-115167804D01*
X161087103Y-115140900D01*
X161087097Y-115140900D01*
X160915103Y-115140900D01*
X160915096Y-115140900D01*
X160745231Y-115167804D01*
X160745215Y-115167808D01*
X160581648Y-115220954D01*
X160428399Y-115299039D01*
X160289255Y-115400133D01*
X160167633Y-115521755D01*
X160066539Y-115660899D01*
X159988454Y-115814148D01*
X159935308Y-115977715D01*
X159935304Y-115977731D01*
X159908400Y-116147596D01*
X159908400Y-116319603D01*
X159935304Y-116489468D01*
X159935308Y-116489484D01*
X159955824Y-116552626D01*
X159955824Y-116614801D01*
X159919279Y-116665100D01*
X159860147Y-116684313D01*
X159801017Y-116665100D01*
X159668800Y-116569039D01*
X159668801Y-116569039D01*
X159515551Y-116490954D01*
X159351984Y-116437808D01*
X159351968Y-116437804D01*
X159182103Y-116410900D01*
X159182097Y-116410900D01*
X159010103Y-116410900D01*
X159010096Y-116410900D01*
X158840231Y-116437804D01*
X158840215Y-116437808D01*
X158676646Y-116490955D01*
X158676644Y-116490956D01*
X158585736Y-116537276D01*
X158524327Y-116547002D01*
X158468930Y-116518776D01*
X158303782Y-116353628D01*
X158303781Y-116353626D01*
X158295499Y-116345344D01*
X158295499Y-116345343D01*
X158224357Y-116274201D01*
X158224356Y-116274200D01*
X158182465Y-116256849D01*
X158182464Y-116256848D01*
X158169906Y-116251647D01*
X158131405Y-116235699D01*
X158030795Y-116235699D01*
X158030793Y-116235700D01*
X153188201Y-116235700D01*
X153129070Y-116216487D01*
X153092525Y-116166187D01*
X153087601Y-116135100D01*
X153087601Y-116115831D01*
X153087601Y-116115828D01*
X153087601Y-116115826D01*
X153078729Y-116071226D01*
X153053465Y-116033416D01*
X152526284Y-115506236D01*
X152526279Y-115506232D01*
X152488472Y-115480971D01*
X152443867Y-115472099D01*
X151698322Y-115472099D01*
X151653726Y-115480970D01*
X151615919Y-115506232D01*
X151088735Y-116033416D01*
X151063471Y-116071227D01*
X151054599Y-116115828D01*
X151054599Y-116861377D01*
X151063470Y-116905973D01*
X151080126Y-116930900D01*
X151088735Y-116943784D01*
X151615916Y-117470964D01*
X151653727Y-117496228D01*
X151698328Y-117505100D01*
X152443874Y-117505101D01*
X152488474Y-117496229D01*
X152526284Y-117470965D01*
X153053464Y-116943784D01*
X153078728Y-116905973D01*
X153087600Y-116861372D01*
X153087600Y-116842100D01*
X153106813Y-116782969D01*
X153157113Y-116746424D01*
X153188200Y-116741500D01*
X157934676Y-116741500D01*
X157942396Y-116744008D01*
X157950413Y-116742739D01*
X157971401Y-116753433D01*
X157993807Y-116760713D01*
X158005811Y-116770965D01*
X158111276Y-116876430D01*
X158139502Y-116931828D01*
X158129776Y-116993236D01*
X158083456Y-117084144D01*
X158083455Y-117084146D01*
X158030308Y-117247715D01*
X158030304Y-117247731D01*
X158003400Y-117417596D01*
X158003400Y-117589603D01*
X158030304Y-117759468D01*
X158030308Y-117759484D01*
X158083454Y-117923051D01*
X158161539Y-118076300D01*
X158262633Y-118215444D01*
X158384255Y-118337066D01*
X158523399Y-118438160D01*
X158523398Y-118438160D01*
X158676648Y-118516245D01*
X158840215Y-118569391D01*
X158840218Y-118569391D01*
X158840225Y-118569394D01*
X158840230Y-118569394D01*
X158840231Y-118569395D01*
X159010096Y-118596299D01*
X159010101Y-118596300D01*
X159010103Y-118596300D01*
X159182099Y-118596300D01*
X159182103Y-118596299D01*
X159351975Y-118569394D01*
X159515551Y-118516245D01*
X159515556Y-118516242D01*
X159516739Y-118515858D01*
X159578913Y-118515858D01*
X159623128Y-118545400D01*
X160663581Y-118545400D01*
X160622395Y-118616735D01*
X160594700Y-118720096D01*
X160594700Y-118827104D01*
X160622395Y-118930465D01*
X160663581Y-119001800D01*
X159623641Y-119001800D01*
X159639280Y-119100550D01*
X159639281Y-119100553D01*
X159707190Y-119309555D01*
X159806963Y-119505368D01*
X159936137Y-119683161D01*
X160091538Y-119838562D01*
X160269331Y-119967736D01*
X160269335Y-119967739D01*
X160276255Y-119971265D01*
X160320219Y-120015229D01*
X160329945Y-120076637D01*
X160301719Y-120132035D01*
X160246321Y-120160261D01*
X160230584Y-120161500D01*
X152618618Y-120161500D01*
X152559487Y-120142287D01*
X152522942Y-120091987D01*
X152522942Y-120029813D01*
X152547481Y-119989767D01*
X153053464Y-119483784D01*
X153078728Y-119445973D01*
X153087600Y-119401372D01*
X153087601Y-118655826D01*
X153078729Y-118611226D01*
X153053465Y-118573416D01*
X152526284Y-118046236D01*
X152526279Y-118046232D01*
X152488472Y-118020971D01*
X152443867Y-118012099D01*
X151698322Y-118012099D01*
X151653726Y-118020970D01*
X151615919Y-118046232D01*
X151088735Y-118573416D01*
X151063471Y-118611227D01*
X151054599Y-118655828D01*
X151054599Y-119401377D01*
X151063470Y-119445973D01*
X151063471Y-119445974D01*
X151088735Y-119483784D01*
X151391197Y-119786245D01*
X151594717Y-119989765D01*
X151622943Y-120045163D01*
X151613217Y-120106571D01*
X151569253Y-120150535D01*
X151523582Y-120161500D01*
X147317107Y-120161500D01*
X147317105Y-120161499D01*
X147216495Y-120161499D01*
X147177993Y-120177447D01*
X147165434Y-120182648D01*
X147165433Y-120182649D01*
X147123543Y-120200000D01*
X147123542Y-120200001D01*
X147048883Y-120274661D01*
X146715110Y-120608435D01*
X146659712Y-120636661D01*
X146643975Y-120637900D01*
X146530769Y-120637900D01*
X146415590Y-120668762D01*
X146415585Y-120668764D01*
X146312314Y-120728388D01*
X146312313Y-120728390D01*
X146227990Y-120812713D01*
X146227988Y-120812714D01*
X146168364Y-120915985D01*
X146168362Y-120915990D01*
X146137500Y-121031169D01*
X146137500Y-121144375D01*
X146134991Y-121152093D01*
X146136262Y-121160112D01*
X146125566Y-121181102D01*
X146118287Y-121203506D01*
X146108035Y-121215509D01*
X146037311Y-121286234D01*
X145981914Y-121314461D01*
X145966176Y-121315700D01*
X145568201Y-121315700D01*
X145509070Y-121296487D01*
X145472525Y-121246187D01*
X145467601Y-121215100D01*
X145467601Y-121195831D01*
X145467601Y-121195828D01*
X145467601Y-121195826D01*
X145458729Y-121151226D01*
X145433465Y-121113416D01*
X144906284Y-120586236D01*
X144906279Y-120586232D01*
X144868472Y-120560971D01*
X144823867Y-120552099D01*
X144078322Y-120552099D01*
X144033726Y-120560970D01*
X143995919Y-120586232D01*
X143468735Y-121113416D01*
X143443471Y-121151227D01*
X143434600Y-121195828D01*
X143434600Y-121215100D01*
X143415387Y-121274231D01*
X143365087Y-121310776D01*
X143334000Y-121315700D01*
X126437115Y-121315700D01*
X126377984Y-121296487D01*
X126341439Y-121246187D01*
X126337754Y-121199363D01*
X126354825Y-121091577D01*
X126354826Y-121091573D01*
X126354826Y-120919575D01*
X126354825Y-120919570D01*
X126327921Y-120749705D01*
X126327920Y-120749704D01*
X126327920Y-120749699D01*
X126323733Y-120736813D01*
X126274771Y-120586122D01*
X126196686Y-120432873D01*
X126095592Y-120293729D01*
X125973970Y-120172107D01*
X125834826Y-120071013D01*
X125834827Y-120071013D01*
X125681577Y-119992928D01*
X125518010Y-119939782D01*
X125517994Y-119939778D01*
X125348129Y-119912874D01*
X125348123Y-119912874D01*
X125176129Y-119912874D01*
X125176122Y-119912874D01*
X125006257Y-119939778D01*
X125006241Y-119939782D01*
X124842674Y-119992928D01*
X124689425Y-120071013D01*
X124550281Y-120172107D01*
X124428659Y-120293729D01*
X124327565Y-120432873D01*
X124249480Y-120586122D01*
X124196334Y-120749689D01*
X124196330Y-120749705D01*
X124169426Y-120919570D01*
X124169426Y-121091577D01*
X124196330Y-121261442D01*
X124196334Y-121261458D01*
X124249480Y-121425025D01*
X124327565Y-121578274D01*
X124428659Y-121717418D01*
X124550281Y-121839040D01*
X124689425Y-121940134D01*
X124689424Y-121940134D01*
X124842674Y-122018219D01*
X125006241Y-122071365D01*
X125006244Y-122071365D01*
X125006251Y-122071368D01*
X125006256Y-122071368D01*
X125006257Y-122071369D01*
X125176122Y-122098273D01*
X125176127Y-122098274D01*
X125176129Y-122098274D01*
X125348125Y-122098274D01*
X125348129Y-122098273D01*
X125518001Y-122071368D01*
X125681577Y-122018219D01*
X125834826Y-121940135D01*
X125935398Y-121867065D01*
X125971669Y-121840713D01*
X126030800Y-121821500D01*
X143333999Y-121821500D01*
X143393130Y-121840713D01*
X143429675Y-121891013D01*
X143434599Y-121922100D01*
X143434599Y-121941377D01*
X143443470Y-121985973D01*
X143468732Y-122023780D01*
X143468735Y-122023784D01*
X143755975Y-122311023D01*
X143825817Y-122380865D01*
X143854043Y-122436263D01*
X143844317Y-122497671D01*
X143800353Y-122541635D01*
X143754682Y-122552600D01*
X124607183Y-122552600D01*
X124548052Y-122533387D01*
X124511507Y-122483087D01*
X124478719Y-122382174D01*
X124400634Y-122228925D01*
X124299540Y-122089781D01*
X124177918Y-121968159D01*
X124038774Y-121867065D01*
X124038775Y-121867065D01*
X123885525Y-121788980D01*
X123721958Y-121735834D01*
X123721942Y-121735830D01*
X123552077Y-121708926D01*
X123552071Y-121708926D01*
X123380077Y-121708926D01*
X123380070Y-121708926D01*
X123210205Y-121735830D01*
X123210189Y-121735834D01*
X123046622Y-121788980D01*
X122893373Y-121867065D01*
X122754229Y-121968159D01*
X122632607Y-122089781D01*
X122531513Y-122228925D01*
X122453428Y-122382174D01*
X122400282Y-122545741D01*
X122400278Y-122545757D01*
X122373374Y-122715622D01*
X122373374Y-122887629D01*
X122400278Y-123057494D01*
X122400282Y-123057510D01*
X122453428Y-123221077D01*
X122531513Y-123374326D01*
X122632607Y-123513470D01*
X122754229Y-123635092D01*
X122893373Y-123736186D01*
X122893372Y-123736186D01*
X123046622Y-123814271D01*
X123210189Y-123867417D01*
X123210192Y-123867417D01*
X123210199Y-123867420D01*
X123210204Y-123867420D01*
X123210205Y-123867421D01*
X123380070Y-123894325D01*
X123380075Y-123894326D01*
X123380077Y-123894326D01*
X123552073Y-123894326D01*
X123552077Y-123894325D01*
X123721949Y-123867420D01*
X123885525Y-123814271D01*
X124038774Y-123736187D01*
X124177920Y-123635091D01*
X124299539Y-123513472D01*
X124400635Y-123374326D01*
X124478719Y-123221077D01*
X124508990Y-123127913D01*
X124545535Y-123077613D01*
X124604666Y-123058400D01*
X172684534Y-123058400D01*
X172743665Y-123077613D01*
X172780210Y-123127913D01*
X172810480Y-123221077D01*
X172888565Y-123374326D01*
X172989659Y-123513470D01*
X173111281Y-123635092D01*
X173250425Y-123736186D01*
X173250424Y-123736186D01*
X173403674Y-123814271D01*
X173567241Y-123867417D01*
X173567244Y-123867417D01*
X173567251Y-123867420D01*
X173567256Y-123867420D01*
X173567257Y-123867421D01*
X173737122Y-123894325D01*
X173737127Y-123894326D01*
X173737129Y-123894326D01*
X173909125Y-123894326D01*
X173909129Y-123894325D01*
X174079001Y-123867420D01*
X174242577Y-123814271D01*
X174395826Y-123736187D01*
X174534972Y-123635091D01*
X174656591Y-123513472D01*
X174757687Y-123374326D01*
X174835771Y-123221077D01*
X174888920Y-123057501D01*
X174915826Y-122887623D01*
X174915826Y-122715629D01*
X174888920Y-122545751D01*
X174887583Y-122541635D01*
X174835771Y-122382174D01*
X174757686Y-122228925D01*
X174656592Y-122089781D01*
X174534970Y-121968159D01*
X174395826Y-121867065D01*
X174395827Y-121867065D01*
X174242579Y-121788981D01*
X174145512Y-121757442D01*
X174095213Y-121720897D01*
X174076000Y-121661766D01*
X174076000Y-121109445D01*
X174095213Y-121050314D01*
X174145513Y-121013769D01*
X174207687Y-121013769D01*
X174247733Y-121038308D01*
X176097047Y-122887623D01*
X177837589Y-124628165D01*
X177865815Y-124683563D01*
X177856089Y-124744971D01*
X177812125Y-124788935D01*
X177766454Y-124799900D01*
X153541619Y-124799900D01*
X153460581Y-124799900D01*
X153438653Y-124808982D01*
X153385713Y-124830910D01*
X153328410Y-124888213D01*
X153297400Y-124963081D01*
X153297400Y-139699300D01*
X153278187Y-139758431D01*
X153227887Y-139794976D01*
X153196800Y-139799900D01*
X143805400Y-139799900D01*
X143746269Y-139780687D01*
X143709724Y-139730387D01*
X143704800Y-139699300D01*
X143704800Y-136780988D01*
X146118400Y-136780988D01*
X146118400Y-136780989D01*
X146118400Y-137686212D01*
X146758489Y-138326300D01*
X147663712Y-138326300D01*
X148225433Y-137764577D01*
X148280829Y-137736353D01*
X148342237Y-137746079D01*
X148386201Y-137790042D01*
X148389508Y-137797216D01*
X148415964Y-137861087D01*
X148415965Y-137861089D01*
X148458728Y-137915753D01*
X148458736Y-137915762D01*
X149068935Y-138525960D01*
X149068944Y-138525968D01*
X149123611Y-138568733D01*
X149123612Y-138568734D01*
X149250719Y-138621383D01*
X149319615Y-138629799D01*
X149319620Y-138629800D01*
X149522900Y-138629800D01*
X149522900Y-137688437D01*
X149555019Y-137706981D01*
X149684220Y-137741600D01*
X149817980Y-137741600D01*
X149947181Y-137706981D01*
X149979300Y-137688437D01*
X149979300Y-138629800D01*
X150182573Y-138629800D01*
X150251482Y-138621382D01*
X150378590Y-138568734D01*
X150433253Y-138525971D01*
X150433262Y-138525963D01*
X151043460Y-137915764D01*
X151043468Y-137915755D01*
X151086233Y-137861088D01*
X151086234Y-137861087D01*
X151138883Y-137733980D01*
X151147299Y-137665084D01*
X151147300Y-137665079D01*
X151147300Y-137461800D01*
X150205937Y-137461800D01*
X150224481Y-137429681D01*
X150259100Y-137300480D01*
X150259100Y-137166720D01*
X150224481Y-137037519D01*
X150205937Y-137005400D01*
X151147301Y-137005400D01*
X151147301Y-136802127D01*
X151147300Y-136802125D01*
X151138882Y-136733217D01*
X151086234Y-136606109D01*
X151043471Y-136551446D01*
X151043463Y-136551437D01*
X150433264Y-135941239D01*
X150433255Y-135941231D01*
X150378588Y-135898466D01*
X150378587Y-135898465D01*
X150314716Y-135872009D01*
X150267439Y-135831631D01*
X150252924Y-135771174D01*
X150276717Y-135713733D01*
X150282068Y-135707943D01*
X150843800Y-135146211D01*
X150843800Y-134240988D01*
X150203711Y-133600900D01*
X149298488Y-133600900D01*
X148658400Y-134240988D01*
X148658400Y-134240989D01*
X148658400Y-135146212D01*
X149220120Y-135707931D01*
X149248346Y-135763329D01*
X149238620Y-135824737D01*
X149194657Y-135868701D01*
X149187483Y-135872008D01*
X149123612Y-135898464D01*
X149123610Y-135898465D01*
X149068946Y-135941228D01*
X149068937Y-135941236D01*
X148458739Y-136551435D01*
X148458731Y-136551444D01*
X148415966Y-136606111D01*
X148415965Y-136606112D01*
X148389509Y-136669983D01*
X148349130Y-136717261D01*
X148288674Y-136731775D01*
X148231232Y-136707982D01*
X148225432Y-136702620D01*
X147663711Y-136140900D01*
X146758488Y-136140900D01*
X146118400Y-136780988D01*
X143704800Y-136780988D01*
X143704800Y-134240988D01*
X146118400Y-134240988D01*
X146118400Y-134240989D01*
X146118400Y-135146212D01*
X146758489Y-135786300D01*
X147663712Y-135786300D01*
X148303800Y-135146211D01*
X148303800Y-134240988D01*
X147663711Y-133600900D01*
X146758488Y-133600900D01*
X146118400Y-134240988D01*
X143704800Y-134240988D01*
X143704800Y-131700988D01*
X146118400Y-131700988D01*
X146118400Y-131700989D01*
X146118400Y-132606212D01*
X146758489Y-133246300D01*
X147663712Y-133246300D01*
X148303800Y-132606211D01*
X148303800Y-131700988D01*
X148658400Y-131700988D01*
X148658400Y-131700989D01*
X148658400Y-132606212D01*
X149298489Y-133246300D01*
X150203712Y-133246300D01*
X150843800Y-132606211D01*
X150843800Y-131700988D01*
X150203711Y-131060900D01*
X149298488Y-131060900D01*
X148658400Y-131700988D01*
X148303800Y-131700988D01*
X147663711Y-131060900D01*
X146758488Y-131060900D01*
X146118400Y-131700988D01*
X143704800Y-131700988D01*
X143704800Y-127275400D01*
X145853641Y-127275400D01*
X146893581Y-127275400D01*
X146852395Y-127346735D01*
X146824700Y-127450096D01*
X146824700Y-127557104D01*
X146852395Y-127660465D01*
X146893581Y-127731800D01*
X145853641Y-127731800D01*
X145869280Y-127830550D01*
X145869281Y-127830553D01*
X145937190Y-128039555D01*
X146036963Y-128235368D01*
X146166137Y-128413161D01*
X146321538Y-128568562D01*
X146499331Y-128697736D01*
X146499330Y-128697736D01*
X146695144Y-128797509D01*
X146904146Y-128865418D01*
X146904149Y-128865419D01*
X147002900Y-128881059D01*
X147002900Y-127841119D01*
X147074235Y-127882305D01*
X147177596Y-127910000D01*
X147284604Y-127910000D01*
X147387965Y-127882305D01*
X147459300Y-127841119D01*
X147459300Y-128881058D01*
X147558050Y-128865419D01*
X147558053Y-128865418D01*
X147767055Y-128797509D01*
X147962868Y-128697736D01*
X148140661Y-128568562D01*
X148296062Y-128413161D01*
X148425236Y-128235368D01*
X148525009Y-128039555D01*
X148564983Y-127916528D01*
X148601528Y-127866228D01*
X148660659Y-127847015D01*
X148719790Y-127866228D01*
X148756335Y-127916526D01*
X148758456Y-127923054D01*
X148836539Y-128076300D01*
X148937633Y-128215444D01*
X149059255Y-128337066D01*
X149198399Y-128438160D01*
X149198398Y-128438160D01*
X149351648Y-128516245D01*
X149515215Y-128569391D01*
X149515218Y-128569391D01*
X149515225Y-128569394D01*
X149515230Y-128569394D01*
X149515231Y-128569395D01*
X149685096Y-128596299D01*
X149685101Y-128596300D01*
X149685103Y-128596300D01*
X149857099Y-128596300D01*
X149857103Y-128596299D01*
X150026975Y-128569394D01*
X150190551Y-128516245D01*
X150343800Y-128438161D01*
X150482946Y-128337065D01*
X150604565Y-128215446D01*
X150705661Y-128076300D01*
X150783745Y-127923051D01*
X150836894Y-127759475D01*
X150863800Y-127589597D01*
X150863800Y-127417603D01*
X150836894Y-127247725D01*
X150813799Y-127176646D01*
X150783745Y-127084148D01*
X150705660Y-126930899D01*
X150705659Y-126930898D01*
X150604565Y-126791754D01*
X150482946Y-126670135D01*
X150482944Y-126670133D01*
X150343800Y-126569039D01*
X150343801Y-126569039D01*
X150190551Y-126490954D01*
X150026984Y-126437808D01*
X150026968Y-126437804D01*
X149857103Y-126410900D01*
X149857097Y-126410900D01*
X149685103Y-126410900D01*
X149685096Y-126410900D01*
X149515231Y-126437804D01*
X149515222Y-126437806D01*
X149452072Y-126458325D01*
X149389898Y-126458324D01*
X149339598Y-126421778D01*
X149320386Y-126362647D01*
X149339598Y-126303518D01*
X149435661Y-126171300D01*
X149513745Y-126018051D01*
X149566894Y-125854475D01*
X149593800Y-125684597D01*
X149593800Y-125512603D01*
X149566894Y-125342725D01*
X149513745Y-125179149D01*
X149513745Y-125179148D01*
X149435660Y-125025899D01*
X149334566Y-124886755D01*
X149212944Y-124765133D01*
X149073800Y-124664039D01*
X149073801Y-124664039D01*
X148920551Y-124585954D01*
X148756984Y-124532808D01*
X148756968Y-124532804D01*
X148587103Y-124505900D01*
X148587097Y-124505900D01*
X148415103Y-124505900D01*
X148415096Y-124505900D01*
X148245231Y-124532804D01*
X148245215Y-124532808D01*
X148081648Y-124585954D01*
X147928399Y-124664039D01*
X147789255Y-124765133D01*
X147667633Y-124886755D01*
X147566539Y-125025899D01*
X147488454Y-125179148D01*
X147435308Y-125342715D01*
X147435304Y-125342731D01*
X147408400Y-125512596D01*
X147408400Y-125684603D01*
X147435304Y-125854468D01*
X147435308Y-125854484D01*
X147488840Y-126019239D01*
X147488840Y-126081413D01*
X147459300Y-126125624D01*
X147459300Y-127166080D01*
X147387965Y-127124895D01*
X147284604Y-127097200D01*
X147177596Y-127097200D01*
X147074235Y-127124895D01*
X147002900Y-127166080D01*
X147002900Y-126126138D01*
X146904157Y-126141778D01*
X146904151Y-126141779D01*
X146695144Y-126209690D01*
X146499331Y-126309463D01*
X146321538Y-126438637D01*
X146166137Y-126594038D01*
X146036963Y-126771831D01*
X145937190Y-126967644D01*
X145869281Y-127176646D01*
X145869280Y-127176649D01*
X145853641Y-127275400D01*
X143704800Y-127275400D01*
X143704800Y-124963081D01*
X143673789Y-124888213D01*
X143616486Y-124830910D01*
X143572629Y-124812744D01*
X143541619Y-124799900D01*
X143541618Y-124799900D01*
X119235745Y-124799900D01*
X119176614Y-124780687D01*
X119140069Y-124730387D01*
X119140069Y-124668213D01*
X119164610Y-124628165D01*
X123240676Y-120552099D01*
X127787375Y-116005400D01*
X134623641Y-116005400D01*
X135663581Y-116005400D01*
X135622395Y-116076735D01*
X135594700Y-116180096D01*
X135594700Y-116287104D01*
X135622395Y-116390465D01*
X135663581Y-116461800D01*
X134623641Y-116461800D01*
X134639280Y-116560550D01*
X134639281Y-116560553D01*
X134707190Y-116769555D01*
X134806963Y-116965368D01*
X134936137Y-117143161D01*
X135091538Y-117298562D01*
X135269331Y-117427736D01*
X135269330Y-117427736D01*
X135465144Y-117527509D01*
X135588171Y-117567483D01*
X135638471Y-117604028D01*
X135657684Y-117663159D01*
X135638471Y-117722290D01*
X135588175Y-117758834D01*
X135581647Y-117760955D01*
X135428399Y-117839039D01*
X135289255Y-117940133D01*
X135167633Y-118061755D01*
X135066539Y-118200899D01*
X134988454Y-118354148D01*
X134935308Y-118517715D01*
X134935304Y-118517731D01*
X134908400Y-118687596D01*
X134908400Y-118859603D01*
X134935304Y-119029468D01*
X134935308Y-119029484D01*
X134988454Y-119193051D01*
X135066539Y-119346300D01*
X135167633Y-119485444D01*
X135289255Y-119607066D01*
X135428399Y-119708160D01*
X135428398Y-119708160D01*
X135581648Y-119786245D01*
X135745215Y-119839391D01*
X135745218Y-119839391D01*
X135745225Y-119839394D01*
X135745230Y-119839394D01*
X135745231Y-119839395D01*
X135915096Y-119866299D01*
X135915101Y-119866300D01*
X135915103Y-119866300D01*
X136087099Y-119866300D01*
X136087103Y-119866299D01*
X136139848Y-119857945D01*
X136256975Y-119839394D01*
X136420551Y-119786245D01*
X136573800Y-119708161D01*
X136712946Y-119607065D01*
X136834565Y-119485446D01*
X136935661Y-119346300D01*
X137013745Y-119193051D01*
X137066894Y-119029475D01*
X137093800Y-118859597D01*
X137093800Y-118687603D01*
X137088767Y-118655828D01*
X143434599Y-118655828D01*
X143434599Y-119401377D01*
X143443470Y-119445973D01*
X143443471Y-119445974D01*
X143468735Y-119483784D01*
X143995916Y-120010964D01*
X144033727Y-120036228D01*
X144078328Y-120045100D01*
X144823874Y-120045101D01*
X144868474Y-120036229D01*
X144906284Y-120010965D01*
X145433464Y-119483784D01*
X145458728Y-119445973D01*
X145467600Y-119401372D01*
X145467601Y-118655826D01*
X145458729Y-118611226D01*
X145433465Y-118573416D01*
X144906284Y-118046236D01*
X144906279Y-118046232D01*
X144868472Y-118020971D01*
X144823867Y-118012099D01*
X144078322Y-118012099D01*
X144033726Y-118020970D01*
X143995919Y-118046232D01*
X143468735Y-118573416D01*
X143443471Y-118611227D01*
X143434599Y-118655828D01*
X137088767Y-118655828D01*
X137066894Y-118517725D01*
X137066413Y-118516245D01*
X137046375Y-118454573D01*
X137046375Y-118392399D01*
X137082919Y-118342099D01*
X137142051Y-118322886D01*
X137201182Y-118342099D01*
X137333399Y-118438160D01*
X137333398Y-118438160D01*
X137486648Y-118516245D01*
X137650215Y-118569391D01*
X137650218Y-118569391D01*
X137650225Y-118569394D01*
X137650230Y-118569394D01*
X137650231Y-118569395D01*
X137820096Y-118596299D01*
X137820101Y-118596300D01*
X137820103Y-118596300D01*
X137992099Y-118596300D01*
X137992103Y-118596299D01*
X138161975Y-118569394D01*
X138325551Y-118516245D01*
X138478800Y-118438161D01*
X138617946Y-118337065D01*
X138739565Y-118215446D01*
X138840661Y-118076300D01*
X138918745Y-117923051D01*
X138971894Y-117759475D01*
X138998800Y-117589597D01*
X138998800Y-117417603D01*
X138971894Y-117247725D01*
X138918745Y-117084149D01*
X138918744Y-117084148D01*
X138918744Y-117084146D01*
X138918743Y-117084144D01*
X138872424Y-116993237D01*
X138872422Y-116993235D01*
X138862697Y-116931826D01*
X138880067Y-116897735D01*
X138890921Y-116876431D01*
X138996390Y-116770964D01*
X139051788Y-116742738D01*
X139067524Y-116741500D01*
X143333999Y-116741500D01*
X143393130Y-116760713D01*
X143429675Y-116811013D01*
X143434599Y-116842100D01*
X143434599Y-116861377D01*
X143443470Y-116905973D01*
X143460126Y-116930900D01*
X143468735Y-116943784D01*
X143995916Y-117470964D01*
X144033727Y-117496228D01*
X144078328Y-117505100D01*
X144823874Y-117505101D01*
X144868474Y-117496229D01*
X144906284Y-117470965D01*
X145433464Y-116943784D01*
X145458728Y-116905973D01*
X145467600Y-116861372D01*
X145467601Y-116115826D01*
X145458729Y-116071226D01*
X145433465Y-116033416D01*
X144906284Y-115506236D01*
X144906279Y-115506232D01*
X144868472Y-115480971D01*
X144823867Y-115472099D01*
X144078322Y-115472099D01*
X144033726Y-115480970D01*
X143995919Y-115506232D01*
X143468735Y-116033416D01*
X143443471Y-116071227D01*
X143434600Y-116115828D01*
X143434600Y-116135100D01*
X143415387Y-116194231D01*
X143365087Y-116230776D01*
X143334000Y-116235700D01*
X138971407Y-116235700D01*
X138971405Y-116235699D01*
X138870795Y-116235699D01*
X138832293Y-116251647D01*
X138819734Y-116256848D01*
X138819733Y-116256849D01*
X138777843Y-116274200D01*
X138777842Y-116274201D01*
X138533268Y-116518776D01*
X138477870Y-116547002D01*
X138416462Y-116537276D01*
X138416461Y-116537276D01*
X138325551Y-116490954D01*
X138161984Y-116437808D01*
X138161968Y-116437804D01*
X137992103Y-116410900D01*
X137992097Y-116410900D01*
X137820103Y-116410900D01*
X137820096Y-116410900D01*
X137650231Y-116437804D01*
X137650215Y-116437808D01*
X137485460Y-116491340D01*
X137423285Y-116491340D01*
X137379074Y-116461800D01*
X136338619Y-116461800D01*
X136379805Y-116390465D01*
X136407500Y-116287104D01*
X136407500Y-116180096D01*
X136379805Y-116076735D01*
X136338619Y-116005400D01*
X137378559Y-116005400D01*
X137362919Y-115906649D01*
X137362918Y-115906646D01*
X137295009Y-115697644D01*
X137195236Y-115501831D01*
X137066062Y-115324038D01*
X136910661Y-115168637D01*
X136732868Y-115039463D01*
X136732869Y-115039463D01*
X136537055Y-114939690D01*
X136328048Y-114871779D01*
X136328042Y-114871778D01*
X136229300Y-114856138D01*
X136229300Y-115896080D01*
X136157965Y-115854895D01*
X136054604Y-115827200D01*
X135947596Y-115827200D01*
X135844235Y-115854895D01*
X135772900Y-115896080D01*
X135772900Y-114856138D01*
X135674157Y-114871778D01*
X135674151Y-114871779D01*
X135465144Y-114939690D01*
X135269331Y-115039463D01*
X135091538Y-115168637D01*
X134936137Y-115324038D01*
X134806963Y-115501831D01*
X134707190Y-115697644D01*
X134639281Y-115906646D01*
X134639280Y-115906649D01*
X134623641Y-116005400D01*
X127787375Y-116005400D01*
X131036606Y-112756169D01*
X137481600Y-112756169D01*
X137481600Y-112875430D01*
X137512462Y-112990609D01*
X137512464Y-112990614D01*
X137572088Y-113093885D01*
X137656414Y-113178211D01*
X137759685Y-113237835D01*
X137759687Y-113237836D01*
X137759688Y-113237836D01*
X137759690Y-113237837D01*
X137874869Y-113268699D01*
X137874873Y-113268699D01*
X137874875Y-113268700D01*
X137874877Y-113268700D01*
X137994123Y-113268700D01*
X137994125Y-113268700D01*
X137994127Y-113268699D01*
X137994130Y-113268699D01*
X138109309Y-113237837D01*
X138109308Y-113237837D01*
X138109313Y-113237836D01*
X138212587Y-113178210D01*
X138292632Y-113098165D01*
X138348030Y-113069939D01*
X138363767Y-113068700D01*
X142052576Y-113068700D01*
X142111707Y-113087913D01*
X142123711Y-113098165D01*
X143111661Y-114086115D01*
X143111674Y-114086130D01*
X143117401Y-114091857D01*
X143188543Y-114162999D01*
X143242993Y-114185552D01*
X143281495Y-114201501D01*
X143343093Y-114201501D01*
X143352040Y-114203132D01*
X143371789Y-114213780D01*
X143393130Y-114220714D01*
X143398590Y-114228229D01*
X143406767Y-114232638D01*
X143416486Y-114252861D01*
X143429675Y-114271014D01*
X143431869Y-114284869D01*
X143433699Y-114288676D01*
X143433042Y-114292275D01*
X143434599Y-114302101D01*
X143434599Y-114321377D01*
X143443470Y-114365973D01*
X143468732Y-114403780D01*
X143468735Y-114403784D01*
X143995916Y-114930964D01*
X144033727Y-114956228D01*
X144078328Y-114965100D01*
X144823874Y-114965101D01*
X144868474Y-114956229D01*
X144906284Y-114930965D01*
X145433464Y-114403784D01*
X145458728Y-114365973D01*
X145467600Y-114321372D01*
X145467600Y-114176800D01*
X150751099Y-114176800D01*
X150751099Y-114348511D01*
X150759517Y-114417419D01*
X150812165Y-114544527D01*
X150854928Y-114599190D01*
X150854936Y-114599199D01*
X151420507Y-115164768D01*
X151420514Y-115164774D01*
X151475175Y-115207534D01*
X151602282Y-115260183D01*
X151671178Y-115268599D01*
X151671183Y-115268600D01*
X151842900Y-115268600D01*
X151842900Y-114286119D01*
X151914235Y-114327305D01*
X152017596Y-114355000D01*
X152124604Y-114355000D01*
X152227965Y-114327305D01*
X152299300Y-114286119D01*
X152299300Y-115268600D01*
X152471010Y-115268600D01*
X152539919Y-115260182D01*
X152667027Y-115207534D01*
X152721690Y-115164771D01*
X152721699Y-115164763D01*
X153287268Y-114599192D01*
X153287274Y-114599185D01*
X153330034Y-114544524D01*
X153382683Y-114417417D01*
X153391099Y-114348521D01*
X153391100Y-114348516D01*
X153391100Y-114176800D01*
X152408619Y-114176800D01*
X152449805Y-114105465D01*
X152477500Y-114002104D01*
X152477500Y-113895096D01*
X152449805Y-113791735D01*
X152408619Y-113720400D01*
X153391101Y-113720400D01*
X153391101Y-113548690D01*
X153391100Y-113548688D01*
X153382682Y-113479780D01*
X153330034Y-113352672D01*
X153287271Y-113298009D01*
X153287263Y-113298000D01*
X152721692Y-112732431D01*
X152721685Y-112732425D01*
X152667024Y-112689665D01*
X152539917Y-112637016D01*
X152471021Y-112628600D01*
X152471016Y-112628599D01*
X152299300Y-112628599D01*
X152299300Y-113611080D01*
X152227965Y-113569895D01*
X152124604Y-113542200D01*
X152017596Y-113542200D01*
X151914235Y-113569895D01*
X151842900Y-113611080D01*
X151842900Y-112628599D01*
X151671188Y-112628599D01*
X151602280Y-112637017D01*
X151475172Y-112689665D01*
X151420509Y-112732428D01*
X151420500Y-112732436D01*
X150854931Y-113298007D01*
X150854925Y-113298014D01*
X150812165Y-113352675D01*
X150759516Y-113479782D01*
X150751100Y-113548678D01*
X150751100Y-113720400D01*
X151733581Y-113720400D01*
X151692395Y-113791735D01*
X151664700Y-113895096D01*
X151664700Y-114002104D01*
X151692395Y-114105465D01*
X151733581Y-114176800D01*
X150751099Y-114176800D01*
X145467600Y-114176800D01*
X145467601Y-113575826D01*
X145458729Y-113531226D01*
X145433465Y-113493416D01*
X144906284Y-112966236D01*
X144906279Y-112966232D01*
X144868472Y-112940971D01*
X144823867Y-112932099D01*
X144078322Y-112932099D01*
X144033726Y-112940970D01*
X143995919Y-112966232D01*
X143468734Y-113493417D01*
X143442925Y-113532045D01*
X143394099Y-113570537D01*
X143331973Y-113572978D01*
X143288144Y-113547290D01*
X142421682Y-112680828D01*
X142421681Y-112680826D01*
X142413399Y-112672544D01*
X142413399Y-112672543D01*
X142342257Y-112601401D01*
X142342256Y-112601400D01*
X142300365Y-112584049D01*
X142300364Y-112584048D01*
X142287806Y-112578847D01*
X142249305Y-112562899D01*
X142148695Y-112562899D01*
X142148693Y-112562900D01*
X138363767Y-112562900D01*
X138304636Y-112543687D01*
X138292632Y-112533435D01*
X138212585Y-112453388D01*
X138109314Y-112393764D01*
X138109309Y-112393762D01*
X137994130Y-112362900D01*
X137994125Y-112362900D01*
X137874875Y-112362900D01*
X137874869Y-112362900D01*
X137759690Y-112393762D01*
X137759685Y-112393764D01*
X137656414Y-112453388D01*
X137656413Y-112453390D01*
X137572090Y-112537713D01*
X137572088Y-112537714D01*
X137512464Y-112640985D01*
X137512462Y-112640990D01*
X137481600Y-112756169D01*
X131036606Y-112756169D01*
X133619179Y-110173596D01*
X133674573Y-110145373D01*
X133735981Y-110155099D01*
X133761444Y-110173598D01*
X135484700Y-111896855D01*
X135484701Y-111896857D01*
X135555843Y-111967999D01*
X135602319Y-111987249D01*
X135648795Y-112006501D01*
X135761114Y-112006501D01*
X135761122Y-112006500D01*
X147281128Y-112006500D01*
X147340259Y-112025713D01*
X147376804Y-112076013D01*
X147417837Y-112202302D01*
X147501367Y-112366237D01*
X147609511Y-112515085D01*
X147739614Y-112645188D01*
X147888462Y-112753332D01*
X147888461Y-112753332D01*
X148052397Y-112836862D01*
X148227372Y-112893714D01*
X148227374Y-112893714D01*
X148227382Y-112893717D01*
X148409101Y-112922499D01*
X148409103Y-112922500D01*
X148409106Y-112922500D01*
X148593097Y-112922500D01*
X148593097Y-112922499D01*
X148774818Y-112893717D01*
X148949802Y-112836862D01*
X149113737Y-112753333D01*
X149262587Y-112645187D01*
X149392687Y-112515087D01*
X149500833Y-112366237D01*
X149584362Y-112202302D01*
X149625396Y-112076013D01*
X149661941Y-112025713D01*
X149721072Y-112006500D01*
X161162793Y-112006500D01*
X161162795Y-112006501D01*
X161263405Y-112006501D01*
X161301906Y-111990552D01*
X161356357Y-111967999D01*
X161427499Y-111896857D01*
X161427499Y-111896855D01*
X161437163Y-111887192D01*
X161437168Y-111887184D01*
X163195756Y-110128596D01*
X163251151Y-110100373D01*
X163312559Y-110110099D01*
G37*
%TD.AperFunction*%
%TA.AperFunction,Conductor*%
G36*
X147430736Y-71460344D02*
G01*
X147474700Y-71504308D01*
X147484426Y-71565716D01*
X147466452Y-71609110D01*
X147340963Y-71781831D01*
X147241190Y-71977644D01*
X147173281Y-72186646D01*
X147173280Y-72186649D01*
X147157641Y-72285400D01*
X148197581Y-72285400D01*
X148156395Y-72356735D01*
X148128700Y-72460096D01*
X148128700Y-72567104D01*
X148156395Y-72670465D01*
X148197581Y-72741800D01*
X147157641Y-72741800D01*
X147173280Y-72840550D01*
X147173281Y-72840553D01*
X147241190Y-73049555D01*
X147340963Y-73245368D01*
X147470137Y-73423161D01*
X147625538Y-73578562D01*
X147803331Y-73707736D01*
X147803330Y-73707736D01*
X147999144Y-73807509D01*
X148122171Y-73847483D01*
X148172471Y-73884028D01*
X148191684Y-73943159D01*
X148172471Y-74002290D01*
X148122175Y-74038834D01*
X148115647Y-74040955D01*
X147962399Y-74119039D01*
X147823255Y-74220133D01*
X147701633Y-74341755D01*
X147600539Y-74480899D01*
X147522454Y-74634148D01*
X147469308Y-74797715D01*
X147469304Y-74797731D01*
X147442400Y-74967596D01*
X147442400Y-75139603D01*
X147469304Y-75309468D01*
X147469308Y-75309484D01*
X147522454Y-75473051D01*
X147600539Y-75626300D01*
X147701633Y-75765444D01*
X147823255Y-75887066D01*
X147962399Y-75988160D01*
X147962398Y-75988160D01*
X148115648Y-76066245D01*
X148279215Y-76119391D01*
X148279218Y-76119391D01*
X148279225Y-76119394D01*
X148279230Y-76119394D01*
X148279231Y-76119395D01*
X148449096Y-76146299D01*
X148449101Y-76146300D01*
X148449103Y-76146300D01*
X148621099Y-76146300D01*
X148621103Y-76146299D01*
X148790975Y-76119394D01*
X148954551Y-76066245D01*
X149107800Y-75988161D01*
X149246946Y-75887065D01*
X149368565Y-75765446D01*
X149469661Y-75626300D01*
X149547745Y-75473051D01*
X149600894Y-75309475D01*
X149627800Y-75139597D01*
X149627800Y-74967603D01*
X149600894Y-74797725D01*
X149547745Y-74634149D01*
X149547745Y-74634148D01*
X149469660Y-74480899D01*
X149368566Y-74341755D01*
X149246944Y-74220133D01*
X149107800Y-74119039D01*
X149107801Y-74119039D01*
X148954554Y-74040956D01*
X148948026Y-74038835D01*
X148897727Y-74002289D01*
X148878515Y-73943157D01*
X148897729Y-73884027D01*
X148948028Y-73847483D01*
X149071055Y-73807509D01*
X149266868Y-73707736D01*
X149444661Y-73578562D01*
X149600062Y-73423161D01*
X149729236Y-73245368D01*
X149829009Y-73049555D01*
X149896918Y-72840553D01*
X149896919Y-72840550D01*
X149912559Y-72741800D01*
X148872619Y-72741800D01*
X148913805Y-72670465D01*
X148941500Y-72567104D01*
X148941500Y-72460096D01*
X148913805Y-72356735D01*
X148872619Y-72285400D01*
X149912559Y-72285400D01*
X149896919Y-72186649D01*
X149896918Y-72186646D01*
X149829009Y-71977644D01*
X149745398Y-71813550D01*
X149735671Y-71752141D01*
X149763898Y-71696743D01*
X149819295Y-71668517D01*
X149880704Y-71678243D01*
X149906168Y-71696743D01*
X157837590Y-79628165D01*
X157865816Y-79683563D01*
X157856090Y-79744971D01*
X157812126Y-79788935D01*
X157766455Y-79799900D01*
X153460581Y-79799900D01*
X153438653Y-79808982D01*
X153385713Y-79830910D01*
X153328410Y-79888213D01*
X153297400Y-79963081D01*
X153297400Y-80044118D01*
X153328410Y-80118986D01*
X153399857Y-80190433D01*
X153399864Y-80190439D01*
X167837589Y-94628165D01*
X167865815Y-94683563D01*
X167856089Y-94744971D01*
X167812125Y-94788935D01*
X167766454Y-94799900D01*
X158460581Y-94799900D01*
X158438653Y-94808982D01*
X158385713Y-94830910D01*
X158328410Y-94888213D01*
X158297400Y-94963081D01*
X158297400Y-95044118D01*
X158328410Y-95118986D01*
X158399857Y-95190433D01*
X158399864Y-95190439D01*
X167604288Y-104394864D01*
X167614982Y-104415852D01*
X167628829Y-104434911D01*
X167628829Y-104443029D01*
X167632514Y-104450262D01*
X167628829Y-104473524D01*
X167628830Y-104497085D01*
X167624057Y-104503653D01*
X167622788Y-104511670D01*
X167606132Y-104528325D01*
X167592285Y-104547385D01*
X167584564Y-104549893D01*
X167578824Y-104555634D01*
X167533154Y-104566599D01*
X167452695Y-104566599D01*
X167452693Y-104566599D01*
X167440979Y-104566600D01*
X167440978Y-104566599D01*
X167440978Y-104566600D01*
X158181467Y-104566600D01*
X158122336Y-104547387D01*
X158110332Y-104537135D01*
X158030285Y-104457088D01*
X157927014Y-104397464D01*
X157927009Y-104397462D01*
X157811830Y-104366600D01*
X157811825Y-104366600D01*
X157692575Y-104366600D01*
X157692569Y-104366600D01*
X157577390Y-104397462D01*
X157577385Y-104397464D01*
X157474114Y-104457088D01*
X157474113Y-104457090D01*
X157394068Y-104537135D01*
X157338670Y-104565361D01*
X157322933Y-104566600D01*
X129543121Y-104566600D01*
X129531406Y-104566599D01*
X129531405Y-104566599D01*
X129469045Y-104566599D01*
X129435300Y-104555634D01*
X129409915Y-104547386D01*
X129373370Y-104497086D01*
X129373369Y-104497085D01*
X129373370Y-104434911D01*
X129373373Y-104434905D01*
X129397911Y-104394864D01*
X129426175Y-104366600D01*
X138673789Y-95118987D01*
X138704800Y-95044119D01*
X138704800Y-94963082D01*
X138681447Y-94906702D01*
X138681447Y-94906700D01*
X138673789Y-94888213D01*
X138616486Y-94830910D01*
X138572629Y-94812744D01*
X138541619Y-94799900D01*
X138541618Y-94799900D01*
X129235745Y-94799900D01*
X129176614Y-94780687D01*
X129140069Y-94730387D01*
X129140069Y-94668213D01*
X129164610Y-94628165D01*
X131077153Y-92715622D01*
X132086374Y-92715622D01*
X132086374Y-92887629D01*
X132113278Y-93057494D01*
X132113282Y-93057510D01*
X132166428Y-93221077D01*
X132244513Y-93374326D01*
X132345607Y-93513470D01*
X132467229Y-93635092D01*
X132606373Y-93736186D01*
X132606372Y-93736186D01*
X132759622Y-93814271D01*
X132923189Y-93867417D01*
X132923192Y-93867417D01*
X132923199Y-93867420D01*
X132923204Y-93867420D01*
X132923205Y-93867421D01*
X133093070Y-93894325D01*
X133093075Y-93894326D01*
X133093077Y-93894326D01*
X133265073Y-93894326D01*
X133265077Y-93894325D01*
X133434949Y-93867420D01*
X133598525Y-93814271D01*
X133751774Y-93736187D01*
X133890920Y-93635091D01*
X134012539Y-93513472D01*
X134113635Y-93374326D01*
X134191719Y-93221077D01*
X134244868Y-93057501D01*
X134271774Y-92887623D01*
X134271774Y-92715629D01*
X134244868Y-92545751D01*
X134191719Y-92382175D01*
X134191719Y-92382174D01*
X134113634Y-92228925D01*
X134094224Y-92202210D01*
X134028620Y-92111913D01*
X134012540Y-92089781D01*
X133890918Y-91968159D01*
X133751774Y-91867065D01*
X133751775Y-91867065D01*
X133598525Y-91788980D01*
X133434958Y-91735834D01*
X133434942Y-91735830D01*
X133265077Y-91708926D01*
X133265071Y-91708926D01*
X133093077Y-91708926D01*
X133093070Y-91708926D01*
X132923205Y-91735830D01*
X132923189Y-91735834D01*
X132759622Y-91788980D01*
X132606373Y-91867065D01*
X132467229Y-91968159D01*
X132345607Y-92089781D01*
X132244513Y-92228925D01*
X132166428Y-92382174D01*
X132113282Y-92545741D01*
X132113278Y-92545757D01*
X132086374Y-92715622D01*
X131077153Y-92715622D01*
X132873205Y-90919570D01*
X133882426Y-90919570D01*
X133882426Y-91091577D01*
X133909330Y-91261442D01*
X133909334Y-91261458D01*
X133962480Y-91425025D01*
X134040565Y-91578274D01*
X134141659Y-91717418D01*
X134263281Y-91839040D01*
X134402425Y-91940134D01*
X134402424Y-91940134D01*
X134555674Y-92018219D01*
X134719241Y-92071365D01*
X134719244Y-92071365D01*
X134719251Y-92071368D01*
X134719256Y-92071368D01*
X134719257Y-92071369D01*
X134889122Y-92098273D01*
X134889127Y-92098274D01*
X134889129Y-92098274D01*
X135061125Y-92098274D01*
X135061129Y-92098273D01*
X135231001Y-92071368D01*
X135394577Y-92018219D01*
X135485454Y-91971914D01*
X135546860Y-91962188D01*
X135589732Y-91979785D01*
X135596430Y-91984586D01*
X135666043Y-92054199D01*
X135720493Y-92076752D01*
X135758995Y-92092701D01*
X135871314Y-92092701D01*
X135871322Y-92092700D01*
X145205433Y-92092700D01*
X145264564Y-92111913D01*
X145276568Y-92122165D01*
X145356614Y-92202211D01*
X145459885Y-92261835D01*
X145459887Y-92261836D01*
X145459888Y-92261836D01*
X145459890Y-92261837D01*
X145575069Y-92292699D01*
X145575073Y-92292699D01*
X145575075Y-92292700D01*
X145575077Y-92292700D01*
X145694323Y-92292700D01*
X145694325Y-92292700D01*
X145694327Y-92292699D01*
X145694330Y-92292699D01*
X145809509Y-92261837D01*
X145809508Y-92261837D01*
X145809513Y-92261836D01*
X145912787Y-92202210D01*
X145997110Y-92117887D01*
X146056736Y-92014613D01*
X146077161Y-91938386D01*
X146087599Y-91899430D01*
X146087600Y-91899423D01*
X146087600Y-91780176D01*
X146087599Y-91780169D01*
X146056736Y-91664987D01*
X145997111Y-91561714D01*
X145912785Y-91477388D01*
X145809514Y-91417764D01*
X145809509Y-91417762D01*
X145694330Y-91386900D01*
X145694325Y-91386900D01*
X145575075Y-91386900D01*
X145575069Y-91386900D01*
X145459890Y-91417762D01*
X145459885Y-91417764D01*
X145356614Y-91477388D01*
X145356613Y-91477390D01*
X145276568Y-91557435D01*
X145221170Y-91585661D01*
X145205433Y-91586900D01*
X136069456Y-91586900D01*
X136010325Y-91567687D01*
X135973780Y-91517387D01*
X135973780Y-91455213D01*
X135979821Y-91440627D01*
X135987771Y-91425025D01*
X136040920Y-91261449D01*
X136044891Y-91236374D01*
X136047528Y-91219731D01*
X136047528Y-91219730D01*
X136049798Y-91205400D01*
X147046491Y-91205400D01*
X147908305Y-91205400D01*
X147890503Y-91248377D01*
X147866100Y-91371058D01*
X147866100Y-91496142D01*
X147890503Y-91618823D01*
X147908305Y-91661800D01*
X147046491Y-91661800D01*
X147064956Y-91778394D01*
X147064957Y-91778397D01*
X147136572Y-91998805D01*
X147241786Y-92205297D01*
X147241793Y-92205308D01*
X147378014Y-92392802D01*
X147541897Y-92556685D01*
X147729391Y-92692906D01*
X147729402Y-92692913D01*
X147935894Y-92798127D01*
X148156302Y-92869742D01*
X148156305Y-92869743D01*
X148272900Y-92888209D01*
X148272900Y-92026395D01*
X148315877Y-92044197D01*
X148438558Y-92068600D01*
X148563642Y-92068600D01*
X148686323Y-92044197D01*
X148729300Y-92026395D01*
X148729300Y-92888208D01*
X148845894Y-92869743D01*
X148845897Y-92869742D01*
X149066305Y-92798127D01*
X149272797Y-92692913D01*
X149272808Y-92692906D01*
X149460302Y-92556685D01*
X149624185Y-92392802D01*
X149760406Y-92205308D01*
X149760413Y-92205297D01*
X149865627Y-91998805D01*
X149937242Y-91778397D01*
X149937243Y-91778394D01*
X149955709Y-91661800D01*
X149093895Y-91661800D01*
X149111697Y-91618823D01*
X149136100Y-91496142D01*
X149136100Y-91371058D01*
X149111697Y-91248377D01*
X149093895Y-91205400D01*
X149955709Y-91205400D01*
X149937243Y-91088805D01*
X149937242Y-91088802D01*
X149865627Y-90868394D01*
X149760413Y-90661902D01*
X149760406Y-90661891D01*
X149624185Y-90474397D01*
X149460302Y-90310514D01*
X149272808Y-90174293D01*
X149272797Y-90174286D01*
X149066305Y-90069072D01*
X148845897Y-89997457D01*
X148845883Y-89997454D01*
X148729300Y-89978988D01*
X148729300Y-90840804D01*
X148686323Y-90823003D01*
X148563642Y-90798600D01*
X148438558Y-90798600D01*
X148315877Y-90823003D01*
X148272900Y-90840804D01*
X148272900Y-89978988D01*
X148272899Y-89978988D01*
X148156316Y-89997454D01*
X148156302Y-89997457D01*
X147935894Y-90069072D01*
X147729402Y-90174286D01*
X147729391Y-90174293D01*
X147541897Y-90310514D01*
X147378014Y-90474397D01*
X147241793Y-90661891D01*
X147241786Y-90661902D01*
X147136572Y-90868394D01*
X147064957Y-91088802D01*
X147064956Y-91088805D01*
X147046491Y-91205400D01*
X136049798Y-91205400D01*
X136067825Y-91091577D01*
X136067826Y-91091573D01*
X136067826Y-90919575D01*
X136067825Y-90919570D01*
X136040921Y-90749705D01*
X136040920Y-90749704D01*
X136040920Y-90749699D01*
X136012389Y-90661891D01*
X135987770Y-90586120D01*
X135987769Y-90586118D01*
X135941449Y-90495209D01*
X135931723Y-90433801D01*
X135959947Y-90378405D01*
X140414263Y-85924090D01*
X143573000Y-85924090D01*
X143573000Y-86104309D01*
X143608159Y-86281069D01*
X143677124Y-86447564D01*
X143677126Y-86447568D01*
X143727527Y-86522998D01*
X143777249Y-86597413D01*
X143777251Y-86597415D01*
X143904685Y-86724849D01*
X144054532Y-86824974D01*
X144137782Y-86859457D01*
X144221030Y-86893940D01*
X144221031Y-86893940D01*
X144221033Y-86893941D01*
X144397790Y-86929100D01*
X144397791Y-86929100D01*
X146102009Y-86929100D01*
X146102010Y-86929100D01*
X146278767Y-86893941D01*
X146445268Y-86824974D01*
X146595115Y-86724849D01*
X146722549Y-86597415D01*
X146822674Y-86447568D01*
X146891641Y-86281067D01*
X146926800Y-86104310D01*
X146926800Y-85924090D01*
X150075400Y-85924090D01*
X150075400Y-86104309D01*
X150110559Y-86281069D01*
X150179524Y-86447564D01*
X150179526Y-86447568D01*
X150229927Y-86522998D01*
X150279649Y-86597413D01*
X150279651Y-86597415D01*
X150407085Y-86724849D01*
X150556932Y-86824974D01*
X150640182Y-86859457D01*
X150723430Y-86893940D01*
X150723431Y-86893940D01*
X150723433Y-86893941D01*
X150900190Y-86929100D01*
X150900191Y-86929100D01*
X152604409Y-86929100D01*
X152604410Y-86929100D01*
X152781167Y-86893941D01*
X152947668Y-86824974D01*
X153097515Y-86724849D01*
X153224949Y-86597415D01*
X153325074Y-86447568D01*
X153394041Y-86281067D01*
X153429200Y-86104310D01*
X153429200Y-85924090D01*
X153394041Y-85747333D01*
X153325074Y-85580832D01*
X153224949Y-85430985D01*
X153097515Y-85303551D01*
X153097513Y-85303549D01*
X153023098Y-85253827D01*
X152947668Y-85203426D01*
X152947665Y-85203424D01*
X152947664Y-85203424D01*
X152781169Y-85134459D01*
X152663329Y-85111019D01*
X152604410Y-85099300D01*
X150900190Y-85099300D01*
X150856000Y-85108089D01*
X150723430Y-85134459D01*
X150556935Y-85203424D01*
X150407086Y-85303549D01*
X150407085Y-85303551D01*
X150279651Y-85430985D01*
X150279649Y-85430986D01*
X150179524Y-85580835D01*
X150110559Y-85747330D01*
X150075400Y-85924090D01*
X146926800Y-85924090D01*
X146891641Y-85747333D01*
X146822674Y-85580832D01*
X146722549Y-85430985D01*
X146595115Y-85303551D01*
X146595113Y-85303549D01*
X146520698Y-85253827D01*
X146445268Y-85203426D01*
X146445265Y-85203424D01*
X146445264Y-85203424D01*
X146278769Y-85134459D01*
X146160929Y-85111019D01*
X146102010Y-85099300D01*
X144397790Y-85099300D01*
X144353600Y-85108089D01*
X144221030Y-85134459D01*
X144054535Y-85203424D01*
X143904686Y-85303549D01*
X143904685Y-85303551D01*
X143777251Y-85430985D01*
X143777249Y-85430986D01*
X143677124Y-85580835D01*
X143608159Y-85747330D01*
X143573000Y-85924090D01*
X140414263Y-85924090D01*
X143600905Y-82737448D01*
X143600909Y-82737446D01*
X143615056Y-82723299D01*
X143615057Y-82723299D01*
X143686199Y-82652157D01*
X143705449Y-82605681D01*
X143724701Y-82559205D01*
X143724701Y-82458595D01*
X143724700Y-82458592D01*
X143724700Y-82266534D01*
X143743913Y-82207403D01*
X143794213Y-82170858D01*
X143856387Y-82170858D01*
X143896435Y-82195399D01*
X143904685Y-82203649D01*
X144054532Y-82303774D01*
X144137782Y-82338257D01*
X144221030Y-82372740D01*
X144221031Y-82372740D01*
X144221033Y-82372741D01*
X144397790Y-82407900D01*
X144397791Y-82407900D01*
X146102009Y-82407900D01*
X146102010Y-82407900D01*
X146278767Y-82372741D01*
X146445268Y-82303774D01*
X146595115Y-82203649D01*
X146722549Y-82076215D01*
X146822674Y-81926368D01*
X146891641Y-81759867D01*
X146926800Y-81583110D01*
X146926800Y-81402890D01*
X150075400Y-81402890D01*
X150075400Y-81583109D01*
X150110559Y-81759869D01*
X150179524Y-81926364D01*
X150179526Y-81926368D01*
X150227100Y-81997567D01*
X150279649Y-82076213D01*
X150279651Y-82076215D01*
X150407085Y-82203649D01*
X150556932Y-82303774D01*
X150640182Y-82338257D01*
X150723430Y-82372740D01*
X150723431Y-82372740D01*
X150723433Y-82372741D01*
X150900190Y-82407900D01*
X150900191Y-82407900D01*
X152604409Y-82407900D01*
X152604410Y-82407900D01*
X152781167Y-82372741D01*
X152947668Y-82303774D01*
X153097515Y-82203649D01*
X153224949Y-82076215D01*
X153325074Y-81926368D01*
X153394041Y-81759867D01*
X153429200Y-81583110D01*
X153429200Y-81402890D01*
X153394041Y-81226133D01*
X153325074Y-81059632D01*
X153224949Y-80909785D01*
X153097515Y-80782351D01*
X153097513Y-80782349D01*
X153023098Y-80732627D01*
X152947668Y-80682226D01*
X152947665Y-80682224D01*
X152947664Y-80682224D01*
X152781169Y-80613259D01*
X152663329Y-80589819D01*
X152604410Y-80578100D01*
X150900190Y-80578100D01*
X150856000Y-80586889D01*
X150723430Y-80613259D01*
X150556935Y-80682224D01*
X150407086Y-80782349D01*
X150407085Y-80782351D01*
X150279651Y-80909785D01*
X150279649Y-80909786D01*
X150179524Y-81059635D01*
X150110559Y-81226130D01*
X150075400Y-81402890D01*
X146926800Y-81402890D01*
X146891641Y-81226133D01*
X146822674Y-81059632D01*
X146722549Y-80909785D01*
X146595115Y-80782351D01*
X146595113Y-80782349D01*
X146520698Y-80732627D01*
X146445268Y-80682226D01*
X146445265Y-80682224D01*
X146445264Y-80682224D01*
X146278769Y-80613259D01*
X146160929Y-80589819D01*
X146102010Y-80578100D01*
X144397790Y-80578100D01*
X144353600Y-80586889D01*
X144221030Y-80613259D01*
X144054535Y-80682224D01*
X143904686Y-80782349D01*
X143904685Y-80782351D01*
X143777251Y-80909785D01*
X143777249Y-80909786D01*
X143677124Y-81059635D01*
X143628097Y-81177998D01*
X143587718Y-81225276D01*
X143535155Y-81240100D01*
X143522105Y-81240100D01*
X143421495Y-81240100D01*
X143375019Y-81259350D01*
X143328542Y-81278601D01*
X143257401Y-81349742D01*
X143218900Y-81442696D01*
X143218900Y-82362475D01*
X143199687Y-82421606D01*
X143189435Y-82433610D01*
X135602294Y-90020750D01*
X135546896Y-90048976D01*
X135485488Y-90039250D01*
X135485487Y-90039250D01*
X135394577Y-89992928D01*
X135231010Y-89939782D01*
X135230994Y-89939778D01*
X135061129Y-89912874D01*
X135061123Y-89912874D01*
X134889129Y-89912874D01*
X134889122Y-89912874D01*
X134719257Y-89939778D01*
X134719241Y-89939782D01*
X134555674Y-89992928D01*
X134402425Y-90071013D01*
X134263281Y-90172107D01*
X134141659Y-90293729D01*
X134040565Y-90432873D01*
X133962480Y-90586122D01*
X133909334Y-90749689D01*
X133909330Y-90749705D01*
X133882426Y-90919570D01*
X132873205Y-90919570D01*
X133879901Y-89912874D01*
X143673789Y-80118987D01*
X143704800Y-80044119D01*
X143704800Y-79963082D01*
X143681447Y-79906702D01*
X143681447Y-79906700D01*
X143673789Y-79888213D01*
X143616486Y-79830910D01*
X143572629Y-79812744D01*
X143541619Y-79799900D01*
X143541618Y-79799900D01*
X139235745Y-79799900D01*
X139176614Y-79780687D01*
X139140069Y-79730387D01*
X139140069Y-79668213D01*
X139164610Y-79628165D01*
X142646476Y-76146299D01*
X147313932Y-71478842D01*
X147369328Y-71450618D01*
X147430736Y-71460344D01*
G37*
%TD.AperFunction*%
%TA.AperFunction,Conductor*%
G36*
X148546771Y-70344310D02*
G01*
X148572235Y-70362810D01*
X149351956Y-71142531D01*
X149380182Y-71197929D01*
X149370456Y-71259337D01*
X149326492Y-71303301D01*
X149265084Y-71313027D01*
X149235149Y-71303301D01*
X149071055Y-71219690D01*
X148862048Y-71151779D01*
X148862042Y-71151778D01*
X148763300Y-71136138D01*
X148763300Y-72176080D01*
X148691965Y-72134895D01*
X148588604Y-72107200D01*
X148481596Y-72107200D01*
X148378235Y-72134895D01*
X148306900Y-72176080D01*
X148306900Y-71136138D01*
X148208157Y-71151778D01*
X148208151Y-71151779D01*
X147999144Y-71219690D01*
X147803331Y-71319463D01*
X147630610Y-71444952D01*
X147571479Y-71464165D01*
X147512348Y-71444952D01*
X147475803Y-71394652D01*
X147475803Y-71332478D01*
X147500342Y-71292432D01*
X148429965Y-70362810D01*
X148485363Y-70334584D01*
X148546771Y-70344310D01*
G37*
%TD.AperFunction*%
%TD*%
D22*
%TO.C,D4*%
X148535100Y-75053600D03*
X148535100Y-72513600D03*
%TD*%
%TO.C,D2*%
X172027074Y-121005574D03*
X173823126Y-122801626D03*
%TD*%
D23*
%TO.C,U1*%
X152071100Y-121568600D03*
X152071100Y-119028600D03*
X152071100Y-116488600D03*
X152071100Y-113948600D03*
X144451100Y-113948600D03*
X144451100Y-116488600D03*
X144451100Y-119028600D03*
X144451100Y-121568600D03*
%TD*%
D22*
%TO.C,Q2*%
X161001100Y-118773600D03*
X159096100Y-117503600D03*
X161001100Y-116233600D03*
%TD*%
%TO.C,D5*%
X125262126Y-121005574D03*
X123466074Y-122801626D03*
%TD*%
%TO.C,Q1*%
X136001100Y-116233600D03*
X137906100Y-117503600D03*
X136001100Y-118773600D03*
%TD*%
%TO.C,Q3*%
X147231100Y-127503600D03*
X148501100Y-125598600D03*
X149771100Y-127503600D03*
%TD*%
D24*
%TO.C,J1*%
X147211100Y-132153600D03*
X149751100Y-132153600D03*
X147211100Y-134693600D03*
X149751100Y-134693600D03*
X147211100Y-137233600D03*
X149751100Y-137233600D03*
%TD*%
D25*
%TO.C,U$1*%
X145249900Y-81493000D03*
X151752300Y-81493000D03*
X145249900Y-86014200D03*
X151752300Y-86014200D03*
%TD*%
D22*
%TO.C,D6*%
X129975126Y-106029574D03*
X128179074Y-107825626D03*
%TD*%
%TO.C,D3*%
X166927074Y-106039574D03*
X168723126Y-107835626D03*
%TD*%
%TO.C,D7*%
X134975126Y-91005574D03*
X133179074Y-92801626D03*
%TD*%
D26*
%TO.C,BATTERY_1*%
X148501100Y-111753600D03*
X148501100Y-91433600D03*
%TD*%
D15*
%TO.P,D4,A*%
%TO.N,N$6*%
X148535100Y-75053600D03*
%TO.P,D4,K*%
%TO.N,GND*%
X148535100Y-72513600D03*
%TD*%
%TO.P,D2,A*%
%TO.N,VCC*%
X172027074Y-121005574D03*
%TO.P,D2,K*%
%TO.N,L1*%
X173823126Y-122801626D03*
%TD*%
D16*
%TO.P,U1,1*%
%TO.N,RST*%
X152071100Y-121568600D03*
%TO.P,U1,2*%
%TO.N,T1*%
X152071100Y-119028600D03*
%TO.P,U1,3*%
%TO.N,T2*%
X152071100Y-116488600D03*
%TO.P,U1,4*%
%TO.N,GND*%
X152071100Y-113948600D03*
%TO.P,U1,5*%
%TO.N,MOSI/TOP*%
X144451100Y-113948600D03*
%TO.P,U1,6*%
%TO.N,MISO/T3*%
X144451100Y-116488600D03*
%TO.P,U1,7*%
%TO.N,SCK/SW*%
X144451100Y-119028600D03*
%TO.P,U1,8*%
%TO.N,VCC*%
X144451100Y-121568600D03*
%TD*%
D15*
%TO.P,Q2,1*%
%TO.N,GND*%
X161001100Y-118773600D03*
%TO.P,Q2,2*%
%TO.N,T2*%
X159096100Y-117503600D03*
%TO.P,Q2,3*%
%TO.N,N$4*%
X161001100Y-116233600D03*
%TD*%
%TO.P,D5,A*%
%TO.N,VCC*%
X125262126Y-121005574D03*
%TO.P,D5,K*%
%TO.N,L1*%
X123466074Y-122801626D03*
%TD*%
D27*
%TO.P,R5,1*%
%TO.N,GND*%
X147101100Y-88628600D03*
%TO.P,R5,2*%
%TO.N,N$3*%
X149901100Y-88628600D03*
%TD*%
D15*
%TO.P,Q1,1*%
%TO.N,GND*%
X136001100Y-116233600D03*
%TO.P,Q1,2*%
%TO.N,MISO/T3*%
X137906100Y-117503600D03*
%TO.P,Q1,3*%
%TO.N,N$2*%
X136001100Y-118773600D03*
%TD*%
%TO.P,Q3,1*%
%TO.N,GND*%
X147231100Y-127503600D03*
%TO.P,Q3,2*%
%TO.N,T1*%
X148501100Y-125598600D03*
%TO.P,Q3,3*%
%TO.N,N$5*%
X149771100Y-127503600D03*
%TD*%
D17*
%TO.P,J1,1*%
%TO.N,MISO/T3*%
X147211100Y-132153600D03*
%TO.P,J1,2*%
%TO.N,VCC*%
X149751100Y-132153600D03*
%TO.P,J1,3*%
%TO.N,SCK/SW*%
X147211100Y-134693600D03*
%TO.P,J1,4*%
%TO.N,MOSI/TOP*%
X149751100Y-134693600D03*
%TO.P,J1,5*%
%TO.N,RST*%
X147211100Y-137233600D03*
%TO.P,J1,6*%
%TO.N,GND*%
X149751100Y-137233600D03*
%TD*%
D18*
%TO.P,U$1,1*%
%TO.N,VCC*%
X145249900Y-81493000D03*
%TO.P,U$1,2*%
%TO.N,N/C*%
X151752300Y-81493000D03*
%TO.P,U$1,3*%
%TO.N,SCK/SW*%
X145249900Y-86014200D03*
%TO.P,U$1,4*%
%TO.N,N$3*%
X151752300Y-86014200D03*
%TD*%
D27*
%TO.P,R4,1*%
%TO.N,N$6*%
X139401100Y-112503600D03*
%TO.P,R4,2*%
%TO.N,MOSI/TOP*%
X136601100Y-112503600D03*
%TD*%
%TO.P,R3,1*%
%TO.N,L1*%
X159901100Y-112503600D03*
%TO.P,R3,2*%
%TO.N,N$5*%
X157101100Y-112503600D03*
%TD*%
D15*
%TO.P,D6,A*%
%TO.N,VCC*%
X129975126Y-106029574D03*
%TO.P,D6,K*%
%TO.N,L2*%
X128179074Y-107825626D03*
%TD*%
%TO.P,D3,A*%
%TO.N,VCC*%
X166927074Y-106039574D03*
%TO.P,D3,K*%
%TO.N,L2*%
X168723126Y-107835626D03*
%TD*%
D27*
%TO.P,R1,1*%
%TO.N,L2*%
X162101100Y-122503600D03*
%TO.P,R1,2*%
%TO.N,N$4*%
X164901100Y-122503600D03*
%TD*%
D15*
%TO.P,D7,A*%
%TO.N,VCC*%
X134975126Y-91005574D03*
%TO.P,D7,K*%
%TO.N,L3*%
X133179074Y-92801626D03*
%TD*%
D27*
%TO.P,R2,1*%
%TO.N,L3*%
X132101100Y-122503600D03*
%TO.P,R2,2*%
%TO.N,N$2*%
X134901100Y-122503600D03*
%TD*%
D19*
%TO.P,BATTERY_1,+*%
%TO.N,VCC*%
X148501100Y-111753600D03*
%TO.P,BATTERY_1,-*%
%TO.N,GND*%
X148501100Y-91433600D03*
%TD*%
D20*
%TO.N,VCC*%
X145634700Y-91839800D03*
X146590400Y-121090800D03*
%TO.N,GND*%
X148369800Y-88843200D03*
%TO.N,MOSI/TOP*%
X137934500Y-112815800D03*
%TO.N,RST*%
X155366100Y-122251400D03*
%TO.N,L2*%
X157752200Y-104819500D03*
%TO.N,L1*%
X160443500Y-114535900D03*
%TD*%
D21*
%TO.N,VCC*%
X145634700Y-91839800D02*
X145634700Y-108887200D01*
X146590400Y-121090800D02*
X148501100Y-119180100D01*
X146012800Y-125842700D02*
X146590400Y-125265100D01*
X149751100Y-132153600D02*
X149751100Y-130957900D01*
X148951300Y-130957900D02*
X146012800Y-128019400D01*
X149751100Y-130957900D02*
X148951300Y-130957900D01*
X145634700Y-108887200D02*
X148501100Y-111753600D01*
X148501100Y-119180100D02*
X148501100Y-111753600D01*
X146012800Y-128019400D02*
X146012800Y-125842700D01*
X146590400Y-125265100D02*
X146590400Y-121090800D01*
%TO.N,GND*%
X152071100Y-92544500D02*
X149308600Y-89782000D01*
X149308600Y-89782000D02*
X148847700Y-89782000D01*
X148847700Y-89782000D02*
X148847700Y-89321100D01*
X148369800Y-88843200D02*
X148155200Y-88628600D01*
X147101100Y-88628600D02*
X148155200Y-88628600D01*
X148847700Y-89321100D02*
X148369800Y-88843200D01*
X152071100Y-113948600D02*
X152071100Y-92544500D01*
%TO.N,MOSI/TOP*%
X137655200Y-112536500D02*
X137934500Y-112815800D01*
X148555400Y-131353000D02*
X148555400Y-132676000D01*
X144451100Y-113948600D02*
X144451100Y-115067900D01*
X145658700Y-125519700D02*
X145658700Y-128456300D01*
X148555400Y-132676000D02*
X149377300Y-133497900D01*
X144451100Y-115067900D02*
X144683000Y-115067900D01*
X149751100Y-134693600D02*
X149751100Y-133497900D01*
X144683000Y-115067900D02*
X146012800Y-116397700D01*
X137655200Y-112503600D02*
X137655200Y-112536500D01*
X136601100Y-112503600D02*
X137655200Y-112503600D01*
X145658700Y-128456300D02*
X148555400Y-131353000D01*
X146012800Y-125165600D02*
X145658700Y-125519700D01*
X149377300Y-133497900D02*
X149751100Y-133497900D01*
X146012800Y-116397700D02*
X146012800Y-125165600D01*
%TO.N,SCK/SW*%
X147211100Y-133497900D02*
X146837400Y-133497900D01*
X143331800Y-122032200D02*
X143331800Y-120147900D01*
X147211100Y-134693600D02*
X147211100Y-133497900D01*
X144451100Y-120147900D02*
X143331800Y-120147900D01*
X143331800Y-86154200D02*
X143471800Y-86014200D01*
X146837400Y-133497900D02*
X144915000Y-131575500D01*
X145249900Y-86014200D02*
X143471800Y-86014200D01*
X144451100Y-119028600D02*
X144451100Y-120147900D01*
X143331800Y-120147900D02*
X143331800Y-86154200D01*
X144915000Y-123615400D02*
X143331800Y-122032200D01*
X144915000Y-131575500D02*
X144915000Y-123615400D01*
%TO.N,MISO/T3*%
X145570400Y-116488600D02*
X145570400Y-125107300D01*
X144451100Y-116488600D02*
X145570400Y-116488600D01*
X145570400Y-125107300D02*
X145304600Y-125373100D01*
X145304600Y-129051400D02*
X147211100Y-130957900D01*
X147211100Y-132153600D02*
X147211100Y-130957900D01*
X145304600Y-125373100D02*
X145304600Y-129051400D01*
%TO.N,RST*%
X151718000Y-125899500D02*
X151718000Y-134437600D01*
X150192000Y-135963600D02*
X149305200Y-135963600D01*
X148406800Y-136862000D02*
X148406800Y-137233600D01*
X147211100Y-137233600D02*
X148406800Y-137233600D01*
X149305200Y-135963600D02*
X148406800Y-136862000D01*
X155366100Y-122251400D02*
X151718000Y-125899500D01*
X151718000Y-134437600D02*
X150192000Y-135963600D01*
%TO.N,N$5*%
X149771100Y-127062900D02*
X149771100Y-127503600D01*
X157101100Y-112503600D02*
X157101100Y-119732900D01*
X157101100Y-119732900D02*
X149771100Y-127062900D01*
%TO.N,N$6*%
X139401100Y-89508800D02*
X143649300Y-85260600D01*
X139401100Y-112503600D02*
X139401100Y-89508800D01*
X143726700Y-85260600D02*
X148535100Y-80452200D01*
X148535100Y-80452200D02*
X148535100Y-75053600D01*
X143649300Y-85260600D02*
X143726700Y-85260600D01*
%TO.N,L2*%
X162101100Y-122503600D02*
X161047000Y-122503600D01*
X161047000Y-122503600D02*
X157835200Y-119291800D01*
X158155200Y-114422200D02*
X158155200Y-105222500D01*
X157835200Y-114742200D02*
X158155200Y-114422200D01*
X158155200Y-105222500D02*
X157752200Y-104819500D01*
X157835200Y-119291800D02*
X157835200Y-114742200D01*
%TO.N,N$2*%
X135955200Y-122503600D02*
X135955200Y-118819500D01*
X134901100Y-122503600D02*
X135955200Y-122503600D01*
X135955200Y-118819500D02*
X136001100Y-118773600D01*
%TO.N,N$4*%
X164901100Y-120133600D02*
X161001100Y-116233600D01*
X164901100Y-122503600D02*
X164901100Y-120133600D01*
%TO.N,L3*%
X138791500Y-94906900D02*
X136686200Y-92801600D01*
X132101100Y-113818900D02*
X138791500Y-107128500D01*
X138791500Y-107128500D02*
X138791500Y-94906900D01*
X136686200Y-92801600D02*
X133179100Y-92801600D01*
X132101100Y-122503600D02*
X132101100Y-113818900D01*
%TO.N,N$3*%
X149974200Y-87401400D02*
X149901100Y-87474500D01*
X151752300Y-86014200D02*
X149974200Y-86014200D01*
X149974200Y-86014200D02*
X149974200Y-87401400D01*
X149901100Y-88628600D02*
X149901100Y-87474500D01*
%TO.N,L1*%
X159901100Y-113993500D02*
X159901100Y-112503600D01*
X160443500Y-114535900D02*
X159901100Y-113993500D01*
%TO.N,T1*%
X152071100Y-119028600D02*
X152071100Y-120147900D01*
X148501100Y-123485900D02*
X151839100Y-120147900D01*
X151839100Y-120147900D02*
X152071100Y-120147900D01*
X148501100Y-125598600D02*
X148501100Y-123485900D01*
%TD*%
D28*
X167251100Y-94378600D02*
X152251100Y-79378600D01*
X157251100Y-79378600D02*
X148501100Y-70628600D01*
X134751100Y-109378600D02*
X119751100Y-124378600D01*
X152876100Y-139378600D02*
X152876100Y-124378600D01*
X152251100Y-79378600D02*
X157251100Y-79378600D01*
X124751100Y-109378600D02*
X134751100Y-109378600D01*
X144126100Y-124378600D02*
X144126100Y-139378600D01*
X144126100Y-139378600D02*
X152876100Y-139378600D01*
X144751100Y-79378600D02*
X129751100Y-94378600D01*
X177251100Y-124378600D02*
X162251100Y-109378600D01*
X139751100Y-79378600D02*
X144751100Y-79378600D01*
X139751100Y-94378600D02*
X124751100Y-109378600D01*
X152876100Y-124378600D02*
X177251100Y-124378600D01*
X162251100Y-109378600D02*
X172251100Y-109378600D01*
X129751100Y-94378600D02*
X139751100Y-94378600D01*
X148501100Y-70628600D02*
X139751100Y-79378600D01*
X172251100Y-109378600D02*
X157251100Y-94378600D01*
X119751100Y-124378600D02*
X144126100Y-124378600D01*
D29*
%TO.C,D4*%
X148535100Y-75053600D03*
X148535100Y-72513600D03*
%TD*%
%TO.C,D2*%
X172027074Y-121005574D03*
X173823126Y-122801626D03*
%TD*%
D30*
%TO.C,U1*%
X152071100Y-121568600D03*
X152071100Y-119028600D03*
X152071100Y-116488600D03*
X152071100Y-113948600D03*
X144451100Y-113948600D03*
X144451100Y-116488600D03*
X144451100Y-119028600D03*
X144451100Y-121568600D03*
%TD*%
D29*
%TO.C,Q2*%
X161001100Y-118773600D03*
X159096100Y-117503600D03*
X161001100Y-116233600D03*
%TD*%
%TO.C,D5*%
X125262126Y-121005574D03*
X123466074Y-122801626D03*
%TD*%
D31*
%TO.C,R5*%
X147101100Y-88628600D03*
X149901100Y-88628600D03*
%TD*%
D29*
%TO.C,Q1*%
X136001100Y-116233600D03*
X137906100Y-117503600D03*
X136001100Y-118773600D03*
%TD*%
%TO.C,Q3*%
X147231100Y-127503600D03*
X148501100Y-125598600D03*
X149771100Y-127503600D03*
%TD*%
D32*
%TO.C,J1*%
X147211100Y-132153600D03*
X149751100Y-132153600D03*
X147211100Y-134693600D03*
X149751100Y-134693600D03*
X147211100Y-137233600D03*
X149751100Y-137233600D03*
%TD*%
D33*
%TO.C,U$1*%
X145249900Y-81493000D03*
X151752300Y-81493000D03*
X145249900Y-86014200D03*
X151752300Y-86014200D03*
%TD*%
D34*
%TO.C,R4*%
X139401100Y-112503600D03*
X136601100Y-112503600D03*
%TD*%
%TO.C,R3*%
X159901100Y-112503600D03*
X157101100Y-112503600D03*
%TD*%
D29*
%TO.C,D6*%
X129975126Y-106029574D03*
X128179074Y-107825626D03*
%TD*%
%TO.C,D3*%
X166927074Y-106039574D03*
X168723126Y-107835626D03*
%TD*%
D31*
%TO.C,R1*%
X162101100Y-122503600D03*
X164901100Y-122503600D03*
%TD*%
D29*
%TO.C,D7*%
X134975126Y-91005574D03*
X133179074Y-92801626D03*
%TD*%
D31*
%TO.C,R2*%
X132101100Y-122503600D03*
X134901100Y-122503600D03*
%TD*%
D35*
%TO.C,BATTERY_1*%
X148501100Y-111753600D03*
X148501100Y-91433600D03*
%TD*%
D36*
%TO.C,R5*%
X147101100Y-88628600D03*
X149901100Y-88628600D03*
%TD*%
%TO.C,R4*%
X139401100Y-112503600D03*
X136601100Y-112503600D03*
%TD*%
%TO.C,R3*%
X159901100Y-112503600D03*
X157101100Y-112503600D03*
%TD*%
%TO.C,R1*%
X162101100Y-122503600D03*
X164901100Y-122503600D03*
%TD*%
%TO.C,R2*%
X132101100Y-122503600D03*
X134901100Y-122503600D03*
%TD*%
D37*
X144729320Y-71633236D02*
X143573620Y-71633236D01*
X143573620Y-71633236D02*
X143573620Y-71358069D01*
X143573620Y-71358069D02*
X143628653Y-71192969D01*
X143628653Y-71192969D02*
X143738720Y-71082903D01*
X143738720Y-71082903D02*
X143848787Y-71027869D01*
X143848787Y-71027869D02*
X144068920Y-70972836D01*
X144068920Y-70972836D02*
X144234020Y-70972836D01*
X144234020Y-70972836D02*
X144454153Y-71027869D01*
X144454153Y-71027869D02*
X144564220Y-71082903D01*
X144564220Y-71082903D02*
X144674287Y-71192969D01*
X144674287Y-71192969D02*
X144729320Y-71358069D01*
X144729320Y-71358069D02*
X144729320Y-71633236D01*
X143958853Y-69982236D02*
X144729320Y-69982236D01*
X143518587Y-70257403D02*
X144344087Y-70532569D01*
X144344087Y-70532569D02*
X144344087Y-69817136D01*
X173802607Y-117556897D02*
X172985404Y-118374100D01*
X172985404Y-118374100D02*
X172790831Y-118179528D01*
X172790831Y-118179528D02*
X172713002Y-118023870D01*
X172713002Y-118023870D02*
X172713002Y-117868213D01*
X172713002Y-117868213D02*
X172751917Y-117751469D01*
X172751917Y-117751469D02*
X172868660Y-117556897D01*
X172868660Y-117556897D02*
X172985404Y-117440154D01*
X172985404Y-117440154D02*
X173179976Y-117323410D01*
X173179976Y-117323410D02*
X173296719Y-117284496D01*
X173296719Y-117284496D02*
X173452377Y-117284496D01*
X173452377Y-117284496D02*
X173608035Y-117362325D01*
X173608035Y-117362325D02*
X173802607Y-117556897D01*
X172284944Y-117517983D02*
X172207115Y-117517983D01*
X172207115Y-117517983D02*
X172090371Y-117479068D01*
X172090371Y-117479068D02*
X171895799Y-117284496D01*
X171895799Y-117284496D02*
X171856885Y-117167753D01*
X171856885Y-117167753D02*
X171856885Y-117089924D01*
X171856885Y-117089924D02*
X171895799Y-116973180D01*
X171895799Y-116973180D02*
X171973628Y-116895352D01*
X171973628Y-116895352D02*
X172129286Y-116817523D01*
X172129286Y-116817523D02*
X173063232Y-116817523D01*
X173063232Y-116817523D02*
X172557345Y-116311635D01*
D38*
X162354160Y-117469934D02*
X162336549Y-117505155D01*
X162336549Y-117505155D02*
X162301328Y-117540377D01*
X162301328Y-117540377D02*
X162248496Y-117593209D01*
X162248496Y-117593209D02*
X162230885Y-117628430D01*
X162230885Y-117628430D02*
X162230885Y-117663651D01*
X162318938Y-117646041D02*
X162301328Y-117681262D01*
X162301328Y-117681262D02*
X162266106Y-117716483D01*
X162266106Y-117716483D02*
X162195664Y-117734094D01*
X162195664Y-117734094D02*
X162072389Y-117734094D01*
X162072389Y-117734094D02*
X162001946Y-117716483D01*
X162001946Y-117716483D02*
X161966725Y-117681262D01*
X161966725Y-117681262D02*
X161949114Y-117646041D01*
X161949114Y-117646041D02*
X161949114Y-117575598D01*
X161949114Y-117575598D02*
X161966725Y-117540377D01*
X161966725Y-117540377D02*
X162001946Y-117505155D01*
X162001946Y-117505155D02*
X162072389Y-117487545D01*
X162072389Y-117487545D02*
X162195664Y-117487545D01*
X162195664Y-117487545D02*
X162266106Y-117505155D01*
X162266106Y-117505155D02*
X162301328Y-117540377D01*
X162301328Y-117540377D02*
X162318938Y-117575598D01*
X162318938Y-117575598D02*
X162318938Y-117646041D01*
X161984336Y-117346659D02*
X161966725Y-117329048D01*
X161966725Y-117329048D02*
X161949114Y-117293827D01*
X161949114Y-117293827D02*
X161949114Y-117205774D01*
X161949114Y-117205774D02*
X161966725Y-117170552D01*
X161966725Y-117170552D02*
X161984336Y-117152942D01*
X161984336Y-117152942D02*
X162019557Y-117135331D01*
X162019557Y-117135331D02*
X162054778Y-117135331D01*
X162054778Y-117135331D02*
X162107610Y-117152942D01*
X162107610Y-117152942D02*
X162318938Y-117364270D01*
X162318938Y-117364270D02*
X162318938Y-117135331D01*
D37*
X122352674Y-116038961D02*
X123169877Y-116856164D01*
X123169877Y-116856164D02*
X122975305Y-117050737D01*
X122975305Y-117050737D02*
X122819647Y-117128566D01*
X122819647Y-117128566D02*
X122663990Y-117128566D01*
X122663990Y-117128566D02*
X122547246Y-117089651D01*
X122547246Y-117089651D02*
X122352674Y-116972908D01*
X122352674Y-116972908D02*
X122235931Y-116856164D01*
X122235931Y-116856164D02*
X122119187Y-116661592D01*
X122119187Y-116661592D02*
X122080273Y-116544849D01*
X122080273Y-116544849D02*
X122080273Y-116389191D01*
X122080273Y-116389191D02*
X122158102Y-116233533D01*
X122158102Y-116233533D02*
X122352674Y-116038961D01*
X121963530Y-118062512D02*
X122352674Y-117673368D01*
X122352674Y-117673368D02*
X122002444Y-117245309D01*
X122002444Y-117245309D02*
X122002444Y-117323138D01*
X122002444Y-117323138D02*
X121963530Y-117439881D01*
X121963530Y-117439881D02*
X121768957Y-117634453D01*
X121768957Y-117634453D02*
X121652214Y-117673368D01*
X121652214Y-117673368D02*
X121574385Y-117673368D01*
X121574385Y-117673368D02*
X121457642Y-117634453D01*
X121457642Y-117634453D02*
X121263070Y-117439881D01*
X121263070Y-117439881D02*
X121224155Y-117323138D01*
X121224155Y-117323138D02*
X121224155Y-117245309D01*
X121224155Y-117245309D02*
X121263070Y-117128566D01*
X121263070Y-117128566D02*
X121457642Y-116933993D01*
X121457642Y-116933993D02*
X121574385Y-116895079D01*
X121574385Y-116895079D02*
X121652214Y-116895079D01*
D39*
X148555554Y-88437969D02*
X148430058Y-88258688D01*
X148340418Y-88437969D02*
X148340418Y-88061480D01*
X148340418Y-88061480D02*
X148483842Y-88061480D01*
X148483842Y-88061480D02*
X148519698Y-88079408D01*
X148519698Y-88079408D02*
X148537626Y-88097336D01*
X148537626Y-88097336D02*
X148555554Y-88133192D01*
X148555554Y-88133192D02*
X148555554Y-88186976D01*
X148555554Y-88186976D02*
X148537626Y-88222832D01*
X148537626Y-88222832D02*
X148519698Y-88240760D01*
X148519698Y-88240760D02*
X148483842Y-88258688D01*
X148483842Y-88258688D02*
X148340418Y-88258688D01*
X148896187Y-88061480D02*
X148716907Y-88061480D01*
X148716907Y-88061480D02*
X148698979Y-88240760D01*
X148698979Y-88240760D02*
X148716907Y-88222832D01*
X148716907Y-88222832D02*
X148752763Y-88204904D01*
X148752763Y-88204904D02*
X148842403Y-88204904D01*
X148842403Y-88204904D02*
X148878259Y-88222832D01*
X148878259Y-88222832D02*
X148896187Y-88240760D01*
X148896187Y-88240760D02*
X148914115Y-88276616D01*
X148914115Y-88276616D02*
X148914115Y-88366256D01*
X148914115Y-88366256D02*
X148896187Y-88402112D01*
X148896187Y-88402112D02*
X148878259Y-88420041D01*
X148878259Y-88420041D02*
X148842403Y-88437969D01*
X148842403Y-88437969D02*
X148752763Y-88437969D01*
X148752763Y-88437969D02*
X148716907Y-88420041D01*
X148716907Y-88420041D02*
X148698979Y-88402112D01*
D38*
X135156854Y-117607708D02*
X135139243Y-117642929D01*
X135139243Y-117642929D02*
X135104022Y-117678151D01*
X135104022Y-117678151D02*
X135051190Y-117730983D01*
X135051190Y-117730983D02*
X135033579Y-117766204D01*
X135033579Y-117766204D02*
X135033579Y-117801425D01*
X135121632Y-117783815D02*
X135104022Y-117819036D01*
X135104022Y-117819036D02*
X135068800Y-117854257D01*
X135068800Y-117854257D02*
X134998358Y-117871868D01*
X134998358Y-117871868D02*
X134875083Y-117871868D01*
X134875083Y-117871868D02*
X134804640Y-117854257D01*
X134804640Y-117854257D02*
X134769419Y-117819036D01*
X134769419Y-117819036D02*
X134751808Y-117783815D01*
X134751808Y-117783815D02*
X134751808Y-117713372D01*
X134751808Y-117713372D02*
X134769419Y-117678151D01*
X134769419Y-117678151D02*
X134804640Y-117642929D01*
X134804640Y-117642929D02*
X134875083Y-117625319D01*
X134875083Y-117625319D02*
X134998358Y-117625319D01*
X134998358Y-117625319D02*
X135068800Y-117642929D01*
X135068800Y-117642929D02*
X135104022Y-117678151D01*
X135104022Y-117678151D02*
X135121632Y-117713372D01*
X135121632Y-117713372D02*
X135121632Y-117783815D01*
X135121632Y-117273105D02*
X135121632Y-117484433D01*
X135121632Y-117378769D02*
X134751808Y-117378769D01*
X134751808Y-117378769D02*
X134804640Y-117413990D01*
X134804640Y-117413990D02*
X134839862Y-117449212D01*
X134839862Y-117449212D02*
X134857472Y-117484433D01*
X148534765Y-128856660D02*
X148499544Y-128839049D01*
X148499544Y-128839049D02*
X148464323Y-128803828D01*
X148464323Y-128803828D02*
X148411491Y-128750996D01*
X148411491Y-128750996D02*
X148376269Y-128733385D01*
X148376269Y-128733385D02*
X148341048Y-128733385D01*
X148358659Y-128821438D02*
X148323437Y-128803828D01*
X148323437Y-128803828D02*
X148288216Y-128768606D01*
X148288216Y-128768606D02*
X148270605Y-128698164D01*
X148270605Y-128698164D02*
X148270605Y-128574889D01*
X148270605Y-128574889D02*
X148288216Y-128504446D01*
X148288216Y-128504446D02*
X148323437Y-128469225D01*
X148323437Y-128469225D02*
X148358659Y-128451614D01*
X148358659Y-128451614D02*
X148429101Y-128451614D01*
X148429101Y-128451614D02*
X148464323Y-128469225D01*
X148464323Y-128469225D02*
X148499544Y-128504446D01*
X148499544Y-128504446D02*
X148517155Y-128574889D01*
X148517155Y-128574889D02*
X148517155Y-128698164D01*
X148517155Y-128698164D02*
X148499544Y-128768606D01*
X148499544Y-128768606D02*
X148464323Y-128803828D01*
X148464323Y-128803828D02*
X148429101Y-128821438D01*
X148429101Y-128821438D02*
X148358659Y-128821438D01*
X148640430Y-128451614D02*
X148869368Y-128451614D01*
X148869368Y-128451614D02*
X148746094Y-128592500D01*
X148746094Y-128592500D02*
X148798926Y-128592500D01*
X148798926Y-128592500D02*
X148834147Y-128610110D01*
X148834147Y-128610110D02*
X148851758Y-128627721D01*
X148851758Y-128627721D02*
X148869368Y-128662942D01*
X148869368Y-128662942D02*
X148869368Y-128750996D01*
X148869368Y-128750996D02*
X148851758Y-128786217D01*
X148851758Y-128786217D02*
X148834147Y-128803828D01*
X148834147Y-128803828D02*
X148798926Y-128821438D01*
X148798926Y-128821438D02*
X148693262Y-128821438D01*
X148693262Y-128821438D02*
X148658040Y-128803828D01*
X148658040Y-128803828D02*
X148640430Y-128786217D01*
D39*
X137821148Y-113039461D02*
X137695652Y-112860180D01*
X137606012Y-113039461D02*
X137606012Y-112662972D01*
X137606012Y-112662972D02*
X137749436Y-112662972D01*
X137749436Y-112662972D02*
X137785292Y-112680900D01*
X137785292Y-112680900D02*
X137803220Y-112698828D01*
X137803220Y-112698828D02*
X137821148Y-112734684D01*
X137821148Y-112734684D02*
X137821148Y-112788468D01*
X137821148Y-112788468D02*
X137803220Y-112824324D01*
X137803220Y-112824324D02*
X137785292Y-112842252D01*
X137785292Y-112842252D02*
X137749436Y-112860180D01*
X137749436Y-112860180D02*
X137606012Y-112860180D01*
X138143853Y-112788468D02*
X138143853Y-113039461D01*
X138054213Y-112645044D02*
X137964573Y-112913964D01*
X137964573Y-112913964D02*
X138197637Y-112913964D01*
X158321148Y-113289461D02*
X158195652Y-113110180D01*
X158106012Y-113289461D02*
X158106012Y-112912972D01*
X158106012Y-112912972D02*
X158249436Y-112912972D01*
X158249436Y-112912972D02*
X158285292Y-112930900D01*
X158285292Y-112930900D02*
X158303220Y-112948828D01*
X158303220Y-112948828D02*
X158321148Y-112984684D01*
X158321148Y-112984684D02*
X158321148Y-113038468D01*
X158321148Y-113038468D02*
X158303220Y-113074324D01*
X158303220Y-113074324D02*
X158285292Y-113092252D01*
X158285292Y-113092252D02*
X158249436Y-113110180D01*
X158249436Y-113110180D02*
X158106012Y-113110180D01*
X158446645Y-112912972D02*
X158679709Y-112912972D01*
X158679709Y-112912972D02*
X158554213Y-113056396D01*
X158554213Y-113056396D02*
X158607997Y-113056396D01*
X158607997Y-113056396D02*
X158643853Y-113074324D01*
X158643853Y-113074324D02*
X158661781Y-113092252D01*
X158661781Y-113092252D02*
X158679709Y-113128108D01*
X158679709Y-113128108D02*
X158679709Y-113217748D01*
X158679709Y-113217748D02*
X158661781Y-113253604D01*
X158661781Y-113253604D02*
X158643853Y-113271533D01*
X158643853Y-113271533D02*
X158607997Y-113289461D01*
X158607997Y-113289461D02*
X158500429Y-113289461D01*
X158500429Y-113289461D02*
X158464573Y-113271533D01*
X158464573Y-113271533D02*
X158446645Y-113253604D01*
D37*
X127065674Y-101062961D02*
X127882877Y-101880164D01*
X127882877Y-101880164D02*
X127688305Y-102074737D01*
X127688305Y-102074737D02*
X127532647Y-102152566D01*
X127532647Y-102152566D02*
X127376990Y-102152566D01*
X127376990Y-102152566D02*
X127260246Y-102113651D01*
X127260246Y-102113651D02*
X127065674Y-101996908D01*
X127065674Y-101996908D02*
X126948931Y-101880164D01*
X126948931Y-101880164D02*
X126832187Y-101685592D01*
X126832187Y-101685592D02*
X126793273Y-101568849D01*
X126793273Y-101568849D02*
X126793273Y-101413191D01*
X126793273Y-101413191D02*
X126871102Y-101257533D01*
X126871102Y-101257533D02*
X127065674Y-101062961D01*
X126715444Y-103047598D02*
X126871102Y-102891940D01*
X126871102Y-102891940D02*
X126910016Y-102775197D01*
X126910016Y-102775197D02*
X126910016Y-102697368D01*
X126910016Y-102697368D02*
X126871102Y-102502796D01*
X126871102Y-102502796D02*
X126754359Y-102308223D01*
X126754359Y-102308223D02*
X126443043Y-101996908D01*
X126443043Y-101996908D02*
X126326300Y-101957993D01*
X126326300Y-101957993D02*
X126248471Y-101957993D01*
X126248471Y-101957993D02*
X126131728Y-101996908D01*
X126131728Y-101996908D02*
X125976070Y-102152566D01*
X125976070Y-102152566D02*
X125937155Y-102269309D01*
X125937155Y-102269309D02*
X125937155Y-102347138D01*
X125937155Y-102347138D02*
X125976070Y-102463881D01*
X125976070Y-102463881D02*
X126170642Y-102658453D01*
X126170642Y-102658453D02*
X126287385Y-102697368D01*
X126287385Y-102697368D02*
X126365214Y-102697368D01*
X126365214Y-102697368D02*
X126481957Y-102658453D01*
X126481957Y-102658453D02*
X126637615Y-102502796D01*
X126637615Y-102502796D02*
X126676530Y-102386052D01*
X126676530Y-102386052D02*
X126676530Y-102308223D01*
X126676530Y-102308223D02*
X126637615Y-102191480D01*
X166559842Y-101590897D02*
X165742639Y-102408100D01*
X165742639Y-102408100D02*
X165548066Y-102213528D01*
X165548066Y-102213528D02*
X165470237Y-102057870D01*
X165470237Y-102057870D02*
X165470237Y-101902213D01*
X165470237Y-101902213D02*
X165509152Y-101785469D01*
X165509152Y-101785469D02*
X165625895Y-101590897D01*
X165625895Y-101590897D02*
X165742639Y-101474154D01*
X165742639Y-101474154D02*
X165937211Y-101357410D01*
X165937211Y-101357410D02*
X166053954Y-101318496D01*
X166053954Y-101318496D02*
X166209612Y-101318496D01*
X166209612Y-101318496D02*
X166365270Y-101396325D01*
X166365270Y-101396325D02*
X166559842Y-101590897D01*
X165003264Y-101668726D02*
X164497376Y-101162838D01*
X164497376Y-101162838D02*
X165081093Y-101123924D01*
X165081093Y-101123924D02*
X164964350Y-101007180D01*
X164964350Y-101007180D02*
X164925435Y-100890437D01*
X164925435Y-100890437D02*
X164925435Y-100812608D01*
X164925435Y-100812608D02*
X164964350Y-100695865D01*
X164964350Y-100695865D02*
X165158922Y-100501293D01*
X165158922Y-100501293D02*
X165275665Y-100462378D01*
X165275665Y-100462378D02*
X165353494Y-100462378D01*
X165353494Y-100462378D02*
X165470237Y-100501293D01*
X165470237Y-100501293D02*
X165703724Y-100734779D01*
X165703724Y-100734779D02*
X165742639Y-100851523D01*
X165742639Y-100851523D02*
X165742639Y-100929352D01*
D39*
X163555554Y-122312969D02*
X163430058Y-122133688D01*
X163340418Y-122312969D02*
X163340418Y-121936480D01*
X163340418Y-121936480D02*
X163483842Y-121936480D01*
X163483842Y-121936480D02*
X163519698Y-121954408D01*
X163519698Y-121954408D02*
X163537626Y-121972336D01*
X163537626Y-121972336D02*
X163555554Y-122008192D01*
X163555554Y-122008192D02*
X163555554Y-122061976D01*
X163555554Y-122061976D02*
X163537626Y-122097832D01*
X163537626Y-122097832D02*
X163519698Y-122115760D01*
X163519698Y-122115760D02*
X163483842Y-122133688D01*
X163483842Y-122133688D02*
X163340418Y-122133688D01*
X163914115Y-122312969D02*
X163698979Y-122312969D01*
X163806547Y-122312969D02*
X163806547Y-121936480D01*
X163806547Y-121936480D02*
X163770691Y-121990264D01*
X163770691Y-121990264D02*
X163734835Y-122026120D01*
X163734835Y-122026120D02*
X163698979Y-122044048D01*
D37*
X132065674Y-86038961D02*
X132882877Y-86856164D01*
X132882877Y-86856164D02*
X132688305Y-87050737D01*
X132688305Y-87050737D02*
X132532647Y-87128566D01*
X132532647Y-87128566D02*
X132376990Y-87128566D01*
X132376990Y-87128566D02*
X132260246Y-87089651D01*
X132260246Y-87089651D02*
X132065674Y-86972908D01*
X132065674Y-86972908D02*
X131948931Y-86856164D01*
X131948931Y-86856164D02*
X131832187Y-86661592D01*
X131832187Y-86661592D02*
X131793273Y-86544849D01*
X131793273Y-86544849D02*
X131793273Y-86389191D01*
X131793273Y-86389191D02*
X131871102Y-86233533D01*
X131871102Y-86233533D02*
X132065674Y-86038961D01*
X132143503Y-87595539D02*
X131598701Y-88140341D01*
X131598701Y-88140341D02*
X131131728Y-86972908D01*
D39*
X133555554Y-122312969D02*
X133430058Y-122133688D01*
X133340418Y-122312969D02*
X133340418Y-121936480D01*
X133340418Y-121936480D02*
X133483842Y-121936480D01*
X133483842Y-121936480D02*
X133519698Y-121954408D01*
X133519698Y-121954408D02*
X133537626Y-121972336D01*
X133537626Y-121972336D02*
X133555554Y-122008192D01*
X133555554Y-122008192D02*
X133555554Y-122061976D01*
X133555554Y-122061976D02*
X133537626Y-122097832D01*
X133537626Y-122097832D02*
X133519698Y-122115760D01*
X133519698Y-122115760D02*
X133483842Y-122133688D01*
X133483842Y-122133688D02*
X133340418Y-122133688D01*
X133698979Y-121972336D02*
X133716907Y-121954408D01*
X133716907Y-121954408D02*
X133752763Y-121936480D01*
X133752763Y-121936480D02*
X133842403Y-121936480D01*
X133842403Y-121936480D02*
X133878259Y-121954408D01*
X133878259Y-121954408D02*
X133896187Y-121972336D01*
X133896187Y-121972336D02*
X133914115Y-122008192D01*
X133914115Y-122008192D02*
X133914115Y-122044048D01*
X133914115Y-122044048D02*
X133896187Y-122097832D01*
X133896187Y-122097832D02*
X133681051Y-122312969D01*
X133681051Y-122312969D02*
X133914115Y-122312969D01*
D40*
%TO.C,D4*%
X149170100Y-71243600D02*
X147900100Y-71243600D01*
%TO.C,D2*%
X174272138Y-124148664D02*
X175170164Y-123250638D01*
%TO.C,U1*%
X145721100Y-112678600D02*
X150801100Y-112678600D01*
X145721100Y-122838600D02*
X145721100Y-112678600D01*
X145721100Y-122838600D02*
X149785100Y-122838600D01*
X149785100Y-122838600D02*
X149277100Y-122838600D01*
X150801100Y-122838600D02*
X149785100Y-122838600D01*
X150801100Y-122838600D02*
X150801100Y-112678600D01*
D41*
X150249500Y-121568600D02*
G75*
G02*
X148812700Y-121568600I-718400J0D01*
G01*
X148812700Y-121568600D02*
G75*
G02*
X150249500Y-121568600I718400J0D01*
G01*
D40*
%TO.C,Q2*%
X161255100Y-115249900D02*
X161255100Y-114848700D01*
X161255100Y-117789900D02*
X161255100Y-117217300D01*
X161255100Y-120158500D02*
X161255100Y-119757300D01*
X162652100Y-119598100D02*
X162652100Y-115409100D01*
X158452703Y-116717300D02*
G75*
G02*
X162652100Y-115409100I2548413J-786300D01*
G01*
X162652099Y-119598199D02*
G75*
G02*
X158452600Y-118289900I-1650996J2094599D01*
G01*
%TO.C,D5*%
X122119036Y-123250638D02*
X123017062Y-124148664D01*
%TO.C,Q1*%
X134350100Y-115409100D02*
X134350100Y-119598100D01*
X135747100Y-114848700D02*
X135747100Y-115249900D01*
X135747100Y-117217300D02*
X135747100Y-117789900D01*
X135747100Y-119757300D02*
X135747100Y-120158500D01*
X134350101Y-115409001D02*
G75*
G02*
X138549600Y-116717300I1650996J-2094599D01*
G01*
X138549497Y-118289900D02*
G75*
G02*
X134350100Y-119598100I-2548413J786300D01*
G01*
%TO.C,Q3*%
X145846200Y-127757600D02*
X146247400Y-127757600D01*
X146406600Y-129154600D02*
X150595600Y-129154600D01*
X148214800Y-127757600D02*
X148787400Y-127757600D01*
X150754800Y-127757600D02*
X151156000Y-127757600D01*
X146406501Y-129154599D02*
G75*
G02*
X147714800Y-124955100I2094599J1650996D01*
G01*
X149287400Y-124955203D02*
G75*
G02*
X150595600Y-129154600I-786300J-2548413D01*
G01*
%TO.C,J1*%
X145606100Y-132788600D02*
X145606100Y-131518600D01*
X145941100Y-131518600D02*
X145941100Y-132788600D01*
X145941100Y-132788600D02*
X146576100Y-133423600D01*
X145941100Y-134058600D02*
X145941100Y-135328600D01*
X145941100Y-135328600D02*
X146576100Y-135963600D01*
X145941100Y-136598600D02*
X145941100Y-137868600D01*
X145941100Y-137868600D02*
X146576100Y-138503600D01*
X146576100Y-130883600D02*
X145941100Y-131518600D01*
X146576100Y-130883600D02*
X150386100Y-130883600D01*
X146576100Y-133423600D02*
X145941100Y-134058600D01*
X146576100Y-135963600D02*
X145941100Y-136598600D01*
X150386100Y-130883600D02*
X151021100Y-131518600D01*
X150386100Y-133423600D02*
X146576100Y-133423600D01*
X150386100Y-133423600D02*
X151021100Y-134058600D01*
X150386100Y-135963600D02*
X146576100Y-135963600D01*
X150386100Y-135963600D02*
X151021100Y-136598600D01*
X150386100Y-138503600D02*
X146576100Y-138503600D01*
X151021100Y-131518600D02*
X151021100Y-132788600D01*
X151021100Y-132788600D02*
X150386100Y-133423600D01*
X151021100Y-134058600D02*
X151021100Y-135328600D01*
X151021100Y-135328600D02*
X150386100Y-135963600D01*
X151021100Y-136598600D02*
X151021100Y-137868600D01*
X151021100Y-137868600D02*
X150386100Y-138503600D01*
%TO.C,U$1*%
X145453100Y-82725600D02*
X145453100Y-84769600D01*
X146342100Y-86801600D02*
X150660100Y-86801600D01*
X150660100Y-80705600D02*
X146342100Y-80705600D01*
X151549100Y-82755600D02*
X151549100Y-84769600D01*
X150279100Y-83753600D02*
G75*
G02*
X146723100Y-83753600I-1778000J0D01*
G01*
X146723100Y-83753600D02*
G75*
G02*
X150279100Y-83753600I1778000J0D01*
G01*
%TO.C,D6*%
X126832036Y-108274638D02*
X127730062Y-109172664D01*
%TO.C,D3*%
X169172138Y-109182664D02*
X170070164Y-108284638D01*
%TO.C,D7*%
X131832036Y-93250638D02*
X132730062Y-94148664D01*
%TD*%
D42*
%TO.C,R5*%
G36*
X148701000Y-89028700D02*
G01*
X148301200Y-89028700D01*
X148301200Y-88228500D01*
X148701000Y-88228500D01*
X148701000Y-89028700D01*
G37*
%TO.C,R4*%
G36*
X138201000Y-112903700D02*
G01*
X137801200Y-112903700D01*
X137801200Y-112103500D01*
X138201000Y-112103500D01*
X138201000Y-112903700D01*
G37*
%TO.C,R3*%
G36*
X158701000Y-112903700D02*
G01*
X158301200Y-112903700D01*
X158301200Y-112103500D01*
X158701000Y-112103500D01*
X158701000Y-112903700D01*
G37*
%TO.C,R1*%
G36*
X163701000Y-122903700D02*
G01*
X163301200Y-122903700D01*
X163301200Y-122103500D01*
X163701000Y-122103500D01*
X163701000Y-122903700D01*
G37*
%TO.C,R2*%
G36*
X133701000Y-122903700D02*
G01*
X133301200Y-122903700D01*
X133301200Y-122103500D01*
X133701000Y-122103500D01*
X133701000Y-122903700D01*
G37*
%TD*%
D43*
%TO.C,R5*%
X146028100Y-87645600D02*
X150974100Y-87645600D01*
X146028100Y-89611600D02*
X146028100Y-87645600D01*
X150974100Y-87645600D02*
X150974100Y-89611600D01*
X150974100Y-89611600D02*
X146028100Y-89611600D01*
%TO.C,R4*%
X135528100Y-111520600D02*
X140474100Y-111520600D01*
X135528100Y-113486600D02*
X135528100Y-111520600D01*
X140474100Y-111520600D02*
X140474100Y-113486600D01*
X140474100Y-113486600D02*
X135528100Y-113486600D01*
%TO.C,R3*%
X156028100Y-111520600D02*
X160974100Y-111520600D01*
X156028100Y-113486600D02*
X156028100Y-111520600D01*
X160974100Y-111520600D02*
X160974100Y-113486600D01*
X160974100Y-113486600D02*
X156028100Y-113486600D01*
%TO.C,R1*%
X161028100Y-121520600D02*
X165974100Y-121520600D01*
X161028100Y-123486600D02*
X161028100Y-121520600D01*
X165974100Y-121520600D02*
X165974100Y-123486600D01*
X165974100Y-123486600D02*
X161028100Y-123486600D01*
%TO.C,R2*%
X131028100Y-121520600D02*
X135974100Y-121520600D01*
X131028100Y-123486600D02*
X131028100Y-121520600D01*
X135974100Y-121520600D02*
X135974100Y-123486600D01*
X135974100Y-123486600D02*
X131028100Y-123486600D01*
%TD*%
D37*
X148232777Y-120802622D02*
X148232777Y-120467936D01*
X148818477Y-120635279D02*
X148232777Y-120635279D01*
X148818477Y-120272702D02*
X148232777Y-120272702D01*
X148818477Y-119993797D02*
X148232777Y-119993797D01*
X148232777Y-119993797D02*
X148818477Y-119659111D01*
X148818477Y-119659111D02*
X148232777Y-119659111D01*
X148539572Y-119268645D02*
X148818477Y-119268645D01*
X148232777Y-119463879D02*
X148539572Y-119268645D01*
X148539572Y-119268645D02*
X148232777Y-119073412D01*
X148428010Y-118627164D02*
X148818477Y-118627164D01*
X148204887Y-118766616D02*
X148623244Y-118906069D01*
X148623244Y-118906069D02*
X148623244Y-118543492D01*
X148232777Y-118041463D02*
X148232777Y-118320368D01*
X148232777Y-118320368D02*
X148511682Y-118348259D01*
X148511682Y-118348259D02*
X148483791Y-118320368D01*
X148483791Y-118320368D02*
X148455901Y-118264587D01*
X148455901Y-118264587D02*
X148455901Y-118125135D01*
X148455901Y-118125135D02*
X148483791Y-118069354D01*
X148483791Y-118069354D02*
X148511682Y-118041463D01*
X148511682Y-118041463D02*
X148567463Y-118013573D01*
X148567463Y-118013573D02*
X148706915Y-118013573D01*
X148706915Y-118013573D02*
X148762696Y-118041463D01*
X148762696Y-118041463D02*
X148790587Y-118069354D01*
X148790587Y-118069354D02*
X148818477Y-118125135D01*
X148818477Y-118125135D02*
X148818477Y-118264587D01*
X148818477Y-118264587D02*
X148790587Y-118320368D01*
X148790587Y-118320368D02*
X148762696Y-118348259D01*
X148595353Y-117762558D02*
X148595353Y-117316311D01*
X148288558Y-117065297D02*
X148260667Y-117037406D01*
X148260667Y-117037406D02*
X148232777Y-116981625D01*
X148232777Y-116981625D02*
X148232777Y-116842173D01*
X148232777Y-116842173D02*
X148260667Y-116786392D01*
X148260667Y-116786392D02*
X148288558Y-116758501D01*
X148288558Y-116758501D02*
X148344339Y-116730611D01*
X148344339Y-116730611D02*
X148400120Y-116730611D01*
X148400120Y-116730611D02*
X148483791Y-116758501D01*
X148483791Y-116758501D02*
X148818477Y-117093187D01*
X148818477Y-117093187D02*
X148818477Y-116730611D01*
X148232777Y-116368034D02*
X148232777Y-116312253D01*
X148232777Y-116312253D02*
X148260667Y-116256472D01*
X148260667Y-116256472D02*
X148288558Y-116228582D01*
X148288558Y-116228582D02*
X148344339Y-116200691D01*
X148344339Y-116200691D02*
X148455901Y-116172801D01*
X148455901Y-116172801D02*
X148595353Y-116172801D01*
X148595353Y-116172801D02*
X148706915Y-116200691D01*
X148706915Y-116200691D02*
X148762696Y-116228582D01*
X148762696Y-116228582D02*
X148790587Y-116256472D01*
X148790587Y-116256472D02*
X148818477Y-116312253D01*
X148818477Y-116312253D02*
X148818477Y-116368034D01*
X148818477Y-116368034D02*
X148790587Y-116423815D01*
X148790587Y-116423815D02*
X148762696Y-116451706D01*
X148762696Y-116451706D02*
X148706915Y-116479596D01*
X148706915Y-116479596D02*
X148595353Y-116507487D01*
X148595353Y-116507487D02*
X148455901Y-116507487D01*
X148455901Y-116507487D02*
X148344339Y-116479596D01*
X148344339Y-116479596D02*
X148288558Y-116451706D01*
X148288558Y-116451706D02*
X148260667Y-116423815D01*
X148260667Y-116423815D02*
X148232777Y-116368034D01*
X148595353Y-115921786D02*
X148595353Y-115475539D01*
X148818477Y-115196634D02*
X148232777Y-115196634D01*
X148232777Y-115196634D02*
X148232777Y-115057182D01*
X148232777Y-115057182D02*
X148260667Y-114973510D01*
X148260667Y-114973510D02*
X148316448Y-114917729D01*
X148316448Y-114917729D02*
X148372229Y-114889839D01*
X148372229Y-114889839D02*
X148483791Y-114861948D01*
X148483791Y-114861948D02*
X148567463Y-114861948D01*
X148567463Y-114861948D02*
X148679025Y-114889839D01*
X148679025Y-114889839D02*
X148734806Y-114917729D01*
X148734806Y-114917729D02*
X148790587Y-114973510D01*
X148790587Y-114973510D02*
X148818477Y-115057182D01*
X148818477Y-115057182D02*
X148818477Y-115196634D01*
X148818477Y-114610934D02*
X148232777Y-114610934D01*
X148818477Y-114332029D02*
X148232777Y-114332029D01*
X148232777Y-114332029D02*
X148232777Y-114108905D01*
X148232777Y-114108905D02*
X148260667Y-114053124D01*
X148260667Y-114053124D02*
X148288558Y-114025234D01*
X148288558Y-114025234D02*
X148344339Y-113997343D01*
X148344339Y-113997343D02*
X148428010Y-113997343D01*
X148428010Y-113997343D02*
X148483791Y-114025234D01*
X148483791Y-114025234D02*
X148511682Y-114053124D01*
X148511682Y-114053124D02*
X148539572Y-114108905D01*
X148539572Y-114108905D02*
X148539572Y-114332029D01*
D39*
X148160626Y-89354969D02*
X147945490Y-89354969D01*
X148053058Y-89354969D02*
X148053058Y-88978480D01*
X148053058Y-88978480D02*
X148017202Y-89032264D01*
X148017202Y-89032264D02*
X147981346Y-89068120D01*
X147981346Y-89068120D02*
X147945490Y-89086048D01*
X148393691Y-88978480D02*
X148429547Y-88978480D01*
X148429547Y-88978480D02*
X148465403Y-88996408D01*
X148465403Y-88996408D02*
X148483331Y-89014336D01*
X148483331Y-89014336D02*
X148501259Y-89050192D01*
X148501259Y-89050192D02*
X148519187Y-89121904D01*
X148519187Y-89121904D02*
X148519187Y-89211544D01*
X148519187Y-89211544D02*
X148501259Y-89283256D01*
X148501259Y-89283256D02*
X148483331Y-89319112D01*
X148483331Y-89319112D02*
X148465403Y-89337041D01*
X148465403Y-89337041D02*
X148429547Y-89354969D01*
X148429547Y-89354969D02*
X148393691Y-89354969D01*
X148393691Y-89354969D02*
X148357835Y-89337041D01*
X148357835Y-89337041D02*
X148339907Y-89319112D01*
X148339907Y-89319112D02*
X148321979Y-89283256D01*
X148321979Y-89283256D02*
X148304051Y-89211544D01*
X148304051Y-89211544D02*
X148304051Y-89121904D01*
X148304051Y-89121904D02*
X148321979Y-89050192D01*
X148321979Y-89050192D02*
X148339907Y-89014336D01*
X148339907Y-89014336D02*
X148357835Y-88996408D01*
X148357835Y-88996408D02*
X148393691Y-88978480D01*
X148680540Y-89354969D02*
X148680540Y-88978480D01*
X148895676Y-89354969D02*
X148734324Y-89139832D01*
X148895676Y-88978480D02*
X148680540Y-89193616D01*
X149039101Y-89354969D02*
X149128741Y-89354969D01*
X149128741Y-89354969D02*
X149128741Y-89283256D01*
X149128741Y-89283256D02*
X149092885Y-89265328D01*
X149092885Y-89265328D02*
X149057029Y-89229472D01*
X149057029Y-89229472D02*
X149039101Y-89175688D01*
X149039101Y-89175688D02*
X149039101Y-89086048D01*
X149039101Y-89086048D02*
X149057029Y-89032264D01*
X149057029Y-89032264D02*
X149092885Y-88996408D01*
X149092885Y-88996408D02*
X149146669Y-88978480D01*
X149146669Y-88978480D02*
X149218381Y-88978480D01*
X149218381Y-88978480D02*
X149272165Y-88996408D01*
X149272165Y-88996408D02*
X149308021Y-89032264D01*
X149308021Y-89032264D02*
X149325949Y-89086048D01*
X149325949Y-89086048D02*
X149325949Y-89175688D01*
X149325949Y-89175688D02*
X149308021Y-89229472D01*
X149308021Y-89229472D02*
X149272165Y-89265328D01*
X149272165Y-89265328D02*
X149236309Y-89283256D01*
X149236309Y-89283256D02*
X149236309Y-89354969D01*
X149236309Y-89354969D02*
X149325949Y-89354969D01*
X137302739Y-111781828D02*
X137320667Y-111763900D01*
X137320667Y-111763900D02*
X137356523Y-111745972D01*
X137356523Y-111745972D02*
X137446163Y-111745972D01*
X137446163Y-111745972D02*
X137482019Y-111763900D01*
X137482019Y-111763900D02*
X137499947Y-111781828D01*
X137499947Y-111781828D02*
X137517875Y-111817684D01*
X137517875Y-111817684D02*
X137517875Y-111853540D01*
X137517875Y-111853540D02*
X137499947Y-111907324D01*
X137499947Y-111907324D02*
X137284811Y-112122461D01*
X137284811Y-112122461D02*
X137517875Y-112122461D01*
X137661300Y-111781828D02*
X137679228Y-111763900D01*
X137679228Y-111763900D02*
X137715084Y-111745972D01*
X137715084Y-111745972D02*
X137804724Y-111745972D01*
X137804724Y-111745972D02*
X137840580Y-111763900D01*
X137840580Y-111763900D02*
X137858508Y-111781828D01*
X137858508Y-111781828D02*
X137876436Y-111817684D01*
X137876436Y-111817684D02*
X137876436Y-111853540D01*
X137876436Y-111853540D02*
X137858508Y-111907324D01*
X137858508Y-111907324D02*
X137643372Y-112122461D01*
X137643372Y-112122461D02*
X137876436Y-112122461D01*
X138019861Y-112122461D02*
X138109501Y-112122461D01*
X138109501Y-112122461D02*
X138109501Y-112050748D01*
X138109501Y-112050748D02*
X138073645Y-112032820D01*
X138073645Y-112032820D02*
X138037789Y-111996964D01*
X138037789Y-111996964D02*
X138019861Y-111943180D01*
X138019861Y-111943180D02*
X138019861Y-111853540D01*
X138019861Y-111853540D02*
X138037789Y-111799756D01*
X138037789Y-111799756D02*
X138073645Y-111763900D01*
X138073645Y-111763900D02*
X138127429Y-111745972D01*
X138127429Y-111745972D02*
X138199141Y-111745972D01*
X138199141Y-111745972D02*
X138252925Y-111763900D01*
X138252925Y-111763900D02*
X138288781Y-111799756D01*
X138288781Y-111799756D02*
X138306709Y-111853540D01*
X138306709Y-111853540D02*
X138306709Y-111943180D01*
X138306709Y-111943180D02*
X138288781Y-111996964D01*
X138288781Y-111996964D02*
X138252925Y-112032820D01*
X138252925Y-112032820D02*
X138217069Y-112050748D01*
X138217069Y-112050748D02*
X138217069Y-112122461D01*
X138217069Y-112122461D02*
X138306709Y-112122461D01*
X157802739Y-111781828D02*
X157820667Y-111763900D01*
X157820667Y-111763900D02*
X157856523Y-111745972D01*
X157856523Y-111745972D02*
X157946163Y-111745972D01*
X157946163Y-111745972D02*
X157982019Y-111763900D01*
X157982019Y-111763900D02*
X157999947Y-111781828D01*
X157999947Y-111781828D02*
X158017875Y-111817684D01*
X158017875Y-111817684D02*
X158017875Y-111853540D01*
X158017875Y-111853540D02*
X157999947Y-111907324D01*
X157999947Y-111907324D02*
X157784811Y-112122461D01*
X157784811Y-112122461D02*
X158017875Y-112122461D01*
X158161300Y-111781828D02*
X158179228Y-111763900D01*
X158179228Y-111763900D02*
X158215084Y-111745972D01*
X158215084Y-111745972D02*
X158304724Y-111745972D01*
X158304724Y-111745972D02*
X158340580Y-111763900D01*
X158340580Y-111763900D02*
X158358508Y-111781828D01*
X158358508Y-111781828D02*
X158376436Y-111817684D01*
X158376436Y-111817684D02*
X158376436Y-111853540D01*
X158376436Y-111853540D02*
X158358508Y-111907324D01*
X158358508Y-111907324D02*
X158143372Y-112122461D01*
X158143372Y-112122461D02*
X158376436Y-112122461D01*
X158519861Y-112122461D02*
X158609501Y-112122461D01*
X158609501Y-112122461D02*
X158609501Y-112050748D01*
X158609501Y-112050748D02*
X158573645Y-112032820D01*
X158573645Y-112032820D02*
X158537789Y-111996964D01*
X158537789Y-111996964D02*
X158519861Y-111943180D01*
X158519861Y-111943180D02*
X158519861Y-111853540D01*
X158519861Y-111853540D02*
X158537789Y-111799756D01*
X158537789Y-111799756D02*
X158573645Y-111763900D01*
X158573645Y-111763900D02*
X158627429Y-111745972D01*
X158627429Y-111745972D02*
X158699141Y-111745972D01*
X158699141Y-111745972D02*
X158752925Y-111763900D01*
X158752925Y-111763900D02*
X158788781Y-111799756D01*
X158788781Y-111799756D02*
X158806709Y-111853540D01*
X158806709Y-111853540D02*
X158806709Y-111943180D01*
X158806709Y-111943180D02*
X158788781Y-111996964D01*
X158788781Y-111996964D02*
X158752925Y-112032820D01*
X158752925Y-112032820D02*
X158717069Y-112050748D01*
X158717069Y-112050748D02*
X158717069Y-112122461D01*
X158717069Y-112122461D02*
X158806709Y-112122461D01*
X163195490Y-122889336D02*
X163213418Y-122871408D01*
X163213418Y-122871408D02*
X163249274Y-122853480D01*
X163249274Y-122853480D02*
X163338914Y-122853480D01*
X163338914Y-122853480D02*
X163374770Y-122871408D01*
X163374770Y-122871408D02*
X163392698Y-122889336D01*
X163392698Y-122889336D02*
X163410626Y-122925192D01*
X163410626Y-122925192D02*
X163410626Y-122961048D01*
X163410626Y-122961048D02*
X163392698Y-123014832D01*
X163392698Y-123014832D02*
X163177562Y-123229969D01*
X163177562Y-123229969D02*
X163410626Y-123229969D01*
X163554051Y-122889336D02*
X163571979Y-122871408D01*
X163571979Y-122871408D02*
X163607835Y-122853480D01*
X163607835Y-122853480D02*
X163697475Y-122853480D01*
X163697475Y-122853480D02*
X163733331Y-122871408D01*
X163733331Y-122871408D02*
X163751259Y-122889336D01*
X163751259Y-122889336D02*
X163769187Y-122925192D01*
X163769187Y-122925192D02*
X163769187Y-122961048D01*
X163769187Y-122961048D02*
X163751259Y-123014832D01*
X163751259Y-123014832D02*
X163536123Y-123229969D01*
X163536123Y-123229969D02*
X163769187Y-123229969D01*
X163912612Y-123229969D02*
X164002252Y-123229969D01*
X164002252Y-123229969D02*
X164002252Y-123158256D01*
X164002252Y-123158256D02*
X163966396Y-123140328D01*
X163966396Y-123140328D02*
X163930540Y-123104472D01*
X163930540Y-123104472D02*
X163912612Y-123050688D01*
X163912612Y-123050688D02*
X163912612Y-122961048D01*
X163912612Y-122961048D02*
X163930540Y-122907264D01*
X163930540Y-122907264D02*
X163966396Y-122871408D01*
X163966396Y-122871408D02*
X164020180Y-122853480D01*
X164020180Y-122853480D02*
X164091892Y-122853480D01*
X164091892Y-122853480D02*
X164145676Y-122871408D01*
X164145676Y-122871408D02*
X164181532Y-122907264D01*
X164181532Y-122907264D02*
X164199460Y-122961048D01*
X164199460Y-122961048D02*
X164199460Y-123050688D01*
X164199460Y-123050688D02*
X164181532Y-123104472D01*
X164181532Y-123104472D02*
X164145676Y-123140328D01*
X164145676Y-123140328D02*
X164109820Y-123158256D01*
X164109820Y-123158256D02*
X164109820Y-123229969D01*
X164109820Y-123229969D02*
X164199460Y-123229969D01*
X133195490Y-122639336D02*
X133213418Y-122621408D01*
X133213418Y-122621408D02*
X133249274Y-122603480D01*
X133249274Y-122603480D02*
X133338914Y-122603480D01*
X133338914Y-122603480D02*
X133374770Y-122621408D01*
X133374770Y-122621408D02*
X133392698Y-122639336D01*
X133392698Y-122639336D02*
X133410626Y-122675192D01*
X133410626Y-122675192D02*
X133410626Y-122711048D01*
X133410626Y-122711048D02*
X133392698Y-122764832D01*
X133392698Y-122764832D02*
X133177562Y-122979969D01*
X133177562Y-122979969D02*
X133410626Y-122979969D01*
X133554051Y-122639336D02*
X133571979Y-122621408D01*
X133571979Y-122621408D02*
X133607835Y-122603480D01*
X133607835Y-122603480D02*
X133697475Y-122603480D01*
X133697475Y-122603480D02*
X133733331Y-122621408D01*
X133733331Y-122621408D02*
X133751259Y-122639336D01*
X133751259Y-122639336D02*
X133769187Y-122675192D01*
X133769187Y-122675192D02*
X133769187Y-122711048D01*
X133769187Y-122711048D02*
X133751259Y-122764832D01*
X133751259Y-122764832D02*
X133536123Y-122979969D01*
X133536123Y-122979969D02*
X133769187Y-122979969D01*
X133912612Y-122979969D02*
X134002252Y-122979969D01*
X134002252Y-122979969D02*
X134002252Y-122908256D01*
X134002252Y-122908256D02*
X133966396Y-122890328D01*
X133966396Y-122890328D02*
X133930540Y-122854472D01*
X133930540Y-122854472D02*
X133912612Y-122800688D01*
X133912612Y-122800688D02*
X133912612Y-122711048D01*
X133912612Y-122711048D02*
X133930540Y-122657264D01*
X133930540Y-122657264D02*
X133966396Y-122621408D01*
X133966396Y-122621408D02*
X134020180Y-122603480D01*
X134020180Y-122603480D02*
X134091892Y-122603480D01*
X134091892Y-122603480D02*
X134145676Y-122621408D01*
X134145676Y-122621408D02*
X134181532Y-122657264D01*
X134181532Y-122657264D02*
X134199460Y-122711048D01*
X134199460Y-122711048D02*
X134199460Y-122800688D01*
X134199460Y-122800688D02*
X134181532Y-122854472D01*
X134181532Y-122854472D02*
X134145676Y-122890328D01*
X134145676Y-122890328D02*
X134109820Y-122908256D01*
X134109820Y-122908256D02*
X134109820Y-122979969D01*
X134109820Y-122979969D02*
X134199460Y-122979969D01*
D44*
%TO.C,R5*%
X147536100Y-87841600D02*
X149466100Y-87841600D01*
X147536100Y-89415600D02*
X149466100Y-89415600D01*
D42*
G36*
X147549400Y-89479500D02*
G01*
X146799300Y-89479500D01*
X146799300Y-87779500D01*
X147549400Y-87779500D01*
X147549400Y-89479500D01*
G37*
G36*
X150202900Y-89477700D02*
G01*
X149452800Y-89477700D01*
X149452800Y-87777700D01*
X150202900Y-87777700D01*
X150202900Y-89477700D01*
G37*
%TO.C,J1*%
G36*
X147465100Y-132407600D02*
G01*
X146957100Y-132407600D01*
X146957100Y-131899600D01*
X147465100Y-131899600D01*
X147465100Y-132407600D01*
G37*
G36*
X147465100Y-134947600D02*
G01*
X146957100Y-134947600D01*
X146957100Y-134439600D01*
X147465100Y-134439600D01*
X147465100Y-134947600D01*
G37*
G36*
X147465100Y-137487600D02*
G01*
X146957100Y-137487600D01*
X146957100Y-136979600D01*
X147465100Y-136979600D01*
X147465100Y-137487600D01*
G37*
G36*
X150005100Y-132407600D02*
G01*
X149497100Y-132407600D01*
X149497100Y-131899600D01*
X150005100Y-131899600D01*
X150005100Y-132407600D01*
G37*
G36*
X150005100Y-134947600D02*
G01*
X149497100Y-134947600D01*
X149497100Y-134439600D01*
X150005100Y-134439600D01*
X150005100Y-134947600D01*
G37*
G36*
X150005100Y-137487600D02*
G01*
X149497100Y-137487600D01*
X149497100Y-136979600D01*
X150005100Y-136979600D01*
X150005100Y-137487600D01*
G37*
D40*
%TO.C,U$1*%
X145453100Y-81213600D02*
X145453100Y-82737600D01*
X145453100Y-86293600D02*
X145453100Y-84769600D01*
X145961100Y-80705600D02*
X145453100Y-81213600D01*
X145961100Y-80705600D02*
X146342100Y-80705600D01*
X145961100Y-82483600D02*
X145961100Y-83245600D01*
X145961100Y-83245600D02*
X146342100Y-84134600D01*
X145961100Y-84261600D02*
X145961100Y-85023600D01*
X145961100Y-86801600D02*
X145453100Y-86293600D01*
X145961100Y-86801600D02*
X146342100Y-86801600D01*
X151041100Y-80705600D02*
X150660100Y-80705600D01*
X151041100Y-86801600D02*
X150660100Y-86801600D01*
X151041100Y-86801600D02*
X151549100Y-86293600D01*
X151549100Y-81213600D02*
X151041100Y-80705600D01*
X151549100Y-82737600D02*
X151549100Y-81213600D01*
X151549100Y-86293600D02*
X151549100Y-84769600D01*
D44*
%TO.C,R4*%
X138966100Y-111716600D02*
X137036100Y-111716600D01*
X138966100Y-113290600D02*
X137036100Y-113290600D01*
D42*
G36*
X137049400Y-113354500D02*
G01*
X136299300Y-113354500D01*
X136299300Y-111654500D01*
X137049400Y-111654500D01*
X137049400Y-113354500D01*
G37*
G36*
X139702900Y-113352700D02*
G01*
X138952800Y-113352700D01*
X138952800Y-111652700D01*
X139702900Y-111652700D01*
X139702900Y-113352700D01*
G37*
D44*
%TO.C,R3*%
X159466100Y-111716600D02*
X157536100Y-111716600D01*
X159466100Y-113290600D02*
X157536100Y-113290600D01*
D42*
G36*
X157549400Y-113354500D02*
G01*
X156799300Y-113354500D01*
X156799300Y-111654500D01*
X157549400Y-111654500D01*
X157549400Y-113354500D01*
G37*
G36*
X160202900Y-113352700D02*
G01*
X159452800Y-113352700D01*
X159452800Y-111652700D01*
X160202900Y-111652700D01*
X160202900Y-113352700D01*
G37*
D44*
%TO.C,R1*%
X162536100Y-121716600D02*
X164466100Y-121716600D01*
X162536100Y-123290600D02*
X164466100Y-123290600D01*
D42*
G36*
X162549400Y-123354500D02*
G01*
X161799300Y-123354500D01*
X161799300Y-121654500D01*
X162549400Y-121654500D01*
X162549400Y-123354500D01*
G37*
G36*
X165202900Y-123352700D02*
G01*
X164452800Y-123352700D01*
X164452800Y-121652700D01*
X165202900Y-121652700D01*
X165202900Y-123352700D01*
G37*
D44*
%TO.C,R2*%
X132536100Y-121716600D02*
X134466100Y-121716600D01*
X132536100Y-123290600D02*
X134466100Y-123290600D01*
D42*
G36*
X132549400Y-123354500D02*
G01*
X131799300Y-123354500D01*
X131799300Y-121654500D01*
X132549400Y-121654500D01*
X132549400Y-123354500D01*
G37*
G36*
X135202900Y-123352700D02*
G01*
X134452800Y-123352700D01*
X134452800Y-121652700D01*
X135202900Y-121652700D01*
X135202900Y-123352700D01*
G37*
%TD*%
D45*
X143501100Y-140003600D02*
X153501100Y-140003600D01*
X158501100Y-95003600D02*
X168501100Y-95003600D01*
X138501100Y-95003600D02*
X123501100Y-110003600D01*
X128501100Y-95003600D02*
X138501100Y-95003600D01*
X178501100Y-125003600D02*
X163501100Y-110003600D01*
X133501100Y-110003600D02*
X118501100Y-125003600D01*
X153501100Y-140003600D02*
X153501100Y-125003600D01*
X158501100Y-80003600D02*
X148501100Y-70003600D01*
X118501100Y-125003600D02*
X143501100Y-125003600D01*
X123501100Y-110003600D02*
X133501100Y-110003600D01*
X148501100Y-70003600D02*
X138501100Y-80003600D01*
X153501100Y-80003600D02*
X158501100Y-80003600D01*
X163501100Y-110003600D02*
X173501100Y-110003600D01*
X153501100Y-125003600D02*
X178501100Y-125003600D01*
X173501100Y-110003600D02*
X158501100Y-95003600D01*
X138501100Y-80003600D02*
X143501100Y-80003600D01*
X143501100Y-125003600D02*
X143501100Y-140003600D01*
X168501100Y-95003600D02*
X153501100Y-80003600D01*
X143501100Y-80003600D02*
X128501100Y-95003600D01*
M02*
