%TF.GenerationSoftware,KiCad,Pcbnew,8.0.2*%
%TF.CreationDate,2024-10-18T13:00:18-07:00*%
%TF.ProjectId,ArmLEDsPrototype,41726d4c-4544-4735-9072-6f746f747970,rev?*%
%TF.SameCoordinates,Original*%
%TF.FileFunction,Drillmap*%
%TF.FilePolarity,Positive*%
%FSLAX45Y45*%
G04 Gerber Fmt 4.5, Leading zero omitted, Abs format (unit mm)*
G04 Created by KiCad (PCBNEW 8.0.2) date 2024-10-18 13:00:18*
%MOMM*%
%LPD*%
G01*
G04 APERTURE LIST*
%ADD10C,0.050000*%
%ADD11C,0.200000*%
%ADD12C,0.100000*%
%ADD13C,0.130000*%
%ADD14C,0.210000*%
G04 APERTURE END LIST*
D10*
X8001000Y-7493000D02*
X17716500Y-7493000D01*
X17716500Y-13398500D01*
X8001000Y-13398500D01*
X8001000Y-7493000D01*
D11*
D12*
X12151600Y-8963900D02*
X12181600Y-8993900D01*
X12181600Y-8963900D02*
X12151600Y-8993900D01*
X12342100Y-8240000D02*
X12372100Y-8270000D01*
X12372100Y-8240000D02*
X12342100Y-8270000D01*
X12380200Y-9014700D02*
X12410200Y-9044700D01*
X12410200Y-9014700D02*
X12380200Y-9044700D01*
X12456400Y-9014700D02*
X12486400Y-9044700D01*
X12486400Y-9014700D02*
X12456400Y-9044700D01*
X12545300Y-8189200D02*
X12575300Y-8219200D01*
X12575300Y-8189200D02*
X12545300Y-8219200D01*
X13802600Y-8963900D02*
X13832600Y-8993900D01*
X13832600Y-8963900D02*
X13802600Y-8993900D01*
X13993100Y-8240000D02*
X14023100Y-8270000D01*
X14023100Y-8240000D02*
X13993100Y-8270000D01*
X14031200Y-9014700D02*
X14061200Y-9044700D01*
X14061200Y-9014700D02*
X14031200Y-9044700D01*
X14107400Y-9014700D02*
X14137400Y-9044700D01*
X14137400Y-9014700D02*
X14107400Y-9044700D01*
X14196300Y-8189200D02*
X14226300Y-8219200D01*
X14226300Y-8189200D02*
X14196300Y-8219200D01*
X15453600Y-8963900D02*
X15483600Y-8993900D01*
X15483600Y-8963900D02*
X15453600Y-8993900D01*
X15644100Y-8240000D02*
X15674100Y-8270000D01*
X15674100Y-8240000D02*
X15644100Y-8270000D01*
X15682200Y-9014700D02*
X15712200Y-9044700D01*
X15712200Y-9014700D02*
X15682200Y-9044700D01*
X15758400Y-9014700D02*
X15788400Y-9044700D01*
X15788400Y-9014700D02*
X15758400Y-9044700D01*
X15847300Y-8189200D02*
X15877300Y-8219200D01*
X15877300Y-8189200D02*
X15847300Y-8219200D01*
X12258040Y-8978900D02*
G75*
G02*
X12227560Y-8978900I-15240J0D01*
G01*
X12227560Y-8978900D02*
G75*
G02*
X12258040Y-8978900I15240J0D01*
G01*
X12334240Y-8978900D02*
G75*
G02*
X12303760Y-8978900I-15240J0D01*
G01*
X12303760Y-8978900D02*
G75*
G02*
X12334240Y-8978900I15240J0D01*
G01*
X12372340Y-8331200D02*
G75*
G02*
X12341860Y-8331200I-15240J0D01*
G01*
X12341860Y-8331200D02*
G75*
G02*
X12372340Y-8331200I15240J0D01*
G01*
X12651740Y-8204200D02*
G75*
G02*
X12621260Y-8204200I-15240J0D01*
G01*
X12621260Y-8204200D02*
G75*
G02*
X12651740Y-8204200I15240J0D01*
G01*
X12740640Y-8204200D02*
G75*
G02*
X12710160Y-8204200I-15240J0D01*
G01*
X12710160Y-8204200D02*
G75*
G02*
X12740640Y-8204200I15240J0D01*
G01*
X13909040Y-8978900D02*
G75*
G02*
X13878560Y-8978900I-15240J0D01*
G01*
X13878560Y-8978900D02*
G75*
G02*
X13909040Y-8978900I15240J0D01*
G01*
X13985240Y-8978900D02*
G75*
G02*
X13954760Y-8978900I-15240J0D01*
G01*
X13954760Y-8978900D02*
G75*
G02*
X13985240Y-8978900I15240J0D01*
G01*
X14023340Y-8331200D02*
G75*
G02*
X13992860Y-8331200I-15240J0D01*
G01*
X13992860Y-8331200D02*
G75*
G02*
X14023340Y-8331200I15240J0D01*
G01*
X14302740Y-8204200D02*
G75*
G02*
X14272260Y-8204200I-15240J0D01*
G01*
X14272260Y-8204200D02*
G75*
G02*
X14302740Y-8204200I15240J0D01*
G01*
X14391640Y-8204200D02*
G75*
G02*
X14361160Y-8204200I-15240J0D01*
G01*
X14361160Y-8204200D02*
G75*
G02*
X14391640Y-8204200I15240J0D01*
G01*
X15560040Y-8978900D02*
G75*
G02*
X15529560Y-8978900I-15240J0D01*
G01*
X15529560Y-8978900D02*
G75*
G02*
X15560040Y-8978900I15240J0D01*
G01*
X15636240Y-8978900D02*
G75*
G02*
X15605760Y-8978900I-15240J0D01*
G01*
X15605760Y-8978900D02*
G75*
G02*
X15636240Y-8978900I15240J0D01*
G01*
X15674340Y-8331200D02*
G75*
G02*
X15643860Y-8331200I-15240J0D01*
G01*
X15643860Y-8331200D02*
G75*
G02*
X15674340Y-8331200I15240J0D01*
G01*
X15953740Y-8204200D02*
G75*
G02*
X15923260Y-8204200I-15240J0D01*
G01*
X15923260Y-8204200D02*
G75*
G02*
X15953740Y-8204200I15240J0D01*
G01*
X16042640Y-8204200D02*
G75*
G02*
X16012160Y-8204200I-15240J0D01*
G01*
X16012160Y-8204200D02*
G75*
G02*
X16042640Y-8204200I15240J0D01*
G01*
X10263000Y-9132500D02*
X10263000Y-9232500D01*
X10213000Y-9182500D02*
X10313000Y-9182500D01*
X10263000Y-9386500D02*
X10263000Y-9486500D01*
X10213000Y-9436500D02*
X10313000Y-9436500D01*
X10263000Y-9640500D02*
X10263000Y-9740500D01*
X10213000Y-9690500D02*
X10313000Y-9690500D01*
X10263000Y-9894500D02*
X10263000Y-9994500D01*
X10213000Y-9944500D02*
X10313000Y-9944500D01*
X10263000Y-10148500D02*
X10263000Y-10248500D01*
X10213000Y-10198500D02*
X10313000Y-10198500D01*
X10263000Y-10402500D02*
X10263000Y-10502500D01*
X10213000Y-10452500D02*
X10313000Y-10452500D01*
X10263000Y-10656500D02*
X10263000Y-10756500D01*
X10213000Y-10706500D02*
X10313000Y-10706500D01*
X10263000Y-10910500D02*
X10263000Y-11010500D01*
X10213000Y-10960500D02*
X10313000Y-10960500D01*
X10263000Y-11164500D02*
X10263000Y-11264500D01*
X10213000Y-11214500D02*
X10313000Y-11214500D01*
X10263000Y-11418500D02*
X10263000Y-11518500D01*
X10213000Y-11468500D02*
X10313000Y-11468500D01*
X10263000Y-11672500D02*
X10263000Y-11772500D01*
X10213000Y-11722500D02*
X10313000Y-11722500D01*
X10263000Y-11926500D02*
X10263000Y-12026500D01*
X10213000Y-11976500D02*
X10313000Y-11976500D01*
X10263000Y-12180500D02*
X10263000Y-12280500D01*
X10213000Y-12230500D02*
X10313000Y-12230500D01*
X10263000Y-12434500D02*
X10263000Y-12534500D01*
X10213000Y-12484500D02*
X10313000Y-12484500D01*
X10263000Y-12688500D02*
X10263000Y-12788500D01*
X10213000Y-12738500D02*
X10313000Y-12738500D01*
X11787000Y-9132500D02*
X11787000Y-9232500D01*
X11737000Y-9182500D02*
X11837000Y-9182500D01*
X11787000Y-9386500D02*
X11787000Y-9486500D01*
X11737000Y-9436500D02*
X11837000Y-9436500D01*
X11787000Y-9640500D02*
X11787000Y-9740500D01*
X11737000Y-9690500D02*
X11837000Y-9690500D01*
X11787000Y-9894500D02*
X11787000Y-9994500D01*
X11737000Y-9944500D02*
X11837000Y-9944500D01*
X11787000Y-10148500D02*
X11787000Y-10248500D01*
X11737000Y-10198500D02*
X11837000Y-10198500D01*
X11787000Y-10402500D02*
X11787000Y-10502500D01*
X11737000Y-10452500D02*
X11837000Y-10452500D01*
X11787000Y-10656500D02*
X11787000Y-10756500D01*
X11737000Y-10706500D02*
X11837000Y-10706500D01*
X11787000Y-10910500D02*
X11787000Y-11010500D01*
X11737000Y-10960500D02*
X11837000Y-10960500D01*
X11787000Y-11164500D02*
X11787000Y-11264500D01*
X11737000Y-11214500D02*
X11837000Y-11214500D01*
X11787000Y-11418500D02*
X11787000Y-11518500D01*
X11737000Y-11468500D02*
X11837000Y-11468500D01*
X11787000Y-11672500D02*
X11787000Y-11772500D01*
X11737000Y-11722500D02*
X11837000Y-11722500D01*
X11787000Y-11926500D02*
X11787000Y-12026500D01*
X11737000Y-11976500D02*
X11837000Y-11976500D01*
X11787000Y-12180500D02*
X11787000Y-12280500D01*
X11737000Y-12230500D02*
X11837000Y-12230500D01*
X11787000Y-12434500D02*
X11787000Y-12534500D01*
X11737000Y-12484500D02*
X11837000Y-12484500D01*
X11787000Y-12688500D02*
X11787000Y-12788500D01*
X11737000Y-12738500D02*
X11837000Y-12738500D01*
D13*
X9613462Y-8050962D02*
X9613462Y-7959038D01*
X9521538Y-7959038D01*
X9521538Y-8050962D01*
X9613462Y-8050962D01*
X9613462Y-8300962D02*
X9613462Y-8209038D01*
X9521538Y-8209038D01*
X9521538Y-8300962D01*
X9613462Y-8300962D01*
X9613462Y-8550962D02*
X9613462Y-8459038D01*
X9521538Y-8459038D01*
X9521538Y-8550962D01*
X9613462Y-8550962D01*
X9613462Y-9511462D02*
X9613462Y-9419538D01*
X9521538Y-9419538D01*
X9521538Y-9511462D01*
X9613462Y-9511462D01*
X9613462Y-9761462D02*
X9613462Y-9669538D01*
X9521538Y-9669538D01*
X9521538Y-9761462D01*
X9613462Y-9761462D01*
X9613462Y-10011462D02*
X9613462Y-9919538D01*
X9521538Y-9919538D01*
X9521538Y-10011462D01*
X9613462Y-10011462D01*
X9613462Y-10971962D02*
X9613462Y-10880038D01*
X9521538Y-10880038D01*
X9521538Y-10971962D01*
X9613462Y-10971962D01*
X9613462Y-11221962D02*
X9613462Y-11130038D01*
X9521538Y-11130038D01*
X9521538Y-11221962D01*
X9613462Y-11221962D01*
X9613462Y-11471962D02*
X9613462Y-11380038D01*
X9521538Y-11380038D01*
X9521538Y-11471962D01*
X9613462Y-11471962D01*
X9613462Y-12432462D02*
X9613462Y-12340538D01*
X9521538Y-12340538D01*
X9521538Y-12432462D01*
X9613462Y-12432462D01*
X9613462Y-12682462D02*
X9613462Y-12590538D01*
X9521538Y-12590538D01*
X9521538Y-12682462D01*
X9613462Y-12682462D01*
X9613462Y-12932462D02*
X9613462Y-12840538D01*
X9521538Y-12840538D01*
X9521538Y-12932462D01*
X9613462Y-12932462D01*
D14*
X8817500Y-7810000D02*
X8922500Y-7705000D01*
X8817500Y-7600000D01*
X8712500Y-7705000D01*
X8817500Y-7810000D01*
D12*
X8832500Y-7600000D02*
X8802500Y-7600000D01*
X8802500Y-7810000D02*
G75*
G02*
X8802500Y-7600000I0J105000D01*
G01*
X8802500Y-7810000D02*
X8832500Y-7810000D01*
X8832500Y-7810000D02*
G75*
G03*
X8832500Y-7600000I0J105000D01*
G01*
D14*
X8817500Y-8910000D02*
X8922500Y-8805000D01*
X8817500Y-8700000D01*
X8712500Y-8805000D01*
X8817500Y-8910000D01*
D12*
X8832500Y-8700000D02*
X8802500Y-8700000D01*
X8802500Y-8910000D02*
G75*
G02*
X8802500Y-8700000I0J105000D01*
G01*
X8802500Y-8910000D02*
X8832500Y-8910000D01*
X8832500Y-8910000D02*
G75*
G03*
X8832500Y-8700000I0J105000D01*
G01*
D14*
X8817500Y-9270500D02*
X8922500Y-9165500D01*
X8817500Y-9060500D01*
X8712500Y-9165500D01*
X8817500Y-9270500D01*
D12*
X8832500Y-9060500D02*
X8802500Y-9060500D01*
X8802500Y-9270500D02*
G75*
G02*
X8802500Y-9060500I0J105000D01*
G01*
X8802500Y-9270500D02*
X8832500Y-9270500D01*
X8832500Y-9270500D02*
G75*
G03*
X8832500Y-9060500I0J105000D01*
G01*
D14*
X8817500Y-10370500D02*
X8922500Y-10265500D01*
X8817500Y-10160500D01*
X8712500Y-10265500D01*
X8817500Y-10370500D01*
D12*
X8832500Y-10160500D02*
X8802500Y-10160500D01*
X8802500Y-10370500D02*
G75*
G02*
X8802500Y-10160500I0J105000D01*
G01*
X8802500Y-10370500D02*
X8832500Y-10370500D01*
X8832500Y-10370500D02*
G75*
G03*
X8832500Y-10160500I0J105000D01*
G01*
D14*
X8817500Y-10731000D02*
X8922500Y-10626000D01*
X8817500Y-10521000D01*
X8712500Y-10626000D01*
X8817500Y-10731000D01*
D12*
X8832500Y-10521000D02*
X8802500Y-10521000D01*
X8802500Y-10731000D02*
G75*
G02*
X8802500Y-10521000I0J105000D01*
G01*
X8802500Y-10731000D02*
X8832500Y-10731000D01*
X8832500Y-10731000D02*
G75*
G03*
X8832500Y-10521000I0J105000D01*
G01*
D14*
X8817500Y-11831000D02*
X8922500Y-11726000D01*
X8817500Y-11621000D01*
X8712500Y-11726000D01*
X8817500Y-11831000D01*
D12*
X8832500Y-11621000D02*
X8802500Y-11621000D01*
X8802500Y-11831000D02*
G75*
G02*
X8802500Y-11621000I0J105000D01*
G01*
X8802500Y-11831000D02*
X8832500Y-11831000D01*
X8832500Y-11831000D02*
G75*
G03*
X8832500Y-11621000I0J105000D01*
G01*
D14*
X8817500Y-12191500D02*
X8922500Y-12086500D01*
X8817500Y-11981500D01*
X8712500Y-12086500D01*
X8817500Y-12191500D01*
D12*
X8832500Y-11981500D02*
X8802500Y-11981500D01*
X8802500Y-12191500D02*
G75*
G02*
X8802500Y-11981500I0J105000D01*
G01*
X8802500Y-12191500D02*
X8832500Y-12191500D01*
X8832500Y-12191500D02*
G75*
G03*
X8832500Y-11981500I0J105000D01*
G01*
D14*
X8817500Y-13291500D02*
X8922500Y-13186500D01*
X8817500Y-13081500D01*
X8712500Y-13186500D01*
X8817500Y-13291500D01*
D12*
X8832500Y-13081500D02*
X8802500Y-13081500D01*
X8802500Y-13291500D02*
G75*
G02*
X8802500Y-13081500I0J105000D01*
G01*
X8802500Y-13291500D02*
X8832500Y-13291500D01*
X8832500Y-13291500D02*
G75*
G03*
X8832500Y-13081500I0J105000D01*
G01*
D11*
X8259277Y-13712484D02*
X8259277Y-13512484D01*
X8259277Y-13512484D02*
X8306896Y-13512484D01*
X8306896Y-13512484D02*
X8335467Y-13522008D01*
X8335467Y-13522008D02*
X8354515Y-13541055D01*
X8354515Y-13541055D02*
X8364039Y-13560103D01*
X8364039Y-13560103D02*
X8373562Y-13598198D01*
X8373562Y-13598198D02*
X8373562Y-13626769D01*
X8373562Y-13626769D02*
X8364039Y-13664865D01*
X8364039Y-13664865D02*
X8354515Y-13683912D01*
X8354515Y-13683912D02*
X8335467Y-13702960D01*
X8335467Y-13702960D02*
X8306896Y-13712484D01*
X8306896Y-13712484D02*
X8259277Y-13712484D01*
X8459277Y-13712484D02*
X8459277Y-13579150D01*
X8459277Y-13617246D02*
X8468801Y-13598198D01*
X8468801Y-13598198D02*
X8478324Y-13588674D01*
X8478324Y-13588674D02*
X8497372Y-13579150D01*
X8497372Y-13579150D02*
X8516420Y-13579150D01*
X8583086Y-13712484D02*
X8583086Y-13579150D01*
X8583086Y-13512484D02*
X8573563Y-13522008D01*
X8573563Y-13522008D02*
X8583086Y-13531531D01*
X8583086Y-13531531D02*
X8592610Y-13522008D01*
X8592610Y-13522008D02*
X8583086Y-13512484D01*
X8583086Y-13512484D02*
X8583086Y-13531531D01*
X8706896Y-13712484D02*
X8687848Y-13702960D01*
X8687848Y-13702960D02*
X8678324Y-13683912D01*
X8678324Y-13683912D02*
X8678324Y-13512484D01*
X8811658Y-13712484D02*
X8792610Y-13702960D01*
X8792610Y-13702960D02*
X8783086Y-13683912D01*
X8783086Y-13683912D02*
X8783086Y-13512484D01*
X9040229Y-13712484D02*
X9040229Y-13512484D01*
X9040229Y-13512484D02*
X9106896Y-13655341D01*
X9106896Y-13655341D02*
X9173563Y-13512484D01*
X9173563Y-13512484D02*
X9173563Y-13712484D01*
X9354515Y-13712484D02*
X9354515Y-13607722D01*
X9354515Y-13607722D02*
X9344991Y-13588674D01*
X9344991Y-13588674D02*
X9325944Y-13579150D01*
X9325944Y-13579150D02*
X9287848Y-13579150D01*
X9287848Y-13579150D02*
X9268801Y-13588674D01*
X9354515Y-13702960D02*
X9335467Y-13712484D01*
X9335467Y-13712484D02*
X9287848Y-13712484D01*
X9287848Y-13712484D02*
X9268801Y-13702960D01*
X9268801Y-13702960D02*
X9259277Y-13683912D01*
X9259277Y-13683912D02*
X9259277Y-13664865D01*
X9259277Y-13664865D02*
X9268801Y-13645817D01*
X9268801Y-13645817D02*
X9287848Y-13636293D01*
X9287848Y-13636293D02*
X9335467Y-13636293D01*
X9335467Y-13636293D02*
X9354515Y-13626769D01*
X9449753Y-13579150D02*
X9449753Y-13779150D01*
X9449753Y-13588674D02*
X9468801Y-13579150D01*
X9468801Y-13579150D02*
X9506896Y-13579150D01*
X9506896Y-13579150D02*
X9525944Y-13588674D01*
X9525944Y-13588674D02*
X9535467Y-13598198D01*
X9535467Y-13598198D02*
X9544991Y-13617246D01*
X9544991Y-13617246D02*
X9544991Y-13674388D01*
X9544991Y-13674388D02*
X9535467Y-13693436D01*
X9535467Y-13693436D02*
X9525944Y-13702960D01*
X9525944Y-13702960D02*
X9506896Y-13712484D01*
X9506896Y-13712484D02*
X9468801Y-13712484D01*
X9468801Y-13712484D02*
X9449753Y-13702960D01*
X9630705Y-13693436D02*
X9640229Y-13702960D01*
X9640229Y-13702960D02*
X9630705Y-13712484D01*
X9630705Y-13712484D02*
X9621182Y-13702960D01*
X9621182Y-13702960D02*
X9630705Y-13693436D01*
X9630705Y-13693436D02*
X9630705Y-13712484D01*
X9630705Y-13588674D02*
X9640229Y-13598198D01*
X9640229Y-13598198D02*
X9630705Y-13607722D01*
X9630705Y-13607722D02*
X9621182Y-13598198D01*
X9621182Y-13598198D02*
X9630705Y-13588674D01*
X9630705Y-13588674D02*
X9630705Y-13607722D01*
D12*
X7968500Y-14026000D02*
X7998500Y-14056000D01*
X7998500Y-14026000D02*
X7968500Y-14056000D01*
D11*
X8297372Y-13932484D02*
X8316420Y-13932484D01*
X8316420Y-13932484D02*
X8335467Y-13942008D01*
X8335467Y-13942008D02*
X8344991Y-13951531D01*
X8344991Y-13951531D02*
X8354515Y-13970579D01*
X8354515Y-13970579D02*
X8364039Y-14008674D01*
X8364039Y-14008674D02*
X8364039Y-14056293D01*
X8364039Y-14056293D02*
X8354515Y-14094388D01*
X8354515Y-14094388D02*
X8344991Y-14113436D01*
X8344991Y-14113436D02*
X8335467Y-14122960D01*
X8335467Y-14122960D02*
X8316420Y-14132484D01*
X8316420Y-14132484D02*
X8297372Y-14132484D01*
X8297372Y-14132484D02*
X8278324Y-14122960D01*
X8278324Y-14122960D02*
X8268801Y-14113436D01*
X8268801Y-14113436D02*
X8259277Y-14094388D01*
X8259277Y-14094388D02*
X8249753Y-14056293D01*
X8249753Y-14056293D02*
X8249753Y-14008674D01*
X8249753Y-14008674D02*
X8259277Y-13970579D01*
X8259277Y-13970579D02*
X8268801Y-13951531D01*
X8268801Y-13951531D02*
X8278324Y-13942008D01*
X8278324Y-13942008D02*
X8297372Y-13932484D01*
X8449753Y-14113436D02*
X8459277Y-14122960D01*
X8459277Y-14122960D02*
X8449753Y-14132484D01*
X8449753Y-14132484D02*
X8440229Y-14122960D01*
X8440229Y-14122960D02*
X8449753Y-14113436D01*
X8449753Y-14113436D02*
X8449753Y-14132484D01*
X8525944Y-13932484D02*
X8649753Y-13932484D01*
X8649753Y-13932484D02*
X8583086Y-14008674D01*
X8583086Y-14008674D02*
X8611658Y-14008674D01*
X8611658Y-14008674D02*
X8630705Y-14018198D01*
X8630705Y-14018198D02*
X8640229Y-14027722D01*
X8640229Y-14027722D02*
X8649753Y-14046769D01*
X8649753Y-14046769D02*
X8649753Y-14094388D01*
X8649753Y-14094388D02*
X8640229Y-14113436D01*
X8640229Y-14113436D02*
X8630705Y-14122960D01*
X8630705Y-14122960D02*
X8611658Y-14132484D01*
X8611658Y-14132484D02*
X8554515Y-14132484D01*
X8554515Y-14132484D02*
X8535467Y-14122960D01*
X8535467Y-14122960D02*
X8525944Y-14113436D01*
X8773563Y-13932484D02*
X8792610Y-13932484D01*
X8792610Y-13932484D02*
X8811658Y-13942008D01*
X8811658Y-13942008D02*
X8821182Y-13951531D01*
X8821182Y-13951531D02*
X8830705Y-13970579D01*
X8830705Y-13970579D02*
X8840229Y-14008674D01*
X8840229Y-14008674D02*
X8840229Y-14056293D01*
X8840229Y-14056293D02*
X8830705Y-14094388D01*
X8830705Y-14094388D02*
X8821182Y-14113436D01*
X8821182Y-14113436D02*
X8811658Y-14122960D01*
X8811658Y-14122960D02*
X8792610Y-14132484D01*
X8792610Y-14132484D02*
X8773563Y-14132484D01*
X8773563Y-14132484D02*
X8754515Y-14122960D01*
X8754515Y-14122960D02*
X8744991Y-14113436D01*
X8744991Y-14113436D02*
X8735467Y-14094388D01*
X8735467Y-14094388D02*
X8725944Y-14056293D01*
X8725944Y-14056293D02*
X8725944Y-14008674D01*
X8725944Y-14008674D02*
X8735467Y-13970579D01*
X8735467Y-13970579D02*
X8744991Y-13951531D01*
X8744991Y-13951531D02*
X8754515Y-13942008D01*
X8754515Y-13942008D02*
X8773563Y-13932484D01*
X8964039Y-13932484D02*
X8983086Y-13932484D01*
X8983086Y-13932484D02*
X9002134Y-13942008D01*
X9002134Y-13942008D02*
X9011658Y-13951531D01*
X9011658Y-13951531D02*
X9021182Y-13970579D01*
X9021182Y-13970579D02*
X9030705Y-14008674D01*
X9030705Y-14008674D02*
X9030705Y-14056293D01*
X9030705Y-14056293D02*
X9021182Y-14094388D01*
X9021182Y-14094388D02*
X9011658Y-14113436D01*
X9011658Y-14113436D02*
X9002134Y-14122960D01*
X9002134Y-14122960D02*
X8983086Y-14132484D01*
X8983086Y-14132484D02*
X8964039Y-14132484D01*
X8964039Y-14132484D02*
X8944991Y-14122960D01*
X8944991Y-14122960D02*
X8935467Y-14113436D01*
X8935467Y-14113436D02*
X8925944Y-14094388D01*
X8925944Y-14094388D02*
X8916420Y-14056293D01*
X8916420Y-14056293D02*
X8916420Y-14008674D01*
X8916420Y-14008674D02*
X8925944Y-13970579D01*
X8925944Y-13970579D02*
X8935467Y-13951531D01*
X8935467Y-13951531D02*
X8944991Y-13942008D01*
X8944991Y-13942008D02*
X8964039Y-13932484D01*
X9116420Y-14132484D02*
X9116420Y-13999150D01*
X9116420Y-14018198D02*
X9125944Y-14008674D01*
X9125944Y-14008674D02*
X9144991Y-13999150D01*
X9144991Y-13999150D02*
X9173563Y-13999150D01*
X9173563Y-13999150D02*
X9192610Y-14008674D01*
X9192610Y-14008674D02*
X9202134Y-14027722D01*
X9202134Y-14027722D02*
X9202134Y-14132484D01*
X9202134Y-14027722D02*
X9211658Y-14008674D01*
X9211658Y-14008674D02*
X9230705Y-13999150D01*
X9230705Y-13999150D02*
X9259277Y-13999150D01*
X9259277Y-13999150D02*
X9278325Y-14008674D01*
X9278325Y-14008674D02*
X9287848Y-14027722D01*
X9287848Y-14027722D02*
X9287848Y-14132484D01*
X9383086Y-14132484D02*
X9383086Y-13999150D01*
X9383086Y-14018198D02*
X9392610Y-14008674D01*
X9392610Y-14008674D02*
X9411658Y-13999150D01*
X9411658Y-13999150D02*
X9440229Y-13999150D01*
X9440229Y-13999150D02*
X9459277Y-14008674D01*
X9459277Y-14008674D02*
X9468801Y-14027722D01*
X9468801Y-14027722D02*
X9468801Y-14132484D01*
X9468801Y-14027722D02*
X9478325Y-14008674D01*
X9478325Y-14008674D02*
X9497372Y-13999150D01*
X9497372Y-13999150D02*
X9525944Y-13999150D01*
X9525944Y-13999150D02*
X9544991Y-14008674D01*
X9544991Y-14008674D02*
X9554515Y-14027722D01*
X9554515Y-14027722D02*
X9554515Y-14132484D01*
X9944991Y-13922960D02*
X9773563Y-14180103D01*
X10202134Y-13932484D02*
X10221182Y-13932484D01*
X10221182Y-13932484D02*
X10240229Y-13942008D01*
X10240229Y-13942008D02*
X10249753Y-13951531D01*
X10249753Y-13951531D02*
X10259277Y-13970579D01*
X10259277Y-13970579D02*
X10268801Y-14008674D01*
X10268801Y-14008674D02*
X10268801Y-14056293D01*
X10268801Y-14056293D02*
X10259277Y-14094388D01*
X10259277Y-14094388D02*
X10249753Y-14113436D01*
X10249753Y-14113436D02*
X10240229Y-14122960D01*
X10240229Y-14122960D02*
X10221182Y-14132484D01*
X10221182Y-14132484D02*
X10202134Y-14132484D01*
X10202134Y-14132484D02*
X10183087Y-14122960D01*
X10183087Y-14122960D02*
X10173563Y-14113436D01*
X10173563Y-14113436D02*
X10164039Y-14094388D01*
X10164039Y-14094388D02*
X10154515Y-14056293D01*
X10154515Y-14056293D02*
X10154515Y-14008674D01*
X10154515Y-14008674D02*
X10164039Y-13970579D01*
X10164039Y-13970579D02*
X10173563Y-13951531D01*
X10173563Y-13951531D02*
X10183087Y-13942008D01*
X10183087Y-13942008D02*
X10202134Y-13932484D01*
X10354515Y-14113436D02*
X10364039Y-14122960D01*
X10364039Y-14122960D02*
X10354515Y-14132484D01*
X10354515Y-14132484D02*
X10344991Y-14122960D01*
X10344991Y-14122960D02*
X10354515Y-14113436D01*
X10354515Y-14113436D02*
X10354515Y-14132484D01*
X10487848Y-13932484D02*
X10506896Y-13932484D01*
X10506896Y-13932484D02*
X10525944Y-13942008D01*
X10525944Y-13942008D02*
X10535468Y-13951531D01*
X10535468Y-13951531D02*
X10544991Y-13970579D01*
X10544991Y-13970579D02*
X10554515Y-14008674D01*
X10554515Y-14008674D02*
X10554515Y-14056293D01*
X10554515Y-14056293D02*
X10544991Y-14094388D01*
X10544991Y-14094388D02*
X10535468Y-14113436D01*
X10535468Y-14113436D02*
X10525944Y-14122960D01*
X10525944Y-14122960D02*
X10506896Y-14132484D01*
X10506896Y-14132484D02*
X10487848Y-14132484D01*
X10487848Y-14132484D02*
X10468801Y-14122960D01*
X10468801Y-14122960D02*
X10459277Y-14113436D01*
X10459277Y-14113436D02*
X10449753Y-14094388D01*
X10449753Y-14094388D02*
X10440229Y-14056293D01*
X10440229Y-14056293D02*
X10440229Y-14008674D01*
X10440229Y-14008674D02*
X10449753Y-13970579D01*
X10449753Y-13970579D02*
X10459277Y-13951531D01*
X10459277Y-13951531D02*
X10468801Y-13942008D01*
X10468801Y-13942008D02*
X10487848Y-13932484D01*
X10744991Y-14132484D02*
X10630706Y-14132484D01*
X10687848Y-14132484D02*
X10687848Y-13932484D01*
X10687848Y-13932484D02*
X10668801Y-13961055D01*
X10668801Y-13961055D02*
X10649753Y-13980103D01*
X10649753Y-13980103D02*
X10630706Y-13989627D01*
X10935468Y-14132484D02*
X10821182Y-14132484D01*
X10878325Y-14132484D02*
X10878325Y-13932484D01*
X10878325Y-13932484D02*
X10859277Y-13961055D01*
X10859277Y-13961055D02*
X10840229Y-13980103D01*
X10840229Y-13980103D02*
X10821182Y-13989627D01*
X11049753Y-14018198D02*
X11030706Y-14008674D01*
X11030706Y-14008674D02*
X11021182Y-13999150D01*
X11021182Y-13999150D02*
X11011658Y-13980103D01*
X11011658Y-13980103D02*
X11011658Y-13970579D01*
X11011658Y-13970579D02*
X11021182Y-13951531D01*
X11021182Y-13951531D02*
X11030706Y-13942008D01*
X11030706Y-13942008D02*
X11049753Y-13932484D01*
X11049753Y-13932484D02*
X11087849Y-13932484D01*
X11087849Y-13932484D02*
X11106896Y-13942008D01*
X11106896Y-13942008D02*
X11116420Y-13951531D01*
X11116420Y-13951531D02*
X11125944Y-13970579D01*
X11125944Y-13970579D02*
X11125944Y-13980103D01*
X11125944Y-13980103D02*
X11116420Y-13999150D01*
X11116420Y-13999150D02*
X11106896Y-14008674D01*
X11106896Y-14008674D02*
X11087849Y-14018198D01*
X11087849Y-14018198D02*
X11049753Y-14018198D01*
X11049753Y-14018198D02*
X11030706Y-14027722D01*
X11030706Y-14027722D02*
X11021182Y-14037246D01*
X11021182Y-14037246D02*
X11011658Y-14056293D01*
X11011658Y-14056293D02*
X11011658Y-14094388D01*
X11011658Y-14094388D02*
X11021182Y-14113436D01*
X11021182Y-14113436D02*
X11030706Y-14122960D01*
X11030706Y-14122960D02*
X11049753Y-14132484D01*
X11049753Y-14132484D02*
X11087849Y-14132484D01*
X11087849Y-14132484D02*
X11106896Y-14122960D01*
X11106896Y-14122960D02*
X11116420Y-14113436D01*
X11116420Y-14113436D02*
X11125944Y-14094388D01*
X11125944Y-14094388D02*
X11125944Y-14056293D01*
X11125944Y-14056293D02*
X11116420Y-14037246D01*
X11116420Y-14037246D02*
X11106896Y-14027722D01*
X11106896Y-14027722D02*
X11087849Y-14018198D01*
X11202134Y-13932484D02*
X11202134Y-13970579D01*
X11278325Y-13932484D02*
X11278325Y-13970579D01*
X11573563Y-14208674D02*
X11564039Y-14199150D01*
X11564039Y-14199150D02*
X11544991Y-14170579D01*
X11544991Y-14170579D02*
X11535468Y-14151531D01*
X11535468Y-14151531D02*
X11525944Y-14122960D01*
X11525944Y-14122960D02*
X11516420Y-14075341D01*
X11516420Y-14075341D02*
X11516420Y-14037246D01*
X11516420Y-14037246D02*
X11525944Y-13989627D01*
X11525944Y-13989627D02*
X11535468Y-13961055D01*
X11535468Y-13961055D02*
X11544991Y-13942008D01*
X11544991Y-13942008D02*
X11564039Y-13913436D01*
X11564039Y-13913436D02*
X11573563Y-13903912D01*
X11754515Y-14132484D02*
X11640229Y-14132484D01*
X11697372Y-14132484D02*
X11697372Y-13932484D01*
X11697372Y-13932484D02*
X11678325Y-13961055D01*
X11678325Y-13961055D02*
X11659277Y-13980103D01*
X11659277Y-13980103D02*
X11640229Y-13989627D01*
X11935468Y-13932484D02*
X11840229Y-13932484D01*
X11840229Y-13932484D02*
X11830706Y-14027722D01*
X11830706Y-14027722D02*
X11840229Y-14018198D01*
X11840229Y-14018198D02*
X11859277Y-14008674D01*
X11859277Y-14008674D02*
X11906896Y-14008674D01*
X11906896Y-14008674D02*
X11925944Y-14018198D01*
X11925944Y-14018198D02*
X11935468Y-14027722D01*
X11935468Y-14027722D02*
X11944991Y-14046769D01*
X11944991Y-14046769D02*
X11944991Y-14094388D01*
X11944991Y-14094388D02*
X11935468Y-14113436D01*
X11935468Y-14113436D02*
X11925944Y-14122960D01*
X11925944Y-14122960D02*
X11906896Y-14132484D01*
X11906896Y-14132484D02*
X11859277Y-14132484D01*
X11859277Y-14132484D02*
X11840229Y-14122960D01*
X11840229Y-14122960D02*
X11830706Y-14113436D01*
X12183087Y-14132484D02*
X12183087Y-13932484D01*
X12268801Y-14132484D02*
X12268801Y-14027722D01*
X12268801Y-14027722D02*
X12259277Y-14008674D01*
X12259277Y-14008674D02*
X12240230Y-13999150D01*
X12240230Y-13999150D02*
X12211658Y-13999150D01*
X12211658Y-13999150D02*
X12192610Y-14008674D01*
X12192610Y-14008674D02*
X12183087Y-14018198D01*
X12392610Y-14132484D02*
X12373563Y-14122960D01*
X12373563Y-14122960D02*
X12364039Y-14113436D01*
X12364039Y-14113436D02*
X12354515Y-14094388D01*
X12354515Y-14094388D02*
X12354515Y-14037246D01*
X12354515Y-14037246D02*
X12364039Y-14018198D01*
X12364039Y-14018198D02*
X12373563Y-14008674D01*
X12373563Y-14008674D02*
X12392610Y-13999150D01*
X12392610Y-13999150D02*
X12421182Y-13999150D01*
X12421182Y-13999150D02*
X12440230Y-14008674D01*
X12440230Y-14008674D02*
X12449753Y-14018198D01*
X12449753Y-14018198D02*
X12459277Y-14037246D01*
X12459277Y-14037246D02*
X12459277Y-14094388D01*
X12459277Y-14094388D02*
X12449753Y-14113436D01*
X12449753Y-14113436D02*
X12440230Y-14122960D01*
X12440230Y-14122960D02*
X12421182Y-14132484D01*
X12421182Y-14132484D02*
X12392610Y-14132484D01*
X12573563Y-14132484D02*
X12554515Y-14122960D01*
X12554515Y-14122960D02*
X12544991Y-14103912D01*
X12544991Y-14103912D02*
X12544991Y-13932484D01*
X12725944Y-14122960D02*
X12706896Y-14132484D01*
X12706896Y-14132484D02*
X12668801Y-14132484D01*
X12668801Y-14132484D02*
X12649753Y-14122960D01*
X12649753Y-14122960D02*
X12640230Y-14103912D01*
X12640230Y-14103912D02*
X12640230Y-14027722D01*
X12640230Y-14027722D02*
X12649753Y-14008674D01*
X12649753Y-14008674D02*
X12668801Y-13999150D01*
X12668801Y-13999150D02*
X12706896Y-13999150D01*
X12706896Y-13999150D02*
X12725944Y-14008674D01*
X12725944Y-14008674D02*
X12735468Y-14027722D01*
X12735468Y-14027722D02*
X12735468Y-14046769D01*
X12735468Y-14046769D02*
X12640230Y-14065817D01*
X12811658Y-14122960D02*
X12830706Y-14132484D01*
X12830706Y-14132484D02*
X12868801Y-14132484D01*
X12868801Y-14132484D02*
X12887849Y-14122960D01*
X12887849Y-14122960D02*
X12897372Y-14103912D01*
X12897372Y-14103912D02*
X12897372Y-14094388D01*
X12897372Y-14094388D02*
X12887849Y-14075341D01*
X12887849Y-14075341D02*
X12868801Y-14065817D01*
X12868801Y-14065817D02*
X12840230Y-14065817D01*
X12840230Y-14065817D02*
X12821182Y-14056293D01*
X12821182Y-14056293D02*
X12811658Y-14037246D01*
X12811658Y-14037246D02*
X12811658Y-14027722D01*
X12811658Y-14027722D02*
X12821182Y-14008674D01*
X12821182Y-14008674D02*
X12840230Y-13999150D01*
X12840230Y-13999150D02*
X12868801Y-13999150D01*
X12868801Y-13999150D02*
X12887849Y-14008674D01*
X12964039Y-14208674D02*
X12973563Y-14199150D01*
X12973563Y-14199150D02*
X12992611Y-14170579D01*
X12992611Y-14170579D02*
X13002134Y-14151531D01*
X13002134Y-14151531D02*
X13011658Y-14122960D01*
X13011658Y-14122960D02*
X13021182Y-14075341D01*
X13021182Y-14075341D02*
X13021182Y-14037246D01*
X13021182Y-14037246D02*
X13011658Y-13989627D01*
X13011658Y-13989627D02*
X13002134Y-13961055D01*
X13002134Y-13961055D02*
X12992611Y-13942008D01*
X12992611Y-13942008D02*
X12973563Y-13913436D01*
X12973563Y-13913436D02*
X12964039Y-13903912D01*
D12*
X7998500Y-14305000D02*
G75*
G02*
X7968020Y-14305000I-15240J0D01*
G01*
X7968020Y-14305000D02*
G75*
G02*
X7998500Y-14305000I15240J0D01*
G01*
D11*
X8297372Y-14196484D02*
X8316420Y-14196484D01*
X8316420Y-14196484D02*
X8335467Y-14206008D01*
X8335467Y-14206008D02*
X8344991Y-14215531D01*
X8344991Y-14215531D02*
X8354515Y-14234579D01*
X8354515Y-14234579D02*
X8364039Y-14272674D01*
X8364039Y-14272674D02*
X8364039Y-14320293D01*
X8364039Y-14320293D02*
X8354515Y-14358388D01*
X8354515Y-14358388D02*
X8344991Y-14377436D01*
X8344991Y-14377436D02*
X8335467Y-14386960D01*
X8335467Y-14386960D02*
X8316420Y-14396484D01*
X8316420Y-14396484D02*
X8297372Y-14396484D01*
X8297372Y-14396484D02*
X8278324Y-14386960D01*
X8278324Y-14386960D02*
X8268801Y-14377436D01*
X8268801Y-14377436D02*
X8259277Y-14358388D01*
X8259277Y-14358388D02*
X8249753Y-14320293D01*
X8249753Y-14320293D02*
X8249753Y-14272674D01*
X8249753Y-14272674D02*
X8259277Y-14234579D01*
X8259277Y-14234579D02*
X8268801Y-14215531D01*
X8268801Y-14215531D02*
X8278324Y-14206008D01*
X8278324Y-14206008D02*
X8297372Y-14196484D01*
X8449753Y-14377436D02*
X8459277Y-14386960D01*
X8459277Y-14386960D02*
X8449753Y-14396484D01*
X8449753Y-14396484D02*
X8440229Y-14386960D01*
X8440229Y-14386960D02*
X8449753Y-14377436D01*
X8449753Y-14377436D02*
X8449753Y-14396484D01*
X8525944Y-14196484D02*
X8649753Y-14196484D01*
X8649753Y-14196484D02*
X8583086Y-14272674D01*
X8583086Y-14272674D02*
X8611658Y-14272674D01*
X8611658Y-14272674D02*
X8630705Y-14282198D01*
X8630705Y-14282198D02*
X8640229Y-14291722D01*
X8640229Y-14291722D02*
X8649753Y-14310769D01*
X8649753Y-14310769D02*
X8649753Y-14358388D01*
X8649753Y-14358388D02*
X8640229Y-14377436D01*
X8640229Y-14377436D02*
X8630705Y-14386960D01*
X8630705Y-14386960D02*
X8611658Y-14396484D01*
X8611658Y-14396484D02*
X8554515Y-14396484D01*
X8554515Y-14396484D02*
X8535467Y-14386960D01*
X8535467Y-14386960D02*
X8525944Y-14377436D01*
X8773563Y-14196484D02*
X8792610Y-14196484D01*
X8792610Y-14196484D02*
X8811658Y-14206008D01*
X8811658Y-14206008D02*
X8821182Y-14215531D01*
X8821182Y-14215531D02*
X8830705Y-14234579D01*
X8830705Y-14234579D02*
X8840229Y-14272674D01*
X8840229Y-14272674D02*
X8840229Y-14320293D01*
X8840229Y-14320293D02*
X8830705Y-14358388D01*
X8830705Y-14358388D02*
X8821182Y-14377436D01*
X8821182Y-14377436D02*
X8811658Y-14386960D01*
X8811658Y-14386960D02*
X8792610Y-14396484D01*
X8792610Y-14396484D02*
X8773563Y-14396484D01*
X8773563Y-14396484D02*
X8754515Y-14386960D01*
X8754515Y-14386960D02*
X8744991Y-14377436D01*
X8744991Y-14377436D02*
X8735467Y-14358388D01*
X8735467Y-14358388D02*
X8725944Y-14320293D01*
X8725944Y-14320293D02*
X8725944Y-14272674D01*
X8725944Y-14272674D02*
X8735467Y-14234579D01*
X8735467Y-14234579D02*
X8744991Y-14215531D01*
X8744991Y-14215531D02*
X8754515Y-14206008D01*
X8754515Y-14206008D02*
X8773563Y-14196484D01*
X9021182Y-14196484D02*
X8925944Y-14196484D01*
X8925944Y-14196484D02*
X8916420Y-14291722D01*
X8916420Y-14291722D02*
X8925944Y-14282198D01*
X8925944Y-14282198D02*
X8944991Y-14272674D01*
X8944991Y-14272674D02*
X8992610Y-14272674D01*
X8992610Y-14272674D02*
X9011658Y-14282198D01*
X9011658Y-14282198D02*
X9021182Y-14291722D01*
X9021182Y-14291722D02*
X9030705Y-14310769D01*
X9030705Y-14310769D02*
X9030705Y-14358388D01*
X9030705Y-14358388D02*
X9021182Y-14377436D01*
X9021182Y-14377436D02*
X9011658Y-14386960D01*
X9011658Y-14386960D02*
X8992610Y-14396484D01*
X8992610Y-14396484D02*
X8944991Y-14396484D01*
X8944991Y-14396484D02*
X8925944Y-14386960D01*
X8925944Y-14386960D02*
X8916420Y-14377436D01*
X9116420Y-14396484D02*
X9116420Y-14263150D01*
X9116420Y-14282198D02*
X9125944Y-14272674D01*
X9125944Y-14272674D02*
X9144991Y-14263150D01*
X9144991Y-14263150D02*
X9173563Y-14263150D01*
X9173563Y-14263150D02*
X9192610Y-14272674D01*
X9192610Y-14272674D02*
X9202134Y-14291722D01*
X9202134Y-14291722D02*
X9202134Y-14396484D01*
X9202134Y-14291722D02*
X9211658Y-14272674D01*
X9211658Y-14272674D02*
X9230705Y-14263150D01*
X9230705Y-14263150D02*
X9259277Y-14263150D01*
X9259277Y-14263150D02*
X9278325Y-14272674D01*
X9278325Y-14272674D02*
X9287848Y-14291722D01*
X9287848Y-14291722D02*
X9287848Y-14396484D01*
X9383086Y-14396484D02*
X9383086Y-14263150D01*
X9383086Y-14282198D02*
X9392610Y-14272674D01*
X9392610Y-14272674D02*
X9411658Y-14263150D01*
X9411658Y-14263150D02*
X9440229Y-14263150D01*
X9440229Y-14263150D02*
X9459277Y-14272674D01*
X9459277Y-14272674D02*
X9468801Y-14291722D01*
X9468801Y-14291722D02*
X9468801Y-14396484D01*
X9468801Y-14291722D02*
X9478325Y-14272674D01*
X9478325Y-14272674D02*
X9497372Y-14263150D01*
X9497372Y-14263150D02*
X9525944Y-14263150D01*
X9525944Y-14263150D02*
X9544991Y-14272674D01*
X9544991Y-14272674D02*
X9554515Y-14291722D01*
X9554515Y-14291722D02*
X9554515Y-14396484D01*
X9944991Y-14186960D02*
X9773563Y-14444103D01*
X10202134Y-14196484D02*
X10221182Y-14196484D01*
X10221182Y-14196484D02*
X10240229Y-14206008D01*
X10240229Y-14206008D02*
X10249753Y-14215531D01*
X10249753Y-14215531D02*
X10259277Y-14234579D01*
X10259277Y-14234579D02*
X10268801Y-14272674D01*
X10268801Y-14272674D02*
X10268801Y-14320293D01*
X10268801Y-14320293D02*
X10259277Y-14358388D01*
X10259277Y-14358388D02*
X10249753Y-14377436D01*
X10249753Y-14377436D02*
X10240229Y-14386960D01*
X10240229Y-14386960D02*
X10221182Y-14396484D01*
X10221182Y-14396484D02*
X10202134Y-14396484D01*
X10202134Y-14396484D02*
X10183087Y-14386960D01*
X10183087Y-14386960D02*
X10173563Y-14377436D01*
X10173563Y-14377436D02*
X10164039Y-14358388D01*
X10164039Y-14358388D02*
X10154515Y-14320293D01*
X10154515Y-14320293D02*
X10154515Y-14272674D01*
X10154515Y-14272674D02*
X10164039Y-14234579D01*
X10164039Y-14234579D02*
X10173563Y-14215531D01*
X10173563Y-14215531D02*
X10183087Y-14206008D01*
X10183087Y-14206008D02*
X10202134Y-14196484D01*
X10354515Y-14377436D02*
X10364039Y-14386960D01*
X10364039Y-14386960D02*
X10354515Y-14396484D01*
X10354515Y-14396484D02*
X10344991Y-14386960D01*
X10344991Y-14386960D02*
X10354515Y-14377436D01*
X10354515Y-14377436D02*
X10354515Y-14396484D01*
X10487848Y-14196484D02*
X10506896Y-14196484D01*
X10506896Y-14196484D02*
X10525944Y-14206008D01*
X10525944Y-14206008D02*
X10535468Y-14215531D01*
X10535468Y-14215531D02*
X10544991Y-14234579D01*
X10544991Y-14234579D02*
X10554515Y-14272674D01*
X10554515Y-14272674D02*
X10554515Y-14320293D01*
X10554515Y-14320293D02*
X10544991Y-14358388D01*
X10544991Y-14358388D02*
X10535468Y-14377436D01*
X10535468Y-14377436D02*
X10525944Y-14386960D01*
X10525944Y-14386960D02*
X10506896Y-14396484D01*
X10506896Y-14396484D02*
X10487848Y-14396484D01*
X10487848Y-14396484D02*
X10468801Y-14386960D01*
X10468801Y-14386960D02*
X10459277Y-14377436D01*
X10459277Y-14377436D02*
X10449753Y-14358388D01*
X10449753Y-14358388D02*
X10440229Y-14320293D01*
X10440229Y-14320293D02*
X10440229Y-14272674D01*
X10440229Y-14272674D02*
X10449753Y-14234579D01*
X10449753Y-14234579D02*
X10459277Y-14215531D01*
X10459277Y-14215531D02*
X10468801Y-14206008D01*
X10468801Y-14206008D02*
X10487848Y-14196484D01*
X10744991Y-14396484D02*
X10630706Y-14396484D01*
X10687848Y-14396484D02*
X10687848Y-14196484D01*
X10687848Y-14196484D02*
X10668801Y-14225055D01*
X10668801Y-14225055D02*
X10649753Y-14244103D01*
X10649753Y-14244103D02*
X10630706Y-14253627D01*
X10821182Y-14215531D02*
X10830706Y-14206008D01*
X10830706Y-14206008D02*
X10849753Y-14196484D01*
X10849753Y-14196484D02*
X10897372Y-14196484D01*
X10897372Y-14196484D02*
X10916420Y-14206008D01*
X10916420Y-14206008D02*
X10925944Y-14215531D01*
X10925944Y-14215531D02*
X10935468Y-14234579D01*
X10935468Y-14234579D02*
X10935468Y-14253627D01*
X10935468Y-14253627D02*
X10925944Y-14282198D01*
X10925944Y-14282198D02*
X10811658Y-14396484D01*
X10811658Y-14396484D02*
X10935468Y-14396484D01*
X11059277Y-14196484D02*
X11078325Y-14196484D01*
X11078325Y-14196484D02*
X11097372Y-14206008D01*
X11097372Y-14206008D02*
X11106896Y-14215531D01*
X11106896Y-14215531D02*
X11116420Y-14234579D01*
X11116420Y-14234579D02*
X11125944Y-14272674D01*
X11125944Y-14272674D02*
X11125944Y-14320293D01*
X11125944Y-14320293D02*
X11116420Y-14358388D01*
X11116420Y-14358388D02*
X11106896Y-14377436D01*
X11106896Y-14377436D02*
X11097372Y-14386960D01*
X11097372Y-14386960D02*
X11078325Y-14396484D01*
X11078325Y-14396484D02*
X11059277Y-14396484D01*
X11059277Y-14396484D02*
X11040229Y-14386960D01*
X11040229Y-14386960D02*
X11030706Y-14377436D01*
X11030706Y-14377436D02*
X11021182Y-14358388D01*
X11021182Y-14358388D02*
X11011658Y-14320293D01*
X11011658Y-14320293D02*
X11011658Y-14272674D01*
X11011658Y-14272674D02*
X11021182Y-14234579D01*
X11021182Y-14234579D02*
X11030706Y-14215531D01*
X11030706Y-14215531D02*
X11040229Y-14206008D01*
X11040229Y-14206008D02*
X11059277Y-14196484D01*
X11202134Y-14196484D02*
X11202134Y-14234579D01*
X11278325Y-14196484D02*
X11278325Y-14234579D01*
X11573563Y-14472674D02*
X11564039Y-14463150D01*
X11564039Y-14463150D02*
X11544991Y-14434579D01*
X11544991Y-14434579D02*
X11535468Y-14415531D01*
X11535468Y-14415531D02*
X11525944Y-14386960D01*
X11525944Y-14386960D02*
X11516420Y-14339341D01*
X11516420Y-14339341D02*
X11516420Y-14301246D01*
X11516420Y-14301246D02*
X11525944Y-14253627D01*
X11525944Y-14253627D02*
X11535468Y-14225055D01*
X11535468Y-14225055D02*
X11544991Y-14206008D01*
X11544991Y-14206008D02*
X11564039Y-14177436D01*
X11564039Y-14177436D02*
X11573563Y-14167912D01*
X11754515Y-14396484D02*
X11640229Y-14396484D01*
X11697372Y-14396484D02*
X11697372Y-14196484D01*
X11697372Y-14196484D02*
X11678325Y-14225055D01*
X11678325Y-14225055D02*
X11659277Y-14244103D01*
X11659277Y-14244103D02*
X11640229Y-14253627D01*
X11935468Y-14196484D02*
X11840229Y-14196484D01*
X11840229Y-14196484D02*
X11830706Y-14291722D01*
X11830706Y-14291722D02*
X11840229Y-14282198D01*
X11840229Y-14282198D02*
X11859277Y-14272674D01*
X11859277Y-14272674D02*
X11906896Y-14272674D01*
X11906896Y-14272674D02*
X11925944Y-14282198D01*
X11925944Y-14282198D02*
X11935468Y-14291722D01*
X11935468Y-14291722D02*
X11944991Y-14310769D01*
X11944991Y-14310769D02*
X11944991Y-14358388D01*
X11944991Y-14358388D02*
X11935468Y-14377436D01*
X11935468Y-14377436D02*
X11925944Y-14386960D01*
X11925944Y-14386960D02*
X11906896Y-14396484D01*
X11906896Y-14396484D02*
X11859277Y-14396484D01*
X11859277Y-14396484D02*
X11840229Y-14386960D01*
X11840229Y-14386960D02*
X11830706Y-14377436D01*
X12183087Y-14396484D02*
X12183087Y-14196484D01*
X12268801Y-14396484D02*
X12268801Y-14291722D01*
X12268801Y-14291722D02*
X12259277Y-14272674D01*
X12259277Y-14272674D02*
X12240230Y-14263150D01*
X12240230Y-14263150D02*
X12211658Y-14263150D01*
X12211658Y-14263150D02*
X12192610Y-14272674D01*
X12192610Y-14272674D02*
X12183087Y-14282198D01*
X12392610Y-14396484D02*
X12373563Y-14386960D01*
X12373563Y-14386960D02*
X12364039Y-14377436D01*
X12364039Y-14377436D02*
X12354515Y-14358388D01*
X12354515Y-14358388D02*
X12354515Y-14301246D01*
X12354515Y-14301246D02*
X12364039Y-14282198D01*
X12364039Y-14282198D02*
X12373563Y-14272674D01*
X12373563Y-14272674D02*
X12392610Y-14263150D01*
X12392610Y-14263150D02*
X12421182Y-14263150D01*
X12421182Y-14263150D02*
X12440230Y-14272674D01*
X12440230Y-14272674D02*
X12449753Y-14282198D01*
X12449753Y-14282198D02*
X12459277Y-14301246D01*
X12459277Y-14301246D02*
X12459277Y-14358388D01*
X12459277Y-14358388D02*
X12449753Y-14377436D01*
X12449753Y-14377436D02*
X12440230Y-14386960D01*
X12440230Y-14386960D02*
X12421182Y-14396484D01*
X12421182Y-14396484D02*
X12392610Y-14396484D01*
X12573563Y-14396484D02*
X12554515Y-14386960D01*
X12554515Y-14386960D02*
X12544991Y-14367912D01*
X12544991Y-14367912D02*
X12544991Y-14196484D01*
X12725944Y-14386960D02*
X12706896Y-14396484D01*
X12706896Y-14396484D02*
X12668801Y-14396484D01*
X12668801Y-14396484D02*
X12649753Y-14386960D01*
X12649753Y-14386960D02*
X12640230Y-14367912D01*
X12640230Y-14367912D02*
X12640230Y-14291722D01*
X12640230Y-14291722D02*
X12649753Y-14272674D01*
X12649753Y-14272674D02*
X12668801Y-14263150D01*
X12668801Y-14263150D02*
X12706896Y-14263150D01*
X12706896Y-14263150D02*
X12725944Y-14272674D01*
X12725944Y-14272674D02*
X12735468Y-14291722D01*
X12735468Y-14291722D02*
X12735468Y-14310769D01*
X12735468Y-14310769D02*
X12640230Y-14329817D01*
X12811658Y-14386960D02*
X12830706Y-14396484D01*
X12830706Y-14396484D02*
X12868801Y-14396484D01*
X12868801Y-14396484D02*
X12887849Y-14386960D01*
X12887849Y-14386960D02*
X12897372Y-14367912D01*
X12897372Y-14367912D02*
X12897372Y-14358388D01*
X12897372Y-14358388D02*
X12887849Y-14339341D01*
X12887849Y-14339341D02*
X12868801Y-14329817D01*
X12868801Y-14329817D02*
X12840230Y-14329817D01*
X12840230Y-14329817D02*
X12821182Y-14320293D01*
X12821182Y-14320293D02*
X12811658Y-14301246D01*
X12811658Y-14301246D02*
X12811658Y-14291722D01*
X12811658Y-14291722D02*
X12821182Y-14272674D01*
X12821182Y-14272674D02*
X12840230Y-14263150D01*
X12840230Y-14263150D02*
X12868801Y-14263150D01*
X12868801Y-14263150D02*
X12887849Y-14272674D01*
X12964039Y-14472674D02*
X12973563Y-14463150D01*
X12973563Y-14463150D02*
X12992611Y-14434579D01*
X12992611Y-14434579D02*
X13002134Y-14415531D01*
X13002134Y-14415531D02*
X13011658Y-14386960D01*
X13011658Y-14386960D02*
X13021182Y-14339341D01*
X13021182Y-14339341D02*
X13021182Y-14301246D01*
X13021182Y-14301246D02*
X13011658Y-14253627D01*
X13011658Y-14253627D02*
X13002134Y-14225055D01*
X13002134Y-14225055D02*
X12992611Y-14206008D01*
X12992611Y-14206008D02*
X12973563Y-14177436D01*
X12973563Y-14177436D02*
X12964039Y-14167912D01*
D12*
X7948500Y-14519000D02*
X7948500Y-14619000D01*
X7898500Y-14569000D02*
X7998500Y-14569000D01*
D11*
X8364039Y-14660484D02*
X8249753Y-14660484D01*
X8306896Y-14660484D02*
X8306896Y-14460484D01*
X8306896Y-14460484D02*
X8287848Y-14489055D01*
X8287848Y-14489055D02*
X8268801Y-14508103D01*
X8268801Y-14508103D02*
X8249753Y-14517627D01*
X8449753Y-14641436D02*
X8459277Y-14650960D01*
X8459277Y-14650960D02*
X8449753Y-14660484D01*
X8449753Y-14660484D02*
X8440229Y-14650960D01*
X8440229Y-14650960D02*
X8449753Y-14641436D01*
X8449753Y-14641436D02*
X8449753Y-14660484D01*
X8583086Y-14460484D02*
X8602134Y-14460484D01*
X8602134Y-14460484D02*
X8621182Y-14470008D01*
X8621182Y-14470008D02*
X8630705Y-14479531D01*
X8630705Y-14479531D02*
X8640229Y-14498579D01*
X8640229Y-14498579D02*
X8649753Y-14536674D01*
X8649753Y-14536674D02*
X8649753Y-14584293D01*
X8649753Y-14584293D02*
X8640229Y-14622388D01*
X8640229Y-14622388D02*
X8630705Y-14641436D01*
X8630705Y-14641436D02*
X8621182Y-14650960D01*
X8621182Y-14650960D02*
X8602134Y-14660484D01*
X8602134Y-14660484D02*
X8583086Y-14660484D01*
X8583086Y-14660484D02*
X8564039Y-14650960D01*
X8564039Y-14650960D02*
X8554515Y-14641436D01*
X8554515Y-14641436D02*
X8544991Y-14622388D01*
X8544991Y-14622388D02*
X8535467Y-14584293D01*
X8535467Y-14584293D02*
X8535467Y-14536674D01*
X8535467Y-14536674D02*
X8544991Y-14498579D01*
X8544991Y-14498579D02*
X8554515Y-14479531D01*
X8554515Y-14479531D02*
X8564039Y-14470008D01*
X8564039Y-14470008D02*
X8583086Y-14460484D01*
X8773563Y-14460484D02*
X8792610Y-14460484D01*
X8792610Y-14460484D02*
X8811658Y-14470008D01*
X8811658Y-14470008D02*
X8821182Y-14479531D01*
X8821182Y-14479531D02*
X8830705Y-14498579D01*
X8830705Y-14498579D02*
X8840229Y-14536674D01*
X8840229Y-14536674D02*
X8840229Y-14584293D01*
X8840229Y-14584293D02*
X8830705Y-14622388D01*
X8830705Y-14622388D02*
X8821182Y-14641436D01*
X8821182Y-14641436D02*
X8811658Y-14650960D01*
X8811658Y-14650960D02*
X8792610Y-14660484D01*
X8792610Y-14660484D02*
X8773563Y-14660484D01*
X8773563Y-14660484D02*
X8754515Y-14650960D01*
X8754515Y-14650960D02*
X8744991Y-14641436D01*
X8744991Y-14641436D02*
X8735467Y-14622388D01*
X8735467Y-14622388D02*
X8725944Y-14584293D01*
X8725944Y-14584293D02*
X8725944Y-14536674D01*
X8725944Y-14536674D02*
X8735467Y-14498579D01*
X8735467Y-14498579D02*
X8744991Y-14479531D01*
X8744991Y-14479531D02*
X8754515Y-14470008D01*
X8754515Y-14470008D02*
X8773563Y-14460484D01*
X8964039Y-14460484D02*
X8983086Y-14460484D01*
X8983086Y-14460484D02*
X9002134Y-14470008D01*
X9002134Y-14470008D02*
X9011658Y-14479531D01*
X9011658Y-14479531D02*
X9021182Y-14498579D01*
X9021182Y-14498579D02*
X9030705Y-14536674D01*
X9030705Y-14536674D02*
X9030705Y-14584293D01*
X9030705Y-14584293D02*
X9021182Y-14622388D01*
X9021182Y-14622388D02*
X9011658Y-14641436D01*
X9011658Y-14641436D02*
X9002134Y-14650960D01*
X9002134Y-14650960D02*
X8983086Y-14660484D01*
X8983086Y-14660484D02*
X8964039Y-14660484D01*
X8964039Y-14660484D02*
X8944991Y-14650960D01*
X8944991Y-14650960D02*
X8935467Y-14641436D01*
X8935467Y-14641436D02*
X8925944Y-14622388D01*
X8925944Y-14622388D02*
X8916420Y-14584293D01*
X8916420Y-14584293D02*
X8916420Y-14536674D01*
X8916420Y-14536674D02*
X8925944Y-14498579D01*
X8925944Y-14498579D02*
X8935467Y-14479531D01*
X8935467Y-14479531D02*
X8944991Y-14470008D01*
X8944991Y-14470008D02*
X8964039Y-14460484D01*
X9116420Y-14660484D02*
X9116420Y-14527150D01*
X9116420Y-14546198D02*
X9125944Y-14536674D01*
X9125944Y-14536674D02*
X9144991Y-14527150D01*
X9144991Y-14527150D02*
X9173563Y-14527150D01*
X9173563Y-14527150D02*
X9192610Y-14536674D01*
X9192610Y-14536674D02*
X9202134Y-14555722D01*
X9202134Y-14555722D02*
X9202134Y-14660484D01*
X9202134Y-14555722D02*
X9211658Y-14536674D01*
X9211658Y-14536674D02*
X9230705Y-14527150D01*
X9230705Y-14527150D02*
X9259277Y-14527150D01*
X9259277Y-14527150D02*
X9278325Y-14536674D01*
X9278325Y-14536674D02*
X9287848Y-14555722D01*
X9287848Y-14555722D02*
X9287848Y-14660484D01*
X9383086Y-14660484D02*
X9383086Y-14527150D01*
X9383086Y-14546198D02*
X9392610Y-14536674D01*
X9392610Y-14536674D02*
X9411658Y-14527150D01*
X9411658Y-14527150D02*
X9440229Y-14527150D01*
X9440229Y-14527150D02*
X9459277Y-14536674D01*
X9459277Y-14536674D02*
X9468801Y-14555722D01*
X9468801Y-14555722D02*
X9468801Y-14660484D01*
X9468801Y-14555722D02*
X9478325Y-14536674D01*
X9478325Y-14536674D02*
X9497372Y-14527150D01*
X9497372Y-14527150D02*
X9525944Y-14527150D01*
X9525944Y-14527150D02*
X9544991Y-14536674D01*
X9544991Y-14536674D02*
X9554515Y-14555722D01*
X9554515Y-14555722D02*
X9554515Y-14660484D01*
X9944991Y-14450960D02*
X9773563Y-14708103D01*
X10202134Y-14460484D02*
X10221182Y-14460484D01*
X10221182Y-14460484D02*
X10240229Y-14470008D01*
X10240229Y-14470008D02*
X10249753Y-14479531D01*
X10249753Y-14479531D02*
X10259277Y-14498579D01*
X10259277Y-14498579D02*
X10268801Y-14536674D01*
X10268801Y-14536674D02*
X10268801Y-14584293D01*
X10268801Y-14584293D02*
X10259277Y-14622388D01*
X10259277Y-14622388D02*
X10249753Y-14641436D01*
X10249753Y-14641436D02*
X10240229Y-14650960D01*
X10240229Y-14650960D02*
X10221182Y-14660484D01*
X10221182Y-14660484D02*
X10202134Y-14660484D01*
X10202134Y-14660484D02*
X10183087Y-14650960D01*
X10183087Y-14650960D02*
X10173563Y-14641436D01*
X10173563Y-14641436D02*
X10164039Y-14622388D01*
X10164039Y-14622388D02*
X10154515Y-14584293D01*
X10154515Y-14584293D02*
X10154515Y-14536674D01*
X10154515Y-14536674D02*
X10164039Y-14498579D01*
X10164039Y-14498579D02*
X10173563Y-14479531D01*
X10173563Y-14479531D02*
X10183087Y-14470008D01*
X10183087Y-14470008D02*
X10202134Y-14460484D01*
X10354515Y-14641436D02*
X10364039Y-14650960D01*
X10364039Y-14650960D02*
X10354515Y-14660484D01*
X10354515Y-14660484D02*
X10344991Y-14650960D01*
X10344991Y-14650960D02*
X10354515Y-14641436D01*
X10354515Y-14641436D02*
X10354515Y-14660484D01*
X10487848Y-14460484D02*
X10506896Y-14460484D01*
X10506896Y-14460484D02*
X10525944Y-14470008D01*
X10525944Y-14470008D02*
X10535468Y-14479531D01*
X10535468Y-14479531D02*
X10544991Y-14498579D01*
X10544991Y-14498579D02*
X10554515Y-14536674D01*
X10554515Y-14536674D02*
X10554515Y-14584293D01*
X10554515Y-14584293D02*
X10544991Y-14622388D01*
X10544991Y-14622388D02*
X10535468Y-14641436D01*
X10535468Y-14641436D02*
X10525944Y-14650960D01*
X10525944Y-14650960D02*
X10506896Y-14660484D01*
X10506896Y-14660484D02*
X10487848Y-14660484D01*
X10487848Y-14660484D02*
X10468801Y-14650960D01*
X10468801Y-14650960D02*
X10459277Y-14641436D01*
X10459277Y-14641436D02*
X10449753Y-14622388D01*
X10449753Y-14622388D02*
X10440229Y-14584293D01*
X10440229Y-14584293D02*
X10440229Y-14536674D01*
X10440229Y-14536674D02*
X10449753Y-14498579D01*
X10449753Y-14498579D02*
X10459277Y-14479531D01*
X10459277Y-14479531D02*
X10468801Y-14470008D01*
X10468801Y-14470008D02*
X10487848Y-14460484D01*
X10621182Y-14460484D02*
X10744991Y-14460484D01*
X10744991Y-14460484D02*
X10678325Y-14536674D01*
X10678325Y-14536674D02*
X10706896Y-14536674D01*
X10706896Y-14536674D02*
X10725944Y-14546198D01*
X10725944Y-14546198D02*
X10735468Y-14555722D01*
X10735468Y-14555722D02*
X10744991Y-14574769D01*
X10744991Y-14574769D02*
X10744991Y-14622388D01*
X10744991Y-14622388D02*
X10735468Y-14641436D01*
X10735468Y-14641436D02*
X10725944Y-14650960D01*
X10725944Y-14650960D02*
X10706896Y-14660484D01*
X10706896Y-14660484D02*
X10649753Y-14660484D01*
X10649753Y-14660484D02*
X10630706Y-14650960D01*
X10630706Y-14650960D02*
X10621182Y-14641436D01*
X10840229Y-14660484D02*
X10878325Y-14660484D01*
X10878325Y-14660484D02*
X10897372Y-14650960D01*
X10897372Y-14650960D02*
X10906896Y-14641436D01*
X10906896Y-14641436D02*
X10925944Y-14612865D01*
X10925944Y-14612865D02*
X10935468Y-14574769D01*
X10935468Y-14574769D02*
X10935468Y-14498579D01*
X10935468Y-14498579D02*
X10925944Y-14479531D01*
X10925944Y-14479531D02*
X10916420Y-14470008D01*
X10916420Y-14470008D02*
X10897372Y-14460484D01*
X10897372Y-14460484D02*
X10859277Y-14460484D01*
X10859277Y-14460484D02*
X10840229Y-14470008D01*
X10840229Y-14470008D02*
X10830706Y-14479531D01*
X10830706Y-14479531D02*
X10821182Y-14498579D01*
X10821182Y-14498579D02*
X10821182Y-14546198D01*
X10821182Y-14546198D02*
X10830706Y-14565246D01*
X10830706Y-14565246D02*
X10840229Y-14574769D01*
X10840229Y-14574769D02*
X10859277Y-14584293D01*
X10859277Y-14584293D02*
X10897372Y-14584293D01*
X10897372Y-14584293D02*
X10916420Y-14574769D01*
X10916420Y-14574769D02*
X10925944Y-14565246D01*
X10925944Y-14565246D02*
X10935468Y-14546198D01*
X11106896Y-14527150D02*
X11106896Y-14660484D01*
X11059277Y-14450960D02*
X11011658Y-14593817D01*
X11011658Y-14593817D02*
X11135468Y-14593817D01*
X11202134Y-14460484D02*
X11202134Y-14498579D01*
X11278325Y-14460484D02*
X11278325Y-14498579D01*
X11573563Y-14736674D02*
X11564039Y-14727150D01*
X11564039Y-14727150D02*
X11544991Y-14698579D01*
X11544991Y-14698579D02*
X11535468Y-14679531D01*
X11535468Y-14679531D02*
X11525944Y-14650960D01*
X11525944Y-14650960D02*
X11516420Y-14603341D01*
X11516420Y-14603341D02*
X11516420Y-14565246D01*
X11516420Y-14565246D02*
X11525944Y-14517627D01*
X11525944Y-14517627D02*
X11535468Y-14489055D01*
X11535468Y-14489055D02*
X11544991Y-14470008D01*
X11544991Y-14470008D02*
X11564039Y-14441436D01*
X11564039Y-14441436D02*
X11573563Y-14431912D01*
X11630706Y-14460484D02*
X11754515Y-14460484D01*
X11754515Y-14460484D02*
X11687848Y-14536674D01*
X11687848Y-14536674D02*
X11716420Y-14536674D01*
X11716420Y-14536674D02*
X11735468Y-14546198D01*
X11735468Y-14546198D02*
X11744991Y-14555722D01*
X11744991Y-14555722D02*
X11754515Y-14574769D01*
X11754515Y-14574769D02*
X11754515Y-14622388D01*
X11754515Y-14622388D02*
X11744991Y-14641436D01*
X11744991Y-14641436D02*
X11735468Y-14650960D01*
X11735468Y-14650960D02*
X11716420Y-14660484D01*
X11716420Y-14660484D02*
X11659277Y-14660484D01*
X11659277Y-14660484D02*
X11640229Y-14650960D01*
X11640229Y-14650960D02*
X11630706Y-14641436D01*
X11878325Y-14460484D02*
X11897372Y-14460484D01*
X11897372Y-14460484D02*
X11916420Y-14470008D01*
X11916420Y-14470008D02*
X11925944Y-14479531D01*
X11925944Y-14479531D02*
X11935468Y-14498579D01*
X11935468Y-14498579D02*
X11944991Y-14536674D01*
X11944991Y-14536674D02*
X11944991Y-14584293D01*
X11944991Y-14584293D02*
X11935468Y-14622388D01*
X11935468Y-14622388D02*
X11925944Y-14641436D01*
X11925944Y-14641436D02*
X11916420Y-14650960D01*
X11916420Y-14650960D02*
X11897372Y-14660484D01*
X11897372Y-14660484D02*
X11878325Y-14660484D01*
X11878325Y-14660484D02*
X11859277Y-14650960D01*
X11859277Y-14650960D02*
X11849753Y-14641436D01*
X11849753Y-14641436D02*
X11840229Y-14622388D01*
X11840229Y-14622388D02*
X11830706Y-14584293D01*
X11830706Y-14584293D02*
X11830706Y-14536674D01*
X11830706Y-14536674D02*
X11840229Y-14498579D01*
X11840229Y-14498579D02*
X11849753Y-14479531D01*
X11849753Y-14479531D02*
X11859277Y-14470008D01*
X11859277Y-14470008D02*
X11878325Y-14460484D01*
X12183087Y-14660484D02*
X12183087Y-14460484D01*
X12268801Y-14660484D02*
X12268801Y-14555722D01*
X12268801Y-14555722D02*
X12259277Y-14536674D01*
X12259277Y-14536674D02*
X12240230Y-14527150D01*
X12240230Y-14527150D02*
X12211658Y-14527150D01*
X12211658Y-14527150D02*
X12192610Y-14536674D01*
X12192610Y-14536674D02*
X12183087Y-14546198D01*
X12392610Y-14660484D02*
X12373563Y-14650960D01*
X12373563Y-14650960D02*
X12364039Y-14641436D01*
X12364039Y-14641436D02*
X12354515Y-14622388D01*
X12354515Y-14622388D02*
X12354515Y-14565246D01*
X12354515Y-14565246D02*
X12364039Y-14546198D01*
X12364039Y-14546198D02*
X12373563Y-14536674D01*
X12373563Y-14536674D02*
X12392610Y-14527150D01*
X12392610Y-14527150D02*
X12421182Y-14527150D01*
X12421182Y-14527150D02*
X12440230Y-14536674D01*
X12440230Y-14536674D02*
X12449753Y-14546198D01*
X12449753Y-14546198D02*
X12459277Y-14565246D01*
X12459277Y-14565246D02*
X12459277Y-14622388D01*
X12459277Y-14622388D02*
X12449753Y-14641436D01*
X12449753Y-14641436D02*
X12440230Y-14650960D01*
X12440230Y-14650960D02*
X12421182Y-14660484D01*
X12421182Y-14660484D02*
X12392610Y-14660484D01*
X12573563Y-14660484D02*
X12554515Y-14650960D01*
X12554515Y-14650960D02*
X12544991Y-14631912D01*
X12544991Y-14631912D02*
X12544991Y-14460484D01*
X12725944Y-14650960D02*
X12706896Y-14660484D01*
X12706896Y-14660484D02*
X12668801Y-14660484D01*
X12668801Y-14660484D02*
X12649753Y-14650960D01*
X12649753Y-14650960D02*
X12640230Y-14631912D01*
X12640230Y-14631912D02*
X12640230Y-14555722D01*
X12640230Y-14555722D02*
X12649753Y-14536674D01*
X12649753Y-14536674D02*
X12668801Y-14527150D01*
X12668801Y-14527150D02*
X12706896Y-14527150D01*
X12706896Y-14527150D02*
X12725944Y-14536674D01*
X12725944Y-14536674D02*
X12735468Y-14555722D01*
X12735468Y-14555722D02*
X12735468Y-14574769D01*
X12735468Y-14574769D02*
X12640230Y-14593817D01*
X12811658Y-14650960D02*
X12830706Y-14660484D01*
X12830706Y-14660484D02*
X12868801Y-14660484D01*
X12868801Y-14660484D02*
X12887849Y-14650960D01*
X12887849Y-14650960D02*
X12897372Y-14631912D01*
X12897372Y-14631912D02*
X12897372Y-14622388D01*
X12897372Y-14622388D02*
X12887849Y-14603341D01*
X12887849Y-14603341D02*
X12868801Y-14593817D01*
X12868801Y-14593817D02*
X12840230Y-14593817D01*
X12840230Y-14593817D02*
X12821182Y-14584293D01*
X12821182Y-14584293D02*
X12811658Y-14565246D01*
X12811658Y-14565246D02*
X12811658Y-14555722D01*
X12811658Y-14555722D02*
X12821182Y-14536674D01*
X12821182Y-14536674D02*
X12840230Y-14527150D01*
X12840230Y-14527150D02*
X12868801Y-14527150D01*
X12868801Y-14527150D02*
X12887849Y-14536674D01*
X12964039Y-14736674D02*
X12973563Y-14727150D01*
X12973563Y-14727150D02*
X12992611Y-14698579D01*
X12992611Y-14698579D02*
X13002134Y-14679531D01*
X13002134Y-14679531D02*
X13011658Y-14650960D01*
X13011658Y-14650960D02*
X13021182Y-14603341D01*
X13021182Y-14603341D02*
X13021182Y-14565246D01*
X13021182Y-14565246D02*
X13011658Y-14517627D01*
X13011658Y-14517627D02*
X13002134Y-14489055D01*
X13002134Y-14489055D02*
X12992611Y-14470008D01*
X12992611Y-14470008D02*
X12973563Y-14441436D01*
X12973563Y-14441436D02*
X12964039Y-14431912D01*
D13*
X7979462Y-14878962D02*
X7979462Y-14787038D01*
X7887538Y-14787038D01*
X7887538Y-14878962D01*
X7979462Y-14878962D01*
D11*
X8364039Y-14924484D02*
X8249753Y-14924484D01*
X8306896Y-14924484D02*
X8306896Y-14724484D01*
X8306896Y-14724484D02*
X8287848Y-14753055D01*
X8287848Y-14753055D02*
X8268801Y-14772103D01*
X8268801Y-14772103D02*
X8249753Y-14781627D01*
X8449753Y-14905436D02*
X8459277Y-14914960D01*
X8459277Y-14914960D02*
X8449753Y-14924484D01*
X8449753Y-14924484D02*
X8440229Y-14914960D01*
X8440229Y-14914960D02*
X8449753Y-14905436D01*
X8449753Y-14905436D02*
X8449753Y-14924484D01*
X8525944Y-14724484D02*
X8649753Y-14724484D01*
X8649753Y-14724484D02*
X8583086Y-14800674D01*
X8583086Y-14800674D02*
X8611658Y-14800674D01*
X8611658Y-14800674D02*
X8630705Y-14810198D01*
X8630705Y-14810198D02*
X8640229Y-14819722D01*
X8640229Y-14819722D02*
X8649753Y-14838769D01*
X8649753Y-14838769D02*
X8649753Y-14886388D01*
X8649753Y-14886388D02*
X8640229Y-14905436D01*
X8640229Y-14905436D02*
X8630705Y-14914960D01*
X8630705Y-14914960D02*
X8611658Y-14924484D01*
X8611658Y-14924484D02*
X8554515Y-14924484D01*
X8554515Y-14924484D02*
X8535467Y-14914960D01*
X8535467Y-14914960D02*
X8525944Y-14905436D01*
X8773563Y-14724484D02*
X8792610Y-14724484D01*
X8792610Y-14724484D02*
X8811658Y-14734008D01*
X8811658Y-14734008D02*
X8821182Y-14743531D01*
X8821182Y-14743531D02*
X8830705Y-14762579D01*
X8830705Y-14762579D02*
X8840229Y-14800674D01*
X8840229Y-14800674D02*
X8840229Y-14848293D01*
X8840229Y-14848293D02*
X8830705Y-14886388D01*
X8830705Y-14886388D02*
X8821182Y-14905436D01*
X8821182Y-14905436D02*
X8811658Y-14914960D01*
X8811658Y-14914960D02*
X8792610Y-14924484D01*
X8792610Y-14924484D02*
X8773563Y-14924484D01*
X8773563Y-14924484D02*
X8754515Y-14914960D01*
X8754515Y-14914960D02*
X8744991Y-14905436D01*
X8744991Y-14905436D02*
X8735467Y-14886388D01*
X8735467Y-14886388D02*
X8725944Y-14848293D01*
X8725944Y-14848293D02*
X8725944Y-14800674D01*
X8725944Y-14800674D02*
X8735467Y-14762579D01*
X8735467Y-14762579D02*
X8744991Y-14743531D01*
X8744991Y-14743531D02*
X8754515Y-14734008D01*
X8754515Y-14734008D02*
X8773563Y-14724484D01*
X8964039Y-14724484D02*
X8983086Y-14724484D01*
X8983086Y-14724484D02*
X9002134Y-14734008D01*
X9002134Y-14734008D02*
X9011658Y-14743531D01*
X9011658Y-14743531D02*
X9021182Y-14762579D01*
X9021182Y-14762579D02*
X9030705Y-14800674D01*
X9030705Y-14800674D02*
X9030705Y-14848293D01*
X9030705Y-14848293D02*
X9021182Y-14886388D01*
X9021182Y-14886388D02*
X9011658Y-14905436D01*
X9011658Y-14905436D02*
X9002134Y-14914960D01*
X9002134Y-14914960D02*
X8983086Y-14924484D01*
X8983086Y-14924484D02*
X8964039Y-14924484D01*
X8964039Y-14924484D02*
X8944991Y-14914960D01*
X8944991Y-14914960D02*
X8935467Y-14905436D01*
X8935467Y-14905436D02*
X8925944Y-14886388D01*
X8925944Y-14886388D02*
X8916420Y-14848293D01*
X8916420Y-14848293D02*
X8916420Y-14800674D01*
X8916420Y-14800674D02*
X8925944Y-14762579D01*
X8925944Y-14762579D02*
X8935467Y-14743531D01*
X8935467Y-14743531D02*
X8944991Y-14734008D01*
X8944991Y-14734008D02*
X8964039Y-14724484D01*
X9116420Y-14924484D02*
X9116420Y-14791150D01*
X9116420Y-14810198D02*
X9125944Y-14800674D01*
X9125944Y-14800674D02*
X9144991Y-14791150D01*
X9144991Y-14791150D02*
X9173563Y-14791150D01*
X9173563Y-14791150D02*
X9192610Y-14800674D01*
X9192610Y-14800674D02*
X9202134Y-14819722D01*
X9202134Y-14819722D02*
X9202134Y-14924484D01*
X9202134Y-14819722D02*
X9211658Y-14800674D01*
X9211658Y-14800674D02*
X9230705Y-14791150D01*
X9230705Y-14791150D02*
X9259277Y-14791150D01*
X9259277Y-14791150D02*
X9278325Y-14800674D01*
X9278325Y-14800674D02*
X9287848Y-14819722D01*
X9287848Y-14819722D02*
X9287848Y-14924484D01*
X9383086Y-14924484D02*
X9383086Y-14791150D01*
X9383086Y-14810198D02*
X9392610Y-14800674D01*
X9392610Y-14800674D02*
X9411658Y-14791150D01*
X9411658Y-14791150D02*
X9440229Y-14791150D01*
X9440229Y-14791150D02*
X9459277Y-14800674D01*
X9459277Y-14800674D02*
X9468801Y-14819722D01*
X9468801Y-14819722D02*
X9468801Y-14924484D01*
X9468801Y-14819722D02*
X9478325Y-14800674D01*
X9478325Y-14800674D02*
X9497372Y-14791150D01*
X9497372Y-14791150D02*
X9525944Y-14791150D01*
X9525944Y-14791150D02*
X9544991Y-14800674D01*
X9544991Y-14800674D02*
X9554515Y-14819722D01*
X9554515Y-14819722D02*
X9554515Y-14924484D01*
X9944991Y-14714960D02*
X9773563Y-14972103D01*
X10202134Y-14724484D02*
X10221182Y-14724484D01*
X10221182Y-14724484D02*
X10240229Y-14734008D01*
X10240229Y-14734008D02*
X10249753Y-14743531D01*
X10249753Y-14743531D02*
X10259277Y-14762579D01*
X10259277Y-14762579D02*
X10268801Y-14800674D01*
X10268801Y-14800674D02*
X10268801Y-14848293D01*
X10268801Y-14848293D02*
X10259277Y-14886388D01*
X10259277Y-14886388D02*
X10249753Y-14905436D01*
X10249753Y-14905436D02*
X10240229Y-14914960D01*
X10240229Y-14914960D02*
X10221182Y-14924484D01*
X10221182Y-14924484D02*
X10202134Y-14924484D01*
X10202134Y-14924484D02*
X10183087Y-14914960D01*
X10183087Y-14914960D02*
X10173563Y-14905436D01*
X10173563Y-14905436D02*
X10164039Y-14886388D01*
X10164039Y-14886388D02*
X10154515Y-14848293D01*
X10154515Y-14848293D02*
X10154515Y-14800674D01*
X10154515Y-14800674D02*
X10164039Y-14762579D01*
X10164039Y-14762579D02*
X10173563Y-14743531D01*
X10173563Y-14743531D02*
X10183087Y-14734008D01*
X10183087Y-14734008D02*
X10202134Y-14724484D01*
X10354515Y-14905436D02*
X10364039Y-14914960D01*
X10364039Y-14914960D02*
X10354515Y-14924484D01*
X10354515Y-14924484D02*
X10344991Y-14914960D01*
X10344991Y-14914960D02*
X10354515Y-14905436D01*
X10354515Y-14905436D02*
X10354515Y-14924484D01*
X10487848Y-14724484D02*
X10506896Y-14724484D01*
X10506896Y-14724484D02*
X10525944Y-14734008D01*
X10525944Y-14734008D02*
X10535468Y-14743531D01*
X10535468Y-14743531D02*
X10544991Y-14762579D01*
X10544991Y-14762579D02*
X10554515Y-14800674D01*
X10554515Y-14800674D02*
X10554515Y-14848293D01*
X10554515Y-14848293D02*
X10544991Y-14886388D01*
X10544991Y-14886388D02*
X10535468Y-14905436D01*
X10535468Y-14905436D02*
X10525944Y-14914960D01*
X10525944Y-14914960D02*
X10506896Y-14924484D01*
X10506896Y-14924484D02*
X10487848Y-14924484D01*
X10487848Y-14924484D02*
X10468801Y-14914960D01*
X10468801Y-14914960D02*
X10459277Y-14905436D01*
X10459277Y-14905436D02*
X10449753Y-14886388D01*
X10449753Y-14886388D02*
X10440229Y-14848293D01*
X10440229Y-14848293D02*
X10440229Y-14800674D01*
X10440229Y-14800674D02*
X10449753Y-14762579D01*
X10449753Y-14762579D02*
X10459277Y-14743531D01*
X10459277Y-14743531D02*
X10468801Y-14734008D01*
X10468801Y-14734008D02*
X10487848Y-14724484D01*
X10735468Y-14724484D02*
X10640229Y-14724484D01*
X10640229Y-14724484D02*
X10630706Y-14819722D01*
X10630706Y-14819722D02*
X10640229Y-14810198D01*
X10640229Y-14810198D02*
X10659277Y-14800674D01*
X10659277Y-14800674D02*
X10706896Y-14800674D01*
X10706896Y-14800674D02*
X10725944Y-14810198D01*
X10725944Y-14810198D02*
X10735468Y-14819722D01*
X10735468Y-14819722D02*
X10744991Y-14838769D01*
X10744991Y-14838769D02*
X10744991Y-14886388D01*
X10744991Y-14886388D02*
X10735468Y-14905436D01*
X10735468Y-14905436D02*
X10725944Y-14914960D01*
X10725944Y-14914960D02*
X10706896Y-14924484D01*
X10706896Y-14924484D02*
X10659277Y-14924484D01*
X10659277Y-14924484D02*
X10640229Y-14914960D01*
X10640229Y-14914960D02*
X10630706Y-14905436D01*
X10935468Y-14924484D02*
X10821182Y-14924484D01*
X10878325Y-14924484D02*
X10878325Y-14724484D01*
X10878325Y-14724484D02*
X10859277Y-14753055D01*
X10859277Y-14753055D02*
X10840229Y-14772103D01*
X10840229Y-14772103D02*
X10821182Y-14781627D01*
X11011658Y-14743531D02*
X11021182Y-14734008D01*
X11021182Y-14734008D02*
X11040229Y-14724484D01*
X11040229Y-14724484D02*
X11087849Y-14724484D01*
X11087849Y-14724484D02*
X11106896Y-14734008D01*
X11106896Y-14734008D02*
X11116420Y-14743531D01*
X11116420Y-14743531D02*
X11125944Y-14762579D01*
X11125944Y-14762579D02*
X11125944Y-14781627D01*
X11125944Y-14781627D02*
X11116420Y-14810198D01*
X11116420Y-14810198D02*
X11002134Y-14924484D01*
X11002134Y-14924484D02*
X11125944Y-14924484D01*
X11202134Y-14724484D02*
X11202134Y-14762579D01*
X11278325Y-14724484D02*
X11278325Y-14762579D01*
X11573563Y-15000674D02*
X11564039Y-14991150D01*
X11564039Y-14991150D02*
X11544991Y-14962579D01*
X11544991Y-14962579D02*
X11535468Y-14943531D01*
X11535468Y-14943531D02*
X11525944Y-14914960D01*
X11525944Y-14914960D02*
X11516420Y-14867341D01*
X11516420Y-14867341D02*
X11516420Y-14829246D01*
X11516420Y-14829246D02*
X11525944Y-14781627D01*
X11525944Y-14781627D02*
X11535468Y-14753055D01*
X11535468Y-14753055D02*
X11544991Y-14734008D01*
X11544991Y-14734008D02*
X11564039Y-14705436D01*
X11564039Y-14705436D02*
X11573563Y-14695912D01*
X11754515Y-14924484D02*
X11640229Y-14924484D01*
X11697372Y-14924484D02*
X11697372Y-14724484D01*
X11697372Y-14724484D02*
X11678325Y-14753055D01*
X11678325Y-14753055D02*
X11659277Y-14772103D01*
X11659277Y-14772103D02*
X11640229Y-14781627D01*
X11830706Y-14743531D02*
X11840229Y-14734008D01*
X11840229Y-14734008D02*
X11859277Y-14724484D01*
X11859277Y-14724484D02*
X11906896Y-14724484D01*
X11906896Y-14724484D02*
X11925944Y-14734008D01*
X11925944Y-14734008D02*
X11935468Y-14743531D01*
X11935468Y-14743531D02*
X11944991Y-14762579D01*
X11944991Y-14762579D02*
X11944991Y-14781627D01*
X11944991Y-14781627D02*
X11935468Y-14810198D01*
X11935468Y-14810198D02*
X11821182Y-14924484D01*
X11821182Y-14924484D02*
X11944991Y-14924484D01*
X12183087Y-14924484D02*
X12183087Y-14724484D01*
X12268801Y-14924484D02*
X12268801Y-14819722D01*
X12268801Y-14819722D02*
X12259277Y-14800674D01*
X12259277Y-14800674D02*
X12240230Y-14791150D01*
X12240230Y-14791150D02*
X12211658Y-14791150D01*
X12211658Y-14791150D02*
X12192610Y-14800674D01*
X12192610Y-14800674D02*
X12183087Y-14810198D01*
X12392610Y-14924484D02*
X12373563Y-14914960D01*
X12373563Y-14914960D02*
X12364039Y-14905436D01*
X12364039Y-14905436D02*
X12354515Y-14886388D01*
X12354515Y-14886388D02*
X12354515Y-14829246D01*
X12354515Y-14829246D02*
X12364039Y-14810198D01*
X12364039Y-14810198D02*
X12373563Y-14800674D01*
X12373563Y-14800674D02*
X12392610Y-14791150D01*
X12392610Y-14791150D02*
X12421182Y-14791150D01*
X12421182Y-14791150D02*
X12440230Y-14800674D01*
X12440230Y-14800674D02*
X12449753Y-14810198D01*
X12449753Y-14810198D02*
X12459277Y-14829246D01*
X12459277Y-14829246D02*
X12459277Y-14886388D01*
X12459277Y-14886388D02*
X12449753Y-14905436D01*
X12449753Y-14905436D02*
X12440230Y-14914960D01*
X12440230Y-14914960D02*
X12421182Y-14924484D01*
X12421182Y-14924484D02*
X12392610Y-14924484D01*
X12573563Y-14924484D02*
X12554515Y-14914960D01*
X12554515Y-14914960D02*
X12544991Y-14895912D01*
X12544991Y-14895912D02*
X12544991Y-14724484D01*
X12725944Y-14914960D02*
X12706896Y-14924484D01*
X12706896Y-14924484D02*
X12668801Y-14924484D01*
X12668801Y-14924484D02*
X12649753Y-14914960D01*
X12649753Y-14914960D02*
X12640230Y-14895912D01*
X12640230Y-14895912D02*
X12640230Y-14819722D01*
X12640230Y-14819722D02*
X12649753Y-14800674D01*
X12649753Y-14800674D02*
X12668801Y-14791150D01*
X12668801Y-14791150D02*
X12706896Y-14791150D01*
X12706896Y-14791150D02*
X12725944Y-14800674D01*
X12725944Y-14800674D02*
X12735468Y-14819722D01*
X12735468Y-14819722D02*
X12735468Y-14838769D01*
X12735468Y-14838769D02*
X12640230Y-14857817D01*
X12811658Y-14914960D02*
X12830706Y-14924484D01*
X12830706Y-14924484D02*
X12868801Y-14924484D01*
X12868801Y-14924484D02*
X12887849Y-14914960D01*
X12887849Y-14914960D02*
X12897372Y-14895912D01*
X12897372Y-14895912D02*
X12897372Y-14886388D01*
X12897372Y-14886388D02*
X12887849Y-14867341D01*
X12887849Y-14867341D02*
X12868801Y-14857817D01*
X12868801Y-14857817D02*
X12840230Y-14857817D01*
X12840230Y-14857817D02*
X12821182Y-14848293D01*
X12821182Y-14848293D02*
X12811658Y-14829246D01*
X12811658Y-14829246D02*
X12811658Y-14819722D01*
X12811658Y-14819722D02*
X12821182Y-14800674D01*
X12821182Y-14800674D02*
X12840230Y-14791150D01*
X12840230Y-14791150D02*
X12868801Y-14791150D01*
X12868801Y-14791150D02*
X12887849Y-14800674D01*
X12964039Y-15000674D02*
X12973563Y-14991150D01*
X12973563Y-14991150D02*
X12992611Y-14962579D01*
X12992611Y-14962579D02*
X13002134Y-14943531D01*
X13002134Y-14943531D02*
X13011658Y-14914960D01*
X13011658Y-14914960D02*
X13021182Y-14867341D01*
X13021182Y-14867341D02*
X13021182Y-14829246D01*
X13021182Y-14829246D02*
X13011658Y-14781627D01*
X13011658Y-14781627D02*
X13002134Y-14753055D01*
X13002134Y-14753055D02*
X12992611Y-14734008D01*
X12992611Y-14734008D02*
X12973563Y-14705436D01*
X12973563Y-14705436D02*
X12964039Y-14695912D01*
X7898500Y-15197000D02*
X7998500Y-15097000D01*
X7898500Y-14997000D01*
X7798500Y-15097000D01*
X7898500Y-15197000D01*
X8249753Y-15007531D02*
X8259277Y-14998008D01*
X8259277Y-14998008D02*
X8278324Y-14988484D01*
X8278324Y-14988484D02*
X8325943Y-14988484D01*
X8325943Y-14988484D02*
X8344991Y-14998008D01*
X8344991Y-14998008D02*
X8354515Y-15007531D01*
X8354515Y-15007531D02*
X8364039Y-15026579D01*
X8364039Y-15026579D02*
X8364039Y-15045627D01*
X8364039Y-15045627D02*
X8354515Y-15074198D01*
X8354515Y-15074198D02*
X8240229Y-15188484D01*
X8240229Y-15188484D02*
X8364039Y-15188484D01*
X8449753Y-15169436D02*
X8459277Y-15178960D01*
X8459277Y-15178960D02*
X8449753Y-15188484D01*
X8449753Y-15188484D02*
X8440229Y-15178960D01*
X8440229Y-15178960D02*
X8449753Y-15169436D01*
X8449753Y-15169436D02*
X8449753Y-15188484D01*
X8649753Y-15188484D02*
X8535467Y-15188484D01*
X8592610Y-15188484D02*
X8592610Y-14988484D01*
X8592610Y-14988484D02*
X8573563Y-15017055D01*
X8573563Y-15017055D02*
X8554515Y-15036103D01*
X8554515Y-15036103D02*
X8535467Y-15045627D01*
X8773563Y-14988484D02*
X8792610Y-14988484D01*
X8792610Y-14988484D02*
X8811658Y-14998008D01*
X8811658Y-14998008D02*
X8821182Y-15007531D01*
X8821182Y-15007531D02*
X8830705Y-15026579D01*
X8830705Y-15026579D02*
X8840229Y-15064674D01*
X8840229Y-15064674D02*
X8840229Y-15112293D01*
X8840229Y-15112293D02*
X8830705Y-15150388D01*
X8830705Y-15150388D02*
X8821182Y-15169436D01*
X8821182Y-15169436D02*
X8811658Y-15178960D01*
X8811658Y-15178960D02*
X8792610Y-15188484D01*
X8792610Y-15188484D02*
X8773563Y-15188484D01*
X8773563Y-15188484D02*
X8754515Y-15178960D01*
X8754515Y-15178960D02*
X8744991Y-15169436D01*
X8744991Y-15169436D02*
X8735467Y-15150388D01*
X8735467Y-15150388D02*
X8725944Y-15112293D01*
X8725944Y-15112293D02*
X8725944Y-15064674D01*
X8725944Y-15064674D02*
X8735467Y-15026579D01*
X8735467Y-15026579D02*
X8744991Y-15007531D01*
X8744991Y-15007531D02*
X8754515Y-14998008D01*
X8754515Y-14998008D02*
X8773563Y-14988484D01*
X8964039Y-14988484D02*
X8983086Y-14988484D01*
X8983086Y-14988484D02*
X9002134Y-14998008D01*
X9002134Y-14998008D02*
X9011658Y-15007531D01*
X9011658Y-15007531D02*
X9021182Y-15026579D01*
X9021182Y-15026579D02*
X9030705Y-15064674D01*
X9030705Y-15064674D02*
X9030705Y-15112293D01*
X9030705Y-15112293D02*
X9021182Y-15150388D01*
X9021182Y-15150388D02*
X9011658Y-15169436D01*
X9011658Y-15169436D02*
X9002134Y-15178960D01*
X9002134Y-15178960D02*
X8983086Y-15188484D01*
X8983086Y-15188484D02*
X8964039Y-15188484D01*
X8964039Y-15188484D02*
X8944991Y-15178960D01*
X8944991Y-15178960D02*
X8935467Y-15169436D01*
X8935467Y-15169436D02*
X8925944Y-15150388D01*
X8925944Y-15150388D02*
X8916420Y-15112293D01*
X8916420Y-15112293D02*
X8916420Y-15064674D01*
X8916420Y-15064674D02*
X8925944Y-15026579D01*
X8925944Y-15026579D02*
X8935467Y-15007531D01*
X8935467Y-15007531D02*
X8944991Y-14998008D01*
X8944991Y-14998008D02*
X8964039Y-14988484D01*
X9116420Y-15188484D02*
X9116420Y-15055150D01*
X9116420Y-15074198D02*
X9125944Y-15064674D01*
X9125944Y-15064674D02*
X9144991Y-15055150D01*
X9144991Y-15055150D02*
X9173563Y-15055150D01*
X9173563Y-15055150D02*
X9192610Y-15064674D01*
X9192610Y-15064674D02*
X9202134Y-15083722D01*
X9202134Y-15083722D02*
X9202134Y-15188484D01*
X9202134Y-15083722D02*
X9211658Y-15064674D01*
X9211658Y-15064674D02*
X9230705Y-15055150D01*
X9230705Y-15055150D02*
X9259277Y-15055150D01*
X9259277Y-15055150D02*
X9278325Y-15064674D01*
X9278325Y-15064674D02*
X9287848Y-15083722D01*
X9287848Y-15083722D02*
X9287848Y-15188484D01*
X9383086Y-15188484D02*
X9383086Y-15055150D01*
X9383086Y-15074198D02*
X9392610Y-15064674D01*
X9392610Y-15064674D02*
X9411658Y-15055150D01*
X9411658Y-15055150D02*
X9440229Y-15055150D01*
X9440229Y-15055150D02*
X9459277Y-15064674D01*
X9459277Y-15064674D02*
X9468801Y-15083722D01*
X9468801Y-15083722D02*
X9468801Y-15188484D01*
X9468801Y-15083722D02*
X9478325Y-15064674D01*
X9478325Y-15064674D02*
X9497372Y-15055150D01*
X9497372Y-15055150D02*
X9525944Y-15055150D01*
X9525944Y-15055150D02*
X9544991Y-15064674D01*
X9544991Y-15064674D02*
X9554515Y-15083722D01*
X9554515Y-15083722D02*
X9554515Y-15188484D01*
X9944991Y-14978960D02*
X9773563Y-15236103D01*
X10202134Y-14988484D02*
X10221182Y-14988484D01*
X10221182Y-14988484D02*
X10240229Y-14998008D01*
X10240229Y-14998008D02*
X10249753Y-15007531D01*
X10249753Y-15007531D02*
X10259277Y-15026579D01*
X10259277Y-15026579D02*
X10268801Y-15064674D01*
X10268801Y-15064674D02*
X10268801Y-15112293D01*
X10268801Y-15112293D02*
X10259277Y-15150388D01*
X10259277Y-15150388D02*
X10249753Y-15169436D01*
X10249753Y-15169436D02*
X10240229Y-15178960D01*
X10240229Y-15178960D02*
X10221182Y-15188484D01*
X10221182Y-15188484D02*
X10202134Y-15188484D01*
X10202134Y-15188484D02*
X10183087Y-15178960D01*
X10183087Y-15178960D02*
X10173563Y-15169436D01*
X10173563Y-15169436D02*
X10164039Y-15150388D01*
X10164039Y-15150388D02*
X10154515Y-15112293D01*
X10154515Y-15112293D02*
X10154515Y-15064674D01*
X10154515Y-15064674D02*
X10164039Y-15026579D01*
X10164039Y-15026579D02*
X10173563Y-15007531D01*
X10173563Y-15007531D02*
X10183087Y-14998008D01*
X10183087Y-14998008D02*
X10202134Y-14988484D01*
X10354515Y-15169436D02*
X10364039Y-15178960D01*
X10364039Y-15178960D02*
X10354515Y-15188484D01*
X10354515Y-15188484D02*
X10344991Y-15178960D01*
X10344991Y-15178960D02*
X10354515Y-15169436D01*
X10354515Y-15169436D02*
X10354515Y-15188484D01*
X10487848Y-14988484D02*
X10506896Y-14988484D01*
X10506896Y-14988484D02*
X10525944Y-14998008D01*
X10525944Y-14998008D02*
X10535468Y-15007531D01*
X10535468Y-15007531D02*
X10544991Y-15026579D01*
X10544991Y-15026579D02*
X10554515Y-15064674D01*
X10554515Y-15064674D02*
X10554515Y-15112293D01*
X10554515Y-15112293D02*
X10544991Y-15150388D01*
X10544991Y-15150388D02*
X10535468Y-15169436D01*
X10535468Y-15169436D02*
X10525944Y-15178960D01*
X10525944Y-15178960D02*
X10506896Y-15188484D01*
X10506896Y-15188484D02*
X10487848Y-15188484D01*
X10487848Y-15188484D02*
X10468801Y-15178960D01*
X10468801Y-15178960D02*
X10459277Y-15169436D01*
X10459277Y-15169436D02*
X10449753Y-15150388D01*
X10449753Y-15150388D02*
X10440229Y-15112293D01*
X10440229Y-15112293D02*
X10440229Y-15064674D01*
X10440229Y-15064674D02*
X10449753Y-15026579D01*
X10449753Y-15026579D02*
X10459277Y-15007531D01*
X10459277Y-15007531D02*
X10468801Y-14998008D01*
X10468801Y-14998008D02*
X10487848Y-14988484D01*
X10668801Y-15074198D02*
X10649753Y-15064674D01*
X10649753Y-15064674D02*
X10640229Y-15055150D01*
X10640229Y-15055150D02*
X10630706Y-15036103D01*
X10630706Y-15036103D02*
X10630706Y-15026579D01*
X10630706Y-15026579D02*
X10640229Y-15007531D01*
X10640229Y-15007531D02*
X10649753Y-14998008D01*
X10649753Y-14998008D02*
X10668801Y-14988484D01*
X10668801Y-14988484D02*
X10706896Y-14988484D01*
X10706896Y-14988484D02*
X10725944Y-14998008D01*
X10725944Y-14998008D02*
X10735468Y-15007531D01*
X10735468Y-15007531D02*
X10744991Y-15026579D01*
X10744991Y-15026579D02*
X10744991Y-15036103D01*
X10744991Y-15036103D02*
X10735468Y-15055150D01*
X10735468Y-15055150D02*
X10725944Y-15064674D01*
X10725944Y-15064674D02*
X10706896Y-15074198D01*
X10706896Y-15074198D02*
X10668801Y-15074198D01*
X10668801Y-15074198D02*
X10649753Y-15083722D01*
X10649753Y-15083722D02*
X10640229Y-15093246D01*
X10640229Y-15093246D02*
X10630706Y-15112293D01*
X10630706Y-15112293D02*
X10630706Y-15150388D01*
X10630706Y-15150388D02*
X10640229Y-15169436D01*
X10640229Y-15169436D02*
X10649753Y-15178960D01*
X10649753Y-15178960D02*
X10668801Y-15188484D01*
X10668801Y-15188484D02*
X10706896Y-15188484D01*
X10706896Y-15188484D02*
X10725944Y-15178960D01*
X10725944Y-15178960D02*
X10735468Y-15169436D01*
X10735468Y-15169436D02*
X10744991Y-15150388D01*
X10744991Y-15150388D02*
X10744991Y-15112293D01*
X10744991Y-15112293D02*
X10735468Y-15093246D01*
X10735468Y-15093246D02*
X10725944Y-15083722D01*
X10725944Y-15083722D02*
X10706896Y-15074198D01*
X10821182Y-15007531D02*
X10830706Y-14998008D01*
X10830706Y-14998008D02*
X10849753Y-14988484D01*
X10849753Y-14988484D02*
X10897372Y-14988484D01*
X10897372Y-14988484D02*
X10916420Y-14998008D01*
X10916420Y-14998008D02*
X10925944Y-15007531D01*
X10925944Y-15007531D02*
X10935468Y-15026579D01*
X10935468Y-15026579D02*
X10935468Y-15045627D01*
X10935468Y-15045627D02*
X10925944Y-15074198D01*
X10925944Y-15074198D02*
X10811658Y-15188484D01*
X10811658Y-15188484D02*
X10935468Y-15188484D01*
X11002134Y-14988484D02*
X11135468Y-14988484D01*
X11135468Y-14988484D02*
X11049753Y-15188484D01*
X11202134Y-14988484D02*
X11202134Y-15026579D01*
X11278325Y-14988484D02*
X11278325Y-15026579D01*
X11573563Y-15264674D02*
X11564039Y-15255150D01*
X11564039Y-15255150D02*
X11544991Y-15226579D01*
X11544991Y-15226579D02*
X11535468Y-15207531D01*
X11535468Y-15207531D02*
X11525944Y-15178960D01*
X11525944Y-15178960D02*
X11516420Y-15131341D01*
X11516420Y-15131341D02*
X11516420Y-15093246D01*
X11516420Y-15093246D02*
X11525944Y-15045627D01*
X11525944Y-15045627D02*
X11535468Y-15017055D01*
X11535468Y-15017055D02*
X11544991Y-14998008D01*
X11544991Y-14998008D02*
X11564039Y-14969436D01*
X11564039Y-14969436D02*
X11573563Y-14959912D01*
X11687848Y-14988484D02*
X11706896Y-14988484D01*
X11706896Y-14988484D02*
X11725944Y-14998008D01*
X11725944Y-14998008D02*
X11735468Y-15007531D01*
X11735468Y-15007531D02*
X11744991Y-15026579D01*
X11744991Y-15026579D02*
X11754515Y-15064674D01*
X11754515Y-15064674D02*
X11754515Y-15112293D01*
X11754515Y-15112293D02*
X11744991Y-15150388D01*
X11744991Y-15150388D02*
X11735468Y-15169436D01*
X11735468Y-15169436D02*
X11725944Y-15178960D01*
X11725944Y-15178960D02*
X11706896Y-15188484D01*
X11706896Y-15188484D02*
X11687848Y-15188484D01*
X11687848Y-15188484D02*
X11668801Y-15178960D01*
X11668801Y-15178960D02*
X11659277Y-15169436D01*
X11659277Y-15169436D02*
X11649753Y-15150388D01*
X11649753Y-15150388D02*
X11640229Y-15112293D01*
X11640229Y-15112293D02*
X11640229Y-15064674D01*
X11640229Y-15064674D02*
X11649753Y-15026579D01*
X11649753Y-15026579D02*
X11659277Y-15007531D01*
X11659277Y-15007531D02*
X11668801Y-14998008D01*
X11668801Y-14998008D02*
X11687848Y-14988484D01*
X11992610Y-15188484D02*
X11992610Y-14988484D01*
X12078325Y-15188484D02*
X12078325Y-15083722D01*
X12078325Y-15083722D02*
X12068801Y-15064674D01*
X12068801Y-15064674D02*
X12049753Y-15055150D01*
X12049753Y-15055150D02*
X12021182Y-15055150D01*
X12021182Y-15055150D02*
X12002134Y-15064674D01*
X12002134Y-15064674D02*
X11992610Y-15074198D01*
X12202134Y-15188484D02*
X12183087Y-15178960D01*
X12183087Y-15178960D02*
X12173563Y-15169436D01*
X12173563Y-15169436D02*
X12164039Y-15150388D01*
X12164039Y-15150388D02*
X12164039Y-15093246D01*
X12164039Y-15093246D02*
X12173563Y-15074198D01*
X12173563Y-15074198D02*
X12183087Y-15064674D01*
X12183087Y-15064674D02*
X12202134Y-15055150D01*
X12202134Y-15055150D02*
X12230706Y-15055150D01*
X12230706Y-15055150D02*
X12249753Y-15064674D01*
X12249753Y-15064674D02*
X12259277Y-15074198D01*
X12259277Y-15074198D02*
X12268801Y-15093246D01*
X12268801Y-15093246D02*
X12268801Y-15150388D01*
X12268801Y-15150388D02*
X12259277Y-15169436D01*
X12259277Y-15169436D02*
X12249753Y-15178960D01*
X12249753Y-15178960D02*
X12230706Y-15188484D01*
X12230706Y-15188484D02*
X12202134Y-15188484D01*
X12383087Y-15188484D02*
X12364039Y-15178960D01*
X12364039Y-15178960D02*
X12354515Y-15159912D01*
X12354515Y-15159912D02*
X12354515Y-14988484D01*
X12535468Y-15178960D02*
X12516420Y-15188484D01*
X12516420Y-15188484D02*
X12478325Y-15188484D01*
X12478325Y-15188484D02*
X12459277Y-15178960D01*
X12459277Y-15178960D02*
X12449753Y-15159912D01*
X12449753Y-15159912D02*
X12449753Y-15083722D01*
X12449753Y-15083722D02*
X12459277Y-15064674D01*
X12459277Y-15064674D02*
X12478325Y-15055150D01*
X12478325Y-15055150D02*
X12516420Y-15055150D01*
X12516420Y-15055150D02*
X12535468Y-15064674D01*
X12535468Y-15064674D02*
X12544991Y-15083722D01*
X12544991Y-15083722D02*
X12544991Y-15102769D01*
X12544991Y-15102769D02*
X12449753Y-15121817D01*
X12621182Y-15178960D02*
X12640230Y-15188484D01*
X12640230Y-15188484D02*
X12678325Y-15188484D01*
X12678325Y-15188484D02*
X12697372Y-15178960D01*
X12697372Y-15178960D02*
X12706896Y-15159912D01*
X12706896Y-15159912D02*
X12706896Y-15150388D01*
X12706896Y-15150388D02*
X12697372Y-15131341D01*
X12697372Y-15131341D02*
X12678325Y-15121817D01*
X12678325Y-15121817D02*
X12649753Y-15121817D01*
X12649753Y-15121817D02*
X12630706Y-15112293D01*
X12630706Y-15112293D02*
X12621182Y-15093246D01*
X12621182Y-15093246D02*
X12621182Y-15083722D01*
X12621182Y-15083722D02*
X12630706Y-15064674D01*
X12630706Y-15064674D02*
X12649753Y-15055150D01*
X12649753Y-15055150D02*
X12678325Y-15055150D01*
X12678325Y-15055150D02*
X12697372Y-15064674D01*
X12944992Y-15112293D02*
X13097373Y-15112293D01*
X13021182Y-15188484D02*
X13021182Y-15036103D01*
X13373563Y-15074198D02*
X13354515Y-15064674D01*
X13354515Y-15064674D02*
X13344992Y-15055150D01*
X13344992Y-15055150D02*
X13335468Y-15036103D01*
X13335468Y-15036103D02*
X13335468Y-15026579D01*
X13335468Y-15026579D02*
X13344992Y-15007531D01*
X13344992Y-15007531D02*
X13354515Y-14998008D01*
X13354515Y-14998008D02*
X13373563Y-14988484D01*
X13373563Y-14988484D02*
X13411658Y-14988484D01*
X13411658Y-14988484D02*
X13430706Y-14998008D01*
X13430706Y-14998008D02*
X13440230Y-15007531D01*
X13440230Y-15007531D02*
X13449753Y-15026579D01*
X13449753Y-15026579D02*
X13449753Y-15036103D01*
X13449753Y-15036103D02*
X13440230Y-15055150D01*
X13440230Y-15055150D02*
X13430706Y-15064674D01*
X13430706Y-15064674D02*
X13411658Y-15074198D01*
X13411658Y-15074198D02*
X13373563Y-15074198D01*
X13373563Y-15074198D02*
X13354515Y-15083722D01*
X13354515Y-15083722D02*
X13344992Y-15093246D01*
X13344992Y-15093246D02*
X13335468Y-15112293D01*
X13335468Y-15112293D02*
X13335468Y-15150388D01*
X13335468Y-15150388D02*
X13344992Y-15169436D01*
X13344992Y-15169436D02*
X13354515Y-15178960D01*
X13354515Y-15178960D02*
X13373563Y-15188484D01*
X13373563Y-15188484D02*
X13411658Y-15188484D01*
X13411658Y-15188484D02*
X13430706Y-15178960D01*
X13430706Y-15178960D02*
X13440230Y-15169436D01*
X13440230Y-15169436D02*
X13449753Y-15150388D01*
X13449753Y-15150388D02*
X13449753Y-15112293D01*
X13449753Y-15112293D02*
X13440230Y-15093246D01*
X13440230Y-15093246D02*
X13430706Y-15083722D01*
X13430706Y-15083722D02*
X13411658Y-15074198D01*
X13678325Y-15178960D02*
X13697373Y-15188484D01*
X13697373Y-15188484D02*
X13735468Y-15188484D01*
X13735468Y-15188484D02*
X13754515Y-15178960D01*
X13754515Y-15178960D02*
X13764039Y-15159912D01*
X13764039Y-15159912D02*
X13764039Y-15150388D01*
X13764039Y-15150388D02*
X13754515Y-15131341D01*
X13754515Y-15131341D02*
X13735468Y-15121817D01*
X13735468Y-15121817D02*
X13706896Y-15121817D01*
X13706896Y-15121817D02*
X13687849Y-15112293D01*
X13687849Y-15112293D02*
X13678325Y-15093246D01*
X13678325Y-15093246D02*
X13678325Y-15083722D01*
X13678325Y-15083722D02*
X13687849Y-15064674D01*
X13687849Y-15064674D02*
X13706896Y-15055150D01*
X13706896Y-15055150D02*
X13735468Y-15055150D01*
X13735468Y-15055150D02*
X13754515Y-15064674D01*
X13878325Y-15188484D02*
X13859277Y-15178960D01*
X13859277Y-15178960D02*
X13849754Y-15159912D01*
X13849754Y-15159912D02*
X13849754Y-14988484D01*
X13983087Y-15188484D02*
X13964039Y-15178960D01*
X13964039Y-15178960D02*
X13954515Y-15169436D01*
X13954515Y-15169436D02*
X13944992Y-15150388D01*
X13944992Y-15150388D02*
X13944992Y-15093246D01*
X13944992Y-15093246D02*
X13954515Y-15074198D01*
X13954515Y-15074198D02*
X13964039Y-15064674D01*
X13964039Y-15064674D02*
X13983087Y-15055150D01*
X13983087Y-15055150D02*
X14011658Y-15055150D01*
X14011658Y-15055150D02*
X14030706Y-15064674D01*
X14030706Y-15064674D02*
X14040230Y-15074198D01*
X14040230Y-15074198D02*
X14049754Y-15093246D01*
X14049754Y-15093246D02*
X14049754Y-15150388D01*
X14049754Y-15150388D02*
X14040230Y-15169436D01*
X14040230Y-15169436D02*
X14030706Y-15178960D01*
X14030706Y-15178960D02*
X14011658Y-15188484D01*
X14011658Y-15188484D02*
X13983087Y-15188484D01*
X14106896Y-15055150D02*
X14183087Y-15055150D01*
X14135468Y-14988484D02*
X14135468Y-15159912D01*
X14135468Y-15159912D02*
X14144992Y-15178960D01*
X14144992Y-15178960D02*
X14164039Y-15188484D01*
X14164039Y-15188484D02*
X14183087Y-15188484D01*
X14240230Y-15178960D02*
X14259277Y-15188484D01*
X14259277Y-15188484D02*
X14297373Y-15188484D01*
X14297373Y-15188484D02*
X14316420Y-15178960D01*
X14316420Y-15178960D02*
X14325944Y-15159912D01*
X14325944Y-15159912D02*
X14325944Y-15150388D01*
X14325944Y-15150388D02*
X14316420Y-15131341D01*
X14316420Y-15131341D02*
X14297373Y-15121817D01*
X14297373Y-15121817D02*
X14268801Y-15121817D01*
X14268801Y-15121817D02*
X14249754Y-15112293D01*
X14249754Y-15112293D02*
X14240230Y-15093246D01*
X14240230Y-15093246D02*
X14240230Y-15083722D01*
X14240230Y-15083722D02*
X14249754Y-15064674D01*
X14249754Y-15064674D02*
X14268801Y-15055150D01*
X14268801Y-15055150D02*
X14297373Y-15055150D01*
X14297373Y-15055150D02*
X14316420Y-15064674D01*
X14392611Y-15264674D02*
X14402135Y-15255150D01*
X14402135Y-15255150D02*
X14421182Y-15226579D01*
X14421182Y-15226579D02*
X14430706Y-15207531D01*
X14430706Y-15207531D02*
X14440230Y-15178960D01*
X14440230Y-15178960D02*
X14449754Y-15131341D01*
X14449754Y-15131341D02*
X14449754Y-15093246D01*
X14449754Y-15093246D02*
X14440230Y-15045627D01*
X14440230Y-15045627D02*
X14430706Y-15017055D01*
X14430706Y-15017055D02*
X14421182Y-14998008D01*
X14421182Y-14998008D02*
X14402135Y-14969436D01*
X14402135Y-14969436D02*
X14392611Y-14959912D01*
M02*
