M48
; DRILL file {KiCad 8.0.2} date 2024-10-18T13:00:19-0700
; FORMAT={-:-/ absolute / inch / decimal}
; #@! TF.CreationDate,2024-10-18T13:00:19-07:00
; #@! TF.GenerationSoftware,Kicad,Pcbnew,8.0.2
; #@! TF.FileFunction,Plated,1,2,PTH
FMAT,2
INCH
; #@! TA.AperFunction,Plated,PTH,ViaDrill
T1C0.0118
; #@! TA.AperFunction,Plated,PTH,ViaDrill
T2C0.0120
; #@! TA.AperFunction,Plated,PTH,ComponentDrill
T3C0.0394
; #@! TA.AperFunction,Plated,PTH,ComponentDrill
T4C0.0512
; #@! TA.AperFunction,Plated,PTH,ComponentDrill
T5C0.0827
%
G90
G05
T1
X4.79Y-3.535
X4.865Y-3.25
X4.88Y-3.555
X4.91Y-3.555
X4.945Y-3.23
X5.44Y-3.535
X5.515Y-3.25
X5.53Y-3.555
X5.56Y-3.555
X5.595Y-3.23
X6.09Y-3.535
X6.165Y-3.25
X6.18Y-3.555
X6.21Y-3.555
X6.245Y-3.23
T2
X4.82Y-3.535
X4.85Y-3.535
X4.865Y-3.28
X4.975Y-3.23
X5.01Y-3.23
X5.47Y-3.535
X5.5Y-3.535
X5.515Y-3.28
X5.625Y-3.23
X5.66Y-3.23
X6.12Y-3.535
X6.15Y-3.535
X6.165Y-3.28
X6.275Y-3.23
X6.31Y-3.23
T3
X4.0406Y-3.6152
X4.0406Y-3.7152
X4.0406Y-3.8152
X4.0406Y-3.9152
X4.0406Y-4.0152
X4.0406Y-4.1152
X4.0406Y-4.2152
X4.0406Y-4.3152
X4.0406Y-4.4152
X4.0406Y-4.5152
X4.0406Y-4.6152
X4.0406Y-4.7152
X4.0406Y-4.8152
X4.0406Y-4.9152
X4.0406Y-5.0152
X4.6406Y-3.6152
X4.6406Y-3.7152
X4.6406Y-3.8152
X4.6406Y-3.9152
X4.6406Y-4.0152
X4.6406Y-4.1152
X4.6406Y-4.2152
X4.6406Y-4.3152
X4.6406Y-4.4152
X4.6406Y-4.5152
X4.6406Y-4.6152
X4.6406Y-4.7152
X4.6406Y-4.8152
X4.6406Y-4.9152
X4.6406Y-5.0152
T4
X3.7667Y-3.1516
X3.7667Y-3.25
X3.7667Y-3.3484
X3.7667Y-3.7266
X3.7667Y-3.825
X3.7667Y-3.9234
X3.7667Y-4.3016
X3.7667Y-4.4
X3.7667Y-4.4984
X3.7667Y-4.8766
X3.7667Y-4.975
X3.7667Y-5.0734
T5
G00X3.4774Y-3.0335
M15
G01X3.4656Y-3.0335
M16
G05
G00X3.4774Y-3.4665
M15
G01X3.4656Y-3.4665
M16
G05
G00X3.4774Y-3.6085
M15
G01X3.4656Y-3.6085
M16
G05
G00X3.4774Y-4.0415
M15
G01X3.4656Y-4.0415
M16
G05
G00X3.4774Y-4.1835
M15
G01X3.4656Y-4.1835
M16
G05
G00X3.4774Y-4.6165
M15
G01X3.4656Y-4.6165
M16
G05
G00X3.4774Y-4.7585
M15
G01X3.4656Y-4.7585
M16
G05
G00X3.4774Y-5.1915
M15
G01X3.4656Y-5.1915
M16
G05
M30
