%TF.GenerationSoftware,KiCad,Pcbnew,8.0.2*%
%TF.CreationDate,2024-10-18T13:00:15-07:00*%
%TF.ProjectId,ArmLEDsPrototype,41726d4c-4544-4735-9072-6f746f747970,rev?*%
%TF.SameCoordinates,Original*%
%TF.FileFunction,Soldermask,Top*%
%TF.FilePolarity,Negative*%
%FSLAX46Y46*%
G04 Gerber Fmt 4.6, Leading zero omitted, Abs format (unit mm)*
G04 Created by KiCad (PCBNEW 8.0.2) date 2024-10-18 13:00:15*
%MOMM*%
%LPD*%
G01*
G04 APERTURE LIST*
G04 Aperture macros list*
%AMRoundRect*
0 Rectangle with rounded corners*
0 $1 Rounding radius*
0 $2 $3 $4 $5 $6 $7 $8 $9 X,Y pos of 4 corners*
0 Add a 4 corners polygon primitive as box body*
4,1,4,$2,$3,$4,$5,$6,$7,$8,$9,$2,$3,0*
0 Add four circle primitives for the rounded corners*
1,1,$1+$1,$2,$3*
1,1,$1+$1,$4,$5*
1,1,$1+$1,$6,$7*
1,1,$1+$1,$8,$9*
0 Add four rect primitives between the rounded corners*
20,1,$1+$1,$2,$3,$4,$5,0*
20,1,$1+$1,$4,$5,$6,$7,0*
20,1,$1+$1,$6,$7,$8,$9,0*
20,1,$1+$1,$8,$9,$2,$3,0*%
G04 Aperture macros list end*
%ADD10RoundRect,0.250000X0.475000X-0.337500X0.475000X0.337500X-0.475000X0.337500X-0.475000X-0.337500X0*%
%ADD11R,3.499992X2.349998*%
%ADD12R,3.499996X2.349986*%
%ADD13RoundRect,0.160000X-0.160000X0.197500X-0.160000X-0.197500X0.160000X-0.197500X0.160000X0.197500X0*%
%ADD14RoundRect,0.250000X0.537500X1.450000X-0.537500X1.450000X-0.537500X-1.450000X0.537500X-1.450000X0*%
%ADD15RoundRect,0.100000X-0.100000X0.217500X-0.100000X-0.217500X0.100000X-0.217500X0.100000X0.217500X0*%
%ADD16C,1.800000*%
%ADD17R,2.900000X2.600000*%
%ADD18RoundRect,0.150000X0.150000X0.275000X-0.150000X0.275000X-0.150000X-0.275000X0.150000X-0.275000X0*%
%ADD19RoundRect,0.175000X0.175000X0.225000X-0.175000X0.225000X-0.175000X-0.225000X0.175000X-0.225000X0*%
%ADD20RoundRect,0.139700X0.228597X-0.139700X0.228597X0.139700X-0.228597X0.139700X-0.228597X-0.139700X0*%
%ADD21RoundRect,0.139700X0.228599X-0.139699X0.228599X0.139699X-0.228599X0.139699X-0.228599X-0.139699X0*%
%ADD22RoundRect,0.139700X0.228600X-0.139700X0.228600X0.139700X-0.228600X0.139700X-0.228600X-0.139700X0*%
%ADD23RoundRect,0.139699X0.228599X-0.139699X0.228599X0.139699X-0.228599X0.139699X-0.228599X-0.139699X0*%
%ADD24RoundRect,0.139698X0.228597X-0.139697X0.228597X0.139697X-0.228597X0.139697X-0.228597X-0.139697X0*%
%ADD25R,12.700000X6.350000*%
%ADD26R,1.600000X1.600000*%
%ADD27O,1.600000X1.600000*%
%ADD28RoundRect,0.952500X0.952500X-1.587500X0.952500X1.587500X-0.952500X1.587500X-0.952500X-1.587500X0*%
%ADD29RoundRect,0.160000X0.160000X-0.197500X0.160000X0.197500X-0.160000X0.197500X-0.160000X-0.197500X0*%
G04 APERTURE END LIST*
D10*
%TO.C,C8*%
X141515000Y-85367500D03*
X141515000Y-83292500D03*
%TD*%
%TO.C,C11*%
X126985002Y-85362507D03*
X126985002Y-83287507D03*
%TD*%
%TO.C,C3*%
X160005002Y-85362507D03*
X160005002Y-83287507D03*
%TD*%
D11*
%TO.C,L3*%
X131684996Y-89074999D03*
D12*
X131685002Y-83025007D03*
%TD*%
D13*
%TO.C,R13*%
X123085000Y-84852500D03*
X123085000Y-86047500D03*
%TD*%
D14*
%TO.C,C5*%
X143132502Y-92225007D03*
X138857502Y-92225007D03*
%TD*%
D15*
%TO.C,C6*%
X144295000Y-87142500D03*
X144295000Y-87957500D03*
%TD*%
D16*
%TO.C,SW3*%
X95675000Y-114260000D03*
X95675000Y-109260000D03*
X95675000Y-111760000D03*
D17*
X88175000Y-117260000D03*
X88175000Y-106260000D03*
%TD*%
D18*
%TO.C,J3*%
X146075000Y-79825000D03*
X144875000Y-79825000D03*
D19*
X147225000Y-76050000D03*
X143725000Y-76050000D03*
%TD*%
D13*
%TO.C,R11*%
X139595000Y-84852500D03*
X139595000Y-86047500D03*
%TD*%
D20*
%TO.C,U2*%
X140752003Y-87122900D03*
D21*
X140752001Y-88062699D03*
D22*
X140752000Y-89015200D03*
D23*
X143190398Y-89002498D03*
D22*
X143190400Y-88062700D03*
D24*
X143190395Y-87110205D03*
%TD*%
D25*
%TO.C,BT1*%
X170815000Y-100507800D03*
X170815000Y-115646200D03*
%TD*%
D16*
%TO.C,SW1*%
X95675000Y-85050000D03*
X95675000Y-80050000D03*
X95675000Y-82550000D03*
D17*
X88175000Y-88050000D03*
X88175000Y-77050000D03*
%TD*%
D14*
%TO.C,C9*%
X126622502Y-92225007D03*
X122347502Y-92225007D03*
%TD*%
D26*
%TO.C,A1*%
X102630000Y-91825000D03*
D27*
X102630000Y-94365000D03*
X102630000Y-96905000D03*
X102630000Y-99445000D03*
X102630000Y-101985000D03*
X102630000Y-104525000D03*
X102630000Y-107065000D03*
X102630000Y-109605000D03*
X102630000Y-112145000D03*
X102630000Y-114685000D03*
X102630000Y-117225000D03*
X102630000Y-119765000D03*
X102630000Y-122305000D03*
X102630000Y-124845000D03*
X102630000Y-127385000D03*
X117870000Y-127385000D03*
X117870000Y-124845000D03*
X117870000Y-122305000D03*
X117870000Y-119765000D03*
X117870000Y-117225000D03*
X117870000Y-114685000D03*
X117870000Y-112145000D03*
X117870000Y-109605000D03*
X117870000Y-107065000D03*
X117870000Y-104525000D03*
X117870000Y-101985000D03*
X117870000Y-99445000D03*
X117870000Y-96905000D03*
X117870000Y-94365000D03*
X117870000Y-91825000D03*
%TD*%
D11*
%TO.C,L1*%
X164704996Y-89074999D03*
D12*
X164705002Y-83025007D03*
%TD*%
D16*
%TO.C,SW4*%
X95675000Y-128865000D03*
X95675000Y-123865000D03*
X95675000Y-126365000D03*
D17*
X88175000Y-131865000D03*
X88175000Y-120865000D03*
%TD*%
D28*
%TO.C,J1*%
X122301000Y-131318000D03*
X128651000Y-131318000D03*
X135001000Y-131318000D03*
X141351000Y-131318000D03*
X147701000Y-131318000D03*
X154051000Y-131318000D03*
X160401000Y-131318000D03*
X166751000Y-131318000D03*
%TD*%
D13*
%TO.C,R14*%
X122985000Y-87352500D03*
X122985000Y-88547500D03*
%TD*%
D15*
%TO.C,C2*%
X160805000Y-87142500D03*
X160805000Y-87957500D03*
%TD*%
D20*
%TO.C,U3*%
X124242003Y-87122900D03*
D21*
X124242001Y-88062699D03*
D22*
X124242000Y-89015200D03*
D23*
X126680398Y-89002498D03*
D22*
X126680400Y-88062700D03*
D24*
X126680395Y-87110205D03*
%TD*%
D20*
%TO.C,U1*%
X157262003Y-87122900D03*
D21*
X157262001Y-88062699D03*
D22*
X157262000Y-89015200D03*
D23*
X159700398Y-89002498D03*
D22*
X159700400Y-88062700D03*
D24*
X159700395Y-87110205D03*
%TD*%
D13*
%TO.C,R9*%
X156105000Y-84852500D03*
X156105000Y-86047500D03*
%TD*%
D18*
%TO.C,J5*%
X118065000Y-79825000D03*
X116865000Y-79825000D03*
X115665000Y-79825000D03*
D19*
X119215000Y-76050000D03*
X114515000Y-76050000D03*
%TD*%
D13*
%TO.C,R12*%
X139495000Y-87352500D03*
X139495000Y-88547500D03*
%TD*%
%TO.C,R10*%
X156005000Y-87352500D03*
X156005000Y-88547500D03*
%TD*%
D16*
%TO.C,SW2*%
X95675000Y-99655000D03*
X95675000Y-94655000D03*
X95675000Y-97155000D03*
D17*
X88175000Y-102655000D03*
X88175000Y-91655000D03*
%TD*%
D29*
%TO.C,R1*%
X109842000Y-90150500D03*
X109842000Y-88955500D03*
%TD*%
D10*
%TO.C,C12*%
X125005000Y-85367500D03*
X125005000Y-83292500D03*
%TD*%
%TO.C,C7*%
X143495002Y-85362507D03*
X143495002Y-83287507D03*
%TD*%
D18*
%TO.C,J6*%
X162585000Y-79825000D03*
X161385000Y-79825000D03*
D19*
X163735000Y-76050000D03*
X160235000Y-76050000D03*
%TD*%
D11*
%TO.C,L2*%
X148194996Y-89074999D03*
D12*
X148195002Y-83025007D03*
%TD*%
D15*
%TO.C,C10*%
X127785000Y-87142500D03*
X127785000Y-87957500D03*
%TD*%
D14*
%TO.C,C1*%
X159642502Y-92225007D03*
X155367502Y-92225007D03*
%TD*%
D10*
%TO.C,C4*%
X158025000Y-85367500D03*
X158025000Y-83292500D03*
%TD*%
M02*
