%TF.GenerationSoftware,KiCad,Pcbnew,8.0.2*%
%TF.CreationDate,2024-10-18T13:00:18-07:00*%
%TF.ProjectId,ArmLEDsPrototype,41726d4c-4544-4735-9072-6f746f747970,rev?*%
%TF.SameCoordinates,Original*%
%TF.FileFunction,Drillmap*%
%TF.FilePolarity,Positive*%
%FSLAX45Y45*%
G04 Gerber Fmt 4.5, Leading zero omitted, Abs format (unit mm)*
G04 Created by KiCad (PCBNEW 8.0.2) date 2024-10-18 13:00:18*
%MOMM*%
%LPD*%
G01*
G04 APERTURE LIST*
%ADD10C,0.050000*%
%ADD11C,0.200000*%
G04 APERTURE END LIST*
D10*
X8001000Y-7493000D02*
X17716500Y-7493000D01*
X17716500Y-13398500D01*
X8001000Y-13398500D01*
X8001000Y-7493000D01*
D11*
X8259277Y-13712484D02*
X8259277Y-13512484D01*
X8259277Y-13512484D02*
X8306896Y-13512484D01*
X8306896Y-13512484D02*
X8335467Y-13522008D01*
X8335467Y-13522008D02*
X8354515Y-13541055D01*
X8354515Y-13541055D02*
X8364039Y-13560103D01*
X8364039Y-13560103D02*
X8373562Y-13598198D01*
X8373562Y-13598198D02*
X8373562Y-13626769D01*
X8373562Y-13626769D02*
X8364039Y-13664865D01*
X8364039Y-13664865D02*
X8354515Y-13683912D01*
X8354515Y-13683912D02*
X8335467Y-13702960D01*
X8335467Y-13702960D02*
X8306896Y-13712484D01*
X8306896Y-13712484D02*
X8259277Y-13712484D01*
X8459277Y-13712484D02*
X8459277Y-13579150D01*
X8459277Y-13617246D02*
X8468801Y-13598198D01*
X8468801Y-13598198D02*
X8478324Y-13588674D01*
X8478324Y-13588674D02*
X8497372Y-13579150D01*
X8497372Y-13579150D02*
X8516420Y-13579150D01*
X8583086Y-13712484D02*
X8583086Y-13579150D01*
X8583086Y-13512484D02*
X8573563Y-13522008D01*
X8573563Y-13522008D02*
X8583086Y-13531531D01*
X8583086Y-13531531D02*
X8592610Y-13522008D01*
X8592610Y-13522008D02*
X8583086Y-13512484D01*
X8583086Y-13512484D02*
X8583086Y-13531531D01*
X8706896Y-13712484D02*
X8687848Y-13702960D01*
X8687848Y-13702960D02*
X8678324Y-13683912D01*
X8678324Y-13683912D02*
X8678324Y-13512484D01*
X8811658Y-13712484D02*
X8792610Y-13702960D01*
X8792610Y-13702960D02*
X8783086Y-13683912D01*
X8783086Y-13683912D02*
X8783086Y-13512484D01*
X9040229Y-13712484D02*
X9040229Y-13512484D01*
X9040229Y-13512484D02*
X9106896Y-13655341D01*
X9106896Y-13655341D02*
X9173563Y-13512484D01*
X9173563Y-13512484D02*
X9173563Y-13712484D01*
X9354515Y-13712484D02*
X9354515Y-13607722D01*
X9354515Y-13607722D02*
X9344991Y-13588674D01*
X9344991Y-13588674D02*
X9325944Y-13579150D01*
X9325944Y-13579150D02*
X9287848Y-13579150D01*
X9287848Y-13579150D02*
X9268801Y-13588674D01*
X9354515Y-13702960D02*
X9335467Y-13712484D01*
X9335467Y-13712484D02*
X9287848Y-13712484D01*
X9287848Y-13712484D02*
X9268801Y-13702960D01*
X9268801Y-13702960D02*
X9259277Y-13683912D01*
X9259277Y-13683912D02*
X9259277Y-13664865D01*
X9259277Y-13664865D02*
X9268801Y-13645817D01*
X9268801Y-13645817D02*
X9287848Y-13636293D01*
X9287848Y-13636293D02*
X9335467Y-13636293D01*
X9335467Y-13636293D02*
X9354515Y-13626769D01*
X9449753Y-13579150D02*
X9449753Y-13779150D01*
X9449753Y-13588674D02*
X9468801Y-13579150D01*
X9468801Y-13579150D02*
X9506896Y-13579150D01*
X9506896Y-13579150D02*
X9525944Y-13588674D01*
X9525944Y-13588674D02*
X9535467Y-13598198D01*
X9535467Y-13598198D02*
X9544991Y-13617246D01*
X9544991Y-13617246D02*
X9544991Y-13674388D01*
X9544991Y-13674388D02*
X9535467Y-13693436D01*
X9535467Y-13693436D02*
X9525944Y-13702960D01*
X9525944Y-13702960D02*
X9506896Y-13712484D01*
X9506896Y-13712484D02*
X9468801Y-13712484D01*
X9468801Y-13712484D02*
X9449753Y-13702960D01*
X9630705Y-13693436D02*
X9640229Y-13702960D01*
X9640229Y-13702960D02*
X9630705Y-13712484D01*
X9630705Y-13712484D02*
X9621182Y-13702960D01*
X9621182Y-13702960D02*
X9630705Y-13693436D01*
X9630705Y-13693436D02*
X9630705Y-13712484D01*
X9630705Y-13588674D02*
X9640229Y-13598198D01*
X9640229Y-13598198D02*
X9630705Y-13607722D01*
X9630705Y-13607722D02*
X9621182Y-13598198D01*
X9621182Y-13598198D02*
X9630705Y-13588674D01*
X9630705Y-13588674D02*
X9630705Y-13607722D01*
M02*
