0
SECTION
2
HEADER
9
$INSUNITS
70
4
0
ENDSEC
0
SECTION
2
TABLES
0
TABLE
2
LTYPE
0
LTYPE
72
65
70
64
2
CONTINUOUS
3
______
73
0
40
0
0
ENDTAB
0
TABLE
2
LAYER
0
ENDTAB
0
ENDSEC
0
SECTION
2
ENTITIES
0
LINE
8
0
10
1
20
59
11
19
21
59
0
LINE
8
0
10
19
20
59
11
19
21
41
0
LINE
8
0
10
19
20
41
11
1
21
41
0
LINE
8
0
10
1
20
41
11
1
21
59
0
LINE
8
0
10
-19
20
59
11
-1
21
59
0
LINE
8
0
10
-1
20
59
11
-1
21
41
0
LINE
8
0
10
-1
20
41
11
-19
21
41
0
LINE
8
0
10
-19
20
41
11
-19
21
59
0
LINE
8
0
10
-50.5954988
20
30.3660254
11
-41.5954988
21
45.9544826
0
LINE
8
0
10
-41.5954988
20
45.9544826
11
-26.0070416
21
36.9544826
0
LINE
8
0
10
-26.0070416
20
36.9544826
11
-35.0070416
21
21.3660254
0
LINE
8
0
10
-35.0070416
20
21.3660254
11
-50.5954988
21
30.3660254
0
LINE
8
0
10
-60.5954988
20
13.0455174
11
-51.5954988
21
28.6339746
0
LINE
8
0
10
-51.5954988
20
28.6339746
11
-36.0070416
21
19.6339746
0
LINE
8
0
10
-36.0070416
20
19.6339746
11
-45.0070416
21
4.0455174
0
LINE
8
0
10
-45.0070416
20
4.0455174
11
-60.5954988
21
13.0455174
0
LINE
8
0
10
-51.5954988
20
-28.6339746
11
-60.5954988
21
-13.0455174
0
LINE
8
0
10
-60.5954988
20
-13.0455174
11
-45.0070416
21
-4.0455174
0
LINE
8
0
10
-45.0070416
20
-4.0455174
11
-36.0070416
21
-19.6339746
0
LINE
8
0
10
-36.0070416
20
-19.6339746
11
-51.5954988
21
-28.6339746
0
LINE
8
0
10
-41.5954988
20
-45.9544826
11
-50.5954988
21
-30.3660254
0
LINE
8
0
10
-50.5954988
20
-30.3660254
11
-35.0070416
21
-21.3660254
0
LINE
8
0
10
-35.0070416
20
-21.3660254
11
-26.0070416
21
-36.9544826
0
LINE
8
0
10
-26.0070416
20
-36.9544826
11
-41.5954988
21
-45.9544826
0
LINE
8
0
10
-1
20
-59
11
-19
21
-59
0
LINE
8
0
10
-19
20
-59
11
-19
21
-41
0
LINE
8
0
10
-19
20
-41
11
-1
21
-41
0
LINE
8
0
10
-1
20
-41
11
-1
21
-59
0
LINE
8
0
10
19
20
-59
11
1
21
-59
0
LINE
8
0
10
1
20
-59
11
1
21
-41
0
LINE
8
0
10
1
20
-41
11
19
21
-41
0
LINE
8
0
10
19
20
-41
11
19
21
-59
0
LINE
8
0
10
50.5954988
20
-30.3660254
11
41.5954988
21
-45.9544826
0
LINE
8
0
10
41.5954988
20
-45.9544826
11
26.0070416
21
-36.9544826
0
LINE
8
0
10
26.0070416
20
-36.9544826
11
35.0070416
21
-21.3660254
0
LINE
8
0
10
35.0070416
20
-21.3660254
11
50.5954988
21
-30.3660254
0
LINE
8
0
10
60.5954988
20
-13.0455174
11
51.5954988
21
-28.6339746
0
LINE
8
0
10
51.5954988
20
-28.6339746
11
36.0070416
21
-19.6339746
0
LINE
8
0
10
36.0070416
20
-19.6339746
11
45.0070416
21
-4.0455174
0
LINE
8
0
10
45.0070416
20
-4.0455174
11
60.5954988
21
-13.0455174
0
LINE
8
0
10
51.5954988
20
28.6339746
11
60.5954988
21
13.0455174
0
LINE
8
0
10
60.5954988
20
13.0455174
11
45.0070416
21
4.0455174
0
LINE
8
0
10
45.0070416
20
4.0455174
11
36.0070416
21
19.6339746
0
LINE
8
0
10
36.0070416
20
19.6339746
11
51.5954988
21
28.6339746
0
LINE
8
0
10
41.5954988
20
45.9544826
11
50.5954988
21
30.3660254
0
LINE
8
0
10
50.5954988
20
30.3660254
11
35.0070416
21
21.3660254
0
LINE
8
0
10
35.0070416
20
21.3660254
11
26.0070416
21
36.9544826
0
LINE
8
0
10
26.0070416
20
36.9544826
11
41.5954988
21
45.9544826
0
LINE
8
0
10
21
20
47.5
11
21
21
52.5
0
LINE
8
0
10
21
20
52.5
11
23
21
52.5
0
LINE
8
0
10
23
20
52.5
11
23
21
47.5
0
LINE
8
0
10
23
20
47.5
11
21
21
47.5
0
LINE
8
0
10
-23
20
47.5
11
-23
21
52.5
0
LINE
8
0
10
-23
20
52.5
11
-21
21
52.5
0
LINE
8
0
10
-21
20
52.5
11
-21
21
47.5
0
LINE
8
0
10
-21
20
47.5
11
-23
21
47.5
0
LINE
8
0
10
-30.6362067
20
41.9365335
11
-34.9663337
21
44.4365335
0
LINE
8
0
10
-34.9663337
20
44.4365335
11
-33.9663337
21
46.1685843
0
LINE
8
0
10
-33.9663337
20
46.1685843
11
-29.6362067
21
43.6685843
0
LINE
8
0
10
-29.6362067
20
43.6685843
11
-30.6362067
21
41.9365335
0
LINE
8
0
10
-52.6362067
20
3.8314157
11
-56.9663337
21
6.3314157
0
LINE
8
0
10
-56.9663337
20
6.3314157
11
-55.9663337
21
8.0634665
0
LINE
8
0
10
-55.9663337
20
8.0634665
11
-51.6362067
21
5.5634665
0
LINE
8
0
10
-51.6362067
20
5.5634665
11
-52.6362067
21
3.8314157
0
LINE
8
0
10
-51.6362067
20
-5.5634665
11
-55.9663337
21
-8.0634665
0
LINE
8
0
10
-55.9663337
20
-8.0634665
11
-56.9663337
21
-6.3314157
0
LINE
8
0
10
-56.9663337
20
-6.3314157
11
-52.6362067
21
-3.8314157
0
LINE
8
0
10
-52.6362067
20
-3.8314157
11
-51.6362067
21
-5.5634665
0
LINE
8
0
10
-29.6362067
20
-43.6685843
11
-33.9663337
21
-46.1685843
0
LINE
8
0
10
-33.9663337
20
-46.1685843
11
-34.9663337
21
-44.4365335
0
LINE
8
0
10
-34.9663337
20
-44.4365335
11
-30.6362067
21
-41.9365335
0
LINE
8
0
10
-30.6362067
20
-41.9365335
11
-29.6362067
21
-43.6685843
0
LINE
8
0
10
-21
20
-47.5
11
-21
21
-52.5
0
LINE
8
0
10
-21
20
-52.5
11
-23
21
-52.5
0
LINE
8
0
10
-23
20
-52.5
11
-23
21
-47.5
0
LINE
8
0
10
-23
20
-47.5
11
-21
21
-47.5
0
LINE
8
0
10
23
20
-47.5
11
23
21
-52.5
0
LINE
8
0
10
23
20
-52.5
11
21
21
-52.5
0
LINE
8
0
10
21
20
-52.5
11
21
21
-47.5
0
LINE
8
0
10
21
20
-47.5
11
23
21
-47.5
0
LINE
8
0
10
30.6362067
20
-41.9365335
11
34.9663337
21
-44.4365335
0
LINE
8
0
10
34.9663337
20
-44.4365335
11
33.9663337
21
-46.1685843
0
LINE
8
0
10
33.9663337
20
-46.1685843
11
29.6362067
21
-43.6685843
0
LINE
8
0
10
29.6362067
20
-43.6685843
11
30.6362067
21
-41.9365335
0
LINE
8
0
10
52.6362067
20
-3.8314157
11
56.9663337
21
-6.3314157
0
LINE
8
0
10
56.9663337
20
-6.3314157
11
55.9663337
21
-8.0634665
0
LINE
8
0
10
55.9663337
20
-8.0634665
11
51.6362067
21
-5.5634665
0
LINE
8
0
10
51.6362067
20
-5.5634665
11
52.6362067
21
-3.8314157
0
LINE
8
0
10
51.6362067
20
5.5634665
11
55.9663337
21
8.0634665
0
LINE
8
0
10
55.9663337
20
8.0634665
11
56.9663337
21
6.3314157
0
LINE
8
0
10
56.9663337
20
6.3314157
11
52.6362067
21
3.8314157
0
LINE
8
0
10
52.6362067
20
3.8314157
11
51.6362067
21
5.5634665
0
LINE
8
0
10
29.6362067
20
43.6685843
11
33.9663337
21
46.1685843
0
LINE
8
0
10
33.9663337
20
46.1685843
11
34.9663337
21
44.4365335
0
LINE
8
0
10
34.9663337
20
44.4365335
11
30.6362067
21
41.9365335
0
LINE
8
0
10
30.6362067
20
41.9365335
11
29.6362067
21
43.6685843
0
LINE
8
0
10
67
20
-31
11
67
21
-26
0
LINE
8
0
10
67
20
-26
11
69
21
-26
0
LINE
8
0
10
69
20
-26
11
69
21
-31
0
LINE
8
0
10
69
20
-31
11
67
21
-31
0
LINE
8
0
10
67
20
-12
11
67
21
-7
0
LINE
8
0
10
67
20
-7
11
69
21
-7
0
LINE
8
0
10
69
20
-7
11
69
21
-12
0
LINE
8
0
10
69
20
-12
11
67
21
-12
0
LINE
8
0
10
67
20
7
11
67
21
12
0
LINE
8
0
10
67
20
12
11
69
21
12
0
LINE
8
0
10
69
20
12
11
69
21
7
0
LINE
8
0
10
69
20
7
11
67
21
7
0
LINE
8
0
10
67
20
26
11
67
21
31
0
LINE
8
0
10
67
20
31
11
69
21
31
0
LINE
8
0
10
69
20
31
11
69
21
26
0
LINE
8
0
10
69
20
26
11
67
21
26
0
LINE
8
0
10
71
20
-19.5
11
89
21
-19.5
0
LINE
8
0
10
89
20
-19.5
11
89
21
-37.5
0
LINE
8
0
10
89
20
-37.5
11
71
21
-37.5
0
LINE
8
0
10
71
20
-37.5
11
71
21
-19.5
0
LINE
8
0
10
71
20
-0.5
11
89
21
-0.5
0
LINE
8
0
10
89
20
-0.5
11
89
21
-18.5
0
LINE
8
0
10
89
20
-18.5
11
71
21
-18.5
0
LINE
8
0
10
71
20
-18.5
11
71
21
-0.5
0
LINE
8
0
10
71
20
18.5
11
89
21
18.5
0
LINE
8
0
10
89
20
18.5
11
89
21
0.5
0
LINE
8
0
10
89
20
0.5
11
71
21
0.5
0
LINE
8
0
10
71
20
0.5
11
71
21
18.5
0
LINE
8
0
10
71
20
37.5
11
89
21
37.5
0
LINE
8
0
10
89
20
37.5
11
89
21
19.5
0
LINE
8
0
10
89
20
19.5
11
71
21
19.5
0
LINE
8
0
10
71
20
19.5
11
71
21
37.5
0
LINE
8
0
10
-69
20
-31
11
-69
21
-26
0
LINE
8
0
10
-69
20
-26
11
-67
21
-26
0
LINE
8
0
10
-67
20
-26
11
-67
21
-31
0
LINE
8
0
10
-67
20
-31
11
-69
21
-31
0
LINE
8
0
10
-69
20
-12
11
-69
21
-7
0
LINE
8
0
10
-69
20
-7
11
-67
21
-7
0
LINE
8
0
10
-67
20
-7
11
-67
21
-12
0
LINE
8
0
10
-67
20
-12
11
-69
21
-12
0
LINE
8
0
10
-89
20
-19.5
11
-71
21
-19.5
0
LINE
8
0
10
-71
20
-19.5
11
-71
21
-37.5
0
LINE
8
0
10
-71
20
-37.5
11
-89
21
-37.5
0
LINE
8
0
10
-89
20
-37.5
11
-89
21
-19.5
0
LINE
8
0
10
-89
20
-0.5
11
-71
21
-0.5
0
LINE
8
0
10
-71
20
-0.5
11
-71
21
-18.5
0
LINE
8
0
10
-71
20
-18.5
11
-89
21
-18.5
0
LINE
8
0
10
-89
20
-18.5
11
-89
21
-0.5
0
LINE
8
0
10
-89
20
47.5
11
-71
21
47.5
0
LINE
8
0
10
-71
20
47.5
11
-71
21
12.5
0
LINE
8
0
10
-71
20
12.5
11
-89
21
12.5
0
LINE
8
0
10
-89
20
12.5
11
-89
21
47.5
0
ENDSEC
0
EOF