<svg width="178mm" height="118mm" viewBox="0 0 178 118" xmlns="http://www.w3.org/2000/svg"><g id="svgGroup" stroke-linecap="round" fill-rule="evenodd" font-size="9pt" stroke="#000" stroke-width="0.25mm" fill="none" style="stroke:#000;stroke-width:0.25mm;fill:none"><path d="M 0 11.5 L 18 11.5 L 18 46.5 L 0 46.5 L 0 11.5 Z M 90 0 L 108 0 L 108 18 L 90 18 L 90 0 Z M 70 0 L 88 0 L 88 18 L 70 18 L 70 0 Z M 88 118 L 70 118 L 70 100 L 88 100 L 88 118 Z M 108 118 L 90 118 L 90 100 L 108 100 L 108 118 Z M 160 78.5 L 178 78.5 L 178 96.5 L 160 96.5 L 160 78.5 Z M 160 59.5 L 178 59.5 L 178 77.5 L 160 77.5 L 160 59.5 Z M 160 40.5 L 178 40.5 L 178 58.5 L 160 58.5 L 160 40.5 Z M 160 21.5 L 178 21.5 L 178 39.5 L 160 39.5 L 160 21.5 Z M 0 78.5 L 18 78.5 L 18 96.5 L 0 96.5 L 0 78.5 Z M 0 59.5 L 18 59.5 L 18 77.5 L 0 77.5 L 0 59.5 Z M 38.405 28.634 L 47.405 13.046 L 62.993 22.046 L 53.993 37.634 L 38.405 28.634 Z M 28.405 45.954 L 37.405 30.366 L 52.993 39.366 L 43.993 54.954 L 28.405 45.954 Z M 37.405 87.634 L 28.405 72.046 L 43.993 63.046 L 52.993 78.634 L 37.405 87.634 Z M 47.405 104.954 L 38.405 89.366 L 53.993 80.366 L 62.993 95.954 L 47.405 104.954 Z M 139.595 89.366 L 130.595 104.954 L 115.007 95.954 L 124.007 80.366 L 139.595 89.366 Z M 149.595 72.046 L 140.595 87.634 L 125.007 78.634 L 134.007 63.046 L 149.595 72.046 Z M 140.595 30.366 L 149.595 45.954 L 134.007 54.954 L 125.007 39.366 L 140.595 30.366 Z M 130.595 13.046 L 139.595 28.634 L 124.007 37.634 L 115.007 22.046 L 130.595 13.046 Z M 110 11.5 L 110 6.5 L 112 6.5 L 112 11.5 L 110 11.5 Z M 66 11.5 L 66 6.5 L 68 6.5 L 68 11.5 L 66 11.5 Z M 68 106.5 L 68 111.5 L 66 111.5 L 66 106.5 L 68 106.5 Z M 112 106.5 L 112 111.5 L 110 111.5 L 110 106.5 L 112 106.5 Z M 156 90 L 156 85 L 158 85 L 158 90 L 156 90 Z M 156 71 L 156 66 L 158 66 L 158 71 L 156 71 Z M 156 52 L 156 47 L 158 47 L 158 52 L 156 52 Z M 156 33 L 156 28 L 158 28 L 158 33 L 156 33 Z M 20 90 L 20 85 L 22 85 L 22 90 L 20 90 Z M 20 71 L 20 66 L 22 66 L 22 71 L 20 71 Z M 36.364 55.169 L 32.034 52.669 L 33.034 50.937 L 37.364 53.437 L 36.364 55.169 Z M 37.364 64.563 L 33.034 67.063 L 32.034 65.331 L 36.364 62.831 L 37.364 64.563 Z M 141.636 62.831 L 145.966 65.331 L 144.966 67.063 L 140.636 64.563 L 141.636 62.831 Z M 140.636 53.437 L 144.966 50.937 L 145.966 52.669 L 141.636 55.169 L 140.636 53.437 Z M 58.364 17.063 L 54.034 14.563 L 55.034 12.831 L 59.364 15.331 L 58.364 17.063 Z M 59.364 102.669 L 55.034 105.169 L 54.034 103.437 L 58.364 100.937 L 59.364 102.669 Z M 119.636 100.937 L 123.966 103.437 L 122.966 105.169 L 118.636 102.669 L 119.636 100.937 Z M 118.636 15.331 L 122.966 12.831 L 123.966 14.563 L 119.636 17.063 L 118.636 15.331 Z" vector-effect="non-scaling-stroke"/></g></svg>