G04 Layer: TopSilkscreenLayer*
G04 EasyEDA v6.5.47, 2024-12-07 11:12:44*
G04 625f1d84725144fd8e3cf26cc36712fa,1719c0b1cc1640c08589e1ebc8d41499,10*
G04 Gerber Generator version 0.2*
G04 Scale: 100 percent, Rotated: No, Reflected: No *
G04 Dimensions in millimeters *
G04 leading zeros omitted , absolute positions ,4 integer and 5 decimal *
%FSLAX45Y45*%
%MOMM*%

%ADD10C,0.1524*%
%ADD11C,0.2540*%

%LPD*%
D10*
X6738111Y4368800D02*
G01*
X6732777Y4379213D01*
X6717284Y4394707D01*
X6826250Y4394707D01*
X6452108Y4138421D02*
G01*
X6462522Y4143755D01*
X6472936Y4154170D01*
X6478015Y4164329D01*
X6478015Y4185157D01*
X6472936Y4195571D01*
X6462522Y4205986D01*
X6452108Y4211320D01*
X6436359Y4216400D01*
X6410452Y4216400D01*
X6394958Y4211320D01*
X6384543Y4205986D01*
X6374129Y4195571D01*
X6369050Y4185157D01*
X6369050Y4164329D01*
X6374129Y4154170D01*
X6384543Y4143755D01*
X6394958Y4138421D01*
X6457188Y4104131D02*
G01*
X6462522Y4093718D01*
X6478015Y4078223D01*
X6369050Y4078223D01*
X4231304Y6855216D02*
G01*
X4231304Y6746250D01*
X4231304Y6746250D02*
G01*
X4293534Y6746250D01*
X4327824Y6855216D02*
G01*
X4327824Y6746250D01*
X4327824Y6855216D02*
G01*
X4395388Y6855216D01*
X4327824Y6803400D02*
G01*
X4369480Y6803400D01*
X4327824Y6746250D02*
G01*
X4395388Y6746250D01*
X4429678Y6855216D02*
G01*
X4429678Y6746250D01*
X4429678Y6855216D02*
G01*
X4466254Y6855216D01*
X4481748Y6850136D01*
X4492162Y6839722D01*
X4497242Y6829308D01*
X4502576Y6813560D01*
X4502576Y6787652D01*
X4497242Y6772158D01*
X4492162Y6761744D01*
X4481748Y6751330D01*
X4466254Y6746250D01*
X4429678Y6746250D01*
X4536866Y6834388D02*
G01*
X4547280Y6839722D01*
X4562774Y6855216D01*
X4562774Y6746250D01*
X6173215Y4165600D02*
G01*
X6064250Y4165600D01*
X6173215Y4165600D02*
G01*
X6173215Y4118863D01*
X6168136Y4103370D01*
X6162802Y4098036D01*
X6152388Y4092955D01*
X6141974Y4092955D01*
X6131559Y4098036D01*
X6126479Y4103370D01*
X6121400Y4118863D01*
X6121400Y4165600D01*
X6121400Y4129278D02*
G01*
X6064250Y4092955D01*
X6152388Y4058665D02*
G01*
X6157722Y4048252D01*
X6173215Y4032504D01*
X6064250Y4032504D01*
X6515100Y3961384D02*
G01*
X6515100Y4039362D01*
X6510020Y4054855D01*
X6499606Y4065270D01*
X6483858Y4070350D01*
X6473443Y4070350D01*
X6457950Y4065270D01*
X6447536Y4054855D01*
X6442456Y4039362D01*
X6442456Y3961384D01*
X6408165Y3982212D02*
G01*
X6397752Y3976878D01*
X6382004Y3961384D01*
X6382004Y4070350D01*
D11*
X6301077Y4051998D02*
G01*
X6221074Y4051998D01*
X6332062Y4162973D02*
G01*
X6332062Y4082976D01*
X6190096Y4162973D02*
G01*
X6190096Y4082976D01*
X6332644Y4220563D02*
G01*
X6332644Y4300562D01*
X6301661Y4331545D02*
G01*
X6221663Y4331545D01*
X6190683Y4220563D02*
G01*
X6190683Y4300562D01*
X4291792Y6711701D02*
G01*
X4439800Y6712699D01*
X4305800Y6522699D02*
G01*
X4439800Y6522699D01*
X4439800Y6712699D02*
G01*
X4439800Y6522697D01*
X4066788Y6521698D02*
G01*
X4066788Y6521704D01*
X4031795Y6556697D01*
X4066788Y6711701D02*
G01*
X4066788Y6711695D01*
X4031795Y6676702D01*
X4191792Y6711701D02*
G01*
X4066788Y6711701D01*
X4191792Y6521698D02*
G01*
X4066788Y6521698D01*
X4031795Y6676702D02*
G01*
X4031795Y6556697D01*
X4271799Y6666699D02*
G01*
X4271799Y6566700D01*
X4271799Y6616194D02*
G01*
X4221800Y6616194D01*
D10*
X5864839Y4122978D02*
G01*
X5864839Y4027091D01*
X5996960Y4027091D01*
X5996960Y4122978D01*
X5864839Y4208221D02*
G01*
X5864839Y4304108D01*
X5996960Y4304108D01*
X5996960Y4208221D01*
D11*
X6429286Y4103697D02*
G01*
X6415097Y4103697D01*
X6415097Y4171190D01*
X6615099Y4171190D02*
G01*
X6615099Y4103697D01*
X6600903Y4103697D01*
X6600903Y4303697D02*
G01*
X6615099Y4303697D01*
X6615099Y4236191D01*
X6415097Y4236191D02*
G01*
X6415097Y4303697D01*
X6429286Y4303697D01*
G75*
G01*
X6301661Y4331551D02*
G02*
X6332644Y4300568I0J-30983D01*
G75*
G01*
X6190678Y4300568D02*
G02*
X6221664Y4331551I30983J0D01*
G75*
G01*
X6332063Y4082981D02*
G02*
X6301077Y4051999I-30983J0D01*
G75*
G01*
X6221080Y4051999D02*
G02*
X6190097Y4082981I0J30982D01*
G75*
G01*
X6565875Y4337050D02*
G03*
X6566438Y4337025I-4J-6350D01*
M02*
