%TF.GenerationSoftware,KiCad,Pcbnew,7.0.1*%
%TF.CreationDate,2023-09-24T18:49:58+08:00*%
%TF.ProjectId,split70kb,73706c69-7437-4306-9b62-2e6b69636164,rev?*%
%TF.SameCoordinates,Original*%
%TF.FileFunction,Soldermask,Bot*%
%TF.FilePolarity,Negative*%
%FSLAX46Y46*%
G04 Gerber Fmt 4.6, Leading zero omitted, Abs format (unit mm)*
G04 Created by KiCad (PCBNEW 7.0.1) date 2023-09-24 18:49:58*
%MOMM*%
%LPD*%
G01*
G04 APERTURE LIST*
G04 Aperture macros list*
%AMHorizOval*
0 Thick line with rounded ends*
0 $1 width*
0 $2 $3 position (X,Y) of the first rounded end (center of the circle)*
0 $4 $5 position (X,Y) of the second rounded end (center of the circle)*
0 Add line between two ends*
20,1,$1,$2,$3,$4,$5,0*
0 Add two circle primitives to create the rounded ends*
1,1,$1,$2,$3*
1,1,$1,$4,$5*%
%AMRotRect*
0 Rectangle, with rotation*
0 The origin of the aperture is its center*
0 $1 length*
0 $2 width*
0 $3 Rotation angle, in degrees counterclockwise*
0 Add horizontal line*
21,1,$1,$2,0,0,$3*%
G04 Aperture macros list end*
%ADD10R,1.600000X1.600000*%
%ADD11C,1.600000*%
%ADD12C,1.701800*%
%ADD13C,3.987800*%
%ADD14HorizOval,2.500000X-0.604462X-0.948815X0.604462X0.948815X0*%
%ADD15HorizOval,2.500000X-0.019724X-0.289328X0.019724X0.289328X0*%
%ADD16RotRect,1.600000X1.600000X150.000000*%
%ADD17HorizOval,2.500000X-0.997887X-0.519467X0.997887X0.519467X0*%
%ADD18HorizOval,2.500000X-0.161746X-0.240704X0.161746X0.240704X0*%
%ADD19C,1.500000*%
%ADD20R,1.752600X1.752600*%
%ADD21C,1.752600*%
%ADD22HorizOval,2.500000X-0.604462X0.948815X0.604462X-0.948815X0*%
%ADD23HorizOval,2.500000X-0.019724X0.289328X0.019724X-0.289328X0*%
%ADD24HorizOval,2.500000X-0.049072X1.123929X0.049072X-1.123929X0*%
%ADD25HorizOval,2.500000X-0.127582X-0.260428X0.127582X0.260428X0*%
%ADD26R,1.200000X1.200000*%
%ADD27RotRect,1.200000X2.500000X240.000000*%
%ADD28RotRect,1.200000X1.200000X150.000000*%
G04 APERTURE END LIST*
D10*
%TO.C,D50*%
X304945500Y-66588800D03*
D11*
X297145500Y-66588800D03*
%TD*%
D12*
%TO.C,K10*%
X47021600Y-115547400D03*
D13*
X52101600Y-115547400D03*
D12*
X57181600Y-115547400D03*
D14*
X48846600Y-112027400D03*
D15*
X54621600Y-110757400D03*
%TD*%
D12*
%TO.C,K12*%
X66070800Y-53551000D03*
D13*
X71150800Y-53551000D03*
D12*
X76230800Y-53551000D03*
D14*
X67895800Y-50031000D03*
D15*
X73670800Y-48761000D03*
%TD*%
D12*
%TO.C,K6*%
X46995100Y-39416100D03*
D13*
X52075100Y-39416100D03*
D12*
X57155100Y-39416100D03*
D14*
X48820100Y-35896100D03*
D15*
X54595100Y-34626100D03*
%TD*%
D12*
%TO.C,K22*%
X104148300Y-58268300D03*
D13*
X109228300Y-58268300D03*
D12*
X114308300Y-58268300D03*
D14*
X105973300Y-54748300D03*
D15*
X111748300Y-53478300D03*
%TD*%
D10*
%TO.C,D51*%
X285903400Y-142693500D03*
D11*
X278103400Y-142693500D03*
%TD*%
D16*
%TO.C,D66*%
X211115099Y-62235000D03*
D11*
X204360101Y-58335000D03*
%TD*%
D10*
%TO.C,D40*%
X342868400Y-57176400D03*
D11*
X335068400Y-57176400D03*
%TD*%
D10*
%TO.C,D56*%
X266788200Y-138079400D03*
D11*
X258988200Y-138079400D03*
%TD*%
D12*
%TO.C,K1*%
X27923900Y-44068900D03*
D13*
X33003900Y-44068900D03*
D12*
X38083900Y-44068900D03*
D14*
X29748900Y-40548900D03*
D15*
X35523900Y-39278900D03*
%TD*%
D10*
%TO.C,D53*%
X286094000Y-104891600D03*
D11*
X278294000Y-104891600D03*
%TD*%
D12*
%TO.C,K9*%
X47068300Y-96593200D03*
D13*
X52148300Y-96593200D03*
D12*
X57228300Y-96593200D03*
D14*
X48893300Y-93073200D03*
D15*
X54668300Y-91803200D03*
%TD*%
D12*
%TO.C,K32*%
X173670491Y-100398900D03*
D13*
X178069900Y-102938900D03*
D12*
X182469309Y-105478900D03*
D17*
X177010987Y-98262991D03*
D18*
X182647284Y-100050638D03*
%TD*%
D10*
%TO.C,D60*%
X266880100Y-61741700D03*
D11*
X259080100Y-61741700D03*
%TD*%
D12*
%TO.C,K14*%
X66112600Y-91695100D03*
D13*
X71192600Y-91695100D03*
D12*
X76272600Y-91695100D03*
D14*
X67937600Y-88175100D03*
D15*
X73712600Y-86905100D03*
%TD*%
D12*
%TO.C,K34*%
X180555491Y-126087900D03*
D13*
X184954900Y-128627900D03*
D12*
X189354309Y-131167900D03*
D17*
X183895987Y-123951991D03*
D18*
X189532284Y-125739638D03*
%TD*%
D10*
%TO.C,D48*%
X304872000Y-142748000D03*
D11*
X297072000Y-142748000D03*
%TD*%
D16*
%TO.C,D69*%
X195072999Y-52833900D03*
D11*
X188318001Y-48933900D03*
%TD*%
D10*
%TO.C,D55*%
X285874500Y-66594300D03*
D11*
X278074500Y-66594300D03*
%TD*%
D10*
%TO.C,D45*%
X323811700Y-61908000D03*
D11*
X316011700Y-61908000D03*
%TD*%
D12*
%TO.C,K8*%
X46984600Y-77378000D03*
D13*
X52064600Y-77378000D03*
D12*
X57144600Y-77378000D03*
D14*
X48809600Y-73858000D03*
D15*
X54584600Y-72588000D03*
%TD*%
D10*
%TO.C,D42*%
X323972300Y-118957400D03*
D11*
X316172300Y-118957400D03*
%TD*%
D16*
%TO.C,D68*%
X185583699Y-69087500D03*
D11*
X178828701Y-65187500D03*
%TD*%
D12*
%TO.C,K18*%
X85151600Y-72680000D03*
D13*
X90231600Y-72680000D03*
D12*
X95311600Y-72680000D03*
D14*
X86976600Y-69160000D03*
D15*
X92751600Y-67890000D03*
%TD*%
D10*
%TO.C,D39*%
X342980500Y-75994000D03*
D11*
X335180500Y-75994000D03*
%TD*%
D16*
%TO.C,D70*%
X204304599Y-36500100D03*
D11*
X197549601Y-32600100D03*
%TD*%
D12*
%TO.C,K15*%
X66001600Y-110680000D03*
D13*
X71081600Y-110680000D03*
D12*
X76161600Y-110680000D03*
D14*
X67826600Y-107160000D03*
D15*
X73601600Y-105890000D03*
%TD*%
D10*
%TO.C,D37*%
X343109300Y-114179400D03*
D11*
X335309300Y-114179400D03*
%TD*%
D10*
%TO.C,D58*%
X266903400Y-99848300D03*
D11*
X259103400Y-99848300D03*
%TD*%
D10*
%TO.C,D52*%
X285840000Y-123698000D03*
D11*
X278040000Y-123698000D03*
%TD*%
D12*
%TO.C,K2*%
X27974900Y-63079900D03*
D13*
X33054900Y-63079900D03*
D12*
X38134900Y-63079900D03*
D14*
X29799900Y-59559900D03*
D15*
X35574900Y-58289900D03*
%TD*%
D12*
%TO.C,K23*%
X104201600Y-77330000D03*
D13*
X109281600Y-77330000D03*
D12*
X114361600Y-77330000D03*
D14*
X106026600Y-73810000D03*
D15*
X111801600Y-72540000D03*
%TD*%
D10*
%TO.C,D36*%
X343141300Y-133254900D03*
D11*
X335341300Y-133254900D03*
%TD*%
D10*
%TO.C,D41*%
X324082600Y-138123600D03*
D11*
X316282600Y-138123600D03*
%TD*%
D10*
%TO.C,D49*%
X304817600Y-85755200D03*
D11*
X297017600Y-85755200D03*
%TD*%
D12*
%TO.C,K17*%
X85101600Y-53580000D03*
D13*
X90181600Y-53580000D03*
D12*
X95261600Y-53580000D03*
D14*
X86926600Y-50060000D03*
D15*
X92701600Y-48790000D03*
%TD*%
D12*
%TO.C,K5*%
X27973800Y-120218900D03*
D13*
X33053800Y-120218900D03*
D12*
X38133800Y-120218900D03*
D14*
X29798800Y-116698900D03*
D15*
X35573800Y-115428900D03*
%TD*%
D10*
%TO.C,D59*%
X266879400Y-80720000D03*
D11*
X259079400Y-80720000D03*
%TD*%
D12*
%TO.C,K4*%
X27907000Y-101194500D03*
D13*
X32987000Y-101194500D03*
D12*
X38067000Y-101194500D03*
D14*
X29732000Y-97674500D03*
D15*
X35507000Y-96404500D03*
%TD*%
D10*
%TO.C,D61*%
X247692600Y-133197100D03*
D11*
X239892600Y-133197100D03*
%TD*%
D12*
%TO.C,K13*%
X66090400Y-72659900D03*
D13*
X71170400Y-72659900D03*
D12*
X76250400Y-72659900D03*
D14*
X67915400Y-69139900D03*
D15*
X73690400Y-67869900D03*
%TD*%
D12*
%TO.C,K30*%
X154924791Y-132897100D03*
D13*
X159324200Y-135437100D03*
D12*
X163723609Y-137977100D03*
D17*
X158265287Y-130761191D03*
D18*
X163901584Y-132548838D03*
%TD*%
D12*
%TO.C,K29*%
X123201600Y-101161700D03*
D13*
X128281600Y-101161700D03*
D12*
X133361600Y-101161700D03*
D14*
X125026600Y-97641700D03*
D15*
X130801600Y-96371700D03*
%TD*%
D10*
%TO.C,D47*%
X304892700Y-123653400D03*
D11*
X297092700Y-123653400D03*
%TD*%
D10*
%TO.C,D64*%
X247799600Y-76072600D03*
D11*
X239999600Y-76072600D03*
%TD*%
D16*
%TO.C,D67*%
X201923799Y-78434400D03*
D11*
X195168801Y-74534400D03*
%TD*%
D12*
%TO.C,K16*%
X85076600Y-34480000D03*
D13*
X90156600Y-34480000D03*
D12*
X95236600Y-34480000D03*
D14*
X86901600Y-30960000D03*
D15*
X92676600Y-29690000D03*
%TD*%
D16*
%TO.C,D65*%
X220641099Y-45921500D03*
D11*
X213886101Y-42021500D03*
%TD*%
D12*
%TO.C,K33*%
X189930091Y-109766400D03*
D13*
X194329500Y-112306400D03*
D12*
X198728909Y-114846400D03*
D17*
X193270587Y-107630491D03*
D18*
X198906884Y-109418138D03*
%TD*%
D10*
%TO.C,D57*%
X266764200Y-118902700D03*
D11*
X258964200Y-118902700D03*
%TD*%
D12*
%TO.C,K21*%
X104166200Y-39235400D03*
D13*
X109246200Y-39235400D03*
D12*
X114326200Y-39235400D03*
D14*
X105991200Y-35715400D03*
D15*
X111766200Y-34445400D03*
%TD*%
D19*
%TO.C,J1*%
X204779500Y-97217471D03*
X208279500Y-91155293D03*
%TD*%
D10*
%TO.C,D63*%
X247769800Y-95157200D03*
D11*
X239969800Y-95157200D03*
%TD*%
D12*
%TO.C,K31*%
X164346891Y-116669300D03*
D13*
X168746300Y-119209300D03*
D12*
X173145709Y-121749300D03*
D17*
X167687387Y-114533391D03*
D18*
X173323684Y-116321038D03*
%TD*%
D10*
%TO.C,D54*%
X285969700Y-85612900D03*
D11*
X278169700Y-85612900D03*
%TD*%
D12*
%TO.C,K25*%
X104143300Y-115502500D03*
D13*
X109223300Y-115502500D03*
D12*
X114303300Y-115502500D03*
D14*
X105968300Y-111982500D03*
D15*
X111743300Y-110712500D03*
%TD*%
D20*
%TO.C,U1*%
X232410000Y-159766000D03*
D21*
X232410000Y-157226000D03*
X232410000Y-154686000D03*
X232410000Y-152146000D03*
X232410000Y-149606000D03*
X232410000Y-147066000D03*
X232410000Y-144526000D03*
X232410000Y-141986000D03*
X232410000Y-139446000D03*
X232410000Y-136906000D03*
X232410000Y-134366000D03*
X232410000Y-131826000D03*
X217170000Y-159766000D03*
X217170000Y-157226000D03*
X217170000Y-154686000D03*
X217170000Y-152146000D03*
X217170000Y-149606000D03*
X217170000Y-147066000D03*
X217170000Y-144526000D03*
X217170000Y-141986000D03*
X217170000Y-139446000D03*
X217170000Y-136906000D03*
X217170000Y-134366000D03*
X217170000Y-131826000D03*
%TD*%
D10*
%TO.C,D43*%
X323979400Y-99909800D03*
D11*
X316179400Y-99909800D03*
%TD*%
D12*
%TO.C,K3*%
X27951600Y-82080000D03*
D13*
X33031600Y-82080000D03*
D12*
X38111600Y-82080000D03*
D14*
X29776600Y-78560000D03*
D15*
X35551600Y-77290000D03*
%TD*%
D12*
%TO.C,K26*%
X123501600Y-43949000D03*
D13*
X128581600Y-43949000D03*
D12*
X133661600Y-43949000D03*
D14*
X125326600Y-40429000D03*
D15*
X131101600Y-39159000D03*
%TD*%
D12*
%TO.C,K24*%
X104194600Y-96413000D03*
D13*
X109274600Y-96413000D03*
D12*
X114354600Y-96413000D03*
D14*
X106019600Y-92893000D03*
D15*
X111794600Y-91623000D03*
%TD*%
D12*
%TO.C,K19*%
X85108600Y-91681800D03*
D13*
X90188600Y-91681800D03*
D12*
X95268600Y-91681800D03*
D14*
X86933600Y-88161800D03*
D15*
X92708600Y-86891800D03*
%TD*%
D10*
%TO.C,D38*%
X342884200Y-95198000D03*
D11*
X335084200Y-95198000D03*
%TD*%
D10*
%TO.C,D44*%
X324057000Y-80866100D03*
D11*
X316257000Y-80866100D03*
%TD*%
D12*
%TO.C,K27*%
X123266800Y-63275100D03*
D13*
X128346800Y-63275100D03*
D12*
X133426800Y-63275100D03*
D14*
X125091800Y-59755100D03*
D15*
X130866800Y-58485100D03*
%TD*%
D10*
%TO.C,D46*%
X304885400Y-104657300D03*
D11*
X297085400Y-104657300D03*
%TD*%
D12*
%TO.C,K35*%
X171207591Y-142347900D03*
D13*
X175607000Y-144887900D03*
D12*
X180006409Y-147427900D03*
D17*
X174548087Y-140211991D03*
D18*
X180184384Y-141999638D03*
%TD*%
D12*
%TO.C,K20*%
X85030800Y-110693500D03*
D13*
X90110800Y-110693500D03*
D12*
X95190800Y-110693500D03*
D14*
X86855800Y-107173500D03*
D15*
X92630800Y-105903500D03*
%TD*%
D10*
%TO.C,D62*%
X247754900Y-114228200D03*
D11*
X239954900Y-114228200D03*
%TD*%
D12*
%TO.C,K7*%
X47006600Y-58385800D03*
D13*
X52086600Y-58385800D03*
D12*
X57166600Y-58385800D03*
D14*
X48831600Y-54865800D03*
D15*
X54606600Y-53595800D03*
%TD*%
D12*
%TO.C,K11*%
X66104400Y-34561700D03*
D13*
X71184400Y-34561700D03*
D12*
X76264400Y-34561700D03*
D14*
X67929400Y-31041700D03*
D15*
X73704400Y-29771700D03*
%TD*%
D12*
%TO.C,K28*%
X123215000Y-82130000D03*
D13*
X128295000Y-82130000D03*
D12*
X133375000Y-82130000D03*
D14*
X125040000Y-78610000D03*
D15*
X130815000Y-77340000D03*
%TD*%
D12*
%TO.C,K52*%
X276861800Y-127967000D03*
D13*
X281941800Y-127967000D03*
D12*
X287021800Y-127967000D03*
D22*
X278686800Y-131487000D03*
D23*
X284461800Y-132757000D03*
%TD*%
D12*
%TO.C,K64*%
X238776800Y-80399200D03*
D13*
X243856800Y-80399200D03*
D12*
X248936800Y-80399200D03*
D22*
X240601800Y-83919200D03*
D23*
X246376800Y-85189200D03*
%TD*%
D12*
%TO.C,K60*%
X257834800Y-66073600D03*
D13*
X262914800Y-66073600D03*
D12*
X267994800Y-66073600D03*
D22*
X259659800Y-69593600D03*
D23*
X265434800Y-70863600D03*
%TD*%
D12*
%TO.C,K42*%
X314972400Y-123238000D03*
D13*
X320052400Y-123238000D03*
D12*
X325132400Y-123238000D03*
D22*
X316797400Y-126758000D03*
D23*
X322572400Y-128028000D03*
%TD*%
D12*
%TO.C,K70*%
X194460791Y-35770400D03*
D13*
X198860200Y-38310400D03*
D12*
X203259609Y-40850400D03*
D24*
X194281287Y-39731309D03*
D25*
X198647584Y-43718662D03*
%TD*%
D12*
%TO.C,K46*%
X295947400Y-147021200D03*
D13*
X301027400Y-147021200D03*
D12*
X306107400Y-147021200D03*
D22*
X297772400Y-150541200D03*
D23*
X303547400Y-151811200D03*
%TD*%
D12*
%TO.C,K59*%
X257837400Y-85117500D03*
D13*
X262917400Y-85117500D03*
D12*
X267997400Y-85117500D03*
D22*
X259662400Y-88637500D03*
D23*
X265437400Y-89907500D03*
%TD*%
D10*
%TO.C,D10*%
X56175600Y-119865400D03*
D26*
X53850600Y-119865400D03*
X50700600Y-119865400D03*
D11*
X48375600Y-119865400D03*
%TD*%
D10*
%TO.C,D17*%
X94069500Y-57691300D03*
D26*
X91744500Y-57691300D03*
X88594500Y-57691300D03*
D11*
X86269500Y-57691300D03*
%TD*%
D10*
%TO.C,D19*%
X94061800Y-95785600D03*
D26*
X91736800Y-95785600D03*
X88586800Y-95785600D03*
D11*
X86261800Y-95785600D03*
%TD*%
D12*
%TO.C,K65*%
X210738591Y-45168400D03*
D13*
X215138000Y-47708400D03*
D12*
X219537409Y-50248400D03*
D24*
X210559087Y-49129309D03*
D25*
X214925384Y-53116662D03*
%TD*%
D12*
%TO.C,K47*%
X295940900Y-127950500D03*
D13*
X301020900Y-127950500D03*
D12*
X306100900Y-127950500D03*
D22*
X297765900Y-131470500D03*
D23*
X303540900Y-132740500D03*
%TD*%
D19*
%TO.C,J2*%
X169166100Y-85669529D03*
X165666100Y-91731707D03*
D27*
X164051517Y-88028246D03*
X165551517Y-85430169D03*
X167130683Y-95694975D03*
X162051517Y-91492347D03*
%TD*%
D10*
%TO.C,D4*%
X36853400Y-105394900D03*
D26*
X34528400Y-105394900D03*
X31378400Y-105394900D03*
D11*
X29053400Y-105394900D03*
%TD*%
D12*
%TO.C,K43*%
X314958400Y-104190200D03*
D13*
X320038400Y-104190200D03*
D12*
X325118400Y-104190200D03*
D22*
X316783400Y-107710200D03*
D23*
X322558400Y-108980200D03*
%TD*%
D10*
%TO.C,D29*%
X132220700Y-105304500D03*
D26*
X129895700Y-105304500D03*
X126745700Y-105304500D03*
D11*
X124420700Y-105304500D03*
%TD*%
D12*
%TO.C,K36*%
X334029900Y-137555600D03*
D13*
X339109900Y-137555600D03*
D12*
X344189900Y-137555600D03*
D22*
X335854900Y-141075600D03*
D23*
X341629900Y-142345600D03*
%TD*%
D12*
%TO.C,K69*%
X185062791Y-52048200D03*
D13*
X189462200Y-54588200D03*
D12*
X193861609Y-57128200D03*
D24*
X184883287Y-56009109D03*
D25*
X189249584Y-59996462D03*
%TD*%
D12*
%TO.C,K63*%
X238789000Y-99393400D03*
D13*
X243869000Y-99393400D03*
D12*
X248949000Y-99393400D03*
D22*
X240614000Y-102913400D03*
D23*
X246389000Y-104183400D03*
%TD*%
D10*
%TO.C,D28*%
X132213800Y-86586700D03*
D26*
X129888800Y-86586700D03*
X126738800Y-86586700D03*
D11*
X124413800Y-86586700D03*
%TD*%
D12*
%TO.C,K54*%
X276897000Y-89823500D03*
D13*
X281977000Y-89823500D03*
D12*
X287057000Y-89823500D03*
D22*
X278722000Y-93343500D03*
D23*
X284497000Y-94613500D03*
%TD*%
D10*
%TO.C,D2*%
X36960300Y-67299100D03*
D26*
X34635300Y-67299100D03*
X31485300Y-67299100D03*
D11*
X29160300Y-67299100D03*
%TD*%
D16*
%TO.C,D35*%
X177118799Y-150721000D03*
D28*
X175105290Y-149558500D03*
X172377310Y-147983500D03*
D11*
X170363801Y-146821000D03*
%TD*%
D20*
%TO.C,U2*%
X155497200Y-23166600D03*
D21*
X155497200Y-25706600D03*
X155497200Y-28246600D03*
X155497200Y-30786600D03*
X155497200Y-33326600D03*
X155497200Y-35866600D03*
X155497200Y-38406600D03*
X155497200Y-40946600D03*
X155497200Y-43486600D03*
X155497200Y-46026600D03*
X155497200Y-48566600D03*
X155497200Y-51106600D03*
X140257200Y-23166600D03*
X140257200Y-25706600D03*
X140257200Y-28246600D03*
X140257200Y-30786600D03*
X140257200Y-33326600D03*
X140257200Y-35866600D03*
X140257200Y-38406600D03*
X140257200Y-40946600D03*
X140257200Y-43486600D03*
X140257200Y-46026600D03*
X140257200Y-48566600D03*
X140257200Y-51106600D03*
%TD*%
D12*
%TO.C,K55*%
X276864300Y-70802300D03*
D13*
X281944300Y-70802300D03*
D12*
X287024300Y-70802300D03*
D22*
X278689300Y-74322300D03*
D23*
X284464300Y-75592300D03*
%TD*%
D12*
%TO.C,K56*%
X257822400Y-142321700D03*
D13*
X262902400Y-142321700D03*
D12*
X267982400Y-142321700D03*
D22*
X259647400Y-145841700D03*
D23*
X265422400Y-147111700D03*
%TD*%
D12*
%TO.C,K62*%
X238764800Y-118503100D03*
D13*
X243844800Y-118503100D03*
D12*
X248924800Y-118503100D03*
D22*
X240589800Y-122023100D03*
D23*
X246364800Y-123293100D03*
%TD*%
D12*
%TO.C,K45*%
X314988100Y-66072100D03*
D13*
X320068100Y-66072100D03*
D12*
X325148100Y-66072100D03*
D22*
X316813100Y-69592100D03*
D23*
X322588100Y-70862100D03*
%TD*%
D10*
%TO.C,D6*%
X55946100Y-43771700D03*
D26*
X53621100Y-43771700D03*
X50471100Y-43771700D03*
D11*
X48146100Y-43771700D03*
%TD*%
D12*
%TO.C,K67*%
X191942591Y-77724000D03*
D13*
X196342000Y-80264000D03*
D12*
X200741409Y-82804000D03*
D24*
X191763087Y-81684909D03*
D25*
X196129384Y-85672262D03*
%TD*%
D10*
%TO.C,D22*%
X112735900Y-62681300D03*
D26*
X110410900Y-62681300D03*
X107260900Y-62681300D03*
D11*
X104935900Y-62681300D03*
%TD*%
D12*
%TO.C,K41*%
X314993300Y-142282700D03*
D13*
X320073300Y-142282700D03*
D12*
X325153300Y-142282700D03*
D22*
X316818300Y-145802700D03*
D23*
X322593300Y-147072700D03*
%TD*%
D10*
%TO.C,D1*%
X37011300Y-48170500D03*
D26*
X34686300Y-48170500D03*
X31536300Y-48170500D03*
D11*
X29211300Y-48170500D03*
%TD*%
D12*
%TO.C,K40*%
X334005500Y-61334200D03*
D13*
X339085500Y-61334200D03*
D12*
X344165500Y-61334200D03*
D22*
X335830500Y-64854200D03*
D23*
X341605500Y-66124200D03*
%TD*%
D10*
%TO.C,D9*%
X56222300Y-100793600D03*
D26*
X53897300Y-100793600D03*
X50747300Y-100793600D03*
D11*
X48422300Y-100793600D03*
%TD*%
D10*
%TO.C,D13*%
X75054800Y-77111900D03*
D26*
X72729800Y-77111900D03*
X69579800Y-77111900D03*
D11*
X67254800Y-77111900D03*
%TD*%
D16*
%TO.C,D31*%
X170059099Y-124893000D03*
D28*
X168045590Y-123730500D03*
X165317610Y-122155500D03*
D11*
X163304101Y-120993000D03*
%TD*%
D12*
%TO.C,K49*%
X295888400Y-89954500D03*
D13*
X300968400Y-89954500D03*
D12*
X306048400Y-89954500D03*
D22*
X297713400Y-93474500D03*
D23*
X303488400Y-94744500D03*
%TD*%
D10*
%TO.C,D18*%
X94125100Y-77290700D03*
D26*
X91800100Y-77290700D03*
X88650100Y-77290700D03*
D11*
X86325100Y-77290700D03*
%TD*%
D12*
%TO.C,K48*%
X295880100Y-108934800D03*
D13*
X300960100Y-108934800D03*
D12*
X306040100Y-108934800D03*
D22*
X297705100Y-112454800D03*
D23*
X303480100Y-113724800D03*
%TD*%
D10*
%TO.C,D20*%
X93831600Y-114980000D03*
D26*
X91506600Y-114980000D03*
X88356600Y-114980000D03*
D11*
X86031600Y-114980000D03*
%TD*%
D12*
%TO.C,K50*%
X295941100Y-70828200D03*
D13*
X301021100Y-70828200D03*
D12*
X306101100Y-70828200D03*
D22*
X297766100Y-74348200D03*
D23*
X303541100Y-75618200D03*
%TD*%
D10*
%TO.C,D8*%
X55884600Y-81714800D03*
D26*
X53559600Y-81714800D03*
X50409600Y-81714800D03*
D11*
X48084600Y-81714800D03*
%TD*%
D10*
%TO.C,D21*%
X113419000Y-43591000D03*
D26*
X111094000Y-43591000D03*
X107944000Y-43591000D03*
D11*
X105619000Y-43591000D03*
%TD*%
D12*
%TO.C,K44*%
X315006500Y-85145300D03*
D13*
X320086500Y-85145300D03*
D12*
X325166500Y-85145300D03*
D22*
X316831500Y-88665300D03*
D23*
X322606500Y-89935300D03*
%TD*%
D10*
%TO.C,D5*%
X37010200Y-124536900D03*
D26*
X34685200Y-124536900D03*
X31535200Y-124536900D03*
D11*
X29210200Y-124536900D03*
%TD*%
D12*
%TO.C,K68*%
X175664791Y-68326000D03*
D13*
X180064200Y-70866000D03*
D12*
X184463609Y-73406000D03*
D24*
X175485287Y-72286909D03*
D25*
X179851584Y-76274262D03*
%TD*%
D12*
%TO.C,K58*%
X257840800Y-104206300D03*
D13*
X262920800Y-104206300D03*
D12*
X268000800Y-104206300D03*
D22*
X259665800Y-107726300D03*
D23*
X265440800Y-108996300D03*
%TD*%
D12*
%TO.C,K61*%
X238765200Y-137505800D03*
D13*
X243845200Y-137505800D03*
D12*
X248925200Y-137505800D03*
D22*
X240590200Y-141025800D03*
D23*
X246365200Y-142295800D03*
%TD*%
D10*
%TO.C,D11*%
X75122000Y-38917300D03*
D26*
X72797000Y-38917300D03*
X69647000Y-38917300D03*
D11*
X67322000Y-38917300D03*
%TD*%
D10*
%TO.C,D27*%
X132321600Y-67571000D03*
D26*
X129996600Y-67571000D03*
X126846600Y-67571000D03*
D11*
X124521600Y-67571000D03*
%TD*%
D10*
%TO.C,D14*%
X75016000Y-95920000D03*
D26*
X72691000Y-95920000D03*
X69541000Y-95920000D03*
D11*
X67216000Y-95920000D03*
%TD*%
D12*
%TO.C,K38*%
X333988500Y-99380900D03*
D13*
X339068500Y-99380900D03*
D12*
X344148500Y-99380900D03*
D22*
X335813500Y-102900900D03*
D23*
X341588500Y-104170900D03*
%TD*%
D16*
%TO.C,D33*%
X195343099Y-117755500D03*
D28*
X193329590Y-116593000D03*
X190601610Y-115018000D03*
D11*
X188588101Y-113855500D03*
%TD*%
D10*
%TO.C,D26*%
X132583800Y-48324900D03*
D26*
X130258800Y-48324900D03*
X127108800Y-48324900D03*
D11*
X124783800Y-48324900D03*
%TD*%
D12*
%TO.C,K39*%
X333971100Y-80293100D03*
D13*
X339051100Y-80293100D03*
D12*
X344131100Y-80293100D03*
D22*
X335796100Y-83813100D03*
D23*
X341571100Y-85083100D03*
%TD*%
D12*
%TO.C,K66*%
X201340591Y-61446200D03*
D13*
X205740000Y-63986200D03*
D12*
X210139409Y-66526200D03*
D24*
X201161087Y-65407109D03*
D25*
X205527384Y-69394462D03*
%TD*%
D10*
%TO.C,D16*%
X94304100Y-38795200D03*
D26*
X91979100Y-38795200D03*
X88829100Y-38795200D03*
D11*
X86504100Y-38795200D03*
%TD*%
D10*
%TO.C,D24*%
X113036300Y-100520500D03*
D26*
X110711300Y-100520500D03*
X107561300Y-100520500D03*
D11*
X105236300Y-100520500D03*
%TD*%
D12*
%TO.C,K53*%
X276869200Y-109008200D03*
D13*
X281949200Y-109008200D03*
D12*
X287029200Y-109008200D03*
D22*
X278694200Y-112528200D03*
D23*
X284469200Y-113798200D03*
%TD*%
D16*
%TO.C,D30*%
X160153099Y-141149000D03*
D28*
X158139590Y-139986500D03*
X155411610Y-138411500D03*
D11*
X153398101Y-137249000D03*
%TD*%
D10*
%TO.C,D15*%
X75019200Y-114744000D03*
D26*
X72694200Y-114744000D03*
X69544200Y-114744000D03*
D11*
X67219200Y-114744000D03*
%TD*%
D10*
%TO.C,D25*%
X113206200Y-119705800D03*
D26*
X110881200Y-119705800D03*
X107731200Y-119705800D03*
D11*
X105406200Y-119705800D03*
%TD*%
D12*
%TO.C,K37*%
X333979200Y-118473400D03*
D13*
X339059200Y-118473400D03*
D12*
X344139200Y-118473400D03*
D22*
X335804200Y-121993400D03*
D23*
X341579200Y-123263400D03*
%TD*%
D16*
%TO.C,D32*%
X179404799Y-108811000D03*
D28*
X177391290Y-107648500D03*
X174663310Y-106073500D03*
D11*
X172649801Y-104911000D03*
%TD*%
D16*
%TO.C,D34*%
X186262799Y-134465000D03*
D28*
X184249290Y-133302500D03*
X181521310Y-131727500D03*
D11*
X179507801Y-130565000D03*
%TD*%
D10*
%TO.C,D23*%
X113271600Y-81541000D03*
D26*
X110946600Y-81541000D03*
X107796600Y-81541000D03*
D11*
X105471600Y-81541000D03*
%TD*%
D10*
%TO.C,D7*%
X55906600Y-62605000D03*
D26*
X53581600Y-62605000D03*
X50431600Y-62605000D03*
D11*
X48106600Y-62605000D03*
%TD*%
D12*
%TO.C,K51*%
X276870100Y-147024900D03*
D13*
X281950100Y-147024900D03*
D12*
X287030100Y-147024900D03*
D22*
X278695100Y-150544900D03*
D23*
X284470100Y-151814900D03*
%TD*%
D12*
%TO.C,K57*%
X257823900Y-123228300D03*
D13*
X262903900Y-123228300D03*
D12*
X267983900Y-123228300D03*
D22*
X259648900Y-126748300D03*
D23*
X265423900Y-128018300D03*
%TD*%
D10*
%TO.C,D12*%
X75037400Y-57770200D03*
D26*
X72712400Y-57770200D03*
X69562400Y-57770200D03*
D11*
X67237400Y-57770200D03*
%TD*%
D10*
%TO.C,D3*%
X36937000Y-86416800D03*
D26*
X34612000Y-86416800D03*
X31462000Y-86416800D03*
D11*
X29137000Y-86416800D03*
%TD*%
M02*
