%TF.GenerationSoftware,KiCad,Pcbnew,7.0.1*%
%TF.CreationDate,2023-09-24T18:49:58+08:00*%
%TF.ProjectId,split70kb,73706c69-7437-4306-9b62-2e6b69636164,rev?*%
%TF.SameCoordinates,Original*%
%TF.FileFunction,Paste,Bot*%
%TF.FilePolarity,Positive*%
%FSLAX46Y46*%
G04 Gerber Fmt 4.6, Leading zero omitted, Abs format (unit mm)*
G04 Created by KiCad (PCBNEW 7.0.1) date 2023-09-24 18:49:58*
%MOMM*%
%LPD*%
G01*
G04 APERTURE LIST*
G04 Aperture macros list*
%AMRotRect*
0 Rectangle, with rotation*
0 The origin of the aperture is its center*
0 $1 length*
0 $2 width*
0 $3 Rotation angle, in degrees counterclockwise*
0 Add horizontal line*
21,1,$1,$2,0,0,$3*%
G04 Aperture macros list end*
%ADD10R,1.200000X1.200000*%
%ADD11RotRect,1.200000X2.500000X240.000000*%
%ADD12RotRect,1.200000X1.200000X150.000000*%
G04 APERTURE END LIST*
D10*
%TO.C,D10*%
X53850600Y-119865400D03*
X50700600Y-119865400D03*
%TD*%
%TO.C,D17*%
X91744500Y-57691300D03*
X88594500Y-57691300D03*
%TD*%
%TO.C,D19*%
X91736800Y-95785600D03*
X88586800Y-95785600D03*
%TD*%
D11*
%TO.C,J2*%
X164051517Y-88028246D03*
X165551517Y-85430169D03*
X167130683Y-95694975D03*
X162051517Y-91492347D03*
%TD*%
D10*
%TO.C,D4*%
X34528400Y-105394900D03*
X31378400Y-105394900D03*
%TD*%
%TO.C,D29*%
X129895700Y-105304500D03*
X126745700Y-105304500D03*
%TD*%
%TO.C,D28*%
X129888800Y-86586700D03*
X126738800Y-86586700D03*
%TD*%
%TO.C,D2*%
X34635300Y-67299100D03*
X31485300Y-67299100D03*
%TD*%
D12*
%TO.C,D35*%
X175105290Y-149558500D03*
X172377310Y-147983500D03*
%TD*%
D10*
%TO.C,D6*%
X53621100Y-43771700D03*
X50471100Y-43771700D03*
%TD*%
%TO.C,D22*%
X110410900Y-62681300D03*
X107260900Y-62681300D03*
%TD*%
%TO.C,D1*%
X34686300Y-48170500D03*
X31536300Y-48170500D03*
%TD*%
%TO.C,D9*%
X53897300Y-100793600D03*
X50747300Y-100793600D03*
%TD*%
%TO.C,D13*%
X72729800Y-77111900D03*
X69579800Y-77111900D03*
%TD*%
D12*
%TO.C,D31*%
X168045590Y-123730500D03*
X165317610Y-122155500D03*
%TD*%
D10*
%TO.C,D18*%
X91800100Y-77290700D03*
X88650100Y-77290700D03*
%TD*%
%TO.C,D20*%
X91506600Y-114980000D03*
X88356600Y-114980000D03*
%TD*%
%TO.C,D8*%
X53559600Y-81714800D03*
X50409600Y-81714800D03*
%TD*%
%TO.C,D21*%
X111094000Y-43591000D03*
X107944000Y-43591000D03*
%TD*%
%TO.C,D5*%
X34685200Y-124536900D03*
X31535200Y-124536900D03*
%TD*%
%TO.C,D11*%
X72797000Y-38917300D03*
X69647000Y-38917300D03*
%TD*%
%TO.C,D27*%
X129996600Y-67571000D03*
X126846600Y-67571000D03*
%TD*%
%TO.C,D14*%
X72691000Y-95920000D03*
X69541000Y-95920000D03*
%TD*%
D12*
%TO.C,D33*%
X193329590Y-116593000D03*
X190601610Y-115018000D03*
%TD*%
D10*
%TO.C,D26*%
X130258800Y-48324900D03*
X127108800Y-48324900D03*
%TD*%
%TO.C,D16*%
X91979100Y-38795200D03*
X88829100Y-38795200D03*
%TD*%
%TO.C,D24*%
X110711300Y-100520500D03*
X107561300Y-100520500D03*
%TD*%
D12*
%TO.C,D30*%
X158139590Y-139986500D03*
X155411610Y-138411500D03*
%TD*%
D10*
%TO.C,D15*%
X72694200Y-114744000D03*
X69544200Y-114744000D03*
%TD*%
%TO.C,D25*%
X110881200Y-119705800D03*
X107731200Y-119705800D03*
%TD*%
D12*
%TO.C,D32*%
X177391290Y-107648500D03*
X174663310Y-106073500D03*
%TD*%
%TO.C,D34*%
X184249290Y-133302500D03*
X181521310Y-131727500D03*
%TD*%
D10*
%TO.C,D23*%
X110946600Y-81541000D03*
X107796600Y-81541000D03*
%TD*%
%TO.C,D7*%
X53581600Y-62605000D03*
X50431600Y-62605000D03*
%TD*%
%TO.C,D12*%
X72712400Y-57770200D03*
X69562400Y-57770200D03*
%TD*%
%TO.C,D3*%
X34612000Y-86416800D03*
X31462000Y-86416800D03*
%TD*%
M02*
