%TF.GenerationSoftware,KiCad,Pcbnew,7.0.1*%
%TF.CreationDate,2023-09-24T18:49:58+08:00*%
%TF.ProjectId,split70kb,73706c69-7437-4306-9b62-2e6b69636164,rev?*%
%TF.SameCoordinates,Original*%
%TF.FileFunction,Paste,Top*%
%TF.FilePolarity,Positive*%
%FSLAX46Y46*%
G04 Gerber Fmt 4.6, Leading zero omitted, Abs format (unit mm)*
G04 Created by KiCad (PCBNEW 7.0.1) date 2023-09-24 18:49:58*
%MOMM*%
%LPD*%
G01*
G04 APERTURE LIST*
G04 Aperture macros list*
%AMRotRect*
0 Rectangle, with rotation*
0 The origin of the aperture is its center*
0 $1 length*
0 $2 width*
0 $3 Rotation angle, in degrees counterclockwise*
0 Add horizontal line*
21,1,$1,$2,0,0,$3*%
G04 Aperture macros list end*
%ADD10R,1.200000X1.200000*%
%ADD11RotRect,1.200000X1.200000X150.000000*%
%ADD12RotRect,1.200000X2.500000X60.000000*%
G04 APERTURE END LIST*
D10*
%TO.C,D50*%
X302620500Y-66588800D03*
X299470500Y-66588800D03*
%TD*%
%TO.C,D51*%
X283578400Y-142693500D03*
X280428400Y-142693500D03*
%TD*%
D11*
%TO.C,D66*%
X209101590Y-61072500D03*
X206373610Y-59497500D03*
%TD*%
D10*
%TO.C,D40*%
X340543400Y-57176400D03*
X337393400Y-57176400D03*
%TD*%
%TO.C,D56*%
X264463200Y-138079400D03*
X261313200Y-138079400D03*
%TD*%
%TO.C,D53*%
X283769000Y-104891600D03*
X280619000Y-104891600D03*
%TD*%
%TO.C,D60*%
X264555100Y-61741700D03*
X261405100Y-61741700D03*
%TD*%
%TO.C,D48*%
X302547000Y-142748000D03*
X299397000Y-142748000D03*
%TD*%
D11*
%TO.C,D69*%
X193059490Y-51671400D03*
X190331510Y-50096400D03*
%TD*%
D10*
%TO.C,D55*%
X283549500Y-66594300D03*
X280399500Y-66594300D03*
%TD*%
%TO.C,D45*%
X321486700Y-61908000D03*
X318336700Y-61908000D03*
%TD*%
%TO.C,D42*%
X321647300Y-118957400D03*
X318497300Y-118957400D03*
%TD*%
D11*
%TO.C,D68*%
X183570190Y-67925000D03*
X180842210Y-66350000D03*
%TD*%
D10*
%TO.C,D39*%
X340655500Y-75994000D03*
X337505500Y-75994000D03*
%TD*%
D11*
%TO.C,D70*%
X202291090Y-35337600D03*
X199563110Y-33762600D03*
%TD*%
D10*
%TO.C,D37*%
X340784300Y-114179400D03*
X337634300Y-114179400D03*
%TD*%
%TO.C,D58*%
X264578400Y-99848300D03*
X261428400Y-99848300D03*
%TD*%
%TO.C,D52*%
X283515000Y-123698000D03*
X280365000Y-123698000D03*
%TD*%
%TO.C,D36*%
X340816300Y-133254900D03*
X337666300Y-133254900D03*
%TD*%
%TO.C,D41*%
X321757600Y-138123600D03*
X318607600Y-138123600D03*
%TD*%
%TO.C,D49*%
X302492600Y-85755200D03*
X299342600Y-85755200D03*
%TD*%
%TO.C,D59*%
X264554400Y-80720000D03*
X261404400Y-80720000D03*
%TD*%
%TO.C,D61*%
X245367600Y-133197100D03*
X242217600Y-133197100D03*
%TD*%
%TO.C,D47*%
X302567700Y-123653400D03*
X299417700Y-123653400D03*
%TD*%
%TO.C,D64*%
X245474600Y-76072600D03*
X242324600Y-76072600D03*
%TD*%
D11*
%TO.C,D67*%
X199910290Y-77271900D03*
X197182310Y-75696900D03*
%TD*%
%TO.C,D65*%
X218627590Y-44759000D03*
X215899610Y-43184000D03*
%TD*%
D10*
%TO.C,D57*%
X264439200Y-118902700D03*
X261289200Y-118902700D03*
%TD*%
D12*
%TO.C,J1*%
X204264917Y-91608754D03*
X202764917Y-94206831D03*
X212444083Y-90442025D03*
X206264917Y-88144653D03*
%TD*%
D10*
%TO.C,D63*%
X245444800Y-95157200D03*
X242294800Y-95157200D03*
%TD*%
%TO.C,D54*%
X283644700Y-85612900D03*
X280494700Y-85612900D03*
%TD*%
%TO.C,D43*%
X321654400Y-99909800D03*
X318504400Y-99909800D03*
%TD*%
%TO.C,D38*%
X340559200Y-95198000D03*
X337409200Y-95198000D03*
%TD*%
%TO.C,D44*%
X321732000Y-80866100D03*
X318582000Y-80866100D03*
%TD*%
%TO.C,D46*%
X302560400Y-104657300D03*
X299410400Y-104657300D03*
%TD*%
%TO.C,D62*%
X245429900Y-114228200D03*
X242279900Y-114228200D03*
%TD*%
M02*
