%TF.GenerationSoftware,KiCad,Pcbnew,8.0.3*%
%TF.CreationDate,2024-07-04T12:22:57-04:00*%
%TF.ProjectId,vfd-tool,7666642d-746f-46f6-9c2e-6b696361645f,rev?*%
%TF.SameCoordinates,Original*%
%TF.FileFunction,Paste,Top*%
%TF.FilePolarity,Positive*%
%FSLAX46Y46*%
G04 Gerber Fmt 4.6, Leading zero omitted, Abs format (unit mm)*
G04 Created by KiCad (PCBNEW 8.0.3) date 2024-07-04 12:22:57*
%MOMM*%
%LPD*%
G01*
G04 APERTURE LIST*
G04 Aperture macros list*
%AMRoundRect*
0 Rectangle with rounded corners*
0 $1 Rounding radius*
0 $2 $3 $4 $5 $6 $7 $8 $9 X,Y pos of 4 corners*
0 Add a 4 corners polygon primitive as box body*
4,1,4,$2,$3,$4,$5,$6,$7,$8,$9,$2,$3,0*
0 Add four circle primitives for the rounded corners*
1,1,$1+$1,$2,$3*
1,1,$1+$1,$4,$5*
1,1,$1+$1,$6,$7*
1,1,$1+$1,$8,$9*
0 Add four rect primitives between the rounded corners*
20,1,$1+$1,$2,$3,$4,$5,0*
20,1,$1+$1,$4,$5,$6,$7,0*
20,1,$1+$1,$6,$7,$8,$9,0*
20,1,$1+$1,$8,$9,$2,$3,0*%
G04 Aperture macros list end*
%ADD10C,0.010000*%
%ADD11RoundRect,0.160000X-0.197500X-0.160000X0.197500X-0.160000X0.197500X0.160000X-0.197500X0.160000X0*%
%ADD12RoundRect,0.155000X0.212500X0.155000X-0.212500X0.155000X-0.212500X-0.155000X0.212500X-0.155000X0*%
%ADD13RoundRect,0.160000X-0.160000X0.197500X-0.160000X-0.197500X0.160000X-0.197500X0.160000X0.197500X0*%
%ADD14RoundRect,0.237500X0.237500X-0.287500X0.237500X0.287500X-0.237500X0.287500X-0.237500X-0.287500X0*%
%ADD15RoundRect,0.112500X-0.187500X-0.112500X0.187500X-0.112500X0.187500X0.112500X-0.187500X0.112500X0*%
%ADD16RoundRect,0.155000X-0.155000X0.212500X-0.155000X-0.212500X0.155000X-0.212500X0.155000X0.212500X0*%
%ADD17RoundRect,0.250000X0.250000X0.475000X-0.250000X0.475000X-0.250000X-0.475000X0.250000X-0.475000X0*%
%ADD18RoundRect,0.155000X-0.212500X-0.155000X0.212500X-0.155000X0.212500X0.155000X-0.212500X0.155000X0*%
%ADD19RoundRect,0.225000X0.225000X0.250000X-0.225000X0.250000X-0.225000X-0.250000X0.225000X-0.250000X0*%
%ADD20RoundRect,0.160000X0.197500X0.160000X-0.197500X0.160000X-0.197500X-0.160000X0.197500X-0.160000X0*%
%ADD21RoundRect,0.135000X0.135000X0.185000X-0.135000X0.185000X-0.135000X-0.185000X0.135000X-0.185000X0*%
%ADD22RoundRect,0.150000X0.150000X-0.650000X0.150000X0.650000X-0.150000X0.650000X-0.150000X-0.650000X0*%
%ADD23R,3.500000X2.350000*%
%ADD24RoundRect,0.140000X0.170000X-0.140000X0.170000X0.140000X-0.170000X0.140000X-0.170000X-0.140000X0*%
%ADD25RoundRect,0.135000X0.185000X-0.135000X0.185000X0.135000X-0.185000X0.135000X-0.185000X-0.135000X0*%
%ADD26RoundRect,0.250000X-0.250000X0.250000X-0.250000X-0.250000X0.250000X-0.250000X0.250000X0.250000X0*%
%ADD27RoundRect,0.250000X0.475000X-0.250000X0.475000X0.250000X-0.475000X0.250000X-0.475000X-0.250000X0*%
%ADD28RoundRect,0.225000X-0.250000X0.225000X-0.250000X-0.225000X0.250000X-0.225000X0.250000X0.225000X0*%
%ADD29RoundRect,0.250000X-2.500000X0.250000X-2.500000X-0.250000X2.500000X-0.250000X2.500000X0.250000X0*%
%ADD30RoundRect,0.250000X-1.250000X0.550000X-1.250000X-0.550000X1.250000X-0.550000X1.250000X0.550000X0*%
%ADD31R,1.700000X0.900000*%
%ADD32RoundRect,0.218750X0.256250X-0.218750X0.256250X0.218750X-0.256250X0.218750X-0.256250X-0.218750X0*%
%ADD33RoundRect,0.060000X-0.060000X-0.180000X0.060000X-0.180000X0.060000X0.180000X-0.060000X0.180000X0*%
%ADD34RoundRect,0.062500X-0.325000X-0.062500X0.325000X-0.062500X0.325000X0.062500X-0.325000X0.062500X0*%
%ADD35R,2.350000X3.500000*%
%ADD36RoundRect,0.250000X-0.450000X-0.800000X0.450000X-0.800000X0.450000X0.800000X-0.450000X0.800000X0*%
%ADD37RoundRect,0.140000X-0.140000X-0.170000X0.140000X-0.170000X0.140000X0.170000X-0.140000X0.170000X0*%
%ADD38RoundRect,0.218750X-0.256250X0.218750X-0.256250X-0.218750X0.256250X-0.218750X0.256250X0.218750X0*%
%ADD39RoundRect,0.155000X0.155000X-0.212500X0.155000X0.212500X-0.155000X0.212500X-0.155000X-0.212500X0*%
%ADD40RoundRect,0.225000X0.250000X-0.225000X0.250000X0.225000X-0.250000X0.225000X-0.250000X-0.225000X0*%
%ADD41RoundRect,0.140000X0.140000X0.170000X-0.140000X0.170000X-0.140000X-0.170000X0.140000X-0.170000X0*%
%ADD42RoundRect,0.160000X0.160000X-0.197500X0.160000X0.197500X-0.160000X0.197500X-0.160000X-0.197500X0*%
%ADD43RoundRect,0.150000X0.150000X-0.512500X0.150000X0.512500X-0.150000X0.512500X-0.150000X-0.512500X0*%
%ADD44RoundRect,0.237500X0.300000X0.237500X-0.300000X0.237500X-0.300000X-0.237500X0.300000X-0.237500X0*%
%ADD45R,0.700000X0.700000*%
%ADD46RoundRect,0.009100X-0.120900X-0.540900X0.120900X-0.540900X0.120900X0.540900X-0.120900X0.540900X0*%
%ADD47RoundRect,0.009100X0.540900X-0.120900X0.540900X0.120900X-0.540900X0.120900X-0.540900X-0.120900X0*%
%ADD48RoundRect,0.009100X0.120900X0.540900X-0.120900X0.540900X-0.120900X-0.540900X0.120900X-0.540900X0*%
%ADD49RoundRect,0.009100X-0.540900X0.120900X-0.540900X-0.120900X0.540900X-0.120900X0.540900X0.120900X0*%
%ADD50RoundRect,0.250000X0.800000X-0.450000X0.800000X0.450000X-0.800000X0.450000X-0.800000X-0.450000X0*%
%ADD51R,1.200000X1.400000*%
%ADD52RoundRect,0.160000X0.160000X0.160000X-0.160000X0.160000X-0.160000X-0.160000X0.160000X-0.160000X0*%
%ADD53RoundRect,0.062500X0.375000X0.062500X-0.375000X0.062500X-0.375000X-0.062500X0.375000X-0.062500X0*%
%ADD54RoundRect,0.062500X0.062500X0.375000X-0.062500X0.375000X-0.062500X-0.375000X0.062500X-0.375000X0*%
%ADD55R,1.400000X1.200000*%
%ADD56RoundRect,0.237500X-0.300000X-0.237500X0.300000X-0.237500X0.300000X0.237500X-0.300000X0.237500X0*%
%ADD57RoundRect,0.200000X0.275000X-0.200000X0.275000X0.200000X-0.275000X0.200000X-0.275000X-0.200000X0*%
%ADD58R,0.900000X1.700000*%
%ADD59RoundRect,0.150000X-0.512500X-0.150000X0.512500X-0.150000X0.512500X0.150000X-0.512500X0.150000X0*%
%ADD60RoundRect,0.225000X-0.225000X-0.250000X0.225000X-0.250000X0.225000X0.250000X-0.225000X0.250000X0*%
%ADD61RoundRect,0.135000X-0.135000X-0.185000X0.135000X-0.185000X0.135000X0.185000X-0.135000X0.185000X0*%
%ADD62RoundRect,0.135000X-0.185000X0.135000X-0.185000X-0.135000X0.185000X-0.135000X0.185000X0.135000X0*%
%ADD63RoundRect,0.250000X-0.475000X0.250000X-0.475000X-0.250000X0.475000X-0.250000X0.475000X0.250000X0*%
%ADD64RoundRect,0.150000X-0.825000X-0.150000X0.825000X-0.150000X0.825000X0.150000X-0.825000X0.150000X0*%
%ADD65R,0.700000X0.300000*%
%ADD66R,1.000000X0.300000*%
%ADD67RoundRect,0.249999X0.395001X-0.395001X0.395001X0.395001X-0.395001X0.395001X-0.395001X-0.395001X0*%
%ADD68RoundRect,0.050000X0.050000X-0.387500X0.050000X0.387500X-0.050000X0.387500X-0.050000X-0.387500X0*%
%ADD69RoundRect,0.050000X0.387500X-0.050000X0.387500X0.050000X-0.387500X0.050000X-0.387500X-0.050000X0*%
%ADD70R,1.000000X1.800000*%
%ADD71R,1.240000X0.600000*%
%ADD72R,1.240000X0.300000*%
%ADD73RoundRect,0.145000X-0.145000X-0.145000X0.145000X-0.145000X0.145000X0.145000X-0.145000X0.145000X0*%
%ADD74RoundRect,0.062500X-0.275000X-0.062500X0.275000X-0.062500X0.275000X0.062500X-0.275000X0.062500X0*%
%ADD75RoundRect,0.062500X-0.062500X-0.275000X0.062500X-0.275000X0.062500X0.275000X-0.062500X0.275000X0*%
%ADD76RoundRect,0.150000X0.150000X-0.825000X0.150000X0.825000X-0.150000X0.825000X-0.150000X-0.825000X0*%
%ADD77RoundRect,0.250000X1.000000X-1.400000X1.000000X1.400000X-1.000000X1.400000X-1.000000X-1.400000X0*%
%ADD78RoundRect,0.160000X-0.160000X0.222500X-0.160000X-0.222500X0.160000X-0.222500X0.160000X0.222500X0*%
%ADD79RoundRect,0.237500X-0.237500X0.300000X-0.237500X-0.300000X0.237500X-0.300000X0.237500X0.300000X0*%
G04 APERTURE END LIST*
D10*
%TO.C,U2*%
X195946700Y-85144100D02*
X194636700Y-85144100D01*
X194636700Y-83834100D01*
X195946700Y-83834100D01*
X195946700Y-85144100D01*
G36*
X195946700Y-85144100D02*
G01*
X194636700Y-85144100D01*
X194636700Y-83834100D01*
X195946700Y-83834100D01*
X195946700Y-85144100D01*
G37*
X195946700Y-86814100D02*
X194636700Y-86814100D01*
X194636700Y-85504100D01*
X195946700Y-85504100D01*
X195946700Y-86814100D01*
G36*
X195946700Y-86814100D02*
G01*
X194636700Y-86814100D01*
X194636700Y-85504100D01*
X195946700Y-85504100D01*
X195946700Y-86814100D01*
G37*
X197616700Y-85144100D02*
X196306700Y-85144100D01*
X196306700Y-83834100D01*
X197616700Y-83834100D01*
X197616700Y-85144100D01*
G36*
X197616700Y-85144100D02*
G01*
X196306700Y-85144100D01*
X196306700Y-83834100D01*
X197616700Y-83834100D01*
X197616700Y-85144100D01*
G37*
X197616700Y-86814100D02*
X196306700Y-86814100D01*
X196306700Y-85504100D01*
X197616700Y-85504100D01*
X197616700Y-86814100D01*
G36*
X197616700Y-86814100D02*
G01*
X196306700Y-86814100D01*
X196306700Y-85504100D01*
X197616700Y-85504100D01*
X197616700Y-86814100D01*
G37*
%TD*%
D11*
%TO.C,R25*%
X218944900Y-99816500D03*
X220139900Y-99816500D03*
%TD*%
D12*
%TO.C,C63*%
X226255200Y-77647800D03*
X225120200Y-77647800D03*
%TD*%
D13*
%TO.C,R42*%
X221823900Y-112592582D03*
X221823900Y-113787582D03*
%TD*%
D11*
%TO.C,R14*%
X203403200Y-80277300D03*
X204598200Y-80277300D03*
%TD*%
D12*
%TO.C,C14*%
X190373000Y-84759800D03*
X189238000Y-84759800D03*
%TD*%
D14*
%TO.C,D11*%
X220086400Y-106046082D03*
X220086400Y-104296082D03*
%TD*%
D12*
%TO.C,C51*%
X180797200Y-82600800D03*
X179662200Y-82600800D03*
%TD*%
D15*
%TO.C,D5*%
X224080400Y-93212500D03*
X226180400Y-93212500D03*
%TD*%
D12*
%TO.C,C23*%
X219413900Y-79095600D03*
X218278900Y-79095600D03*
%TD*%
D16*
%TO.C,C10*%
X200698700Y-88599800D03*
X200698700Y-89734800D03*
%TD*%
D17*
%TO.C,C39*%
X175270200Y-92633800D03*
X173370200Y-92633800D03*
%TD*%
D18*
%TO.C,C6*%
X201020200Y-80277300D03*
X202155200Y-80277300D03*
%TD*%
D19*
%TO.C,C54*%
X157799400Y-85645000D03*
X156249400Y-85645000D03*
%TD*%
D16*
%TO.C,C13*%
X195339300Y-91649000D03*
X195339300Y-92784000D03*
%TD*%
D20*
%TO.C,R52*%
X166834100Y-82659200D03*
X165639100Y-82659200D03*
%TD*%
D21*
%TO.C,R16*%
X216691400Y-96901000D03*
X215671400Y-96901000D03*
%TD*%
D22*
%TO.C,U6*%
X211861400Y-89020200D03*
X213131400Y-89020200D03*
X214401400Y-89020200D03*
X215671400Y-89020200D03*
X215671400Y-81820200D03*
X214401400Y-81820200D03*
X213131400Y-81820200D03*
X211861400Y-81820200D03*
%TD*%
D12*
%TO.C,C56*%
X180805900Y-83693000D03*
X179670900Y-83693000D03*
%TD*%
D21*
%TO.C,R56*%
X180723000Y-87164800D03*
X179703000Y-87164800D03*
%TD*%
D13*
%TO.C,R15*%
X197574500Y-91605700D03*
X197574500Y-92800700D03*
%TD*%
D20*
%TO.C,R23*%
X190403000Y-88061800D03*
X189208000Y-88061800D03*
%TD*%
D12*
%TO.C,C25*%
X217569900Y-99435500D03*
X216434900Y-99435500D03*
%TD*%
D23*
%TO.C,L1*%
X151281600Y-82634200D03*
X151281600Y-76584200D03*
%TD*%
D12*
%TO.C,C50*%
X166583500Y-89124800D03*
X165448500Y-89124800D03*
%TD*%
D24*
%TO.C,C33*%
X220558400Y-93692500D03*
X220558400Y-92732500D03*
%TD*%
D12*
%TO.C,C49*%
X166751600Y-79359200D03*
X165616600Y-79359200D03*
%TD*%
D25*
%TO.C,C16*%
X196138800Y-80114600D03*
X196138800Y-79094600D03*
%TD*%
D12*
%TO.C,C7*%
X190373000Y-86944200D03*
X189238000Y-86944200D03*
%TD*%
D26*
%TO.C,D9*%
X219241900Y-112829082D03*
X219241900Y-115329082D03*
%TD*%
D20*
%TO.C,R54*%
X166703000Y-92477600D03*
X165508000Y-92477600D03*
%TD*%
D13*
%TO.C,R19*%
X194221700Y-91606900D03*
X194221700Y-92801900D03*
%TD*%
D12*
%TO.C,C57*%
X219619400Y-117308082D03*
X218484400Y-117308082D03*
%TD*%
D18*
%TO.C,C4*%
X203433200Y-88151300D03*
X204568200Y-88151300D03*
%TD*%
D11*
%TO.C,R29*%
X218944900Y-102102500D03*
X220139900Y-102102500D03*
%TD*%
D16*
%TO.C,C47*%
X178765200Y-90012900D03*
X178765200Y-91147900D03*
%TD*%
D13*
%TO.C,R35*%
X212090000Y-91121900D03*
X212090000Y-92316900D03*
%TD*%
D27*
%TO.C,C55*%
X181660800Y-77266800D03*
X181660800Y-75366800D03*
%TD*%
D13*
%TO.C,R36*%
X210972400Y-91121900D03*
X210972400Y-92316900D03*
%TD*%
D28*
%TO.C,C40*%
X156131600Y-80384200D03*
X156131600Y-81934200D03*
%TD*%
D29*
%TO.C,J9*%
X230038400Y-106111800D03*
X230038400Y-108111800D03*
D30*
X232288400Y-103711800D03*
X232288400Y-110511800D03*
%TD*%
D11*
%TO.C,R55*%
X165508000Y-91360000D03*
X166703000Y-91360000D03*
%TD*%
%TO.C,R10*%
X208546100Y-89458800D03*
X209741100Y-89458800D03*
%TD*%
D13*
%TO.C,R21*%
X193078700Y-91617800D03*
X193078700Y-92812800D03*
%TD*%
D31*
%TO.C,SW2*%
X209143600Y-86840800D03*
X209143600Y-83440800D03*
%TD*%
D32*
%TO.C,D4*%
X234379450Y-76872150D03*
X234379450Y-75297150D03*
%TD*%
D20*
%TO.C,R43*%
X166829100Y-80459200D03*
X165634100Y-80459200D03*
%TD*%
D13*
%TO.C,R50*%
X218689400Y-104940582D03*
X218689400Y-106135582D03*
%TD*%
D33*
%TO.C,U9*%
X221864400Y-116258082D03*
X221864400Y-116858082D03*
X222164400Y-116258082D03*
X222164400Y-116858082D03*
D34*
X221051900Y-115808082D03*
X221051900Y-116308082D03*
X221051900Y-116808082D03*
X221051900Y-117308082D03*
X222976900Y-117308082D03*
X222976900Y-116808082D03*
X222976900Y-116308082D03*
X222976900Y-115808082D03*
%TD*%
D13*
%TO.C,R22*%
X191961100Y-91617800D03*
X191961100Y-92812800D03*
%TD*%
D32*
%TO.C,D1*%
X202355700Y-93245900D03*
X202355700Y-91670900D03*
%TD*%
D35*
%TO.C,L3*%
X173047800Y-78130400D03*
X179097800Y-78130400D03*
%TD*%
D18*
%TO.C,C15*%
X231258300Y-82499200D03*
X232393300Y-82499200D03*
%TD*%
D25*
%TO.C,R20*%
X233058650Y-76188250D03*
X233058650Y-75168250D03*
%TD*%
D36*
%TO.C,D13*%
X212425400Y-109489082D03*
X216825400Y-109489082D03*
%TD*%
D14*
%TO.C,D12*%
X221737400Y-106046082D03*
X221737400Y-104296082D03*
%TD*%
D24*
%TO.C,C35*%
X221574400Y-93689900D03*
X221574400Y-92729900D03*
%TD*%
D37*
%TO.C,C31*%
X158303200Y-116408200D03*
X159263200Y-116408200D03*
%TD*%
D11*
%TO.C,R39*%
X224164400Y-109951082D03*
X225359400Y-109951082D03*
%TD*%
D38*
%TO.C,D15*%
X231368600Y-116509800D03*
X231368600Y-118084800D03*
%TD*%
D39*
%TO.C,C62*%
X199682700Y-81310700D03*
X199682700Y-80175700D03*
%TD*%
D13*
%TO.C,R2*%
X220921350Y-74809050D03*
X220921350Y-76004050D03*
%TD*%
D12*
%TO.C,C11*%
X219363100Y-85471000D03*
X218228100Y-85471000D03*
%TD*%
D40*
%TO.C,C43*%
X157681600Y-81934200D03*
X157681600Y-80384200D03*
%TD*%
D20*
%TO.C,R38*%
X225359400Y-111094082D03*
X224164400Y-111094082D03*
%TD*%
D41*
%TO.C,C34*%
X148468200Y-120091200D03*
X147508200Y-120091200D03*
%TD*%
D13*
%TO.C,R1*%
X198717500Y-91605700D03*
X198717500Y-92800700D03*
%TD*%
D42*
%TO.C,R4*%
X203752700Y-92674900D03*
X203752700Y-91479900D03*
%TD*%
D43*
%TO.C,U3*%
X223672400Y-98160000D03*
X224622400Y-98160000D03*
X225572400Y-98160000D03*
X225572400Y-95885000D03*
X224622400Y-95885000D03*
X223672400Y-95885000D03*
%TD*%
D21*
%TO.C,R49*%
X180723000Y-84785200D03*
X179703000Y-84785200D03*
%TD*%
D12*
%TO.C,C17*%
X219363100Y-84429600D03*
X218228100Y-84429600D03*
%TD*%
D16*
%TO.C,C21*%
X225679000Y-89170700D03*
X225679000Y-90305700D03*
%TD*%
D39*
%TO.C,C46*%
X170865800Y-81110900D03*
X170865800Y-79975900D03*
%TD*%
D44*
%TO.C,C61*%
X225526900Y-106308082D03*
X223801900Y-106308082D03*
%TD*%
D11*
%TO.C,R32*%
X158338100Y-118948200D03*
X159533100Y-118948200D03*
%TD*%
D45*
%TO.C,D2*%
X234577800Y-82652200D03*
X235677800Y-82652200D03*
X235677800Y-80822200D03*
X234577800Y-80822200D03*
%TD*%
D20*
%TO.C,R34*%
X159507700Y-120269000D03*
X158312700Y-120269000D03*
%TD*%
D12*
%TO.C,C26*%
X148403300Y-115392200D03*
X147268300Y-115392200D03*
%TD*%
D11*
%TO.C,R5*%
X218265600Y-82321400D03*
X219460600Y-82321400D03*
%TD*%
D12*
%TO.C,C18*%
X219363100Y-83388200D03*
X218228100Y-83388200D03*
%TD*%
D46*
%TO.C,U2*%
X198126700Y-82509100D03*
X197626700Y-82509100D03*
X197126700Y-82509100D03*
X196626700Y-82509100D03*
X196126700Y-82509100D03*
X195626700Y-82509100D03*
X195126700Y-82509100D03*
X194626700Y-82509100D03*
X194126700Y-82509100D03*
D47*
X193311700Y-83324100D03*
X193311700Y-83824100D03*
X193311700Y-84324100D03*
X193311700Y-84824100D03*
X193311700Y-85324100D03*
X193311700Y-85824100D03*
X193311700Y-86324100D03*
X193311700Y-86824100D03*
X193311700Y-87324100D03*
D48*
X194126700Y-88139100D03*
X194626700Y-88139100D03*
X195126700Y-88139100D03*
X195626700Y-88139100D03*
X196126700Y-88139100D03*
X196626700Y-88139100D03*
X197126700Y-88139100D03*
X197626700Y-88139100D03*
X198126700Y-88139100D03*
D49*
X198941700Y-87324100D03*
X198941700Y-86824100D03*
X198941700Y-86324100D03*
X198941700Y-85824100D03*
X198941700Y-85324100D03*
X198941700Y-84824100D03*
X198941700Y-84324100D03*
X198941700Y-83824100D03*
X198941700Y-83324100D03*
%TD*%
D12*
%TO.C,C27*%
X148403300Y-119024400D03*
X147268300Y-119024400D03*
%TD*%
D50*
%TO.C,D14*%
X184327800Y-80127200D03*
X184327800Y-75727200D03*
%TD*%
D51*
%TO.C,Y2*%
X203658700Y-84257300D03*
X203658700Y-86457300D03*
X205358700Y-86457300D03*
X205358700Y-84257300D03*
%TD*%
D25*
%TO.C,R46*%
X176682400Y-91088400D03*
X176682400Y-90068400D03*
%TD*%
D42*
%TO.C,R41*%
X222924900Y-113787582D03*
X222924900Y-112592582D03*
%TD*%
D19*
%TO.C,C28*%
X217523400Y-98165500D03*
X215973400Y-98165500D03*
%TD*%
D13*
%TO.C,R13*%
X201003500Y-91569400D03*
X201003500Y-92764400D03*
%TD*%
D11*
%TO.C,R27*%
X218944900Y-100987500D03*
X220139900Y-100987500D03*
%TD*%
D50*
%TO.C,D10*%
X171424600Y-87858600D03*
X171424600Y-83458600D03*
%TD*%
D52*
%TO.C,U11*%
X220740400Y-109889082D03*
X220740400Y-109089082D03*
X219940400Y-109889082D03*
X219940400Y-109089082D03*
D53*
X221777900Y-110239082D03*
X221777900Y-109739082D03*
X221777900Y-109239082D03*
X221777900Y-108739082D03*
D54*
X221090400Y-108051582D03*
X220590400Y-108051582D03*
X220090400Y-108051582D03*
X219590400Y-108051582D03*
D53*
X218902900Y-108739082D03*
X218902900Y-109239082D03*
X218902900Y-109739082D03*
X218902900Y-110239082D03*
D54*
X219590400Y-110926582D03*
X220090400Y-110926582D03*
X220590400Y-110926582D03*
X221090400Y-110926582D03*
%TD*%
D19*
%TO.C,C59*%
X157773400Y-87296000D03*
X156223400Y-87296000D03*
%TD*%
D18*
%TO.C,C19*%
X234543600Y-79578200D03*
X235678600Y-79578200D03*
%TD*%
D55*
%TO.C,Y1*%
X233822600Y-86106000D03*
X231622600Y-86106000D03*
X231622600Y-87806000D03*
X233822600Y-87806000D03*
%TD*%
D56*
%TO.C,C52*%
X214551900Y-107058082D03*
X216276900Y-107058082D03*
%TD*%
D39*
%TO.C,C24*%
X222504000Y-79104300D03*
X222504000Y-77969300D03*
%TD*%
D27*
%TO.C,C32*%
X219034400Y-93654500D03*
X219034400Y-91754500D03*
%TD*%
D20*
%TO.C,R11*%
X209741100Y-88392000D03*
X208546100Y-88392000D03*
%TD*%
%TO.C,R6*%
X219460600Y-81254600D03*
X218265600Y-81254600D03*
%TD*%
D23*
%TO.C,L2*%
X151282400Y-92410000D03*
X151282400Y-86360000D03*
%TD*%
D57*
%TO.C,R45*%
X224164400Y-114308082D03*
X224164400Y-112658082D03*
%TD*%
D42*
%TO.C,R3*%
X222064350Y-76004050D03*
X222064350Y-74809050D03*
%TD*%
D12*
%TO.C,C8*%
X219405200Y-80187800D03*
X218270200Y-80187800D03*
%TD*%
D17*
%TO.C,C42*%
X175295600Y-90551000D03*
X173395600Y-90551000D03*
%TD*%
D25*
%TO.C,R18*%
X232714800Y-113987600D03*
X232714800Y-112967600D03*
%TD*%
%TO.C,R58*%
X232714800Y-117322600D03*
X232714800Y-116302600D03*
%TD*%
D16*
%TO.C,C20*%
X222707200Y-89196100D03*
X222707200Y-90331100D03*
%TD*%
D57*
%TO.C,R48*%
X225664400Y-114308082D03*
X225664400Y-112658082D03*
%TD*%
D20*
%TO.C,R24*%
X190407600Y-83680900D03*
X189212600Y-83680900D03*
%TD*%
D42*
%TO.C,R7*%
X204895700Y-92674900D03*
X204895700Y-91479900D03*
%TD*%
D19*
%TO.C,C53*%
X157681600Y-77359200D03*
X156131600Y-77359200D03*
%TD*%
D28*
%TO.C,C41*%
X156135400Y-90077000D03*
X156135400Y-91627000D03*
%TD*%
D58*
%TO.C,SW1*%
X223361550Y-75508150D03*
X226761550Y-75508150D03*
%TD*%
D59*
%TO.C,U8*%
X161093900Y-89902000D03*
X161093900Y-90852000D03*
X161093900Y-91802000D03*
X163368900Y-91802000D03*
X163368900Y-90852000D03*
X163368900Y-89902000D03*
%TD*%
D18*
%TO.C,C22*%
X231241600Y-83566000D03*
X232376600Y-83566000D03*
%TD*%
D60*
%TO.C,C37*%
X208470200Y-81838800D03*
X210020200Y-81838800D03*
%TD*%
D12*
%TO.C,C3*%
X190377600Y-82512500D03*
X189242600Y-82512500D03*
%TD*%
D61*
%TO.C,R57*%
X179703000Y-86063800D03*
X180723000Y-86063800D03*
%TD*%
D60*
%TO.C,C45*%
X176821800Y-92500000D03*
X178371800Y-92500000D03*
%TD*%
D62*
%TO.C,R47*%
X177749200Y-90043000D03*
X177749200Y-91063000D03*
%TD*%
D20*
%TO.C,R40*%
X225359400Y-108808082D03*
X224164400Y-108808082D03*
%TD*%
D42*
%TO.C,R12*%
X199860500Y-92801900D03*
X199860500Y-91606900D03*
%TD*%
D12*
%TO.C,C12*%
X190373000Y-85877400D03*
X189238000Y-85877400D03*
%TD*%
D18*
%TO.C,C5*%
X203433200Y-82563300D03*
X204568200Y-82563300D03*
%TD*%
D50*
%TO.C,D6*%
X145973800Y-92827200D03*
X145973800Y-88427200D03*
%TD*%
D40*
%TO.C,C44*%
X157659400Y-91627000D03*
X157659400Y-90077000D03*
%TD*%
D63*
%TO.C,C60*%
X181660800Y-78922800D03*
X181660800Y-80822800D03*
%TD*%
D59*
%TO.C,U7*%
X161094100Y-80159200D03*
X161094100Y-81109200D03*
X161094100Y-82059200D03*
X163369100Y-82059200D03*
X163369100Y-81109200D03*
X163369100Y-80159200D03*
%TD*%
D12*
%TO.C,C2*%
X234704700Y-84658200D03*
X233569700Y-84658200D03*
%TD*%
D64*
%TO.C,U5*%
X151115400Y-116459000D03*
X151115400Y-117729000D03*
X151115400Y-118999000D03*
X151115400Y-120269000D03*
X156065400Y-120269000D03*
X156065400Y-118999000D03*
X156065400Y-117729000D03*
X156065400Y-116459000D03*
%TD*%
D65*
%TO.C,J4*%
X145568200Y-110555600D03*
X145568200Y-110055600D03*
X145568200Y-109555600D03*
X145568200Y-109055600D03*
X145568200Y-108555600D03*
X145568200Y-108055600D03*
X145568200Y-107555600D03*
X145568200Y-107055600D03*
X145568200Y-106555600D03*
X145568200Y-106055600D03*
D66*
X148218200Y-111345600D03*
X148218200Y-105265600D03*
%TD*%
D38*
%TO.C,D3*%
X231343200Y-113094500D03*
X231343200Y-114669500D03*
%TD*%
D67*
%TO.C,U1*%
X224498000Y-84620000D03*
X226098000Y-84620000D03*
X224498000Y-83020000D03*
X226098000Y-83020000D03*
D68*
X222698000Y-87257500D03*
X223098000Y-87257500D03*
X223498000Y-87257500D03*
X223898000Y-87257500D03*
X224298000Y-87257500D03*
X224698000Y-87257500D03*
X225098000Y-87257500D03*
X225498000Y-87257500D03*
X225898000Y-87257500D03*
X226298000Y-87257500D03*
X226698000Y-87257500D03*
X227098000Y-87257500D03*
X227498000Y-87257500D03*
X227898000Y-87257500D03*
D69*
X228735500Y-86420000D03*
X228735500Y-86020000D03*
X228735500Y-85620000D03*
X228735500Y-85220000D03*
X228735500Y-84820000D03*
X228735500Y-84420000D03*
X228735500Y-84020000D03*
X228735500Y-83620000D03*
X228735500Y-83220000D03*
X228735500Y-82820000D03*
X228735500Y-82420000D03*
X228735500Y-82020000D03*
X228735500Y-81620000D03*
X228735500Y-81220000D03*
D68*
X227898000Y-80382500D03*
X227498000Y-80382500D03*
X227098000Y-80382500D03*
X226698000Y-80382500D03*
X226298000Y-80382500D03*
X225898000Y-80382500D03*
X225498000Y-80382500D03*
X225098000Y-80382500D03*
X224698000Y-80382500D03*
X224298000Y-80382500D03*
X223898000Y-80382500D03*
X223498000Y-80382500D03*
X223098000Y-80382500D03*
X222698000Y-80382500D03*
D69*
X221860500Y-81220000D03*
X221860500Y-81620000D03*
X221860500Y-82020000D03*
X221860500Y-82420000D03*
X221860500Y-82820000D03*
X221860500Y-83220000D03*
X221860500Y-83620000D03*
X221860500Y-84020000D03*
X221860500Y-84420000D03*
X221860500Y-84820000D03*
X221860500Y-85220000D03*
X221860500Y-85620000D03*
X221860500Y-86020000D03*
X221860500Y-86420000D03*
%TD*%
D70*
%TO.C,Y3*%
X145767600Y-117119400D03*
X148267600Y-117119400D03*
%TD*%
D11*
%TO.C,R37*%
X158338100Y-117703600D03*
X159533100Y-117703600D03*
%TD*%
D19*
%TO.C,C58*%
X157706600Y-75759200D03*
X156156600Y-75759200D03*
%TD*%
D18*
%TO.C,C38*%
X224194400Y-107665082D03*
X225329400Y-107665082D03*
%TD*%
D71*
%TO.C,J2*%
X229090400Y-100064500D03*
X229090400Y-99264500D03*
D72*
X229090400Y-98114500D03*
X229090400Y-97114500D03*
X229090400Y-96614500D03*
X229090400Y-95614500D03*
D71*
X229090400Y-94464500D03*
X229090400Y-93664500D03*
X229090400Y-93664500D03*
X229090400Y-94464500D03*
D72*
X229090400Y-95114500D03*
X229090400Y-96114500D03*
X229090400Y-97614500D03*
X229090400Y-98614500D03*
D71*
X229090400Y-99264500D03*
X229090400Y-100064500D03*
%TD*%
D11*
%TO.C,R53*%
X165636600Y-81559200D03*
X166831600Y-81559200D03*
%TD*%
D73*
%TO.C,U4*%
X219923400Y-96641500D03*
X219923400Y-97361500D03*
X220643400Y-96641500D03*
X220643400Y-97361500D03*
D74*
X219020900Y-96501500D03*
X219020900Y-97001500D03*
X219020900Y-97501500D03*
D75*
X219533400Y-98264000D03*
X220033400Y-98264000D03*
X220533400Y-98264000D03*
X221033400Y-98264000D03*
D74*
X221545900Y-97501500D03*
X221545900Y-97001500D03*
X221545900Y-96501500D03*
D75*
X221033400Y-95739000D03*
X220533400Y-95739000D03*
X220033400Y-95739000D03*
X219533400Y-95739000D03*
%TD*%
D11*
%TO.C,R8*%
X231228300Y-84658200D03*
X232423300Y-84658200D03*
%TD*%
D13*
%TO.C,R51*%
X217546400Y-104940582D03*
X217546400Y-106135582D03*
%TD*%
D20*
%TO.C,R44*%
X166703000Y-90242400D03*
X165508000Y-90242400D03*
%TD*%
D76*
%TO.C,U10*%
X174182000Y-88098400D03*
X175452000Y-88098400D03*
X176722000Y-88098400D03*
X177992000Y-88098400D03*
X177992000Y-83148400D03*
X176722000Y-83148400D03*
X175452000Y-83148400D03*
X174182000Y-83148400D03*
%TD*%
D77*
%TO.C,D8*%
X202543200Y-117322600D03*
X209343200Y-117322600D03*
%TD*%
D12*
%TO.C,C1*%
X232402000Y-89230200D03*
X231267000Y-89230200D03*
%TD*%
D78*
%TO.C,F1*%
X220765900Y-112617582D03*
X220765900Y-113762582D03*
%TD*%
D77*
%TO.C,D7*%
X202568600Y-110337600D03*
X209368600Y-110337600D03*
%TD*%
D18*
%TO.C,C9*%
X201020200Y-81420300D03*
X202155200Y-81420300D03*
%TD*%
D39*
%TO.C,C29*%
X217510400Y-93780000D03*
X217510400Y-92645000D03*
%TD*%
D79*
%TO.C,C48*%
X217463900Y-112835582D03*
X217463900Y-114560582D03*
%TD*%
D13*
%TO.C,R17*%
X196456900Y-91619000D03*
X196456900Y-92814000D03*
%TD*%
D11*
%TO.C,R9*%
X203403200Y-81420300D03*
X204598200Y-81420300D03*
%TD*%
D18*
%TO.C,C36*%
X208948400Y-80518000D03*
X210083400Y-80518000D03*
%TD*%
M02*
