%TF.GenerationSoftware,KiCad,Pcbnew,8.0.3*%
%TF.CreationDate,2024-07-04T12:22:57-04:00*%
%TF.ProjectId,vfd-tool,7666642d-746f-46f6-9c2e-6b696361645f,rev?*%
%TF.SameCoordinates,Original*%
%TF.FileFunction,Copper,L4,Bot*%
%TF.FilePolarity,Positive*%
%FSLAX46Y46*%
G04 Gerber Fmt 4.6, Leading zero omitted, Abs format (unit mm)*
G04 Created by KiCad (PCBNEW 8.0.3) date 2024-07-04 12:22:57*
%MOMM*%
%LPD*%
G01*
G04 APERTURE LIST*
G04 Aperture macros list*
%AMRoundRect*
0 Rectangle with rounded corners*
0 $1 Rounding radius*
0 $2 $3 $4 $5 $6 $7 $8 $9 X,Y pos of 4 corners*
0 Add a 4 corners polygon primitive as box body*
4,1,4,$2,$3,$4,$5,$6,$7,$8,$9,$2,$3,0*
0 Add four circle primitives for the rounded corners*
1,1,$1+$1,$2,$3*
1,1,$1+$1,$4,$5*
1,1,$1+$1,$6,$7*
1,1,$1+$1,$8,$9*
0 Add four rect primitives between the rounded corners*
20,1,$1+$1,$2,$3,$4,$5,0*
20,1,$1+$1,$4,$5,$6,$7,0*
20,1,$1+$1,$6,$7,$8,$9,0*
20,1,$1+$1,$8,$9,$2,$3,0*%
G04 Aperture macros list end*
%TA.AperFunction,ComponentPad*%
%ADD10R,1.000000X1.000000*%
%TD*%
%TA.AperFunction,ComponentPad*%
%ADD11O,1.000000X1.000000*%
%TD*%
%TA.AperFunction,ComponentPad*%
%ADD12O,2.100000X1.000000*%
%TD*%
%TA.AperFunction,ComponentPad*%
%ADD13O,1.800000X1.000000*%
%TD*%
%TA.AperFunction,SMDPad,CuDef*%
%ADD14RoundRect,0.225000X-0.250000X0.225000X-0.250000X-0.225000X0.250000X-0.225000X0.250000X0.225000X0*%
%TD*%
%TA.AperFunction,SMDPad,CuDef*%
%ADD15R,0.700000X1.300000*%
%TD*%
%TA.AperFunction,SMDPad,CuDef*%
%ADD16R,1.447800X1.651000*%
%TD*%
%TA.AperFunction,SMDPad,CuDef*%
%ADD17R,1.447800X2.438400*%
%TD*%
%TA.AperFunction,SMDPad,CuDef*%
%ADD18R,1.854200X1.651000*%
%TD*%
%TA.AperFunction,SMDPad,CuDef*%
%ADD19RoundRect,0.160000X0.160000X-0.197500X0.160000X0.197500X-0.160000X0.197500X-0.160000X-0.197500X0*%
%TD*%
%TA.AperFunction,ComponentPad*%
%ADD20R,1.508000X1.508000*%
%TD*%
%TA.AperFunction,ComponentPad*%
%ADD21C,1.508000*%
%TD*%
%TA.AperFunction,SMDPad,CuDef*%
%ADD22R,3.000000X4.200000*%
%TD*%
%TA.AperFunction,ViaPad*%
%ADD23C,0.600000*%
%TD*%
%TA.AperFunction,ViaPad*%
%ADD24C,1.000000*%
%TD*%
%TA.AperFunction,ViaPad*%
%ADD25C,0.500000*%
%TD*%
%TA.AperFunction,Conductor*%
%ADD26C,0.250000*%
%TD*%
%TA.AperFunction,Conductor*%
%ADD27C,0.175000*%
%TD*%
%TA.AperFunction,Conductor*%
%ADD28C,0.200000*%
%TD*%
%TA.AperFunction,Conductor*%
%ADD29C,1.000000*%
%TD*%
G04 APERTURE END LIST*
D10*
%TO.P,J7,1,Pin_1*%
%TO.N,MISO_INTER*%
X179273200Y-109220000D03*
D11*
%TO.P,J7,2,Pin_2*%
%TO.N,unconnected-(J7-Pin_2-Pad2)*%
X179273200Y-107950000D03*
%TO.P,J7,3,Pin_3*%
%TO.N,MOSI_INTER*%
X180543200Y-109220000D03*
%TO.P,J7,4,Pin_4*%
%TO.N,SCLK_INTER*%
X180543200Y-107950000D03*
%TO.P,J7,5,Pin_5*%
%TO.N,GND*%
X181813200Y-109220000D03*
%TO.P,J7,6,Pin_6*%
X181813200Y-107950000D03*
%TO.P,J7,7,Pin_7*%
%TO.N,RPI0_GPIO0*%
X183083200Y-109220000D03*
%TO.P,J7,8,Pin_8*%
%TO.N,RPI0_GPIO4*%
X183083200Y-107950000D03*
%TO.P,J7,9,Pin_9*%
%TO.N,RPI0_GPIO1*%
X184353200Y-109220000D03*
%TO.P,J7,10,Pin_10*%
%TO.N,RPI0_GPIO5*%
X184353200Y-107950000D03*
%TO.P,J7,11,Pin_11*%
%TO.N,RPI0_GPIO7*%
X185623200Y-109220000D03*
%TO.P,J7,12,Pin_12*%
%TO.N,RPI0_GPIO6*%
X185623200Y-107950000D03*
%TO.P,J7,13,Pin_13*%
%TO.N,GND*%
X186893200Y-109220000D03*
%TO.P,J7,14,Pin_14*%
X186893200Y-107950000D03*
%TO.P,J7,15,Pin_15*%
%TO.N,RPI0_GPIO12*%
X188163200Y-109220000D03*
%TO.P,J7,16,Pin_16*%
%TO.N,unconnected-(J7-Pin_16-Pad16)*%
X188163200Y-107950000D03*
%TO.P,J7,17,Pin_17*%
%TO.N,RPI0_GPIO13*%
X189433200Y-109220000D03*
%TO.P,J7,18,Pin_18*%
%TO.N,RPI0_GPIO15*%
X189433200Y-107950000D03*
%TO.P,J7,19,Pin_19*%
%TO.N,RPI0_GPIO14*%
X190703200Y-109220000D03*
%TO.P,J7,20,Pin_20*%
%TO.N,RPI0_GPIO17*%
X190703200Y-107950000D03*
%TO.P,J7,21,Pin_21*%
%TO.N,GND*%
X191973200Y-109220000D03*
%TO.P,J7,22,Pin_22*%
X191973200Y-107950000D03*
%TO.P,J7,23,Pin_23*%
%TO.N,RPI0_GPIO18*%
X193243200Y-109220000D03*
%TO.P,J7,24,Pin_24*%
%TO.N,RPI0_GPIO21*%
X193243200Y-107950000D03*
%TO.P,J7,25,Pin_25*%
%TO.N,RPI0_GPIO19*%
X194513200Y-109220000D03*
%TO.P,J7,26,Pin_26*%
%TO.N,GND*%
X194513200Y-107950000D03*
%TO.P,J7,27,Pin_27*%
%TO.N,RPI0_GPIO20*%
X195783200Y-109220000D03*
%TO.P,J7,28,Pin_28*%
%TO.N,GND*%
X195783200Y-107950000D03*
%TO.P,J7,29,Pin_29*%
X197053200Y-109220000D03*
%TO.P,J7,30,Pin_30*%
X197053200Y-107950000D03*
%TD*%
D10*
%TO.P,J8,1,Pin_1*%
%TO.N,GND*%
X184353200Y-114300000D03*
D11*
%TO.P,J8,2,Pin_2*%
X184353200Y-113030000D03*
%TO.P,J8,3,Pin_3*%
X185623200Y-114300000D03*
%TO.P,J8,4,Pin_4*%
X185623200Y-113030000D03*
%TO.P,J8,5,Pin_5*%
X186893200Y-114300000D03*
%TO.P,J8,6,Pin_6*%
X186893200Y-113030000D03*
%TO.P,J8,7,Pin_7*%
%TO.N,RP2040_GPIO11*%
X188163200Y-114300000D03*
%TO.P,J8,8,Pin_8*%
%TO.N,GND*%
X188163200Y-113030000D03*
%TO.P,J8,9,Pin_9*%
%TO.N,RP2040_GPIO10*%
X189433200Y-114300000D03*
%TO.P,J8,10,Pin_10*%
%TO.N,unconnected-(J8-Pin_10-Pad10)*%
X189433200Y-113030000D03*
%TO.P,J8,11,Pin_11*%
%TO.N,RP2040_GPIO12*%
X190703200Y-114300000D03*
%TO.P,J8,12,Pin_12*%
%TO.N,unconnected-(J8-Pin_12-Pad12)*%
X190703200Y-113030000D03*
%TO.P,J8,13,Pin_13*%
%TO.N,GND*%
X191973200Y-114300000D03*
%TO.P,J8,14,Pin_14*%
%TO.N,unconnected-(J8-Pin_14-Pad14)*%
X191973200Y-113030000D03*
%TO.P,J8,15,Pin_15*%
%TO.N,ONEWIRE_DETECT*%
X193243200Y-114300000D03*
%TO.P,J8,16,Pin_16*%
%TO.N,RP2040_GPIO29*%
X193243200Y-113030000D03*
%TD*%
D10*
%TO.P,J6,1,Pin_1*%
%TO.N,Net-(D7-A)*%
X179273200Y-119380000D03*
D11*
%TO.P,J6,2,Pin_2*%
X179273200Y-118110000D03*
%TO.P,J6,3,Pin_3*%
X180543200Y-119380000D03*
%TO.P,J6,4,Pin_4*%
X180543200Y-118110000D03*
%TO.P,J6,5,Pin_5*%
%TO.N,GND*%
X181813200Y-119380000D03*
%TO.P,J6,6,Pin_6*%
X181813200Y-118110000D03*
%TO.P,J6,7,Pin_7*%
%TO.N,3V3*%
X183083200Y-119380000D03*
%TO.P,J6,8,Pin_8*%
%TO.N,VBUS*%
X183083200Y-118110000D03*
%TO.P,J6,9,Pin_9*%
%TO.N,3V3*%
X184353200Y-119380000D03*
%TO.P,J6,10,Pin_10*%
%TO.N,VBUS*%
X184353200Y-118110000D03*
%TO.P,J6,11,Pin_11*%
%TO.N,5V*%
X185623200Y-119380000D03*
%TO.P,J6,12,Pin_12*%
%TO.N,VBUS*%
X185623200Y-118110000D03*
%TO.P,J6,13,Pin_13*%
%TO.N,5V*%
X186893200Y-119380000D03*
%TO.P,J6,14,Pin_14*%
%TO.N,GND*%
X186893200Y-118110000D03*
%TO.P,J6,15,Pin_15*%
X188163200Y-119380000D03*
%TO.P,J6,16,Pin_16*%
%TO.N,EXTRA_USB4_D+*%
X188163200Y-118110000D03*
%TO.P,J6,17,Pin_17*%
%TO.N,VBUS*%
X189433200Y-119380000D03*
%TO.P,J6,18,Pin_18*%
%TO.N,EXTRA_USB4_D-*%
X189433200Y-118110000D03*
%TO.P,J6,19,Pin_19*%
%TO.N,VBUS*%
X190703200Y-119380000D03*
%TO.P,J6,20,Pin_20*%
%TO.N,GND*%
X190703200Y-118110000D03*
%TO.P,J6,21,Pin_21*%
%TO.N,VBUS*%
X191973200Y-119380000D03*
%TO.P,J6,22,Pin_22*%
%TO.N,GND*%
X191973200Y-118110000D03*
%TO.P,J6,23,Pin_23*%
%TO.N,VCONN*%
X193243200Y-119380000D03*
%TO.P,J6,24,Pin_24*%
%TO.N,EXTRA_USB3_D+*%
X193243200Y-118110000D03*
%TO.P,J6,25,Pin_25*%
%TO.N,VCONN*%
X194513200Y-119380000D03*
%TO.P,J6,26,Pin_26*%
%TO.N,EXTRA_USB3_D-*%
X194513200Y-118110000D03*
%TO.P,J6,27,Pin_27*%
%TO.N,VCONN*%
X195783200Y-119380000D03*
%TO.P,J6,28,Pin_28*%
%TO.N,GND*%
X195783200Y-118110000D03*
%TO.P,J6,29,Pin_29*%
%TO.N,VCONN*%
X197053200Y-119380000D03*
%TO.P,J6,30,Pin_30*%
%TO.N,GND*%
X197053200Y-118110000D03*
%TD*%
D12*
%TO.P,J2,S1,SHIELD*%
%TO.N,GND*%
X229690400Y-101184500D03*
D13*
X233890400Y-101184500D03*
D12*
X229690400Y-92544500D03*
D13*
X233890400Y-92544500D03*
%TD*%
D14*
%TO.P,C30,1*%
%TO.N,3V3*%
X224485200Y-89852200D03*
%TO.P,C30,2*%
%TO.N,GND*%
X224485200Y-91402200D03*
%TD*%
D15*
%TO.P,J3,1,DAT2*%
%TO.N,uSD_DAT2*%
X228467600Y-88174400D03*
%TO.P,J3,2,DAT3/CD*%
%TO.N,uSD_DAT3*%
X227367600Y-88174400D03*
%TO.P,J3,3,CMD*%
%TO.N,uSD_CMD*%
X226267600Y-88174400D03*
%TO.P,J3,4,VDD*%
%TO.N,3V3*%
X225167600Y-88174400D03*
%TO.P,J3,5,CLK*%
%TO.N,uSD_CLK*%
X224067600Y-88174400D03*
%TO.P,J3,6,VSS*%
%TO.N,GND*%
X222967600Y-88174400D03*
%TO.P,J3,7,DAT0*%
%TO.N,uSD_DAT0*%
X221867600Y-88174400D03*
%TO.P,J3,8,DAT1*%
%TO.N,uSD_DAT1*%
X220767600Y-88174400D03*
%TO.P,J3,CD1*%
%TO.N,N/C*%
X219667600Y-88174400D03*
D16*
%TO.P,J3,MP1*%
X218249200Y-87400600D03*
D17*
%TO.P,J3,MP2*%
X218249200Y-77700600D03*
%TO.P,J3,MP3*%
X234074000Y-77700600D03*
D18*
%TO.P,J3,MP4*%
X233299000Y-87400600D03*
%TD*%
D19*
%TO.P,R28,1*%
%TO.N,3V3*%
X227355400Y-90881200D03*
%TO.P,R28,2*%
%TO.N,uSD_DAT3*%
X227355400Y-89686200D03*
%TD*%
D20*
%TO.P,J5,1,3V3*%
%TO.N,Net-(J5-3V3-Pad1)*%
X150368000Y-99151400D03*
D21*
%TO.P,J5,2,5V*%
%TO.N,Net-(D6-K)*%
X150368000Y-101691400D03*
%TO.P,J5,3,SDA/GPIO2*%
%TO.N,RTC_SDA*%
X152908000Y-99151400D03*
%TO.P,J5,4,5V*%
%TO.N,Net-(D6-K)*%
X152908000Y-101691400D03*
%TO.P,J5,5,SCL/GPIO3*%
%TO.N,RTC_SCL*%
X155448000Y-99151400D03*
%TO.P,J5,6,GND*%
%TO.N,GND*%
X155448000Y-101691400D03*
%TO.P,J5,7,GCLK0/GPIO4*%
%TO.N,LAT*%
X157988000Y-99151400D03*
%TO.P,J5,8,GPIO14/TXD*%
%TO.N,RPI0_GPIO14*%
X157988000Y-101691400D03*
%TO.P,J5,9,GND*%
%TO.N,GND*%
X160528000Y-99151400D03*
%TO.P,J5,10,GPIO15/RXD*%
%TO.N,RPI0_GPIO15*%
X160528000Y-101691400D03*
%TO.P,J5,11,GPIO17*%
%TO.N,RPI0_GPIO17*%
X163068000Y-99151400D03*
%TO.P,J5,12,GPIO18/PWM0*%
%TO.N,RPI0_GPIO18*%
X163068000Y-101691400D03*
%TO.P,J5,13,GPIO27*%
%TO.N,CLK*%
X165608000Y-99151400D03*
%TO.P,J5,14,GND*%
%TO.N,GND*%
X165608000Y-101691400D03*
%TO.P,J5,15,GPIO22*%
%TO.N,GSIN*%
X168148000Y-99151400D03*
%TO.P,J5,16,GPIO23*%
%TO.N,GSOUT*%
X168148000Y-101691400D03*
%TO.P,J5,17,3V3*%
%TO.N,Net-(J5-3V3-Pad1)*%
X170688000Y-99151400D03*
%TO.P,J5,18,GPIO24*%
%TO.N,GCLK*%
X170688000Y-101691400D03*
%TO.P,J5,19,MOSI0/GPIO10*%
%TO.N,MOSI_INTER*%
X173228000Y-99151400D03*
%TO.P,J5,20,GND*%
%TO.N,GND*%
X173228000Y-101691400D03*
%TO.P,J5,21,MISO0/GPIO9*%
%TO.N,MISO_INTER*%
X175768000Y-99151400D03*
%TO.P,J5,22,GPIO25*%
%TO.N,GLAT*%
X175768000Y-101691400D03*
%TO.P,J5,23,SCLK0/GPIO11*%
%TO.N,SCLK_INTER*%
X178308000Y-99151400D03*
%TO.P,J5,24,~{CE0}/GPIO8*%
%TO.N,RP2040_CE*%
X178308000Y-101691400D03*
%TO.P,J5,25,GND*%
%TO.N,GND*%
X180848000Y-99151400D03*
%TO.P,J5,26,~{CE1}/GPIO7*%
%TO.N,RPI0_GPIO7*%
X180848000Y-101691400D03*
%TO.P,J5,27,ID_SD/GPIO0*%
%TO.N,RPI0_GPIO0*%
X183388000Y-99151400D03*
%TO.P,J5,28,ID_SC/GPIO1*%
%TO.N,RPI0_GPIO1*%
X183388000Y-101691400D03*
%TO.P,J5,29,GCLK1/GPIO5*%
%TO.N,SOUT*%
X185928000Y-99151400D03*
%TO.P,J5,30,GND*%
%TO.N,GND*%
X185928000Y-101691400D03*
%TO.P,J5,31,GCLK2/GPIO6*%
%TO.N,SIN*%
X188468000Y-99151400D03*
%TO.P,J5,32,PWM0/GPIO12*%
%TO.N,RPI0_GPIO12*%
X188468000Y-101691400D03*
%TO.P,J5,33,PWM1/GPIO13*%
%TO.N,RPI0_GPIO13*%
X191008000Y-99151400D03*
%TO.P,J5,34,GND*%
%TO.N,GND*%
X191008000Y-101691400D03*
%TO.P,J5,35,GPIO19/MISO1*%
%TO.N,RPI0_GPIO19*%
X193548000Y-99151400D03*
%TO.P,J5,36,GPIO16*%
%TO.N,BLK*%
X193548000Y-101691400D03*
%TO.P,J5,37,GPIO26*%
%TO.N,GSBLK*%
X196088000Y-99151400D03*
%TO.P,J5,38,GPIO20/MOSI1*%
%TO.N,RPI0_GPIO20*%
X196088000Y-101691400D03*
%TO.P,J5,39,GND*%
%TO.N,GND*%
X198628000Y-99151400D03*
%TO.P,J5,40,GPIO21/SCLK1*%
%TO.N,RPI0_GPIO21*%
X198628000Y-101691400D03*
%TD*%
D19*
%TO.P,R30,1*%
%TO.N,uSD_CLK*%
X222707200Y-92443900D03*
%TO.P,R30,2*%
%TO.N,GND*%
X222707200Y-91248900D03*
%TD*%
%TO.P,R26,1*%
%TO.N,3V3*%
X228447600Y-90881200D03*
%TO.P,R26,2*%
%TO.N,uSD_DAT2*%
X228447600Y-89686200D03*
%TD*%
%TO.P,R33,1*%
%TO.N,3V3*%
X220548200Y-90881200D03*
%TO.P,R33,2*%
%TO.N,uSD_DAT1*%
X220548200Y-89686200D03*
%TD*%
%TO.P,R31,1*%
%TO.N,3V3*%
X221615000Y-90882400D03*
%TO.P,R31,2*%
%TO.N,uSD_DAT0*%
X221615000Y-89687400D03*
%TD*%
D22*
%TO.P,BT1,N,-*%
%TO.N,GND*%
X174745200Y-113639600D03*
%TO.P,BT1,P,+*%
%TO.N,Net-(BT1-+)*%
X145745200Y-113639600D03*
%TD*%
D23*
%TO.N,Net-(BT1-+)*%
X149374000Y-119253000D03*
%TO.N,GND*%
X174774000Y-114198400D03*
X203658700Y-86457300D03*
X163054600Y-87731400D03*
X166554600Y-87731400D03*
X176885600Y-85674200D03*
X179146200Y-84632800D03*
D24*
X144170400Y-117144800D03*
D23*
X167104600Y-88181400D03*
X219473100Y-78129149D03*
X197396700Y-84188900D03*
X228431600Y-106095800D03*
X172135800Y-86461600D03*
X159081600Y-79509200D03*
X233451400Y-112953800D03*
X174088200Y-113436400D03*
D25*
X188214000Y-85877400D03*
D23*
X174802800Y-84963000D03*
X217914400Y-117308082D03*
X232968800Y-89255600D03*
X217463900Y-115349082D03*
X168144100Y-79364755D03*
D25*
X188620400Y-84785200D03*
D23*
X218228100Y-83388200D03*
X165231600Y-77959200D03*
D25*
X222707200Y-90855800D03*
D23*
X156581600Y-79259200D03*
X167681600Y-78909200D03*
X226847400Y-118059200D03*
D25*
X208534000Y-83439000D03*
D24*
X146583400Y-119049800D03*
D23*
X159666000Y-88820000D03*
X225000000Y-93595700D03*
X235686600Y-83210400D03*
X170738800Y-86461600D03*
D25*
X215265000Y-90271600D03*
D23*
X159781600Y-79509200D03*
X174091600Y-85648800D03*
X157278400Y-89023200D03*
X165854600Y-87731400D03*
X202984700Y-88151300D03*
X159781600Y-78809200D03*
D24*
X213690200Y-120650000D03*
D23*
X231479600Y-106095800D03*
X221574400Y-92196500D03*
D24*
X172440600Y-90525600D03*
D23*
X212035200Y-76018200D03*
X224622400Y-98038500D03*
X172135800Y-85750400D03*
X231622600Y-86106000D03*
D25*
X188595000Y-86944200D03*
D23*
X233248200Y-116306600D03*
X159081600Y-78809200D03*
X174774000Y-113436400D03*
X174091600Y-84963000D03*
X158853200Y-86991200D03*
X176199800Y-86385400D03*
X176885600Y-86385400D03*
X170738800Y-85750400D03*
X202984700Y-82817300D03*
D25*
X224565001Y-78575000D03*
D23*
X196126700Y-86322500D03*
X195313900Y-93383700D03*
X201003500Y-93384900D03*
X202095700Y-80785300D03*
X167181600Y-78409200D03*
X213664400Y-107058082D03*
X157938800Y-89023200D03*
X155881600Y-79259200D03*
X181660800Y-81559400D03*
X229955600Y-106095800D03*
X158881600Y-75459200D03*
D25*
X232918000Y-83566000D03*
D23*
X235661200Y-78968600D03*
D24*
X146735800Y-120065800D03*
D23*
X199682700Y-79515300D03*
X205155800Y-83997800D03*
X163131600Y-77959200D03*
D24*
X152527000Y-120243600D03*
D23*
X174091600Y-86360000D03*
X166631600Y-77959200D03*
D25*
X224536000Y-83997800D03*
D23*
X226164400Y-106308082D03*
X176199800Y-84988400D03*
D25*
X232892600Y-82499200D03*
D23*
X196126700Y-85306500D03*
D25*
X226415600Y-83997800D03*
D23*
X155957600Y-89023200D03*
X219034400Y-90926500D03*
X220414400Y-109558082D03*
X194958300Y-85306500D03*
X229168200Y-106095800D03*
X158881600Y-76159200D03*
X233299000Y-75412600D03*
X165931600Y-77959200D03*
X174802800Y-86360000D03*
X158853200Y-85365600D03*
X171424600Y-85750400D03*
X167331600Y-81559200D03*
X159666000Y-89531200D03*
D25*
X225171000Y-83997800D03*
D23*
X175488600Y-86385400D03*
X171424600Y-86461600D03*
X196126700Y-84188900D03*
X163831600Y-77959200D03*
X164531600Y-77959200D03*
X159005600Y-89531200D03*
X196138800Y-78588600D03*
X215859400Y-99435500D03*
X165154600Y-87731400D03*
X197447500Y-85306500D03*
D25*
X208500000Y-80250000D03*
D23*
X176199800Y-85674200D03*
X225679000Y-90754200D03*
X175459800Y-113436400D03*
X227695000Y-106095800D03*
X156618000Y-89023200D03*
X175459800Y-114198400D03*
X235254800Y-84658200D03*
X175488600Y-85674200D03*
X164454600Y-87731400D03*
X181635400Y-74599800D03*
D25*
X208409100Y-81777700D03*
D23*
X167286000Y-91360000D03*
X220558400Y-92196500D03*
X158881600Y-76859200D03*
X177596800Y-85674200D03*
X220283400Y-97001500D03*
X168067100Y-89136955D03*
X167604600Y-88681400D03*
X197396700Y-86322500D03*
D25*
X178917600Y-92500000D03*
D23*
X224866200Y-118110000D03*
X159005600Y-88820000D03*
X163754600Y-87731400D03*
X174088200Y-114198400D03*
X201460700Y-89929300D03*
X157981600Y-79259200D03*
X158881600Y-77559200D03*
X176885600Y-84988400D03*
D25*
X225780600Y-83997800D03*
D23*
X197599900Y-93434500D03*
X226100000Y-74790100D03*
X194907500Y-84188900D03*
X177596800Y-84988400D03*
X217510400Y-91942500D03*
X224510600Y-92049600D03*
X158853200Y-86026000D03*
X174802800Y-85648800D03*
X178993800Y-82600800D03*
X222051900Y-116558082D03*
X157281600Y-79259200D03*
X215097400Y-98165500D03*
X175488600Y-84988400D03*
X177596800Y-86385400D03*
X194907500Y-86322500D03*
X158853200Y-87651600D03*
D24*
X158699200Y-115138200D03*
X172593000Y-92633800D03*
D23*
X204598200Y-80277300D03*
X230717600Y-106095800D03*
X204254700Y-91479900D03*
%TO.N,3V3*%
X156337000Y-115646200D03*
X210163487Y-91440141D03*
D24*
X152349200Y-75920600D03*
D25*
X193659587Y-92266554D03*
X215595200Y-74828400D03*
D24*
X151231600Y-75920600D03*
D23*
X195028730Y-91934612D03*
D25*
X195757800Y-90644048D03*
X189212600Y-83680900D03*
X222529400Y-89382600D03*
X218465400Y-98856800D03*
D23*
X227076000Y-112674400D03*
X219914400Y-116558082D03*
D25*
X220878400Y-79044800D03*
D24*
X152349200Y-77190600D03*
D25*
X210947000Y-81356200D03*
X190373000Y-86944200D03*
D23*
X160451800Y-117983000D03*
D24*
X150114000Y-75895200D03*
D23*
X220319600Y-74768000D03*
D25*
X198922319Y-92412261D03*
D23*
X224967800Y-89687400D03*
X199682700Y-82309300D03*
D25*
X220091000Y-83515200D03*
D23*
X226319813Y-78188748D03*
D25*
X195185370Y-78650170D03*
X189179200Y-88747600D03*
D23*
X225602800Y-117224300D03*
D25*
X218465400Y-98272600D03*
D24*
X151231600Y-77190600D03*
D23*
X230994509Y-83593842D03*
D25*
X190931800Y-81915000D03*
D24*
X150114000Y-77165200D03*
D25*
X200177400Y-88900000D03*
D24*
%TO.N,VSYS*%
X156006800Y-83261200D03*
X183718200Y-80594200D03*
X184835800Y-80619600D03*
X211759800Y-108940600D03*
X157200600Y-92989400D03*
D23*
X167331600Y-80459200D03*
D24*
X212852000Y-110032800D03*
X159385000Y-83235800D03*
X156083000Y-92989400D03*
D23*
X161190000Y-93036400D03*
D24*
X211734400Y-110007400D03*
X157124400Y-83261200D03*
X159461200Y-92964000D03*
D23*
X167286000Y-90242400D03*
D24*
X212877400Y-108966000D03*
X158242000Y-83261200D03*
X183743600Y-79527400D03*
D23*
X161331600Y-83209200D03*
D24*
X158318200Y-92989400D03*
D23*
X221991400Y-107203082D03*
D24*
X184861200Y-79552800D03*
%TO.N,5V*%
X160174793Y-114675207D03*
D23*
X235178600Y-86893400D03*
D24*
X175945800Y-121031000D03*
X151206200Y-86995000D03*
X152323800Y-87020400D03*
X152323800Y-85750400D03*
D23*
X234543600Y-80187800D03*
D24*
X161574793Y-116075207D03*
X176733200Y-121742200D03*
X150088600Y-85725000D03*
D23*
X232841800Y-122453400D03*
D24*
X151206200Y-85725000D03*
X150088600Y-86995000D03*
X160887293Y-115387707D03*
D23*
%TO.N,B+*%
X231038400Y-108077000D03*
X222914400Y-109308082D03*
X222914400Y-105558082D03*
X222914400Y-107808082D03*
X222914400Y-108558082D03*
X228295200Y-108102400D03*
X222914400Y-107058082D03*
X227609400Y-108102400D03*
X228981000Y-108077000D03*
X223664400Y-106308082D03*
X223664400Y-105558082D03*
X230352600Y-108077000D03*
X222914400Y-106308082D03*
X229666800Y-108077000D03*
D24*
%TO.N,VCONN*%
X216839800Y-94564200D03*
X211378800Y-101955600D03*
X211378800Y-103657400D03*
X216839800Y-95631000D03*
X214742005Y-99170233D03*
X211378800Y-104698800D03*
D23*
%TO.N,CC1*%
X227924400Y-98214500D03*
X225638400Y-94990500D03*
%TO.N,CC2*%
X223672400Y-95885000D03*
X219034400Y-94990500D03*
D24*
%TO.N,EXT_PWR*%
X201904600Y-116179600D03*
X203149200Y-111480600D03*
X203149200Y-117297200D03*
X201904600Y-109245400D03*
X176530000Y-94259400D03*
X203174600Y-116179600D03*
X201879200Y-111480600D03*
X175260000Y-94259400D03*
X174015400Y-94259400D03*
X201879200Y-117297200D03*
X203149200Y-118414800D03*
X201879200Y-110363000D03*
X203149200Y-110363000D03*
X172745400Y-94259400D03*
X201879200Y-118414800D03*
X203174600Y-109245400D03*
D23*
%TO.N,Net-(U10-COMP)*%
X181432200Y-83642200D03*
X176722000Y-83148400D03*
%TO.N,RGB_DIN*%
X233095800Y-79679800D03*
X226885500Y-78754435D03*
%TO.N,LED*%
X231927400Y-75412600D03*
X228447600Y-75717400D03*
D25*
%TO.N,VBUS*%
X227543400Y-94482500D03*
X227416400Y-101848500D03*
D23*
X210567765Y-98731565D03*
D24*
X209981800Y-117322600D03*
D23*
X210032600Y-107823000D03*
D25*
X226781400Y-93466500D03*
D24*
X208737200Y-116205000D03*
X210007200Y-116205000D03*
D23*
X201507600Y-99288600D03*
D25*
X227196711Y-93962467D03*
D24*
X208711800Y-117322600D03*
D25*
X228178400Y-94482500D03*
X226908400Y-101848500D03*
D24*
X209981800Y-118440200D03*
D23*
X217900400Y-96494500D03*
D25*
X226908400Y-101340500D03*
D23*
X206298800Y-97713800D03*
D25*
X226400400Y-101848500D03*
D24*
X208711800Y-118440200D03*
D23*
X209245200Y-101930200D03*
X211328000Y-99796600D03*
%TO.N,Net-(D14-A)*%
X184277000Y-75742800D03*
X183261000Y-81737200D03*
D25*
%TO.N,uSD_CMD*%
X226263200Y-86258400D03*
%TO.N,uSD_CLK*%
X224067600Y-88174400D03*
%TO.N,uSD_DAT3*%
X225100000Y-85950000D03*
%TO.N,uSD_DAT1*%
X223400000Y-85875000D03*
%TO.N,uSD_DAT2*%
X224190651Y-85910566D03*
%TO.N,uSD_DAT0*%
X222770700Y-86347300D03*
D23*
%TO.N,SWD_RP2040*%
X229844600Y-74777600D03*
X216560400Y-78028800D03*
%TO.N,SWCLK_RP2040*%
X231343200Y-81584800D03*
D25*
X213835633Y-77527977D03*
D23*
%TO.N,EXTRA_USB3_D+*%
X202565000Y-97021200D03*
X190174079Y-96351047D03*
X194259200Y-76606400D03*
X209785400Y-97815400D03*
X193716178Y-77866622D03*
%TO.N,EXTRA_USB4_D-*%
X188269079Y-104491321D03*
X186740800Y-95935800D03*
X190020929Y-97637600D03*
X173188675Y-107701367D03*
X177795404Y-103976204D03*
X184636879Y-90470521D03*
X192201739Y-78597543D03*
X171392400Y-110566200D03*
%TO.N,EXTRA_USB4_D+*%
X187680600Y-96389700D03*
X177795404Y-103126204D03*
X172587633Y-107100325D03*
X192201739Y-79447543D03*
X188870121Y-103890279D03*
X170542400Y-110566200D03*
X188950600Y-97739200D03*
X185237921Y-89869479D03*
%TO.N,SCLK_INTER*%
X182880000Y-94056200D03*
X225339168Y-78876632D03*
%TO.N,RPI0_GPIO20*%
X199669400Y-103809800D03*
X198297800Y-104978200D03*
%TO.N,RP2040_CE*%
X179587026Y-98180026D03*
X183252226Y-95038026D03*
D25*
X227685600Y-85369400D03*
D23*
%TO.N,RTC_SDA*%
X157462400Y-120269000D03*
%TO.N,MOSI_INTER*%
X210566000Y-78409800D03*
X227493909Y-81198458D03*
%TO.N,RPI0_GPIO17*%
X184632600Y-100965000D03*
X172974000Y-97713800D03*
X181838600Y-104902000D03*
%TO.N,GSIN*%
X152349200Y-110759800D03*
%TO.N,RPI0_GPIO18*%
X163017200Y-111125000D03*
X190246000Y-110893100D03*
X158826200Y-110820200D03*
X188824485Y-112040830D03*
X156311600Y-107569000D03*
X156083000Y-109169200D03*
%TO.N,RPI0_GPIO0*%
X175006000Y-110286800D03*
X182067200Y-100939600D03*
%TO.N,MISO_INTER*%
X227968674Y-78634726D03*
X209499200Y-78587600D03*
%TO.N,RPI0_GPIO19*%
X198729600Y-106527600D03*
%TO.N,SOUT*%
X149758400Y-104165400D03*
%TO.N,RPI0_GPIO7*%
X177749200Y-111556800D03*
%TO.N,GSOUT*%
X155244800Y-104800400D03*
X150698200Y-104140000D03*
%TO.N,RPI0_GPIO14*%
X170053000Y-108585000D03*
X157784800Y-103987600D03*
X156972000Y-106857800D03*
X189230000Y-110490000D03*
X163322000Y-109372400D03*
%TO.N,BLK*%
X170840400Y-95834200D03*
X163728400Y-103403400D03*
X151942800Y-103174800D03*
%TO.N,GSBLK*%
X171627800Y-97815400D03*
X159105600Y-105410000D03*
X150698200Y-109245400D03*
X152755600Y-107772200D03*
X161772600Y-102438200D03*
X170307000Y-96647000D03*
X182600600Y-97409000D03*
X160197800Y-104038400D03*
%TO.N,RTC_SCL*%
X157513200Y-118948200D03*
%TO.N,RPI0_GPIO15*%
X158165800Y-106807000D03*
X159131000Y-103784400D03*
X167132000Y-105892600D03*
X180797200Y-105816400D03*
X177519523Y-104727132D03*
X173304200Y-108661200D03*
%TO.N,RPI0_GPIO21*%
X196697600Y-104444800D03*
%TO.N,UP_D-*%
X224881506Y-100981613D03*
X210798879Y-94712321D03*
%TO.N,UP_D+*%
X211399921Y-94111279D03*
X224997400Y-99999800D03*
%TO.N,RP2040_GPIO11*%
X194716400Y-113741200D03*
X219583000Y-75377600D03*
X191541400Y-88188800D03*
X232333800Y-76885800D03*
X218046615Y-74640318D03*
%TO.N,ONEWIRE_DETECT*%
X205333600Y-105435400D03*
%TO.N,RP2040_GPIO12*%
X201244200Y-94361000D03*
X233934000Y-89255600D03*
%TO.N,RP2040_GPIO10*%
X235661200Y-89382600D03*
X235915200Y-98856800D03*
%TO.N,RP2040_GPIO29*%
X211079526Y-80312977D03*
X209087727Y-91140273D03*
X205383151Y-82982886D03*
X222945575Y-81284318D03*
X214858600Y-80264000D03*
%TO.N,RP2040_D+*%
X199699079Y-78278521D03*
X217236121Y-83764819D03*
X209875921Y-85415921D03*
X206296006Y-81522648D03*
%TO.N,RP2040_D-*%
X198740765Y-79106765D03*
X216635079Y-83163777D03*
X206897048Y-80921606D03*
X209274879Y-84814879D03*
D25*
%TO.N,QSPI_SS*%
X209956400Y-90398600D03*
X213541475Y-90935675D03*
D23*
%TO.N,CHRG_CTRL_1*%
X226237800Y-116560600D03*
X222414400Y-114808082D03*
%TO.N,CHRG_CTRL_2*%
X220914400Y-114808082D03*
X224256600Y-117271800D03*
%TO.N,BATT_SDA*%
X229514400Y-87884000D03*
X223914400Y-115558082D03*
%TO.N,BATT_SCL*%
X230200200Y-88544400D03*
X225664400Y-115808082D03*
%TO.N,HUB_SDA*%
X206984600Y-86995000D03*
X194577664Y-91181548D03*
X219506800Y-76591550D03*
X230250000Y-78750000D03*
%TO.N,HUB_SCL*%
X196714199Y-90585650D03*
X215639817Y-83120200D03*
X219710505Y-77365183D03*
X227250621Y-77422500D03*
%TO.N,PD_SDA*%
X234899200Y-91135200D03*
X234518200Y-102641400D03*
%TO.N,PD_SCL*%
X229387400Y-90652600D03*
X220954600Y-100431600D03*
X222326200Y-100609400D03*
X225171000Y-101876100D03*
%TO.N,PD_INT*%
X215083900Y-95859600D03*
X220091000Y-99060000D03*
%TO.N,BATT_INT*%
X190068200Y-89306400D03*
X215425000Y-103800000D03*
X206121000Y-95453200D03*
X189992000Y-94059500D03*
X214960200Y-110413800D03*
X210208626Y-96200237D03*
X209296000Y-75869800D03*
X228799900Y-80184500D03*
X212772530Y-75707799D03*
X223443800Y-117908082D03*
D25*
%TO.N,QSPI__SD1*%
X213156800Y-87807800D03*
X216966800Y-88366600D03*
%TO.N,QSPI_SD3*%
X223248001Y-83962954D03*
X212300000Y-85325000D03*
%TO.N,QSPI_SCLK*%
X214650000Y-86450000D03*
X223247999Y-85131104D03*
D23*
%TO.N,Net-(U7-SW)*%
X158981600Y-80759200D03*
X150681600Y-82609200D03*
X152381600Y-82609200D03*
X159631600Y-80759200D03*
X159631600Y-81409200D03*
X151531600Y-82609200D03*
X162181600Y-79059200D03*
X150673600Y-81908200D03*
X158981600Y-81409200D03*
X151531600Y-81859200D03*
X152324600Y-81908200D03*
%TO.N,Net-(U8-SW)*%
X159691400Y-90471000D03*
X150166400Y-92376000D03*
X152325400Y-92376000D03*
X150166400Y-91614000D03*
X151309400Y-92376000D03*
X152325400Y-91614000D03*
X158929400Y-90471000D03*
X159691400Y-91233000D03*
X162358400Y-88870800D03*
X158929400Y-91233000D03*
X151309400Y-91614000D03*
D24*
%TO.N,Net-(D7-A)*%
X209981800Y-110337600D03*
X209981800Y-111455200D03*
X208737200Y-109220000D03*
X210007200Y-109220000D03*
X208711800Y-110337600D03*
X208711800Y-111455200D03*
D23*
%TO.N,Net-(U2-RBIAS)*%
X200984450Y-83674550D03*
X203403200Y-80277300D03*
%TO.N,EXTRA_USB3_D-*%
X190775121Y-95750005D03*
X202565000Y-96171200D03*
X210635400Y-97815400D03*
%TD*%
D26*
%TO.N,Net-(BT1-+)*%
X149374000Y-117268400D02*
X149374000Y-119253000D01*
X145745200Y-113639600D02*
X149374000Y-117268400D01*
D27*
%TO.N,GND*%
X224485200Y-91402200D02*
X224485200Y-92024200D01*
X222967600Y-88174400D02*
X222967600Y-89060660D01*
X222967600Y-89060660D02*
X223088200Y-89181260D01*
X223088200Y-89181260D02*
X223088200Y-90474800D01*
X224485200Y-92024200D02*
X224510600Y-92049600D01*
X205155800Y-83997800D02*
X204165200Y-83997800D01*
X204165200Y-83997800D02*
X202984700Y-82817300D01*
X223088200Y-90474800D02*
X222707200Y-90855800D01*
D28*
%TO.N,3V3*%
X225167600Y-89169800D02*
X225167600Y-88174400D01*
X222529400Y-89382600D02*
X222529400Y-90119200D01*
X221767400Y-90881200D02*
X220548200Y-90881200D01*
X224485200Y-89852200D02*
X225167600Y-89169800D01*
X224675400Y-89662000D02*
X226318728Y-89662000D01*
X221615000Y-90882400D02*
X220549400Y-90882400D01*
X227355400Y-90881200D02*
X228447600Y-90881200D01*
X220549400Y-90882400D02*
X220548200Y-90881200D01*
X227537928Y-90881200D02*
X226318728Y-89662000D01*
X224675400Y-89662000D02*
X224485200Y-89852200D01*
X228447600Y-90881200D02*
X227537928Y-90881200D01*
X222529400Y-90119200D02*
X221767400Y-90881200D01*
D27*
%TO.N,VSYS*%
X213273482Y-109362082D02*
X212826600Y-108915200D01*
D26*
X167911000Y-90867400D02*
X167911000Y-92868600D01*
X167286000Y-93493600D02*
X161647200Y-93493600D01*
D27*
X167588800Y-80459200D02*
X167331600Y-80459200D01*
X161331600Y-83209200D02*
X162131600Y-84009200D01*
D26*
X161647200Y-93493600D02*
X161190000Y-93036400D01*
D27*
X167444800Y-84009200D02*
X168250400Y-83203600D01*
D26*
X167911000Y-92868600D02*
X167286000Y-93493600D01*
D27*
X168250400Y-83203600D02*
X168250400Y-81120800D01*
X220019400Y-107203082D02*
X217860400Y-109362082D01*
X217860400Y-109362082D02*
X213273482Y-109362082D01*
X221991400Y-107203082D02*
X220019400Y-107203082D01*
X168250400Y-81120800D02*
X167588800Y-80459200D01*
X162131600Y-84009200D02*
X167444800Y-84009200D01*
D26*
X167286000Y-90242400D02*
X167911000Y-90867400D01*
D28*
%TO.N,5V*%
X234543600Y-80187800D02*
X234543600Y-86258400D01*
X234543600Y-86258400D02*
X235178600Y-86893400D01*
D29*
%TO.N,VCONN*%
X216839800Y-95631000D02*
X216839800Y-94234000D01*
X216408000Y-93802200D02*
X215193686Y-93802200D01*
X214033000Y-94962886D02*
X214033000Y-98515314D01*
X214033000Y-98515314D02*
X214687919Y-99170233D01*
X215193686Y-93802200D02*
X214033000Y-94962886D01*
X216839800Y-94234000D02*
X216408000Y-93802200D01*
X211378800Y-101955600D02*
X211378800Y-103657400D01*
X211378800Y-103657400D02*
X211378800Y-104698800D01*
X214687919Y-99170233D02*
X214742005Y-99170233D01*
D27*
%TO.N,CC1*%
X226654400Y-96944500D02*
X226654400Y-96006500D01*
X226654400Y-96006500D02*
X225638400Y-94990500D01*
X227924400Y-98214500D02*
X226654400Y-96944500D01*
%TO.N,CC2*%
X219928900Y-95885000D02*
X223672400Y-95885000D01*
X219034400Y-94990500D02*
X219928900Y-95885000D01*
%TO.N,Net-(U10-COMP)*%
X177215800Y-83642200D02*
X176722000Y-83148400D01*
X181432200Y-83642200D02*
X177215800Y-83642200D01*
D28*
%TO.N,RGB_DIN*%
X231648000Y-79298800D02*
X232714800Y-79298800D01*
X232714800Y-79298800D02*
X233095800Y-79679800D01*
X231446800Y-79500000D02*
X231648000Y-79298800D01*
X227631065Y-79500000D02*
X231446800Y-79500000D01*
X226885500Y-78754435D02*
X227631065Y-79500000D01*
D27*
%TO.N,LED*%
X228447600Y-75717400D02*
X228752400Y-75412600D01*
X228752400Y-75412600D02*
X231927400Y-75412600D01*
%TO.N,VBUS*%
X217650400Y-94494500D02*
X217961700Y-94183200D01*
X211328000Y-99491800D02*
X210567765Y-98731565D01*
X210032600Y-102717600D02*
X209245200Y-101930200D01*
X203082400Y-97713800D02*
X206298800Y-97713800D01*
X210032600Y-107823000D02*
X210032600Y-102717600D01*
X201507600Y-99288600D02*
X203082400Y-97713800D01*
X217650400Y-96244500D02*
X217650400Y-94494500D01*
X217900400Y-96494500D02*
X217650400Y-96244500D01*
X211328000Y-99796600D02*
X211328000Y-99491800D01*
X217961700Y-94183200D02*
X226064700Y-94183200D01*
X226064700Y-94183200D02*
X226781400Y-93466500D01*
D28*
%TO.N,Net-(D14-A)*%
X182918200Y-81394400D02*
X182918200Y-77101600D01*
X182918200Y-77101600D02*
X184277000Y-75742800D01*
X183261000Y-81737200D02*
X182918200Y-81394400D01*
D27*
%TO.N,uSD_CMD*%
X226263200Y-86258400D02*
X226267600Y-86262800D01*
X226267600Y-86262800D02*
X226267600Y-88174400D01*
%TO.N,uSD_CLK*%
X223647000Y-89306400D02*
X224067600Y-88885800D01*
X224067600Y-88885800D02*
X224067600Y-88174400D01*
X223647000Y-91504100D02*
X223647000Y-89306400D01*
X222707200Y-92443900D02*
X223647000Y-91504100D01*
%TO.N,uSD_DAT3*%
X225400000Y-85650000D02*
X226450000Y-85650000D01*
X225100000Y-85950000D02*
X225400000Y-85650000D01*
D28*
X227355400Y-89686200D02*
X227355400Y-88186600D01*
D27*
X227367600Y-86567600D02*
X227367600Y-88174400D01*
X226450000Y-85650000D02*
X227367600Y-86567600D01*
D28*
X227355400Y-88186600D02*
X227367600Y-88174400D01*
%TO.N,uSD_DAT1*%
X220548200Y-88393800D02*
X220767600Y-88174400D01*
D27*
X222428200Y-85750000D02*
X220767600Y-87410600D01*
X220767600Y-87410600D02*
X220767600Y-88174400D01*
D28*
X220548200Y-89686200D02*
X220548200Y-88393800D01*
D27*
X223275000Y-85750000D02*
X222428200Y-85750000D01*
X223400000Y-85875000D02*
X223275000Y-85750000D01*
%TO.N,uSD_DAT2*%
X228467600Y-88174400D02*
X228467600Y-89666200D01*
X224858817Y-85242400D02*
X226717400Y-85242400D01*
X228467600Y-89666200D02*
X228447600Y-89686200D01*
X226717400Y-85242400D02*
X228467600Y-86992600D01*
X228467600Y-86992600D02*
X228467600Y-88174400D01*
X224190651Y-85910566D02*
X224858817Y-85242400D01*
%TO.N,uSD_DAT0*%
X221867600Y-87250400D02*
X221867600Y-88174400D01*
D28*
X221615000Y-89687400D02*
X221615000Y-88427000D01*
X221615000Y-88427000D02*
X221867600Y-88174400D01*
D27*
X222770700Y-86347300D02*
X221867600Y-87250400D01*
D28*
%TO.N,SWD_RP2040*%
X219367463Y-74168000D02*
X216560400Y-76975063D01*
X216560400Y-76975063D02*
X216560400Y-78028800D01*
X229235000Y-74168000D02*
X219367463Y-74168000D01*
X229844600Y-74777600D02*
X229235000Y-74168000D01*
%TO.N,SWCLK_RP2040*%
X214706200Y-81254600D02*
X213835633Y-80384033D01*
X231038400Y-81889600D02*
X221767400Y-81889600D01*
X221132400Y-81254600D02*
X214706200Y-81254600D01*
X213835633Y-80384033D02*
X213835633Y-77527977D01*
X231343200Y-81584800D02*
X231038400Y-81889600D01*
X221767400Y-81889600D02*
X221132400Y-81254600D01*
%TO.N,EXTRA_USB3_D+*%
X193243200Y-118110000D02*
X195220800Y-116132400D01*
X209487727Y-98849759D02*
X209487727Y-98113073D01*
X202565000Y-97021200D02*
X202365001Y-96821201D01*
X202365001Y-96821201D02*
X190927076Y-96821201D01*
X203733400Y-114782600D02*
X206603600Y-111912400D01*
X190456922Y-96351047D02*
X190174079Y-96351047D01*
X206603600Y-111912400D02*
X206603600Y-101733886D01*
X195220800Y-116132400D02*
X198802200Y-116132400D01*
X198802200Y-116132400D02*
X200152000Y-114782600D01*
X200152000Y-114782600D02*
X203733400Y-114782600D01*
X194259200Y-77323600D02*
X193716178Y-77866622D01*
X209487727Y-98113073D02*
X209785400Y-97815400D01*
X206603600Y-101733886D02*
X209487727Y-98849759D01*
X194259200Y-76606400D02*
X194259200Y-77323600D01*
X190927076Y-96821201D02*
X190456922Y-96351047D01*
%TO.N,EXTRA_USB4_D-*%
X187150799Y-83648483D02*
X192201739Y-78597543D01*
X187836806Y-103776205D02*
X188269079Y-104208478D01*
X177795404Y-103976204D02*
X177995403Y-103776205D01*
X188269079Y-104208478D02*
X188269079Y-104491321D01*
X190020929Y-97637600D02*
X188049329Y-95666000D01*
X171192401Y-110366201D02*
X171192401Y-109414799D01*
X171392400Y-110566200D02*
X171192401Y-110366201D01*
X171192401Y-109414799D02*
X172878600Y-107728600D01*
X172878600Y-107728600D02*
X173161442Y-107728600D01*
X188049329Y-95666000D02*
X187010600Y-95666000D01*
X187010600Y-95666000D02*
X186740800Y-95935800D01*
X177995403Y-103776205D02*
X187836806Y-103776205D01*
X187150799Y-84908800D02*
X187150799Y-83648483D01*
X173161442Y-107728600D02*
X173188675Y-107701367D01*
X184636879Y-87422720D02*
X187150799Y-84908800D01*
X184636879Y-90470521D02*
X184636879Y-87422720D01*
%TO.N,EXTRA_USB4_D+*%
X188023202Y-103326203D02*
X188587278Y-103890279D01*
X172870476Y-107100325D02*
X172587633Y-107100325D01*
X172891100Y-107079700D02*
X172891100Y-107079701D01*
X170742399Y-109228401D02*
X172891100Y-107079700D01*
X170742399Y-110366201D02*
X170742399Y-109228401D01*
X187600801Y-85095198D02*
X187600801Y-83834878D01*
X172891100Y-107079701D02*
X172870476Y-107100325D01*
X187680600Y-96389700D02*
X188950600Y-97659700D01*
X177995403Y-103326203D02*
X188023202Y-103326203D01*
X177795404Y-103126204D02*
X177995403Y-103326203D01*
X185086880Y-87609119D02*
X187600801Y-85095198D01*
X185086880Y-89718438D02*
X185086880Y-87609119D01*
X187600801Y-83834878D02*
X191988136Y-79447543D01*
X191988136Y-79447543D02*
X192201739Y-79447543D01*
X170542400Y-110566200D02*
X170742399Y-110366201D01*
X185237921Y-89869479D02*
X185086880Y-89718438D01*
X188950600Y-97659700D02*
X188950600Y-97739200D01*
X188587278Y-103890279D02*
X188870121Y-103890279D01*
D27*
%TO.N,SCLK_INTER*%
X227736400Y-80492600D02*
X228422200Y-81178400D01*
X225434632Y-78876632D02*
X227050600Y-80492600D01*
X225339168Y-78876632D02*
X225434632Y-78876632D01*
X176911000Y-100548400D02*
X178308000Y-99151400D01*
X176784000Y-102623452D02*
X177088800Y-102318652D01*
X186664600Y-90271600D02*
X182880000Y-94056200D01*
X231673400Y-80822800D02*
X232105200Y-81254600D01*
X232105200Y-81788000D02*
X231114600Y-82778600D01*
X231114600Y-82778600D02*
X218846400Y-82778600D01*
X176911000Y-101015800D02*
X176911000Y-100548400D01*
X177088800Y-101193600D02*
X176911000Y-101015800D01*
X180543200Y-107772200D02*
X179476400Y-106705400D01*
X203636200Y-87563800D02*
X200319800Y-87563800D01*
X177088800Y-102318652D02*
X177088800Y-101193600D01*
X194208400Y-90271600D02*
X186664600Y-90271600D01*
X176784000Y-105384600D02*
X176784000Y-102623452D01*
X230918749Y-81178400D02*
X231274349Y-80822800D01*
X198475600Y-89408000D02*
X195072000Y-89408000D01*
X200319800Y-87563800D02*
X198475600Y-89408000D01*
X180543200Y-107950000D02*
X180543200Y-107772200D01*
X232105200Y-81254600D02*
X232105200Y-81788000D01*
X218846400Y-82778600D02*
X217982800Y-81915000D01*
X231274349Y-80822800D02*
X231673400Y-80822800D01*
X195072000Y-89408000D02*
X194208400Y-90271600D01*
X228422200Y-81178400D02*
X230918749Y-81178400D01*
X179476400Y-106705400D02*
X178104800Y-106705400D01*
X217982800Y-81915000D02*
X209285000Y-81915000D01*
X209285000Y-81915000D02*
X203636200Y-87563800D01*
X227050600Y-80492600D02*
X227736400Y-80492600D01*
X178104800Y-106705400D02*
X176784000Y-105384600D01*
%TO.N,RPI0_GPIO20*%
X196088000Y-102412800D02*
X196088000Y-101691400D01*
X197379394Y-110007500D02*
X196570700Y-110007500D01*
X198297800Y-104978200D02*
X197958574Y-105317426D01*
X196723000Y-103047800D02*
X196088000Y-102412800D01*
X198907400Y-103047800D02*
X196723000Y-103047800D01*
X199669400Y-103809800D02*
X198907400Y-103047800D01*
X197958574Y-109428320D02*
X197379394Y-110007500D01*
X196570700Y-110007500D02*
X195783200Y-109220000D01*
X197958574Y-105317426D02*
X197958574Y-109428320D01*
%TO.N,RP2040_CE*%
X179587026Y-98619174D02*
X179578000Y-98628200D01*
X179587026Y-98180026D02*
X179587026Y-98619174D01*
X213289760Y-85644700D02*
X203887660Y-95046800D01*
X227685600Y-85369400D02*
X226891200Y-84575000D01*
X226891200Y-84575000D02*
X221574270Y-84575000D01*
X179578000Y-98628200D02*
X179578000Y-100421400D01*
X191516000Y-93472000D02*
X184818252Y-93472000D01*
X184818252Y-93472000D02*
X183252226Y-95038026D01*
X221574270Y-84575000D02*
X220398870Y-85750400D01*
X199491600Y-94462600D02*
X192506600Y-94462600D01*
X200075800Y-95046800D02*
X199491600Y-94462600D01*
X179578000Y-100421400D02*
X178308000Y-101691400D01*
X214497040Y-85644700D02*
X213289760Y-85644700D01*
X203887660Y-95046800D02*
X200075800Y-95046800D01*
X220398870Y-85750400D02*
X214602740Y-85750400D01*
X192506600Y-94462600D02*
X191516000Y-93472000D01*
X214602740Y-85750400D02*
X214497040Y-85644700D01*
D28*
%TO.N,RTC_SDA*%
X149621400Y-97790000D02*
X147726400Y-99685000D01*
X151546600Y-97790000D02*
X149621400Y-97790000D01*
X147726400Y-110533000D02*
X157462400Y-120269000D01*
X152908000Y-99151400D02*
X151546600Y-97790000D01*
X147726400Y-99685000D02*
X147726400Y-110533000D01*
D27*
%TO.N,MOSI_INTER*%
X171958000Y-103936800D02*
X171958000Y-100421400D01*
D28*
X215798400Y-80264000D02*
X214553800Y-79019400D01*
D27*
X180543200Y-109220000D02*
X180543200Y-109927106D01*
D28*
X211594991Y-78409800D02*
X210566000Y-78409800D01*
X212902800Y-77216000D02*
X212902800Y-77927200D01*
X213360000Y-76758800D02*
X212902800Y-77216000D01*
X212750400Y-78079600D02*
X211925191Y-78079600D01*
X214553800Y-79019400D02*
X214553800Y-77165200D01*
D27*
X171958000Y-100421400D02*
X173228000Y-99151400D01*
X178333400Y-110312200D02*
X171958000Y-103936800D01*
D28*
X227493909Y-81198458D02*
X226384858Y-81198458D01*
X212902800Y-77927200D02*
X212750400Y-78079600D01*
X226384858Y-81198458D02*
X225450400Y-80264000D01*
D27*
X180543200Y-109927106D02*
X180158106Y-110312200D01*
D28*
X214147400Y-76758800D02*
X213360000Y-76758800D01*
X214553800Y-77165200D02*
X214147400Y-76758800D01*
X211925191Y-78079600D02*
X211594991Y-78409800D01*
X225450400Y-80264000D02*
X215798400Y-80264000D01*
D27*
X180158106Y-110312200D02*
X178333400Y-110312200D01*
%TO.N,RPI0_GPIO17*%
X181533800Y-97409000D02*
X173278800Y-97409000D01*
X173278800Y-97409000D02*
X172974000Y-97713800D01*
X184077100Y-97996500D02*
X182121300Y-97996500D01*
X187655200Y-104902000D02*
X181838600Y-104902000D01*
X190703200Y-107950000D02*
X187655200Y-104902000D01*
X184632600Y-100965000D02*
X184632600Y-98552000D01*
X182121300Y-97996500D02*
X181533800Y-97409000D01*
X184632600Y-98552000D02*
X184077100Y-97996500D01*
%TO.N,RPI0_GPIO12*%
X188163200Y-109220000D02*
X188163200Y-110642400D01*
X197967600Y-111480600D02*
X199390000Y-110058200D01*
X196903870Y-103759000D02*
X196776870Y-103632000D01*
X196776870Y-103632000D02*
X190408600Y-103632000D01*
X199390000Y-104927400D02*
X198221600Y-103759000D01*
X190408600Y-103632000D02*
X188468000Y-101691400D01*
X198221600Y-103759000D02*
X196903870Y-103759000D01*
X199390000Y-110058200D02*
X199390000Y-104927400D01*
X188163200Y-110642400D02*
X189001400Y-111480600D01*
X189001400Y-111480600D02*
X197967600Y-111480600D01*
D28*
%TO.N,GSIN*%
X166878000Y-103047800D02*
X166878000Y-100421400D01*
X166878000Y-100421400D02*
X168148000Y-99151400D01*
X154854200Y-108254800D02*
X161671000Y-108254800D01*
X161671000Y-108254800D02*
X166878000Y-103047800D01*
X152349200Y-110759800D02*
X154854200Y-108254800D01*
D27*
%TO.N,RPI0_GPIO18*%
X160800051Y-107569000D02*
X165027100Y-103341951D01*
X163863251Y-101691400D02*
X163068000Y-101691400D01*
X172389800Y-116763800D02*
X166751000Y-111125000D01*
X165027100Y-102855249D02*
X163863251Y-101691400D01*
X180518970Y-112040830D02*
X175796000Y-116763800D01*
X191570100Y-110893100D02*
X190246000Y-110893100D01*
X157175200Y-109169200D02*
X156083000Y-109169200D01*
X158826200Y-110820200D02*
X157175200Y-109169200D01*
X193243200Y-109220000D02*
X191570100Y-110893100D01*
X175796000Y-116763800D02*
X172389800Y-116763800D01*
X156311600Y-107569000D02*
X160800051Y-107569000D01*
X165027100Y-103341951D02*
X165027100Y-102855249D01*
X188824485Y-112040830D02*
X180518970Y-112040830D01*
X166751000Y-111125000D02*
X163017200Y-111125000D01*
%TO.N,RPI0_GPIO0*%
X182067200Y-100472200D02*
X183388000Y-99151400D01*
X181438200Y-110865000D02*
X183083200Y-109220000D01*
X175006000Y-110286800D02*
X175584200Y-110865000D01*
X182067200Y-100939600D02*
X182067200Y-100472200D01*
X175584200Y-110865000D02*
X181438200Y-110865000D01*
D28*
%TO.N,MISO_INTER*%
X209499200Y-76784200D02*
X209499200Y-78587600D01*
X222885000Y-77419200D02*
X221818200Y-78486000D01*
X175768000Y-99151400D02*
X174714000Y-100205400D01*
X226398792Y-77419200D02*
X222885000Y-77419200D01*
X220268800Y-78486000D02*
X219430600Y-79324200D01*
X174714000Y-105448200D02*
X178485800Y-109220000D01*
X214503000Y-75107800D02*
X211175600Y-75107800D01*
X219430600Y-79324200D02*
X216611200Y-79324200D01*
X221818200Y-78486000D02*
X220268800Y-78486000D01*
X178485800Y-109220000D02*
X179273200Y-109220000D01*
X215849200Y-76454000D02*
X214503000Y-75107800D01*
X215849200Y-78562200D02*
X215849200Y-76454000D01*
X174714000Y-100205400D02*
X174714000Y-105448200D01*
X216611200Y-79324200D02*
X215849200Y-78562200D01*
X227968674Y-78634726D02*
X227614318Y-78634726D01*
X211175600Y-75107800D02*
X209499200Y-76784200D01*
X227614318Y-78634726D02*
X226398792Y-77419200D01*
D27*
%TO.N,RPI0_GPIO19*%
X195675700Y-110382500D02*
X194513200Y-109220000D01*
X197534724Y-110382500D02*
X195675700Y-110382500D01*
X198729600Y-106527600D02*
X198729600Y-109187624D01*
X198729600Y-109187624D02*
X197534724Y-110382500D01*
D28*
%TO.N,SOUT*%
X172362218Y-95986600D02*
X182484392Y-95986600D01*
X149783800Y-109829600D02*
X151414757Y-111460557D01*
X151414757Y-111460557D02*
X160192443Y-111460557D01*
X185343800Y-99110800D02*
X185384400Y-99151400D01*
X169367200Y-102285800D02*
X169367200Y-98981618D01*
X183601992Y-97104200D02*
X184023000Y-97104200D01*
X169367200Y-98981618D02*
X172362218Y-95986600D01*
X185343800Y-98425000D02*
X185343800Y-99110800D01*
X184023000Y-97104200D02*
X185343800Y-98425000D01*
X160192443Y-111460557D02*
X169367200Y-102285800D01*
X185384400Y-99151400D02*
X185928000Y-99151400D01*
X149758400Y-104165400D02*
X149783800Y-104190800D01*
X149783800Y-104190800D02*
X149783800Y-109829600D01*
X182484392Y-95986600D02*
X183601992Y-97104200D01*
D27*
%TO.N,RPI0_GPIO7*%
X185623200Y-109220000D02*
X183286400Y-111556800D01*
X183286400Y-111556800D02*
X177749200Y-111556800D01*
D28*
%TO.N,GSOUT*%
X151358600Y-104800400D02*
X155244800Y-104800400D01*
X150698200Y-104140000D02*
X151358600Y-104800400D01*
D27*
%TO.N,RPI0_GPIO14*%
X190703200Y-109220000D02*
X189433200Y-110490000D01*
X165481000Y-107213400D02*
X163322000Y-109372400D01*
X168681400Y-107213400D02*
X165481000Y-107213400D01*
X170053000Y-108585000D02*
X168681400Y-107213400D01*
X156972000Y-104800400D02*
X157784800Y-103987600D01*
X189433200Y-110490000D02*
X189230000Y-110490000D01*
X156972000Y-106857800D02*
X156972000Y-104800400D01*
%TO.N,BLK*%
X192262800Y-100406200D02*
X193548000Y-101691400D01*
X171272200Y-95402400D02*
X182448200Y-95402400D01*
X182854600Y-95808800D02*
X184607200Y-95808800D01*
X187147200Y-99974400D02*
X187579000Y-100406200D01*
X170840400Y-95834200D02*
X171272200Y-95402400D01*
X187579000Y-100406200D02*
X192262800Y-100406200D01*
X182448200Y-95402400D02*
X182854600Y-95808800D01*
X184607200Y-95808800D02*
X187147200Y-98348800D01*
X187147200Y-98348800D02*
X187147200Y-99974400D01*
X163499800Y-103174800D02*
X151942800Y-103174800D01*
X163728400Y-103403400D02*
X163499800Y-103174800D01*
%TO.N,GSBLK*%
X181889400Y-96697800D02*
X172694600Y-96697800D01*
X152755600Y-107772200D02*
X151282400Y-109245400D01*
X182600600Y-97409000D02*
X181889400Y-96697800D01*
X163743896Y-97002600D02*
X161772600Y-98973896D01*
X159105600Y-105410000D02*
X159105600Y-105130600D01*
X161772600Y-98973896D02*
X161772600Y-102438200D01*
X171602400Y-97790000D02*
X171627800Y-97815400D01*
X169951400Y-97002600D02*
X163743896Y-97002600D01*
X172694600Y-96697800D02*
X171602400Y-97790000D01*
X151282400Y-109245400D02*
X150698200Y-109245400D01*
X170307000Y-96647000D02*
X169951400Y-97002600D01*
X159105600Y-105130600D02*
X160197800Y-104038400D01*
D28*
%TO.N,RTC_SCL*%
X149758400Y-100431600D02*
X148767800Y-101422200D01*
X148767800Y-101422200D02*
X148767800Y-110202800D01*
X148767800Y-110202800D02*
X157513200Y-118948200D01*
X154167800Y-100431600D02*
X149758400Y-100431600D01*
X155448000Y-99151400D02*
X154167800Y-100431600D01*
D27*
%TO.N,RPI0_GPIO15*%
X173304200Y-108661200D02*
X173776175Y-108189225D01*
X157908500Y-105006900D02*
X159131000Y-103784400D01*
X179171600Y-105816400D02*
X178155600Y-104800400D01*
X158165800Y-106807000D02*
X157908500Y-106549700D01*
X172694600Y-105892600D02*
X167132000Y-105892600D01*
X173776175Y-108189225D02*
X173776175Y-106974175D01*
X177592791Y-104800400D02*
X177519523Y-104727132D01*
X157908500Y-106549700D02*
X157908500Y-105006900D01*
X180797200Y-105816400D02*
X179171600Y-105816400D01*
X178155600Y-104800400D02*
X177592791Y-104800400D01*
X173776175Y-106974175D02*
X172694600Y-105892600D01*
%TO.N,RPI0_GPIO21*%
X196697600Y-104444800D02*
X196697600Y-104495600D01*
X196697600Y-104495600D02*
X193243200Y-107950000D01*
D28*
%TO.N,UP_D-*%
X215083600Y-101774200D02*
X224172000Y-101774200D01*
X224172000Y-101774200D02*
X224881506Y-101064694D01*
X211081722Y-94712321D02*
X212725000Y-96355599D01*
X210798879Y-94712321D02*
X211081722Y-94712321D01*
X212725000Y-99415600D02*
X215083600Y-101774200D01*
X224881506Y-101064694D02*
X224881506Y-100981613D01*
X212725000Y-96355599D02*
X212725000Y-99415600D01*
%TO.N,UP_D+*%
X224173700Y-100823500D02*
X224173700Y-101136100D01*
X224997400Y-99999800D02*
X224173700Y-100823500D01*
X213233000Y-96227201D02*
X211399921Y-94394122D01*
X223985600Y-101324200D02*
X215319400Y-101324200D01*
X213233000Y-99237800D02*
X213233000Y-96227201D01*
X224173700Y-101136100D02*
X223985600Y-101324200D01*
X211399921Y-94394122D02*
X211399921Y-94111279D01*
X215319400Y-101324200D02*
X213233000Y-99237800D01*
D27*
%TO.N,RP2040_GPIO11*%
X194475000Y-78350000D02*
X194475000Y-78050000D01*
X232333800Y-76885800D02*
X231898000Y-76450000D01*
X227066400Y-75377600D02*
X219583000Y-75377600D01*
X193191794Y-115465100D02*
X189328300Y-115465100D01*
X231898000Y-76450000D02*
X228138800Y-76450000D01*
X194475000Y-78050000D02*
X198375000Y-74150000D01*
X194716400Y-113741200D02*
X194716400Y-113940494D01*
X198375000Y-74150000D02*
X217556297Y-74150000D01*
X228138800Y-76450000D02*
X227066400Y-75377600D01*
X194716400Y-113940494D02*
X193191794Y-115465100D01*
X191541400Y-88188800D02*
X191770000Y-87960200D01*
X191770000Y-81055000D02*
X194475000Y-78350000D01*
X191770000Y-87960200D02*
X191770000Y-81055000D01*
X189328300Y-115465100D02*
X188163200Y-114300000D01*
X217556297Y-74150000D02*
X218046615Y-74640318D01*
%TO.N,ONEWIRE_DETECT*%
X205333600Y-111734600D02*
X204012800Y-113055400D01*
X205333600Y-105435400D02*
X205333600Y-111734600D01*
X204012800Y-113055400D02*
X194487800Y-113055400D01*
X194487800Y-113055400D02*
X193243200Y-114300000D01*
%TO.N,RP2040_GPIO12*%
X220303410Y-84785200D02*
X221776610Y-83312000D01*
X233192000Y-88513600D02*
X233934000Y-89255600D01*
X201244200Y-94361000D02*
X201295000Y-94411800D01*
X214698200Y-84785200D02*
X220303410Y-84785200D01*
X226882800Y-83312000D02*
X232084400Y-88513600D01*
X232084400Y-88513600D02*
X233192000Y-88513600D01*
X221776610Y-83312000D02*
X226882800Y-83312000D01*
X201295000Y-94411800D02*
X203250800Y-94411800D01*
X203250800Y-94411800D02*
X207772000Y-89890600D01*
X214389300Y-84476300D02*
X214698200Y-84785200D01*
X212322700Y-84476300D02*
X214389300Y-84476300D01*
X207772000Y-89890600D02*
X207772000Y-89027000D01*
X207772000Y-89027000D02*
X212322700Y-84476300D01*
%TO.N,RP2040_GPIO10*%
X235915200Y-98856800D02*
X235756800Y-98698400D01*
X235756800Y-98698400D02*
X235756800Y-89478200D01*
X235756800Y-89478200D02*
X235661200Y-89382600D01*
D28*
%TO.N,RP2040_GPIO29*%
X209087727Y-98684073D02*
X204241400Y-103530400D01*
X214858600Y-80264000D02*
X215315800Y-80721200D01*
X204241400Y-103530400D02*
X204241400Y-111633000D01*
X210392503Y-81000000D02*
X211079526Y-80312977D01*
X205806455Y-82559582D02*
X206425800Y-82559582D01*
X199288400Y-112115600D02*
X194157600Y-112115600D01*
X209087727Y-91140273D02*
X209087727Y-98684073D01*
X222382457Y-80721200D02*
X222945575Y-81284318D01*
X215315800Y-80721200D02*
X222382457Y-80721200D01*
X194157600Y-112115600D02*
X193243200Y-113030000D01*
X204241400Y-111633000D02*
X203593800Y-112280600D01*
X205383151Y-82982886D02*
X205806455Y-82559582D01*
X207985382Y-81000000D02*
X210392503Y-81000000D01*
X203593800Y-112280600D02*
X199453400Y-112280600D01*
X206425800Y-82559582D02*
X207985382Y-81000000D01*
X199453400Y-112280600D02*
X199288400Y-112115600D01*
%TO.N,RP2040_D+*%
X205441600Y-80385399D02*
X205441600Y-80041800D01*
X206296006Y-81239805D02*
X205441600Y-80385399D01*
X214549808Y-84088800D02*
X214504400Y-84088800D01*
X214504400Y-84088800D02*
X214206600Y-83791000D01*
X216546097Y-84172000D02*
X214633008Y-84172000D01*
X201097858Y-79677300D02*
X199699079Y-78278521D01*
X214633008Y-84172000D02*
X214549808Y-84088800D01*
X206296006Y-81522648D02*
X206296006Y-81239805D01*
X205077100Y-79677300D02*
X201097858Y-79677300D01*
X209875921Y-85133078D02*
X209875921Y-85415921D01*
X214206600Y-83791000D02*
X211217999Y-83791000D01*
X216953278Y-83764819D02*
X216546097Y-84172000D01*
X217236121Y-83764819D02*
X216953278Y-83764819D01*
X205441600Y-80041800D02*
X205077100Y-79677300D01*
X211217999Y-83791000D02*
X209875921Y-85133078D01*
%TO.N,RP2040_D-*%
X198740765Y-78388306D02*
X198740765Y-79106765D01*
X214736196Y-83638820D02*
X214690820Y-83638820D01*
X201639799Y-79300000D02*
X200018320Y-77678521D01*
X205841600Y-80149001D02*
X205841600Y-79857600D01*
X214690820Y-83638820D02*
X214393000Y-83341000D01*
X214819376Y-83722000D02*
X214736196Y-83638820D01*
X216635079Y-83163777D02*
X216635079Y-83446620D01*
X199450550Y-77678521D02*
X198740765Y-78388306D01*
X216635079Y-83446620D02*
X216359699Y-83722000D01*
X205841600Y-79857600D02*
X205284000Y-79300000D01*
X205284000Y-79300000D02*
X201639799Y-79300000D01*
X209557722Y-84814879D02*
X209274879Y-84814879D01*
X200018320Y-77678521D02*
X199450550Y-77678521D01*
X211031601Y-83341000D02*
X209557722Y-84814879D01*
X206897048Y-80921606D02*
X206614205Y-80921606D01*
X206614205Y-80921606D02*
X205841600Y-80149001D01*
X216359699Y-83722000D02*
X214819376Y-83722000D01*
X214393000Y-83341000D02*
X211031601Y-83341000D01*
D27*
%TO.N,QSPI_SS*%
X213004400Y-90398600D02*
X209956400Y-90398600D01*
X213541475Y-90935675D02*
X213004400Y-90398600D01*
%TO.N,CHRG_CTRL_1*%
X226161600Y-116636800D02*
X224162267Y-116636800D01*
X224162267Y-116636800D02*
X222414400Y-114888933D01*
X222414400Y-114888933D02*
X222414400Y-114808082D01*
X226237800Y-116560600D02*
X226161600Y-116636800D01*
%TO.N,CHRG_CTRL_2*%
X223638369Y-117271800D02*
X221174651Y-114808082D01*
X221174651Y-114808082D02*
X220914400Y-114808082D01*
X224256600Y-117271800D02*
X223638369Y-117271800D01*
%TO.N,BATT_SDA*%
X226009200Y-110210600D02*
X223914400Y-112305400D01*
X231902000Y-92024200D02*
X231902000Y-104597200D01*
X229514400Y-87884000D02*
X229514400Y-89636600D01*
X223914400Y-112305400D02*
X223914400Y-115558082D01*
X232333800Y-110210600D02*
X226009200Y-110210600D01*
X229514400Y-89636600D02*
X231902000Y-92024200D01*
X233654600Y-106349800D02*
X233654600Y-108889800D01*
X231902000Y-104597200D02*
X233654600Y-106349800D01*
X233654600Y-108889800D02*
X232333800Y-110210600D01*
D28*
%TO.N,BATT_SCL*%
X232562400Y-91694000D02*
X232562400Y-103479600D01*
X232562400Y-103479600D02*
X234924600Y-105841800D01*
X226491800Y-111429800D02*
X225664400Y-112257200D01*
X234924600Y-105841800D02*
X234924600Y-109220000D01*
X230200200Y-88544400D02*
X230200200Y-89331800D01*
X225664400Y-112257200D02*
X225664400Y-115808082D01*
X232714800Y-111429800D02*
X226491800Y-111429800D01*
X234924600Y-109220000D02*
X232714800Y-111429800D01*
X230200200Y-89331800D02*
X232562400Y-91694000D01*
D27*
%TO.N,HUB_SDA*%
X206984600Y-88494800D02*
X205143700Y-90335700D01*
X228295200Y-78028800D02*
X228295200Y-77546200D01*
X205143700Y-90335700D02*
X202654500Y-90335700D01*
X229016400Y-78750000D02*
X228295200Y-78028800D01*
X206984600Y-87020400D02*
X206984600Y-88494800D01*
X202654500Y-90335700D02*
X201690200Y-91300000D01*
X230250000Y-78750000D02*
X229016400Y-78750000D01*
X220076150Y-76022200D02*
X219506800Y-76591550D01*
X226771200Y-76022200D02*
X220076150Y-76022200D01*
X201690200Y-91300000D02*
X194696116Y-91300000D01*
X228295200Y-77546200D02*
X226771200Y-76022200D01*
X194696116Y-91300000D02*
X194577664Y-91181548D01*
%TO.N,HUB_SCL*%
X203053700Y-89960700D02*
X202499170Y-89960700D01*
X220550688Y-76525000D02*
X219710505Y-77365183D01*
X201874220Y-90585650D02*
X196714199Y-90585650D01*
X215044217Y-82524600D02*
X210489800Y-82524600D01*
X215639817Y-83120200D02*
X215044217Y-82524600D01*
X202499170Y-89960700D02*
X201874220Y-90585650D01*
X227250621Y-77422500D02*
X226353121Y-76525000D01*
X226353121Y-76525000D02*
X220550688Y-76525000D01*
X210489800Y-82524600D02*
X203053700Y-89960700D01*
%TO.N,PD_SDA*%
X234010200Y-99314000D02*
X235153200Y-100457000D01*
X234899200Y-91135200D02*
X235178600Y-91414600D01*
X235153200Y-102006400D02*
X234518200Y-102641400D01*
X235178600Y-93218000D02*
X234010200Y-94386400D01*
X235153200Y-100457000D02*
X235153200Y-102006400D01*
X235178600Y-91414600D02*
X235178600Y-93218000D01*
X234010200Y-94386400D02*
X234010200Y-99314000D01*
%TO.N,PD_SCL*%
X229539800Y-90652600D02*
X231089200Y-92202000D01*
X231089200Y-92202000D02*
X231089200Y-101803200D01*
X229387400Y-90652600D02*
X229539800Y-90652600D01*
X231089200Y-101803200D02*
X229590600Y-103301800D01*
X226596700Y-103301800D02*
X225171000Y-101876100D01*
X222072200Y-100355400D02*
X222326200Y-100609400D01*
X221030800Y-100355400D02*
X222072200Y-100355400D01*
X229590600Y-103301800D02*
X226596700Y-103301800D01*
X220954600Y-100431600D02*
X221030800Y-100355400D01*
%TO.N,PD_INT*%
X217474800Y-99669600D02*
X219481400Y-99669600D01*
X215083900Y-95859600D02*
X215083900Y-97278700D01*
X219481400Y-99669600D02*
X220091000Y-99060000D01*
X215083900Y-97278700D02*
X217474800Y-99669600D01*
%TO.N,BATT_INT*%
X190322200Y-89052400D02*
X193008451Y-89052400D01*
X218998800Y-116473333D02*
X218998800Y-114452400D01*
X220433549Y-117908082D02*
X218998800Y-116473333D01*
X223443800Y-117908082D02*
X220433549Y-117908082D01*
X216513992Y-79775000D02*
X214941300Y-78202308D01*
X201302075Y-95707200D02*
X201454475Y-95554800D01*
X221793989Y-79775000D02*
X216513992Y-79775000D01*
X225275214Y-77975000D02*
X223593989Y-77975000D01*
X206019400Y-95554800D02*
X206121000Y-95453200D01*
X211331300Y-98885500D02*
X211331300Y-97322911D01*
X218998800Y-114452400D02*
X214960200Y-110413800D01*
X190068200Y-89306400D02*
X190322200Y-89052400D01*
X193008451Y-89052400D02*
X194320000Y-87740851D01*
X200329800Y-75641200D02*
X209067400Y-75641200D01*
X227284814Y-79984600D02*
X225275214Y-77975000D01*
X213644407Y-75707799D02*
X212772530Y-75707799D01*
X214731600Y-102285800D02*
X211331300Y-98885500D01*
X209067400Y-75641200D02*
X209296000Y-75869800D01*
X194320000Y-87740851D02*
X194320000Y-81651000D01*
X214941300Y-77004692D02*
X213644407Y-75707799D01*
X214731600Y-103106600D02*
X214731600Y-102285800D01*
X228799900Y-80184500D02*
X228600000Y-79984600D01*
X194320000Y-81651000D02*
X200329800Y-75641200D01*
X189992000Y-94059500D02*
X191639700Y-95707200D01*
X215425000Y-103800000D02*
X214731600Y-103106600D01*
X214941300Y-78202308D02*
X214941300Y-77004692D01*
X211331300Y-97322911D02*
X210208626Y-96200237D01*
X228600000Y-79984600D02*
X227284814Y-79984600D01*
X201454475Y-95554800D02*
X206019400Y-95554800D01*
X191639700Y-95707200D02*
X201302075Y-95707200D01*
X223593989Y-77975000D02*
X221793989Y-79775000D01*
%TO.N,QSPI__SD1*%
X216966800Y-88366600D02*
X216408000Y-87807800D01*
X216408000Y-87807800D02*
X213156800Y-87807800D01*
%TO.N,QSPI_SD3*%
X214694870Y-85325000D02*
X214701270Y-85318600D01*
X214701270Y-85318600D02*
X220300340Y-85318600D01*
X221655986Y-83962954D02*
X223248001Y-83962954D01*
X220300340Y-85318600D02*
X221655986Y-83962954D01*
X212300000Y-85325000D02*
X214694870Y-85325000D01*
%TO.N,QSPI_SCLK*%
X223247999Y-85131104D02*
X221548496Y-85131104D01*
X220479600Y-86200000D02*
X214900000Y-86200000D01*
X214900000Y-86200000D02*
X214650000Y-86450000D01*
X221548496Y-85131104D02*
X220479600Y-86200000D01*
%TO.N,Net-(U2-RBIAS)*%
X200984450Y-82555750D02*
X200984450Y-83674550D01*
X202339051Y-81372800D02*
X202167400Y-81372800D01*
X203403200Y-80308651D02*
X202339051Y-81372800D01*
X202167400Y-81372800D02*
X200984450Y-82555750D01*
X203403200Y-80277300D02*
X203403200Y-80308651D01*
D28*
%TO.N,EXTRA_USB3_D-*%
X209887727Y-99015445D02*
X209887727Y-98563073D01*
X207162400Y-112217200D02*
X207162400Y-101740772D01*
X207162400Y-101740772D02*
X209887727Y-99015445D01*
X200406000Y-115239800D02*
X204139800Y-115239800D01*
X202365001Y-96371199D02*
X191113472Y-96371199D01*
X190775121Y-96032848D02*
X190775121Y-95750005D01*
X202565000Y-96171200D02*
X202365001Y-96371199D01*
X209887727Y-98563073D02*
X210635400Y-97815400D01*
X191113472Y-96371199D02*
X190775121Y-96032848D01*
X204139800Y-115239800D02*
X207162400Y-112217200D01*
X194513200Y-118110000D02*
X194513200Y-117476397D01*
X195457197Y-116532400D02*
X199113400Y-116532400D01*
X199113400Y-116532400D02*
X200406000Y-115239800D01*
X194513200Y-117476397D02*
X195457197Y-116532400D01*
%TD*%
%TA.AperFunction,Conductor*%
%TO.N,EXT_PWR*%
G36*
X203727239Y-115559985D02*
G01*
X203772994Y-115612789D01*
X203784200Y-115664300D01*
X203784200Y-118849600D01*
X203764515Y-118916639D01*
X203711711Y-118962394D01*
X203660200Y-118973600D01*
X201419000Y-118973600D01*
X201351961Y-118953915D01*
X201306206Y-118901111D01*
X201295000Y-118849600D01*
X201295000Y-115664300D01*
X201314685Y-115597261D01*
X201367489Y-115551506D01*
X201419000Y-115540300D01*
X203660200Y-115540300D01*
X203727239Y-115559985D01*
G37*
%TD.AperFunction*%
%TA.AperFunction,Conductor*%
G36*
X203727239Y-108680885D02*
G01*
X203772994Y-108733689D01*
X203784200Y-108785200D01*
X203784200Y-111613867D01*
X203764515Y-111680906D01*
X203747881Y-111701548D01*
X203505648Y-111943781D01*
X203444325Y-111977266D01*
X203417967Y-111980100D01*
X201419000Y-111980100D01*
X201351961Y-111960415D01*
X201306206Y-111907611D01*
X201295000Y-111856100D01*
X201295000Y-108785200D01*
X201314685Y-108718161D01*
X201367489Y-108672406D01*
X201419000Y-108661200D01*
X203660200Y-108661200D01*
X203727239Y-108680885D01*
G37*
%TD.AperFunction*%
%TD*%
%TA.AperFunction,Conductor*%
%TO.N,Net-(U8-SW)*%
G36*
X162627839Y-88534885D02*
G01*
X162673594Y-88587689D01*
X162684800Y-88639200D01*
X162684800Y-89141200D01*
X162665115Y-89208239D01*
X162612311Y-89253994D01*
X162560800Y-89265200D01*
X162134800Y-89265200D01*
X162134800Y-90873866D01*
X162115115Y-90940905D01*
X162110000Y-90948266D01*
X162022000Y-91065600D01*
X161966029Y-91107421D01*
X161922800Y-91115200D01*
X160884800Y-91115200D01*
X160166039Y-91594374D01*
X160099340Y-91615182D01*
X160097256Y-91615200D01*
X158637362Y-91615200D01*
X158633275Y-91614000D01*
X158584800Y-91614000D01*
X158584800Y-90115200D01*
X160060925Y-90115200D01*
X160100455Y-90115200D01*
X160164250Y-90132870D01*
X160884800Y-90565200D01*
X161534799Y-90565200D01*
X161534800Y-90565200D01*
X161634800Y-90415200D01*
X161634800Y-88639200D01*
X161654485Y-88572161D01*
X161707289Y-88526406D01*
X161758800Y-88515200D01*
X162560800Y-88515200D01*
X162627839Y-88534885D01*
G37*
%TD.AperFunction*%
%TD*%
%TA.AperFunction,Conductor*%
%TO.N,Net-(U7-SW)*%
G36*
X162474639Y-78778885D02*
G01*
X162520394Y-78831689D01*
X162531600Y-78883200D01*
X162531600Y-79385200D01*
X162511915Y-79452239D01*
X162459111Y-79497994D01*
X162407600Y-79509200D01*
X161981600Y-79509200D01*
X161981600Y-81117866D01*
X161961915Y-81184905D01*
X161956800Y-81192266D01*
X161868800Y-81309600D01*
X161812829Y-81351421D01*
X161769600Y-81359200D01*
X160731600Y-81359200D01*
X160012839Y-81838374D01*
X159946140Y-81859182D01*
X159944056Y-81859200D01*
X158431600Y-81859200D01*
X158431600Y-80359200D01*
X159947255Y-80359200D01*
X160011050Y-80376870D01*
X160731600Y-80809200D01*
X161381599Y-80809200D01*
X161381600Y-80809200D01*
X161481600Y-80659200D01*
X161481600Y-78883200D01*
X161501285Y-78816161D01*
X161554089Y-78770406D01*
X161605600Y-78759200D01*
X162407600Y-78759200D01*
X162474639Y-78778885D01*
G37*
%TD.AperFunction*%
%TD*%
%TA.AperFunction,Conductor*%
%TO.N,Net-(U8-SW)*%
G36*
X160060925Y-90115200D02*
G01*
X158584800Y-90115200D01*
X158584800Y-91614000D01*
X153682400Y-91614000D01*
X153682399Y-91614000D01*
X153032400Y-92113999D01*
X153032400Y-92890000D01*
X153012715Y-92957039D01*
X152959911Y-93002794D01*
X152908400Y-93014000D01*
X149656400Y-93014000D01*
X149589361Y-92994315D01*
X149543606Y-92941511D01*
X149532400Y-92890000D01*
X149532400Y-91338000D01*
X149552085Y-91270961D01*
X149604889Y-91225206D01*
X149656400Y-91214000D01*
X151982401Y-91214000D01*
X153348677Y-90140497D01*
X153413553Y-90114556D01*
X153425287Y-90114000D01*
X160056838Y-90114000D01*
X160060925Y-90115200D01*
G37*
%TD.AperFunction*%
%TD*%
%TA.AperFunction,Conductor*%
%TO.N,VBUS*%
G36*
X227950106Y-92978185D02*
G01*
X227957462Y-92983296D01*
X229741831Y-94321573D01*
X229755106Y-94333086D01*
X229857035Y-94435015D01*
X229894399Y-94456587D01*
X229942615Y-94507152D01*
X229956400Y-94563974D01*
X229956400Y-98752916D01*
X229936715Y-98819955D01*
X229924568Y-98835868D01*
X227670400Y-101340499D01*
X227670400Y-101978500D01*
X227650715Y-102045539D01*
X227597911Y-102091294D01*
X227546400Y-102102500D01*
X226016400Y-102102500D01*
X225949361Y-102082815D01*
X225903606Y-102030011D01*
X225892400Y-101978500D01*
X225892400Y-101388439D01*
X225912085Y-101321400D01*
X225924647Y-101305028D01*
X228432400Y-98546500D01*
X228432400Y-95752500D01*
X228432400Y-95752499D01*
X226450000Y-94265699D01*
X226408179Y-94209728D01*
X226400400Y-94166499D01*
X226400400Y-93082500D01*
X226420085Y-93015461D01*
X226472889Y-92969706D01*
X226524400Y-92958500D01*
X227883067Y-92958500D01*
X227950106Y-92978185D01*
G37*
%TD.AperFunction*%
%TD*%
%TA.AperFunction,Conductor*%
%TO.N,B+*%
G36*
X224108537Y-105077767D02*
G01*
X224154292Y-105130571D01*
X224165492Y-105180978D01*
X224180400Y-106857800D01*
X225247200Y-107569000D01*
X232642020Y-107593982D01*
X232708991Y-107613893D01*
X232754568Y-107666851D01*
X232765600Y-107717981D01*
X232765600Y-108461417D01*
X232745915Y-108528456D01*
X232693111Y-108574211D01*
X232642017Y-108585416D01*
X225221801Y-108610399D01*
X224256600Y-109321600D01*
X224256600Y-109553200D01*
X224236915Y-109620239D01*
X224184111Y-109665994D01*
X224132600Y-109677200D01*
X222576163Y-109677200D01*
X222509124Y-109657515D01*
X222463369Y-109604711D01*
X222452167Y-109554242D01*
X222444029Y-108585416D01*
X222434621Y-107465405D01*
X222445823Y-107412853D01*
X222476565Y-107345538D01*
X222481064Y-107314246D01*
X222497047Y-107203082D01*
X222476565Y-107060625D01*
X222441350Y-106983517D01*
X222430149Y-106933048D01*
X222415450Y-105183124D01*
X222434571Y-105115921D01*
X222486989Y-105069724D01*
X222539446Y-105058082D01*
X224041498Y-105058082D01*
X224108537Y-105077767D01*
G37*
%TD.AperFunction*%
%TD*%
%TA.AperFunction,Conductor*%
%TO.N,Net-(U7-SW)*%
G36*
X158431600Y-81859200D02*
G01*
X153681599Y-81859200D01*
X153031600Y-82359199D01*
X153031600Y-83135200D01*
X153011915Y-83202239D01*
X152959111Y-83247994D01*
X152907600Y-83259200D01*
X149655600Y-83259200D01*
X149588561Y-83239515D01*
X149542806Y-83186711D01*
X149531600Y-83135200D01*
X149531600Y-81583200D01*
X149551285Y-81516161D01*
X149604089Y-81470406D01*
X149655600Y-81459200D01*
X151981601Y-81459200D01*
X153347877Y-80385697D01*
X153412753Y-80359756D01*
X153424487Y-80359200D01*
X158431600Y-80359200D01*
X158431600Y-81859200D01*
G37*
%TD.AperFunction*%
%TD*%
M02*
