%TF.GenerationSoftware,KiCad,Pcbnew,8.0.3*%
%TF.CreationDate,2024-07-04T12:22:57-04:00*%
%TF.ProjectId,vfd-tool,7666642d-746f-46f6-9c2e-6b696361645f,rev?*%
%TF.SameCoordinates,Original*%
%TF.FileFunction,Soldermask,Bot*%
%TF.FilePolarity,Negative*%
%FSLAX46Y46*%
G04 Gerber Fmt 4.6, Leading zero omitted, Abs format (unit mm)*
G04 Created by KiCad (PCBNEW 8.0.3) date 2024-07-04 12:22:57*
%MOMM*%
%LPD*%
G01*
G04 APERTURE LIST*
G04 Aperture macros list*
%AMRoundRect*
0 Rectangle with rounded corners*
0 $1 Rounding radius*
0 $2 $3 $4 $5 $6 $7 $8 $9 X,Y pos of 4 corners*
0 Add a 4 corners polygon primitive as box body*
4,1,4,$2,$3,$4,$5,$6,$7,$8,$9,$2,$3,0*
0 Add four circle primitives for the rounded corners*
1,1,$1+$1,$2,$3*
1,1,$1+$1,$4,$5*
1,1,$1+$1,$6,$7*
1,1,$1+$1,$8,$9*
0 Add four rect primitives between the rounded corners*
20,1,$1+$1,$2,$3,$4,$5,0*
20,1,$1+$1,$4,$5,$6,$7,0*
20,1,$1+$1,$6,$7,$8,$9,0*
20,1,$1+$1,$8,$9,$2,$3,0*%
G04 Aperture macros list end*
%ADD10R,1.000000X1.000000*%
%ADD11O,1.000000X1.000000*%
%ADD12C,0.990600*%
%ADD13C,0.650000*%
%ADD14O,2.100000X1.000000*%
%ADD15O,1.800000X1.000000*%
%ADD16RoundRect,0.225000X-0.250000X0.225000X-0.250000X-0.225000X0.250000X-0.225000X0.250000X0.225000X0*%
%ADD17C,0.999997*%
%ADD18RoundRect,0.102000X-0.350000X0.650000X-0.350000X-0.650000X0.350000X-0.650000X0.350000X0.650000X0*%
%ADD19RoundRect,0.102000X-0.723900X0.825500X-0.723900X-0.825500X0.723900X-0.825500X0.723900X0.825500X0*%
%ADD20RoundRect,0.102000X-0.723900X1.219200X-0.723900X-1.219200X0.723900X-1.219200X0.723900X1.219200X0*%
%ADD21RoundRect,0.102000X-0.927100X0.825500X-0.927100X-0.825500X0.927100X-0.825500X0.927100X0.825500X0*%
%ADD22RoundRect,0.160000X0.160000X-0.197500X0.160000X0.197500X-0.160000X0.197500X-0.160000X-0.197500X0*%
%ADD23C,2.750000*%
%ADD24RoundRect,0.102000X-0.754000X-0.754000X0.754000X-0.754000X0.754000X0.754000X-0.754000X0.754000X0*%
%ADD25C,1.712000*%
%ADD26RoundRect,0.102000X-1.500000X-2.100000X1.500000X-2.100000X1.500000X2.100000X-1.500000X2.100000X0*%
G04 APERTURE END LIST*
D10*
%TO.C,J7*%
X179273200Y-109220000D03*
D11*
X179273200Y-107950000D03*
X180543200Y-109220000D03*
X180543200Y-107950000D03*
X181813200Y-109220000D03*
X181813200Y-107950000D03*
X183083200Y-109220000D03*
X183083200Y-107950000D03*
X184353200Y-109220000D03*
X184353200Y-107950000D03*
X185623200Y-109220000D03*
X185623200Y-107950000D03*
X186893200Y-109220000D03*
X186893200Y-107950000D03*
X188163200Y-109220000D03*
X188163200Y-107950000D03*
X189433200Y-109220000D03*
X189433200Y-107950000D03*
X190703200Y-109220000D03*
X190703200Y-107950000D03*
X191973200Y-109220000D03*
X191973200Y-107950000D03*
X193243200Y-109220000D03*
X193243200Y-107950000D03*
X194513200Y-109220000D03*
X194513200Y-107950000D03*
X195783200Y-109220000D03*
X195783200Y-107950000D03*
X197053200Y-109220000D03*
X197053200Y-107950000D03*
%TD*%
D12*
%TO.C,J1*%
X211492266Y-77317090D03*
X212430539Y-79119497D03*
X216467418Y-75872610D03*
%TD*%
D10*
%TO.C,J8*%
X184353200Y-114300000D03*
D11*
X184353200Y-113030000D03*
X185623200Y-114300000D03*
X185623200Y-113030000D03*
X186893200Y-114300000D03*
X186893200Y-113030000D03*
X188163200Y-114300000D03*
X188163200Y-113030000D03*
X189433200Y-114300000D03*
X189433200Y-113030000D03*
X190703200Y-114300000D03*
X190703200Y-113030000D03*
X191973200Y-114300000D03*
X191973200Y-113030000D03*
X193243200Y-114300000D03*
X193243200Y-113030000D03*
%TD*%
D10*
%TO.C,J6*%
X179273200Y-119380000D03*
D11*
X179273200Y-118110000D03*
X180543200Y-119380000D03*
X180543200Y-118110000D03*
X181813200Y-119380000D03*
X181813200Y-118110000D03*
X183083200Y-119380000D03*
X183083200Y-118110000D03*
X184353200Y-119380000D03*
X184353200Y-118110000D03*
X185623200Y-119380000D03*
X185623200Y-118110000D03*
X186893200Y-119380000D03*
X186893200Y-118110000D03*
X188163200Y-119380000D03*
X188163200Y-118110000D03*
X189433200Y-119380000D03*
X189433200Y-118110000D03*
X190703200Y-119380000D03*
X190703200Y-118110000D03*
X191973200Y-119380000D03*
X191973200Y-118110000D03*
X193243200Y-119380000D03*
X193243200Y-118110000D03*
X194513200Y-119380000D03*
X194513200Y-118110000D03*
X195783200Y-119380000D03*
X195783200Y-118110000D03*
X197053200Y-119380000D03*
X197053200Y-118110000D03*
%TD*%
D13*
%TO.C,J2*%
X230210400Y-99754500D03*
X230210400Y-93974500D03*
D14*
X229690400Y-101184500D03*
D15*
X233890400Y-101184500D03*
D14*
X229690400Y-92544500D03*
D15*
X233890400Y-92544500D03*
%TD*%
D16*
%TO.C,C30*%
X224485200Y-89852200D03*
X224485200Y-91402200D03*
%TD*%
D17*
%TO.C,J3*%
X221234000Y-77470000D03*
X229209600Y-77470000D03*
D18*
X228467600Y-88174400D03*
X227367600Y-88174400D03*
X226267600Y-88174400D03*
X225167600Y-88174400D03*
X224067600Y-88174400D03*
X222967600Y-88174400D03*
X221867600Y-88174400D03*
X220767600Y-88174400D03*
X219667600Y-88174400D03*
D19*
X218249200Y-87400600D03*
D20*
X218249200Y-77700600D03*
X234074000Y-77700600D03*
D21*
X233299000Y-87400600D03*
%TD*%
D22*
%TO.C,R28*%
X227355400Y-90881200D03*
X227355400Y-89686200D03*
%TD*%
D23*
%TO.C,J5*%
X145498000Y-77421400D03*
X145498000Y-100421400D03*
X203498000Y-77421400D03*
X203498000Y-100421400D03*
D24*
X150368000Y-99151400D03*
D25*
X150368000Y-101691400D03*
X152908000Y-99151400D03*
X152908000Y-101691400D03*
X155448000Y-99151400D03*
X155448000Y-101691400D03*
X157988000Y-99151400D03*
X157988000Y-101691400D03*
X160528000Y-99151400D03*
X160528000Y-101691400D03*
X163068000Y-99151400D03*
X163068000Y-101691400D03*
X165608000Y-99151400D03*
X165608000Y-101691400D03*
X168148000Y-99151400D03*
X168148000Y-101691400D03*
X170688000Y-99151400D03*
X170688000Y-101691400D03*
X173228000Y-99151400D03*
X173228000Y-101691400D03*
X175768000Y-99151400D03*
X175768000Y-101691400D03*
X178308000Y-99151400D03*
X178308000Y-101691400D03*
X180848000Y-99151400D03*
X180848000Y-101691400D03*
X183388000Y-99151400D03*
X183388000Y-101691400D03*
X185928000Y-99151400D03*
X185928000Y-101691400D03*
X188468000Y-99151400D03*
X188468000Y-101691400D03*
X191008000Y-99151400D03*
X191008000Y-101691400D03*
X193548000Y-99151400D03*
X193548000Y-101691400D03*
X196088000Y-99151400D03*
X196088000Y-101691400D03*
X198628000Y-99151400D03*
X198628000Y-101691400D03*
%TD*%
D22*
%TO.C,R30*%
X222707200Y-92443900D03*
X222707200Y-91248900D03*
%TD*%
%TO.C,R26*%
X228447600Y-90881200D03*
X228447600Y-89686200D03*
%TD*%
%TO.C,R33*%
X220548200Y-90881200D03*
X220548200Y-89686200D03*
%TD*%
%TO.C,R31*%
X221615000Y-90882400D03*
X221615000Y-89687400D03*
%TD*%
D26*
%TO.C,BT1*%
X174745200Y-113639600D03*
X145745200Y-113639600D03*
%TD*%
M02*
