%TF.GenerationSoftware,KiCad,Pcbnew,8.0.3*%
%TF.CreationDate,2024-07-04T12:22:57-04:00*%
%TF.ProjectId,vfd-tool,7666642d-746f-46f6-9c2e-6b696361645f,rev?*%
%TF.SameCoordinates,Original*%
%TF.FileFunction,Soldermask,Top*%
%TF.FilePolarity,Negative*%
%FSLAX46Y46*%
G04 Gerber Fmt 4.6, Leading zero omitted, Abs format (unit mm)*
G04 Created by KiCad (PCBNEW 8.0.3) date 2024-07-04 12:22:57*
%MOMM*%
%LPD*%
G01*
G04 APERTURE LIST*
G04 Aperture macros list*
%AMRoundRect*
0 Rectangle with rounded corners*
0 $1 Rounding radius*
0 $2 $3 $4 $5 $6 $7 $8 $9 X,Y pos of 4 corners*
0 Add a 4 corners polygon primitive as box body*
4,1,4,$2,$3,$4,$5,$6,$7,$8,$9,$2,$3,0*
0 Add four circle primitives for the rounded corners*
1,1,$1+$1,$2,$3*
1,1,$1+$1,$4,$5*
1,1,$1+$1,$6,$7*
1,1,$1+$1,$8,$9*
0 Add four rect primitives between the rounded corners*
20,1,$1+$1,$2,$3,$4,$5,0*
20,1,$1+$1,$4,$5,$6,$7,0*
20,1,$1+$1,$6,$7,$8,$9,0*
20,1,$1+$1,$8,$9,$2,$3,0*%
%AMFreePoly0*
4,1,6,1.000000,0.000000,0.500000,-0.750000,-0.500000,-0.750000,-0.500000,0.750000,0.500000,0.750000,1.000000,0.000000,1.000000,0.000000,$1*%
%AMFreePoly1*
4,1,106,0.281690,0.645010,0.308711,0.643049,0.335054,0.639462,0.360664,0.634235,0.385484,0.627351,0.409458,0.618795,0.432531,0.608554,0.454648,0.596610,0.475753,0.582950,0.495790,0.567556,0.514703,0.550414,0.532232,0.531737,0.548158,0.511781,0.562494,0.490607,0.575250,0.468274,0.586437,0.444840,0.596067,0.420365,0.604151,0.394906,0.610701,0.368525,0.619238,0.313228,
0.621771,0.254945,0.618387,0.194147,0.609178,0.131307,0.594232,0.066897,0.573639,0.001388,0.547489,-0.064749,0.515870,-0.131040,0.478873,-0.197015,0.436588,-0.262201,0.389102,-0.326126,0.336508,-0.388319,0.336509,-0.388317,0.308657,-0.418262,0.280258,-0.446916,0.251369,-0.474265,0.222043,-0.500294,0.192337,-0.524986,0.162308,-0.548326,0.132009,-0.570302,0.101499,-0.590896,
0.070830,-0.610092,0.040060,-0.627876,0.009245,-0.644233,-0.021561,-0.659148,-0.052301,-0.672604,-0.082919,-0.684587,-0.113362,-0.695082,-0.143571,-0.704073,-0.173492,-0.711545,-0.203068,-0.717483,-0.232245,-0.721872,-0.260967,-0.724697,-0.289177,-0.725941,-0.316822,-0.725590,-0.343843,-0.723628,-0.370186,-0.720042,-0.395795,-0.714814,-0.420615,-0.707930,-0.444589,-0.699375,-0.467663,-0.689133,
-0.489780,-0.677190,-0.510885,-0.663528,-0.530922,-0.648135,-0.549835,-0.630994,-0.567363,-0.612317,-0.583289,-0.592361,-0.597624,-0.571188,-0.610379,-0.548855,-0.621567,-0.525421,-0.631197,-0.500946,-0.639280,-0.475488,-0.645829,-0.449108,-0.654366,-0.393811,-0.656898,-0.335528,-0.653514,-0.274730,-0.644305,-0.211891,-0.629358,-0.147480,-0.608765,-0.081971,-0.582614,-0.015835,-0.550996,0.050455,
-0.514000,0.116431,-0.471714,0.181616,-0.424229,0.245541,-0.371634,0.307733,-0.343783,0.337678,-0.315386,0.366332,-0.286496,0.393682,-0.257171,0.419710,-0.227466,0.444403,-0.197437,0.467744,-0.167139,0.489720,-0.136628,0.510313,-0.105960,0.529510,-0.075190,0.547294,-0.044375,0.563652,-0.013570,0.578566,0.017169,0.592022,0.047788,0.604006,0.078230,0.614501,0.108439,0.623492,
0.138360,0.630965,0.167937,0.636902,0.197113,0.641292,0.225836,0.644116,0.254046,0.645360,0.281690,0.645010,0.281690,0.645010,$1*%
%AMFreePoly2*
4,1,109,0.162500,0.478125,0.189442,0.476693,0.215847,0.474164,0.241671,0.470553,0.266874,0.465875,0.291412,0.460146,0.315245,0.453381,0.338330,0.445595,0.360625,0.436804,0.382089,0.427023,0.402678,0.416268,0.422351,0.404553,0.441066,0.391894,0.458781,0.378307,0.475454,0.363807,0.491042,0.348408,0.505505,0.332128,0.518799,0.314980,0.530884,0.296981,0.541715,0.278145,
0.551253,0.258489,0.559454,0.238026,0.566277,0.216773,0.571679,0.194746,0.575577,0.172228,0.577932,0.149519,0.578775,0.126659,0.578136,0.103687,0.576049,0.080642,0.572539,0.057563,0.567643,0.034489,0.561386,0.011458,0.553803,-0.011489,0.544922,-0.034314,0.534775,-0.056977,0.523391,-0.079440,0.497041,-0.123611,0.466116,-0.166513,0.430862,-0.207832,0.391523,-0.247258,
0.348346,-0.284477,0.301576,-0.319179,0.251459,-0.351051,0.198240,-0.379779,0.142163,-0.405052,0.083475,-0.426558,0.053584,-0.435693,0.023853,-0.443593,-0.005679,-0.450273,-0.034965,-0.455748,-0.063966,-0.460033,-0.092639,-0.463144,-0.120943,-0.465097,-0.148834,-0.465906,-0.176273,-0.465587,-0.203216,-0.464156,-0.229620,-0.461627,-0.255445,-0.458017,-0.280648,-0.453339,-0.305187,-0.447609,
-0.329020,-0.440844,-0.352105,-0.433059,-0.374400,-0.424268,-0.395863,-0.414487,-0.416452,-0.403732,-0.436126,-0.392017,-0.454840,-0.379359,-0.472555,-0.365772,-0.489228,-0.351272,-0.504816,-0.335874,-0.519279,-0.319593,-0.532572,-0.302446,-0.544656,-0.284446,-0.555486,-0.265611,-0.565024,-0.245954,-0.573225,-0.225491,-0.580047,-0.204239,-0.585448,-0.182211,-0.589346,-0.159693,-0.591701,-0.136984,
-0.592543,-0.114124,-0.591905,-0.091152,-0.589817,-0.068106,-0.586309,-0.045027,-0.581411,-0.021954,-0.575155,0.001077,-0.567571,0.024024,-0.558691,0.046849,-0.548543,0.069512,-0.537160,0.091976,-0.510810,0.136146,-0.479885,0.179048,-0.444630,0.220367,-0.405292,0.259793,-0.362115,0.297013,-0.315345,0.331714,-0.265228,0.363586,-0.212008,0.392314,-0.155931,0.417587,-0.097244,0.439093,
-0.067353,0.448229,-0.037622,0.456129,-0.008092,0.462810,0.021194,0.468285,0.050195,0.472571,0.078868,0.475682,0.107171,0.477634,0.135062,0.478444,0.162500,0.478125,0.162500,0.478125,$1*%
%AMFreePoly3*
4,1,105,0.105507,0.755671,0.130767,0.753576,0.155884,0.749420,0.180526,0.743241,0.204374,0.735140,0.227407,0.725168,0.249608,0.713384,0.270957,0.699841,0.291435,0.684596,0.311024,0.667703,0.329706,0.649218,0.347460,0.629195,0.364267,0.607690,0.380110,0.584758,0.394969,0.560454,0.408826,0.534834,0.421660,0.507952,0.433454,0.479864,0.444189,0.450624,0.453845,0.420289,
0.462405,0.388912,0.469848,0.356550,0.476156,0.323258,0.481311,0.289090,0.485294,0.254103,0.488084,0.218350,0.489664,0.181888,0.490014,0.144771,0.489116,0.107055,0.486952,0.068795,0.483502,0.030045,0.478746,-0.009138,0.472666,-0.048699,0.465245,-0.088585,0.456461,-0.128739,0.435264,-0.207743,0.409776,-0.283446,0.380334,-0.355508,0.347272,-0.423590,0.310924,-0.487349,
0.271626,-0.546446,0.229712,-0.600541,0.185519,-0.649292,0.139380,-0.692360,0.091630,-0.729404,0.042605,-0.760083,-0.007360,-0.784056,-0.032592,-0.793423,-0.057932,-0.800986,-0.083340,-0.806701,-0.108773,-0.810528,-0.134192,-0.812423,-0.159552,-0.812344,-0.184811,-0.810248,-0.209929,-0.806093,-0.234572,-0.799916,-0.258418,-0.791812,-0.281451,-0.781841,-0.303651,-0.770058,-0.324999,-0.756515,
-0.345477,-0.741270,-0.365067,-0.724377,-0.383747,-0.705892,-0.401501,-0.685870,-0.418307,-0.664364,-0.434151,-0.641432,-0.449009,-0.617128,-0.462866,-0.591507,-0.475700,-0.564626,-0.487494,-0.536537,-0.498228,-0.507298,-0.507885,-0.476962,-0.516444,-0.445586,-0.523888,-0.413223,-0.530196,-0.379931,-0.535351,-0.345763,-0.539333,-0.310775,-0.542123,-0.275023,-0.543704,-0.238560,-0.544055,-0.201442,
-0.543157,-0.163726,-0.540993,-0.125466,-0.537542,-0.086716,-0.532787,-0.047532,-0.526708,-0.007970,-0.519287,0.031917,-0.510503,0.072072,-0.489305,0.151074,-0.463818,0.226776,-0.434375,0.298837,-0.401312,0.366918,-0.364964,0.430676,-0.325665,0.489774,-0.283752,0.543867,-0.239559,0.592618,-0.193419,0.635686,-0.145670,0.672729,-0.096646,0.703409,-0.046680,0.727383,-0.021450,0.736749,
0.003890,0.744311,0.029297,0.750027,0.054731,0.753854,0.080148,0.755749,0.105507,0.755671,0.105507,0.755671,$1*%
%AMFreePoly4*
4,1,89,0.008167,0.589688,0.043252,0.586724,0.078535,0.581622,0.114060,0.574255,0.149874,0.564497,0.186023,0.552223,0.222549,0.537307,0.259503,0.519623,0.277667,0.509715,0.295189,0.499493,0.312087,0.488959,0.328374,0.478119,0.344069,0.466976,0.359185,0.455536,0.387751,0.431780,0.414196,0.406887,0.438652,0.380892,0.461246,0.353831,0.482103,0.325739,0.501354,0.296651,
0.519125,0.266605,0.535545,0.235635,0.550741,0.203776,0.564841,0.171066,0.577973,0.137538,0.590265,0.103230,0.601845,0.068175,0.612416,0.033593,0.622384,-0.001488,0.641003,-0.072874,0.676430,-0.218598,0.695211,-0.291829,0.705300,-0.328295,0.716020,-0.364568,0.727492,-0.400581,0.739843,-0.436262,0.753193,-0.471544,0.767667,-0.506357,0.706996,-0.524756,0.645641,-0.540835,
0.583717,-0.554478,0.521344,-0.565572,0.458638,-0.573999,0.395715,-0.579647,0.332694,-0.582399,0.269690,-0.582141,0.206821,-0.578757,0.144206,-0.572131,0.081958,-0.562151,0.020197,-0.548700,-0.040962,-0.531663,-0.101400,-0.510925,-0.161000,-0.486371,-0.219647,-0.457886,-0.278456,-0.425080,-0.334420,-0.389032,-0.387569,-0.349918,-0.437934,-0.307920,-0.485543,-0.263217,-0.530424,-0.215989,
-0.572606,-0.166416,-0.612116,-0.114679,-0.648985,-0.060955,-0.683241,-0.005426,-0.714914,0.051728,-0.744031,0.110328,-0.770621,0.170194,-0.794711,0.231146,-0.816336,0.293004,-0.835518,0.355589,-0.801212,0.364270,-0.767123,0.373875,-0.733238,0.384288,-0.699547,0.395394,-0.632697,0.419225,-0.566486,0.444449,-0.435613,0.495395,-0.370768,0.519277,-0.338455,0.530419,-0.306199,0.540873,
-0.270848,0.551497,-0.235708,0.561114,-0.200734,0.569599,-0.165881,0.576826,-0.131103,0.582670,-0.096355,0.587004,-0.061590,0.589701,-0.026765,0.590638,0.008167,0.589688,0.008167,0.589688,$1*%
%AMFreePoly5*
4,1,109,-0.020660,0.617761,0.000903,0.615104,0.022387,0.611015,0.043751,0.605520,0.064965,0.598644,0.085989,0.590413,0.106787,0.580855,0.127320,0.569993,0.147555,0.557855,0.167454,0.544466,0.186980,0.529853,0.206098,0.514040,0.224770,0.497056,0.242961,0.478922,0.260632,0.459669,0.277750,0.439321,0.294275,0.417903,0.310172,0.395443,0.325405,0.371964,0.339938,0.347495,
0.353732,0.322060,0.366752,0.295686,0.378962,0.268398,0.390325,0.240223,0.400804,0.211186,0.410363,0.181313,0.426212,0.120626,0.437491,0.059948,0.444313,-0.000343,0.446796,-0.059863,0.445055,-0.118234,0.439206,-0.175075,0.429364,-0.230007,0.415645,-0.282646,0.398165,-0.332615,0.377039,-0.379531,0.365145,-0.401726,0.352384,-0.423015,0.338768,-0.443352,0.324314,-0.462686,
0.309035,-0.480973,0.292946,-0.498165,0.276061,-0.514212,0.258396,-0.529070,0.239963,-0.542687,0.220778,-0.555020,0.200854,-0.566018,0.180209,-0.575636,0.159106,-0.583730,0.137827,-0.590212,0.116410,-0.595106,0.094891,-0.598437,0.073306,-0.600233,0.051692,-0.600519,0.030084,-0.599319,0.008521,-0.596663,-0.012961,-0.592573,-0.034327,-0.587079,-0.055540,-0.580203,-0.076563,-0.571973,
-0.097359,-0.562414,-0.117895,-0.551553,-0.138127,-0.539416,-0.158027,-0.526026,-0.177554,-0.511413,-0.196671,-0.495601,-0.215343,-0.478616,-0.233533,-0.460484,-0.251204,-0.441231,-0.268322,-0.420883,-0.284846,-0.399466,-0.300744,-0.377005,-0.315977,-0.353527,-0.330508,-0.329058,-0.344303,-0.303624,-0.357323,-0.277250,-0.369533,-0.249963,-0.380896,-0.221787,-0.391376,-0.192752,-0.400934,-0.162878,
-0.416783,-0.102190,-0.428061,-0.041512,-0.434884,0.018779,-0.437367,0.078301,-0.435627,0.136673,-0.429778,0.193515,-0.419937,0.248446,-0.406218,0.301086,-0.388738,0.351055,-0.367614,0.397972,-0.355720,0.420167,-0.342960,0.441457,-0.329343,0.461792,-0.314889,0.481128,-0.299610,0.499415,-0.283521,0.516607,-0.266637,0.532654,-0.248972,0.547511,-0.230539,0.561129,-0.211354,0.573461,
-0.191431,0.584460,-0.170785,0.594077,-0.149682,0.602172,-0.128403,0.608653,-0.106987,0.613547,-0.085467,0.616879,-0.063882,0.618674,-0.042268,0.618960,-0.020660,0.617761,-0.020660,0.617761,$1*%
%AMFreePoly6*
4,1,145,-1.494870,1.382005,-1.460095,1.377927,-1.426678,1.370878,-1.394463,1.361032,-1.363291,1.348557,-1.333009,1.333625,-1.303460,1.316407,-1.274487,1.297073,-1.245934,1.275793,-1.189466,1.228081,-0.949158,0.993563,-0.879224,0.930844,-0.802847,0.869218,-0.761852,0.839242,-0.718779,0.810051,-0.673470,0.781818,-0.625768,0.754711,-0.590477,0.736339,-0.540910,0.712812,-0.491790,0.691888,
-0.443167,0.673344,-0.395090,0.656953,-0.347610,0.642488,-0.300779,0.629724,-0.209259,0.608396,0.120842,0.545978,0.192357,0.527066,0.226187,0.515872,0.258663,0.503217,0.289737,0.488877,0.319355,0.472627,0.347472,0.454239,0.374032,0.433488,0.398989,0.410149,0.422289,0.383995,0.443885,0.354801,0.463726,0.322341,0.481759,0.286390,0.497936,0.246722,0.512206,0.203109,
0.524518,0.155328,0.529805,0.125939,0.532533,0.095964,0.532760,0.065464,0.530547,0.034497,0.525955,0.003121,0.519045,-0.028604,0.509873,-0.060620,0.498504,-0.092866,0.469408,-0.157820,0.432238,-0.222996,0.387476,-0.287922,0.335603,-0.352127,0.277102,-0.415143,0.212452,-0.476497,0.142136,-0.535721,0.066635,-0.592342,-0.013569,-0.645890,-0.097995,-0.695896,-0.186162,-0.741887,
-0.277588,-0.783394,-0.290363,-0.753241,-0.302283,-0.722037,-0.313460,-0.689854,-0.324007,-0.656769,-0.343655,-0.588191,-0.362123,-0.516897,-0.399112,-0.368552,-0.419425,-0.292695,-0.430428,-0.254606,-0.442145,-0.216510,-0.454986,-0.177868,-0.469004,-0.139305,-0.484321,-0.100944,-0.501060,-0.062908,-0.519342,-0.025319,-0.539290,0.011699,-0.561025,0.048025,-0.584671,0.083534,-0.610348,0.118105,
-0.638179,0.151613,-0.668287,0.183938,-0.700793,0.214955,-0.735819,0.244542,-0.773487,0.272576,-0.813919,0.298935,-0.857239,0.323494,-0.879740,0.334627,-0.902198,0.344890,-0.924609,0.354301,-0.946967,0.362884,-0.969270,0.370658,-0.991514,0.377648,-1.013695,0.383873,-1.035811,0.389354,-1.079827,0.398172,-1.123536,0.404274,-1.166906,0.407831,-1.209909,0.409013,-1.252516,0.407992,
-1.294698,0.404940,-1.336423,0.400026,-1.377665,0.393424,-1.418393,0.385303,-1.458578,0.375835,-1.498192,0.365191,-1.537205,0.353542,-1.572232,0.342253,-1.606906,0.330462,-1.675196,0.305790,-1.807634,0.255063,-1.871824,0.230702,-1.934689,0.208138,-1.965631,0.197795,-1.996251,0.188220,-2.026548,0.179517,-2.056529,0.171793,-2.072826,0.268486,-2.083838,0.364889,-2.089669,0.460375,
-2.090422,0.554324,-2.086198,0.646109,-2.077101,0.735108,-2.063234,0.820695,-2.044701,0.902248,-2.021604,0.979144,-1.994046,1.050756,-1.978626,1.084387,-1.962129,1.116463,-1.944569,1.146906,-1.925958,1.175639,-1.906309,1.202583,-1.885634,1.227661,-1.863948,1.250796,-1.841261,1.271907,-1.817588,1.290919,-1.792942,1.307750,-1.767335,1.322326,-1.740780,1.334567,-1.694578,1.351888,
-1.650671,1.365216,-1.608903,1.374720,-1.569119,1.380573,-1.531160,1.382945,-1.494870,1.382005,-1.494870,1.382005,$1*%
%AMFreePoly7*
4,1,6,0.500000,-0.750000,-0.650000,-0.750000,-0.150000,0.000000,-0.650000,0.750000,0.500000,0.750000,0.500000,-0.750000,0.500000,-0.750000,$1*%
G04 Aperture macros list end*
%ADD10C,0.000000*%
%ADD11RoundRect,0.160000X-0.197500X-0.160000X0.197500X-0.160000X0.197500X0.160000X-0.197500X0.160000X0*%
%ADD12RoundRect,0.155000X0.212500X0.155000X-0.212500X0.155000X-0.212500X-0.155000X0.212500X-0.155000X0*%
%ADD13RoundRect,0.160000X-0.160000X0.197500X-0.160000X-0.197500X0.160000X-0.197500X0.160000X0.197500X0*%
%ADD14RoundRect,0.237500X0.237500X-0.287500X0.237500X0.287500X-0.237500X0.287500X-0.237500X-0.287500X0*%
%ADD15RoundRect,0.112500X-0.187500X-0.112500X0.187500X-0.112500X0.187500X0.112500X-0.187500X0.112500X0*%
%ADD16RoundRect,0.155000X-0.155000X0.212500X-0.155000X-0.212500X0.155000X-0.212500X0.155000X0.212500X0*%
%ADD17RoundRect,0.250000X0.250000X0.475000X-0.250000X0.475000X-0.250000X-0.475000X0.250000X-0.475000X0*%
%ADD18RoundRect,0.155000X-0.212500X-0.155000X0.212500X-0.155000X0.212500X0.155000X-0.212500X0.155000X0*%
%ADD19RoundRect,0.225000X0.225000X0.250000X-0.225000X0.250000X-0.225000X-0.250000X0.225000X-0.250000X0*%
%ADD20RoundRect,0.160000X0.197500X0.160000X-0.197500X0.160000X-0.197500X-0.160000X0.197500X-0.160000X0*%
%ADD21RoundRect,0.135000X0.135000X0.185000X-0.135000X0.185000X-0.135000X-0.185000X0.135000X-0.185000X0*%
%ADD22RoundRect,0.150000X0.150000X-0.650000X0.150000X0.650000X-0.150000X0.650000X-0.150000X-0.650000X0*%
%ADD23R,3.500000X2.350000*%
%ADD24R,1.500000X1.500000*%
%ADD25FreePoly0,180.000000*%
%ADD26FreePoly0,0.000000*%
%ADD27RoundRect,0.140000X0.170000X-0.140000X0.170000X0.140000X-0.170000X0.140000X-0.170000X-0.140000X0*%
%ADD28RoundRect,0.135000X0.185000X-0.135000X0.185000X0.135000X-0.185000X0.135000X-0.185000X-0.135000X0*%
%ADD29C,1.000000*%
%ADD30RoundRect,0.250000X-0.250000X0.250000X-0.250000X-0.250000X0.250000X-0.250000X0.250000X0.250000X0*%
%ADD31R,1.000000X1.000000*%
%ADD32O,1.000000X1.000000*%
%ADD33C,0.990600*%
%ADD34FreePoly1,207.500000*%
%ADD35FreePoly2,207.500000*%
%ADD36FreePoly3,207.500000*%
%ADD37FreePoly4,207.500000*%
%ADD38FreePoly5,207.500000*%
%ADD39FreePoly6,207.500000*%
%ADD40RoundRect,0.250000X0.475000X-0.250000X0.475000X0.250000X-0.475000X0.250000X-0.475000X-0.250000X0*%
%ADD41RoundRect,0.225000X-0.250000X0.225000X-0.250000X-0.225000X0.250000X-0.225000X0.250000X0.225000X0*%
%ADD42RoundRect,0.250000X-2.500000X0.250000X-2.500000X-0.250000X2.500000X-0.250000X2.500000X0.250000X0*%
%ADD43RoundRect,0.250000X-1.250000X0.550000X-1.250000X-0.550000X1.250000X-0.550000X1.250000X0.550000X0*%
%ADD44R,1.700000X0.900000*%
%ADD45RoundRect,0.218750X0.256250X-0.218750X0.256250X0.218750X-0.256250X0.218750X-0.256250X-0.218750X0*%
%ADD46RoundRect,0.062500X-0.325000X-0.062500X0.325000X-0.062500X0.325000X0.062500X-0.325000X0.062500X0*%
%ADD47R,0.600000X1.200000*%
%ADD48R,2.350000X3.500000*%
%ADD49RoundRect,0.250000X-0.450000X-0.800000X0.450000X-0.800000X0.450000X0.800000X-0.450000X0.800000X0*%
%ADD50RoundRect,0.140000X-0.140000X-0.170000X0.140000X-0.170000X0.140000X0.170000X-0.140000X0.170000X0*%
%ADD51RoundRect,0.218750X-0.256250X0.218750X-0.256250X-0.218750X0.256250X-0.218750X0.256250X0.218750X0*%
%ADD52RoundRect,0.155000X0.155000X-0.212500X0.155000X0.212500X-0.155000X0.212500X-0.155000X-0.212500X0*%
%ADD53C,3.000000*%
%ADD54RoundRect,0.225000X0.250000X-0.225000X0.250000X0.225000X-0.250000X0.225000X-0.250000X-0.225000X0*%
%ADD55RoundRect,0.140000X0.140000X0.170000X-0.140000X0.170000X-0.140000X-0.170000X0.140000X-0.170000X0*%
%ADD56RoundRect,0.160000X0.160000X-0.197500X0.160000X0.197500X-0.160000X0.197500X-0.160000X-0.197500X0*%
%ADD57RoundRect,0.150000X0.150000X-0.512500X0.150000X0.512500X-0.150000X0.512500X-0.150000X-0.512500X0*%
%ADD58RoundRect,0.237500X0.300000X0.237500X-0.300000X0.237500X-0.300000X-0.237500X0.300000X-0.237500X0*%
%ADD59R,0.700000X0.700000*%
%ADD60RoundRect,0.016240X-0.215760X-0.635760X0.215760X-0.635760X0.215760X0.635760X-0.215760X0.635760X0*%
%ADD61RoundRect,0.016240X0.635760X-0.215760X0.635760X0.215760X-0.635760X0.215760X-0.635760X-0.215760X0*%
%ADD62RoundRect,0.016240X0.215760X0.635760X-0.215760X0.635760X-0.215760X-0.635760X0.215760X-0.635760X0*%
%ADD63RoundRect,0.016240X-0.635760X0.215760X-0.635760X-0.215760X0.635760X-0.215760X0.635760X0.215760X0*%
%ADD64RoundRect,0.102000X-1.850000X1.850000X-1.850000X-1.850000X1.850000X-1.850000X1.850000X1.850000X0*%
%ADD65RoundRect,0.250000X0.800000X-0.450000X0.800000X0.450000X-0.800000X0.450000X-0.800000X-0.450000X0*%
%ADD66R,1.200000X1.400000*%
%ADD67RoundRect,0.062500X0.375000X0.062500X-0.375000X0.062500X-0.375000X-0.062500X0.375000X-0.062500X0*%
%ADD68RoundRect,0.062500X0.062500X0.375000X-0.062500X0.375000X-0.062500X-0.375000X0.062500X-0.375000X0*%
%ADD69R,1.600000X1.600000*%
%ADD70R,1.400000X1.200000*%
%ADD71RoundRect,0.237500X-0.300000X-0.237500X0.300000X-0.237500X0.300000X0.237500X-0.300000X0.237500X0*%
%ADD72RoundRect,0.200000X0.275000X-0.200000X0.275000X0.200000X-0.275000X0.200000X-0.275000X-0.200000X0*%
%ADD73FreePoly0,90.000000*%
%ADD74FreePoly7,90.000000*%
%ADD75R,0.900000X1.700000*%
%ADD76RoundRect,0.150000X-0.512500X-0.150000X0.512500X-0.150000X0.512500X0.150000X-0.512500X0.150000X0*%
%ADD77RoundRect,0.225000X-0.225000X-0.250000X0.225000X-0.250000X0.225000X0.250000X-0.225000X0.250000X0*%
%ADD78RoundRect,0.135000X-0.135000X-0.185000X0.135000X-0.185000X0.135000X0.185000X-0.135000X0.185000X0*%
%ADD79RoundRect,0.135000X-0.185000X0.135000X-0.185000X-0.135000X0.185000X-0.135000X0.185000X0.135000X0*%
%ADD80RoundRect,0.250000X-0.475000X0.250000X-0.475000X-0.250000X0.475000X-0.250000X0.475000X0.250000X0*%
%ADD81RoundRect,0.150000X-0.825000X-0.150000X0.825000X-0.150000X0.825000X0.150000X-0.825000X0.150000X0*%
%ADD82RoundRect,0.076200X0.350000X-0.150000X0.350000X0.150000X-0.350000X0.150000X-0.350000X-0.150000X0*%
%ADD83RoundRect,0.076200X0.500000X-0.150000X0.500000X0.150000X-0.500000X0.150000X-0.500000X-0.150000X0*%
%ADD84RoundRect,0.050000X0.050000X-0.387500X0.050000X0.387500X-0.050000X0.387500X-0.050000X-0.387500X0*%
%ADD85RoundRect,0.050000X0.387500X-0.050000X0.387500X0.050000X-0.387500X0.050000X-0.387500X-0.050000X0*%
%ADD86R,3.200000X3.200000*%
%ADD87R,1.000000X1.800000*%
%ADD88C,0.650000*%
%ADD89R,1.240000X0.600000*%
%ADD90R,1.240000X0.300000*%
%ADD91O,2.100000X1.000000*%
%ADD92O,1.800000X1.000000*%
%ADD93RoundRect,0.062500X-0.275000X-0.062500X0.275000X-0.062500X0.275000X0.062500X-0.275000X0.062500X0*%
%ADD94RoundRect,0.062500X-0.062500X-0.275000X0.062500X-0.275000X0.062500X0.275000X-0.062500X0.275000X0*%
%ADD95R,1.450000X1.450000*%
%ADD96RoundRect,0.150000X0.150000X-0.825000X0.150000X0.825000X-0.150000X0.825000X-0.150000X-0.825000X0*%
%ADD97RoundRect,0.250000X1.000000X-1.400000X1.000000X1.400000X-1.000000X1.400000X-1.000000X-1.400000X0*%
%ADD98RoundRect,0.160000X-0.160000X0.222500X-0.160000X-0.222500X0.160000X-0.222500X0.160000X0.222500X0*%
%ADD99RoundRect,0.237500X-0.237500X0.300000X-0.237500X-0.300000X0.237500X-0.300000X0.237500X0.300000X0*%
%ADD100C,0.999997*%
%ADD101C,2.750000*%
%ADD102RoundRect,0.102000X-0.754000X-0.754000X0.754000X-0.754000X0.754000X0.754000X-0.754000X0.754000X0*%
%ADD103C,1.712000*%
G04 APERTURE END LIST*
D10*
%TO.C,J1*%
G36*
X214371912Y-77036573D02*
G01*
X214438199Y-77042707D01*
X214503404Y-77052859D01*
X214567471Y-77066856D01*
X214630342Y-77084525D01*
X214691959Y-77105693D01*
X214752265Y-77130187D01*
X214811201Y-77157835D01*
X214868711Y-77188464D01*
X214924737Y-77221901D01*
X214979222Y-77257973D01*
X215032107Y-77296507D01*
X215083336Y-77337331D01*
X215132850Y-77380272D01*
X215180593Y-77425156D01*
X215226506Y-77471812D01*
X215200085Y-77495353D01*
X215174283Y-77519613D01*
X215149034Y-77544496D01*
X215124278Y-77569904D01*
X215075986Y-77621910D01*
X215028903Y-77674857D01*
X214936341Y-77780477D01*
X214889851Y-77831603D01*
X214866333Y-77856406D01*
X214842549Y-77880573D01*
X214816098Y-77906320D01*
X214789369Y-77931076D01*
X214762265Y-77954752D01*
X214734687Y-77977256D01*
X214706537Y-77998498D01*
X214677716Y-78018387D01*
X214648125Y-78036832D01*
X214617667Y-78053744D01*
X214586243Y-78069031D01*
X214553754Y-78082602D01*
X214520102Y-78094368D01*
X214485189Y-78104237D01*
X214448916Y-78112119D01*
X214411184Y-78117923D01*
X214371896Y-78121559D01*
X214330953Y-78122936D01*
X214310267Y-78122535D01*
X214290004Y-78121559D01*
X214270152Y-78120018D01*
X214250699Y-78117923D01*
X214231633Y-78115286D01*
X214212942Y-78112119D01*
X214176635Y-78104237D01*
X214141683Y-78094368D01*
X214107987Y-78082602D01*
X214075451Y-78069031D01*
X214043979Y-78053744D01*
X214013472Y-78036832D01*
X213983835Y-78018387D01*
X213954970Y-77998498D01*
X213926780Y-77977256D01*
X213899169Y-77954752D01*
X213872040Y-77931076D01*
X213845295Y-77906320D01*
X213818837Y-77880573D01*
X213793492Y-77854780D01*
X213768452Y-77828265D01*
X213718974Y-77773542D01*
X213620262Y-77660642D01*
X213569789Y-77604357D01*
X213544002Y-77576670D01*
X213517744Y-77549445D01*
X213490939Y-77522799D01*
X213463508Y-77496852D01*
X213435375Y-77471721D01*
X213406461Y-77447525D01*
X213451782Y-77403190D01*
X213498780Y-77360597D01*
X213547407Y-77319903D01*
X213597610Y-77281262D01*
X213649340Y-77244832D01*
X213702545Y-77210768D01*
X213757175Y-77179227D01*
X213813179Y-77150364D01*
X213870507Y-77124336D01*
X213929107Y-77101300D01*
X213988930Y-77081410D01*
X214049924Y-77064823D01*
X214112039Y-77051695D01*
X214175224Y-77042183D01*
X214239428Y-77036442D01*
X214304601Y-77034629D01*
X214371912Y-77036573D01*
G37*
G36*
X213624969Y-75378940D02*
G01*
X213650158Y-75381095D01*
X213675362Y-75385162D01*
X213700538Y-75391101D01*
X213725643Y-75398872D01*
X213750636Y-75408434D01*
X213775474Y-75419749D01*
X213800116Y-75432774D01*
X213824518Y-75447471D01*
X213848639Y-75463799D01*
X213872436Y-75481717D01*
X213895867Y-75501186D01*
X213918890Y-75522165D01*
X213941463Y-75544614D01*
X213963543Y-75568493D01*
X213985089Y-75593762D01*
X214006057Y-75620380D01*
X214026407Y-75648307D01*
X214046094Y-75677503D01*
X214065078Y-75707927D01*
X214083317Y-75739540D01*
X214100767Y-75772302D01*
X214117386Y-75806171D01*
X214133133Y-75841108D01*
X214147965Y-75877073D01*
X214161840Y-75914025D01*
X214174716Y-75951924D01*
X214186551Y-75990731D01*
X214197301Y-76030404D01*
X214214977Y-76110268D01*
X214227325Y-76189186D01*
X214234483Y-76266700D01*
X214236592Y-76342355D01*
X214233791Y-76415693D01*
X214226221Y-76486259D01*
X214214021Y-76553594D01*
X214197332Y-76617243D01*
X214176292Y-76676749D01*
X214151043Y-76731655D01*
X214121724Y-76781505D01*
X214088474Y-76825842D01*
X214070419Y-76845800D01*
X214051434Y-76864208D01*
X214031537Y-76881010D01*
X214010744Y-76896149D01*
X213989074Y-76909566D01*
X213966544Y-76921206D01*
X213943171Y-76931011D01*
X213918973Y-76938923D01*
X213894262Y-76944821D01*
X213869368Y-76948646D01*
X213844333Y-76950437D01*
X213819199Y-76950235D01*
X213794009Y-76948081D01*
X213768805Y-76944014D01*
X213743629Y-76938075D01*
X213718523Y-76930305D01*
X213693529Y-76920742D01*
X213668691Y-76909428D01*
X213644049Y-76896402D01*
X213619647Y-76881705D01*
X213595526Y-76865378D01*
X213571729Y-76847460D01*
X213548298Y-76827991D01*
X213525274Y-76807012D01*
X213502702Y-76784563D01*
X213480621Y-76760684D01*
X213459076Y-76735416D01*
X213438108Y-76708798D01*
X213417759Y-76680871D01*
X213398071Y-76651676D01*
X213379087Y-76621251D01*
X213360849Y-76589638D01*
X213343400Y-76556877D01*
X213326781Y-76523008D01*
X213311034Y-76488071D01*
X213296202Y-76452107D01*
X213282328Y-76415155D01*
X213269453Y-76377256D01*
X213257619Y-76338450D01*
X213246869Y-76298777D01*
X213229191Y-76218912D01*
X213216843Y-76139994D01*
X213209684Y-76062479D01*
X213207574Y-75986823D01*
X213210374Y-75913485D01*
X213217944Y-75842919D01*
X213230144Y-75775583D01*
X213246833Y-75711934D01*
X213267872Y-75652428D01*
X213293122Y-75597521D01*
X213322442Y-75547671D01*
X213355692Y-75503335D01*
X213373747Y-75483376D01*
X213392732Y-75464967D01*
X213412630Y-75448165D01*
X213433423Y-75433027D01*
X213455094Y-75419609D01*
X213477625Y-75407969D01*
X213500998Y-75398165D01*
X213525197Y-75390252D01*
X213549908Y-75384354D01*
X213574801Y-75380530D01*
X213599836Y-75378739D01*
X213624969Y-75378940D01*
G37*
G36*
X215032949Y-75395370D02*
G01*
X215057977Y-75397743D01*
X215082858Y-75402145D01*
X215107549Y-75408616D01*
X215131721Y-75417089D01*
X215155062Y-75427436D01*
X215177554Y-75439598D01*
X215199180Y-75453518D01*
X215219924Y-75469138D01*
X215239767Y-75486401D01*
X215258692Y-75505250D01*
X215276682Y-75525626D01*
X215309788Y-75570733D01*
X215338946Y-75621261D01*
X215364018Y-75676752D01*
X215384865Y-75736744D01*
X215401349Y-75800778D01*
X215413331Y-75868394D01*
X215420673Y-75939133D01*
X215423237Y-76012533D01*
X215420884Y-76088137D01*
X215413476Y-76165482D01*
X215400874Y-76244110D01*
X215382939Y-76323561D01*
X215372062Y-76362983D01*
X215360104Y-76401512D01*
X215347107Y-76439111D01*
X215333114Y-76475739D01*
X215318167Y-76511358D01*
X215302309Y-76545928D01*
X215285582Y-76579411D01*
X215268027Y-76611765D01*
X215249688Y-76642954D01*
X215230607Y-76672937D01*
X215210827Y-76701675D01*
X215190389Y-76729128D01*
X215169336Y-76755258D01*
X215147710Y-76780026D01*
X215125554Y-76803392D01*
X215102910Y-76825316D01*
X215079820Y-76845760D01*
X215056327Y-76864684D01*
X215032474Y-76882050D01*
X215008301Y-76897817D01*
X214983853Y-76911947D01*
X214959171Y-76924401D01*
X214934297Y-76935138D01*
X214909274Y-76944121D01*
X214884144Y-76951309D01*
X214858950Y-76956664D01*
X214833734Y-76960145D01*
X214808539Y-76961715D01*
X214783406Y-76961333D01*
X214758378Y-76958961D01*
X214733497Y-76954559D01*
X214708806Y-76948088D01*
X214684633Y-76939614D01*
X214661292Y-76929267D01*
X214638799Y-76917105D01*
X214617172Y-76903185D01*
X214596428Y-76887564D01*
X214576585Y-76870301D01*
X214557659Y-76851452D01*
X214539668Y-76831076D01*
X214506562Y-76785969D01*
X214477403Y-76735441D01*
X214452331Y-76679950D01*
X214431483Y-76619958D01*
X214414999Y-76555924D01*
X214403017Y-76488308D01*
X214395674Y-76417569D01*
X214393110Y-76344168D01*
X214395463Y-76268565D01*
X214402871Y-76191219D01*
X214415474Y-76112590D01*
X214433408Y-76033141D01*
X214444286Y-75993719D01*
X214456245Y-75955189D01*
X214469242Y-75917591D01*
X214483235Y-75880962D01*
X214498183Y-75845343D01*
X214514042Y-75810773D01*
X214530770Y-75777291D01*
X214548324Y-75744936D01*
X214566664Y-75713747D01*
X214585745Y-75683765D01*
X214605526Y-75655027D01*
X214625964Y-75627573D01*
X214647017Y-75601443D01*
X214668643Y-75576676D01*
X214690800Y-75553310D01*
X214713444Y-75531386D01*
X214736534Y-75510942D01*
X214760027Y-75492018D01*
X214783881Y-75474653D01*
X214808053Y-75458885D01*
X214832501Y-75444755D01*
X214857184Y-75432302D01*
X214882058Y-75421565D01*
X214907081Y-75412582D01*
X214932210Y-75405394D01*
X214957404Y-75400040D01*
X214982620Y-75396558D01*
X215007816Y-75394989D01*
X215032949Y-75395370D01*
G37*
G36*
X212651095Y-76378529D02*
G01*
X212674647Y-76379952D01*
X212698480Y-76382640D01*
X212722548Y-76386586D01*
X212746806Y-76391784D01*
X212771211Y-76398228D01*
X212795718Y-76405912D01*
X212820283Y-76414830D01*
X212844862Y-76424975D01*
X212869409Y-76436342D01*
X212893882Y-76448924D01*
X212918234Y-76462716D01*
X212942422Y-76477710D01*
X212966403Y-76493901D01*
X212990130Y-76511283D01*
X213013560Y-76529849D01*
X213036649Y-76549594D01*
X213059352Y-76570511D01*
X213081624Y-76592595D01*
X213123705Y-76639107D01*
X213161727Y-76687722D01*
X213195618Y-76738050D01*
X213225305Y-76789700D01*
X213250714Y-76842280D01*
X213271773Y-76895400D01*
X213288408Y-76948669D01*
X213300546Y-77001696D01*
X213308114Y-77054090D01*
X213311040Y-77105460D01*
X213310739Y-77130639D01*
X213309250Y-77155416D01*
X213306563Y-77179741D01*
X213302670Y-77203566D01*
X213297562Y-77226842D01*
X213291229Y-77249520D01*
X213283662Y-77271551D01*
X213274853Y-77292886D01*
X213264791Y-77313477D01*
X213253468Y-77333274D01*
X213240875Y-77352229D01*
X213227002Y-77370293D01*
X213212022Y-77387218D01*
X213196140Y-77402792D01*
X213179403Y-77417022D01*
X213161853Y-77429914D01*
X213143536Y-77441473D01*
X213124496Y-77451707D01*
X213104776Y-77460621D01*
X213084422Y-77468221D01*
X213063478Y-77474514D01*
X213041989Y-77479505D01*
X213019998Y-77483201D01*
X212997549Y-77485608D01*
X212974688Y-77486733D01*
X212951459Y-77486580D01*
X212927906Y-77485157D01*
X212904073Y-77482469D01*
X212880005Y-77478523D01*
X212855746Y-77473325D01*
X212831341Y-77466881D01*
X212806833Y-77459196D01*
X212782268Y-77450278D01*
X212757689Y-77440133D01*
X212733141Y-77428766D01*
X212708669Y-77416184D01*
X212684316Y-77402392D01*
X212660127Y-77387398D01*
X212636147Y-77371206D01*
X212612420Y-77353824D01*
X212588989Y-77335257D01*
X212565900Y-77315512D01*
X212543197Y-77294595D01*
X212520925Y-77272511D01*
X212478844Y-77226000D01*
X212440822Y-77177385D01*
X212406931Y-77127057D01*
X212377245Y-77075408D01*
X212351837Y-77022829D01*
X212330779Y-76969709D01*
X212314144Y-76916440D01*
X212302007Y-76863413D01*
X212294439Y-76811019D01*
X212291514Y-76759649D01*
X212291816Y-76734470D01*
X212293305Y-76709694D01*
X212295992Y-76685368D01*
X212299885Y-76661544D01*
X212304994Y-76638268D01*
X212311327Y-76615590D01*
X212318894Y-76593559D01*
X212327704Y-76572223D01*
X212337765Y-76551633D01*
X212349088Y-76531835D01*
X212361682Y-76512880D01*
X212375554Y-76494816D01*
X212390535Y-76477892D01*
X212406416Y-76462317D01*
X212423154Y-76448087D01*
X212440703Y-76435196D01*
X212459020Y-76423636D01*
X212478060Y-76413402D01*
X212497779Y-76404489D01*
X212518133Y-76396888D01*
X212539077Y-76390596D01*
X212560566Y-76385604D01*
X212582557Y-76381908D01*
X212605005Y-76379501D01*
X212627866Y-76378377D01*
X212651095Y-76378529D01*
G37*
G36*
X215984175Y-76391789D02*
G01*
X216007035Y-76393096D01*
X216029480Y-76395683D01*
X216051467Y-76399555D01*
X216072951Y-76404718D01*
X216093888Y-76411178D01*
X216114234Y-76418941D01*
X216133943Y-76428013D01*
X216152973Y-76438399D01*
X216171278Y-76450105D01*
X216188813Y-76463137D01*
X216205536Y-76477501D01*
X216221401Y-76493202D01*
X216236363Y-76510247D01*
X216250218Y-76528421D01*
X216262793Y-76547477D01*
X216274096Y-76567365D01*
X216284137Y-76588036D01*
X216292926Y-76609442D01*
X216300471Y-76631533D01*
X216306781Y-76654261D01*
X216311866Y-76677578D01*
X216315735Y-76701434D01*
X216318397Y-76725781D01*
X216319861Y-76750569D01*
X216320137Y-76775751D01*
X216317159Y-76827097D01*
X216309538Y-76879431D01*
X216297346Y-76932361D01*
X216280657Y-76985496D01*
X216259545Y-77038448D01*
X216234083Y-77090824D01*
X216204345Y-77142236D01*
X216170404Y-77192292D01*
X216132333Y-77240603D01*
X216090207Y-77286778D01*
X216067912Y-77308684D01*
X216045188Y-77329420D01*
X216022079Y-77348981D01*
X215998630Y-77367360D01*
X215974886Y-77384553D01*
X215950889Y-77400552D01*
X215926685Y-77415353D01*
X215902319Y-77428950D01*
X215877834Y-77441336D01*
X215853275Y-77452507D01*
X215828686Y-77462456D01*
X215804112Y-77471177D01*
X215779597Y-77478665D01*
X215755186Y-77484914D01*
X215730922Y-77489918D01*
X215706850Y-77493671D01*
X215683015Y-77496168D01*
X215659460Y-77497403D01*
X215636231Y-77497370D01*
X215613372Y-77496063D01*
X215590926Y-77493476D01*
X215568939Y-77489604D01*
X215547455Y-77484441D01*
X215526517Y-77477980D01*
X215506171Y-77470217D01*
X215486461Y-77461146D01*
X215467431Y-77450760D01*
X215449126Y-77439054D01*
X215431590Y-77426023D01*
X215414867Y-77411659D01*
X215399001Y-77395958D01*
X215384038Y-77378914D01*
X215370183Y-77360740D01*
X215357608Y-77341684D01*
X215346305Y-77321796D01*
X215336264Y-77301125D01*
X215327475Y-77279720D01*
X215319931Y-77257628D01*
X215313620Y-77234900D01*
X215308535Y-77211583D01*
X215304666Y-77187727D01*
X215302004Y-77163380D01*
X215300540Y-77138592D01*
X215300265Y-77113411D01*
X215303242Y-77062064D01*
X215310863Y-77009730D01*
X215323055Y-76956801D01*
X215339744Y-76903665D01*
X215360856Y-76850714D01*
X215386318Y-76798337D01*
X215416056Y-76746925D01*
X215449997Y-76696869D01*
X215488068Y-76648558D01*
X215530194Y-76602383D01*
X215552490Y-76580478D01*
X215575214Y-76559742D01*
X215598324Y-76540181D01*
X215621773Y-76521802D01*
X215645519Y-76504609D01*
X215669516Y-76488610D01*
X215693720Y-76473809D01*
X215718086Y-76460212D01*
X215742572Y-76447825D01*
X215767131Y-76436654D01*
X215791720Y-76426705D01*
X215816294Y-76417984D01*
X215840809Y-76410495D01*
X215865221Y-76404246D01*
X215889485Y-76399242D01*
X215913557Y-76395488D01*
X215937392Y-76392991D01*
X215960946Y-76391756D01*
X215984175Y-76391789D01*
G37*
G36*
X213330947Y-77579992D02*
G01*
X213355929Y-77602167D01*
X213380703Y-77625552D01*
X213405335Y-77650029D01*
X213454429Y-77701786D01*
X213503731Y-77756497D01*
X213605038Y-77871001D01*
X213658083Y-77928907D01*
X213685430Y-77957612D01*
X213713414Y-77985993D01*
X213742647Y-78014340D01*
X213772888Y-78042073D01*
X213804187Y-78069027D01*
X213836598Y-78095036D01*
X213870171Y-78119936D01*
X213904958Y-78143561D01*
X213941011Y-78165746D01*
X213978381Y-78186325D01*
X214017120Y-78205133D01*
X214057279Y-78222004D01*
X214098911Y-78236774D01*
X214142066Y-78249277D01*
X214186796Y-78259348D01*
X214233153Y-78266821D01*
X214281188Y-78271532D01*
X214330953Y-78273314D01*
X214356053Y-78272799D01*
X214380712Y-78271532D01*
X214404936Y-78269532D01*
X214428731Y-78266821D01*
X214452104Y-78263420D01*
X214475062Y-78259348D01*
X214497611Y-78254627D01*
X214519759Y-78249277D01*
X214562874Y-78236774D01*
X214604462Y-78222004D01*
X214644574Y-78205133D01*
X214683264Y-78186325D01*
X214720585Y-78165746D01*
X214756591Y-78143561D01*
X214791333Y-78119936D01*
X214824867Y-78095036D01*
X214857243Y-78069027D01*
X214888516Y-78042073D01*
X214918739Y-78014340D01*
X214947965Y-77985993D01*
X214973822Y-77959806D01*
X214999132Y-77933337D01*
X215048315Y-77879920D01*
X215142366Y-77773771D01*
X215188055Y-77722523D01*
X215233398Y-77673481D01*
X215256068Y-77650019D01*
X215278806Y-77627387D01*
X215301662Y-77605678D01*
X215324689Y-77584983D01*
X215383792Y-77663226D01*
X215438074Y-77743651D01*
X215487337Y-77825656D01*
X215531385Y-77908642D01*
X215570020Y-77992007D01*
X215603046Y-78075150D01*
X215630266Y-78157470D01*
X215651484Y-78238366D01*
X215666503Y-78317238D01*
X215675126Y-78393484D01*
X215676977Y-78430435D01*
X215677155Y-78466504D01*
X215675636Y-78501616D01*
X215672395Y-78535696D01*
X215667408Y-78568669D01*
X215660649Y-78600460D01*
X215652095Y-78630994D01*
X215641720Y-78660195D01*
X215629500Y-78687989D01*
X215615411Y-78714300D01*
X215599427Y-78739053D01*
X215581525Y-78762173D01*
X215548541Y-78798870D01*
X215515750Y-78830966D01*
X215483090Y-78858683D01*
X215450503Y-78882245D01*
X215417928Y-78901876D01*
X215385305Y-78917799D01*
X215352576Y-78930239D01*
X215319680Y-78939417D01*
X215286557Y-78945559D01*
X215253148Y-78948887D01*
X215219393Y-78949625D01*
X215185232Y-78947996D01*
X215150605Y-78944225D01*
X215115453Y-78938534D01*
X215043334Y-78922287D01*
X214721890Y-78825229D01*
X214630897Y-78801888D01*
X214534694Y-78782492D01*
X214484490Y-78774832D01*
X214432805Y-78768829D01*
X214379578Y-78764707D01*
X214324750Y-78762689D01*
X214284963Y-78762689D01*
X214230133Y-78764707D01*
X214176902Y-78768829D01*
X214125210Y-78774832D01*
X214074996Y-78782492D01*
X214026202Y-78791585D01*
X213978768Y-78801888D01*
X213887741Y-78825229D01*
X213566116Y-78922287D01*
X213493949Y-78938534D01*
X213458773Y-78944225D01*
X213424123Y-78947996D01*
X213389939Y-78949625D01*
X213356163Y-78948887D01*
X213322733Y-78945559D01*
X213289592Y-78939417D01*
X213256678Y-78930239D01*
X213223934Y-78917799D01*
X213191298Y-78901876D01*
X213158711Y-78882245D01*
X213126115Y-78858683D01*
X213093449Y-78830966D01*
X213060653Y-78798870D01*
X213027669Y-78762173D01*
X213009409Y-78738546D01*
X212993149Y-78713217D01*
X212978864Y-78686268D01*
X212966528Y-78657778D01*
X212956113Y-78627827D01*
X212947595Y-78596496D01*
X212940946Y-78563863D01*
X212936141Y-78530010D01*
X212931957Y-78458960D01*
X212934832Y-78383986D01*
X212944557Y-78305727D01*
X212960922Y-78224824D01*
X212983716Y-78141915D01*
X213012731Y-78057641D01*
X213047756Y-77972641D01*
X213088581Y-77887555D01*
X213134997Y-77803023D01*
X213186794Y-77719684D01*
X213243762Y-77638178D01*
X213305692Y-77559145D01*
X213330947Y-77579992D01*
G37*
%TD*%
D11*
%TO.C,R25*%
X218944900Y-99816500D03*
X220139900Y-99816500D03*
%TD*%
D12*
%TO.C,C63*%
X226255200Y-77647800D03*
X225120200Y-77647800D03*
%TD*%
D13*
%TO.C,R42*%
X221823900Y-112592582D03*
X221823900Y-113787582D03*
%TD*%
D11*
%TO.C,R14*%
X203403200Y-80277300D03*
X204598200Y-80277300D03*
%TD*%
D12*
%TO.C,C14*%
X190373000Y-84759800D03*
X189238000Y-84759800D03*
%TD*%
D14*
%TO.C,D11*%
X220086400Y-106046082D03*
X220086400Y-104296082D03*
%TD*%
D12*
%TO.C,C51*%
X180797200Y-82600800D03*
X179662200Y-82600800D03*
%TD*%
D15*
%TO.C,D5*%
X224080400Y-93212500D03*
X226180400Y-93212500D03*
%TD*%
D12*
%TO.C,C23*%
X219413900Y-79095600D03*
X218278900Y-79095600D03*
%TD*%
D16*
%TO.C,C10*%
X200698700Y-88599800D03*
X200698700Y-89734800D03*
%TD*%
D17*
%TO.C,C39*%
X175270200Y-92633800D03*
X173370200Y-92633800D03*
%TD*%
D18*
%TO.C,C6*%
X201020200Y-80277300D03*
X202155200Y-80277300D03*
%TD*%
D19*
%TO.C,C54*%
X157799400Y-85645000D03*
X156249400Y-85645000D03*
%TD*%
D16*
%TO.C,C13*%
X195339300Y-91649000D03*
X195339300Y-92784000D03*
%TD*%
D20*
%TO.C,R52*%
X166834100Y-82659200D03*
X165639100Y-82659200D03*
%TD*%
D21*
%TO.C,R16*%
X216691400Y-96901000D03*
X215671400Y-96901000D03*
%TD*%
D22*
%TO.C,U6*%
X211861400Y-89020200D03*
X213131400Y-89020200D03*
X214401400Y-89020200D03*
X215671400Y-89020200D03*
X215671400Y-81820200D03*
X214401400Y-81820200D03*
X213131400Y-81820200D03*
X211861400Y-81820200D03*
%TD*%
D12*
%TO.C,C56*%
X180805900Y-83693000D03*
X179670900Y-83693000D03*
%TD*%
D21*
%TO.C,R56*%
X180723000Y-87164800D03*
X179703000Y-87164800D03*
%TD*%
D13*
%TO.C,R15*%
X197574500Y-91605700D03*
X197574500Y-92800700D03*
%TD*%
D20*
%TO.C,R23*%
X190403000Y-88061800D03*
X189208000Y-88061800D03*
%TD*%
D12*
%TO.C,C25*%
X217569900Y-99435500D03*
X216434900Y-99435500D03*
%TD*%
D23*
%TO.C,L1*%
X151281600Y-82634200D03*
X151281600Y-76584200D03*
%TD*%
D12*
%TO.C,C50*%
X166583500Y-89124800D03*
X165448500Y-89124800D03*
%TD*%
D24*
%TO.C,JP3*%
X220859200Y-120954800D03*
X218459200Y-120954800D03*
D25*
X221659200Y-120954800D03*
D26*
X217659200Y-120954800D03*
%TD*%
D27*
%TO.C,C33*%
X220558400Y-93692500D03*
X220558400Y-92732500D03*
%TD*%
D12*
%TO.C,C49*%
X166751600Y-79359200D03*
X165616600Y-79359200D03*
%TD*%
D28*
%TO.C,C16*%
X196138800Y-80114600D03*
X196138800Y-79094600D03*
%TD*%
D29*
%TO.C,TP3*%
X197662800Y-76606400D03*
%TD*%
D12*
%TO.C,C7*%
X190373000Y-86944200D03*
X189238000Y-86944200D03*
%TD*%
D30*
%TO.C,D9*%
X219241900Y-112829082D03*
X219241900Y-115329082D03*
%TD*%
D31*
%TO.C,J7*%
X179273200Y-109220000D03*
D32*
X179273200Y-107950000D03*
X180543200Y-109220000D03*
X180543200Y-107950000D03*
X181813200Y-109220000D03*
X181813200Y-107950000D03*
X183083200Y-109220000D03*
X183083200Y-107950000D03*
X184353200Y-109220000D03*
X184353200Y-107950000D03*
X185623200Y-109220000D03*
X185623200Y-107950000D03*
X186893200Y-109220000D03*
X186893200Y-107950000D03*
X188163200Y-109220000D03*
X188163200Y-107950000D03*
X189433200Y-109220000D03*
X189433200Y-107950000D03*
X190703200Y-109220000D03*
X190703200Y-107950000D03*
X191973200Y-109220000D03*
X191973200Y-107950000D03*
X193243200Y-109220000D03*
X193243200Y-107950000D03*
X194513200Y-109220000D03*
X194513200Y-107950000D03*
X195783200Y-109220000D03*
X195783200Y-107950000D03*
X197053200Y-109220000D03*
X197053200Y-107950000D03*
%TD*%
D33*
%TO.C,J1*%
X211492266Y-77317090D03*
X212430539Y-79119497D03*
X216467418Y-75872610D03*
D34*
X214911200Y-76222200D03*
D35*
X215801200Y-76942200D03*
D36*
X213711200Y-76202200D03*
D37*
X214321200Y-77542200D03*
D38*
X212801200Y-76922200D03*
D39*
X213421200Y-78382200D03*
%TD*%
D20*
%TO.C,R54*%
X166703000Y-92477600D03*
X165508000Y-92477600D03*
%TD*%
D13*
%TO.C,R19*%
X194221700Y-91606900D03*
X194221700Y-92801900D03*
%TD*%
D12*
%TO.C,C57*%
X219619400Y-117308082D03*
X218484400Y-117308082D03*
%TD*%
D24*
%TO.C,JP4*%
X226889000Y-120960300D03*
X224489000Y-120960300D03*
D25*
X227689000Y-120960300D03*
D26*
X223689000Y-120960300D03*
%TD*%
D18*
%TO.C,C4*%
X203433200Y-88151300D03*
X204568200Y-88151300D03*
%TD*%
D11*
%TO.C,R29*%
X218944900Y-102102500D03*
X220139900Y-102102500D03*
%TD*%
D16*
%TO.C,C47*%
X178765200Y-90012900D03*
X178765200Y-91147900D03*
%TD*%
D13*
%TO.C,R35*%
X212090000Y-91121900D03*
X212090000Y-92316900D03*
%TD*%
D40*
%TO.C,C55*%
X181660800Y-77266800D03*
X181660800Y-75366800D03*
%TD*%
D13*
%TO.C,R36*%
X210972400Y-91121900D03*
X210972400Y-92316900D03*
%TD*%
D41*
%TO.C,C40*%
X156131600Y-80384200D03*
X156131600Y-81934200D03*
%TD*%
D42*
%TO.C,J9*%
X230038400Y-106111800D03*
X230038400Y-108111800D03*
D43*
X232288400Y-103711800D03*
X232288400Y-110511800D03*
%TD*%
D11*
%TO.C,R55*%
X165508000Y-91360000D03*
X166703000Y-91360000D03*
%TD*%
%TO.C,R10*%
X208546100Y-89458800D03*
X209741100Y-89458800D03*
%TD*%
D13*
%TO.C,R21*%
X193078700Y-91617800D03*
X193078700Y-92812800D03*
%TD*%
D44*
%TO.C,SW2*%
X209143600Y-86840800D03*
X209143600Y-83440800D03*
%TD*%
D45*
%TO.C,D4*%
X234379450Y-76872150D03*
X234379450Y-75297150D03*
%TD*%
D20*
%TO.C,R43*%
X166829100Y-80459200D03*
X165634100Y-80459200D03*
%TD*%
D13*
%TO.C,R50*%
X218689400Y-104940582D03*
X218689400Y-106135582D03*
%TD*%
D46*
%TO.C,U9*%
X221051900Y-115808082D03*
X221051900Y-116308082D03*
X221051900Y-116808082D03*
X221051900Y-117308082D03*
X222976900Y-117308082D03*
X222976900Y-116808082D03*
X222976900Y-116308082D03*
X222976900Y-115808082D03*
D47*
X222014400Y-116558082D03*
%TD*%
D13*
%TO.C,R22*%
X191961100Y-91617800D03*
X191961100Y-92812800D03*
%TD*%
D45*
%TO.C,D1*%
X202355700Y-93245900D03*
X202355700Y-91670900D03*
%TD*%
D48*
%TO.C,L3*%
X173047800Y-78130400D03*
X179097800Y-78130400D03*
%TD*%
D18*
%TO.C,C15*%
X231258300Y-82499200D03*
X232393300Y-82499200D03*
%TD*%
D28*
%TO.C,R20*%
X233058650Y-76188250D03*
X233058650Y-75168250D03*
%TD*%
D49*
%TO.C,D13*%
X212425400Y-109489082D03*
X216825400Y-109489082D03*
%TD*%
D14*
%TO.C,D12*%
X221737400Y-106046082D03*
X221737400Y-104296082D03*
%TD*%
D27*
%TO.C,C35*%
X221574400Y-93689900D03*
X221574400Y-92729900D03*
%TD*%
D50*
%TO.C,C31*%
X158303200Y-116408200D03*
X159263200Y-116408200D03*
%TD*%
D11*
%TO.C,R39*%
X224164400Y-109951082D03*
X225359400Y-109951082D03*
%TD*%
D51*
%TO.C,D15*%
X231368600Y-116509800D03*
X231368600Y-118084800D03*
%TD*%
D52*
%TO.C,C62*%
X199682700Y-81310700D03*
X199682700Y-80175700D03*
%TD*%
D13*
%TO.C,R2*%
X220921350Y-74809050D03*
X220921350Y-76004050D03*
%TD*%
D12*
%TO.C,C11*%
X219363100Y-85471000D03*
X218228100Y-85471000D03*
%TD*%
D53*
%TO.C,TP2*%
X213690200Y-120650000D03*
%TD*%
D54*
%TO.C,C43*%
X157681600Y-81934200D03*
X157681600Y-80384200D03*
%TD*%
D20*
%TO.C,R38*%
X225359400Y-111094082D03*
X224164400Y-111094082D03*
%TD*%
D55*
%TO.C,C34*%
X148468200Y-120091200D03*
X147508200Y-120091200D03*
%TD*%
D13*
%TO.C,R1*%
X198717500Y-91605700D03*
X198717500Y-92800700D03*
%TD*%
D56*
%TO.C,R4*%
X203752700Y-92674900D03*
X203752700Y-91479900D03*
%TD*%
D57*
%TO.C,U3*%
X223672400Y-98160000D03*
X224622400Y-98160000D03*
X225572400Y-98160000D03*
X225572400Y-95885000D03*
X224622400Y-95885000D03*
X223672400Y-95885000D03*
%TD*%
D21*
%TO.C,R49*%
X180723000Y-84785200D03*
X179703000Y-84785200D03*
%TD*%
D12*
%TO.C,C17*%
X219363100Y-84429600D03*
X218228100Y-84429600D03*
%TD*%
D16*
%TO.C,C21*%
X225679000Y-89170700D03*
X225679000Y-90305700D03*
%TD*%
D52*
%TO.C,C46*%
X170865800Y-81110900D03*
X170865800Y-79975900D03*
%TD*%
D53*
%TO.C,TP1*%
X213156800Y-113131600D03*
%TD*%
D58*
%TO.C,C61*%
X225526900Y-106308082D03*
X223801900Y-106308082D03*
%TD*%
D11*
%TO.C,R32*%
X158338100Y-118948200D03*
X159533100Y-118948200D03*
%TD*%
D59*
%TO.C,D2*%
X234577800Y-82652200D03*
X235677800Y-82652200D03*
X235677800Y-80822200D03*
X234577800Y-80822200D03*
%TD*%
D20*
%TO.C,R34*%
X159507700Y-120269000D03*
X158312700Y-120269000D03*
%TD*%
D12*
%TO.C,C26*%
X148403300Y-115392200D03*
X147268300Y-115392200D03*
%TD*%
D11*
%TO.C,R5*%
X218265600Y-82321400D03*
X219460600Y-82321400D03*
%TD*%
D12*
%TO.C,C18*%
X219363100Y-83388200D03*
X218228100Y-83388200D03*
%TD*%
D60*
%TO.C,U2*%
X198126700Y-82509100D03*
X197626700Y-82509100D03*
X197126700Y-82509100D03*
X196626700Y-82509100D03*
X196126700Y-82509100D03*
X195626700Y-82509100D03*
X195126700Y-82509100D03*
X194626700Y-82509100D03*
X194126700Y-82509100D03*
D61*
X193311700Y-83324100D03*
X193311700Y-83824100D03*
X193311700Y-84324100D03*
X193311700Y-84824100D03*
X193311700Y-85324100D03*
X193311700Y-85824100D03*
X193311700Y-86324100D03*
X193311700Y-86824100D03*
X193311700Y-87324100D03*
D62*
X194126700Y-88139100D03*
X194626700Y-88139100D03*
X195126700Y-88139100D03*
X195626700Y-88139100D03*
X196126700Y-88139100D03*
X196626700Y-88139100D03*
X197126700Y-88139100D03*
X197626700Y-88139100D03*
X198126700Y-88139100D03*
D63*
X198941700Y-87324100D03*
X198941700Y-86824100D03*
X198941700Y-86324100D03*
X198941700Y-85824100D03*
X198941700Y-85324100D03*
X198941700Y-84824100D03*
X198941700Y-84324100D03*
X198941700Y-83824100D03*
X198941700Y-83324100D03*
D64*
X196126700Y-85324100D03*
%TD*%
D12*
%TO.C,C27*%
X148403300Y-119024400D03*
X147268300Y-119024400D03*
%TD*%
D65*
%TO.C,D14*%
X184327800Y-80127200D03*
X184327800Y-75727200D03*
%TD*%
D66*
%TO.C,Y2*%
X203658700Y-84257300D03*
X203658700Y-86457300D03*
X205358700Y-86457300D03*
X205358700Y-84257300D03*
%TD*%
D28*
%TO.C,R46*%
X176682400Y-91088400D03*
X176682400Y-90068400D03*
%TD*%
D56*
%TO.C,R41*%
X222924900Y-113787582D03*
X222924900Y-112592582D03*
%TD*%
D19*
%TO.C,C28*%
X217523400Y-98165500D03*
X215973400Y-98165500D03*
%TD*%
D13*
%TO.C,R13*%
X201003500Y-91569400D03*
X201003500Y-92764400D03*
%TD*%
D11*
%TO.C,R27*%
X218944900Y-100987500D03*
X220139900Y-100987500D03*
%TD*%
D65*
%TO.C,D10*%
X171424600Y-87858600D03*
X171424600Y-83458600D03*
%TD*%
D67*
%TO.C,U11*%
X221777900Y-110239082D03*
X221777900Y-109739082D03*
X221777900Y-109239082D03*
X221777900Y-108739082D03*
D68*
X221090400Y-108051582D03*
X220590400Y-108051582D03*
X220090400Y-108051582D03*
X219590400Y-108051582D03*
D67*
X218902900Y-108739082D03*
X218902900Y-109239082D03*
X218902900Y-109739082D03*
X218902900Y-110239082D03*
D68*
X219590400Y-110926582D03*
X220090400Y-110926582D03*
X220590400Y-110926582D03*
X221090400Y-110926582D03*
D69*
X220340400Y-109489082D03*
%TD*%
D31*
%TO.C,J8*%
X184353200Y-114300000D03*
D32*
X184353200Y-113030000D03*
X185623200Y-114300000D03*
X185623200Y-113030000D03*
X186893200Y-114300000D03*
X186893200Y-113030000D03*
X188163200Y-114300000D03*
X188163200Y-113030000D03*
X189433200Y-114300000D03*
X189433200Y-113030000D03*
X190703200Y-114300000D03*
X190703200Y-113030000D03*
X191973200Y-114300000D03*
X191973200Y-113030000D03*
X193243200Y-114300000D03*
X193243200Y-113030000D03*
%TD*%
D19*
%TO.C,C59*%
X157773400Y-87296000D03*
X156223400Y-87296000D03*
%TD*%
D31*
%TO.C,J6*%
X179273200Y-119380000D03*
D32*
X179273200Y-118110000D03*
X180543200Y-119380000D03*
X180543200Y-118110000D03*
X181813200Y-119380000D03*
X181813200Y-118110000D03*
X183083200Y-119380000D03*
X183083200Y-118110000D03*
X184353200Y-119380000D03*
X184353200Y-118110000D03*
X185623200Y-119380000D03*
X185623200Y-118110000D03*
X186893200Y-119380000D03*
X186893200Y-118110000D03*
X188163200Y-119380000D03*
X188163200Y-118110000D03*
X189433200Y-119380000D03*
X189433200Y-118110000D03*
X190703200Y-119380000D03*
X190703200Y-118110000D03*
X191973200Y-119380000D03*
X191973200Y-118110000D03*
X193243200Y-119380000D03*
X193243200Y-118110000D03*
X194513200Y-119380000D03*
X194513200Y-118110000D03*
X195783200Y-119380000D03*
X195783200Y-118110000D03*
X197053200Y-119380000D03*
X197053200Y-118110000D03*
%TD*%
D18*
%TO.C,C19*%
X234543600Y-79578200D03*
X235678600Y-79578200D03*
%TD*%
D70*
%TO.C,Y1*%
X233822600Y-86106000D03*
X231622600Y-86106000D03*
X231622600Y-87806000D03*
X233822600Y-87806000D03*
%TD*%
D71*
%TO.C,C52*%
X214551900Y-107058082D03*
X216276900Y-107058082D03*
%TD*%
D52*
%TO.C,C24*%
X222504000Y-79104300D03*
X222504000Y-77969300D03*
%TD*%
D40*
%TO.C,C32*%
X219034400Y-93654500D03*
X219034400Y-91754500D03*
%TD*%
D20*
%TO.C,R11*%
X209741100Y-88392000D03*
X208546100Y-88392000D03*
%TD*%
%TO.C,R6*%
X219460600Y-81254600D03*
X218265600Y-81254600D03*
%TD*%
D23*
%TO.C,L2*%
X151282400Y-92410000D03*
X151282400Y-86360000D03*
%TD*%
D72*
%TO.C,R45*%
X224164400Y-114308082D03*
X224164400Y-112658082D03*
%TD*%
D56*
%TO.C,R3*%
X222064350Y-76004050D03*
X222064350Y-74809050D03*
%TD*%
D12*
%TO.C,C8*%
X219405200Y-80187800D03*
X218270200Y-80187800D03*
%TD*%
D17*
%TO.C,C42*%
X175295600Y-90551000D03*
X173395600Y-90551000D03*
%TD*%
D28*
%TO.C,R18*%
X232714800Y-113987600D03*
X232714800Y-112967600D03*
%TD*%
%TO.C,R58*%
X232714800Y-117322600D03*
X232714800Y-116302600D03*
%TD*%
D16*
%TO.C,C20*%
X222707200Y-89196100D03*
X222707200Y-90331100D03*
%TD*%
D72*
%TO.C,R48*%
X225664400Y-114308082D03*
X225664400Y-112658082D03*
%TD*%
D20*
%TO.C,R24*%
X190407600Y-83680900D03*
X189212600Y-83680900D03*
%TD*%
D56*
%TO.C,R7*%
X204895700Y-92674900D03*
X204895700Y-91479900D03*
%TD*%
D29*
%TO.C,TP4*%
X199796400Y-76809600D03*
%TD*%
D73*
%TO.C,JP2*%
X229311200Y-118033800D03*
D74*
X229311200Y-116583800D03*
%TD*%
D19*
%TO.C,C53*%
X157681600Y-77359200D03*
X156131600Y-77359200D03*
%TD*%
D41*
%TO.C,C41*%
X156135400Y-90077000D03*
X156135400Y-91627000D03*
%TD*%
D75*
%TO.C,SW1*%
X223361550Y-75508150D03*
X226761550Y-75508150D03*
%TD*%
D73*
%TO.C,JP1*%
X229311200Y-114593200D03*
D74*
X229311200Y-113143200D03*
%TD*%
D76*
%TO.C,U8*%
X161093900Y-89902000D03*
X161093900Y-90852000D03*
X161093900Y-91802000D03*
X163368900Y-91802000D03*
X163368900Y-90852000D03*
X163368900Y-89902000D03*
%TD*%
D18*
%TO.C,C22*%
X231241600Y-83566000D03*
X232376600Y-83566000D03*
%TD*%
D77*
%TO.C,C37*%
X208470200Y-81838800D03*
X210020200Y-81838800D03*
%TD*%
D12*
%TO.C,C3*%
X190377600Y-82512500D03*
X189242600Y-82512500D03*
%TD*%
D78*
%TO.C,R57*%
X179703000Y-86063800D03*
X180723000Y-86063800D03*
%TD*%
D77*
%TO.C,C45*%
X176821800Y-92500000D03*
X178371800Y-92500000D03*
%TD*%
D79*
%TO.C,R47*%
X177749200Y-90043000D03*
X177749200Y-91063000D03*
%TD*%
D20*
%TO.C,R40*%
X225359400Y-108808082D03*
X224164400Y-108808082D03*
%TD*%
D56*
%TO.C,R12*%
X199860500Y-92801900D03*
X199860500Y-91606900D03*
%TD*%
D12*
%TO.C,C12*%
X190373000Y-85877400D03*
X189238000Y-85877400D03*
%TD*%
D18*
%TO.C,C5*%
X203433200Y-82563300D03*
X204568200Y-82563300D03*
%TD*%
D65*
%TO.C,D6*%
X145973800Y-92827200D03*
X145973800Y-88427200D03*
%TD*%
D54*
%TO.C,C44*%
X157659400Y-91627000D03*
X157659400Y-90077000D03*
%TD*%
D80*
%TO.C,C60*%
X181660800Y-78922800D03*
X181660800Y-80822800D03*
%TD*%
D76*
%TO.C,U7*%
X161094100Y-80159200D03*
X161094100Y-81109200D03*
X161094100Y-82059200D03*
X163369100Y-82059200D03*
X163369100Y-81109200D03*
X163369100Y-80159200D03*
%TD*%
D12*
%TO.C,C2*%
X234704700Y-84658200D03*
X233569700Y-84658200D03*
%TD*%
D81*
%TO.C,U5*%
X151115400Y-116459000D03*
X151115400Y-117729000D03*
X151115400Y-118999000D03*
X151115400Y-120269000D03*
X156065400Y-120269000D03*
X156065400Y-118999000D03*
X156065400Y-117729000D03*
X156065400Y-116459000D03*
%TD*%
D82*
%TO.C,J4*%
X145568200Y-110555600D03*
X145568200Y-110055600D03*
X145568200Y-109555600D03*
X145568200Y-109055600D03*
X145568200Y-108555600D03*
X145568200Y-108055600D03*
X145568200Y-107555600D03*
X145568200Y-107055600D03*
X145568200Y-106555600D03*
X145568200Y-106055600D03*
D83*
X148218200Y-111345600D03*
X148218200Y-105265600D03*
%TD*%
D51*
%TO.C,D3*%
X231343200Y-113094500D03*
X231343200Y-114669500D03*
%TD*%
D84*
%TO.C,U1*%
X222698000Y-87257500D03*
X223098000Y-87257500D03*
X223498000Y-87257500D03*
X223898000Y-87257500D03*
X224298000Y-87257500D03*
X224698000Y-87257500D03*
X225098000Y-87257500D03*
X225498000Y-87257500D03*
X225898000Y-87257500D03*
X226298000Y-87257500D03*
X226698000Y-87257500D03*
X227098000Y-87257500D03*
X227498000Y-87257500D03*
X227898000Y-87257500D03*
D85*
X228735500Y-86420000D03*
X228735500Y-86020000D03*
X228735500Y-85620000D03*
X228735500Y-85220000D03*
X228735500Y-84820000D03*
X228735500Y-84420000D03*
X228735500Y-84020000D03*
X228735500Y-83620000D03*
X228735500Y-83220000D03*
X228735500Y-82820000D03*
X228735500Y-82420000D03*
X228735500Y-82020000D03*
X228735500Y-81620000D03*
X228735500Y-81220000D03*
D84*
X227898000Y-80382500D03*
X227498000Y-80382500D03*
X227098000Y-80382500D03*
X226698000Y-80382500D03*
X226298000Y-80382500D03*
X225898000Y-80382500D03*
X225498000Y-80382500D03*
X225098000Y-80382500D03*
X224698000Y-80382500D03*
X224298000Y-80382500D03*
X223898000Y-80382500D03*
X223498000Y-80382500D03*
X223098000Y-80382500D03*
X222698000Y-80382500D03*
D85*
X221860500Y-81220000D03*
X221860500Y-81620000D03*
X221860500Y-82020000D03*
X221860500Y-82420000D03*
X221860500Y-82820000D03*
X221860500Y-83220000D03*
X221860500Y-83620000D03*
X221860500Y-84020000D03*
X221860500Y-84420000D03*
X221860500Y-84820000D03*
X221860500Y-85220000D03*
X221860500Y-85620000D03*
X221860500Y-86020000D03*
X221860500Y-86420000D03*
D86*
X225298000Y-83820000D03*
%TD*%
D87*
%TO.C,Y3*%
X145767600Y-117119400D03*
X148267600Y-117119400D03*
%TD*%
D11*
%TO.C,R37*%
X158338100Y-117703600D03*
X159533100Y-117703600D03*
%TD*%
D19*
%TO.C,C58*%
X157706600Y-75759200D03*
X156156600Y-75759200D03*
%TD*%
D18*
%TO.C,C38*%
X224194400Y-107665082D03*
X225329400Y-107665082D03*
%TD*%
D88*
%TO.C,J2*%
X230210400Y-99754500D03*
X230210400Y-93974500D03*
D89*
X229090400Y-100064500D03*
X229090400Y-99264500D03*
D90*
X229090400Y-98114500D03*
X229090400Y-97114500D03*
X229090400Y-96614500D03*
X229090400Y-95614500D03*
D89*
X229090400Y-94464500D03*
X229090400Y-93664500D03*
X229090400Y-93664500D03*
X229090400Y-94464500D03*
D90*
X229090400Y-95114500D03*
X229090400Y-96114500D03*
X229090400Y-97614500D03*
X229090400Y-98614500D03*
D89*
X229090400Y-99264500D03*
X229090400Y-100064500D03*
D91*
X229690400Y-101184500D03*
D92*
X233890400Y-101184500D03*
D91*
X229690400Y-92544500D03*
D92*
X233890400Y-92544500D03*
%TD*%
D11*
%TO.C,R53*%
X165636600Y-81559200D03*
X166831600Y-81559200D03*
%TD*%
D93*
%TO.C,U4*%
X219020900Y-96501500D03*
X219020900Y-97001500D03*
X219020900Y-97501500D03*
D94*
X219533400Y-98264000D03*
X220033400Y-98264000D03*
X220533400Y-98264000D03*
X221033400Y-98264000D03*
D93*
X221545900Y-97501500D03*
X221545900Y-97001500D03*
X221545900Y-96501500D03*
D94*
X221033400Y-95739000D03*
X220533400Y-95739000D03*
X220033400Y-95739000D03*
X219533400Y-95739000D03*
D95*
X220283400Y-97001500D03*
%TD*%
D11*
%TO.C,R8*%
X231228300Y-84658200D03*
X232423300Y-84658200D03*
%TD*%
D13*
%TO.C,R51*%
X217546400Y-104940582D03*
X217546400Y-106135582D03*
%TD*%
D20*
%TO.C,R44*%
X166703000Y-90242400D03*
X165508000Y-90242400D03*
%TD*%
D96*
%TO.C,U10*%
X174182000Y-88098400D03*
X175452000Y-88098400D03*
X176722000Y-88098400D03*
X177992000Y-88098400D03*
X177992000Y-83148400D03*
X176722000Y-83148400D03*
X175452000Y-83148400D03*
X174182000Y-83148400D03*
%TD*%
D97*
%TO.C,D8*%
X202543200Y-117322600D03*
X209343200Y-117322600D03*
%TD*%
D12*
%TO.C,C1*%
X232402000Y-89230200D03*
X231267000Y-89230200D03*
%TD*%
D98*
%TO.C,F1*%
X220765900Y-112617582D03*
X220765900Y-113762582D03*
%TD*%
D97*
%TO.C,D7*%
X202568600Y-110337600D03*
X209368600Y-110337600D03*
%TD*%
D18*
%TO.C,C9*%
X201020200Y-81420300D03*
X202155200Y-81420300D03*
%TD*%
D52*
%TO.C,C29*%
X217510400Y-93780000D03*
X217510400Y-92645000D03*
%TD*%
D99*
%TO.C,C48*%
X217463900Y-112835582D03*
X217463900Y-114560582D03*
%TD*%
D13*
%TO.C,R17*%
X196456900Y-91619000D03*
X196456900Y-92814000D03*
%TD*%
D11*
%TO.C,R9*%
X203403200Y-81420300D03*
X204598200Y-81420300D03*
%TD*%
D18*
%TO.C,C36*%
X208948400Y-80518000D03*
X210083400Y-80518000D03*
%TD*%
D100*
%TO.C,J3*%
X221234000Y-77470000D03*
X229209600Y-77470000D03*
%TD*%
D101*
%TO.C,J5*%
X145498000Y-77421400D03*
X145498000Y-100421400D03*
X203498000Y-77421400D03*
X203498000Y-100421400D03*
D102*
X150368000Y-99151400D03*
D103*
X150368000Y-101691400D03*
X152908000Y-99151400D03*
X152908000Y-101691400D03*
X155448000Y-99151400D03*
X155448000Y-101691400D03*
X157988000Y-99151400D03*
X157988000Y-101691400D03*
X160528000Y-99151400D03*
X160528000Y-101691400D03*
X163068000Y-99151400D03*
X163068000Y-101691400D03*
X165608000Y-99151400D03*
X165608000Y-101691400D03*
X168148000Y-99151400D03*
X168148000Y-101691400D03*
X170688000Y-99151400D03*
X170688000Y-101691400D03*
X173228000Y-99151400D03*
X173228000Y-101691400D03*
X175768000Y-99151400D03*
X175768000Y-101691400D03*
X178308000Y-99151400D03*
X178308000Y-101691400D03*
X180848000Y-99151400D03*
X180848000Y-101691400D03*
X183388000Y-99151400D03*
X183388000Y-101691400D03*
X185928000Y-99151400D03*
X185928000Y-101691400D03*
X188468000Y-99151400D03*
X188468000Y-101691400D03*
X191008000Y-99151400D03*
X191008000Y-101691400D03*
X193548000Y-99151400D03*
X193548000Y-101691400D03*
X196088000Y-99151400D03*
X196088000Y-101691400D03*
X198628000Y-99151400D03*
X198628000Y-101691400D03*
%TD*%
M02*
