M48
; DRILL file {KiCad 8.0.3} date 2024-07-04T12:23:11-0400
; FORMAT={-:-/ absolute / inch / decimal}
; #@! TF.CreationDate,2024-07-04T12:23:11-04:00
; #@! TF.GenerationSoftware,Kicad,Pcbnew,8.0.3
; #@! TF.FileFunction,Plated,1,4,PTH
FMAT,2
INCH
; #@! TA.AperFunction,Plated,PTH,ViaDrill
T1C0.0098
; #@! TA.AperFunction,Plated,PTH,ViaDrill
T2C0.0118
; #@! TA.AperFunction,Plated,PTH,ViaDrill
T3C0.0197
; #@! TA.AperFunction,Plated,PTH,ComponentDrill
T4C0.0236
; #@! TA.AperFunction,Plated,PTH,ComponentDrill
T5C0.0256
; #@! TA.AperFunction,Plated,PTH,ComponentDrill
T6C0.0394
%
G90
G05
T1
X7.044Y-3.6417
X7.41Y-3.381
X7.425Y-3.423
X7.426Y-3.338
X7.448Y-3.494
X7.4493Y-3.2945
X7.495Y-3.423
X7.517Y-3.225
X7.6244Y-3.6325
X7.6845Y-3.0965
X7.707Y-3.5687
X7.8316Y-3.6383
X7.881Y-3.5
X8.2051Y-3.2196
X8.2087Y-3.1594
X8.21Y-3.285
X8.266Y-3.559
X8.305Y-3.203
X8.3583Y-3.3593
X8.392Y-3.457
X8.4071Y-3.5801
X8.4187Y-3.0523
X8.4508Y-3.4035
X8.475Y-3.554
X8.488Y-2.946
X8.542Y-3.479
X8.601Y-3.869
X8.601Y-3.892
X8.665Y-3.288
X8.696Y-3.112
X8.761Y-3.519
X8.768Y-3.577
X8.7705Y-3.3995
X8.7893Y-3.3516
X8.7893Y-3.3056
X8.7953Y-3.3809
X8.8216Y-3.4714
X8.8264Y-3.3823
X8.84Y-3.307
X8.8411Y-3.0935
X8.8622Y-3.3839
X8.865Y-3.307
X8.889Y-3.307
X8.908Y-3.396
X8.9134Y-4.0098
X8.914Y-3.307
X8.9284Y-3.6798
X8.9334Y-3.9898
X8.9334Y-4.0098
X8.9448Y-3.6993
X8.9534Y-4.0098
X8.9584Y-3.7198
X8.964Y-3.361
X8.9834Y-3.7198
X9.169Y-3.248
X9.17Y-3.29
T2
X5.8809Y-4.695
X5.896Y-4.101
X5.9121Y-3.6069
X5.9121Y-3.6369
X5.932Y-3.2247
X5.9323Y-3.2523
X5.933Y-4.1
X5.933Y-4.301
X5.9571Y-3.6069
X5.9571Y-3.6369
X5.9658Y-3.2228
X5.9658Y-3.2523
X5.982Y-4.062
X5.997Y-3.2247
X5.9971Y-3.6069
X5.9971Y-3.6369
X5.998Y-4.3606
X5.9993Y-3.2523
X6.014Y-4.243
X6.112Y-4.126
X6.1371Y-3.1204
X6.1401Y-3.5049
X6.145Y-4.298
X6.154Y-4.235
X6.155Y-4.553
X6.1646Y-3.1204
X6.1661Y-3.5049
X6.18Y-4.207
X6.1921Y-3.5049
X6.1922Y-3.1204
X6.1993Y-4.735
X6.2013Y-4.683
X6.212Y-4.094
X6.2181Y-3.5049
X6.2197Y-3.1204
X6.227Y-4.205
X6.253Y-4.363
X6.2541Y-3.3609
X6.2541Y-3.3869
X6.2541Y-3.4249
X6.2541Y-3.4509
X6.2552Y-2.9708
X6.2552Y-2.9984
X6.2552Y-3.026
X6.2552Y-3.0535
X6.2571Y-3.5619
X6.2571Y-3.5919
X6.2591Y-3.1795
X6.2591Y-3.2051
X6.2601Y-3.4969
X6.2601Y-3.5249
X6.2631Y-3.1027
X6.2631Y-3.1303
X6.264Y-4.15
X6.265Y-4.086
X6.2847Y-3.1795
X6.2847Y-3.2051
X6.2861Y-3.4969
X6.2861Y-3.5249
X6.2871Y-3.5619
X6.2871Y-3.5919
X6.2906Y-3.1027
X6.2906Y-3.1303
X6.307Y-4.096
X6.317Y-4.645
X6.3461Y-3.6629
X6.3516Y-3.276
X6.369Y-4.033
X6.3851Y-3.1126
X6.3921Y-3.4989
X6.418Y-4.375
X6.4195Y-3.454
X6.4225Y-3.0693
X6.43Y-4.306
X6.446Y-4.071
X6.447Y-3.454
X6.4501Y-3.0693
X6.4746Y-3.454
X6.4776Y-3.0693
X6.5021Y-3.454
X6.5052Y-3.0693
X6.5297Y-3.454
X6.5327Y-3.0693
X6.5573Y-3.454
X6.5603Y-3.0693
X6.5789Y-3.4717
X6.58Y-4.169
X6.582Y-3.087
X6.5861Y-3.5529
X6.5861Y-3.5969
X6.5879Y-3.1677
X6.5879Y-3.211
X6.5986Y-3.4914
X6.6016Y-3.1067
X6.6168Y-3.5093
X6.6198Y-3.1246
X6.695Y-4.275
X6.705Y-3.805
X6.7143Y-4.353
X6.722Y-3.376
X6.722Y-3.404
X6.726Y-3.773
X6.7477Y-4.353
X6.749Y-3.376
X6.749Y-3.404
X6.757Y-3.851
X6.777Y-3.376
X6.777Y-3.404
X6.7948Y-4.2165
X6.81Y-3.847
X6.8185Y-4.2402
X6.823Y-4.278
X6.8539Y-4.466
X6.8539Y-4.496
X6.854Y-3.345
X6.854Y-3.372
X6.854Y-3.4
X6.8809Y-4.466
X6.8809Y-4.496
X6.882Y-3.345
X6.882Y-3.372
X6.882Y-3.4
X6.89Y-4.342
X6.9079Y-4.466
X6.9079Y-4.496
X6.909Y-3.346
X6.909Y-3.373
X6.909Y-3.401
X6.937Y-3.346
X6.937Y-3.373
X6.937Y-3.401
X6.9576Y-3.2736
X6.964Y-3.346
X6.964Y-3.373
X6.964Y-3.401
X6.989Y-4.1231
X6.992Y-3.346
X6.992Y-3.373
X6.992Y-3.401
X6.998Y-4.392
X6.9998Y-4.0601
X6.9998Y-4.0936
X7.047Y-3.252
X7.053Y-3.332
X7.0704Y-3.8654
X7.118Y-4.166
X7.143Y-3.293
X7.151Y-2.937
X7.152Y-3.211
X7.159Y-4.13
X7.168Y-3.974
X7.189Y-3.835
X7.2Y-3.703
X7.2147Y-3.7417
X7.215Y-3.218
X7.255Y-2.982
X7.269Y-3.975
X7.2692Y-3.5618
X7.2928Y-3.5382
X7.352Y-3.777
X7.389Y-3.7949
X7.4122Y-4.1138
X7.434Y-4.4111
X7.4358Y-4.0902
X7.439Y-3.848
X7.45Y-4.35
X7.48Y-3.7031
X7.4811Y-3.844
X7.483Y-3.516
X7.4872Y-3.7933
X7.49Y-4.3659
X7.5108Y-3.7697
X7.541Y-3.472
X7.567Y-3.0944
X7.567Y-3.1279
X7.6266Y-3.0656
X7.648Y-3.016
X7.6605Y-3.5898
X7.666Y-4.478
X7.6735Y-3.3145
X7.6735Y-3.3985
X7.6755Y-3.3585
X7.6783Y-3.6195
X7.6895Y-3.6765
X7.7215Y-3.3145
X7.7215Y-3.3585
X7.7215Y-3.3985
X7.722Y-3.094
X7.744Y-4.112
X7.7447Y-3.5664
X7.7715Y-3.3145
X7.7715Y-3.3985
X7.7735Y-3.3585
X7.7795Y-3.6785
X7.807Y-4.133
X7.824Y-4.194
X7.8244Y-3.1144
X7.861Y-4.087
X7.8615Y-3.1305
X7.8615Y-3.2405
X7.8622Y-3.0818
X7.9128Y-3.2943
X7.9135Y-3.6766
X7.923Y-3.715
X7.9315Y-3.5405
X7.9334Y-3.909
X7.9565Y-3.1805
X7.975Y-3.7863
X7.975Y-3.8197
X7.9915Y-3.2605
X7.9915Y-3.4705
X8.008Y-3.1605
X8.0181Y-3.4038
X8.0415Y-3.6016
X8.055Y-3.1605
X8.077Y-3.307
X8.084Y-4.151
X8.086Y-3.267
X8.115Y-3.758
X8.1219Y-3.2096
X8.122Y-3.847
X8.1456Y-3.1859
X8.149Y-3.425
X8.2318Y-3.5882
X8.238Y-4.013
X8.2392Y-3.3392
X8.24Y-2.987
X8.248Y-3.094
X8.2593Y-3.851
X8.2628Y-3.3628
X8.269Y-4.245
X8.2742Y-3.6
X8.2759Y-3.7874
X8.29Y-3.087
X8.2901Y-3.8871
X8.2927Y-3.851
X8.2992Y-3.7288
X8.3102Y-3.1619
X8.32Y-3.929
X8.3228Y-3.7052
X8.3478Y-2.9928
X8.3769Y-2.9806
X8.412Y-4.2149
X8.459Y-3.16
X8.463Y-4.347
X8.4679Y-3.774
X8.4684Y-3.8648
X8.4813Y-4.0866
X8.4898Y-3.2724
X8.4984Y-3.9148
X8.526Y-3.072
X8.5289Y-3.2742
X8.5526Y-3.2978
X8.5616Y-4.5413
X8.5634Y-3.6198
X8.5788Y-3.799
X8.5793Y-4.6184
X8.5845Y-2.9386
X8.5917Y-3.283
X8.6234Y-3.5798
X8.6234Y-3.7398
X8.6407Y-3.076
X8.642Y-3.0154
X8.645Y-2.9676
X8.65Y-3.0459
X8.658Y-4.5889
X8.665Y-3.9
X8.6726Y-3.819
X8.674Y-2.9436
X8.6777Y-4.3133
X8.6834Y-3.6298
X8.6974Y-4.52
X8.699Y-3.954
X8.7234Y-3.6298
X8.7398Y-4.2206
X8.7422Y-4.5889
X8.753Y-3.961
X8.7565Y-4.52
X8.7762Y-4.1558
X8.7762Y-4.1854
X8.7762Y-4.2149
X8.7762Y-4.2444
X8.7762Y-4.2739
X8.7762Y-4.3035
X8.7774Y-3.2002
X8.797Y-4.6421
X8.8057Y-4.1558
X8.8057Y-4.1854
X8.806Y-3.775
X8.8155Y-4.5495
X8.829Y-4.617
X8.839Y-3.624
X8.8434Y-3.8598
X8.853Y-4.65
X8.8536Y-3.9757
X8.857Y-3.531
X8.8582Y-3.937
X8.8583Y-3.6849
X8.865Y-4.0109
X8.8716Y-3.1054
X8.882Y-4.6151
X8.8834Y-3.7398
X8.8844Y-4.5594
X8.885Y-3.573
X8.9016Y-2.9445
X8.9041Y-4.1854
X8.907Y-4.589
X8.9102Y-3.0783
X8.931Y-4.648
X8.9325Y-3.1006
X8.94Y-4.436
X8.9469Y-3.0481
X8.9565Y-3.1968
X8.961Y-4.256
X8.9644Y-4.177
X8.9734Y-3.8667
X8.9751Y-3.0959
X8.988Y-4.256
X8.9934Y-4.177
X8.994Y-2.981
X9.0079Y-3.1569
X9.015Y-4.255
X9.0224Y-4.177
X9.031Y-3.569
X9.036Y-3.46
X9.042Y-4.255
X9.049Y-2.944
X9.0534Y-4.177
X9.063Y-3.486
X9.065Y-3.1004
X9.069Y-4.255
X9.0834Y-4.177
X9.0943Y-3.2911
X9.096Y-4.255
X9.108Y-3.212
X9.1134Y-4.177
X9.119Y-3.39
X9.131Y-2.969
X9.147Y-3.027
X9.167Y-4.821
X9.172Y-3.514
X9.177Y-3.137
X9.183Y-4.579
X9.185Y-2.969
X9.191Y-4.447
X9.21Y-3.514
X9.233Y-4.041
X9.234Y-3.157
X9.248Y-3.588
X9.259Y-3.421
X9.262Y-3.333
X9.278Y-3.109
X9.278Y-3.519
X9.279Y-3.276
X9.288Y-3.892
T3
X5.676Y-4.612
X5.771Y-4.687
X5.777Y-4.727
X5.909Y-3.375
X5.909Y-3.425
X5.91Y-2.988
X5.91Y-3.038
X5.953Y-3.375
X5.953Y-3.425
X5.954Y-2.989
X5.954Y-3.039
X5.997Y-3.376
X5.997Y-3.426
X5.998Y-2.989
X5.998Y-3.039
X6.005Y-4.734
X6.142Y-3.278
X6.145Y-3.661
X6.186Y-3.278
X6.189Y-3.661
X6.23Y-3.278
X6.233Y-3.661
X6.248Y-4.533
X6.275Y-3.277
X6.278Y-3.66
X6.3061Y-4.5148
X6.3341Y-4.5428
X6.3612Y-4.5699
X6.789Y-3.564
X6.795Y-3.647
X6.801Y-3.711
X6.851Y-3.711
X6.9Y-3.711
X6.927Y-4.765
X6.95Y-3.711
X6.958Y-4.793
X7.233Y-3.173
X7.234Y-3.131
X7.277Y-3.174
X7.278Y-3.132
X7.948Y-4.345
X7.948Y-4.389
X7.948Y-4.618
X7.948Y-4.662
X7.949Y-4.301
X7.949Y-4.574
X7.998Y-4.345
X7.998Y-4.389
X7.998Y-4.618
X7.998Y-4.662
X7.999Y-4.301
X7.999Y-4.574
X8.217Y-4.344
X8.217Y-4.388
X8.217Y-4.619
X8.217Y-4.663
X8.218Y-4.3
X8.218Y-4.575
X8.267Y-4.344
X8.267Y-4.388
X8.267Y-4.619
X8.267Y-4.663
X8.268Y-4.3
X8.268Y-4.575
X8.322Y-4.014
X8.322Y-4.081
X8.322Y-4.122
X8.336Y-4.331
X8.337Y-4.289
X8.38Y-4.332
X8.381Y-4.29
X8.413Y-4.75
X8.4544Y-3.9043
X8.537Y-3.723
X8.537Y-3.765
T5
X7.058Y-4.25
X7.058Y-4.3
X7.058Y-4.65
X7.058Y-4.7
X7.108Y-4.25
X7.108Y-4.3
X7.108Y-4.65
X7.108Y-4.7
X7.158Y-4.25
X7.158Y-4.3
X7.158Y-4.65
X7.158Y-4.7
X7.208Y-4.25
X7.208Y-4.3
X7.208Y-4.65
X7.208Y-4.7
X7.258Y-4.25
X7.258Y-4.3
X7.258Y-4.45
X7.258Y-4.5
X7.258Y-4.65
X7.258Y-4.7
X7.308Y-4.25
X7.308Y-4.3
X7.308Y-4.45
X7.308Y-4.5
X7.308Y-4.65
X7.308Y-4.7
X7.358Y-4.25
X7.358Y-4.3
X7.358Y-4.45
X7.358Y-4.5
X7.358Y-4.65
X7.358Y-4.7
X7.408Y-4.25
X7.408Y-4.3
X7.408Y-4.45
X7.408Y-4.5
X7.408Y-4.65
X7.408Y-4.7
X7.458Y-4.25
X7.458Y-4.3
X7.458Y-4.45
X7.458Y-4.5
X7.458Y-4.65
X7.458Y-4.7
X7.508Y-4.25
X7.508Y-4.3
X7.508Y-4.45
X7.508Y-4.5
X7.508Y-4.65
X7.508Y-4.7
X7.558Y-4.25
X7.558Y-4.3
X7.558Y-4.45
X7.558Y-4.5
X7.558Y-4.65
X7.558Y-4.7
X7.608Y-4.25
X7.608Y-4.3
X7.608Y-4.45
X7.608Y-4.5
X7.608Y-4.65
X7.608Y-4.7
X7.658Y-4.25
X7.658Y-4.3
X7.658Y-4.65
X7.658Y-4.7
X7.708Y-4.25
X7.708Y-4.3
X7.708Y-4.65
X7.708Y-4.7
X7.758Y-4.25
X7.758Y-4.3
X7.758Y-4.65
X7.758Y-4.7
T6
X5.92Y-3.9036
X5.92Y-4.0036
X6.02Y-3.9036
X6.02Y-4.0036
X6.12Y-3.9036
X6.12Y-4.0036
X6.22Y-3.9036
X6.22Y-4.0036
X6.32Y-3.9036
X6.32Y-4.0036
X6.42Y-3.9036
X6.42Y-4.0036
X6.52Y-3.9036
X6.52Y-4.0036
X6.62Y-3.9036
X6.62Y-4.0036
X6.72Y-3.9036
X6.72Y-4.0036
X6.82Y-3.9036
X6.82Y-4.0036
X6.92Y-3.9036
X6.92Y-4.0036
X7.02Y-3.9036
X7.02Y-4.0036
X7.12Y-3.9036
X7.12Y-4.0036
X7.22Y-3.9036
X7.22Y-4.0036
X7.32Y-3.9036
X7.32Y-4.0036
X7.42Y-3.9036
X7.42Y-4.0036
X7.52Y-3.9036
X7.52Y-4.0036
X7.62Y-3.9036
X7.62Y-4.0036
X7.72Y-3.9036
X7.72Y-4.0036
X7.82Y-3.9036
X7.82Y-4.0036
T4
G00X9.0213Y-3.6435
M15
G01X9.0646Y-3.6435
M16
G05
G00X9.0213Y-3.9836
M15
G01X9.0646Y-3.9836
M16
G05
G00X9.1925Y-3.6435
M15
G01X9.224Y-3.6435
M16
G05
G00X9.1925Y-3.9836
M15
G01X9.224Y-3.9836
M16
G05
M30
