%TF.GenerationSoftware,KiCad,Pcbnew,8.0.3*%
%TF.CreationDate,2024-07-04T12:22:57-04:00*%
%TF.ProjectId,vfd-tool,7666642d-746f-46f6-9c2e-6b696361645f,rev?*%
%TF.SameCoordinates,Original*%
%TF.FileFunction,Legend,Bot*%
%TF.FilePolarity,Positive*%
%FSLAX46Y46*%
G04 Gerber Fmt 4.6, Leading zero omitted, Abs format (unit mm)*
G04 Created by KiCad (PCBNEW 8.0.3) date 2024-07-04 12:22:57*
%MOMM*%
%LPD*%
G01*
G04 APERTURE LIST*
%ADD10C,0.100000*%
%ADD11C,0.200000*%
%ADD12C,0.150000*%
%ADD13C,0.120000*%
%ADD14C,0.203200*%
%ADD15C,0.254000*%
%ADD16C,0.127000*%
G04 APERTURE END LIST*
D10*
X232625000Y-93325000D02*
X235600000Y-93325000D01*
X235600000Y-94925000D01*
X232625000Y-94925000D01*
X232625000Y-93325000D01*
D11*
X214300000Y-73975000D02*
X235600000Y-73975000D01*
X235600000Y-94925000D01*
X214300000Y-94925000D01*
X214300000Y-73975000D01*
D12*
X162694173Y-113375414D02*
X162944173Y-113018271D01*
X163122744Y-113375414D02*
X163122744Y-112625414D01*
X163122744Y-112625414D02*
X162837030Y-112625414D01*
X162837030Y-112625414D02*
X162765601Y-112661128D01*
X162765601Y-112661128D02*
X162729887Y-112696842D01*
X162729887Y-112696842D02*
X162694173Y-112768271D01*
X162694173Y-112768271D02*
X162694173Y-112875414D01*
X162694173Y-112875414D02*
X162729887Y-112946842D01*
X162729887Y-112946842D02*
X162765601Y-112982557D01*
X162765601Y-112982557D02*
X162837030Y-113018271D01*
X162837030Y-113018271D02*
X163122744Y-113018271D01*
X162479887Y-112625414D02*
X162051316Y-112625414D01*
X162265601Y-113375414D02*
X162265601Y-112625414D01*
X161372744Y-113303985D02*
X161408458Y-113339700D01*
X161408458Y-113339700D02*
X161515601Y-113375414D01*
X161515601Y-113375414D02*
X161587029Y-113375414D01*
X161587029Y-113375414D02*
X161694172Y-113339700D01*
X161694172Y-113339700D02*
X161765601Y-113268271D01*
X161765601Y-113268271D02*
X161801315Y-113196842D01*
X161801315Y-113196842D02*
X161837029Y-113053985D01*
X161837029Y-113053985D02*
X161837029Y-112946842D01*
X161837029Y-112946842D02*
X161801315Y-112803985D01*
X161801315Y-112803985D02*
X161765601Y-112732557D01*
X161765601Y-112732557D02*
X161694172Y-112661128D01*
X161694172Y-112661128D02*
X161587029Y-112625414D01*
X161587029Y-112625414D02*
X161515601Y-112625414D01*
X161515601Y-112625414D02*
X161408458Y-112661128D01*
X161408458Y-112661128D02*
X161372744Y-112696842D01*
X160479886Y-113375414D02*
X160479886Y-112625414D01*
X160479886Y-112911128D02*
X160408458Y-112875414D01*
X160408458Y-112875414D02*
X160265600Y-112875414D01*
X160265600Y-112875414D02*
X160194172Y-112911128D01*
X160194172Y-112911128D02*
X160158458Y-112946842D01*
X160158458Y-112946842D02*
X160122743Y-113018271D01*
X160122743Y-113018271D02*
X160122743Y-113232557D01*
X160122743Y-113232557D02*
X160158458Y-113303985D01*
X160158458Y-113303985D02*
X160194172Y-113339700D01*
X160194172Y-113339700D02*
X160265600Y-113375414D01*
X160265600Y-113375414D02*
X160408458Y-113375414D01*
X160408458Y-113375414D02*
X160479886Y-113339700D01*
X159479887Y-113375414D02*
X159479887Y-112982557D01*
X159479887Y-112982557D02*
X159515601Y-112911128D01*
X159515601Y-112911128D02*
X159587029Y-112875414D01*
X159587029Y-112875414D02*
X159729887Y-112875414D01*
X159729887Y-112875414D02*
X159801315Y-112911128D01*
X159479887Y-113339700D02*
X159551315Y-113375414D01*
X159551315Y-113375414D02*
X159729887Y-113375414D01*
X159729887Y-113375414D02*
X159801315Y-113339700D01*
X159801315Y-113339700D02*
X159837029Y-113268271D01*
X159837029Y-113268271D02*
X159837029Y-113196842D01*
X159837029Y-113196842D02*
X159801315Y-113125414D01*
X159801315Y-113125414D02*
X159729887Y-113089700D01*
X159729887Y-113089700D02*
X159551315Y-113089700D01*
X159551315Y-113089700D02*
X159479887Y-113053985D01*
X159229887Y-112875414D02*
X158944173Y-112875414D01*
X159122744Y-112625414D02*
X159122744Y-113268271D01*
X159122744Y-113268271D02*
X159087030Y-113339700D01*
X159087030Y-113339700D02*
X159015601Y-113375414D01*
X159015601Y-113375414D02*
X158944173Y-113375414D01*
X158801316Y-112875414D02*
X158515602Y-112875414D01*
X158694173Y-112625414D02*
X158694173Y-113268271D01*
X158694173Y-113268271D02*
X158658459Y-113339700D01*
X158658459Y-113339700D02*
X158587030Y-113375414D01*
X158587030Y-113375414D02*
X158515602Y-113375414D01*
X157979888Y-113339700D02*
X158051316Y-113375414D01*
X158051316Y-113375414D02*
X158194174Y-113375414D01*
X158194174Y-113375414D02*
X158265602Y-113339700D01*
X158265602Y-113339700D02*
X158301316Y-113268271D01*
X158301316Y-113268271D02*
X158301316Y-112982557D01*
X158301316Y-112982557D02*
X158265602Y-112911128D01*
X158265602Y-112911128D02*
X158194174Y-112875414D01*
X158194174Y-112875414D02*
X158051316Y-112875414D01*
X158051316Y-112875414D02*
X157979888Y-112911128D01*
X157979888Y-112911128D02*
X157944174Y-112982557D01*
X157944174Y-112982557D02*
X157944174Y-113053985D01*
X157944174Y-113053985D02*
X158301316Y-113125414D01*
X157622745Y-113375414D02*
X157622745Y-112875414D01*
X157622745Y-113018271D02*
X157587031Y-112946842D01*
X157587031Y-112946842D02*
X157551317Y-112911128D01*
X157551317Y-112911128D02*
X157479888Y-112875414D01*
X157479888Y-112875414D02*
X157408459Y-112875414D01*
X157229888Y-112875414D02*
X157051316Y-113375414D01*
X156872745Y-112875414D02*
X157051316Y-113375414D01*
X157051316Y-113375414D02*
X157122745Y-113553985D01*
X157122745Y-113553985D02*
X157158459Y-113589700D01*
X157158459Y-113589700D02*
X157229888Y-113625414D01*
D10*
X192510401Y-120947419D02*
X192510401Y-121661704D01*
X192510401Y-121661704D02*
X192558020Y-121804561D01*
X192558020Y-121804561D02*
X192653258Y-121899800D01*
X192653258Y-121899800D02*
X192796115Y-121947419D01*
X192796115Y-121947419D02*
X192891353Y-121947419D01*
X191558020Y-121947419D02*
X192034210Y-121947419D01*
X192034210Y-121947419D02*
X192034210Y-120947419D01*
X190653258Y-121852180D02*
X190700877Y-121899800D01*
X190700877Y-121899800D02*
X190843734Y-121947419D01*
X190843734Y-121947419D02*
X190938972Y-121947419D01*
X190938972Y-121947419D02*
X191081829Y-121899800D01*
X191081829Y-121899800D02*
X191177067Y-121804561D01*
X191177067Y-121804561D02*
X191224686Y-121709323D01*
X191224686Y-121709323D02*
X191272305Y-121518847D01*
X191272305Y-121518847D02*
X191272305Y-121375990D01*
X191272305Y-121375990D02*
X191224686Y-121185514D01*
X191224686Y-121185514D02*
X191177067Y-121090276D01*
X191177067Y-121090276D02*
X191081829Y-120995038D01*
X191081829Y-120995038D02*
X190938972Y-120947419D01*
X190938972Y-120947419D02*
X190843734Y-120947419D01*
X190843734Y-120947419D02*
X190700877Y-120995038D01*
X190700877Y-120995038D02*
X190653258Y-121042657D01*
X189938972Y-120947419D02*
X189938972Y-121661704D01*
X189938972Y-121661704D02*
X189986591Y-121804561D01*
X189986591Y-121804561D02*
X190081829Y-121899800D01*
X190081829Y-121899800D02*
X190224686Y-121947419D01*
X190224686Y-121947419D02*
X190319924Y-121947419D01*
X188986591Y-121947419D02*
X189462781Y-121947419D01*
X189462781Y-121947419D02*
X189462781Y-120947419D01*
X188081829Y-121852180D02*
X188129448Y-121899800D01*
X188129448Y-121899800D02*
X188272305Y-121947419D01*
X188272305Y-121947419D02*
X188367543Y-121947419D01*
X188367543Y-121947419D02*
X188510400Y-121899800D01*
X188510400Y-121899800D02*
X188605638Y-121804561D01*
X188605638Y-121804561D02*
X188653257Y-121709323D01*
X188653257Y-121709323D02*
X188700876Y-121518847D01*
X188700876Y-121518847D02*
X188700876Y-121375990D01*
X188700876Y-121375990D02*
X188653257Y-121185514D01*
X188653257Y-121185514D02*
X188605638Y-121090276D01*
X188605638Y-121090276D02*
X188510400Y-120995038D01*
X188510400Y-120995038D02*
X188367543Y-120947419D01*
X188367543Y-120947419D02*
X188272305Y-120947419D01*
X188272305Y-120947419D02*
X188129448Y-120995038D01*
X188129448Y-120995038D02*
X188081829Y-121042657D01*
X187367543Y-120947419D02*
X187367543Y-121661704D01*
X187367543Y-121661704D02*
X187415162Y-121804561D01*
X187415162Y-121804561D02*
X187510400Y-121899800D01*
X187510400Y-121899800D02*
X187653257Y-121947419D01*
X187653257Y-121947419D02*
X187748495Y-121947419D01*
X186415162Y-121947419D02*
X186891352Y-121947419D01*
X186891352Y-121947419D02*
X186891352Y-120947419D01*
X185510400Y-121852180D02*
X185558019Y-121899800D01*
X185558019Y-121899800D02*
X185700876Y-121947419D01*
X185700876Y-121947419D02*
X185796114Y-121947419D01*
X185796114Y-121947419D02*
X185938971Y-121899800D01*
X185938971Y-121899800D02*
X186034209Y-121804561D01*
X186034209Y-121804561D02*
X186081828Y-121709323D01*
X186081828Y-121709323D02*
X186129447Y-121518847D01*
X186129447Y-121518847D02*
X186129447Y-121375990D01*
X186129447Y-121375990D02*
X186081828Y-121185514D01*
X186081828Y-121185514D02*
X186034209Y-121090276D01*
X186034209Y-121090276D02*
X185938971Y-120995038D01*
X185938971Y-120995038D02*
X185796114Y-120947419D01*
X185796114Y-120947419D02*
X185700876Y-120947419D01*
X185700876Y-120947419D02*
X185558019Y-120995038D01*
X185558019Y-120995038D02*
X185510400Y-121042657D01*
X184796114Y-120947419D02*
X184796114Y-121661704D01*
X184796114Y-121661704D02*
X184843733Y-121804561D01*
X184843733Y-121804561D02*
X184938971Y-121899800D01*
X184938971Y-121899800D02*
X185081828Y-121947419D01*
X185081828Y-121947419D02*
X185177066Y-121947419D01*
X183843733Y-121947419D02*
X184319923Y-121947419D01*
X184319923Y-121947419D02*
X184319923Y-120947419D01*
X182938971Y-121852180D02*
X182986590Y-121899800D01*
X182986590Y-121899800D02*
X183129447Y-121947419D01*
X183129447Y-121947419D02*
X183224685Y-121947419D01*
X183224685Y-121947419D02*
X183367542Y-121899800D01*
X183367542Y-121899800D02*
X183462780Y-121804561D01*
X183462780Y-121804561D02*
X183510399Y-121709323D01*
X183510399Y-121709323D02*
X183558018Y-121518847D01*
X183558018Y-121518847D02*
X183558018Y-121375990D01*
X183558018Y-121375990D02*
X183510399Y-121185514D01*
X183510399Y-121185514D02*
X183462780Y-121090276D01*
X183462780Y-121090276D02*
X183367542Y-120995038D01*
X183367542Y-120995038D02*
X183224685Y-120947419D01*
X183224685Y-120947419D02*
X183129447Y-120947419D01*
X183129447Y-120947419D02*
X182986590Y-120995038D01*
X182986590Y-120995038D02*
X182938971Y-121042657D01*
D12*
X178847744Y-88350414D02*
X178847744Y-87600414D01*
X178847744Y-87600414D02*
X178562030Y-87600414D01*
X178562030Y-87600414D02*
X178490601Y-87636128D01*
X178490601Y-87636128D02*
X178454887Y-87671842D01*
X178454887Y-87671842D02*
X178419173Y-87743271D01*
X178419173Y-87743271D02*
X178419173Y-87850414D01*
X178419173Y-87850414D02*
X178454887Y-87921842D01*
X178454887Y-87921842D02*
X178490601Y-87957557D01*
X178490601Y-87957557D02*
X178562030Y-87993271D01*
X178562030Y-87993271D02*
X178847744Y-87993271D01*
X178097744Y-88350414D02*
X178097744Y-87850414D01*
X178097744Y-87600414D02*
X178133458Y-87636128D01*
X178133458Y-87636128D02*
X178097744Y-87671842D01*
X178097744Y-87671842D02*
X178062030Y-87636128D01*
X178062030Y-87636128D02*
X178097744Y-87600414D01*
X178097744Y-87600414D02*
X178097744Y-87671842D01*
X177240601Y-87600414D02*
X176740601Y-87600414D01*
X176740601Y-87600414D02*
X177240601Y-88350414D01*
X177240601Y-88350414D02*
X176740601Y-88350414D01*
X176169172Y-88314700D02*
X176240600Y-88350414D01*
X176240600Y-88350414D02*
X176383458Y-88350414D01*
X176383458Y-88350414D02*
X176454886Y-88314700D01*
X176454886Y-88314700D02*
X176490600Y-88243271D01*
X176490600Y-88243271D02*
X176490600Y-87957557D01*
X176490600Y-87957557D02*
X176454886Y-87886128D01*
X176454886Y-87886128D02*
X176383458Y-87850414D01*
X176383458Y-87850414D02*
X176240600Y-87850414D01*
X176240600Y-87850414D02*
X176169172Y-87886128D01*
X176169172Y-87886128D02*
X176133458Y-87957557D01*
X176133458Y-87957557D02*
X176133458Y-88028985D01*
X176133458Y-88028985D02*
X176490600Y-88100414D01*
X175812029Y-88350414D02*
X175812029Y-87850414D01*
X175812029Y-87993271D02*
X175776315Y-87921842D01*
X175776315Y-87921842D02*
X175740601Y-87886128D01*
X175740601Y-87886128D02*
X175669172Y-87850414D01*
X175669172Y-87850414D02*
X175597743Y-87850414D01*
X175240600Y-88350414D02*
X175312029Y-88314700D01*
X175312029Y-88314700D02*
X175347743Y-88278985D01*
X175347743Y-88278985D02*
X175383457Y-88207557D01*
X175383457Y-88207557D02*
X175383457Y-87993271D01*
X175383457Y-87993271D02*
X175347743Y-87921842D01*
X175347743Y-87921842D02*
X175312029Y-87886128D01*
X175312029Y-87886128D02*
X175240600Y-87850414D01*
X175240600Y-87850414D02*
X175133457Y-87850414D01*
X175133457Y-87850414D02*
X175062029Y-87886128D01*
X175062029Y-87886128D02*
X175026315Y-87921842D01*
X175026315Y-87921842D02*
X174990600Y-87993271D01*
X174990600Y-87993271D02*
X174990600Y-88207557D01*
X174990600Y-88207557D02*
X175026315Y-88278985D01*
X175026315Y-88278985D02*
X175062029Y-88314700D01*
X175062029Y-88314700D02*
X175133457Y-88350414D01*
X175133457Y-88350414D02*
X175240600Y-88350414D01*
X234751316Y-94050414D02*
X234751316Y-94550414D01*
X235072744Y-94050414D02*
X235072744Y-94443271D01*
X235072744Y-94443271D02*
X235037030Y-94514700D01*
X235037030Y-94514700D02*
X234965601Y-94550414D01*
X234965601Y-94550414D02*
X234858458Y-94550414D01*
X234858458Y-94550414D02*
X234787030Y-94514700D01*
X234787030Y-94514700D02*
X234751316Y-94478985D01*
X234429887Y-94514700D02*
X234322745Y-94550414D01*
X234322745Y-94550414D02*
X234144173Y-94550414D01*
X234144173Y-94550414D02*
X234072745Y-94514700D01*
X234072745Y-94514700D02*
X234037030Y-94478985D01*
X234037030Y-94478985D02*
X234001316Y-94407557D01*
X234001316Y-94407557D02*
X234001316Y-94336128D01*
X234001316Y-94336128D02*
X234037030Y-94264700D01*
X234037030Y-94264700D02*
X234072745Y-94228985D01*
X234072745Y-94228985D02*
X234144173Y-94193271D01*
X234144173Y-94193271D02*
X234287030Y-94157557D01*
X234287030Y-94157557D02*
X234358459Y-94121842D01*
X234358459Y-94121842D02*
X234394173Y-94086128D01*
X234394173Y-94086128D02*
X234429887Y-94014700D01*
X234429887Y-94014700D02*
X234429887Y-93943271D01*
X234429887Y-93943271D02*
X234394173Y-93871842D01*
X234394173Y-93871842D02*
X234358459Y-93836128D01*
X234358459Y-93836128D02*
X234287030Y-93800414D01*
X234287030Y-93800414D02*
X234108459Y-93800414D01*
X234108459Y-93800414D02*
X234001316Y-93836128D01*
X233679887Y-94550414D02*
X233679887Y-93800414D01*
X233679887Y-93800414D02*
X233501316Y-93800414D01*
X233501316Y-93800414D02*
X233394173Y-93836128D01*
X233394173Y-93836128D02*
X233322744Y-93907557D01*
X233322744Y-93907557D02*
X233287030Y-93978985D01*
X233287030Y-93978985D02*
X233251316Y-94121842D01*
X233251316Y-94121842D02*
X233251316Y-94228985D01*
X233251316Y-94228985D02*
X233287030Y-94371842D01*
X233287030Y-94371842D02*
X233322744Y-94443271D01*
X233322744Y-94443271D02*
X233394173Y-94514700D01*
X233394173Y-94514700D02*
X233501316Y-94550414D01*
X233501316Y-94550414D02*
X233679887Y-94550414D01*
D13*
%TO.C,C30*%
X223975200Y-90767780D02*
X223975200Y-90486620D01*
X224995200Y-90767780D02*
X224995200Y-90486620D01*
D14*
%TO.C,J3*%
X218837800Y-79500600D02*
X218837800Y-86000600D01*
X218838780Y-73750600D02*
X218837800Y-76000600D01*
X231975800Y-88250600D02*
X229737800Y-88250600D01*
X233636820Y-73737900D02*
X218838780Y-73750600D01*
X233637800Y-75500600D02*
X233636820Y-73737900D01*
X233637800Y-86000600D02*
X233637800Y-79500600D01*
D15*
X229660450Y-88985090D02*
G75*
G02*
X229406450Y-88985090I-127000J0D01*
G01*
X229406450Y-88985090D02*
G75*
G02*
X229660450Y-88985090I127000J0D01*
G01*
D13*
%TO.C,R28*%
X226975400Y-90116079D02*
X226975400Y-90451321D01*
X227735400Y-90116079D02*
X227735400Y-90451321D01*
D16*
%TO.C,J5*%
X141998000Y-76921400D02*
X141998000Y-100921400D01*
X144998000Y-103921400D02*
X203998000Y-103921400D01*
X187248000Y-73921400D02*
X178898000Y-73921400D01*
X199848000Y-73921400D02*
X191498000Y-73921400D01*
X203998000Y-73921400D02*
X144998000Y-73921400D01*
X206998000Y-100921400D02*
X206998000Y-76921400D01*
X141998000Y-76921400D02*
G75*
G02*
X144998000Y-73921400I3000001J-1D01*
G01*
X144998000Y-103921400D02*
G75*
G02*
X141998000Y-100921400I1J3000001D01*
G01*
X203998000Y-73921400D02*
G75*
G02*
X206998000Y-76921400I0J-3000000D01*
G01*
X206998000Y-100921400D02*
G75*
G02*
X203998000Y-103921400I-3000000J0D01*
G01*
D11*
X150468000Y-96611400D02*
G75*
G02*
X150268000Y-96611400I-100000J0D01*
G01*
X150268000Y-96611400D02*
G75*
G02*
X150468000Y-96611400I100000J0D01*
G01*
D13*
%TO.C,R30*%
X222327200Y-91678779D02*
X222327200Y-92014021D01*
X223087200Y-91678779D02*
X223087200Y-92014021D01*
%TO.C,R26*%
X228067600Y-90116079D02*
X228067600Y-90451321D01*
X228827600Y-90116079D02*
X228827600Y-90451321D01*
%TO.C,R33*%
X220168200Y-90116079D02*
X220168200Y-90451321D01*
X220928200Y-90116079D02*
X220928200Y-90451321D01*
%TO.C,R31*%
X221235000Y-90117279D02*
X221235000Y-90452521D01*
X221995000Y-90117279D02*
X221995000Y-90452521D01*
D16*
%TO.C,BT1*%
X142211200Y-113639600D02*
X143481200Y-113639600D01*
X142846200Y-114274600D02*
X142846200Y-113004600D01*
X145995200Y-110139600D02*
X145995200Y-111219600D01*
X145995200Y-116059600D02*
X145995200Y-117139600D01*
X145995200Y-117139600D02*
X149195200Y-117139600D01*
X149195200Y-107039600D02*
X150595200Y-105639600D01*
X149195200Y-110139600D02*
X145995200Y-110139600D01*
X149195200Y-110139600D02*
X149195200Y-107039600D01*
X149195200Y-121639600D02*
X149195200Y-117139600D01*
X150595200Y-105639600D02*
X171295200Y-105639600D01*
X171295200Y-105639600D02*
X171295200Y-110139600D01*
X171295200Y-117139600D02*
X171295200Y-121639600D01*
X171295200Y-117139600D02*
X174495200Y-117139600D01*
X171295200Y-121639600D02*
X149195200Y-121639600D01*
X174495200Y-110139600D02*
X171295200Y-110139600D01*
X174495200Y-111219600D02*
X174495200Y-110139600D01*
X174495200Y-116059600D02*
X174495200Y-117139600D01*
X178279200Y-113639600D02*
X177009200Y-113639600D01*
%TD*%
M02*
