%TF.GenerationSoftware,KiCad,Pcbnew,8.0.3*%
%TF.CreationDate,2024-07-04T12:22:57-04:00*%
%TF.ProjectId,vfd-tool,7666642d-746f-46f6-9c2e-6b696361645f,rev?*%
%TF.SameCoordinates,Original*%
%TF.FileFunction,Copper,L1,Top*%
%TF.FilePolarity,Positive*%
%FSLAX46Y46*%
G04 Gerber Fmt 4.6, Leading zero omitted, Abs format (unit mm)*
G04 Created by KiCad (PCBNEW 8.0.3) date 2024-07-04 12:22:57*
%MOMM*%
%LPD*%
G01*
G04 APERTURE LIST*
G04 Aperture macros list*
%AMRoundRect*
0 Rectangle with rounded corners*
0 $1 Rounding radius*
0 $2 $3 $4 $5 $6 $7 $8 $9 X,Y pos of 4 corners*
0 Add a 4 corners polygon primitive as box body*
4,1,4,$2,$3,$4,$5,$6,$7,$8,$9,$2,$3,0*
0 Add four circle primitives for the rounded corners*
1,1,$1+$1,$2,$3*
1,1,$1+$1,$4,$5*
1,1,$1+$1,$6,$7*
1,1,$1+$1,$8,$9*
0 Add four rect primitives between the rounded corners*
20,1,$1+$1,$2,$3,$4,$5,0*
20,1,$1+$1,$4,$5,$6,$7,0*
20,1,$1+$1,$6,$7,$8,$9,0*
20,1,$1+$1,$8,$9,$2,$3,0*%
%AMFreePoly0*
4,1,6,1.000000,0.000000,0.500000,-0.750000,-0.500000,-0.750000,-0.500000,0.750000,0.500000,0.750000,1.000000,0.000000,1.000000,0.000000,$1*%
%AMFreePoly1*
4,1,7,0.700000,0.000000,1.200000,-0.750000,-1.200000,-0.750000,-0.700000,0.000000,-1.200000,0.750000,1.200000,0.750000,0.700000,0.000000,0.700000,0.000000,$1*%
%AMFreePoly2*
4,1,106,0.281690,0.645010,0.308711,0.643049,0.335054,0.639462,0.360664,0.634235,0.385484,0.627351,0.409458,0.618795,0.432531,0.608554,0.454648,0.596610,0.475753,0.582950,0.495790,0.567556,0.514703,0.550414,0.532232,0.531737,0.548158,0.511781,0.562494,0.490607,0.575250,0.468274,0.586437,0.444840,0.596067,0.420365,0.604151,0.394906,0.610701,0.368525,0.619238,0.313228,
0.621771,0.254945,0.618387,0.194147,0.609178,0.131307,0.594232,0.066897,0.573639,0.001388,0.547489,-0.064749,0.515870,-0.131040,0.478873,-0.197015,0.436588,-0.262201,0.389102,-0.326126,0.336508,-0.388319,0.336509,-0.388317,0.308657,-0.418262,0.280258,-0.446916,0.251369,-0.474265,0.222043,-0.500294,0.192337,-0.524986,0.162308,-0.548326,0.132009,-0.570302,0.101499,-0.590896,
0.070830,-0.610092,0.040060,-0.627876,0.009245,-0.644233,-0.021561,-0.659148,-0.052301,-0.672604,-0.082919,-0.684587,-0.113362,-0.695082,-0.143571,-0.704073,-0.173492,-0.711545,-0.203068,-0.717483,-0.232245,-0.721872,-0.260967,-0.724697,-0.289177,-0.725941,-0.316822,-0.725590,-0.343843,-0.723628,-0.370186,-0.720042,-0.395795,-0.714814,-0.420615,-0.707930,-0.444589,-0.699375,-0.467663,-0.689133,
-0.489780,-0.677190,-0.510885,-0.663528,-0.530922,-0.648135,-0.549835,-0.630994,-0.567363,-0.612317,-0.583289,-0.592361,-0.597624,-0.571188,-0.610379,-0.548855,-0.621567,-0.525421,-0.631197,-0.500946,-0.639280,-0.475488,-0.645829,-0.449108,-0.654366,-0.393811,-0.656898,-0.335528,-0.653514,-0.274730,-0.644305,-0.211891,-0.629358,-0.147480,-0.608765,-0.081971,-0.582614,-0.015835,-0.550996,0.050455,
-0.514000,0.116431,-0.471714,0.181616,-0.424229,0.245541,-0.371634,0.307733,-0.343783,0.337678,-0.315386,0.366332,-0.286496,0.393682,-0.257171,0.419710,-0.227466,0.444403,-0.197437,0.467744,-0.167139,0.489720,-0.136628,0.510313,-0.105960,0.529510,-0.075190,0.547294,-0.044375,0.563652,-0.013570,0.578566,0.017169,0.592022,0.047788,0.604006,0.078230,0.614501,0.108439,0.623492,
0.138360,0.630965,0.167937,0.636902,0.197113,0.641292,0.225836,0.644116,0.254046,0.645360,0.281690,0.645010,0.281690,0.645010,$1*%
%AMFreePoly3*
4,1,109,0.162500,0.478125,0.189442,0.476693,0.215847,0.474164,0.241671,0.470553,0.266874,0.465875,0.291412,0.460146,0.315245,0.453381,0.338330,0.445595,0.360625,0.436804,0.382089,0.427023,0.402678,0.416268,0.422351,0.404553,0.441066,0.391894,0.458781,0.378307,0.475454,0.363807,0.491042,0.348408,0.505505,0.332128,0.518799,0.314980,0.530884,0.296981,0.541715,0.278145,
0.551253,0.258489,0.559454,0.238026,0.566277,0.216773,0.571679,0.194746,0.575577,0.172228,0.577932,0.149519,0.578775,0.126659,0.578136,0.103687,0.576049,0.080642,0.572539,0.057563,0.567643,0.034489,0.561386,0.011458,0.553803,-0.011489,0.544922,-0.034314,0.534775,-0.056977,0.523391,-0.079440,0.497041,-0.123611,0.466116,-0.166513,0.430862,-0.207832,0.391523,-0.247258,
0.348346,-0.284477,0.301576,-0.319179,0.251459,-0.351051,0.198240,-0.379779,0.142163,-0.405052,0.083475,-0.426558,0.053584,-0.435693,0.023853,-0.443593,-0.005679,-0.450273,-0.034965,-0.455748,-0.063966,-0.460033,-0.092639,-0.463144,-0.120943,-0.465097,-0.148834,-0.465906,-0.176273,-0.465587,-0.203216,-0.464156,-0.229620,-0.461627,-0.255445,-0.458017,-0.280648,-0.453339,-0.305187,-0.447609,
-0.329020,-0.440844,-0.352105,-0.433059,-0.374400,-0.424268,-0.395863,-0.414487,-0.416452,-0.403732,-0.436126,-0.392017,-0.454840,-0.379359,-0.472555,-0.365772,-0.489228,-0.351272,-0.504816,-0.335874,-0.519279,-0.319593,-0.532572,-0.302446,-0.544656,-0.284446,-0.555486,-0.265611,-0.565024,-0.245954,-0.573225,-0.225491,-0.580047,-0.204239,-0.585448,-0.182211,-0.589346,-0.159693,-0.591701,-0.136984,
-0.592543,-0.114124,-0.591905,-0.091152,-0.589817,-0.068106,-0.586309,-0.045027,-0.581411,-0.021954,-0.575155,0.001077,-0.567571,0.024024,-0.558691,0.046849,-0.548543,0.069512,-0.537160,0.091976,-0.510810,0.136146,-0.479885,0.179048,-0.444630,0.220367,-0.405292,0.259793,-0.362115,0.297013,-0.315345,0.331714,-0.265228,0.363586,-0.212008,0.392314,-0.155931,0.417587,-0.097244,0.439093,
-0.067353,0.448229,-0.037622,0.456129,-0.008092,0.462810,0.021194,0.468285,0.050195,0.472571,0.078868,0.475682,0.107171,0.477634,0.135062,0.478444,0.162500,0.478125,0.162500,0.478125,$1*%
%AMFreePoly4*
4,1,105,0.105507,0.755671,0.130767,0.753576,0.155884,0.749420,0.180526,0.743241,0.204374,0.735140,0.227407,0.725168,0.249608,0.713384,0.270957,0.699841,0.291435,0.684596,0.311024,0.667703,0.329706,0.649218,0.347460,0.629195,0.364267,0.607690,0.380110,0.584758,0.394969,0.560454,0.408826,0.534834,0.421660,0.507952,0.433454,0.479864,0.444189,0.450624,0.453845,0.420289,
0.462405,0.388912,0.469848,0.356550,0.476156,0.323258,0.481311,0.289090,0.485294,0.254103,0.488084,0.218350,0.489664,0.181888,0.490014,0.144771,0.489116,0.107055,0.486952,0.068795,0.483502,0.030045,0.478746,-0.009138,0.472666,-0.048699,0.465245,-0.088585,0.456461,-0.128739,0.435264,-0.207743,0.409776,-0.283446,0.380334,-0.355508,0.347272,-0.423590,0.310924,-0.487349,
0.271626,-0.546446,0.229712,-0.600541,0.185519,-0.649292,0.139380,-0.692360,0.091630,-0.729404,0.042605,-0.760083,-0.007360,-0.784056,-0.032592,-0.793423,-0.057932,-0.800986,-0.083340,-0.806701,-0.108773,-0.810528,-0.134192,-0.812423,-0.159552,-0.812344,-0.184811,-0.810248,-0.209929,-0.806093,-0.234572,-0.799916,-0.258418,-0.791812,-0.281451,-0.781841,-0.303651,-0.770058,-0.324999,-0.756515,
-0.345477,-0.741270,-0.365067,-0.724377,-0.383747,-0.705892,-0.401501,-0.685870,-0.418307,-0.664364,-0.434151,-0.641432,-0.449009,-0.617128,-0.462866,-0.591507,-0.475700,-0.564626,-0.487494,-0.536537,-0.498228,-0.507298,-0.507885,-0.476962,-0.516444,-0.445586,-0.523888,-0.413223,-0.530196,-0.379931,-0.535351,-0.345763,-0.539333,-0.310775,-0.542123,-0.275023,-0.543704,-0.238560,-0.544055,-0.201442,
-0.543157,-0.163726,-0.540993,-0.125466,-0.537542,-0.086716,-0.532787,-0.047532,-0.526708,-0.007970,-0.519287,0.031917,-0.510503,0.072072,-0.489305,0.151074,-0.463818,0.226776,-0.434375,0.298837,-0.401312,0.366918,-0.364964,0.430676,-0.325665,0.489774,-0.283752,0.543867,-0.239559,0.592618,-0.193419,0.635686,-0.145670,0.672729,-0.096646,0.703409,-0.046680,0.727383,-0.021450,0.736749,
0.003890,0.744311,0.029297,0.750027,0.054731,0.753854,0.080148,0.755749,0.105507,0.755671,0.105507,0.755671,$1*%
%AMFreePoly5*
4,1,89,0.008167,0.589688,0.043252,0.586724,0.078535,0.581622,0.114060,0.574255,0.149874,0.564497,0.186023,0.552223,0.222549,0.537307,0.259503,0.519623,0.277667,0.509715,0.295189,0.499493,0.312087,0.488959,0.328374,0.478119,0.344069,0.466976,0.359185,0.455536,0.387751,0.431780,0.414196,0.406887,0.438652,0.380892,0.461246,0.353831,0.482103,0.325739,0.501354,0.296651,
0.519125,0.266605,0.535545,0.235635,0.550741,0.203776,0.564841,0.171066,0.577973,0.137538,0.590265,0.103230,0.601845,0.068175,0.612416,0.033593,0.622384,-0.001488,0.641003,-0.072874,0.676430,-0.218598,0.695211,-0.291829,0.705300,-0.328295,0.716020,-0.364568,0.727492,-0.400581,0.739843,-0.436262,0.753193,-0.471544,0.767667,-0.506357,0.706996,-0.524756,0.645641,-0.540835,
0.583717,-0.554478,0.521344,-0.565572,0.458638,-0.573999,0.395715,-0.579647,0.332694,-0.582399,0.269690,-0.582141,0.206821,-0.578757,0.144206,-0.572131,0.081958,-0.562151,0.020197,-0.548700,-0.040962,-0.531663,-0.101400,-0.510925,-0.161000,-0.486371,-0.219647,-0.457886,-0.278456,-0.425080,-0.334420,-0.389032,-0.387569,-0.349918,-0.437934,-0.307920,-0.485543,-0.263217,-0.530424,-0.215989,
-0.572606,-0.166416,-0.612116,-0.114679,-0.648985,-0.060955,-0.683241,-0.005426,-0.714914,0.051728,-0.744031,0.110328,-0.770621,0.170194,-0.794711,0.231146,-0.816336,0.293004,-0.835518,0.355589,-0.801212,0.364270,-0.767123,0.373875,-0.733238,0.384288,-0.699547,0.395394,-0.632697,0.419225,-0.566486,0.444449,-0.435613,0.495395,-0.370768,0.519277,-0.338455,0.530419,-0.306199,0.540873,
-0.270848,0.551497,-0.235708,0.561114,-0.200734,0.569599,-0.165881,0.576826,-0.131103,0.582670,-0.096355,0.587004,-0.061590,0.589701,-0.026765,0.590638,0.008167,0.589688,0.008167,0.589688,$1*%
%AMFreePoly6*
4,1,109,-0.020660,0.617761,0.000903,0.615104,0.022387,0.611015,0.043751,0.605520,0.064965,0.598644,0.085989,0.590413,0.106787,0.580855,0.127320,0.569993,0.147555,0.557855,0.167454,0.544466,0.186980,0.529853,0.206098,0.514040,0.224770,0.497056,0.242961,0.478922,0.260632,0.459669,0.277750,0.439321,0.294275,0.417903,0.310172,0.395443,0.325405,0.371964,0.339938,0.347495,
0.353732,0.322060,0.366752,0.295686,0.378962,0.268398,0.390325,0.240223,0.400804,0.211186,0.410363,0.181313,0.426212,0.120626,0.437491,0.059948,0.444313,-0.000343,0.446796,-0.059863,0.445055,-0.118234,0.439206,-0.175075,0.429364,-0.230007,0.415645,-0.282646,0.398165,-0.332615,0.377039,-0.379531,0.365145,-0.401726,0.352384,-0.423015,0.338768,-0.443352,0.324314,-0.462686,
0.309035,-0.480973,0.292946,-0.498165,0.276061,-0.514212,0.258396,-0.529070,0.239963,-0.542687,0.220778,-0.555020,0.200854,-0.566018,0.180209,-0.575636,0.159106,-0.583730,0.137827,-0.590212,0.116410,-0.595106,0.094891,-0.598437,0.073306,-0.600233,0.051692,-0.600519,0.030084,-0.599319,0.008521,-0.596663,-0.012961,-0.592573,-0.034327,-0.587079,-0.055540,-0.580203,-0.076563,-0.571973,
-0.097359,-0.562414,-0.117895,-0.551553,-0.138127,-0.539416,-0.158027,-0.526026,-0.177554,-0.511413,-0.196671,-0.495601,-0.215343,-0.478616,-0.233533,-0.460484,-0.251204,-0.441231,-0.268322,-0.420883,-0.284846,-0.399466,-0.300744,-0.377005,-0.315977,-0.353527,-0.330508,-0.329058,-0.344303,-0.303624,-0.357323,-0.277250,-0.369533,-0.249963,-0.380896,-0.221787,-0.391376,-0.192752,-0.400934,-0.162878,
-0.416783,-0.102190,-0.428061,-0.041512,-0.434884,0.018779,-0.437367,0.078301,-0.435627,0.136673,-0.429778,0.193515,-0.419937,0.248446,-0.406218,0.301086,-0.388738,0.351055,-0.367614,0.397972,-0.355720,0.420167,-0.342960,0.441457,-0.329343,0.461792,-0.314889,0.481128,-0.299610,0.499415,-0.283521,0.516607,-0.266637,0.532654,-0.248972,0.547511,-0.230539,0.561129,-0.211354,0.573461,
-0.191431,0.584460,-0.170785,0.594077,-0.149682,0.602172,-0.128403,0.608653,-0.106987,0.613547,-0.085467,0.616879,-0.063882,0.618674,-0.042268,0.618960,-0.020660,0.617761,-0.020660,0.617761,$1*%
%AMFreePoly7*
4,1,145,-1.494870,1.382005,-1.460095,1.377927,-1.426678,1.370878,-1.394463,1.361032,-1.363291,1.348557,-1.333009,1.333625,-1.303460,1.316407,-1.274487,1.297073,-1.245934,1.275793,-1.189466,1.228081,-0.949158,0.993563,-0.879224,0.930844,-0.802847,0.869218,-0.761852,0.839242,-0.718779,0.810051,-0.673470,0.781818,-0.625768,0.754711,-0.590477,0.736339,-0.540910,0.712812,-0.491790,0.691888,
-0.443167,0.673344,-0.395090,0.656953,-0.347610,0.642488,-0.300779,0.629724,-0.209259,0.608396,0.120842,0.545978,0.192357,0.527066,0.226187,0.515872,0.258663,0.503217,0.289737,0.488877,0.319355,0.472627,0.347472,0.454239,0.374032,0.433488,0.398989,0.410149,0.422289,0.383995,0.443885,0.354801,0.463726,0.322341,0.481759,0.286390,0.497936,0.246722,0.512206,0.203109,
0.524518,0.155328,0.529805,0.125939,0.532533,0.095964,0.532760,0.065464,0.530547,0.034497,0.525955,0.003121,0.519045,-0.028604,0.509873,-0.060620,0.498504,-0.092866,0.469408,-0.157820,0.432238,-0.222996,0.387476,-0.287922,0.335603,-0.352127,0.277102,-0.415143,0.212452,-0.476497,0.142136,-0.535721,0.066635,-0.592342,-0.013569,-0.645890,-0.097995,-0.695896,-0.186162,-0.741887,
-0.277588,-0.783394,-0.290363,-0.753241,-0.302283,-0.722037,-0.313460,-0.689854,-0.324007,-0.656769,-0.343655,-0.588191,-0.362123,-0.516897,-0.399112,-0.368552,-0.419425,-0.292695,-0.430428,-0.254606,-0.442145,-0.216510,-0.454986,-0.177868,-0.469004,-0.139305,-0.484321,-0.100944,-0.501060,-0.062908,-0.519342,-0.025319,-0.539290,0.011699,-0.561025,0.048025,-0.584671,0.083534,-0.610348,0.118105,
-0.638179,0.151613,-0.668287,0.183938,-0.700793,0.214955,-0.735819,0.244542,-0.773487,0.272576,-0.813919,0.298935,-0.857239,0.323494,-0.879740,0.334627,-0.902198,0.344890,-0.924609,0.354301,-0.946967,0.362884,-0.969270,0.370658,-0.991514,0.377648,-1.013695,0.383873,-1.035811,0.389354,-1.079827,0.398172,-1.123536,0.404274,-1.166906,0.407831,-1.209909,0.409013,-1.252516,0.407992,
-1.294698,0.404940,-1.336423,0.400026,-1.377665,0.393424,-1.418393,0.385303,-1.458578,0.375835,-1.498192,0.365191,-1.537205,0.353542,-1.572232,0.342253,-1.606906,0.330462,-1.675196,0.305790,-1.807634,0.255063,-1.871824,0.230702,-1.934689,0.208138,-1.965631,0.197795,-1.996251,0.188220,-2.026548,0.179517,-2.056529,0.171793,-2.072826,0.268486,-2.083838,0.364889,-2.089669,0.460375,
-2.090422,0.554324,-2.086198,0.646109,-2.077101,0.735108,-2.063234,0.820695,-2.044701,0.902248,-2.021604,0.979144,-1.994046,1.050756,-1.978626,1.084387,-1.962129,1.116463,-1.944569,1.146906,-1.925958,1.175639,-1.906309,1.202583,-1.885634,1.227661,-1.863948,1.250796,-1.841261,1.271907,-1.817588,1.290919,-1.792942,1.307750,-1.767335,1.322326,-1.740780,1.334567,-1.694578,1.351888,
-1.650671,1.365216,-1.608903,1.374720,-1.569119,1.380573,-1.531160,1.382945,-1.494870,1.382005,-1.494870,1.382005,$1*%
%AMFreePoly8*
4,1,6,0.500000,-0.750000,-0.650000,-0.750000,-0.150000,0.000000,-0.650000,0.750000,0.500000,0.750000,0.500000,-0.750000,0.500000,-0.750000,$1*%
G04 Aperture macros list end*
%TA.AperFunction,SMDPad,CuDef*%
%ADD10RoundRect,0.160000X-0.197500X-0.160000X0.197500X-0.160000X0.197500X0.160000X-0.197500X0.160000X0*%
%TD*%
%TA.AperFunction,SMDPad,CuDef*%
%ADD11RoundRect,0.155000X0.212500X0.155000X-0.212500X0.155000X-0.212500X-0.155000X0.212500X-0.155000X0*%
%TD*%
%TA.AperFunction,SMDPad,CuDef*%
%ADD12RoundRect,0.160000X-0.160000X0.197500X-0.160000X-0.197500X0.160000X-0.197500X0.160000X0.197500X0*%
%TD*%
%TA.AperFunction,SMDPad,CuDef*%
%ADD13RoundRect,0.237500X0.237500X-0.287500X0.237500X0.287500X-0.237500X0.287500X-0.237500X-0.287500X0*%
%TD*%
%TA.AperFunction,SMDPad,CuDef*%
%ADD14RoundRect,0.112500X-0.187500X-0.112500X0.187500X-0.112500X0.187500X0.112500X-0.187500X0.112500X0*%
%TD*%
%TA.AperFunction,SMDPad,CuDef*%
%ADD15RoundRect,0.155000X-0.155000X0.212500X-0.155000X-0.212500X0.155000X-0.212500X0.155000X0.212500X0*%
%TD*%
%TA.AperFunction,SMDPad,CuDef*%
%ADD16RoundRect,0.250000X0.250000X0.475000X-0.250000X0.475000X-0.250000X-0.475000X0.250000X-0.475000X0*%
%TD*%
%TA.AperFunction,SMDPad,CuDef*%
%ADD17RoundRect,0.155000X-0.212500X-0.155000X0.212500X-0.155000X0.212500X0.155000X-0.212500X0.155000X0*%
%TD*%
%TA.AperFunction,SMDPad,CuDef*%
%ADD18RoundRect,0.225000X0.225000X0.250000X-0.225000X0.250000X-0.225000X-0.250000X0.225000X-0.250000X0*%
%TD*%
%TA.AperFunction,SMDPad,CuDef*%
%ADD19RoundRect,0.160000X0.197500X0.160000X-0.197500X0.160000X-0.197500X-0.160000X0.197500X-0.160000X0*%
%TD*%
%TA.AperFunction,SMDPad,CuDef*%
%ADD20RoundRect,0.135000X0.135000X0.185000X-0.135000X0.185000X-0.135000X-0.185000X0.135000X-0.185000X0*%
%TD*%
%TA.AperFunction,SMDPad,CuDef*%
%ADD21RoundRect,0.150000X0.150000X-0.650000X0.150000X0.650000X-0.150000X0.650000X-0.150000X-0.650000X0*%
%TD*%
%TA.AperFunction,SMDPad,CuDef*%
%ADD22R,3.500000X2.350000*%
%TD*%
%TA.AperFunction,SMDPad,CuDef*%
%ADD23FreePoly0,180.000000*%
%TD*%
%TA.AperFunction,SMDPad,CuDef*%
%ADD24FreePoly1,180.000000*%
%TD*%
%TA.AperFunction,SMDPad,CuDef*%
%ADD25FreePoly0,0.000000*%
%TD*%
%TA.AperFunction,SMDPad,CuDef*%
%ADD26RoundRect,0.140000X0.170000X-0.140000X0.170000X0.140000X-0.170000X0.140000X-0.170000X-0.140000X0*%
%TD*%
%TA.AperFunction,SMDPad,CuDef*%
%ADD27RoundRect,0.135000X0.185000X-0.135000X0.185000X0.135000X-0.185000X0.135000X-0.185000X-0.135000X0*%
%TD*%
%TA.AperFunction,SMDPad,CuDef*%
%ADD28C,1.000000*%
%TD*%
%TA.AperFunction,SMDPad,CuDef*%
%ADD29RoundRect,0.250000X-0.250000X0.250000X-0.250000X-0.250000X0.250000X-0.250000X0.250000X0.250000X0*%
%TD*%
%TA.AperFunction,ComponentPad*%
%ADD30R,1.000000X1.000000*%
%TD*%
%TA.AperFunction,ComponentPad*%
%ADD31O,1.000000X1.000000*%
%TD*%
%TA.AperFunction,ConnectorPad*%
%ADD32FreePoly2,207.500000*%
%TD*%
%TA.AperFunction,ConnectorPad*%
%ADD33FreePoly3,207.500000*%
%TD*%
%TA.AperFunction,ConnectorPad*%
%ADD34FreePoly4,207.500000*%
%TD*%
%TA.AperFunction,ConnectorPad*%
%ADD35FreePoly5,207.500000*%
%TD*%
%TA.AperFunction,ConnectorPad*%
%ADD36FreePoly6,207.500000*%
%TD*%
%TA.AperFunction,ConnectorPad*%
%ADD37FreePoly7,207.500000*%
%TD*%
%TA.AperFunction,SMDPad,CuDef*%
%ADD38RoundRect,0.250000X0.475000X-0.250000X0.475000X0.250000X-0.475000X0.250000X-0.475000X-0.250000X0*%
%TD*%
%TA.AperFunction,SMDPad,CuDef*%
%ADD39RoundRect,0.225000X-0.250000X0.225000X-0.250000X-0.225000X0.250000X-0.225000X0.250000X0.225000X0*%
%TD*%
%TA.AperFunction,SMDPad,CuDef*%
%ADD40RoundRect,0.250000X-2.500000X0.250000X-2.500000X-0.250000X2.500000X-0.250000X2.500000X0.250000X0*%
%TD*%
%TA.AperFunction,SMDPad,CuDef*%
%ADD41RoundRect,0.250000X-1.250000X0.550000X-1.250000X-0.550000X1.250000X-0.550000X1.250000X0.550000X0*%
%TD*%
%TA.AperFunction,SMDPad,CuDef*%
%ADD42R,1.700000X0.900000*%
%TD*%
%TA.AperFunction,SMDPad,CuDef*%
%ADD43RoundRect,0.218750X0.256250X-0.218750X0.256250X0.218750X-0.256250X0.218750X-0.256250X-0.218750X0*%
%TD*%
%TA.AperFunction,SMDPad,CuDef*%
%ADD44RoundRect,0.062500X-0.325000X-0.062500X0.325000X-0.062500X0.325000X0.062500X-0.325000X0.062500X0*%
%TD*%
%TA.AperFunction,HeatsinkPad*%
%ADD45R,0.600000X1.200000*%
%TD*%
%TA.AperFunction,SMDPad,CuDef*%
%ADD46R,2.350000X3.500000*%
%TD*%
%TA.AperFunction,SMDPad,CuDef*%
%ADD47RoundRect,0.250000X-0.450000X-0.800000X0.450000X-0.800000X0.450000X0.800000X-0.450000X0.800000X0*%
%TD*%
%TA.AperFunction,SMDPad,CuDef*%
%ADD48RoundRect,0.140000X-0.140000X-0.170000X0.140000X-0.170000X0.140000X0.170000X-0.140000X0.170000X0*%
%TD*%
%TA.AperFunction,SMDPad,CuDef*%
%ADD49RoundRect,0.218750X-0.256250X0.218750X-0.256250X-0.218750X0.256250X-0.218750X0.256250X0.218750X0*%
%TD*%
%TA.AperFunction,SMDPad,CuDef*%
%ADD50RoundRect,0.155000X0.155000X-0.212500X0.155000X0.212500X-0.155000X0.212500X-0.155000X-0.212500X0*%
%TD*%
%TA.AperFunction,SMDPad,CuDef*%
%ADD51C,3.000000*%
%TD*%
%TA.AperFunction,SMDPad,CuDef*%
%ADD52RoundRect,0.225000X0.250000X-0.225000X0.250000X0.225000X-0.250000X0.225000X-0.250000X-0.225000X0*%
%TD*%
%TA.AperFunction,SMDPad,CuDef*%
%ADD53RoundRect,0.140000X0.140000X0.170000X-0.140000X0.170000X-0.140000X-0.170000X0.140000X-0.170000X0*%
%TD*%
%TA.AperFunction,SMDPad,CuDef*%
%ADD54RoundRect,0.160000X0.160000X-0.197500X0.160000X0.197500X-0.160000X0.197500X-0.160000X-0.197500X0*%
%TD*%
%TA.AperFunction,SMDPad,CuDef*%
%ADD55RoundRect,0.150000X0.150000X-0.512500X0.150000X0.512500X-0.150000X0.512500X-0.150000X-0.512500X0*%
%TD*%
%TA.AperFunction,SMDPad,CuDef*%
%ADD56RoundRect,0.237500X0.300000X0.237500X-0.300000X0.237500X-0.300000X-0.237500X0.300000X-0.237500X0*%
%TD*%
%TA.AperFunction,SMDPad,CuDef*%
%ADD57R,0.700000X0.700000*%
%TD*%
%TA.AperFunction,SMDPad,CuDef*%
%ADD58RoundRect,0.009100X-0.120900X-0.540900X0.120900X-0.540900X0.120900X0.540900X-0.120900X0.540900X0*%
%TD*%
%TA.AperFunction,SMDPad,CuDef*%
%ADD59RoundRect,0.009100X0.540900X-0.120900X0.540900X0.120900X-0.540900X0.120900X-0.540900X-0.120900X0*%
%TD*%
%TA.AperFunction,SMDPad,CuDef*%
%ADD60RoundRect,0.009100X0.120900X0.540900X-0.120900X0.540900X-0.120900X-0.540900X0.120900X-0.540900X0*%
%TD*%
%TA.AperFunction,SMDPad,CuDef*%
%ADD61RoundRect,0.009100X-0.540900X0.120900X-0.540900X-0.120900X0.540900X-0.120900X0.540900X0.120900X0*%
%TD*%
%TA.AperFunction,SMDPad,CuDef*%
%ADD62R,3.700000X3.700000*%
%TD*%
%TA.AperFunction,SMDPad,CuDef*%
%ADD63RoundRect,0.250000X0.800000X-0.450000X0.800000X0.450000X-0.800000X0.450000X-0.800000X-0.450000X0*%
%TD*%
%TA.AperFunction,SMDPad,CuDef*%
%ADD64R,1.200000X1.400000*%
%TD*%
%TA.AperFunction,SMDPad,CuDef*%
%ADD65RoundRect,0.062500X0.375000X0.062500X-0.375000X0.062500X-0.375000X-0.062500X0.375000X-0.062500X0*%
%TD*%
%TA.AperFunction,SMDPad,CuDef*%
%ADD66RoundRect,0.062500X0.062500X0.375000X-0.062500X0.375000X-0.062500X-0.375000X0.062500X-0.375000X0*%
%TD*%
%TA.AperFunction,HeatsinkPad*%
%ADD67R,1.600000X1.600000*%
%TD*%
%TA.AperFunction,SMDPad,CuDef*%
%ADD68R,1.400000X1.200000*%
%TD*%
%TA.AperFunction,SMDPad,CuDef*%
%ADD69RoundRect,0.237500X-0.300000X-0.237500X0.300000X-0.237500X0.300000X0.237500X-0.300000X0.237500X0*%
%TD*%
%TA.AperFunction,SMDPad,CuDef*%
%ADD70RoundRect,0.200000X0.275000X-0.200000X0.275000X0.200000X-0.275000X0.200000X-0.275000X-0.200000X0*%
%TD*%
%TA.AperFunction,SMDPad,CuDef*%
%ADD71FreePoly0,90.000000*%
%TD*%
%TA.AperFunction,SMDPad,CuDef*%
%ADD72FreePoly8,90.000000*%
%TD*%
%TA.AperFunction,SMDPad,CuDef*%
%ADD73R,0.900000X1.700000*%
%TD*%
%TA.AperFunction,SMDPad,CuDef*%
%ADD74RoundRect,0.150000X-0.512500X-0.150000X0.512500X-0.150000X0.512500X0.150000X-0.512500X0.150000X0*%
%TD*%
%TA.AperFunction,SMDPad,CuDef*%
%ADD75RoundRect,0.225000X-0.225000X-0.250000X0.225000X-0.250000X0.225000X0.250000X-0.225000X0.250000X0*%
%TD*%
%TA.AperFunction,SMDPad,CuDef*%
%ADD76RoundRect,0.135000X-0.135000X-0.185000X0.135000X-0.185000X0.135000X0.185000X-0.135000X0.185000X0*%
%TD*%
%TA.AperFunction,SMDPad,CuDef*%
%ADD77RoundRect,0.135000X-0.185000X0.135000X-0.185000X-0.135000X0.185000X-0.135000X0.185000X0.135000X0*%
%TD*%
%TA.AperFunction,SMDPad,CuDef*%
%ADD78RoundRect,0.250000X-0.475000X0.250000X-0.475000X-0.250000X0.475000X-0.250000X0.475000X0.250000X0*%
%TD*%
%TA.AperFunction,SMDPad,CuDef*%
%ADD79RoundRect,0.150000X-0.825000X-0.150000X0.825000X-0.150000X0.825000X0.150000X-0.825000X0.150000X0*%
%TD*%
%TA.AperFunction,SMDPad,CuDef*%
%ADD80R,0.700000X0.300000*%
%TD*%
%TA.AperFunction,SMDPad,CuDef*%
%ADD81R,1.000000X0.300000*%
%TD*%
%TA.AperFunction,SMDPad,CuDef*%
%ADD82RoundRect,0.050000X0.050000X-0.387500X0.050000X0.387500X-0.050000X0.387500X-0.050000X-0.387500X0*%
%TD*%
%TA.AperFunction,SMDPad,CuDef*%
%ADD83RoundRect,0.050000X0.387500X-0.050000X0.387500X0.050000X-0.387500X0.050000X-0.387500X-0.050000X0*%
%TD*%
%TA.AperFunction,HeatsinkPad*%
%ADD84R,3.200000X3.200000*%
%TD*%
%TA.AperFunction,SMDPad,CuDef*%
%ADD85R,1.000000X1.800000*%
%TD*%
%TA.AperFunction,SMDPad,CuDef*%
%ADD86R,1.240000X0.600000*%
%TD*%
%TA.AperFunction,SMDPad,CuDef*%
%ADD87R,1.240000X0.300000*%
%TD*%
%TA.AperFunction,ComponentPad*%
%ADD88O,2.100000X1.000000*%
%TD*%
%TA.AperFunction,ComponentPad*%
%ADD89O,1.800000X1.000000*%
%TD*%
%TA.AperFunction,SMDPad,CuDef*%
%ADD90RoundRect,0.062500X-0.275000X-0.062500X0.275000X-0.062500X0.275000X0.062500X-0.275000X0.062500X0*%
%TD*%
%TA.AperFunction,SMDPad,CuDef*%
%ADD91RoundRect,0.062500X-0.062500X-0.275000X0.062500X-0.275000X0.062500X0.275000X-0.062500X0.275000X0*%
%TD*%
%TA.AperFunction,HeatsinkPad*%
%ADD92R,1.450000X1.450000*%
%TD*%
%TA.AperFunction,SMDPad,CuDef*%
%ADD93RoundRect,0.150000X0.150000X-0.825000X0.150000X0.825000X-0.150000X0.825000X-0.150000X-0.825000X0*%
%TD*%
%TA.AperFunction,SMDPad,CuDef*%
%ADD94RoundRect,0.250000X1.000000X-1.400000X1.000000X1.400000X-1.000000X1.400000X-1.000000X-1.400000X0*%
%TD*%
%TA.AperFunction,SMDPad,CuDef*%
%ADD95RoundRect,0.160000X-0.160000X0.222500X-0.160000X-0.222500X0.160000X-0.222500X0.160000X0.222500X0*%
%TD*%
%TA.AperFunction,SMDPad,CuDef*%
%ADD96RoundRect,0.237500X-0.237500X0.300000X-0.237500X-0.300000X0.237500X-0.300000X0.237500X0.300000X0*%
%TD*%
%TA.AperFunction,ComponentPad*%
%ADD97R,1.508000X1.508000*%
%TD*%
%TA.AperFunction,ComponentPad*%
%ADD98C,1.508000*%
%TD*%
%TA.AperFunction,ViaPad*%
%ADD99C,0.600000*%
%TD*%
%TA.AperFunction,ViaPad*%
%ADD100C,1.000000*%
%TD*%
%TA.AperFunction,ViaPad*%
%ADD101C,0.500000*%
%TD*%
%TA.AperFunction,Conductor*%
%ADD102C,0.175000*%
%TD*%
%TA.AperFunction,Conductor*%
%ADD103C,0.200000*%
%TD*%
%TA.AperFunction,Conductor*%
%ADD104C,0.500000*%
%TD*%
%TA.AperFunction,Conductor*%
%ADD105C,0.250000*%
%TD*%
%TA.AperFunction,Conductor*%
%ADD106C,1.000000*%
%TD*%
G04 APERTURE END LIST*
D10*
%TO.P,R25,1*%
%TO.N,3V3*%
X218944900Y-99816500D03*
%TO.P,R25,2*%
%TO.N,PD_INT*%
X220139900Y-99816500D03*
%TD*%
D11*
%TO.P,C63,1*%
%TO.N,3V3*%
X226255200Y-77647800D03*
%TO.P,C63,2*%
%TO.N,GND*%
X225120200Y-77647800D03*
%TD*%
D12*
%TO.P,R42,1*%
%TO.N,Net-(U11-ISET)*%
X221823900Y-112592582D03*
%TO.P,R42,2*%
%TO.N,CHRG_CTRL_2*%
X221823900Y-113787582D03*
%TD*%
D10*
%TO.P,R14,1*%
%TO.N,Net-(U2-RBIAS)*%
X203403200Y-80277300D03*
%TO.P,R14,2*%
%TO.N,GND*%
X204598200Y-80277300D03*
%TD*%
D11*
%TO.P,C14,1*%
%TO.N,Net-(U2-CRFILT)*%
X190373000Y-84759800D03*
%TO.P,C14,2*%
%TO.N,GND*%
X189238000Y-84759800D03*
%TD*%
D13*
%TO.P,D11,1,K*%
%TO.N,Net-(D11-K)*%
X220086400Y-106046082D03*
%TO.P,D11,2,A*%
%TO.N,Net-(D11-A)*%
X220086400Y-104296082D03*
%TD*%
D11*
%TO.P,C51,1*%
%TO.N,Net-(U10-COMP)*%
X180797200Y-82600800D03*
%TO.P,C51,2*%
%TO.N,GND*%
X179662200Y-82600800D03*
%TD*%
D14*
%TO.P,D5,1,A1*%
%TO.N,GND*%
X224080400Y-93212500D03*
%TO.P,D5,2,A2*%
%TO.N,VBUS*%
X226180400Y-93212500D03*
%TD*%
D11*
%TO.P,C23,1*%
%TO.N,3V3*%
X219413900Y-79095600D03*
%TO.P,C23,2*%
%TO.N,GND*%
X218278900Y-79095600D03*
%TD*%
D15*
%TO.P,C10,1*%
%TO.N,3V3*%
X200698700Y-88599800D03*
%TO.P,C10,2*%
%TO.N,GND*%
X200698700Y-89734800D03*
%TD*%
D16*
%TO.P,C39,1*%
%TO.N,EXT_PWR*%
X175270200Y-92633800D03*
%TO.P,C39,2*%
%TO.N,GND*%
X173370200Y-92633800D03*
%TD*%
D17*
%TO.P,C6,1*%
%TO.N,Net-(U2-PLLFILT)*%
X201020200Y-80277300D03*
%TO.P,C6,2*%
%TO.N,GND*%
X202155200Y-80277300D03*
%TD*%
D18*
%TO.P,C54,1*%
%TO.N,GND*%
X157799400Y-85645000D03*
%TO.P,C54,2*%
%TO.N,5V*%
X156249400Y-85645000D03*
%TD*%
D15*
%TO.P,C13,1*%
%TO.N,3V3*%
X195339300Y-91649000D03*
%TO.P,C13,2*%
%TO.N,GND*%
X195339300Y-92784000D03*
%TD*%
D19*
%TO.P,R52,1*%
%TO.N,3V3*%
X166834100Y-82659200D03*
%TO.P,R52,2*%
%TO.N,Net-(U7-VFB)*%
X165639100Y-82659200D03*
%TD*%
D20*
%TO.P,R16,1*%
%TO.N,3V3*%
X216691400Y-96901000D03*
%TO.P,R16,2*%
%TO.N,ONEWIRE_DETECT*%
X215671400Y-96901000D03*
%TD*%
D21*
%TO.P,U6,1,~{CS}*%
%TO.N,Net-(U6-~{CS})*%
X211861400Y-89020200D03*
%TO.P,U6,2,DO(IO1)*%
%TO.N,QSPI__SD1*%
X213131400Y-89020200D03*
%TO.P,U6,3,IO2*%
%TO.N,QSPI_SD2*%
X214401400Y-89020200D03*
%TO.P,U6,4,GND*%
%TO.N,GND*%
X215671400Y-89020200D03*
%TO.P,U6,5,DI(IO0)*%
%TO.N,QSPI_SD0*%
X215671400Y-81820200D03*
%TO.P,U6,6,CLK*%
%TO.N,QSPI_SCLK*%
X214401400Y-81820200D03*
%TO.P,U6,7,IO3*%
%TO.N,QSPI_SD3*%
X213131400Y-81820200D03*
%TO.P,U6,8,VCC*%
%TO.N,3V3*%
X211861400Y-81820200D03*
%TD*%
D11*
%TO.P,C56,1*%
%TO.N,Net-(U10-COMP)*%
X180805900Y-83693000D03*
%TO.P,C56,2*%
%TO.N,Net-(C56-Pad2)*%
X179670900Y-83693000D03*
%TD*%
D20*
%TO.P,R56,1*%
%TO.N,Net-(D14-A)*%
X180723000Y-87164800D03*
%TO.P,R56,2*%
%TO.N,Net-(U10-VSENSE)*%
X179703000Y-87164800D03*
%TD*%
D12*
%TO.P,R15,1*%
%TO.N,Net-(U2-CFG_SEL1)*%
X197574500Y-91605700D03*
%TO.P,R15,2*%
%TO.N,GND*%
X197574500Y-92800700D03*
%TD*%
D19*
%TO.P,R23,1*%
%TO.N,Net-(U2-OCS2)*%
X190403000Y-88061800D03*
%TO.P,R23,2*%
%TO.N,3V3*%
X189208000Y-88061800D03*
%TD*%
D11*
%TO.P,C25,1*%
%TO.N,3V3*%
X217569900Y-99435500D03*
%TO.P,C25,2*%
%TO.N,GND*%
X216434900Y-99435500D03*
%TD*%
D22*
%TO.P,L1,1,1*%
%TO.N,Net-(U7-SW)*%
X151281600Y-82634200D03*
%TO.P,L1,2,2*%
%TO.N,3V3*%
X151281600Y-76584200D03*
%TD*%
D11*
%TO.P,C50,1*%
%TO.N,Net-(U8-SW)*%
X166583500Y-89124800D03*
%TO.P,C50,2*%
%TO.N,Net-(U8-VBST)*%
X165448500Y-89124800D03*
%TD*%
D23*
%TO.P,JP3,1,A*%
%TO.N,GND*%
X221659200Y-120954800D03*
D24*
%TO.P,JP3,2,C*%
%TO.N,CHRG_CTRL_2*%
X219659200Y-120954800D03*
D25*
%TO.P,JP3,3,B*%
%TO.N,3V3*%
X217659200Y-120954800D03*
%TD*%
D26*
%TO.P,C33,1*%
%TO.N,CC1*%
X220558400Y-93692500D03*
%TO.P,C33,2*%
%TO.N,GND*%
X220558400Y-92732500D03*
%TD*%
D11*
%TO.P,C49,1*%
%TO.N,Net-(U7-SW)*%
X166751600Y-79359200D03*
%TO.P,C49,2*%
%TO.N,Net-(U7-VBST)*%
X165616600Y-79359200D03*
%TD*%
D27*
%TO.P,C16,1*%
%TO.N,3V3*%
X196138800Y-80114600D03*
%TO.P,C16,2*%
%TO.N,GND*%
X196138800Y-79094600D03*
%TD*%
D28*
%TO.P,TP3,1,1*%
%TO.N,RPI0_D+*%
X197662800Y-76606400D03*
%TD*%
D11*
%TO.P,C7,1*%
%TO.N,3V3*%
X190373000Y-86944200D03*
%TO.P,C7,2*%
%TO.N,GND*%
X189238000Y-86944200D03*
%TD*%
D29*
%TO.P,D9,1,K*%
%TO.N,Net-(D9-K)*%
X219241900Y-112829082D03*
%TO.P,D9,2,A*%
%TO.N,VBUS*%
X219241900Y-115329082D03*
%TD*%
D30*
%TO.P,J7,1,Pin_1*%
%TO.N,MISO_INTER*%
X179273200Y-109220000D03*
D31*
%TO.P,J7,2,Pin_2*%
%TO.N,unconnected-(J7-Pin_2-Pad2)*%
X179273200Y-107950000D03*
%TO.P,J7,3,Pin_3*%
%TO.N,MOSI_INTER*%
X180543200Y-109220000D03*
%TO.P,J7,4,Pin_4*%
%TO.N,SCLK_INTER*%
X180543200Y-107950000D03*
%TO.P,J7,5,Pin_5*%
%TO.N,GND*%
X181813200Y-109220000D03*
%TO.P,J7,6,Pin_6*%
X181813200Y-107950000D03*
%TO.P,J7,7,Pin_7*%
%TO.N,RPI0_GPIO0*%
X183083200Y-109220000D03*
%TO.P,J7,8,Pin_8*%
%TO.N,RPI0_GPIO4*%
X183083200Y-107950000D03*
%TO.P,J7,9,Pin_9*%
%TO.N,RPI0_GPIO1*%
X184353200Y-109220000D03*
%TO.P,J7,10,Pin_10*%
%TO.N,RPI0_GPIO5*%
X184353200Y-107950000D03*
%TO.P,J7,11,Pin_11*%
%TO.N,RPI0_GPIO7*%
X185623200Y-109220000D03*
%TO.P,J7,12,Pin_12*%
%TO.N,RPI0_GPIO6*%
X185623200Y-107950000D03*
%TO.P,J7,13,Pin_13*%
%TO.N,GND*%
X186893200Y-109220000D03*
%TO.P,J7,14,Pin_14*%
X186893200Y-107950000D03*
%TO.P,J7,15,Pin_15*%
%TO.N,RPI0_GPIO12*%
X188163200Y-109220000D03*
%TO.P,J7,16,Pin_16*%
%TO.N,unconnected-(J7-Pin_16-Pad16)*%
X188163200Y-107950000D03*
%TO.P,J7,17,Pin_17*%
%TO.N,RPI0_GPIO13*%
X189433200Y-109220000D03*
%TO.P,J7,18,Pin_18*%
%TO.N,RPI0_GPIO15*%
X189433200Y-107950000D03*
%TO.P,J7,19,Pin_19*%
%TO.N,RPI0_GPIO14*%
X190703200Y-109220000D03*
%TO.P,J7,20,Pin_20*%
%TO.N,RPI0_GPIO17*%
X190703200Y-107950000D03*
%TO.P,J7,21,Pin_21*%
%TO.N,GND*%
X191973200Y-109220000D03*
%TO.P,J7,22,Pin_22*%
X191973200Y-107950000D03*
%TO.P,J7,23,Pin_23*%
%TO.N,RPI0_GPIO18*%
X193243200Y-109220000D03*
%TO.P,J7,24,Pin_24*%
%TO.N,RPI0_GPIO21*%
X193243200Y-107950000D03*
%TO.P,J7,25,Pin_25*%
%TO.N,RPI0_GPIO19*%
X194513200Y-109220000D03*
%TO.P,J7,26,Pin_26*%
%TO.N,GND*%
X194513200Y-107950000D03*
%TO.P,J7,27,Pin_27*%
%TO.N,RPI0_GPIO20*%
X195783200Y-109220000D03*
%TO.P,J7,28,Pin_28*%
%TO.N,GND*%
X195783200Y-107950000D03*
%TO.P,J7,29,Pin_29*%
X197053200Y-109220000D03*
%TO.P,J7,30,Pin_30*%
X197053200Y-107950000D03*
%TD*%
D32*
%TO.P,J1,1,VCC*%
%TO.N,3V3*%
X214911200Y-76222200D03*
D33*
%TO.P,J1,2,SWDIO*%
%TO.N,SWD_RP2040*%
X215801200Y-76942200D03*
D34*
%TO.P,J1,3,~{RESET}*%
%TO.N,RUN*%
X213711200Y-76202200D03*
D35*
%TO.P,J1,4,SWCLK*%
%TO.N,SWCLK_RP2040*%
X214321200Y-77542200D03*
D36*
%TO.P,J1,5,GND*%
%TO.N,GND*%
X212801200Y-76922200D03*
D37*
%TO.P,J1,6,SWO*%
%TO.N,unconnected-(J1-SWO-Pad6)*%
X213421200Y-78382200D03*
%TD*%
D19*
%TO.P,R54,1*%
%TO.N,5V*%
X166703000Y-92477600D03*
%TO.P,R54,2*%
%TO.N,Net-(U8-VFB)*%
X165508000Y-92477600D03*
%TD*%
D12*
%TO.P,R19,1*%
%TO.N,HUB_SDA*%
X194221700Y-91606900D03*
%TO.P,R19,2*%
%TO.N,3V3*%
X194221700Y-92801900D03*
%TD*%
D11*
%TO.P,C57,1*%
%TO.N,3V3*%
X219619400Y-117308082D03*
%TO.P,C57,2*%
%TO.N,GND*%
X218484400Y-117308082D03*
%TD*%
D23*
%TO.P,JP4,1,A*%
%TO.N,GND*%
X227689000Y-120960300D03*
D24*
%TO.P,JP4,2,C*%
%TO.N,CHRG_CTRL_1*%
X225689000Y-120960300D03*
D25*
%TO.P,JP4,3,B*%
%TO.N,3V3*%
X223689000Y-120960300D03*
%TD*%
D17*
%TO.P,C4,1*%
%TO.N,GND*%
X203433200Y-88151300D03*
%TO.P,C4,2*%
%TO.N,Net-(U2-XTAL1)*%
X204568200Y-88151300D03*
%TD*%
D10*
%TO.P,R29,1*%
%TO.N,3V3*%
X218944900Y-102102500D03*
%TO.P,R29,2*%
%TO.N,PD_SDA*%
X220139900Y-102102500D03*
%TD*%
D15*
%TO.P,C47,1*%
%TO.N,Net-(U10-SS)*%
X178765200Y-90012900D03*
%TO.P,C47,2*%
%TO.N,GND*%
X178765200Y-91147900D03*
%TD*%
D12*
%TO.P,R35,1*%
%TO.N,Net-(U6-~{CS})*%
X212090000Y-91121900D03*
%TO.P,R35,2*%
%TO.N,QSPI_SS*%
X212090000Y-92316900D03*
%TD*%
D38*
%TO.P,C55,1*%
%TO.N,Net-(D14-A)*%
X181660800Y-77266800D03*
%TO.P,C55,2*%
%TO.N,GND*%
X181660800Y-75366800D03*
%TD*%
D12*
%TO.P,R36,1*%
%TO.N,Net-(U6-~{CS})*%
X210972400Y-91121900D03*
%TO.P,R36,2*%
%TO.N,3V3*%
X210972400Y-92316900D03*
%TD*%
D39*
%TO.P,C40,1*%
%TO.N,GND*%
X156131600Y-80384200D03*
%TO.P,C40,2*%
%TO.N,VSYS*%
X156131600Y-81934200D03*
%TD*%
D40*
%TO.P,J9,1,Pin_1*%
%TO.N,GND*%
X230038400Y-106111800D03*
%TO.P,J9,2,Pin_2*%
%TO.N,B+*%
X230038400Y-108111800D03*
D41*
%TO.P,J9,MP*%
%TO.N,N/C*%
X232288400Y-103711800D03*
X232288400Y-110511800D03*
%TD*%
D10*
%TO.P,R55,1*%
%TO.N,Net-(U8-VFB)*%
X165508000Y-91360000D03*
%TO.P,R55,2*%
%TO.N,GND*%
X166703000Y-91360000D03*
%TD*%
%TO.P,R10,1*%
%TO.N,3V3*%
X208546100Y-89458800D03*
%TO.P,R10,2*%
%TO.N,QSPI_SS*%
X209741100Y-89458800D03*
%TD*%
D12*
%TO.P,R21,1*%
%TO.N,Net-(U2-OCS4)*%
X193078700Y-91617800D03*
%TO.P,R21,2*%
%TO.N,3V3*%
X193078700Y-92812800D03*
%TD*%
D42*
%TO.P,SW2,1,1*%
%TO.N,Net-(R11-Pad2)*%
X209143600Y-86840800D03*
%TO.P,SW2,2,2*%
%TO.N,GND*%
X209143600Y-83440800D03*
%TD*%
D43*
%TO.P,D4,1,K*%
%TO.N,Net-(D4-K)*%
X234379450Y-76872150D03*
%TO.P,D4,2,A*%
%TO.N,LED*%
X234379450Y-75297150D03*
%TD*%
D19*
%TO.P,R43,1*%
%TO.N,VSYS*%
X166829100Y-80459200D03*
%TO.P,R43,2*%
%TO.N,Net-(U7-EN)*%
X165634100Y-80459200D03*
%TD*%
D12*
%TO.P,R50,1*%
%TO.N,Net-(D11-A)*%
X218689400Y-104940582D03*
%TO.P,R50,2*%
%TO.N,VBAT*%
X218689400Y-106135582D03*
%TD*%
D44*
%TO.P,U9,1,CTG*%
%TO.N,GND*%
X221051900Y-115808082D03*
%TO.P,U9,2,CELL*%
%TO.N,3V3*%
X221051900Y-116308082D03*
%TO.P,U9,3,VDD*%
X221051900Y-116808082D03*
%TO.P,U9,4,GND*%
%TO.N,GND*%
X221051900Y-117308082D03*
%TO.P,U9,5,~{ALERT}*%
%TO.N,BATT_INT*%
X222976900Y-117308082D03*
%TO.P,U9,6,QSTRT*%
%TO.N,GND*%
X222976900Y-116808082D03*
%TO.P,U9,7,SCL*%
%TO.N,BATT_SCL*%
X222976900Y-116308082D03*
%TO.P,U9,8,SDA*%
%TO.N,BATT_SDA*%
X222976900Y-115808082D03*
D45*
%TO.P,U9,9,EP*%
%TO.N,GND*%
X222014400Y-116558082D03*
%TD*%
D12*
%TO.P,R22,1*%
%TO.N,Net-(U2-OCS3)*%
X191961100Y-91617800D03*
%TO.P,R22,2*%
%TO.N,3V3*%
X191961100Y-92812800D03*
%TD*%
D43*
%TO.P,D1,1,K*%
%TO.N,Net-(D1-K)*%
X202355700Y-93245900D03*
%TO.P,D1,2,A*%
%TO.N,HUB_SUSP*%
X202355700Y-91670900D03*
%TD*%
D46*
%TO.P,L3,1,1*%
%TO.N,Net-(D10-A)*%
X173047800Y-78130400D03*
%TO.P,L3,2,2*%
%TO.N,Net-(D14-A)*%
X179097800Y-78130400D03*
%TD*%
D17*
%TO.P,C15,1*%
%TO.N,1V1*%
X231258300Y-82499200D03*
%TO.P,C15,2*%
%TO.N,GND*%
X232393300Y-82499200D03*
%TD*%
D27*
%TO.P,R20,1*%
%TO.N,Net-(D4-K)*%
X233058650Y-76188250D03*
%TO.P,R20,2*%
%TO.N,GND*%
X233058650Y-75168250D03*
%TD*%
D47*
%TO.P,D13,1,K*%
%TO.N,VSYS*%
X212425400Y-109489082D03*
%TO.P,D13,2,A*%
%TO.N,VBAT*%
X216825400Y-109489082D03*
%TD*%
D13*
%TO.P,D12,1,K*%
%TO.N,Net-(D12-K)*%
X221737400Y-106046082D03*
%TO.P,D12,2,A*%
%TO.N,Net-(D12-A)*%
X221737400Y-104296082D03*
%TD*%
D26*
%TO.P,C35,1*%
%TO.N,CC2*%
X221574400Y-93689900D03*
%TO.P,C35,2*%
%TO.N,GND*%
X221574400Y-92729900D03*
%TD*%
D48*
%TO.P,C31,1*%
%TO.N,3V3*%
X158303200Y-116408200D03*
%TO.P,C31,2*%
%TO.N,GND*%
X159263200Y-116408200D03*
%TD*%
D10*
%TO.P,R39,1*%
%TO.N,Net-(R38-Pad2)*%
X224164400Y-109951082D03*
%TO.P,R39,2*%
%TO.N,BATT_MONITOR*%
X225359400Y-109951082D03*
%TD*%
D49*
%TO.P,D15,1,K*%
%TO.N,Net-(D15-K)*%
X231368600Y-116509800D03*
%TO.P,D15,2,A*%
%TO.N,Net-(D15-A)*%
X231368600Y-118084800D03*
%TD*%
D50*
%TO.P,C62,1*%
%TO.N,3V3*%
X199682700Y-81310700D03*
%TO.P,C62,2*%
%TO.N,GND*%
X199682700Y-80175700D03*
%TD*%
D12*
%TO.P,R2,1*%
%TO.N,3V3*%
X220921350Y-74809050D03*
%TO.P,R2,2*%
%TO.N,RUN*%
X220921350Y-76004050D03*
%TD*%
D11*
%TO.P,C11,1*%
%TO.N,1V1*%
X219363100Y-85471000D03*
%TO.P,C11,2*%
%TO.N,GND*%
X218228100Y-85471000D03*
%TD*%
D51*
%TO.P,TP2,1,1*%
%TO.N,GND*%
X213690200Y-120650000D03*
%TD*%
D52*
%TO.P,C43,1*%
%TO.N,VSYS*%
X157681600Y-81934200D03*
%TO.P,C43,2*%
%TO.N,GND*%
X157681600Y-80384200D03*
%TD*%
D19*
%TO.P,R38,1*%
%TO.N,B+*%
X225359400Y-111094082D03*
%TO.P,R38,2*%
%TO.N,Net-(R38-Pad2)*%
X224164400Y-111094082D03*
%TD*%
D53*
%TO.P,C34,1*%
%TO.N,Net-(BT1-+)*%
X148468200Y-120091200D03*
%TO.P,C34,2*%
%TO.N,GND*%
X147508200Y-120091200D03*
%TD*%
D12*
%TO.P,R1,1*%
%TO.N,HUB_RST*%
X198717500Y-91605700D03*
%TO.P,R1,2*%
%TO.N,3V3*%
X198717500Y-92800700D03*
%TD*%
D54*
%TO.P,R4,1*%
%TO.N,HUB_SUSP*%
X203752700Y-92674900D03*
%TO.P,R4,2*%
%TO.N,GND*%
X203752700Y-91479900D03*
%TD*%
D55*
%TO.P,U3,1,IO1*%
%TO.N,UP_D-*%
X223672400Y-98160000D03*
%TO.P,U3,2,VN*%
%TO.N,GND*%
X224622400Y-98160000D03*
%TO.P,U3,3,IO2*%
%TO.N,UP_D+*%
X225572400Y-98160000D03*
%TO.P,U3,4,IO3*%
%TO.N,CC1*%
X225572400Y-95885000D03*
%TO.P,U3,5,VP*%
%TO.N,unconnected-(U3-VP-Pad5)*%
X224622400Y-95885000D03*
%TO.P,U3,6,IO4*%
%TO.N,CC2*%
X223672400Y-95885000D03*
%TD*%
D20*
%TO.P,R49,1*%
%TO.N,Net-(C56-Pad2)*%
X180723000Y-84785200D03*
%TO.P,R49,2*%
%TO.N,GND*%
X179703000Y-84785200D03*
%TD*%
D11*
%TO.P,C17,1*%
%TO.N,3V3*%
X219363100Y-84429600D03*
%TO.P,C17,2*%
%TO.N,GND*%
X218228100Y-84429600D03*
%TD*%
D15*
%TO.P,C21,1*%
%TO.N,3V3*%
X225679000Y-89170700D03*
%TO.P,C21,2*%
%TO.N,GND*%
X225679000Y-90305700D03*
%TD*%
D50*
%TO.P,C46,1*%
%TO.N,Net-(D10-A)*%
X170865800Y-81110900D03*
%TO.P,C46,2*%
%TO.N,Net-(U10-BOOT)*%
X170865800Y-79975900D03*
%TD*%
D51*
%TO.P,TP1,1,1*%
%TO.N,VSYS*%
X213156800Y-113131600D03*
%TD*%
D56*
%TO.P,C61,1*%
%TO.N,GND*%
X225526900Y-106308082D03*
%TO.P,C61,2*%
%TO.N,B+*%
X223801900Y-106308082D03*
%TD*%
D10*
%TO.P,R32,1*%
%TO.N,RTC_SCL*%
X158338100Y-118948200D03*
%TO.P,R32,2*%
%TO.N,3V3*%
X159533100Y-118948200D03*
%TD*%
D57*
%TO.P,D2,1,DOUT*%
%TO.N,RGB_DOUT*%
X234577800Y-82652200D03*
%TO.P,D2,2,VSS*%
%TO.N,GND*%
X235677800Y-82652200D03*
%TO.P,D2,3,DIN*%
%TO.N,RGB_DIN*%
X235677800Y-80822200D03*
%TO.P,D2,4,VDD*%
%TO.N,5V*%
X234577800Y-80822200D03*
%TD*%
D19*
%TO.P,R34,1*%
%TO.N,3V3*%
X159507700Y-120269000D03*
%TO.P,R34,2*%
%TO.N,RTC_SDA*%
X158312700Y-120269000D03*
%TD*%
D11*
%TO.P,C26,1*%
%TO.N,Net-(U5-OSCI)*%
X148403300Y-115392200D03*
%TO.P,C26,2*%
%TO.N,GND*%
X147268300Y-115392200D03*
%TD*%
D10*
%TO.P,R5,1*%
%TO.N,RP2040_D+*%
X218265600Y-82321400D03*
%TO.P,R5,2*%
%TO.N,/2040_D+*%
X219460600Y-82321400D03*
%TD*%
D11*
%TO.P,C18,1*%
%TO.N,3V3*%
X219363100Y-83388200D03*
%TO.P,C18,2*%
%TO.N,GND*%
X218228100Y-83388200D03*
%TD*%
D58*
%TO.P,U2,1,DM1*%
%TO.N,RP2040_D-*%
X198126700Y-82509100D03*
%TO.P,U2,2,DP1*%
%TO.N,RP2040_D+*%
X197626700Y-82509100D03*
%TO.P,U2,3,DM2*%
%TO.N,RPI0_D-*%
X197126700Y-82509100D03*
%TO.P,U2,4,DP2*%
%TO.N,RPI0_D+*%
X196626700Y-82509100D03*
%TO.P,U2,5,VDDA33-1*%
%TO.N,3V3*%
X196126700Y-82509100D03*
%TO.P,U2,6,DM3*%
%TO.N,EXTRA_USB3_D-*%
X195626700Y-82509100D03*
%TO.P,U2,7,DP3*%
%TO.N,EXTRA_USB3_D+*%
X195126700Y-82509100D03*
%TO.P,U2,8,DM4*%
%TO.N,EXTRA_USB4_D-*%
X194626700Y-82509100D03*
%TO.P,U2,9,DP4*%
%TO.N,EXTRA_USB4_D+*%
X194126700Y-82509100D03*
D59*
%TO.P,U2,10,VDDA33-2*%
%TO.N,3V3*%
X193311700Y-83324100D03*
%TO.P,U2,11,TEST*%
%TO.N,unconnected-(U2-TEST-Pad11)*%
X193311700Y-83824100D03*
%TO.P,U2,12,PRTPWR1*%
%TO.N,unconnected-(U2-PRTPWR1-Pad12)*%
X193311700Y-84324100D03*
%TO.P,U2,13,OCS1*%
%TO.N,Net-(U2-OCS1)*%
X193311700Y-84824100D03*
%TO.P,U2,14,CRFILT*%
%TO.N,Net-(U2-CRFILT)*%
X193311700Y-85324100D03*
%TO.P,U2,15,VDD33IO*%
%TO.N,3V3*%
X193311700Y-85824100D03*
%TO.P,U2,16,PRTPWR2*%
%TO.N,unconnected-(U2-PRTPWR2-Pad16)*%
X193311700Y-86324100D03*
%TO.P,U2,17,OCS2*%
%TO.N,Net-(U2-OCS2)*%
X193311700Y-86824100D03*
%TO.P,U2,18,PRTPWR3*%
%TO.N,unconnected-(U2-PRTPWR3-Pad18)*%
X193311700Y-87324100D03*
D60*
%TO.P,U2,19,OCS3*%
%TO.N,Net-(U2-OCS3)*%
X194126700Y-88139100D03*
%TO.P,U2,20,PRTPWR4*%
%TO.N,unconnected-(U2-PRTPWR4-Pad20)*%
X194626700Y-88139100D03*
%TO.P,U2,21,OCS4*%
%TO.N,Net-(U2-OCS4)*%
X195126700Y-88139100D03*
%TO.P,U2,22,SMBDATA*%
%TO.N,HUB_SDA*%
X195626700Y-88139100D03*
%TO.P,U2,23,VDD33REG*%
%TO.N,3V3*%
X196126700Y-88139100D03*
%TO.P,U2,24,SMBCLK*%
%TO.N,HUB_SCL*%
X196626700Y-88139100D03*
%TO.P,U2,25,CFG_SEL1*%
%TO.N,Net-(U2-CFG_SEL1)*%
X197126700Y-88139100D03*
%TO.P,U2,26,~{RESET}*%
%TO.N,HUB_RST*%
X197626700Y-88139100D03*
%TO.P,U2,27,VBUS_DET*%
%TO.N,Net-(U2-VBUS_DET)*%
X198126700Y-88139100D03*
D61*
%TO.P,U2,28,SUSP_IND*%
%TO.N,HUB_SUSP*%
X198941700Y-87324100D03*
%TO.P,U2,29,VDDA33-3*%
%TO.N,3V3*%
X198941700Y-86824100D03*
%TO.P,U2,30,DM-UP*%
%TO.N,UP_D-*%
X198941700Y-86324100D03*
%TO.P,U2,31,DP-UP*%
%TO.N,UP_D+*%
X198941700Y-85824100D03*
%TO.P,U2,32,XTAL1*%
%TO.N,Net-(U2-XTAL1)*%
X198941700Y-85324100D03*
%TO.P,U2,33,XTAL2*%
%TO.N,Net-(U2-XTAL2)*%
X198941700Y-84824100D03*
%TO.P,U2,34,PLLFILT*%
%TO.N,Net-(U2-PLLFILT)*%
X198941700Y-84324100D03*
%TO.P,U2,35,RBIAS*%
%TO.N,Net-(U2-RBIAS)*%
X198941700Y-83824100D03*
%TO.P,U2,36,VDDPLLREF*%
%TO.N,3V3*%
X198941700Y-83324100D03*
D62*
%TO.P,U2,37,VSS*%
%TO.N,GND*%
X196126700Y-85324100D03*
%TD*%
D11*
%TO.P,C27,1*%
%TO.N,Net-(U5-OSCO)*%
X148403300Y-119024400D03*
%TO.P,C27,2*%
%TO.N,GND*%
X147268300Y-119024400D03*
%TD*%
D63*
%TO.P,D14,1,K*%
%TO.N,VSYS*%
X184327800Y-80127200D03*
%TO.P,D14,2,A*%
%TO.N,Net-(D14-A)*%
X184327800Y-75727200D03*
%TD*%
D64*
%TO.P,Y2,1,1*%
%TO.N,Net-(C5-Pad2)*%
X203658700Y-84257300D03*
%TO.P,Y2,2,2*%
%TO.N,GND*%
X203658700Y-86457300D03*
%TO.P,Y2,3,3*%
%TO.N,Net-(U2-XTAL1)*%
X205358700Y-86457300D03*
%TO.P,Y2,4,4*%
%TO.N,GND*%
X205358700Y-84257300D03*
%TD*%
D27*
%TO.P,R46,1*%
%TO.N,EXT_PWR*%
X176682400Y-91088400D03*
%TO.P,R46,2*%
%TO.N,Net-(U10-EN)*%
X176682400Y-90068400D03*
%TD*%
D54*
%TO.P,R41,1*%
%TO.N,CHRG_CTRL_1*%
X222924900Y-113787582D03*
%TO.P,R41,2*%
%TO.N,Net-(U11-ISET)*%
X222924900Y-112592582D03*
%TD*%
D18*
%TO.P,C28,1*%
%TO.N,3V3*%
X217523400Y-98165500D03*
%TO.P,C28,2*%
%TO.N,GND*%
X215973400Y-98165500D03*
%TD*%
D12*
%TO.P,R13,1*%
%TO.N,Net-(U2-VBUS_DET)*%
X201003500Y-91569400D03*
%TO.P,R13,2*%
%TO.N,GND*%
X201003500Y-92764400D03*
%TD*%
D10*
%TO.P,R27,1*%
%TO.N,3V3*%
X218944900Y-100987500D03*
%TO.P,R27,2*%
%TO.N,PD_SCL*%
X220139900Y-100987500D03*
%TD*%
D63*
%TO.P,D10,1,K*%
%TO.N,GND*%
X171424600Y-87858600D03*
%TO.P,D10,2,A*%
%TO.N,Net-(D10-A)*%
X171424600Y-83458600D03*
%TD*%
D65*
%TO.P,U11,1,TS*%
%TO.N,BAT_TEMP*%
X221777900Y-110239082D03*
%TO.P,U11,2,BAT*%
%TO.N,B+*%
X221777900Y-109739082D03*
%TO.P,U11,3,BAT*%
X221777900Y-109239082D03*
%TO.P,U11,4,~{CE}*%
%TO.N,GND*%
X221777900Y-108739082D03*
D66*
%TO.P,U11,5,EN2*%
X221090400Y-108051582D03*
%TO.P,U11,6,EN1*%
%TO.N,VSYS*%
X220590400Y-108051582D03*
%TO.P,U11,7,~{PGOOD}*%
%TO.N,Net-(D12-K)*%
X220090400Y-108051582D03*
%TO.P,U11,8,VSS*%
%TO.N,GND*%
X219590400Y-108051582D03*
D65*
%TO.P,U11,9,~{CHG}*%
%TO.N,Net-(D11-K)*%
X218902900Y-108739082D03*
%TO.P,U11,10,OUT*%
%TO.N,VBAT*%
X218902900Y-109239082D03*
%TO.P,U11,11,OUT*%
X218902900Y-109739082D03*
%TO.P,U11,12,ILIM*%
%TO.N,unconnected-(U11-ILIM-Pad12)*%
X218902900Y-110239082D03*
D66*
%TO.P,U11,13,IN*%
%TO.N,Net-(U11-IN)*%
X219590400Y-110926582D03*
%TO.P,U11,14,TMR*%
%TO.N,unconnected-(U11-TMR-Pad14)*%
X220090400Y-110926582D03*
%TO.P,U11,15,SYSOFF*%
%TO.N,GND*%
X220590400Y-110926582D03*
%TO.P,U11,16,ISET*%
%TO.N,Net-(U11-ISET)*%
X221090400Y-110926582D03*
D67*
%TO.P,U11,17,VSS*%
%TO.N,GND*%
X220340400Y-109489082D03*
%TD*%
D30*
%TO.P,J8,1,Pin_1*%
%TO.N,GND*%
X184353200Y-114300000D03*
D31*
%TO.P,J8,2,Pin_2*%
X184353200Y-113030000D03*
%TO.P,J8,3,Pin_3*%
X185623200Y-114300000D03*
%TO.P,J8,4,Pin_4*%
X185623200Y-113030000D03*
%TO.P,J8,5,Pin_5*%
X186893200Y-114300000D03*
%TO.P,J8,6,Pin_6*%
X186893200Y-113030000D03*
%TO.P,J8,7,Pin_7*%
%TO.N,RP2040_GPIO11*%
X188163200Y-114300000D03*
%TO.P,J8,8,Pin_8*%
%TO.N,GND*%
X188163200Y-113030000D03*
%TO.P,J8,9,Pin_9*%
%TO.N,RP2040_GPIO10*%
X189433200Y-114300000D03*
%TO.P,J8,10,Pin_10*%
%TO.N,unconnected-(J8-Pin_10-Pad10)*%
X189433200Y-113030000D03*
%TO.P,J8,11,Pin_11*%
%TO.N,RP2040_GPIO12*%
X190703200Y-114300000D03*
%TO.P,J8,12,Pin_12*%
%TO.N,unconnected-(J8-Pin_12-Pad12)*%
X190703200Y-113030000D03*
%TO.P,J8,13,Pin_13*%
%TO.N,GND*%
X191973200Y-114300000D03*
%TO.P,J8,14,Pin_14*%
%TO.N,unconnected-(J8-Pin_14-Pad14)*%
X191973200Y-113030000D03*
%TO.P,J8,15,Pin_15*%
%TO.N,ONEWIRE_DETECT*%
X193243200Y-114300000D03*
%TO.P,J8,16,Pin_16*%
%TO.N,RP2040_GPIO29*%
X193243200Y-113030000D03*
%TD*%
D18*
%TO.P,C59,1*%
%TO.N,GND*%
X157773400Y-87296000D03*
%TO.P,C59,2*%
%TO.N,5V*%
X156223400Y-87296000D03*
%TD*%
D30*
%TO.P,J6,1,Pin_1*%
%TO.N,Net-(D7-A)*%
X179273200Y-119380000D03*
D31*
%TO.P,J6,2,Pin_2*%
X179273200Y-118110000D03*
%TO.P,J6,3,Pin_3*%
X180543200Y-119380000D03*
%TO.P,J6,4,Pin_4*%
X180543200Y-118110000D03*
%TO.P,J6,5,Pin_5*%
%TO.N,GND*%
X181813200Y-119380000D03*
%TO.P,J6,6,Pin_6*%
X181813200Y-118110000D03*
%TO.P,J6,7,Pin_7*%
%TO.N,3V3*%
X183083200Y-119380000D03*
%TO.P,J6,8,Pin_8*%
%TO.N,VBUS*%
X183083200Y-118110000D03*
%TO.P,J6,9,Pin_9*%
%TO.N,3V3*%
X184353200Y-119380000D03*
%TO.P,J6,10,Pin_10*%
%TO.N,VBUS*%
X184353200Y-118110000D03*
%TO.P,J6,11,Pin_11*%
%TO.N,5V*%
X185623200Y-119380000D03*
%TO.P,J6,12,Pin_12*%
%TO.N,VBUS*%
X185623200Y-118110000D03*
%TO.P,J6,13,Pin_13*%
%TO.N,5V*%
X186893200Y-119380000D03*
%TO.P,J6,14,Pin_14*%
%TO.N,GND*%
X186893200Y-118110000D03*
%TO.P,J6,15,Pin_15*%
X188163200Y-119380000D03*
%TO.P,J6,16,Pin_16*%
%TO.N,EXTRA_USB4_D+*%
X188163200Y-118110000D03*
%TO.P,J6,17,Pin_17*%
%TO.N,VBUS*%
X189433200Y-119380000D03*
%TO.P,J6,18,Pin_18*%
%TO.N,EXTRA_USB4_D-*%
X189433200Y-118110000D03*
%TO.P,J6,19,Pin_19*%
%TO.N,VBUS*%
X190703200Y-119380000D03*
%TO.P,J6,20,Pin_20*%
%TO.N,GND*%
X190703200Y-118110000D03*
%TO.P,J6,21,Pin_21*%
%TO.N,VBUS*%
X191973200Y-119380000D03*
%TO.P,J6,22,Pin_22*%
%TO.N,GND*%
X191973200Y-118110000D03*
%TO.P,J6,23,Pin_23*%
%TO.N,VCONN*%
X193243200Y-119380000D03*
%TO.P,J6,24,Pin_24*%
%TO.N,EXTRA_USB3_D+*%
X193243200Y-118110000D03*
%TO.P,J6,25,Pin_25*%
%TO.N,VCONN*%
X194513200Y-119380000D03*
%TO.P,J6,26,Pin_26*%
%TO.N,EXTRA_USB3_D-*%
X194513200Y-118110000D03*
%TO.P,J6,27,Pin_27*%
%TO.N,VCONN*%
X195783200Y-119380000D03*
%TO.P,J6,28,Pin_28*%
%TO.N,GND*%
X195783200Y-118110000D03*
%TO.P,J6,29,Pin_29*%
%TO.N,VCONN*%
X197053200Y-119380000D03*
%TO.P,J6,30,Pin_30*%
%TO.N,GND*%
X197053200Y-118110000D03*
%TD*%
D17*
%TO.P,C19,1*%
%TO.N,5V*%
X234543600Y-79578200D03*
%TO.P,C19,2*%
%TO.N,GND*%
X235678600Y-79578200D03*
%TD*%
D68*
%TO.P,Y1,1,1*%
%TO.N,Net-(C2-Pad2)*%
X233822600Y-86106000D03*
%TO.P,Y1,2,2*%
%TO.N,GND*%
X231622600Y-86106000D03*
%TO.P,Y1,3,3*%
%TO.N,Net-(U1-XIN)*%
X231622600Y-87806000D03*
%TO.P,Y1,4,4*%
%TO.N,GND*%
X233822600Y-87806000D03*
%TD*%
D69*
%TO.P,C52,1*%
%TO.N,GND*%
X214551900Y-107058082D03*
%TO.P,C52,2*%
%TO.N,VBAT*%
X216276900Y-107058082D03*
%TD*%
D50*
%TO.P,C24,1*%
%TO.N,3V3*%
X222504000Y-79104300D03*
%TO.P,C24,2*%
%TO.N,GND*%
X222504000Y-77969300D03*
%TD*%
D38*
%TO.P,C32,1*%
%TO.N,VCONN*%
X219034400Y-93654500D03*
%TO.P,C32,2*%
%TO.N,GND*%
X219034400Y-91754500D03*
%TD*%
D19*
%TO.P,R11,1*%
%TO.N,QSPI_SS*%
X209741100Y-88392000D03*
%TO.P,R11,2*%
%TO.N,Net-(R11-Pad2)*%
X208546100Y-88392000D03*
%TD*%
%TO.P,R6,1*%
%TO.N,/2040_D-*%
X219460600Y-81254600D03*
%TO.P,R6,2*%
%TO.N,RP2040_D-*%
X218265600Y-81254600D03*
%TD*%
D22*
%TO.P,L2,1,1*%
%TO.N,Net-(U8-SW)*%
X151282400Y-92410000D03*
%TO.P,L2,2,2*%
%TO.N,5V*%
X151282400Y-86360000D03*
%TD*%
D70*
%TO.P,R45,1*%
%TO.N,BATT_SDA*%
X224164400Y-114308082D03*
%TO.P,R45,2*%
%TO.N,3V3*%
X224164400Y-112658082D03*
%TD*%
D54*
%TO.P,R3,1*%
%TO.N,RUN*%
X222064350Y-76004050D03*
%TO.P,R3,2*%
%TO.N,Net-(R3-Pad2)*%
X222064350Y-74809050D03*
%TD*%
D11*
%TO.P,C8,1*%
%TO.N,1V1*%
X219405200Y-80187800D03*
%TO.P,C8,2*%
%TO.N,GND*%
X218270200Y-80187800D03*
%TD*%
D16*
%TO.P,C42,1*%
%TO.N,EXT_PWR*%
X175295600Y-90551000D03*
%TO.P,C42,2*%
%TO.N,GND*%
X173395600Y-90551000D03*
%TD*%
D27*
%TO.P,R18,1*%
%TO.N,Net-(D3-K)*%
X232714800Y-113987600D03*
%TO.P,R18,2*%
%TO.N,GND*%
X232714800Y-112967600D03*
%TD*%
%TO.P,R58,1*%
%TO.N,Net-(D15-K)*%
X232714800Y-117322600D03*
%TO.P,R58,2*%
%TO.N,GND*%
X232714800Y-116302600D03*
%TD*%
D15*
%TO.P,C20,1*%
%TO.N,3V3*%
X222707200Y-89196100D03*
%TO.P,C20,2*%
%TO.N,GND*%
X222707200Y-90331100D03*
%TD*%
D70*
%TO.P,R48,1*%
%TO.N,BATT_SCL*%
X225664400Y-114308082D03*
%TO.P,R48,2*%
%TO.N,3V3*%
X225664400Y-112658082D03*
%TD*%
D19*
%TO.P,R24,1*%
%TO.N,Net-(U2-OCS1)*%
X190407600Y-83680900D03*
%TO.P,R24,2*%
%TO.N,3V3*%
X189212600Y-83680900D03*
%TD*%
D54*
%TO.P,R7,1*%
%TO.N,Net-(D1-K)*%
X204895700Y-92674900D03*
%TO.P,R7,2*%
%TO.N,GND*%
X204895700Y-91479900D03*
%TD*%
D28*
%TO.P,TP4,1,1*%
%TO.N,RPI0_D-*%
X199796400Y-76809600D03*
%TD*%
D71*
%TO.P,JP2,1,A*%
%TO.N,Net-(D15-A)*%
X229311200Y-118033800D03*
D72*
%TO.P,JP2,2,B*%
%TO.N,5V*%
X229311200Y-116583800D03*
%TD*%
D18*
%TO.P,C53,1*%
%TO.N,GND*%
X157681600Y-77359200D03*
%TO.P,C53,2*%
%TO.N,3V3*%
X156131600Y-77359200D03*
%TD*%
D39*
%TO.P,C41,1*%
%TO.N,GND*%
X156135400Y-90077000D03*
%TO.P,C41,2*%
%TO.N,VSYS*%
X156135400Y-91627000D03*
%TD*%
D73*
%TO.P,SW1,1,1*%
%TO.N,Net-(R3-Pad2)*%
X223361550Y-75508150D03*
%TO.P,SW1,2,2*%
%TO.N,GND*%
X226761550Y-75508150D03*
%TD*%
D71*
%TO.P,JP1,1,A*%
%TO.N,Net-(D3-A)*%
X229311200Y-114593200D03*
D72*
%TO.P,JP1,2,B*%
%TO.N,3V3*%
X229311200Y-113143200D03*
%TD*%
D74*
%TO.P,U8,1,GND*%
%TO.N,GND*%
X161093900Y-89902000D03*
%TO.P,U8,2,SW*%
%TO.N,Net-(U8-SW)*%
X161093900Y-90852000D03*
%TO.P,U8,3,VIN*%
%TO.N,VSYS*%
X161093900Y-91802000D03*
%TO.P,U8,4,VFB*%
%TO.N,Net-(U8-VFB)*%
X163368900Y-91802000D03*
%TO.P,U8,5,EN*%
%TO.N,Net-(U8-EN)*%
X163368900Y-90852000D03*
%TO.P,U8,6,VBST*%
%TO.N,Net-(U8-VBST)*%
X163368900Y-89902000D03*
%TD*%
D17*
%TO.P,C22,1*%
%TO.N,3V3*%
X231241600Y-83566000D03*
%TO.P,C22,2*%
%TO.N,GND*%
X232376600Y-83566000D03*
%TD*%
D75*
%TO.P,C37,1*%
%TO.N,GND*%
X208470200Y-81838800D03*
%TO.P,C37,2*%
%TO.N,3V3*%
X210020200Y-81838800D03*
%TD*%
D11*
%TO.P,C3,1*%
%TO.N,3V3*%
X190377600Y-82512500D03*
%TO.P,C3,2*%
%TO.N,GND*%
X189242600Y-82512500D03*
%TD*%
D76*
%TO.P,R57,1*%
%TO.N,Net-(U10-VSENSE)*%
X179703000Y-86063800D03*
%TO.P,R57,2*%
%TO.N,GND*%
X180723000Y-86063800D03*
%TD*%
D75*
%TO.P,C45,1*%
%TO.N,EXT_PWR*%
X176821800Y-92500000D03*
%TO.P,C45,2*%
%TO.N,GND*%
X178371800Y-92500000D03*
%TD*%
D77*
%TO.P,R47,1*%
%TO.N,Net-(U10-EN)*%
X177749200Y-90043000D03*
%TO.P,R47,2*%
%TO.N,GND*%
X177749200Y-91063000D03*
%TD*%
D19*
%TO.P,R40,1*%
%TO.N,BATT_MONITOR*%
X225359400Y-108808082D03*
%TO.P,R40,2*%
%TO.N,GND*%
X224164400Y-108808082D03*
%TD*%
D54*
%TO.P,R12,1*%
%TO.N,VBUS*%
X199860500Y-92801900D03*
%TO.P,R12,2*%
%TO.N,Net-(U2-VBUS_DET)*%
X199860500Y-91606900D03*
%TD*%
D11*
%TO.P,C12,1*%
%TO.N,Net-(U2-CRFILT)*%
X190373000Y-85877400D03*
%TO.P,C12,2*%
%TO.N,GND*%
X189238000Y-85877400D03*
%TD*%
D17*
%TO.P,C5,1*%
%TO.N,GND*%
X203433200Y-82563300D03*
%TO.P,C5,2*%
%TO.N,Net-(C5-Pad2)*%
X204568200Y-82563300D03*
%TD*%
D63*
%TO.P,D6,1,K*%
%TO.N,Net-(D6-K)*%
X145973800Y-92827200D03*
%TO.P,D6,2,A*%
%TO.N,5V*%
X145973800Y-88427200D03*
%TD*%
D52*
%TO.P,C44,1*%
%TO.N,VSYS*%
X157659400Y-91627000D03*
%TO.P,C44,2*%
%TO.N,GND*%
X157659400Y-90077000D03*
%TD*%
D78*
%TO.P,C60,1*%
%TO.N,Net-(D14-A)*%
X181660800Y-78922800D03*
%TO.P,C60,2*%
%TO.N,GND*%
X181660800Y-80822800D03*
%TD*%
D74*
%TO.P,U7,1,GND*%
%TO.N,GND*%
X161094100Y-80159200D03*
%TO.P,U7,2,SW*%
%TO.N,Net-(U7-SW)*%
X161094100Y-81109200D03*
%TO.P,U7,3,VIN*%
%TO.N,VSYS*%
X161094100Y-82059200D03*
%TO.P,U7,4,VFB*%
%TO.N,Net-(U7-VFB)*%
X163369100Y-82059200D03*
%TO.P,U7,5,EN*%
%TO.N,Net-(U7-EN)*%
X163369100Y-81109200D03*
%TO.P,U7,6,VBST*%
%TO.N,Net-(U7-VBST)*%
X163369100Y-80159200D03*
%TD*%
D11*
%TO.P,C2,1*%
%TO.N,GND*%
X234704700Y-84658200D03*
%TO.P,C2,2*%
%TO.N,Net-(C2-Pad2)*%
X233569700Y-84658200D03*
%TD*%
D79*
%TO.P,U5,1,OSCI*%
%TO.N,Net-(U5-OSCI)*%
X151115400Y-116459000D03*
%TO.P,U5,2,OSCO*%
%TO.N,Net-(U5-OSCO)*%
X151115400Y-117729000D03*
%TO.P,U5,3,VBAT*%
%TO.N,Net-(BT1-+)*%
X151115400Y-118999000D03*
%TO.P,U5,4,VSS*%
%TO.N,GND*%
X151115400Y-120269000D03*
%TO.P,U5,5,SDA*%
%TO.N,RTC_SDA*%
X156065400Y-120269000D03*
%TO.P,U5,6,SCL*%
%TO.N,RTC_SCL*%
X156065400Y-118999000D03*
%TO.P,U5,7,~{INTA}*%
%TO.N,Net-(U5-~{INTA})*%
X156065400Y-117729000D03*
%TO.P,U5,8,VDD*%
%TO.N,3V3*%
X156065400Y-116459000D03*
%TD*%
D80*
%TO.P,J4,1,Pin_1*%
%TO.N,GSIN*%
X145568200Y-110555600D03*
%TO.P,J4,2,Pin_2*%
%TO.N,GCLK*%
X145568200Y-110055600D03*
%TO.P,J4,3,Pin_3*%
%TO.N,GLAT*%
X145568200Y-109555600D03*
%TO.P,J4,4,Pin_4*%
%TO.N,GSBLK*%
X145568200Y-109055600D03*
%TO.P,J4,5,Pin_5*%
%TO.N,SIN*%
X145568200Y-108555600D03*
%TO.P,J4,6,Pin_6*%
%TO.N,CLK*%
X145568200Y-108055600D03*
%TO.P,J4,7,Pin_7*%
%TO.N,LAT*%
X145568200Y-107555600D03*
%TO.P,J4,8,Pin_8*%
%TO.N,BLK*%
X145568200Y-107055600D03*
%TO.P,J4,9,Pin_9*%
%TO.N,GSOUT*%
X145568200Y-106555600D03*
%TO.P,J4,10,Pin_10*%
%TO.N,SOUT*%
X145568200Y-106055600D03*
D81*
%TO.P,J4,S1*%
%TO.N,N/C*%
X148218200Y-111345600D03*
%TO.P,J4,S2*%
X148218200Y-105265600D03*
%TD*%
D49*
%TO.P,D3,1,K*%
%TO.N,Net-(D3-K)*%
X231343200Y-113094500D03*
%TO.P,D3,2,A*%
%TO.N,Net-(D3-A)*%
X231343200Y-114669500D03*
%TD*%
D82*
%TO.P,U1,1,IOVDD*%
%TO.N,3V3*%
X222698000Y-87257500D03*
%TO.P,U1,2,GPIO0*%
%TO.N,uSD_DAT0*%
X223098000Y-87257500D03*
%TO.P,U1,3,GPIO1*%
%TO.N,uSD_DAT1*%
X223498000Y-87257500D03*
%TO.P,U1,4,GPIO2*%
%TO.N,uSD_DAT2*%
X223898000Y-87257500D03*
%TO.P,U1,5,GPIO3*%
%TO.N,uSD_DAT3*%
X224298000Y-87257500D03*
%TO.P,U1,6,GPIO4*%
%TO.N,uSD_CLK*%
X224698000Y-87257500D03*
%TO.P,U1,7,GPIO5*%
%TO.N,uSD_CMD*%
X225098000Y-87257500D03*
%TO.P,U1,8,GPIO6*%
%TO.N,PD_INT*%
X225498000Y-87257500D03*
%TO.P,U1,9,GPIO7*%
%TO.N,ONEWIRE_DETECT*%
X225898000Y-87257500D03*
%TO.P,U1,10,IOVDD*%
%TO.N,3V3*%
X226298000Y-87257500D03*
%TO.P,U1,11,GPIO8*%
%TO.N,PD_SDA*%
X226698000Y-87257500D03*
%TO.P,U1,12,GPIO9*%
%TO.N,PD_SCL*%
X227098000Y-87257500D03*
%TO.P,U1,13,GPIO10*%
%TO.N,RP2040_GPIO10*%
X227498000Y-87257500D03*
%TO.P,U1,14,GPIO11*%
%TO.N,RP2040_GPIO11*%
X227898000Y-87257500D03*
D83*
%TO.P,U1,15,GPIO12*%
%TO.N,RP2040_GPIO12*%
X228735500Y-86420000D03*
%TO.P,U1,16,GPIO13*%
%TO.N,RP2040_CE*%
X228735500Y-86020000D03*
%TO.P,U1,17,GPIO14*%
%TO.N,BATT_SDA*%
X228735500Y-85620000D03*
%TO.P,U1,18,GPIO15*%
%TO.N,BATT_SCL*%
X228735500Y-85220000D03*
%TO.P,U1,19,TESTEN*%
%TO.N,GND*%
X228735500Y-84820000D03*
%TO.P,U1,20,XIN*%
%TO.N,Net-(U1-XIN)*%
X228735500Y-84420000D03*
%TO.P,U1,21,XOUT*%
%TO.N,Net-(U1-XOUT)*%
X228735500Y-84020000D03*
%TO.P,U1,22,IOVDD*%
%TO.N,3V3*%
X228735500Y-83620000D03*
%TO.P,U1,23,DVDD*%
%TO.N,1V1*%
X228735500Y-83220000D03*
%TO.P,U1,24,SWCLK*%
%TO.N,SWCLK_RP2040*%
X228735500Y-82820000D03*
%TO.P,U1,25,SWD*%
%TO.N,SWD_RP2040*%
X228735500Y-82420000D03*
%TO.P,U1,26,RUN*%
%TO.N,RUN*%
X228735500Y-82020000D03*
%TO.P,U1,27,GPIO16*%
%TO.N,HUB_SDA*%
X228735500Y-81620000D03*
%TO.P,U1,28,GPIO17*%
%TO.N,HUB_SCL*%
X228735500Y-81220000D03*
D82*
%TO.P,U1,29,GPIO18*%
%TO.N,BATT_INT*%
X227898000Y-80382500D03*
%TO.P,U1,30,GPIO19*%
%TO.N,MOSI_INTER*%
X227498000Y-80382500D03*
%TO.P,U1,31,GPIO20*%
%TO.N,MISO_INTER*%
X227098000Y-80382500D03*
%TO.P,U1,32,GPIO21*%
%TO.N,RGB_DIN*%
X226698000Y-80382500D03*
%TO.P,U1,33,IOVDD*%
%TO.N,3V3*%
X226298000Y-80382500D03*
%TO.P,U1,34,GPIO22*%
%TO.N,SCLK_INTER*%
X225898000Y-80382500D03*
%TO.P,U1,35,GPIO23*%
%TO.N,LED*%
X225498000Y-80382500D03*
%TO.P,U1,36,GPIO24*%
%TO.N,unconnected-(U1-GPIO24-Pad36)*%
X225098000Y-80382500D03*
%TO.P,U1,37,GPIO25*%
%TO.N,unconnected-(U1-GPIO25-Pad37)*%
X224698000Y-80382500D03*
%TO.P,U1,38,GPIO26_ADC0*%
%TO.N,unconnected-(U1-GPIO26_ADC0-Pad38)*%
X224298000Y-80382500D03*
%TO.P,U1,39,GPIO27_ADC1*%
%TO.N,RP2040_GPIO27*%
X223898000Y-80382500D03*
%TO.P,U1,40,GPIO28_ADC2*%
%TO.N,RP2040_GPIO28*%
X223498000Y-80382500D03*
%TO.P,U1,41,GPIO29_ADC3*%
%TO.N,RP2040_GPIO29*%
X223098000Y-80382500D03*
%TO.P,U1,42,IOVDD*%
%TO.N,3V3*%
X222698000Y-80382500D03*
D83*
%TO.P,U1,43,ADC_AVDD*%
X221860500Y-81220000D03*
%TO.P,U1,44,VREG_IN*%
X221860500Y-81620000D03*
%TO.P,U1,45,VREG_VOUT*%
%TO.N,1V1*%
X221860500Y-82020000D03*
%TO.P,U1,46,USB_DM*%
%TO.N,/2040_D-*%
X221860500Y-82420000D03*
%TO.P,U1,47,USB_DP*%
%TO.N,/2040_D+*%
X221860500Y-82820000D03*
%TO.P,U1,48,USB_VDD*%
%TO.N,3V3*%
X221860500Y-83220000D03*
%TO.P,U1,49,IOVDD*%
X221860500Y-83620000D03*
%TO.P,U1,50,DVDD*%
%TO.N,1V1*%
X221860500Y-84020000D03*
%TO.P,U1,51,QSPI_SD3*%
%TO.N,QSPI_SD3*%
X221860500Y-84420000D03*
%TO.P,U1,52,QSPI_SCLK*%
%TO.N,QSPI_SCLK*%
X221860500Y-84820000D03*
%TO.P,U1,53,QSPI_SD0*%
%TO.N,QSPI_SD0*%
X221860500Y-85220000D03*
%TO.P,U1,54,QSPI_SD2*%
%TO.N,QSPI_SD2*%
X221860500Y-85620000D03*
%TO.P,U1,55,QSPI_SD1*%
%TO.N,QSPI__SD1*%
X221860500Y-86020000D03*
%TO.P,U1,56,QSPI_SS*%
%TO.N,QSPI_SS*%
X221860500Y-86420000D03*
D84*
%TO.P,U1,57,GND*%
%TO.N,GND*%
X225298000Y-83820000D03*
%TD*%
D85*
%TO.P,Y3,1,1*%
%TO.N,Net-(U5-OSCO)*%
X145767600Y-117119400D03*
%TO.P,Y3,2,2*%
%TO.N,Net-(U5-OSCI)*%
X148267600Y-117119400D03*
%TD*%
D10*
%TO.P,R37,1*%
%TO.N,Net-(U5-~{INTA})*%
X158338100Y-117703600D03*
%TO.P,R37,2*%
%TO.N,3V3*%
X159533100Y-117703600D03*
%TD*%
D18*
%TO.P,C58,1*%
%TO.N,GND*%
X157706600Y-75759200D03*
%TO.P,C58,2*%
%TO.N,3V3*%
X156156600Y-75759200D03*
%TD*%
D17*
%TO.P,C38,1*%
%TO.N,GND*%
X224194400Y-107665082D03*
%TO.P,C38,2*%
%TO.N,BATT_MONITOR*%
X225329400Y-107665082D03*
%TD*%
D86*
%TO.P,J2,A1,GND*%
%TO.N,GND*%
X229090400Y-100064500D03*
%TO.P,J2,A4,VBUS*%
%TO.N,VBUS*%
X229090400Y-99264500D03*
D87*
%TO.P,J2,A5,CC1*%
%TO.N,CC1*%
X229090400Y-98114500D03*
%TO.P,J2,A6,D+*%
%TO.N,UP_D+*%
X229090400Y-97114500D03*
%TO.P,J2,A7,D-*%
%TO.N,UP_D-*%
X229090400Y-96614500D03*
%TO.P,J2,A8,SBU1*%
%TO.N,unconnected-(J2-SBU1-PadA8)*%
X229090400Y-95614500D03*
D86*
%TO.P,J2,A9,VBUS*%
%TO.N,VBUS*%
X229090400Y-94464500D03*
%TO.P,J2,A12,GND*%
%TO.N,GND*%
X229090400Y-93664500D03*
%TO.P,J2,B1,GND*%
X229090400Y-93664500D03*
%TO.P,J2,B4,VBUS*%
%TO.N,VBUS*%
X229090400Y-94464500D03*
D87*
%TO.P,J2,B5,CC2*%
%TO.N,CC2*%
X229090400Y-95114500D03*
%TO.P,J2,B6,D+*%
%TO.N,UP_D+*%
X229090400Y-96114500D03*
%TO.P,J2,B7,D-*%
%TO.N,UP_D-*%
X229090400Y-97614500D03*
%TO.P,J2,B8,SBU2*%
%TO.N,unconnected-(J2-SBU2-PadB8)*%
X229090400Y-98614500D03*
D86*
%TO.P,J2,B9,VBUS*%
%TO.N,VBUS*%
X229090400Y-99264500D03*
%TO.P,J2,B12,GND*%
%TO.N,GND*%
X229090400Y-100064500D03*
D88*
%TO.P,J2,S1,SHIELD*%
X229690400Y-101184500D03*
D89*
X233890400Y-101184500D03*
D88*
X229690400Y-92544500D03*
D89*
X233890400Y-92544500D03*
%TD*%
D10*
%TO.P,R53,1*%
%TO.N,Net-(U7-VFB)*%
X165636600Y-81559200D03*
%TO.P,R53,2*%
%TO.N,GND*%
X166831600Y-81559200D03*
%TD*%
D90*
%TO.P,U4,1,CC2*%
%TO.N,CC2*%
X219020900Y-96501500D03*
%TO.P,U4,2,VBUS*%
%TO.N,VBUS*%
X219020900Y-97001500D03*
%TO.P,U4,3,VDD*%
%TO.N,3V3*%
X219020900Y-97501500D03*
D91*
%TO.P,U4,4,VDD*%
X219533400Y-98264000D03*
%TO.P,U4,5,INT_N*%
%TO.N,PD_INT*%
X220033400Y-98264000D03*
%TO.P,U4,6,SCL*%
%TO.N,PD_SCL*%
X220533400Y-98264000D03*
%TO.P,U4,7,SDA*%
%TO.N,PD_SDA*%
X221033400Y-98264000D03*
D90*
%TO.P,U4,8,GND*%
%TO.N,GND*%
X221545900Y-97501500D03*
%TO.P,U4,9,GND*%
X221545900Y-97001500D03*
%TO.P,U4,10,CC1*%
%TO.N,CC1*%
X221545900Y-96501500D03*
D91*
%TO.P,U4,11,CC1*%
X221033400Y-95739000D03*
%TO.P,U4,12,VCONN*%
%TO.N,VCONN*%
X220533400Y-95739000D03*
%TO.P,U4,13,VCONN*%
X220033400Y-95739000D03*
%TO.P,U4,14,CC2*%
%TO.N,CC2*%
X219533400Y-95739000D03*
D92*
%TO.P,U4,15,GND*%
%TO.N,GND*%
X220283400Y-97001500D03*
%TD*%
D10*
%TO.P,R8,1*%
%TO.N,Net-(U1-XOUT)*%
X231228300Y-84658200D03*
%TO.P,R8,2*%
%TO.N,Net-(C2-Pad2)*%
X232423300Y-84658200D03*
%TD*%
D12*
%TO.P,R51,1*%
%TO.N,Net-(D12-A)*%
X217546400Y-104940582D03*
%TO.P,R51,2*%
%TO.N,VBAT*%
X217546400Y-106135582D03*
%TD*%
D19*
%TO.P,R44,1*%
%TO.N,VSYS*%
X166703000Y-90242400D03*
%TO.P,R44,2*%
%TO.N,Net-(U8-EN)*%
X165508000Y-90242400D03*
%TD*%
D93*
%TO.P,U10,1,BOOT*%
%TO.N,Net-(U10-BOOT)*%
X174182000Y-88098400D03*
%TO.P,U10,2,VIN*%
%TO.N,EXT_PWR*%
X175452000Y-88098400D03*
%TO.P,U10,3,EN*%
%TO.N,Net-(U10-EN)*%
X176722000Y-88098400D03*
%TO.P,U10,4,SS*%
%TO.N,Net-(U10-SS)*%
X177992000Y-88098400D03*
%TO.P,U10,5,VSENSE*%
%TO.N,Net-(U10-VSENSE)*%
X177992000Y-83148400D03*
%TO.P,U10,6,COMP*%
%TO.N,Net-(U10-COMP)*%
X176722000Y-83148400D03*
%TO.P,U10,7,GND*%
%TO.N,GND*%
X175452000Y-83148400D03*
%TO.P,U10,8,PH*%
%TO.N,Net-(D10-A)*%
X174182000Y-83148400D03*
%TD*%
D94*
%TO.P,D8,1,K*%
%TO.N,EXT_PWR*%
X202543200Y-117322600D03*
%TO.P,D8,2,A*%
%TO.N,VBUS*%
X209343200Y-117322600D03*
%TD*%
D11*
%TO.P,C1,1*%
%TO.N,GND*%
X232402000Y-89230200D03*
%TO.P,C1,2*%
%TO.N,Net-(U1-XIN)*%
X231267000Y-89230200D03*
%TD*%
D95*
%TO.P,F1,1*%
%TO.N,Net-(D9-K)*%
X220765900Y-112617582D03*
%TO.P,F1,2*%
%TO.N,Net-(U11-IN)*%
X220765900Y-113762582D03*
%TD*%
D94*
%TO.P,D7,1,K*%
%TO.N,EXT_PWR*%
X202568600Y-110337600D03*
%TO.P,D7,2,A*%
%TO.N,Net-(D7-A)*%
X209368600Y-110337600D03*
%TD*%
D17*
%TO.P,C9,1*%
%TO.N,Net-(U2-PLLFILT)*%
X201020200Y-81420300D03*
%TO.P,C9,2*%
%TO.N,GND*%
X202155200Y-81420300D03*
%TD*%
D50*
%TO.P,C29,1*%
%TO.N,VCONN*%
X217510400Y-93780000D03*
%TO.P,C29,2*%
%TO.N,GND*%
X217510400Y-92645000D03*
%TD*%
D96*
%TO.P,C48,1*%
%TO.N,Net-(U11-IN)*%
X217463900Y-112835582D03*
%TO.P,C48,2*%
%TO.N,GND*%
X217463900Y-114560582D03*
%TD*%
D12*
%TO.P,R17,1*%
%TO.N,HUB_SCL*%
X196456900Y-91619000D03*
%TO.P,R17,2*%
%TO.N,3V3*%
X196456900Y-92814000D03*
%TD*%
D10*
%TO.P,R9,1*%
%TO.N,Net-(U2-XTAL2)*%
X203403200Y-81420300D03*
%TO.P,R9,2*%
%TO.N,Net-(C5-Pad2)*%
X204598200Y-81420300D03*
%TD*%
D17*
%TO.P,C36,1*%
%TO.N,GND*%
X208948400Y-80518000D03*
%TO.P,C36,2*%
%TO.N,3V3*%
X210083400Y-80518000D03*
%TD*%
D97*
%TO.P,J5,1,3V3*%
%TO.N,Net-(J5-3V3-Pad1)*%
X150368000Y-99151400D03*
D98*
%TO.P,J5,2,5V*%
%TO.N,Net-(D6-K)*%
X150368000Y-101691400D03*
%TO.P,J5,3,SDA/GPIO2*%
%TO.N,RTC_SDA*%
X152908000Y-99151400D03*
%TO.P,J5,4,5V*%
%TO.N,Net-(D6-K)*%
X152908000Y-101691400D03*
%TO.P,J5,5,SCL/GPIO3*%
%TO.N,RTC_SCL*%
X155448000Y-99151400D03*
%TO.P,J5,6,GND*%
%TO.N,GND*%
X155448000Y-101691400D03*
%TO.P,J5,7,GCLK0/GPIO4*%
%TO.N,LAT*%
X157988000Y-99151400D03*
%TO.P,J5,8,GPIO14/TXD*%
%TO.N,RPI0_GPIO14*%
X157988000Y-101691400D03*
%TO.P,J5,9,GND*%
%TO.N,GND*%
X160528000Y-99151400D03*
%TO.P,J5,10,GPIO15/RXD*%
%TO.N,RPI0_GPIO15*%
X160528000Y-101691400D03*
%TO.P,J5,11,GPIO17*%
%TO.N,RPI0_GPIO17*%
X163068000Y-99151400D03*
%TO.P,J5,12,GPIO18/PWM0*%
%TO.N,RPI0_GPIO18*%
X163068000Y-101691400D03*
%TO.P,J5,13,GPIO27*%
%TO.N,CLK*%
X165608000Y-99151400D03*
%TO.P,J5,14,GND*%
%TO.N,GND*%
X165608000Y-101691400D03*
%TO.P,J5,15,GPIO22*%
%TO.N,GSIN*%
X168148000Y-99151400D03*
%TO.P,J5,16,GPIO23*%
%TO.N,GSOUT*%
X168148000Y-101691400D03*
%TO.P,J5,17,3V3*%
%TO.N,Net-(J5-3V3-Pad1)*%
X170688000Y-99151400D03*
%TO.P,J5,18,GPIO24*%
%TO.N,GCLK*%
X170688000Y-101691400D03*
%TO.P,J5,19,MOSI0/GPIO10*%
%TO.N,MOSI_INTER*%
X173228000Y-99151400D03*
%TO.P,J5,20,GND*%
%TO.N,GND*%
X173228000Y-101691400D03*
%TO.P,J5,21,MISO0/GPIO9*%
%TO.N,MISO_INTER*%
X175768000Y-99151400D03*
%TO.P,J5,22,GPIO25*%
%TO.N,GLAT*%
X175768000Y-101691400D03*
%TO.P,J5,23,SCLK0/GPIO11*%
%TO.N,SCLK_INTER*%
X178308000Y-99151400D03*
%TO.P,J5,24,~{CE0}/GPIO8*%
%TO.N,RP2040_CE*%
X178308000Y-101691400D03*
%TO.P,J5,25,GND*%
%TO.N,GND*%
X180848000Y-99151400D03*
%TO.P,J5,26,~{CE1}/GPIO7*%
%TO.N,RPI0_GPIO7*%
X180848000Y-101691400D03*
%TO.P,J5,27,ID_SD/GPIO0*%
%TO.N,RPI0_GPIO0*%
X183388000Y-99151400D03*
%TO.P,J5,28,ID_SC/GPIO1*%
%TO.N,RPI0_GPIO1*%
X183388000Y-101691400D03*
%TO.P,J5,29,GCLK1/GPIO5*%
%TO.N,SOUT*%
X185928000Y-99151400D03*
%TO.P,J5,30,GND*%
%TO.N,GND*%
X185928000Y-101691400D03*
%TO.P,J5,31,GCLK2/GPIO6*%
%TO.N,SIN*%
X188468000Y-99151400D03*
%TO.P,J5,32,PWM0/GPIO12*%
%TO.N,RPI0_GPIO12*%
X188468000Y-101691400D03*
%TO.P,J5,33,PWM1/GPIO13*%
%TO.N,RPI0_GPIO13*%
X191008000Y-99151400D03*
%TO.P,J5,34,GND*%
%TO.N,GND*%
X191008000Y-101691400D03*
%TO.P,J5,35,GPIO19/MISO1*%
%TO.N,RPI0_GPIO19*%
X193548000Y-99151400D03*
%TO.P,J5,36,GPIO16*%
%TO.N,BLK*%
X193548000Y-101691400D03*
%TO.P,J5,37,GPIO26*%
%TO.N,GSBLK*%
X196088000Y-99151400D03*
%TO.P,J5,38,GPIO20/MOSI1*%
%TO.N,RPI0_GPIO20*%
X196088000Y-101691400D03*
%TO.P,J5,39,GND*%
%TO.N,GND*%
X198628000Y-99151400D03*
%TO.P,J5,40,GPIO21/SCLK1*%
%TO.N,RPI0_GPIO21*%
X198628000Y-101691400D03*
%TD*%
D99*
%TO.N,Net-(BT1-+)*%
X149374000Y-119253000D03*
%TO.N,GND*%
X174774000Y-114198400D03*
X203658700Y-86457300D03*
X163054600Y-87731400D03*
X166554600Y-87731400D03*
X176885600Y-85674200D03*
X179146200Y-84632800D03*
D100*
X144170400Y-117144800D03*
D99*
X167104600Y-88181400D03*
X219473100Y-78129149D03*
X197396700Y-84188900D03*
X228431600Y-106095800D03*
X172135800Y-86461600D03*
X159081600Y-79509200D03*
X233451400Y-112953800D03*
X174088200Y-113436400D03*
D101*
X188214000Y-85877400D03*
D99*
X174802800Y-84963000D03*
X217914400Y-117308082D03*
X232968800Y-89255600D03*
X217463900Y-115349082D03*
X168144100Y-79364755D03*
D101*
X188620400Y-84785200D03*
D99*
X218228100Y-83388200D03*
X165231600Y-77959200D03*
D101*
X222707200Y-90855800D03*
D99*
X156581600Y-79259200D03*
X167681600Y-78909200D03*
X226847400Y-118059200D03*
D101*
X208534000Y-83439000D03*
D100*
X146583400Y-119049800D03*
D99*
X159666000Y-88820000D03*
X225000000Y-93595700D03*
X235686600Y-83210400D03*
X170738800Y-86461600D03*
D101*
X215265000Y-90271600D03*
D99*
X159781600Y-79509200D03*
X174091600Y-85648800D03*
X157278400Y-89023200D03*
X165854600Y-87731400D03*
X202984700Y-88151300D03*
X159781600Y-78809200D03*
D100*
X213690200Y-120650000D03*
D99*
X231479600Y-106095800D03*
X221574400Y-92196500D03*
D100*
X172440600Y-90525600D03*
D99*
X212035200Y-76018200D03*
X224622400Y-98038500D03*
X172135800Y-85750400D03*
X231622600Y-86106000D03*
D101*
X188595000Y-86944200D03*
D99*
X233248200Y-116306600D03*
X159081600Y-78809200D03*
X174774000Y-113436400D03*
X174091600Y-84963000D03*
X158853200Y-86991200D03*
X176199800Y-86385400D03*
X176885600Y-86385400D03*
X170738800Y-85750400D03*
X202984700Y-82817300D03*
D101*
X224565001Y-78575000D03*
D99*
X196126700Y-86322500D03*
X195313900Y-93383700D03*
X201003500Y-93384900D03*
X202095700Y-80785300D03*
X167181600Y-78409200D03*
X213664400Y-107058082D03*
X157938800Y-89023200D03*
X155881600Y-79259200D03*
X181660800Y-81559400D03*
X229955600Y-106095800D03*
X158881600Y-75459200D03*
D101*
X232918000Y-83566000D03*
D99*
X235661200Y-78968600D03*
D100*
X146735800Y-120065800D03*
D99*
X199682700Y-79515300D03*
X205155800Y-83997800D03*
X163131600Y-77959200D03*
D100*
X152527000Y-120243600D03*
D99*
X174091600Y-86360000D03*
X166631600Y-77959200D03*
D101*
X224536000Y-83997800D03*
D99*
X226164400Y-106308082D03*
X176199800Y-84988400D03*
D101*
X232892600Y-82499200D03*
D99*
X196126700Y-85306500D03*
D101*
X226415600Y-83997800D03*
D99*
X155957600Y-89023200D03*
X219034400Y-90926500D03*
X220414400Y-109558082D03*
X194958300Y-85306500D03*
X229168200Y-106095800D03*
X158881600Y-76159200D03*
X233299000Y-75412600D03*
X165931600Y-77959200D03*
X174802800Y-86360000D03*
X158853200Y-85365600D03*
X171424600Y-85750400D03*
X167331600Y-81559200D03*
X159666000Y-89531200D03*
D101*
X225171000Y-83997800D03*
D99*
X175488600Y-86385400D03*
X171424600Y-86461600D03*
X196126700Y-84188900D03*
X163831600Y-77959200D03*
X164531600Y-77959200D03*
X159005600Y-89531200D03*
X196138800Y-78588600D03*
X215859400Y-99435500D03*
X165154600Y-87731400D03*
X197447500Y-85306500D03*
D101*
X208500000Y-80250000D03*
D99*
X176199800Y-85674200D03*
X225679000Y-90754200D03*
X175459800Y-113436400D03*
X227695000Y-106095800D03*
X156618000Y-89023200D03*
X175459800Y-114198400D03*
X235254800Y-84658200D03*
X175488600Y-85674200D03*
X164454600Y-87731400D03*
X181635400Y-74599800D03*
D101*
X208409100Y-81777700D03*
D99*
X167286000Y-91360000D03*
X220558400Y-92196500D03*
X158881600Y-76859200D03*
X177596800Y-85674200D03*
X220283400Y-97001500D03*
X168067100Y-89136955D03*
X167604600Y-88681400D03*
X197396700Y-86322500D03*
D101*
X178917600Y-92500000D03*
D99*
X224866200Y-118110000D03*
X159005600Y-88820000D03*
X163754600Y-87731400D03*
X174088200Y-114198400D03*
X201460700Y-89929300D03*
X157981600Y-79259200D03*
X158881600Y-77559200D03*
X176885600Y-84988400D03*
D101*
X225780600Y-83997800D03*
D99*
X197599900Y-93434500D03*
X226100000Y-74790100D03*
X194907500Y-84188900D03*
X177596800Y-84988400D03*
X217510400Y-91942500D03*
X224510600Y-92049600D03*
X158853200Y-86026000D03*
X174802800Y-85648800D03*
X178993800Y-82600800D03*
X222051900Y-116558082D03*
X157281600Y-79259200D03*
X215097400Y-98165500D03*
X175488600Y-84988400D03*
X177596800Y-86385400D03*
X194907500Y-86322500D03*
X158853200Y-87651600D03*
D100*
X158699200Y-115138200D03*
X172593000Y-92633800D03*
D99*
X204598200Y-80277300D03*
X230717600Y-106095800D03*
X204254700Y-91479900D03*
%TO.N,3V3*%
X156337000Y-115646200D03*
X210163487Y-91440141D03*
D100*
X152349200Y-75920600D03*
D101*
X193659587Y-92266554D03*
X215595200Y-74828400D03*
D100*
X151231600Y-75920600D03*
D99*
X195028730Y-91934612D03*
D101*
X195757800Y-90644048D03*
X189212600Y-83680900D03*
X222529400Y-89382600D03*
X218465400Y-98856800D03*
D99*
X227076000Y-112674400D03*
X219914400Y-116558082D03*
D101*
X220878400Y-79044800D03*
D100*
X152349200Y-77190600D03*
D101*
X210947000Y-81356200D03*
X190373000Y-86944200D03*
D99*
X160451800Y-117983000D03*
D100*
X150114000Y-75895200D03*
D99*
X220319600Y-74768000D03*
D101*
X198922319Y-92412261D03*
D99*
X224967800Y-89687400D03*
X199682700Y-82309300D03*
D101*
X220091000Y-83515200D03*
D99*
X226319813Y-78188748D03*
D101*
X195185370Y-78650170D03*
X189179200Y-88747600D03*
D99*
X225602800Y-117224300D03*
D101*
X218465400Y-98272600D03*
D100*
X151231600Y-77190600D03*
D99*
X230994509Y-83593842D03*
D101*
X190931800Y-81915000D03*
D100*
X150114000Y-77165200D03*
D101*
X200177400Y-88900000D03*
D100*
%TO.N,VSYS*%
X156006800Y-83261200D03*
X183718200Y-80594200D03*
X184835800Y-80619600D03*
X211759800Y-108940600D03*
X157200600Y-92989400D03*
D99*
X167331600Y-80459200D03*
D100*
X212852000Y-110032800D03*
X159385000Y-83235800D03*
X156083000Y-92989400D03*
D99*
X161190000Y-93036400D03*
D100*
X211734400Y-110007400D03*
X157124400Y-83261200D03*
X159461200Y-92964000D03*
D99*
X167286000Y-90242400D03*
D100*
X212877400Y-108966000D03*
X158242000Y-83261200D03*
X183743600Y-79527400D03*
D99*
X161331600Y-83209200D03*
D100*
X158318200Y-92989400D03*
D99*
X221991400Y-107203082D03*
D100*
X184861200Y-79552800D03*
%TO.N,5V*%
X160174793Y-114675207D03*
D99*
X235178600Y-86893400D03*
D100*
X175945800Y-121031000D03*
X151206200Y-86995000D03*
X152323800Y-87020400D03*
X152323800Y-85750400D03*
D99*
X234543600Y-80187800D03*
D100*
X161574793Y-116075207D03*
X176733200Y-121742200D03*
X150088600Y-85725000D03*
D99*
X232841800Y-122453400D03*
D100*
X151206200Y-85725000D03*
X150088600Y-86995000D03*
X160887293Y-115387707D03*
D99*
%TO.N,B+*%
X231038400Y-108077000D03*
X222914400Y-109308082D03*
X222914400Y-105558082D03*
X222914400Y-107808082D03*
X222914400Y-108558082D03*
X228295200Y-108102400D03*
X222914400Y-107058082D03*
X227609400Y-108102400D03*
X228981000Y-108077000D03*
X223664400Y-106308082D03*
X223664400Y-105558082D03*
X230352600Y-108077000D03*
X222914400Y-106308082D03*
X229666800Y-108077000D03*
D100*
%TO.N,VCONN*%
X216839800Y-94564200D03*
X211378800Y-101955600D03*
X211378800Y-103657400D03*
X216839800Y-95631000D03*
X214742005Y-99170233D03*
X211378800Y-104698800D03*
D99*
%TO.N,CC1*%
X227924400Y-98214500D03*
X225638400Y-94990500D03*
%TO.N,CC2*%
X223672400Y-95885000D03*
X219034400Y-94990500D03*
D100*
%TO.N,EXT_PWR*%
X201904600Y-116179600D03*
X203149200Y-111480600D03*
X203149200Y-117297200D03*
X201904600Y-109245400D03*
X176530000Y-94259400D03*
X203174600Y-116179600D03*
X201879200Y-111480600D03*
X175260000Y-94259400D03*
X174015400Y-94259400D03*
X201879200Y-117297200D03*
X203149200Y-118414800D03*
X201879200Y-110363000D03*
X203149200Y-110363000D03*
X172745400Y-94259400D03*
X201879200Y-118414800D03*
X203174600Y-109245400D03*
D99*
%TO.N,Net-(U10-COMP)*%
X181432200Y-83642200D03*
X176722000Y-83148400D03*
%TO.N,RGB_DIN*%
X233095800Y-79679800D03*
X226885500Y-78754435D03*
%TO.N,LED*%
X231927400Y-75412600D03*
X228447600Y-75717400D03*
D101*
%TO.N,VBUS*%
X227543400Y-94482500D03*
X227416400Y-101848500D03*
D99*
X210567765Y-98731565D03*
D100*
X209981800Y-117322600D03*
D99*
X210032600Y-107823000D03*
D101*
X226781400Y-93466500D03*
D100*
X208737200Y-116205000D03*
X210007200Y-116205000D03*
D99*
X201507600Y-99288600D03*
D101*
X227196711Y-93962467D03*
D100*
X208711800Y-117322600D03*
D101*
X228178400Y-94482500D03*
X226908400Y-101848500D03*
D100*
X209981800Y-118440200D03*
D99*
X217900400Y-96494500D03*
D101*
X226908400Y-101340500D03*
D99*
X206298800Y-97713800D03*
D101*
X226400400Y-101848500D03*
D100*
X208711800Y-118440200D03*
D99*
X209245200Y-101930200D03*
X211328000Y-99796600D03*
%TO.N,Net-(D14-A)*%
X184277000Y-75742800D03*
X183261000Y-81737200D03*
D101*
%TO.N,uSD_CMD*%
X226263200Y-86258400D03*
%TO.N,uSD_CLK*%
X224067600Y-88174400D03*
%TO.N,uSD_DAT3*%
X225100000Y-85950000D03*
%TO.N,uSD_DAT1*%
X223400000Y-85875000D03*
%TO.N,uSD_DAT2*%
X224190651Y-85910566D03*
%TO.N,uSD_DAT0*%
X222770700Y-86347300D03*
D99*
%TO.N,SWD_RP2040*%
X229844600Y-74777600D03*
X216560400Y-78028800D03*
%TO.N,SWCLK_RP2040*%
X231343200Y-81584800D03*
D101*
X213835633Y-77527977D03*
D99*
%TO.N,EXTRA_USB3_D+*%
X202565000Y-97021200D03*
X190174079Y-96351047D03*
X194259200Y-76606400D03*
X209785400Y-97815400D03*
X193716178Y-77866622D03*
%TO.N,EXTRA_USB4_D-*%
X188269079Y-104491321D03*
X186740800Y-95935800D03*
X190020929Y-97637600D03*
X173188675Y-107701367D03*
X177795404Y-103976204D03*
X184636879Y-90470521D03*
X192201739Y-78597543D03*
X171392400Y-110566200D03*
%TO.N,EXTRA_USB4_D+*%
X187680600Y-96389700D03*
X177795404Y-103126204D03*
X172587633Y-107100325D03*
X192201739Y-79447543D03*
X188870121Y-103890279D03*
X170542400Y-110566200D03*
X188950600Y-97739200D03*
X185237921Y-89869479D03*
%TO.N,SCLK_INTER*%
X182880000Y-94056200D03*
X225339168Y-78876632D03*
%TO.N,RPI0_GPIO20*%
X199669400Y-103809800D03*
X198297800Y-104978200D03*
%TO.N,RP2040_CE*%
X179587026Y-98180026D03*
X183252226Y-95038026D03*
D101*
X227685600Y-85369400D03*
D99*
%TO.N,RTC_SDA*%
X157462400Y-120269000D03*
%TO.N,MOSI_INTER*%
X210566000Y-78409800D03*
X227493909Y-81198458D03*
%TO.N,RPI0_GPIO17*%
X184632600Y-100965000D03*
X172974000Y-97713800D03*
X181838600Y-104902000D03*
%TO.N,GSIN*%
X152349200Y-110759800D03*
%TO.N,RPI0_GPIO18*%
X163017200Y-111125000D03*
X190246000Y-110893100D03*
X158826200Y-110820200D03*
X188824485Y-112040830D03*
X156311600Y-107569000D03*
X156083000Y-109169200D03*
%TO.N,RPI0_GPIO0*%
X175006000Y-110286800D03*
X182067200Y-100939600D03*
%TO.N,MISO_INTER*%
X227968674Y-78634726D03*
X209499200Y-78587600D03*
%TO.N,RPI0_GPIO19*%
X198729600Y-106527600D03*
%TO.N,SOUT*%
X149758400Y-104165400D03*
%TO.N,RPI0_GPIO7*%
X177749200Y-111556800D03*
%TO.N,GSOUT*%
X155244800Y-104800400D03*
X150698200Y-104140000D03*
%TO.N,RPI0_GPIO14*%
X170053000Y-108585000D03*
X157784800Y-103987600D03*
X156972000Y-106857800D03*
X189230000Y-110490000D03*
X163322000Y-109372400D03*
%TO.N,BLK*%
X170840400Y-95834200D03*
X163728400Y-103403400D03*
X151942800Y-103174800D03*
%TO.N,GSBLK*%
X171627800Y-97815400D03*
X159105600Y-105410000D03*
X150698200Y-109245400D03*
X152755600Y-107772200D03*
X161772600Y-102438200D03*
X170307000Y-96647000D03*
X182600600Y-97409000D03*
X160197800Y-104038400D03*
%TO.N,RTC_SCL*%
X157513200Y-118948200D03*
%TO.N,RPI0_GPIO15*%
X158165800Y-106807000D03*
X159131000Y-103784400D03*
X167132000Y-105892600D03*
X180797200Y-105816400D03*
X177519523Y-104727132D03*
X173304200Y-108661200D03*
%TO.N,RPI0_GPIO21*%
X196697600Y-104444800D03*
%TO.N,UP_D-*%
X224881506Y-100981613D03*
X210798879Y-94712321D03*
%TO.N,UP_D+*%
X211399921Y-94111279D03*
X224997400Y-99999800D03*
%TO.N,RP2040_GPIO11*%
X194716400Y-113741200D03*
X219583000Y-75377600D03*
X191541400Y-88188800D03*
X232333800Y-76885800D03*
X218046615Y-74640318D03*
%TO.N,ONEWIRE_DETECT*%
X205333600Y-105435400D03*
%TO.N,RP2040_GPIO12*%
X201244200Y-94361000D03*
X233934000Y-89255600D03*
%TO.N,RP2040_GPIO10*%
X235661200Y-89382600D03*
X235915200Y-98856800D03*
%TO.N,RP2040_GPIO29*%
X211079526Y-80312977D03*
X209087727Y-91140273D03*
X205383151Y-82982886D03*
X222945575Y-81284318D03*
X214858600Y-80264000D03*
%TO.N,RP2040_D+*%
X199699079Y-78278521D03*
X217236121Y-83764819D03*
X209875921Y-85415921D03*
X206296006Y-81522648D03*
%TO.N,RP2040_D-*%
X198740765Y-79106765D03*
X216635079Y-83163777D03*
X206897048Y-80921606D03*
X209274879Y-84814879D03*
D101*
%TO.N,QSPI_SS*%
X209956400Y-90398600D03*
X213541475Y-90935675D03*
D99*
%TO.N,CHRG_CTRL_1*%
X226237800Y-116560600D03*
X222414400Y-114808082D03*
%TO.N,CHRG_CTRL_2*%
X220914400Y-114808082D03*
X224256600Y-117271800D03*
%TO.N,BATT_SDA*%
X229514400Y-87884000D03*
X223914400Y-115558082D03*
%TO.N,BATT_SCL*%
X230200200Y-88544400D03*
X225664400Y-115808082D03*
%TO.N,HUB_SDA*%
X206984600Y-86995000D03*
X194577664Y-91181548D03*
X219506800Y-76591550D03*
X230250000Y-78750000D03*
%TO.N,HUB_SCL*%
X196714199Y-90585650D03*
X215639817Y-83120200D03*
X219710505Y-77365183D03*
X227250621Y-77422500D03*
%TO.N,PD_SDA*%
X234899200Y-91135200D03*
X234518200Y-102641400D03*
%TO.N,PD_SCL*%
X229387400Y-90652600D03*
X220954600Y-100431600D03*
X222326200Y-100609400D03*
X225171000Y-101876100D03*
%TO.N,PD_INT*%
X215083900Y-95859600D03*
X220091000Y-99060000D03*
%TO.N,BATT_INT*%
X190068200Y-89306400D03*
X215425000Y-103800000D03*
X206121000Y-95453200D03*
X189992000Y-94059500D03*
X214960200Y-110413800D03*
X210208626Y-96200237D03*
X209296000Y-75869800D03*
X228799900Y-80184500D03*
X212772530Y-75707799D03*
X223443800Y-117908082D03*
D101*
%TO.N,QSPI__SD1*%
X213156800Y-87807800D03*
X216966800Y-88366600D03*
%TO.N,QSPI_SD3*%
X223248001Y-83962954D03*
X212300000Y-85325000D03*
%TO.N,QSPI_SCLK*%
X214650000Y-86450000D03*
X223247999Y-85131104D03*
D99*
%TO.N,Net-(U7-SW)*%
X158981600Y-80759200D03*
X150681600Y-82609200D03*
X152381600Y-82609200D03*
X159631600Y-80759200D03*
X159631600Y-81409200D03*
X151531600Y-82609200D03*
X162181600Y-79059200D03*
X150673600Y-81908200D03*
X158981600Y-81409200D03*
X151531600Y-81859200D03*
X152324600Y-81908200D03*
%TO.N,Net-(U8-SW)*%
X159691400Y-90471000D03*
X150166400Y-92376000D03*
X152325400Y-92376000D03*
X150166400Y-91614000D03*
X151309400Y-92376000D03*
X152325400Y-91614000D03*
X158929400Y-90471000D03*
X159691400Y-91233000D03*
X162358400Y-88870800D03*
X158929400Y-91233000D03*
X151309400Y-91614000D03*
D100*
%TO.N,Net-(D7-A)*%
X209981800Y-110337600D03*
X209981800Y-111455200D03*
X208737200Y-109220000D03*
X210007200Y-109220000D03*
X208711800Y-110337600D03*
X208711800Y-111455200D03*
D99*
%TO.N,Net-(U2-RBIAS)*%
X200984450Y-83674550D03*
X203403200Y-80277300D03*
%TO.N,EXTRA_USB3_D-*%
X190775121Y-95750005D03*
X202565000Y-96171200D03*
X210635400Y-97815400D03*
%TD*%
D102*
%TO.N,Net-(BT1-+)*%
X149560400Y-118999000D02*
X151115400Y-118999000D01*
X148468200Y-120091200D02*
X149560400Y-118999000D01*
D103*
%TO.N,GND*%
X221090400Y-108051582D02*
X221090400Y-108739082D01*
X218278900Y-79095600D02*
X219245351Y-78129149D01*
D104*
X202095700Y-80785300D02*
X202155200Y-80725800D01*
X165154600Y-87731400D02*
X165854600Y-87731400D01*
D102*
X197574500Y-93409100D02*
X197599900Y-93434500D01*
D103*
X222976900Y-116808082D02*
X222264400Y-116808082D01*
X189238000Y-85877400D02*
X188214000Y-85877400D01*
D104*
X233437600Y-112967600D02*
X233451400Y-112953800D01*
D102*
X233058650Y-75168250D02*
X233058650Y-75172250D01*
D104*
X173370200Y-92633800D02*
X172593000Y-92633800D01*
X147508200Y-120091200D02*
X146761200Y-120091200D01*
D102*
X233422600Y-87806000D02*
X233822600Y-87806000D01*
D104*
X166554600Y-87731400D02*
X166654600Y-87731400D01*
X165854600Y-87731400D02*
X166554600Y-87731400D01*
D102*
X231722600Y-86106000D02*
X233422600Y-87806000D01*
D103*
X212801200Y-76784200D02*
X212035200Y-76018200D01*
D102*
X203433200Y-82563300D02*
X203238700Y-82563300D01*
X179703000Y-84785200D02*
X179298600Y-84785200D01*
X224876400Y-91942500D02*
X229088400Y-91942500D01*
D103*
X215671400Y-89020200D02*
X215671400Y-89865200D01*
D102*
X222344600Y-119405400D02*
X221659200Y-120090800D01*
D103*
X219245351Y-78129149D02*
X219473100Y-78129149D01*
D104*
X146761200Y-120091200D02*
X146735800Y-120065800D01*
X217914400Y-117308082D02*
X217032118Y-117308082D01*
X232393300Y-82499200D02*
X232892600Y-82499200D01*
D102*
X224080400Y-92738500D02*
X224876400Y-91942500D01*
X219590400Y-108051582D02*
X219590400Y-108489081D01*
D103*
X187833000Y-83922100D02*
X187833000Y-85496400D01*
D104*
X167104600Y-88181400D02*
X167604600Y-88681400D01*
X202155200Y-81420300D02*
X202155200Y-80844800D01*
D103*
X234704700Y-84658200D02*
X235254800Y-84658200D01*
D104*
X208768000Y-80518000D02*
X208500000Y-80250000D01*
X147268300Y-115392200D02*
X145194800Y-115392200D01*
X214551900Y-107058082D02*
X213664400Y-107058082D01*
D102*
X221659200Y-120090800D02*
X221659200Y-120954800D01*
X197574500Y-92800700D02*
X197574500Y-93409100D01*
D103*
X221777900Y-108739082D02*
X221090400Y-108739082D01*
D102*
X224194400Y-107665082D02*
X224194400Y-107640582D01*
D104*
X215097400Y-98165500D02*
X215973400Y-98165500D01*
X181660800Y-74625200D02*
X181635400Y-74599800D01*
D105*
X220414400Y-109558082D02*
X220409400Y-109558082D01*
D104*
X145194800Y-115392200D02*
X144170400Y-116416600D01*
D102*
X203433200Y-86682800D02*
X203658700Y-86457300D01*
D104*
X168144100Y-79364755D02*
X168137155Y-79364755D01*
D102*
X223594600Y-119405400D02*
X222344600Y-119405400D01*
D103*
X200698700Y-89734800D02*
X201266200Y-89734800D01*
D102*
X203433200Y-88151300D02*
X202984700Y-88151300D01*
D104*
X181660800Y-80822800D02*
X181660800Y-81559400D01*
X165231600Y-77959200D02*
X165931600Y-77959200D01*
X165231600Y-77959200D02*
X163131600Y-77959200D01*
X217510400Y-92645000D02*
X217510400Y-91942500D01*
D103*
X218278900Y-79095600D02*
X218278900Y-80179100D01*
X226761550Y-75451650D02*
X226100000Y-74790100D01*
D104*
X144170400Y-116416600D02*
X144170400Y-117144800D01*
D103*
X203752700Y-91479900D02*
X204254700Y-91479900D01*
D104*
X225526900Y-106308082D02*
X226164400Y-106308082D01*
D102*
X177749200Y-91757200D02*
X178371800Y-92379800D01*
D104*
X181660800Y-75366800D02*
X181660800Y-74625200D01*
X232714800Y-112967600D02*
X233437600Y-112967600D01*
D103*
X232402000Y-89230200D02*
X232943400Y-89230200D01*
D105*
X220590400Y-109739082D02*
X220414400Y-109563082D01*
D102*
X178371800Y-92379800D02*
X178797400Y-92379800D01*
X224866200Y-118110000D02*
X224866200Y-118133800D01*
D103*
X152501600Y-120269000D02*
X152527000Y-120243600D01*
D102*
X195339300Y-93358300D02*
X195313900Y-93383700D01*
D104*
X218484400Y-117308082D02*
X217914400Y-117308082D01*
D102*
X229088400Y-91942500D02*
X229690400Y-92544500D01*
D104*
X232376600Y-83566000D02*
X232918000Y-83566000D01*
D105*
X220414400Y-109563082D02*
X220414400Y-109558082D01*
D103*
X232402000Y-89226600D02*
X233822600Y-87806000D01*
D104*
X199682700Y-80090800D02*
X199682700Y-79515300D01*
X208948400Y-80518000D02*
X208768000Y-80518000D01*
D102*
X178797400Y-92379800D02*
X178917600Y-92500000D01*
D104*
X168067100Y-89136955D02*
X168060155Y-89136955D01*
D102*
X166703000Y-91360000D02*
X167286000Y-91360000D01*
D104*
X225679000Y-90305700D02*
X225679000Y-90754200D01*
X159263200Y-115702200D02*
X158699200Y-115138200D01*
D102*
X224164400Y-108808082D02*
X224164400Y-108338082D01*
D104*
X202155200Y-80725800D02*
X202155200Y-80277300D01*
X166731600Y-77959200D02*
X167181600Y-78409200D01*
D102*
X224194400Y-107665082D02*
X224194400Y-108308082D01*
D103*
X204254700Y-91479900D02*
X204895700Y-91479900D01*
D104*
X235677800Y-82652200D02*
X235677800Y-83201600D01*
X222707200Y-90331100D02*
X222707200Y-90855800D01*
D102*
X180723000Y-86063800D02*
X180723000Y-85805200D01*
D104*
X230327200Y-106111800D02*
X227711000Y-106111800D01*
X165154600Y-87731400D02*
X163054600Y-87731400D01*
D103*
X189238000Y-84759800D02*
X189238000Y-86944200D01*
D102*
X179298600Y-84785200D02*
X179146200Y-84632800D01*
X224866200Y-118133800D02*
X223594600Y-119405400D01*
D104*
X166831600Y-81559200D02*
X167331600Y-81559200D01*
X166654600Y-87731400D02*
X167104600Y-88181400D01*
D103*
X215671400Y-89865200D02*
X215265000Y-90271600D01*
X224565001Y-78575000D02*
X224565001Y-78202999D01*
D102*
X224194400Y-107640582D02*
X225526900Y-106308082D01*
D103*
X221090400Y-108739082D02*
X220340400Y-109489082D01*
D102*
X178765200Y-91060400D02*
X178765200Y-91986400D01*
D104*
X208534000Y-83439000D02*
X208535800Y-83440800D01*
D103*
X218228100Y-85471000D02*
X218228100Y-83388200D01*
D104*
X215859400Y-99435500D02*
X216434900Y-99435500D01*
D102*
X228735500Y-84820000D02*
X226298000Y-84820000D01*
X225171000Y-83997800D02*
X225298000Y-83820000D01*
D104*
X235677800Y-83201600D02*
X235686600Y-83210400D01*
D103*
X187833000Y-85496400D02*
X188214000Y-85877400D01*
X222014400Y-116368696D02*
X222014400Y-116558082D01*
D102*
X205358700Y-84200700D02*
X205358700Y-84257300D01*
X196138800Y-79094600D02*
X196138800Y-78588600D01*
X233058650Y-75172250D02*
X233299000Y-75412600D01*
D104*
X173395600Y-90551000D02*
X172466000Y-90551000D01*
D103*
X218278900Y-80179100D02*
X218270200Y-80187800D01*
X212801200Y-76922200D02*
X212801200Y-76784200D01*
D102*
X177749200Y-91063000D02*
X177749200Y-91757200D01*
D104*
X147268300Y-119024400D02*
X146608800Y-119024400D01*
D102*
X224164400Y-108338082D02*
X224194400Y-108308082D01*
D103*
X222868300Y-77969300D02*
X222504000Y-77969300D01*
D102*
X224616800Y-93212500D02*
X224080400Y-93212500D01*
D103*
X226761550Y-75508150D02*
X225329450Y-75508150D01*
D104*
X168137155Y-79364755D02*
X167681600Y-78909200D01*
D103*
X226761550Y-75508150D02*
X226761550Y-75451650D01*
D104*
X208535800Y-83440800D02*
X209143600Y-83440800D01*
X167181600Y-78409200D02*
X167681600Y-78909200D01*
D102*
X203238700Y-82563300D02*
X202984700Y-82817300D01*
D105*
X220409400Y-109558082D02*
X220340400Y-109489082D01*
D104*
X221574400Y-92729900D02*
X221574400Y-92196500D01*
D103*
X188645800Y-84759800D02*
X188620400Y-84785200D01*
D104*
X146608800Y-119024400D02*
X146583400Y-119049800D01*
D103*
X201266200Y-89734800D02*
X201460700Y-89929300D01*
D102*
X195339300Y-92784000D02*
X195339300Y-93358300D01*
D103*
X189238000Y-86944200D02*
X188595000Y-86944200D01*
X222264400Y-116808082D02*
X222051900Y-116595582D01*
D102*
X219590400Y-108489081D02*
X220340400Y-109239081D01*
D104*
X172466000Y-90551000D02*
X172440600Y-90525600D01*
D103*
X189238000Y-84759800D02*
X188645800Y-84759800D01*
D104*
X165931600Y-77959200D02*
X166631600Y-77959200D01*
D103*
X221453786Y-115808082D02*
X222014400Y-116368696D01*
X232943400Y-89230200D02*
X232968800Y-89255600D01*
D104*
X217463900Y-114560582D02*
X217463900Y-115349082D01*
X159263200Y-116408200D02*
X159263200Y-115702200D01*
X220558400Y-92732500D02*
X220558400Y-92196500D01*
D102*
X226298000Y-84820000D02*
X225171000Y-83997800D01*
X227689000Y-120960300D02*
X227689000Y-118900800D01*
D103*
X224565001Y-78202999D02*
X225120200Y-77647800D01*
D102*
X203433200Y-88151300D02*
X203433200Y-86682800D01*
X232714800Y-116302600D02*
X233244200Y-116302600D01*
D104*
X219034400Y-91754500D02*
X219034400Y-90926500D01*
X166631600Y-77959200D02*
X166731600Y-77959200D01*
X168060155Y-89136955D02*
X167604600Y-88681400D01*
D102*
X179749700Y-82600800D02*
X178993800Y-82600800D01*
X233244200Y-116302600D02*
X233248200Y-116306600D01*
X220340400Y-109239081D02*
X220340400Y-109489082D01*
D103*
X189242600Y-82512500D02*
X187833000Y-83922100D01*
D104*
X235678600Y-78986000D02*
X235661200Y-78968600D01*
X202155200Y-80844800D02*
X202095700Y-80785300D01*
D103*
X222051900Y-116558082D02*
X222014400Y-116558082D01*
D102*
X180723000Y-85805200D02*
X179703000Y-84785200D01*
D104*
X235678600Y-79578200D02*
X235678600Y-78986000D01*
D102*
X224080400Y-93212500D02*
X224080400Y-92738500D01*
X205155800Y-83997800D02*
X205358700Y-84200700D01*
D103*
X222014400Y-116747468D02*
X221453786Y-117308082D01*
D102*
X231622600Y-86106000D02*
X231722600Y-86106000D01*
D103*
X222014400Y-116558082D02*
X222014400Y-116747468D01*
D104*
X217032118Y-117308082D02*
X213614000Y-120726200D01*
D102*
X201003500Y-92764400D02*
X201003500Y-93384900D01*
X225000000Y-93595700D02*
X224616800Y-93212500D01*
D103*
X232402000Y-89230200D02*
X232402000Y-89226600D01*
X151115400Y-120269000D02*
X152501600Y-120269000D01*
D105*
X220590400Y-110926582D02*
X220590400Y-109739082D01*
D104*
X208470200Y-81838800D02*
X208409100Y-81777700D01*
D102*
X178765200Y-91986400D02*
X178371800Y-92379800D01*
D103*
X225329450Y-75508150D02*
X222868300Y-77969300D01*
X222051900Y-116595582D02*
X222051900Y-116558082D01*
D102*
X227689000Y-118900800D02*
X226847400Y-118059200D01*
%TO.N,Net-(U1-XIN)*%
X231267000Y-88161600D02*
X231622600Y-87806000D01*
X230454200Y-85191600D02*
X230454200Y-86817200D01*
X229682600Y-84420000D02*
X230454200Y-85191600D01*
X230454200Y-86817200D02*
X231443000Y-87806000D01*
X231267000Y-89230200D02*
X231267000Y-88161600D01*
X231443000Y-87806000D02*
X231622600Y-87806000D01*
X228735500Y-84420000D02*
X229682600Y-84420000D01*
%TO.N,Net-(C2-Pad2)*%
X233569700Y-84658200D02*
X232423300Y-84658200D01*
X233822600Y-84911100D02*
X233569700Y-84658200D01*
X233822600Y-86106000D02*
X233822600Y-84911100D01*
%TO.N,1V1*%
X222631000Y-82550000D02*
X223545400Y-81635600D01*
X227558600Y-82092800D02*
X227558600Y-82829400D01*
D103*
X220814100Y-84020000D02*
X221860500Y-84020000D01*
D102*
X222631000Y-82854800D02*
X222631000Y-82550000D01*
X227558600Y-82829400D02*
X227949200Y-83220000D01*
X221860500Y-84020000D02*
X222376684Y-84020000D01*
D103*
X219494440Y-80187800D02*
X221253220Y-81946580D01*
D102*
X228735500Y-83220000D02*
X230537500Y-83220000D01*
X227949200Y-83220000D02*
X228735500Y-83220000D01*
X222376684Y-82020000D02*
X222631000Y-82274316D01*
X230537500Y-83220000D02*
X231258300Y-82499200D01*
X227101400Y-81635600D02*
X227558600Y-82092800D01*
X222376684Y-84020000D02*
X222585500Y-83811184D01*
X222585500Y-83811184D02*
X222585500Y-83281300D01*
D103*
X221326640Y-82020000D02*
X221767400Y-82020000D01*
D102*
X222631000Y-82274316D02*
X222631000Y-82854800D01*
D103*
X219405200Y-80187800D02*
X219494440Y-80187800D01*
D102*
X222631000Y-83235800D02*
X222631000Y-82854800D01*
X222585500Y-83281300D02*
X222631000Y-83235800D01*
X223545400Y-81635600D02*
X227101400Y-81635600D01*
X221860500Y-82020000D02*
X222376684Y-82020000D01*
D103*
X219363100Y-85471000D02*
X220814100Y-84020000D01*
%TO.N,3V3*%
X220040200Y-83515200D02*
X220091000Y-83515200D01*
D102*
X167181600Y-77209200D02*
X161308600Y-77209200D01*
X200554110Y-86824100D02*
X198941700Y-86824100D01*
D103*
X226298000Y-88551700D02*
X226298000Y-87257500D01*
D102*
X194713250Y-92275050D02*
X195028730Y-91959570D01*
X196456900Y-92814000D02*
X196456900Y-93442699D01*
X156065400Y-116459000D02*
X156116200Y-116408200D01*
D103*
X220619400Y-116308082D02*
X219619400Y-117308082D01*
D102*
X159533100Y-117703600D02*
X159533100Y-117638100D01*
X218944900Y-98852500D02*
X218944900Y-102102500D01*
X190377600Y-82512500D02*
X191189200Y-83324100D01*
X210972400Y-92316900D02*
X210972400Y-92249054D01*
X159533100Y-120243600D02*
X159507700Y-120269000D01*
X231187600Y-83620000D02*
X228735500Y-83620000D01*
D105*
X210083400Y-80518000D02*
X210083400Y-81775600D01*
D102*
X229311200Y-113143200D02*
X227544800Y-113143200D01*
D103*
X225484500Y-89170700D02*
X224967800Y-89687400D01*
D102*
X161308600Y-77209200D02*
X160985200Y-76885800D01*
D103*
X225679000Y-89170700D02*
X225484500Y-89170700D01*
D105*
X210464400Y-81838800D02*
X210947000Y-81356200D01*
D102*
X193113341Y-92812800D02*
X191961100Y-92812800D01*
X208520700Y-89742394D02*
X210972400Y-92194094D01*
X219533400Y-98264000D02*
X218944900Y-98852500D01*
X159533100Y-117638100D02*
X158303200Y-116408200D01*
X225602800Y-117224300D02*
X225602800Y-118397200D01*
D105*
X210020200Y-81838800D02*
X211842800Y-81838800D01*
D102*
X190377600Y-82469200D02*
X190931800Y-81915000D01*
X217659200Y-120954800D02*
X217659200Y-119652800D01*
X227059682Y-112658082D02*
X227076000Y-112674400D01*
X219619400Y-117692600D02*
X219619400Y-117308082D01*
X200952700Y-87222690D02*
X200554110Y-86824100D01*
X199682700Y-83033100D02*
X199391700Y-83324100D01*
X156065400Y-116459000D02*
X156065400Y-115917800D01*
X157356600Y-74559200D02*
X156156600Y-75759200D01*
X189581850Y-83311650D02*
X189212600Y-83680900D01*
X231241600Y-83566000D02*
X231187600Y-83620000D01*
X156065400Y-115917800D02*
X156337000Y-115646200D01*
X160985200Y-75031600D02*
X160512800Y-74559200D01*
X167481600Y-82659200D02*
X168731600Y-81409200D01*
D103*
X196138800Y-80114600D02*
X195185370Y-79161170D01*
D102*
X190373000Y-86944200D02*
X191493100Y-85824100D01*
X160512800Y-74559200D02*
X157356600Y-74559200D01*
D103*
X219913200Y-83388200D02*
X220040200Y-83515200D01*
D102*
X217523400Y-98165500D02*
X218358300Y-98165500D01*
D103*
X189208000Y-88718800D02*
X189179200Y-88747600D01*
D102*
X195339300Y-91062548D02*
X195339300Y-91649000D01*
X200698700Y-88599800D02*
X200477600Y-88599800D01*
D103*
X221051900Y-116308082D02*
X220619400Y-116308082D01*
X220141800Y-83388200D02*
X220310000Y-83220000D01*
D102*
X226298000Y-80382500D02*
X226298000Y-78210561D01*
X159533100Y-117703600D02*
X159533100Y-120243600D01*
X220360650Y-74809050D02*
X220319600Y-74768000D01*
X199682700Y-82309300D02*
X199682700Y-83033100D01*
X194221700Y-92801900D02*
X194221700Y-92766600D01*
X168731600Y-78759200D02*
X167181600Y-77209200D01*
D105*
X222529400Y-89382600D02*
X222707200Y-89204800D01*
D102*
X160985200Y-76885800D02*
X160985200Y-75031600D01*
X217659200Y-119652800D02*
X219619400Y-117692600D01*
X196456900Y-93442699D02*
X197058301Y-94044100D01*
X199682700Y-81225800D02*
X199682700Y-82309300D01*
X198717500Y-93485300D02*
X198717500Y-92800700D01*
X225602800Y-118397200D02*
X223689000Y-120311000D01*
X226298000Y-80382500D02*
X226298000Y-77690600D01*
X220921350Y-74809050D02*
X220360650Y-74809050D01*
X190325600Y-86944200D02*
X189208000Y-88061800D01*
X195028730Y-91959570D02*
X195028730Y-91934612D01*
X194194933Y-92801900D02*
X194221700Y-92801900D01*
X215595200Y-74828400D02*
X214911200Y-75512400D01*
D105*
X210020200Y-81838800D02*
X210464400Y-81838800D01*
D103*
X219363100Y-83388200D02*
X219913200Y-83388200D01*
D102*
X160451800Y-117983000D02*
X160172400Y-117703600D01*
X231241600Y-83566000D02*
X231022351Y-83566000D01*
D103*
X220119400Y-116808082D02*
X219914400Y-116603082D01*
D102*
X189581850Y-83308250D02*
X189581850Y-83311650D01*
D103*
X219914400Y-116603082D02*
X219914400Y-116558082D01*
D102*
X195757800Y-90644048D02*
X196126700Y-90275148D01*
D105*
X222707200Y-89204800D02*
X222707200Y-89196100D01*
D102*
X214911200Y-75512400D02*
X214911200Y-76222200D01*
D103*
X219786200Y-84429600D02*
X220595800Y-83620000D01*
X222698000Y-88629800D02*
X222698000Y-87257500D01*
X220595800Y-83620000D02*
X221860500Y-83620000D01*
D102*
X225664400Y-112658082D02*
X227059682Y-112658082D01*
D103*
X196138800Y-81700000D02*
X196138800Y-82497000D01*
D105*
X210083400Y-81775600D02*
X210020200Y-81838800D01*
D102*
X210972400Y-92249054D02*
X210163487Y-91440141D01*
D103*
X196138800Y-81700000D02*
X196138800Y-82047000D01*
D102*
X195757800Y-90644048D02*
X195339300Y-91062548D01*
D103*
X196138800Y-82497000D02*
X196126700Y-82509100D01*
D102*
X160172400Y-117703600D02*
X159533100Y-117703600D01*
X227544800Y-113143200D02*
X227076000Y-112674400D01*
X216691400Y-96901000D02*
X216691400Y-97333500D01*
X168731600Y-81409200D02*
X168731600Y-78759200D01*
X191493100Y-85824100D02*
X193311700Y-85824100D01*
X191961100Y-92812800D02*
X194210800Y-92812800D01*
X166834100Y-82659200D02*
X167481600Y-82659200D01*
X200698700Y-88599800D02*
X200698700Y-88151300D01*
X200952700Y-87897300D02*
X200952700Y-87222690D01*
X198158700Y-94044100D02*
X198717500Y-93485300D01*
X195339300Y-91649000D02*
X195339300Y-91696400D01*
X200477600Y-88599800D02*
X200177400Y-88900000D01*
D103*
X219363100Y-84429600D02*
X219786200Y-84429600D01*
X222707200Y-88639000D02*
X222707200Y-89196100D01*
X189208000Y-88061800D02*
X189208000Y-88718800D01*
D102*
X194210800Y-92812800D02*
X194221700Y-92801900D01*
X224164400Y-112658082D02*
X225664400Y-112658082D01*
X216691400Y-97333500D02*
X217523400Y-98165500D01*
X193659587Y-92266554D02*
X194194933Y-92801900D01*
X156116200Y-116408200D02*
X158303200Y-116408200D01*
D103*
X220119400Y-116808082D02*
X221051900Y-116808082D01*
X220878400Y-80237900D02*
X220878400Y-79044800D01*
D102*
X223689000Y-120311000D02*
X223689000Y-120960300D01*
X198922319Y-92595881D02*
X198717500Y-92800700D01*
X193659587Y-92266554D02*
X193113341Y-92812800D01*
X189581850Y-83308250D02*
X190377600Y-82512500D01*
X190373000Y-86944200D02*
X190325600Y-86944200D01*
D103*
X198941700Y-83324100D02*
X199391700Y-83324100D01*
X196138800Y-82047000D02*
X196126700Y-82059100D01*
X219619400Y-117308082D02*
X220119400Y-116808082D01*
X219363100Y-83388200D02*
X219363100Y-84429600D01*
D102*
X194221700Y-92766600D02*
X194713250Y-92275050D01*
X198922319Y-92412261D02*
X198922319Y-92595881D01*
D103*
X219913200Y-83388200D02*
X220141800Y-83388200D01*
D102*
X226298000Y-78210561D02*
X226319813Y-78188748D01*
D103*
X220310000Y-83220000D02*
X221860500Y-83220000D01*
D102*
X226298000Y-77690600D02*
X226255200Y-77647800D01*
X194713250Y-92275050D02*
X195339300Y-91649000D01*
D103*
X195185370Y-79161170D02*
X195185370Y-78650170D01*
X225679000Y-89170700D02*
X226298000Y-88551700D01*
X196138800Y-80114600D02*
X196138800Y-81700000D01*
D102*
X197058301Y-94044100D02*
X198158700Y-94044100D01*
D103*
X221860500Y-81220000D02*
X220878400Y-80237900D01*
X222698000Y-88629800D02*
X222707200Y-88639000D01*
D102*
X231022351Y-83566000D02*
X230994509Y-83593842D01*
X190377600Y-82512500D02*
X190377600Y-82469200D01*
X218358300Y-98165500D02*
X218465400Y-98272600D01*
X200698700Y-88151300D02*
X200952700Y-87897300D01*
X195339300Y-91696400D02*
X196456900Y-92814000D01*
X196126700Y-90275148D02*
X196126700Y-88139100D01*
D105*
X211842800Y-81838800D02*
X211861400Y-81820200D01*
D102*
X191189200Y-83324100D02*
X193311700Y-83324100D01*
D106*
%TO.N,VSYS*%
X211759800Y-108940600D02*
X211759800Y-111734600D01*
X212877400Y-108966000D02*
X212877400Y-112852200D01*
D102*
X161094100Y-82059200D02*
X161094100Y-82971700D01*
D105*
X166703000Y-90242400D02*
X167286000Y-90242400D01*
D106*
X211734400Y-110007400D02*
X212826600Y-110007400D01*
D105*
X161190000Y-93036400D02*
X161190000Y-91898100D01*
D106*
X212826600Y-110007400D02*
X212852000Y-110032800D01*
D105*
X161190000Y-91898100D02*
X161093900Y-91802000D01*
D102*
X220590400Y-108051582D02*
X220590400Y-107614083D01*
D106*
X211759800Y-111734600D02*
X213156800Y-113131600D01*
X212877400Y-112852200D02*
X213156800Y-113131600D01*
D104*
X166829100Y-80459200D02*
X167331600Y-80459200D01*
D102*
X221001401Y-107203082D02*
X221991400Y-107203082D01*
X212552400Y-109362082D02*
X212425400Y-109489082D01*
X220590400Y-107614083D02*
X221001401Y-107203082D01*
X161094100Y-82971700D02*
X161331600Y-83209200D01*
D103*
%TO.N,5V*%
X166703000Y-92477600D02*
X167692400Y-92477600D01*
D102*
X227990400Y-117149600D02*
X227990400Y-118668800D01*
D106*
X176022000Y-121031000D02*
X176707800Y-121716800D01*
X175945800Y-121031000D02*
X175945800Y-120954800D01*
D103*
X168667100Y-88888426D02*
X166871474Y-87092800D01*
X234543600Y-79578200D02*
X234543600Y-80187800D01*
D106*
X176707800Y-121716800D02*
X176758600Y-121716800D01*
D103*
X168667100Y-91502900D02*
X168667100Y-88888426D01*
D102*
X232841800Y-120802400D02*
X232841800Y-122453400D01*
D106*
X171739200Y-116748200D02*
X162247786Y-116748200D01*
X145973800Y-88427200D02*
X147386400Y-88427200D01*
X175945800Y-121031000D02*
X176022000Y-121031000D01*
D103*
X159361200Y-84298800D02*
X156872000Y-84298800D01*
X160428000Y-85365600D02*
X159361200Y-84298800D01*
D102*
X229311200Y-116583800D02*
X228556200Y-116583800D01*
X227990400Y-118668800D02*
X228447600Y-119126000D01*
X228556200Y-116583800D02*
X227990400Y-117149600D01*
D103*
X160428000Y-86381600D02*
X160428000Y-85365600D01*
D106*
X175945800Y-120954800D02*
X171739200Y-116748200D01*
D102*
X228447600Y-119126000D02*
X231165400Y-119126000D01*
D106*
X161574793Y-116075207D02*
X160887293Y-115387707D01*
X162247786Y-116748200D02*
X161574793Y-116075207D01*
D103*
X166871474Y-87092800D02*
X161139200Y-87092800D01*
X234577800Y-80822200D02*
X234577800Y-80222000D01*
X234577800Y-80222000D02*
X234543600Y-80187800D01*
X156872000Y-84298800D02*
X156249400Y-84921400D01*
X156249400Y-84921400D02*
X156249400Y-85645000D01*
D106*
X147386400Y-88427200D02*
X150088600Y-85725000D01*
D103*
X161139200Y-87092800D02*
X160428000Y-86381600D01*
D106*
X161574793Y-116075207D02*
X160174793Y-114675207D01*
D102*
X231165400Y-119126000D02*
X232841800Y-120802400D01*
D103*
X167692400Y-92477600D02*
X168667100Y-91502900D01*
%TO.N,BATT_MONITOR*%
X225329400Y-107665082D02*
X225329400Y-108778082D01*
X225359400Y-109951082D02*
X225359400Y-108808082D01*
X225329400Y-108778082D02*
X225359400Y-108808082D01*
D102*
%TO.N,VBAT*%
X218181400Y-107330082D02*
X217546400Y-106695082D01*
X216825400Y-109489082D02*
X218181400Y-108133082D01*
X217546400Y-106695082D02*
X217546400Y-106135582D01*
X218181400Y-108133082D02*
X218181400Y-107330082D01*
X218181400Y-107330082D02*
X218689400Y-106822082D01*
X218689400Y-106822082D02*
X218689400Y-106135582D01*
D103*
%TO.N,B+*%
X223164400Y-111332318D02*
X223640164Y-111808082D01*
X223164400Y-110308082D02*
X223164400Y-111332318D01*
X222595400Y-109739082D02*
X223164400Y-110308082D01*
X221777900Y-109739082D02*
X222595400Y-109739082D01*
X224645400Y-111808082D02*
X225359400Y-111094082D01*
X223640164Y-111808082D02*
X224645400Y-111808082D01*
D106*
%TO.N,VCONN*%
X204673200Y-120091200D02*
X206629000Y-118135400D01*
X197764400Y-120091200D02*
X204673200Y-120091200D01*
X193243200Y-119380000D02*
X197053200Y-119380000D01*
X211378800Y-104698800D02*
X211378800Y-103657500D01*
X197739000Y-120116600D02*
X197764400Y-120091200D01*
X206629000Y-107848400D02*
X209778600Y-104698800D01*
X216839800Y-94450600D02*
X217510400Y-93780000D01*
X211378800Y-100939600D02*
X211429600Y-100888800D01*
X211429600Y-100888800D02*
X213023438Y-100888800D01*
X206629000Y-118135400D02*
X206629000Y-107848400D01*
X216839800Y-94564200D02*
X216839800Y-94450600D01*
X209778600Y-104698800D02*
X211378800Y-104698800D01*
X193243200Y-119380000D02*
X193243200Y-119811800D01*
X193548000Y-120116600D02*
X197739000Y-120116600D01*
X211378800Y-101955600D02*
X211378800Y-100939600D01*
X216839800Y-95631000D02*
X216839800Y-94564200D01*
X197053200Y-119380000D02*
X197764400Y-120091200D01*
X213023438Y-100888800D02*
X214742005Y-99170233D01*
X193243200Y-119811800D02*
X193548000Y-120116600D01*
D102*
%TO.N,CC1*%
X227924400Y-98214500D02*
X228024400Y-98114500D01*
X221033400Y-95739000D02*
X221808900Y-96514500D01*
X225572400Y-95885000D02*
X225572400Y-95056500D01*
X228024400Y-98114500D02*
X229090400Y-98114500D01*
X225284899Y-96835000D02*
X225572400Y-96547499D01*
X222402900Y-96835000D02*
X225284899Y-96835000D01*
X222082400Y-96514500D02*
X222402900Y-96835000D01*
X220558400Y-93692500D02*
X221033400Y-94167500D01*
X221033400Y-94167500D02*
X221033400Y-95739000D01*
X225572400Y-95056500D02*
X225638400Y-94990500D01*
X221808900Y-96514500D02*
X222082400Y-96514500D01*
X225572400Y-96547499D02*
X225572400Y-95885000D01*
%TO.N,CC2*%
X219533400Y-95489500D02*
X219533400Y-95739000D01*
X228312900Y-95114500D02*
X229090400Y-95114500D01*
X222139799Y-93689900D02*
X223672400Y-95222501D01*
X221574400Y-93689900D02*
X222139799Y-93689900D01*
X226066900Y-94403000D02*
X226908400Y-95244500D01*
X219020900Y-96251500D02*
X219533400Y-95739000D01*
X219020900Y-96501500D02*
X219020900Y-96251500D01*
X223672400Y-95885000D02*
X223672400Y-95222501D01*
X228182900Y-95244500D02*
X228312900Y-95114500D01*
X223672400Y-95222501D02*
X224491901Y-94403000D01*
X219034400Y-94990500D02*
X219533400Y-95489500D01*
X224491901Y-94403000D02*
X226066900Y-94403000D01*
X226908400Y-95244500D02*
X228182900Y-95244500D01*
%TO.N,EXT_PWR*%
X176821800Y-91227800D02*
X176682400Y-91088400D01*
X176821800Y-92379800D02*
X176821800Y-91227800D01*
%TO.N,Net-(U10-BOOT)*%
X170053000Y-89281000D02*
X172999400Y-89281000D01*
X170865800Y-79975900D02*
X169570400Y-81271300D01*
X169570400Y-81271300D02*
X169570400Y-88798400D01*
X169570400Y-88798400D02*
X170053000Y-89281000D01*
X172999400Y-89281000D02*
X174182000Y-88098400D01*
D103*
%TO.N,Net-(U10-SS)*%
X178765200Y-90012900D02*
X178765200Y-88871600D01*
X178765200Y-88871600D02*
X177992000Y-88098400D01*
D102*
%TO.N,Net-(U10-COMP)*%
X181381400Y-83693000D02*
X181432200Y-83642200D01*
X180718400Y-83693000D02*
X180718400Y-82609500D01*
X180718400Y-83693000D02*
X181381400Y-83693000D01*
%TO.N,Net-(C56-Pad2)*%
X179758400Y-83820600D02*
X180723000Y-84785200D01*
%TO.N,Net-(D1-K)*%
X204895700Y-92674900D02*
X204096200Y-93474400D01*
X202584200Y-93474400D02*
X202355700Y-93245900D01*
X204096200Y-93474400D02*
X202584200Y-93474400D01*
%TO.N,HUB_SUSP*%
X200102114Y-90691300D02*
X201376100Y-90691300D01*
X203359700Y-92674900D02*
X202355700Y-91670900D01*
X199471300Y-87403700D02*
X199021300Y-87403700D01*
X199530300Y-87462700D02*
X199530300Y-90119486D01*
X203752700Y-92674900D02*
X203359700Y-92674900D01*
X201376100Y-90691300D02*
X202355700Y-91670900D01*
X199021300Y-87403700D02*
X198941700Y-87324100D01*
X199391700Y-87324100D02*
X199530300Y-87462700D01*
X199530300Y-90119486D02*
X200102114Y-90691300D01*
X199530300Y-87462700D02*
X199471300Y-87403700D01*
D103*
%TO.N,RGB_DIN*%
X233095800Y-79679800D02*
X233095800Y-80640200D01*
X233095800Y-80640200D02*
X234167400Y-81711800D01*
X234167400Y-81711800D02*
X235338200Y-81711800D01*
X226885500Y-78754435D02*
X226698000Y-78941935D01*
X235338200Y-81711800D02*
X235677800Y-81372200D01*
X235677800Y-81372200D02*
X235677800Y-80822200D01*
X226698000Y-78941935D02*
X226698000Y-80382500D01*
D102*
%TO.N,Net-(D4-K)*%
X233742550Y-76872150D02*
X233058650Y-76188250D01*
X234379450Y-76872150D02*
X233742550Y-76872150D01*
%TO.N,LED*%
X225260684Y-79629000D02*
X225498000Y-79866316D01*
X225498000Y-79866316D02*
X225498000Y-80382500D01*
X223700000Y-79175000D02*
X224154000Y-79629000D01*
X234379450Y-75297150D02*
X233616549Y-74534249D01*
X231927400Y-75031600D02*
X231927400Y-75412600D01*
X232424751Y-74534249D02*
X231927400Y-75031600D01*
X233616549Y-74534249D02*
X232424751Y-74534249D01*
X224713800Y-76835000D02*
X223700000Y-77848800D01*
X223700000Y-77848800D02*
X223700000Y-79175000D01*
X227330000Y-76835000D02*
X224713800Y-76835000D01*
X228447600Y-75717400D02*
X227330000Y-76835000D01*
X224154000Y-79629000D02*
X225260684Y-79629000D01*
D106*
%TO.N,Net-(D6-K)*%
X145973800Y-92827200D02*
X145973800Y-97297200D01*
X145973800Y-97297200D02*
X150368000Y-101691400D01*
X152908000Y-101691400D02*
X150368000Y-101691400D01*
D102*
%TO.N,VBUS*%
X207316565Y-98731565D02*
X206298800Y-97713800D01*
X210567765Y-98731565D02*
X207316565Y-98731565D01*
D104*
X210007200Y-116205000D02*
X218365982Y-116205000D01*
D102*
X207831100Y-115298900D02*
X207831100Y-108708032D01*
X207831100Y-108708032D02*
X208716132Y-107823000D01*
X208737200Y-116205000D02*
X207831100Y-115298900D01*
X218407400Y-97001500D02*
X217900400Y-96494500D01*
X201507600Y-99288600D02*
X201507600Y-98409000D01*
X201507600Y-98409000D02*
X199860500Y-96761900D01*
X208716132Y-107823000D02*
X210032600Y-107823000D01*
X219020900Y-97001500D02*
X218407400Y-97001500D01*
X209245200Y-101930200D02*
X209245200Y-101879400D01*
X199860500Y-96761900D02*
X199860500Y-92801900D01*
D104*
X218365982Y-116205000D02*
X219241900Y-115329082D01*
D102*
X209245200Y-101879400D02*
X211328000Y-99796600D01*
D105*
%TO.N,Net-(D9-K)*%
X219241900Y-112829082D02*
X220554400Y-112829082D01*
X220554400Y-112829082D02*
X220765900Y-112617582D01*
D103*
%TO.N,Net-(D14-A)*%
X183627800Y-84260000D02*
X183627800Y-82104000D01*
X183627800Y-82104000D02*
X183261000Y-81737200D01*
X180723000Y-87164800D02*
X183627800Y-84260000D01*
D102*
%TO.N,uSD_CMD*%
X225098000Y-86741316D02*
X225580916Y-86258400D01*
X225098000Y-87257500D02*
X225098000Y-86741316D01*
X225580916Y-86258400D02*
X226263200Y-86258400D01*
%TO.N,uSD_CLK*%
X224698000Y-87773684D02*
X224297284Y-88174400D01*
X224698000Y-87257500D02*
X224698000Y-87773684D01*
X224297284Y-88174400D02*
X224067600Y-88174400D01*
%TO.N,uSD_DAT3*%
X225100000Y-85950000D02*
X225089316Y-85950000D01*
X225089316Y-85950000D02*
X224298000Y-86741316D01*
X224298000Y-86741316D02*
X224298000Y-87257500D01*
%TO.N,uSD_DAT1*%
X223400000Y-85875000D02*
X223400000Y-86461800D01*
X223400000Y-86461800D02*
X223498000Y-86559800D01*
X223498000Y-86559800D02*
X223498000Y-87257500D01*
%TO.N,uSD_DAT2*%
X224190651Y-85910566D02*
X224190651Y-85917949D01*
X223898000Y-86210600D02*
X223898000Y-87257500D01*
X224190651Y-85917949D02*
X223898000Y-86210600D01*
%TO.N,uSD_DAT0*%
X222770700Y-86347300D02*
X223098000Y-86674600D01*
X223098000Y-86674600D02*
X223098000Y-87257500D01*
%TO.N,RUN*%
X231000000Y-80298776D02*
X231000000Y-77025200D01*
X228735500Y-82020000D02*
X229278776Y-82020000D01*
X218142450Y-76004050D02*
X217347800Y-75209400D01*
X217347800Y-74218800D02*
X217229000Y-74100000D01*
X217513782Y-74052818D02*
X217347800Y-74218800D01*
X218328948Y-74091800D02*
X218289966Y-74052818D01*
X231000000Y-77025200D02*
X228066600Y-74091800D01*
X222064350Y-76004050D02*
X220921350Y-76004050D01*
X214723400Y-74100000D02*
X213711200Y-75112200D01*
X213711200Y-75112200D02*
X213711200Y-76202200D01*
X218289966Y-74052818D02*
X217513782Y-74052818D01*
X229278776Y-82020000D02*
X231000000Y-80298776D01*
X228066600Y-74091800D02*
X218328948Y-74091800D01*
X217347800Y-75209400D02*
X217347800Y-74218800D01*
X222064350Y-76004050D02*
X218142450Y-76004050D01*
X217229000Y-74100000D02*
X214723400Y-74100000D01*
D103*
%TO.N,SWD_RP2040*%
X231495600Y-76428600D02*
X229844600Y-74777600D01*
X229568200Y-82420000D02*
X231495600Y-80492600D01*
X231495600Y-80492600D02*
X231495600Y-76428600D01*
X228735500Y-82420000D02*
X229568200Y-82420000D01*
X216560400Y-78028800D02*
X216560400Y-77701400D01*
X216560400Y-77701400D02*
X215801200Y-76942200D01*
%TO.N,SWCLK_RP2040*%
X229777800Y-82820000D02*
X228735500Y-82820000D01*
X213849856Y-77542200D02*
X213835633Y-77527977D01*
X214321200Y-77542200D02*
X213849856Y-77542200D01*
X231343200Y-81584800D02*
X231013000Y-81584800D01*
X231013000Y-81584800D02*
X229777800Y-82820000D01*
%TO.N,EXTRA_USB3_D+*%
X188471600Y-94365725D02*
X188471600Y-91507800D01*
X195126700Y-81189100D02*
X195126700Y-82509100D01*
X190174079Y-96351047D02*
X190174079Y-96068204D01*
X191753000Y-76533800D02*
X194186600Y-76533800D01*
X195068820Y-80393051D02*
X195068820Y-80619912D01*
X193716178Y-77866622D02*
X193716178Y-79040409D01*
X193716178Y-79040409D02*
X195068820Y-80393051D01*
X195068820Y-80619912D02*
X195151700Y-80702792D01*
X191011600Y-78469000D02*
X191011600Y-77275200D01*
X186414200Y-83066400D02*
X191011600Y-78469000D01*
X195151700Y-80702792D02*
X195151700Y-81164100D01*
X209004804Y-96821201D02*
X202764999Y-96821201D01*
X202764999Y-96821201D02*
X202565000Y-97021200D01*
X188471600Y-91507800D02*
X186414200Y-89450400D01*
X190174079Y-96068204D02*
X188471600Y-94365725D01*
X209785400Y-97815400D02*
X209785400Y-97601797D01*
X191011600Y-77275200D02*
X191753000Y-76533800D01*
X209785400Y-97601797D02*
X209004804Y-96821201D01*
X194186600Y-76533800D02*
X194259200Y-76606400D01*
X195151700Y-81164100D02*
X195126700Y-81189100D01*
X186414200Y-89450400D02*
X186414200Y-83066400D01*
%TO.N,EXTRA_USB4_D-*%
X176830994Y-103776205D02*
X177595405Y-103776205D01*
X189954000Y-103654929D02*
X189117608Y-104491321D01*
X186740800Y-95935800D02*
X186758749Y-95917851D01*
X174794400Y-116208600D02*
X171192401Y-112606601D01*
X189023201Y-117700001D02*
X189023201Y-117051601D01*
X171192401Y-112606601D02*
X171192401Y-110766199D01*
X189433200Y-118110000D02*
X189023201Y-117700001D01*
X194601700Y-80491500D02*
X194601700Y-81164100D01*
X188180200Y-116208600D02*
X174794400Y-116208600D01*
X189023201Y-117051601D02*
X188180200Y-116208600D01*
X189117608Y-104491321D02*
X188269079Y-104491321D01*
X171192401Y-110766199D02*
X171392400Y-110566200D01*
X173188675Y-107418524D02*
X176830994Y-103776205D01*
X177595405Y-103776205D02*
X177795404Y-103976204D01*
X194626700Y-81189100D02*
X194626700Y-82509100D01*
X189954000Y-98463000D02*
X189954000Y-103654929D01*
X186758749Y-95917851D02*
X186758749Y-92309548D01*
X186758749Y-92309548D02*
X184919722Y-90470521D01*
X173188675Y-107701367D02*
X173188675Y-107418524D01*
X190020929Y-98396071D02*
X189954000Y-98463000D01*
X194601700Y-81164100D02*
X194626700Y-81189100D01*
X184919722Y-90470521D02*
X184636879Y-90470521D01*
X192201739Y-78597543D02*
X192401738Y-78797542D01*
X192401738Y-78797542D02*
X192907742Y-78797542D01*
X190020929Y-97637600D02*
X190020929Y-98396071D01*
X192907742Y-78797542D02*
X194601700Y-80491500D01*
%TO.N,EXTRA_USB4_D+*%
X188573199Y-117237999D02*
X187993800Y-116658600D01*
X189522000Y-98310600D02*
X189522000Y-103238400D01*
X170742399Y-110766199D02*
X170542400Y-110566200D01*
X192721344Y-79247544D02*
X192401738Y-79247544D01*
X187340800Y-95687271D02*
X187208751Y-95555222D01*
X187208751Y-92123152D02*
X185237921Y-90152322D01*
X187340800Y-96049900D02*
X187340800Y-95687271D01*
X187340800Y-96049900D02*
X187680600Y-96389700D01*
X194151700Y-80677900D02*
X192721344Y-79247544D01*
X188950600Y-97739200D02*
X189522000Y-98310600D01*
X174608000Y-116658600D02*
X170742399Y-112792999D01*
X172870476Y-107100325D02*
X176644598Y-103326203D01*
X192401738Y-79247544D02*
X192201739Y-79447543D01*
X177595405Y-103326203D02*
X177795404Y-103126204D01*
X176644598Y-103326203D02*
X177595405Y-103326203D01*
X189522000Y-103238400D02*
X188870121Y-103890279D01*
X194126700Y-81189100D02*
X194151700Y-81164100D01*
X187208751Y-95555222D02*
X187208751Y-92123152D01*
X185237921Y-90152322D02*
X185237921Y-89869479D01*
X194151700Y-81164100D02*
X194151700Y-80677900D01*
X172587633Y-107100325D02*
X172870476Y-107100325D01*
X194126700Y-82509100D02*
X194126700Y-81189100D01*
X170742399Y-112792999D02*
X170742399Y-110766199D01*
X188163200Y-118110000D02*
X188573199Y-117700001D01*
X187993800Y-116658600D02*
X174608000Y-116658600D01*
X188573199Y-117700001D02*
X188573199Y-117237999D01*
%TO.N,LAT*%
X157988000Y-99151400D02*
X156784000Y-100355400D01*
X154889200Y-100355400D02*
X154051000Y-101193600D01*
X148832000Y-107555600D02*
X145568200Y-107555600D01*
X156784000Y-100355400D02*
X154889200Y-100355400D01*
X154051000Y-101193600D02*
X154051000Y-102336600D01*
X154051000Y-102336600D02*
X148832000Y-107555600D01*
D102*
%TO.N,SCLK_INTER*%
X178308000Y-98628200D02*
X178308000Y-99151400D01*
X182880000Y-94056200D02*
X178308000Y-98628200D01*
X225898000Y-79435464D02*
X225898000Y-80382500D01*
X225339168Y-78876632D02*
X225898000Y-79435464D01*
%TO.N,RPI0_GPIO20*%
X198450200Y-104978200D02*
X199618600Y-103809800D01*
X198297800Y-104978200D02*
X198450200Y-104978200D01*
X199618600Y-103809800D02*
X199669400Y-103809800D01*
%TO.N,RP2040_CE*%
X228219316Y-86020000D02*
X227685600Y-85486284D01*
X180280174Y-98180026D02*
X183252226Y-95207974D01*
X179587026Y-98180026D02*
X180280174Y-98180026D01*
X183252226Y-95207974D02*
X183252226Y-95038026D01*
X227685600Y-85486284D02*
X227685600Y-85369400D01*
X228735500Y-86020000D02*
X228219316Y-86020000D01*
%TO.N,SIN*%
X169291000Y-102539800D02*
X165785800Y-106045000D01*
X154355800Y-108559600D02*
X145572200Y-108559600D01*
X187365600Y-100253800D02*
X170459400Y-100253800D01*
X156870400Y-106045000D02*
X154355800Y-108559600D01*
X169291000Y-101422200D02*
X169291000Y-102539800D01*
X145572200Y-108559600D02*
X145568200Y-108555600D01*
X170459400Y-100253800D02*
X169291000Y-101422200D01*
X165785800Y-106045000D02*
X156870400Y-106045000D01*
X188468000Y-99151400D02*
X187365600Y-100253800D01*
%TO.N,RTC_SDA*%
X158312700Y-120269000D02*
X157462400Y-120269000D01*
X157462400Y-120269000D02*
X156065400Y-120269000D01*
D103*
%TO.N,MOSI_INTER*%
X186182000Y-81026000D02*
X186182000Y-78663800D01*
X173390600Y-99151400D02*
X182270400Y-90271600D01*
X186182000Y-78663800D02*
X190449200Y-74396600D01*
D102*
X227493909Y-81198458D02*
X227498000Y-81194367D01*
D103*
X184200800Y-85267800D02*
X184200800Y-83007200D01*
X182270400Y-90271600D02*
X182270400Y-87198200D01*
X184200800Y-83007200D02*
X186182000Y-81026000D01*
X182270400Y-87198200D02*
X184200800Y-85267800D01*
X206552800Y-74396600D02*
X210566000Y-78409800D01*
X173228000Y-99151400D02*
X173390600Y-99151400D01*
X190449200Y-74396600D02*
X206552800Y-74396600D01*
D102*
X227498000Y-81194367D02*
X227498000Y-80382500D01*
%TO.N,RPI0_GPIO17*%
X181838600Y-104902000D02*
X184632600Y-102108000D01*
X171399200Y-94691200D02*
X167528200Y-94691200D01*
X167528200Y-94691200D02*
X163068000Y-99151400D01*
X172974000Y-96266000D02*
X171399200Y-94691200D01*
X184632600Y-102108000D02*
X184632600Y-100965000D01*
X172974000Y-97713800D02*
X172974000Y-96266000D01*
D103*
%TO.N,GSIN*%
X150967001Y-110555600D02*
X145568200Y-110555600D01*
X152349200Y-110759800D02*
X152149200Y-110559800D01*
X152149200Y-110559800D02*
X150971201Y-110559800D01*
X150971201Y-110559800D02*
X150967001Y-110555600D01*
%TO.N,GLAT*%
X145568200Y-109555600D02*
X144968200Y-109555600D01*
X144968200Y-109555600D02*
X144500600Y-110023200D01*
X144500600Y-110023200D02*
X144500600Y-110845600D01*
X165115200Y-112344200D02*
X175768000Y-101691400D01*
X145999200Y-112344200D02*
X165115200Y-112344200D01*
X144500600Y-110845600D02*
X145999200Y-112344200D01*
D102*
%TO.N,RPI0_GPIO18*%
X162839400Y-110947200D02*
X159004000Y-110947200D01*
X156083000Y-109169200D02*
X156083000Y-107797600D01*
X189972215Y-110893100D02*
X188824485Y-112040830D01*
X190246000Y-110893100D02*
X189972215Y-110893100D01*
X158877000Y-110820200D02*
X158826200Y-110820200D01*
X163017200Y-111125000D02*
X162839400Y-110947200D01*
X156083000Y-107797600D02*
X156311600Y-107569000D01*
X159004000Y-110947200D02*
X158877000Y-110820200D01*
%TO.N,RPI0_GPIO0*%
X174955200Y-108204000D02*
X179501800Y-103657400D01*
X179501800Y-103657400D02*
X179501800Y-101399166D01*
X180251066Y-100649900D02*
X181777500Y-100649900D01*
X179501800Y-101399166D02*
X180251066Y-100649900D01*
X175006000Y-110286800D02*
X174955200Y-110236000D01*
X174955200Y-110236000D02*
X174955200Y-108204000D01*
X181777500Y-100649900D02*
X182067200Y-100939600D01*
D103*
%TO.N,MISO_INTER*%
X206171800Y-75285600D02*
X209473800Y-78587600D01*
X190957200Y-75285600D02*
X206171800Y-75285600D01*
D102*
X227838000Y-79476600D02*
X227487716Y-79476600D01*
D103*
X183489600Y-91429800D02*
X183489600Y-87274400D01*
X183489600Y-87274400D02*
X184962800Y-85801200D01*
D102*
X227968674Y-79345926D02*
X227838000Y-79476600D01*
D103*
X175768000Y-99151400D02*
X183489600Y-91429800D01*
X209473800Y-78587600D02*
X209499200Y-78587600D01*
X187121800Y-81356200D02*
X187121800Y-79121000D01*
X184962800Y-83515200D02*
X187121800Y-81356200D01*
X187121800Y-79121000D02*
X190957200Y-75285600D01*
X184962800Y-85801200D02*
X184962800Y-83515200D01*
D102*
X227098000Y-79866316D02*
X227098000Y-80382500D01*
X227487716Y-79476600D02*
X227098000Y-79866316D01*
X227968674Y-78634726D02*
X227968674Y-79345926D01*
%TO.N,RPI0_GPIO19*%
X197668800Y-105466800D02*
X198729600Y-106527600D01*
X196119400Y-105466800D02*
X197668800Y-105466800D01*
X194589500Y-103936900D02*
X196119400Y-105466800D01*
X193548000Y-99151400D02*
X194589500Y-100192900D01*
X194589500Y-100192900D02*
X194589500Y-103936900D01*
D103*
%TO.N,GCLK*%
X170688000Y-103301800D02*
X163830000Y-110159800D01*
X146218200Y-110155600D02*
X146118200Y-110055600D01*
X151136887Y-110159800D02*
X151132687Y-110155600D01*
X151132687Y-110155600D02*
X146218200Y-110155600D01*
X146118200Y-110055600D02*
X145568200Y-110055600D01*
X163830000Y-110159800D02*
X151136887Y-110159800D01*
X170688000Y-101691400D02*
X170688000Y-103301800D01*
%TO.N,SOUT*%
X147574000Y-104165400D02*
X145683800Y-106055600D01*
X149758400Y-104165400D02*
X147574000Y-104165400D01*
X145683800Y-106055600D02*
X145568200Y-106055600D01*
D102*
%TO.N,RPI0_GPIO7*%
X176834800Y-107315000D02*
X180848000Y-103301800D01*
X176834800Y-110642400D02*
X176834800Y-107315000D01*
X177749200Y-111556800D02*
X176834800Y-110642400D01*
X180848000Y-103301800D02*
X180848000Y-101691400D01*
D103*
%TO.N,GSOUT*%
X148282600Y-106555600D02*
X145568200Y-106555600D01*
X150698200Y-104140000D02*
X148282600Y-106555600D01*
X168148000Y-101691400D02*
X165039000Y-104800400D01*
X165039000Y-104800400D02*
X155244800Y-104800400D01*
D102*
%TO.N,RPI0_GPIO14*%
X187575700Y-112144300D02*
X189230000Y-110490000D01*
X157988000Y-103784400D02*
X157988000Y-101691400D01*
X159486600Y-109372400D02*
X163322000Y-109372400D01*
X156972000Y-106857800D02*
X159486600Y-109372400D01*
X175339500Y-112144300D02*
X187575700Y-112144300D01*
X157784800Y-103987600D02*
X157988000Y-103784400D01*
X170053000Y-108585000D02*
X171780200Y-108585000D01*
X171780200Y-108585000D02*
X175339500Y-112144300D01*
%TO.N,BLK*%
X168757600Y-100406200D02*
X165074600Y-100406200D01*
X165074600Y-100406200D02*
X164388800Y-101092000D01*
X169392600Y-96570800D02*
X169392600Y-99771200D01*
X170129200Y-95834200D02*
X169392600Y-96570800D01*
X164388800Y-101092000D02*
X164388800Y-102743000D01*
X169392600Y-99771200D02*
X168757600Y-100406200D01*
X164388800Y-102743000D02*
X163728400Y-103403400D01*
X145568200Y-107055600D02*
X148638851Y-107055600D01*
X151942800Y-103751651D02*
X151942800Y-103174800D01*
X170840400Y-95834200D02*
X170129200Y-95834200D01*
X148638851Y-107055600D02*
X151942800Y-103751651D01*
%TO.N,RPI0_GPIO1*%
X177749200Y-107721400D02*
X183388000Y-102082600D01*
X183409394Y-110007500D02*
X177749200Y-110007500D01*
X184353200Y-109220000D02*
X183870700Y-109220000D01*
X183388000Y-102082600D02*
X183388000Y-101691400D01*
X183870700Y-109220000D02*
X183870700Y-109546194D01*
X177749200Y-110007500D02*
X177749200Y-107721400D01*
X183870700Y-109546194D02*
X183409394Y-110007500D01*
%TO.N,GSBLK*%
X170307000Y-96647000D02*
X171475400Y-97815400D01*
X155127400Y-105400400D02*
X152755600Y-107772200D01*
X161772600Y-102438200D02*
X161772600Y-102463600D01*
X183032400Y-96977200D02*
X182600600Y-97409000D01*
X171475400Y-97815400D02*
X171627800Y-97815400D01*
X196088000Y-99151400D02*
X193913800Y-96977200D01*
X150698200Y-109245400D02*
X150508400Y-109055600D01*
X161772600Y-102463600D02*
X160197800Y-104038400D01*
X150508400Y-109055600D02*
X145568200Y-109055600D01*
X193913800Y-96977200D02*
X183032400Y-96977200D01*
X159096000Y-105400400D02*
X155127400Y-105400400D01*
X159105600Y-105410000D02*
X159096000Y-105400400D01*
%TO.N,RTC_SCL*%
X158338100Y-118948200D02*
X157513200Y-118948200D01*
X156116200Y-118948200D02*
X156065400Y-118999000D01*
X157513200Y-118948200D02*
X156116200Y-118948200D01*
%TO.N,RPI0_GPIO13*%
X198424800Y-107670600D02*
X197307200Y-106553000D01*
X198424800Y-110337600D02*
X198424800Y-107670600D01*
X197993000Y-110769400D02*
X198424800Y-110337600D01*
X193294000Y-103327200D02*
X192278000Y-102311200D01*
X197307200Y-106553000D02*
X195122800Y-106553000D01*
X192278000Y-102311200D02*
X192278000Y-100421400D01*
X189433200Y-109220000D02*
X190982600Y-110769400D01*
X192278000Y-100421400D02*
X191008000Y-99151400D01*
X195122800Y-106553000D02*
X193294000Y-104724200D01*
X193294000Y-104724200D02*
X193294000Y-103327200D01*
X190982600Y-110769400D02*
X197993000Y-110769400D01*
%TO.N,RPI0_GPIO15*%
X159131000Y-103088400D02*
X160528000Y-101691400D01*
X177519523Y-104727132D02*
X173585455Y-108661200D01*
X187299600Y-105816400D02*
X180797200Y-105816400D01*
X159131000Y-103784400D02*
X159131000Y-103088400D01*
X166217600Y-106807000D02*
X158165800Y-106807000D01*
X173585455Y-108661200D02*
X173304200Y-108661200D01*
X167132000Y-105892600D02*
X166217600Y-106807000D01*
X189433200Y-107950000D02*
X187299600Y-105816400D01*
%TO.N,RPI0_GPIO21*%
X196697600Y-103621800D02*
X198628000Y-101691400D01*
X196697600Y-104444800D02*
X196697600Y-103621800D01*
D103*
%TO.N,CLK*%
X165608000Y-99151400D02*
X164302400Y-100457000D01*
X157429200Y-100457000D02*
X156768800Y-101117400D01*
X164302400Y-100457000D02*
X157429200Y-100457000D01*
X156768800Y-101117400D02*
X156768800Y-102209600D01*
X156768800Y-102209600D02*
X150922800Y-108055600D01*
X150922800Y-108055600D02*
X145568200Y-108055600D01*
%TO.N,UP_D-*%
X227517086Y-97614500D02*
X229090400Y-97614500D01*
X201462915Y-86947715D02*
X200814300Y-86299100D01*
X206032700Y-90027300D02*
X202637500Y-90027300D01*
D102*
X229090400Y-96614500D02*
X229935400Y-96614500D01*
D103*
X224397400Y-99878751D02*
X224397400Y-100324500D01*
D102*
X230210400Y-97339500D02*
X229935400Y-97614500D01*
D103*
X200814300Y-86299100D02*
X200286700Y-86299100D01*
D102*
X229935400Y-97614500D02*
X229090400Y-97614500D01*
X229935400Y-96614500D02*
X230210400Y-96889500D01*
D103*
X200261700Y-86324100D02*
X198941700Y-86324100D01*
X224876400Y-100803500D02*
X226493600Y-100803500D01*
X202637500Y-90027300D02*
X201462915Y-88852715D01*
X206396702Y-90027301D02*
X206032701Y-90027301D01*
X200286700Y-86299100D02*
X200261700Y-86324100D01*
X223672400Y-98160000D02*
X223672400Y-99153751D01*
X210798879Y-94429478D02*
X206396702Y-90027301D01*
X210798879Y-94712321D02*
X210798879Y-94429478D01*
X224397400Y-100324500D02*
X224876400Y-100803500D01*
X201462915Y-88852715D02*
X201462915Y-86947715D01*
X227054400Y-98077186D02*
X227517086Y-97614500D01*
X206032701Y-90027301D02*
X206032700Y-90027300D01*
D102*
X230210400Y-96889500D02*
X230210400Y-97339500D01*
D103*
X223672400Y-99153751D02*
X224397400Y-99878751D01*
X227054400Y-100242700D02*
X227054400Y-98077186D01*
X226493600Y-100803500D02*
X227054400Y-100242700D01*
%TO.N,UP_D+*%
X201912915Y-88666315D02*
X201912915Y-86761315D01*
X201912915Y-86761315D02*
X201000700Y-85849100D01*
X226257200Y-100403500D02*
X226654400Y-100006300D01*
X206032701Y-89577299D02*
X206032700Y-89577300D01*
D102*
X227924400Y-96768500D02*
X227924400Y-96514500D01*
D103*
X201000700Y-85849100D02*
X200286700Y-85849100D01*
X200286700Y-85849100D02*
X200261700Y-85824100D01*
X206583098Y-89577299D02*
X206032701Y-89577299D01*
X227451400Y-97114500D02*
X228432400Y-97114500D01*
X206032700Y-89577300D02*
X202823900Y-89577300D01*
D102*
X228270400Y-97114500D02*
X227924400Y-96768500D01*
D103*
X226654400Y-97911500D02*
X227451400Y-97114500D01*
D102*
X228432400Y-97114500D02*
X228270400Y-97114500D01*
D103*
X225042086Y-100403500D02*
X226257200Y-100403500D01*
X225572400Y-98160000D02*
X225572400Y-99153751D01*
X211117078Y-94111279D02*
X206583098Y-89577299D01*
D102*
X229090400Y-97114500D02*
X228432400Y-97114500D01*
D103*
X225572400Y-99153751D02*
X224847400Y-99878751D01*
X224847400Y-100208814D02*
X225042086Y-100403500D01*
X211399921Y-94111279D02*
X211117078Y-94111279D01*
X226654400Y-100006300D02*
X226654400Y-97911500D01*
D102*
X228324400Y-96114500D02*
X229090400Y-96114500D01*
X227924400Y-96514500D02*
X228324400Y-96114500D01*
D103*
X202823900Y-89577300D02*
X201912915Y-88666315D01*
X200261700Y-85824100D02*
X198941700Y-85824100D01*
X224847400Y-99878751D02*
X224847400Y-100208814D01*
D102*
%TO.N,RP2040_GPIO11*%
X190855600Y-88874600D02*
X191541400Y-88188800D01*
X227898000Y-87257500D02*
X227898000Y-87893200D01*
X200406000Y-98526600D02*
X199491600Y-97612200D01*
X229362000Y-89357200D02*
X229514400Y-89357200D01*
X235022951Y-83595500D02*
X234014300Y-83595500D01*
X233550000Y-83131200D02*
X233550000Y-82150000D01*
X230375300Y-90218100D02*
X233936700Y-90218100D01*
X235842300Y-84414849D02*
X235022951Y-83595500D01*
X227898000Y-87893200D02*
X229362000Y-89357200D01*
X234014300Y-83595500D02*
X233550000Y-83131200D01*
X235842300Y-88312500D02*
X235842300Y-84414849D01*
X229514400Y-89357200D02*
X230375300Y-90218100D01*
X233936700Y-90218100D02*
X235842300Y-88312500D01*
X218783897Y-75377600D02*
X218046615Y-74640318D01*
X198424800Y-113741200D02*
X200406000Y-111760000D01*
X194716400Y-113741200D02*
X198424800Y-113741200D01*
X232333800Y-80933800D02*
X232333800Y-76885800D01*
X219583000Y-75377600D02*
X218783897Y-75377600D01*
X196342000Y-97612200D02*
X194335400Y-95605600D01*
X200406000Y-111760000D02*
X200406000Y-98526600D01*
X233550000Y-82150000D02*
X232333800Y-80933800D01*
X190855600Y-93599000D02*
X190855600Y-88874600D01*
X194335400Y-95605600D02*
X192862200Y-95605600D01*
X192862200Y-95605600D02*
X190855600Y-93599000D01*
X199491600Y-97612200D02*
X196342000Y-97612200D01*
%TO.N,ONEWIRE_DETECT*%
X205333600Y-103708200D02*
X208508600Y-100533200D01*
X215531049Y-96901000D02*
X215671400Y-96901000D01*
X224546414Y-89255600D02*
X224205800Y-89255600D01*
X225898000Y-87904014D02*
X224546414Y-89255600D01*
X205333600Y-105435400D02*
X205333600Y-103708200D01*
X224053400Y-91521600D02*
X223350000Y-92225000D01*
X212220070Y-97942400D02*
X214489649Y-97942400D01*
X224053400Y-89408000D02*
X224053400Y-91521600D01*
X208508600Y-100533200D02*
X209629270Y-100533200D01*
X225898000Y-87257500D02*
X225898000Y-87904014D01*
X214489649Y-97942400D02*
X215531049Y-96901000D01*
X220547751Y-90339000D02*
X218283049Y-90339000D01*
X223350000Y-92225000D02*
X222433751Y-92225000D01*
X215671400Y-92950649D02*
X215671400Y-96901000D01*
X209629270Y-100533200D02*
X212220070Y-97942400D01*
X224205800Y-89255600D02*
X224053400Y-89408000D01*
X218283049Y-90339000D02*
X215671400Y-92950649D01*
X222433751Y-92225000D02*
X220547751Y-90339000D01*
%TO.N,RP2040_GPIO12*%
X200329800Y-113715800D02*
X197739000Y-116306600D01*
X204746100Y-103765370D02*
X204746100Y-112880900D01*
X229612700Y-88769700D02*
X229612700Y-88787751D01*
X201244200Y-94361000D02*
X201422000Y-94538800D01*
X192709800Y-116306600D02*
X190703200Y-114300000D01*
X228701600Y-87902051D02*
X229271049Y-88471500D01*
X229271049Y-88471500D02*
X229314500Y-88471500D01*
X204746100Y-112880900D02*
X203911200Y-113715800D01*
X205968600Y-102542870D02*
X204746100Y-103765370D01*
X230668049Y-89843100D02*
X233346500Y-89843100D01*
X205968600Y-99085400D02*
X205968600Y-102542870D01*
X229314500Y-88471500D02*
X229612700Y-88769700D01*
X201422000Y-94538800D02*
X201422000Y-96709051D01*
X233346500Y-89843100D02*
X233934000Y-89255600D01*
X197739000Y-116306600D02*
X192709800Y-116306600D01*
X203010949Y-98298000D02*
X205181200Y-98298000D01*
X203911200Y-113715800D02*
X200329800Y-113715800D01*
X201422000Y-96709051D02*
X203010949Y-98298000D01*
X228701600Y-86453900D02*
X228701600Y-87902051D01*
X229612700Y-88787751D02*
X230668049Y-89843100D01*
X228735500Y-86420000D02*
X228701600Y-86453900D01*
X205181200Y-98298000D02*
X205968600Y-99085400D01*
%TO.N,RP2040_GPIO10*%
X230219970Y-90593100D02*
X234450700Y-90593100D01*
X204419200Y-114579400D02*
X200538766Y-114579400D01*
X200538766Y-114579400D02*
X198201966Y-116916200D01*
X227498000Y-87257500D02*
X227498000Y-88185140D01*
X228930200Y-105003600D02*
X226796600Y-102870000D01*
X192049400Y-116916200D02*
X189433200Y-114300000D01*
X229599810Y-89972940D02*
X230219970Y-90593100D01*
X205486000Y-113512600D02*
X204419200Y-114579400D01*
X198201966Y-116916200D02*
X192049400Y-116916200D01*
X235915200Y-102946200D02*
X233857800Y-105003600D01*
X233857800Y-105003600D02*
X228930200Y-105003600D01*
X227498000Y-88185140D02*
X229285800Y-89972940D01*
X226796600Y-102870000D02*
X209727800Y-102870000D01*
X209727800Y-102870000D02*
X205486000Y-107111800D01*
X229285800Y-89972940D02*
X229599810Y-89972940D01*
X205486000Y-107111800D02*
X205486000Y-113512600D01*
X235915200Y-98856800D02*
X235915200Y-102946200D01*
X234450700Y-90593100D02*
X235661200Y-89382600D01*
D103*
%TO.N,RP2040_GPIO29*%
X214782803Y-80339797D02*
X211106346Y-80339797D01*
X205383151Y-82982886D02*
X205984286Y-82982886D01*
X205984286Y-82982886D02*
X206384600Y-83383200D01*
X211106346Y-80339797D02*
X211079526Y-80312977D01*
X206384600Y-83383200D02*
X206384600Y-88437146D01*
X223098000Y-80382500D02*
X223098000Y-81131893D01*
X206384600Y-88437146D02*
X209087727Y-91140273D01*
X223098000Y-81131893D02*
X222945575Y-81284318D01*
X214858600Y-80264000D02*
X214782803Y-80339797D01*
%TO.N,/2040_D+*%
X219961714Y-82321400D02*
X220460314Y-82820000D01*
X220460314Y-82820000D02*
X221860500Y-82820000D01*
X219460600Y-82321400D02*
X219961714Y-82321400D01*
%TO.N,RP2040_D+*%
X199699079Y-78278521D02*
X198720479Y-78278521D01*
X206578849Y-81522648D02*
X206296006Y-81522648D01*
X197651700Y-79347300D02*
X197651700Y-80534099D01*
X217445800Y-82440000D02*
X217445800Y-83272297D01*
X197626700Y-80559099D02*
X197626700Y-82509100D01*
X217236121Y-83481976D02*
X217236121Y-83764819D01*
X208389321Y-85415921D02*
X207264000Y-84290600D01*
X207264000Y-82207799D02*
X206578849Y-81522648D01*
X209875921Y-85415921D02*
X208389321Y-85415921D01*
X198720479Y-78278521D02*
X197651700Y-79347300D01*
X217919700Y-82013000D02*
X217872800Y-82013000D01*
X218228100Y-82321400D02*
X217919700Y-82013000D01*
X217872800Y-82013000D02*
X217445800Y-82440000D01*
X218265600Y-82321400D02*
X218228100Y-82321400D01*
X207264000Y-84290600D02*
X207264000Y-82207799D01*
X217445800Y-83272297D02*
X217236121Y-83481976D01*
X197651700Y-80534099D02*
X197626700Y-80559099D01*
%TO.N,RP2040_D-*%
X198740765Y-79106765D02*
X198660100Y-79026100D01*
X217686400Y-81563000D02*
X216995800Y-82253600D01*
X216995800Y-82253600D02*
X216995800Y-83085899D01*
X209123838Y-84965920D02*
X208575720Y-84965920D01*
X208575720Y-84965920D02*
X207670400Y-84060600D01*
X207670400Y-81977801D02*
X206897048Y-81204449D01*
X216917922Y-83163777D02*
X216635079Y-83163777D01*
X218265600Y-81254600D02*
X218228100Y-81254600D01*
X218228100Y-81254600D02*
X217919700Y-81563000D01*
X217919700Y-81563000D02*
X217686400Y-81563000D01*
X206897048Y-81204449D02*
X206897048Y-80921606D01*
X207670400Y-84060600D02*
X207670400Y-81977801D01*
X198740765Y-79945034D02*
X198126700Y-80559099D01*
X209274879Y-84814879D02*
X209123838Y-84965920D01*
X216995800Y-83085899D02*
X216917922Y-83163777D01*
X198660100Y-79026100D02*
X198609300Y-79026100D01*
X198126700Y-80559099D02*
X198126700Y-82509100D01*
X198740765Y-79106765D02*
X198740765Y-79945034D01*
%TO.N,/2040_D-*%
X219557600Y-81254600D02*
X220723000Y-82420000D01*
X219460600Y-81254600D02*
X219557600Y-81254600D01*
X220723000Y-82420000D02*
X221860500Y-82420000D01*
D102*
%TO.N,Net-(U1-XOUT)*%
X230590100Y-84020000D02*
X231228300Y-84658200D01*
X228735500Y-84020000D02*
X230590100Y-84020000D01*
%TO.N,QSPI_SS*%
X209741100Y-90183300D02*
X209956400Y-90398600D01*
X209741100Y-89458800D02*
X209741100Y-90183300D01*
X217754200Y-88874600D02*
X220548200Y-88874600D01*
X212115400Y-92361749D02*
X213541474Y-90935675D01*
X209741100Y-89458800D02*
X209741100Y-88392000D01*
X220548200Y-88874600D02*
X221860500Y-87562300D01*
X213541474Y-90935675D02*
X215693125Y-90935675D01*
X221860500Y-87562300D02*
X221860500Y-86420000D01*
X215693125Y-90935675D02*
X217754200Y-88874600D01*
%TO.N,CHRG_CTRL_1*%
X222414400Y-114808082D02*
X222924900Y-114297582D01*
X226190300Y-118809700D02*
X225750000Y-119250000D01*
X222924900Y-114297582D02*
X222924900Y-113787582D01*
X226003875Y-116794525D02*
X226190300Y-116980949D01*
X225750000Y-119250000D02*
X225750000Y-120899300D01*
X226237800Y-116560600D02*
X226003875Y-116794525D01*
X225750000Y-120899300D02*
X225689000Y-120960300D01*
X226190300Y-116980949D02*
X226190300Y-118809700D01*
%TO.N,CHRG_CTRL_2*%
X219659200Y-119340800D02*
X220500000Y-118500000D01*
X224256600Y-117926133D02*
X224256600Y-117271800D01*
X221823900Y-113787582D02*
X221823900Y-113898582D01*
X220500000Y-118500000D02*
X223682733Y-118500000D01*
X219659200Y-120954800D02*
X219659200Y-119340800D01*
X221823900Y-113898582D02*
X220914400Y-114808082D01*
X223682733Y-118500000D02*
X224256600Y-117926133D01*
X219659200Y-120340800D02*
X219659200Y-120954800D01*
%TO.N,BATT_SDA*%
X229514400Y-85882716D02*
X229251684Y-85620000D01*
X223914400Y-115558082D02*
X224164400Y-115308082D01*
X224164400Y-115308082D02*
X224164400Y-114308082D01*
X223664400Y-115808082D02*
X223914400Y-115558082D01*
X229251684Y-85620000D02*
X228735500Y-85620000D01*
X222976900Y-115808082D02*
X223664400Y-115808082D01*
X229514400Y-87884000D02*
X229514400Y-85882716D01*
D103*
%TO.N,BATT_SCL*%
X225664400Y-114308082D02*
X225664400Y-115808082D01*
D102*
X229382014Y-85220000D02*
X228735500Y-85220000D01*
D103*
X225164400Y-116308082D02*
X222976900Y-116308082D01*
D102*
X229920800Y-86893400D02*
X229920800Y-85758786D01*
X230098600Y-87071200D02*
X229920800Y-86893400D01*
D103*
X225664400Y-115808082D02*
X225164400Y-116308082D01*
X230200200Y-88544400D02*
X230200200Y-87172800D01*
D102*
X229920800Y-85758786D02*
X229382014Y-85220000D01*
D103*
X230200200Y-87172800D02*
X230098600Y-87071200D01*
D102*
%TO.N,Net-(U10-EN)*%
X176682400Y-90068400D02*
X176682400Y-88138000D01*
X176707800Y-90043000D02*
X176682400Y-90068400D01*
X177749200Y-90043000D02*
X176707800Y-90043000D01*
X176682400Y-88138000D02*
X176722000Y-88098400D01*
%TO.N,HUB_SDA*%
X211549697Y-79952297D02*
X210997800Y-79400400D01*
X230250000Y-78750000D02*
X229946200Y-79053800D01*
X218353250Y-76591550D02*
X217373200Y-77571600D01*
X212775496Y-79952297D02*
X211549697Y-79952297D01*
X194221700Y-91606900D02*
X194221700Y-91350500D01*
X195626700Y-89945500D02*
X195626700Y-88139100D01*
X217373200Y-78206600D02*
X216204800Y-79375000D01*
X205708506Y-82118606D02*
X206772100Y-83182200D01*
X229946200Y-80925484D02*
X229251684Y-81620000D01*
X206772100Y-86782500D02*
X206984600Y-86995000D01*
X210997800Y-79400400D02*
X206857600Y-79400400D01*
X213352793Y-79375000D02*
X212775496Y-79952297D01*
X216204800Y-79375000D02*
X213352793Y-79375000D01*
X229251684Y-81620000D02*
X228735500Y-81620000D01*
X206857600Y-79400400D02*
X205708506Y-80549494D01*
X217373200Y-77571600D02*
X217373200Y-78206600D01*
X219506800Y-76591550D02*
X218353250Y-76591550D01*
X206772100Y-83182200D02*
X206772100Y-86782500D01*
X194221700Y-91350500D02*
X195626700Y-89945500D01*
X205708506Y-80549494D02*
X205708506Y-82118606D01*
X229946200Y-79053800D02*
X229946200Y-80925484D01*
%TO.N,HUB_SCL*%
X227587300Y-77422500D02*
X229387400Y-79222600D01*
X218976617Y-77365183D02*
X219710505Y-77365183D01*
X216458800Y-82455676D02*
X216458800Y-79883000D01*
X196626700Y-91449200D02*
X196626700Y-90716700D01*
X215639817Y-83120200D02*
X215794276Y-83120200D01*
X216458800Y-79883000D02*
X218976617Y-77365183D01*
X196456900Y-91619000D02*
X196626700Y-91449200D01*
X215794276Y-83120200D02*
X216458800Y-82455676D01*
X196626700Y-90716700D02*
X196626700Y-88139100D01*
X229387400Y-80568100D02*
X228735500Y-81220000D01*
X229387400Y-79222600D02*
X229387400Y-80568100D01*
X227250621Y-77422500D02*
X227587300Y-77422500D01*
X196626700Y-90716700D02*
X196626700Y-90673149D01*
X196626700Y-90673149D02*
X196714199Y-90585650D01*
%TO.N,HUB_RST*%
X198717500Y-91605700D02*
X198717500Y-90996100D01*
X198717500Y-90996100D02*
X197626700Y-89905300D01*
X197626700Y-89905300D02*
X197626700Y-88139100D01*
%TO.N,PD_SDA*%
X227050600Y-90449400D02*
X227050600Y-88798400D01*
X221574400Y-100878600D02*
X220350500Y-102102500D01*
X234794300Y-91240100D02*
X227841300Y-91240100D01*
X227050600Y-88798400D02*
X226698000Y-88445800D01*
X221574400Y-98805000D02*
X221574400Y-100878600D01*
X234518200Y-102641400D02*
X234340400Y-102463600D01*
X220350500Y-102102500D02*
X220139900Y-102102500D01*
X226698000Y-88445800D02*
X226698000Y-87257500D01*
X221033400Y-98264000D02*
X221574400Y-98805000D01*
X234899200Y-91135200D02*
X234794300Y-91240100D01*
X227841300Y-91240100D02*
X227050600Y-90449400D01*
X220501000Y-102463600D02*
X220139900Y-102102500D01*
X234340400Y-102463600D02*
X220501000Y-102463600D01*
%TO.N,PD_SCL*%
X220533400Y-98264000D02*
X220533400Y-98601499D01*
X229387400Y-90652600D02*
X228523800Y-90652600D01*
X220149400Y-100987500D02*
X220139900Y-100987500D01*
X227736400Y-88953870D02*
X227098000Y-88315470D01*
X225171000Y-101876100D02*
X223592900Y-101876100D01*
X227098000Y-88315470D02*
X227098000Y-87257500D01*
X223592900Y-101876100D02*
X222326200Y-100609400D01*
X221066400Y-99134499D02*
X221066400Y-100070500D01*
X221066400Y-100070500D02*
X220149400Y-100987500D01*
X228523800Y-90652600D02*
X227736400Y-89865200D01*
X220533400Y-98601499D02*
X221066400Y-99134499D01*
X227736400Y-89865200D02*
X227736400Y-88953870D01*
%TO.N,PD_INT*%
X223572753Y-89327247D02*
X224000000Y-88900000D01*
X215083900Y-95859600D02*
X214528400Y-95304100D01*
X220675200Y-89687400D02*
X221284800Y-90297000D01*
X220139900Y-99816500D02*
X220033400Y-99710000D01*
X221284800Y-90297000D02*
X221310200Y-90297000D01*
X220033400Y-99710000D02*
X220033400Y-98264000D01*
X221310200Y-90297000D02*
X222588200Y-91575000D01*
X214528400Y-93091000D02*
X217932000Y-89687400D01*
X223075000Y-91575000D02*
X223572753Y-91077247D01*
X217932000Y-89687400D02*
X220675200Y-89687400D01*
X223572753Y-91077247D02*
X223572753Y-89327247D01*
X214528400Y-95304100D02*
X214528400Y-93091000D01*
X222588200Y-91575000D02*
X223075000Y-91575000D01*
X224371684Y-88900000D02*
X225498000Y-87773684D01*
X224000000Y-88900000D02*
X224371684Y-88900000D01*
X225498000Y-87773684D02*
X225498000Y-87257500D01*
%TO.N,Net-(U10-VSENSE)*%
X177992000Y-84352800D02*
X177992000Y-83148400D01*
X179703000Y-86063800D02*
X179703000Y-87164800D01*
X179703000Y-86063800D02*
X177992000Y-84352800D01*
D103*
%TO.N,RPI0_D+*%
X197662800Y-76606400D02*
X197662800Y-78040800D01*
X196773800Y-80418524D02*
X196626700Y-80565624D01*
X197662800Y-78040800D02*
X196773800Y-78929800D01*
X196773800Y-78929800D02*
X196773800Y-80418524D01*
X196626700Y-80565624D02*
X196626700Y-82509100D01*
%TO.N,RPI0_D-*%
X197208780Y-79131220D02*
X197208780Y-80619912D01*
X197126700Y-80701992D02*
X197126700Y-82509100D01*
X197208780Y-80619912D02*
X197126700Y-80701992D01*
X199447500Y-76892500D02*
X197208780Y-79131220D01*
D102*
%TO.N,BATT_INT*%
X189992000Y-94059500D02*
X189915800Y-93983300D01*
X212495431Y-75430700D02*
X209735100Y-75430700D01*
X222976900Y-117308082D02*
X222976900Y-117441182D01*
X209461589Y-95453200D02*
X210208626Y-96200237D01*
X215417400Y-103807600D02*
X215417400Y-109956600D01*
X212772530Y-75707799D02*
X212495431Y-75430700D01*
X215425000Y-103800000D02*
X215417400Y-103807600D01*
X227898000Y-80382500D02*
X228601900Y-80382500D01*
X206121000Y-95453200D02*
X209461589Y-95453200D01*
X209735100Y-75430700D02*
X209296000Y-75869800D01*
X189915800Y-89458800D02*
X190068200Y-89306400D01*
X228601900Y-80382500D02*
X228799900Y-80184500D01*
X222976900Y-117441182D02*
X223443800Y-117908082D01*
X215417400Y-109956600D02*
X214960200Y-110413800D01*
X189915800Y-93983300D02*
X189915800Y-89458800D01*
%TO.N,QSPI_SD0*%
X221053200Y-85220000D02*
X221860500Y-85220000D01*
X219430600Y-86842600D02*
X221053200Y-85220000D01*
X215011000Y-85877400D02*
X215976200Y-86842600D01*
X215671400Y-81820200D02*
X215011000Y-82480600D01*
X215011000Y-82480600D02*
X215011000Y-85877400D01*
X215976200Y-86842600D02*
X219430600Y-86842600D01*
%TO.N,QSPI__SD1*%
X216966800Y-88366600D02*
X217043000Y-88290400D01*
X219760800Y-88290400D02*
X220903800Y-87147400D01*
X220903800Y-87147400D02*
X220903800Y-86460516D01*
X217043000Y-88290400D02*
X219760800Y-88290400D01*
X213156800Y-87807800D02*
X213156800Y-88994800D01*
X213156800Y-88994800D02*
X213131400Y-89020200D01*
X221344316Y-86020000D02*
X221860500Y-86020000D01*
X220903800Y-86460516D02*
X221344316Y-86020000D01*
%TO.N,QSPI_SD3*%
X222790955Y-84420000D02*
X221860500Y-84420000D01*
X213131400Y-84493600D02*
X213131400Y-81820200D01*
X212300000Y-85325000D02*
X213131400Y-84493600D01*
X223248001Y-83962954D02*
X222790955Y-84420000D01*
%TO.N,QSPI_SCLK*%
X214401400Y-86201400D02*
X214401400Y-81820200D01*
X222936895Y-84820000D02*
X221860500Y-84820000D01*
X214650000Y-86450000D02*
X214401400Y-86201400D01*
X223247999Y-85131104D02*
X222936895Y-84820000D01*
%TO.N,QSPI_SD2*%
X220528800Y-86305186D02*
X220528800Y-86582600D01*
X221213986Y-85620000D02*
X220528800Y-86305186D01*
X220528800Y-86582600D02*
X219557600Y-87553800D01*
X219557600Y-87553800D02*
X215067801Y-87553800D01*
X221860500Y-85620000D02*
X221213986Y-85620000D01*
X214401400Y-88220201D02*
X214401400Y-89020200D01*
X215067801Y-87553800D02*
X214401400Y-88220201D01*
%TO.N,Net-(U2-XTAL1)*%
X202062500Y-85324100D02*
X198941700Y-85324100D01*
X202387200Y-85648800D02*
X202062500Y-85324100D01*
X202730700Y-88913300D02*
X202387200Y-88569800D01*
X204127700Y-88913300D02*
X202730700Y-88913300D01*
X204568200Y-88151300D02*
X204568200Y-87247800D01*
X204568200Y-88151300D02*
X204568200Y-88472800D01*
X204568200Y-88472800D02*
X204127700Y-88913300D01*
X204568200Y-87247800D02*
X205358700Y-86457300D01*
X202387200Y-88569800D02*
X202387200Y-85648800D01*
%TO.N,Net-(C5-Pad2)*%
X204598200Y-81420300D02*
X204598200Y-82533300D01*
X204598200Y-82533300D02*
X204568200Y-82563300D01*
X203658700Y-83472800D02*
X204568200Y-82563300D01*
X203658700Y-84257300D02*
X203658700Y-83472800D01*
%TO.N,Net-(U2-PLLFILT)*%
X201020200Y-81420300D02*
X201714700Y-82114800D01*
X201714700Y-82114800D02*
X201714700Y-84087300D01*
X201714700Y-84087300D02*
X201477900Y-84324100D01*
X201477900Y-84324100D02*
X198941700Y-84324100D01*
X201020200Y-80277300D02*
X201020200Y-81420300D01*
%TO.N,Net-(U2-CRFILT)*%
X190373000Y-85318600D02*
X190373000Y-84759800D01*
X190373000Y-85877400D02*
X190373000Y-85318600D01*
X190378500Y-85324100D02*
X193311700Y-85324100D01*
X190373000Y-85318600D02*
X190378500Y-85324100D01*
%TO.N,Net-(U5-OSCI)*%
X148928000Y-116459000D02*
X148267600Y-117119400D01*
X148403300Y-115392200D02*
X148403300Y-116983700D01*
X151115400Y-116459000D02*
X148928000Y-116459000D01*
X148403300Y-116983700D02*
X148267600Y-117119400D01*
%TO.N,Net-(U5-OSCO)*%
X147251600Y-118364000D02*
X147742900Y-118364000D01*
X145767600Y-117119400D02*
X146007000Y-117119400D01*
X147742900Y-118364000D02*
X148403300Y-119024400D01*
X148403300Y-119024400D02*
X149698700Y-117729000D01*
X146007000Y-117119400D02*
X147251600Y-118364000D01*
X149698700Y-117729000D02*
X151115400Y-117729000D01*
D105*
%TO.N,Net-(U11-IN)*%
X220765900Y-113762582D02*
X218390900Y-113762582D01*
X217463900Y-112365582D02*
X218181400Y-111648082D01*
X217463900Y-112835582D02*
X217463900Y-112365582D01*
X217463900Y-112835582D02*
X217463900Y-112428082D01*
X219324400Y-111648082D02*
X219590400Y-111382082D01*
X218181400Y-111648082D02*
X219324400Y-111648082D01*
X218390900Y-113762582D02*
X217463900Y-112835582D01*
X219590400Y-111382082D02*
X219590400Y-110926582D01*
D102*
%TO.N,Net-(U7-VBST)*%
X164169100Y-79359200D02*
X163369100Y-80159200D01*
X165616600Y-79359200D02*
X164169100Y-79359200D01*
%TO.N,Net-(U7-SW)*%
X162681600Y-78559200D02*
X165951600Y-78559200D01*
X162181600Y-79059200D02*
X162681600Y-78559200D01*
X165951600Y-78559200D02*
X166751600Y-79359200D01*
D103*
%TO.N,Net-(U8-SW)*%
X166583500Y-89124800D02*
X165872300Y-88413600D01*
X165872300Y-88413600D02*
X162815600Y-88413600D01*
X162815600Y-88413600D02*
X162358400Y-88870800D01*
%TO.N,Net-(U8-VBST)*%
X164949200Y-89124800D02*
X164172000Y-89902000D01*
X164172000Y-89902000D02*
X163368900Y-89902000D01*
X165448500Y-89124800D02*
X164949200Y-89124800D01*
D102*
%TO.N,Net-(D3-K)*%
X231821700Y-113094500D02*
X232714800Y-113987600D01*
X231343200Y-113094500D02*
X231821700Y-113094500D01*
%TO.N,Net-(D3-A)*%
X229311200Y-114593200D02*
X231266900Y-114593200D01*
X231266900Y-114593200D02*
X231343200Y-114669500D01*
%TO.N,Net-(D11-K)*%
X220086400Y-106046082D02*
X218902900Y-107229582D01*
X218902900Y-107229582D02*
X218902900Y-108739082D01*
%TO.N,Net-(D11-A)*%
X218689400Y-104940582D02*
X219441900Y-104940582D01*
X219441900Y-104940582D02*
X220086400Y-104296082D01*
%TO.N,Net-(D12-A)*%
X219100400Y-103352600D02*
X220793918Y-103352600D01*
X217546400Y-104940582D02*
X217546400Y-104906600D01*
X217546400Y-104906600D02*
X219100400Y-103352600D01*
X220793918Y-103352600D02*
X221737400Y-104296082D01*
%TO.N,Net-(D12-K)*%
X220090400Y-107453082D02*
X220090400Y-108051582D01*
X221497400Y-106046082D02*
X220090400Y-107453082D01*
X221737400Y-106046082D02*
X221497400Y-106046082D01*
%TO.N,Net-(R3-Pad2)*%
X222064350Y-74809050D02*
X222662450Y-74809050D01*
X222662450Y-74809050D02*
X223361550Y-75508150D01*
%TO.N,Net-(U2-XTAL2)*%
X201993900Y-84824100D02*
X198941700Y-84824100D01*
X202349700Y-84468300D02*
X201993900Y-84824100D01*
X203403200Y-81420300D02*
X202349700Y-82473800D01*
X202349700Y-82473800D02*
X202349700Y-84468300D01*
%TO.N,Net-(R11-Pad2)*%
X208546100Y-87438300D02*
X209143600Y-86840800D01*
X208546100Y-88392000D02*
X208546100Y-87438300D01*
%TO.N,Net-(U2-VBUS_DET)*%
X200966000Y-91606900D02*
X201003500Y-91569400D01*
X198126700Y-89668700D02*
X198126700Y-88139100D01*
X199860500Y-91606900D02*
X200966000Y-91606900D01*
X199860500Y-91402500D02*
X198126700Y-89668700D01*
X199860500Y-91606900D02*
X199860500Y-91402500D01*
%TO.N,Net-(U2-RBIAS)*%
X200984450Y-83674550D02*
X200834900Y-83824100D01*
X200834900Y-83824100D02*
X198941700Y-83824100D01*
%TO.N,Net-(U2-CFG_SEL1)*%
X197650700Y-91529500D02*
X197650700Y-90691300D01*
X197574500Y-91605700D02*
X197650700Y-91529500D01*
X197126700Y-90167300D02*
X197126700Y-88139100D01*
X197650700Y-90691300D02*
X197126700Y-90167300D01*
%TO.N,Net-(U2-OCS4)*%
X194833200Y-89876600D02*
X194836610Y-89876600D01*
X194836610Y-89876600D02*
X195126700Y-89586510D01*
X195126700Y-89586510D02*
X195126700Y-88139100D01*
X193078700Y-91617800D02*
X193078700Y-91148500D01*
X194069300Y-90640500D02*
X194833200Y-89876600D01*
X193586700Y-90640500D02*
X194069300Y-90640500D01*
X193078700Y-91148500D02*
X193586700Y-90640500D01*
%TO.N,Net-(U2-OCS3)*%
X192824700Y-90284900D02*
X193434300Y-90284900D01*
X194126700Y-89592500D02*
X194126700Y-88139100D01*
X193434300Y-90284900D02*
X194126700Y-89592500D01*
X191961100Y-91148500D02*
X192824700Y-90284900D01*
X191961100Y-91617800D02*
X191961100Y-91148500D01*
%TO.N,Net-(U2-OCS2)*%
X190403000Y-88061800D02*
X190413200Y-88061800D01*
X190413200Y-88061800D02*
X191650900Y-86824100D01*
X191650900Y-86824100D02*
X193311700Y-86824100D01*
%TO.N,Net-(U2-OCS1)*%
X190407600Y-83680900D02*
X191550800Y-84824100D01*
X191550800Y-84824100D02*
X193311700Y-84824100D01*
%TO.N,Net-(U6-~{CS})*%
X211607400Y-91121900D02*
X212090000Y-91121900D01*
X212090000Y-91121900D02*
X211861400Y-90893300D01*
X211861400Y-90893300D02*
X211861400Y-89020200D01*
X210972400Y-91121900D02*
X211607400Y-91121900D01*
X211607400Y-91121900D02*
X211836000Y-90893300D01*
%TO.N,Net-(U5-~{INTA})*%
X158338100Y-117703600D02*
X156090800Y-117703600D01*
X156090800Y-117703600D02*
X156065400Y-117729000D01*
D103*
%TO.N,Net-(R38-Pad2)*%
X224164400Y-109951082D02*
X224164400Y-111094082D01*
D102*
%TO.N,Net-(U11-ISET)*%
X221090400Y-110926582D02*
X221090400Y-111763082D01*
X221823900Y-112496582D02*
X221823900Y-112592582D01*
X221090400Y-111763082D02*
X221823900Y-112496582D01*
X222924900Y-112592582D02*
X221823900Y-112592582D01*
%TO.N,Net-(U7-EN)*%
X165584100Y-80409200D02*
X164781600Y-80409200D01*
X164081600Y-81109200D02*
X163369100Y-81109200D01*
X165634100Y-80459200D02*
X165584100Y-80409200D01*
X164781600Y-80409200D02*
X164081600Y-81109200D01*
D103*
%TO.N,Net-(U8-EN)*%
X164441200Y-90852000D02*
X163368900Y-90852000D01*
X165050800Y-90242400D02*
X164441200Y-90852000D01*
X165457200Y-90242400D02*
X165050800Y-90242400D01*
D102*
%TO.N,Net-(U7-VFB)*%
X165586600Y-81509200D02*
X164881600Y-81509200D01*
X165639100Y-82659200D02*
X165639100Y-81561700D01*
X164881600Y-81509200D02*
X164331600Y-82059200D01*
X165639100Y-81561700D02*
X165636600Y-81559200D01*
X164331600Y-82059200D02*
X163369100Y-82059200D01*
X165636600Y-81559200D02*
X165586600Y-81509200D01*
D103*
%TO.N,Net-(U8-VFB)*%
X165508000Y-92477600D02*
X165508000Y-91360000D01*
X165406400Y-91461600D02*
X164695200Y-91461600D01*
X164441200Y-91715600D02*
X163455300Y-91715600D01*
X165508000Y-91360000D02*
X165406400Y-91461600D01*
X164695200Y-91461600D02*
X164441200Y-91715600D01*
X163455300Y-91715600D02*
X163368900Y-91802000D01*
%TO.N,EXTRA_USB3_D-*%
X195601700Y-81164100D02*
X195626700Y-81189100D01*
X190492278Y-95750005D02*
X188921600Y-94179327D01*
X194475000Y-79162831D02*
X195518800Y-80206631D01*
X193681885Y-76983800D02*
X194475000Y-77776915D01*
X195601700Y-80516424D02*
X195601700Y-81164100D01*
X202764999Y-96371199D02*
X202565000Y-96171200D01*
X195518800Y-80206631D02*
X195518800Y-80433524D01*
X191939400Y-76983800D02*
X193681885Y-76983800D01*
X190775121Y-95750005D02*
X190492278Y-95750005D01*
X188921600Y-94179327D02*
X188921600Y-91321400D01*
X209191199Y-96371199D02*
X202764999Y-96371199D01*
X186864200Y-83252800D02*
X191461600Y-78655400D01*
X195518800Y-80433524D02*
X195601700Y-80516424D01*
X194475000Y-77776915D02*
X194475000Y-79162831D01*
X191461600Y-77461600D02*
X191939400Y-76983800D01*
X188921600Y-91321400D02*
X186864200Y-89264000D01*
X210635400Y-97815400D02*
X209191199Y-96371199D01*
X191461600Y-78655400D02*
X191461600Y-77461600D01*
X195626700Y-81189100D02*
X195626700Y-82509100D01*
X186864200Y-89264000D02*
X186864200Y-83252800D01*
D102*
%TO.N,Net-(D15-K)*%
X232714800Y-117322600D02*
X232181400Y-117322600D01*
X232181400Y-117322600D02*
X231368600Y-116509800D01*
%TO.N,Net-(D15-A)*%
X229311200Y-118033800D02*
X231317600Y-118033800D01*
X231317600Y-118033800D02*
X231368600Y-118084800D01*
%TD*%
%TA.AperFunction,Conductor*%
%TO.N,Net-(D10-A)*%
G36*
X174339439Y-76270485D02*
G01*
X174385194Y-76323289D01*
X174396400Y-76374800D01*
X174396400Y-79984600D01*
X174470252Y-80723116D01*
X174598985Y-82010449D01*
X174599600Y-82022787D01*
X174599600Y-84078576D01*
X174579915Y-84145615D01*
X174528230Y-84190853D01*
X174423220Y-84240077D01*
X174370590Y-84251800D01*
X170329400Y-84251800D01*
X170262361Y-84232115D01*
X170216606Y-84179311D01*
X170205400Y-84127800D01*
X170205400Y-82471482D01*
X170225085Y-82404443D01*
X170238280Y-82387379D01*
X170510200Y-82092800D01*
X170510200Y-80790155D01*
X170529885Y-80723116D01*
X170546519Y-80702474D01*
X170618474Y-80630519D01*
X170679797Y-80597034D01*
X170706155Y-80594200D01*
X171424600Y-80594200D01*
X171780200Y-80187800D01*
X171780200Y-76374800D01*
X171799885Y-76307761D01*
X171852689Y-76262006D01*
X171904200Y-76250800D01*
X174272400Y-76250800D01*
X174339439Y-76270485D01*
G37*
%TD.AperFunction*%
%TD*%
%TA.AperFunction,Conductor*%
%TO.N,GND*%
G36*
X221132994Y-96788185D02*
G01*
X221134845Y-96789398D01*
X221154454Y-96802500D01*
X221168283Y-96811740D01*
X221168286Y-96811740D01*
X221168287Y-96811741D01*
X221206641Y-96819370D01*
X221244999Y-96827000D01*
X221831400Y-96826999D01*
X221898439Y-96846683D01*
X221944194Y-96899487D01*
X221955400Y-96950999D01*
X221955400Y-97533500D01*
X221935715Y-97600539D01*
X221882911Y-97646294D01*
X221831400Y-97657500D01*
X220682400Y-97657500D01*
X220615361Y-97637815D01*
X220569606Y-97585011D01*
X220558400Y-97533500D01*
X220558400Y-96892500D01*
X220578085Y-96825461D01*
X220630889Y-96779706D01*
X220682400Y-96768500D01*
X221065955Y-96768500D01*
X221132994Y-96788185D01*
G37*
%TD.AperFunction*%
%TD*%
%TA.AperFunction,Conductor*%
%TO.N,3V3*%
G36*
X222115323Y-78454885D02*
G01*
X222135965Y-78471519D01*
X222139569Y-78475123D01*
X222246157Y-78527232D01*
X222246158Y-78527232D01*
X222246160Y-78527233D01*
X222315258Y-78537300D01*
X222315264Y-78537300D01*
X222692736Y-78537300D01*
X222692742Y-78537300D01*
X222761840Y-78527233D01*
X222858940Y-78479762D01*
X222927811Y-78468003D01*
X222992109Y-78495346D01*
X223031417Y-78553110D01*
X223037400Y-78591163D01*
X223037400Y-79460666D01*
X223017715Y-79527705D01*
X223012600Y-79535066D01*
X222885000Y-79705200D01*
X222885000Y-79750442D01*
X222865315Y-79817481D01*
X222864103Y-79819332D01*
X222812033Y-79897260D01*
X222812032Y-79897264D01*
X222797500Y-79970321D01*
X222797500Y-80716825D01*
X222777815Y-80783864D01*
X222740539Y-80821141D01*
X222614448Y-80902174D01*
X222520198Y-81010944D01*
X222520197Y-81010946D01*
X222460409Y-81141861D01*
X222439928Y-81284318D01*
X222460409Y-81426774D01*
X222518194Y-81553304D01*
X222529400Y-81604816D01*
X222529400Y-81608000D01*
X222509715Y-81675039D01*
X222456911Y-81720794D01*
X222405400Y-81732000D01*
X222347727Y-81732000D01*
X222323535Y-81729617D01*
X222272676Y-81719500D01*
X222272674Y-81719500D01*
X221806962Y-81719500D01*
X221502473Y-81719500D01*
X221435434Y-81699815D01*
X221414792Y-81683181D01*
X221265862Y-81534251D01*
X221247857Y-81511427D01*
X220014800Y-79502000D01*
X218958564Y-79502000D01*
X218891525Y-79482315D01*
X218845770Y-79429511D01*
X218835826Y-79360353D01*
X218835859Y-79360124D01*
X218836833Y-79353440D01*
X218846900Y-79284342D01*
X218846900Y-79003932D01*
X218866585Y-78936893D01*
X218883215Y-78916255D01*
X219124751Y-78674718D01*
X219186074Y-78641234D01*
X219212432Y-78638400D01*
X221691200Y-78638400D01*
X221858081Y-78471519D01*
X221919404Y-78438034D01*
X221945762Y-78435200D01*
X222048284Y-78435200D01*
X222115323Y-78454885D01*
G37*
%TD.AperFunction*%
%TD*%
%TA.AperFunction,Conductor*%
%TO.N,3V3*%
G36*
X218639422Y-97309185D02*
G01*
X218641275Y-97310399D01*
X218643283Y-97311740D01*
X218719999Y-97327000D01*
X219233900Y-97326999D01*
X219300939Y-97346683D01*
X219346694Y-97399487D01*
X219357900Y-97450999D01*
X219357900Y-97746252D01*
X219369531Y-97804729D01*
X219369532Y-97804730D01*
X219413847Y-97871052D01*
X219480169Y-97915367D01*
X219480170Y-97915368D01*
X219538647Y-97926999D01*
X219538650Y-97927000D01*
X219538652Y-97927000D01*
X219583900Y-97927000D01*
X219650939Y-97946685D01*
X219696694Y-97999489D01*
X219707900Y-98051000D01*
X219707900Y-98564899D01*
X219707901Y-98564900D01*
X219724036Y-98646026D01*
X219717807Y-98715617D01*
X219696133Y-98751414D01*
X219665625Y-98786623D01*
X219665622Y-98786628D01*
X219602151Y-98925610D01*
X219599279Y-98924298D01*
X219569912Y-98969981D01*
X219563123Y-98975456D01*
X218305467Y-99918700D01*
X218240025Y-99943176D01*
X218231067Y-99943500D01*
X217253400Y-99943500D01*
X217186361Y-99923815D01*
X217140606Y-99871011D01*
X217129400Y-99819500D01*
X217129400Y-98927500D01*
X216911719Y-98709819D01*
X216878234Y-98648496D01*
X216875400Y-98622138D01*
X216875400Y-97781500D01*
X216895085Y-97714461D01*
X216947889Y-97668706D01*
X216999400Y-97657500D01*
X218018399Y-97657500D01*
X218018400Y-97657500D01*
X218476000Y-97314300D01*
X218541442Y-97289824D01*
X218550400Y-97289500D01*
X218572383Y-97289500D01*
X218639422Y-97309185D01*
G37*
%TD.AperFunction*%
%TD*%
%TA.AperFunction,Conductor*%
%TO.N,Net-(U8-SW)*%
G36*
X159875957Y-90188185D02*
G01*
X159896599Y-90204819D01*
X160144765Y-90452986D01*
X160144766Y-90452987D01*
X160161116Y-90467674D01*
X160161130Y-90467686D01*
X160161138Y-90467693D01*
X160168960Y-90473996D01*
X160181779Y-90484327D01*
X160252824Y-90521490D01*
X160288270Y-90531898D01*
X160319864Y-90541175D01*
X160368609Y-90548183D01*
X160432163Y-90577209D01*
X160438640Y-90583240D01*
X160453400Y-90598000D01*
X161599400Y-90598000D01*
X161666439Y-90617685D01*
X161712194Y-90670489D01*
X161723400Y-90722000D01*
X161723400Y-90982000D01*
X161703715Y-91049039D01*
X161650911Y-91094794D01*
X161599400Y-91106000D01*
X160453400Y-91106000D01*
X160393239Y-91166161D01*
X160258940Y-91300459D01*
X160230689Y-91321607D01*
X160191604Y-91342950D01*
X160191589Y-91342959D01*
X160144784Y-91377998D01*
X160144763Y-91378016D01*
X160023599Y-91499181D01*
X159962276Y-91532666D01*
X159935918Y-91535500D01*
X158750900Y-91535500D01*
X158683861Y-91515815D01*
X158638106Y-91463011D01*
X158626900Y-91411500D01*
X158626900Y-91357008D01*
X158626899Y-91356992D01*
X158623094Y-91321607D01*
X158622203Y-91313316D01*
X158617093Y-91289825D01*
X158611002Y-91261825D01*
X158610748Y-91260789D01*
X158608510Y-91251627D01*
X158565500Y-91170915D01*
X158562967Y-91166161D01*
X158548400Y-91107847D01*
X158548400Y-90721523D01*
X158564179Y-90660990D01*
X158598890Y-90598937D01*
X158618575Y-90531898D01*
X158626900Y-90474000D01*
X158626900Y-90292500D01*
X158646585Y-90225461D01*
X158699389Y-90179706D01*
X158750900Y-90168500D01*
X159808918Y-90168500D01*
X159875957Y-90188185D01*
G37*
%TD.AperFunction*%
%TD*%
%TA.AperFunction,Conductor*%
%TO.N,VSYS*%
G36*
X158324639Y-81378885D02*
G01*
X158370394Y-81431689D01*
X158381600Y-81483200D01*
X158381600Y-81759200D01*
X158581600Y-82059200D01*
X160181599Y-82059200D01*
X160181600Y-82059200D01*
X160344789Y-81814417D01*
X160398354Y-81769556D01*
X160447963Y-81759200D01*
X161707600Y-81759200D01*
X161774639Y-81778885D01*
X161820394Y-81831689D01*
X161831600Y-81883200D01*
X161831600Y-82335200D01*
X161811915Y-82402239D01*
X161759111Y-82447994D01*
X161707600Y-82459200D01*
X161031600Y-82459200D01*
X160168208Y-83802254D01*
X160115398Y-83848002D01*
X160063902Y-83859200D01*
X155505600Y-83859200D01*
X155438561Y-83839515D01*
X155392806Y-83786711D01*
X155381600Y-83735200D01*
X155381600Y-81483200D01*
X155401285Y-81416161D01*
X155454089Y-81370406D01*
X155505600Y-81359200D01*
X158257600Y-81359200D01*
X158324639Y-81378885D01*
G37*
%TD.AperFunction*%
%TD*%
%TA.AperFunction,Conductor*%
%TO.N,VCONN*%
G36*
X219993439Y-92978185D02*
G01*
X220039194Y-93030989D01*
X220050400Y-93082500D01*
X220050400Y-93485483D01*
X220049339Y-93501668D01*
X220047900Y-93512598D01*
X220047900Y-93872399D01*
X220049340Y-93883334D01*
X220050400Y-93899513D01*
X220050400Y-94228500D01*
X220720600Y-95122100D01*
X220745076Y-95187541D01*
X220745400Y-95196499D01*
X220745400Y-95290482D01*
X220725715Y-95357521D01*
X220724504Y-95359370D01*
X220723159Y-95361382D01*
X220707900Y-95438094D01*
X220707900Y-95438096D01*
X220707901Y-95952000D01*
X220688217Y-96019039D01*
X220635413Y-96064794D01*
X220583901Y-96076000D01*
X219982900Y-96076000D01*
X219915861Y-96056315D01*
X219870106Y-96003511D01*
X219858900Y-95952000D01*
X219858899Y-95438102D01*
X219858899Y-95438100D01*
X219843640Y-95361383D01*
X219843639Y-95361381D01*
X219843638Y-95361379D01*
X219817298Y-95321959D01*
X219796420Y-95255282D01*
X219796400Y-95253068D01*
X219796400Y-95244499D01*
X219647106Y-95020559D01*
X219497808Y-94796612D01*
X219488197Y-94779359D01*
X219459777Y-94717127D01*
X219400025Y-94648169D01*
X219390579Y-94635769D01*
X219288400Y-94482500D01*
X216085000Y-94482500D01*
X216017961Y-94462815D01*
X215972206Y-94410011D01*
X215961000Y-94358500D01*
X215961000Y-93336500D01*
X215980685Y-93269461D01*
X216033489Y-93223706D01*
X216085000Y-93212500D01*
X217310276Y-93212500D01*
X217319244Y-93212825D01*
X217321657Y-93213000D01*
X217321658Y-93213000D01*
X217699143Y-93213000D01*
X217701556Y-93212825D01*
X217710524Y-93212500D01*
X218018400Y-93212500D01*
X218236081Y-92994819D01*
X218297404Y-92961334D01*
X218323762Y-92958500D01*
X219926400Y-92958500D01*
X219993439Y-92978185D01*
G37*
%TD.AperFunction*%
%TD*%
%TA.AperFunction,Conductor*%
%TO.N,EXT_PWR*%
G36*
X175711039Y-87065485D02*
G01*
X175756794Y-87118289D01*
X175768000Y-87169800D01*
X175768000Y-89331800D01*
X175907309Y-89610418D01*
X175920400Y-89665872D01*
X175920400Y-91617800D01*
X177015600Y-91617800D01*
X177082639Y-91637485D01*
X177128394Y-91690289D01*
X177139600Y-91741800D01*
X177139600Y-93421200D01*
X174599600Y-93433900D01*
X174599600Y-89715884D01*
X174619285Y-89648845D01*
X174638993Y-89625233D01*
X174654868Y-89610417D01*
X174980600Y-89306400D01*
X174980600Y-87169800D01*
X175000285Y-87102761D01*
X175053089Y-87057006D01*
X175104600Y-87045800D01*
X175644000Y-87045800D01*
X175711039Y-87065485D01*
G37*
%TD.AperFunction*%
%TD*%
%TA.AperFunction,Conductor*%
%TO.N,GND*%
G36*
X159374639Y-75128885D02*
G01*
X159420394Y-75181689D01*
X159431600Y-75233200D01*
X159431600Y-78009200D01*
X159781600Y-78609200D01*
X157131600Y-78409200D01*
X157131600Y-75242855D01*
X157151285Y-75175816D01*
X157167919Y-75155174D01*
X157177574Y-75145519D01*
X157238897Y-75112034D01*
X157265255Y-75109200D01*
X159307600Y-75109200D01*
X159374639Y-75128885D01*
G37*
%TD.AperFunction*%
%TD*%
%TA.AperFunction,Conductor*%
%TO.N,VBUS*%
G36*
X228261221Y-98832405D02*
G01*
X228299046Y-98868941D01*
X228325847Y-98909052D01*
X228392169Y-98953367D01*
X228392170Y-98953368D01*
X228450647Y-98964999D01*
X228450650Y-98965000D01*
X228450652Y-98965000D01*
X229730150Y-98965000D01*
X229730151Y-98964999D01*
X229746748Y-98961698D01*
X229800610Y-98950985D01*
X229801043Y-98953163D01*
X229854411Y-98947423D01*
X229916892Y-98978695D01*
X229952547Y-99038783D01*
X229956400Y-99069454D01*
X229956400Y-99165025D01*
X229936715Y-99232064D01*
X229894401Y-99272411D01*
X229857035Y-99293985D01*
X229857032Y-99293987D01*
X229749887Y-99401132D01*
X229749882Y-99401138D01*
X229691650Y-99502000D01*
X229641083Y-99550216D01*
X229584263Y-99564000D01*
X229562431Y-99564000D01*
X229544784Y-99562738D01*
X229534849Y-99561309D01*
X229522264Y-99559500D01*
X228556400Y-99559500D01*
X228556392Y-99559500D01*
X228521161Y-99563289D01*
X228507905Y-99564000D01*
X228450647Y-99564000D01*
X228392170Y-99575631D01*
X228392169Y-99575632D01*
X228325847Y-99619947D01*
X228281532Y-99686269D01*
X228276035Y-99713904D01*
X228262665Y-99750196D01*
X228261106Y-99752986D01*
X228211221Y-99801907D01*
X228186915Y-99807984D01*
X228178400Y-99816500D01*
X228178400Y-100540955D01*
X228158715Y-100607994D01*
X228157574Y-100609738D01*
X227670400Y-101340499D01*
X227670400Y-101978500D01*
X227650715Y-102045539D01*
X227597911Y-102091294D01*
X227546400Y-102102500D01*
X226270400Y-102102500D01*
X226203361Y-102082815D01*
X226157606Y-102030011D01*
X226146400Y-101978500D01*
X226146400Y-101400097D01*
X226166085Y-101333058D01*
X226192936Y-101303271D01*
X226408060Y-101131172D01*
X226472706Y-101104664D01*
X226485522Y-101104000D01*
X226533160Y-101104000D01*
X226533162Y-101104000D01*
X226609589Y-101083521D01*
X226678111Y-101043960D01*
X226734060Y-100988011D01*
X227294860Y-100427211D01*
X227294863Y-100427205D01*
X227296584Y-100424964D01*
X227317495Y-100403623D01*
X227416400Y-100324500D01*
X227416400Y-99374862D01*
X227436085Y-99307823D01*
X227471615Y-99271689D01*
X228127164Y-98834656D01*
X228193860Y-98813850D01*
X228261221Y-98832405D01*
G37*
%TD.AperFunction*%
%TD*%
%TA.AperFunction,Conductor*%
%TO.N,VSYS*%
G36*
X158364439Y-91252685D02*
G01*
X158410194Y-91305489D01*
X158421400Y-91357000D01*
X158421400Y-91741000D01*
X160072400Y-91741000D01*
X160290081Y-91523319D01*
X160351404Y-91489834D01*
X160377762Y-91487000D01*
X161599400Y-91487000D01*
X161666439Y-91506685D01*
X161712194Y-91559489D01*
X161723400Y-91611000D01*
X161723400Y-91998000D01*
X161703715Y-92065039D01*
X161650911Y-92110794D01*
X161599400Y-92122000D01*
X160961400Y-92122000D01*
X160108287Y-93584480D01*
X160057504Y-93632469D01*
X160001178Y-93646000D01*
X155624400Y-93646000D01*
X155557361Y-93626315D01*
X155511606Y-93573511D01*
X155500400Y-93522000D01*
X155500400Y-91357000D01*
X155520085Y-91289961D01*
X155572889Y-91244206D01*
X155624400Y-91233000D01*
X158297400Y-91233000D01*
X158364439Y-91252685D01*
G37*
%TD.AperFunction*%
%TD*%
%TA.AperFunction,Conductor*%
%TO.N,Net-(U7-SW)*%
G36*
X159974753Y-80384385D02*
G01*
X160018623Y-80433246D01*
X160231598Y-80859198D01*
X160231599Y-80859199D01*
X160231600Y-80859200D01*
X161607600Y-80859200D01*
X161674639Y-80878885D01*
X161720394Y-80931689D01*
X161731600Y-80983200D01*
X161731600Y-81235200D01*
X161711915Y-81302239D01*
X161659111Y-81347994D01*
X161607600Y-81359200D01*
X160231600Y-81359200D01*
X160231599Y-81359200D01*
X160231598Y-81359201D01*
X160018623Y-81785154D01*
X159971036Y-81836313D01*
X159907714Y-81853700D01*
X158757943Y-81853700D01*
X158690904Y-81834015D01*
X158654773Y-81798490D01*
X158652429Y-81794974D01*
X158631618Y-81728278D01*
X158631600Y-81726186D01*
X158631600Y-80488700D01*
X158651285Y-80421661D01*
X158704089Y-80375906D01*
X158755600Y-80364700D01*
X159907714Y-80364700D01*
X159974753Y-80384385D01*
G37*
%TD.AperFunction*%
%TD*%
%TA.AperFunction,Conductor*%
%TO.N,GND*%
G36*
X157151400Y-88312000D02*
G01*
X158700800Y-88312000D01*
X159615200Y-88312000D01*
X159532650Y-88185000D01*
X159532651Y-88185000D01*
X159882257Y-88185000D01*
X159949296Y-88204685D01*
X159982538Y-88236065D01*
X160200064Y-88535163D01*
X160961398Y-89581999D01*
X160961399Y-89582000D01*
X160961400Y-89582000D01*
X161726400Y-89582000D01*
X161793439Y-89601685D01*
X161839194Y-89654489D01*
X161850400Y-89706000D01*
X161850400Y-90220000D01*
X161830715Y-90287039D01*
X161777911Y-90332794D01*
X161726400Y-90344000D01*
X160377762Y-90344000D01*
X160310723Y-90324315D01*
X160290081Y-90307681D01*
X159945400Y-89963000D01*
X158421400Y-89963000D01*
X158421400Y-90474000D01*
X158401715Y-90541039D01*
X158348911Y-90586794D01*
X158297400Y-90598000D01*
X155624400Y-90598000D01*
X155557361Y-90578315D01*
X155511606Y-90525511D01*
X155500400Y-90474000D01*
X155500400Y-88333062D01*
X155520085Y-88266023D01*
X155572889Y-88220268D01*
X155637488Y-88210258D01*
X155637522Y-88209847D01*
X155639246Y-88209986D01*
X155639363Y-88209968D01*
X155639982Y-88210042D01*
X155640007Y-88210047D01*
X155640032Y-88210049D01*
X155672915Y-88212700D01*
X155672923Y-88212700D01*
X156697191Y-88212700D01*
X156697200Y-88212700D01*
X156740884Y-88208003D01*
X156770075Y-88201652D01*
X156792374Y-88196802D01*
X156792390Y-88196798D01*
X156792395Y-88196797D01*
X156802573Y-88194310D01*
X156802585Y-88194303D01*
X156805607Y-88193151D01*
X156849824Y-88185000D01*
X157151400Y-88185000D01*
X157151400Y-88312000D01*
G37*
%TD.AperFunction*%
%TD*%
%TA.AperFunction,Conductor*%
%TO.N,3V3*%
G36*
X156774639Y-75128885D02*
G01*
X156820394Y-75181689D01*
X156831600Y-75233200D01*
X156831600Y-77885200D01*
X156811915Y-77952239D01*
X156759111Y-77997994D01*
X156707600Y-78009200D01*
X155303079Y-78009200D01*
X155261373Y-78001976D01*
X154934400Y-77885200D01*
X154581600Y-77759200D01*
X154581599Y-77759200D01*
X149655600Y-77759200D01*
X149588561Y-77739515D01*
X149542806Y-77686711D01*
X149531600Y-77635200D01*
X149531600Y-75533200D01*
X149551285Y-75466161D01*
X149604089Y-75420406D01*
X149655600Y-75409200D01*
X154481600Y-75409200D01*
X155209427Y-75118068D01*
X155255479Y-75109200D01*
X156707600Y-75109200D01*
X156774639Y-75128885D01*
G37*
%TD.AperFunction*%
%TD*%
%TA.AperFunction,Conductor*%
%TO.N,GND*%
G36*
X234667410Y-91581183D02*
G01*
X234689147Y-91595153D01*
X234689150Y-91595154D01*
X234689149Y-91595154D01*
X234827236Y-91635699D01*
X234827238Y-91635700D01*
X234827239Y-91635700D01*
X234971162Y-91635700D01*
X234971162Y-91635699D01*
X235109253Y-91595153D01*
X235130989Y-91581183D01*
X235198028Y-91561500D01*
X235420400Y-91561500D01*
X235487439Y-91581185D01*
X235533194Y-91633989D01*
X235544400Y-91685500D01*
X235544400Y-93850500D01*
X235524715Y-93917539D01*
X235471911Y-93963294D01*
X235420400Y-93974500D01*
X230901350Y-93974500D01*
X230834311Y-93954815D01*
X230788556Y-93902011D01*
X230781575Y-93882593D01*
X230746680Y-93752363D01*
X230723701Y-93712563D01*
X230670915Y-93621135D01*
X230563765Y-93513985D01*
X230481519Y-93466500D01*
X230432536Y-93438219D01*
X230316993Y-93407260D01*
X230286166Y-93399000D01*
X230134634Y-93399000D01*
X229988263Y-93438219D01*
X229857035Y-93513985D01*
X229857032Y-93513987D01*
X229749887Y-93621132D01*
X229749885Y-93621135D01*
X229674119Y-93752363D01*
X229659603Y-93806538D01*
X229642037Y-93872094D01*
X229605674Y-93931754D01*
X229542828Y-93962283D01*
X229522264Y-93964000D01*
X228450650Y-93964000D01*
X228409845Y-93972117D01*
X228385653Y-93974500D01*
X228235432Y-93974500D01*
X228168393Y-93954815D01*
X228141284Y-93931198D01*
X226684252Y-92231327D01*
X226655569Y-92167616D01*
X226654400Y-92150629D01*
X226654400Y-91685500D01*
X226674085Y-91618461D01*
X226726889Y-91572706D01*
X226778400Y-91561500D01*
X234600372Y-91561500D01*
X234667410Y-91581183D01*
G37*
%TD.AperFunction*%
%TD*%
%TA.AperFunction,Conductor*%
%TO.N,GND*%
G36*
X176015839Y-81934685D02*
G01*
X176061594Y-81987489D01*
X176072800Y-82039000D01*
X176072800Y-84302600D01*
X176418655Y-84302600D01*
X176461012Y-84312399D01*
X176461405Y-84311130D01*
X176470607Y-84313973D01*
X176538739Y-84323900D01*
X176538740Y-84323900D01*
X176905261Y-84323900D01*
X176967140Y-84314884D01*
X176973393Y-84313973D01*
X176973394Y-84313972D01*
X176982595Y-84311130D01*
X176982987Y-84312399D01*
X177025345Y-84302600D01*
X177585241Y-84302600D01*
X177652280Y-84322285D01*
X177698035Y-84375089D01*
X177705014Y-84394500D01*
X177723627Y-84463964D01*
X177761543Y-84529636D01*
X177761545Y-84529638D01*
X178855881Y-85623974D01*
X178889366Y-85685297D01*
X178892200Y-85711655D01*
X178892200Y-86693200D01*
X178872515Y-86760239D01*
X178819711Y-86805994D01*
X178768200Y-86817200D01*
X173202600Y-86817200D01*
X173202600Y-88619145D01*
X173182915Y-88686184D01*
X173166281Y-88706826D01*
X173136426Y-88736681D01*
X173075103Y-88770166D01*
X173048745Y-88773000D01*
X170226924Y-88773000D01*
X170159885Y-88753315D01*
X170114130Y-88700511D01*
X170102927Y-88649879D01*
X170078403Y-85192023D01*
X170078400Y-85191144D01*
X170078400Y-85163200D01*
X170098085Y-85096161D01*
X170150889Y-85050406D01*
X170202400Y-85039200D01*
X173202599Y-85039200D01*
X173202600Y-85039200D01*
X174828200Y-84277200D01*
X174828200Y-82039000D01*
X174847885Y-81971961D01*
X174900689Y-81926206D01*
X174952200Y-81915000D01*
X175948800Y-81915000D01*
X176015839Y-81934685D01*
G37*
%TD.AperFunction*%
%TD*%
%TA.AperFunction,Conductor*%
%TO.N,5V*%
G36*
X156764239Y-84978885D02*
G01*
X156809994Y-85031689D01*
X156821200Y-85083200D01*
X156821200Y-87883200D01*
X156801515Y-87950239D01*
X156748711Y-87995994D01*
X156697200Y-88007200D01*
X155672923Y-88007200D01*
X155633711Y-88000837D01*
X154281200Y-87550000D01*
X149630000Y-87550000D01*
X149562961Y-87530315D01*
X149517206Y-87477511D01*
X149506000Y-87426000D01*
X149506000Y-85337200D01*
X149525685Y-85270161D01*
X149578489Y-85224406D01*
X149630000Y-85213200D01*
X154331998Y-85213200D01*
X154332000Y-85213200D01*
X155743586Y-84961130D01*
X155765384Y-84959200D01*
X156697200Y-84959200D01*
X156764239Y-84978885D01*
G37*
%TD.AperFunction*%
%TD*%
%TA.AperFunction,Conductor*%
%TO.N,VBAT*%
G36*
X217546402Y-108092086D02*
G01*
X218308399Y-109108082D01*
X218308400Y-109108082D01*
X219200400Y-109108082D01*
X219267439Y-109127767D01*
X219313194Y-109180571D01*
X219324400Y-109232082D01*
X219324400Y-109746082D01*
X219304715Y-109813121D01*
X219251911Y-109858876D01*
X219200400Y-109870082D01*
X218308400Y-109870082D01*
X217583600Y-110836482D01*
X217527629Y-110878303D01*
X217484400Y-110886082D01*
X215892400Y-110886082D01*
X215825361Y-110866397D01*
X215779606Y-110813593D01*
X215768400Y-110762082D01*
X215768400Y-108339082D01*
X215914400Y-108558082D01*
X217664400Y-108558082D01*
X217546400Y-108092084D01*
X217546402Y-108092086D01*
G37*
%TD.AperFunction*%
%TD*%
%TA.AperFunction,Conductor*%
%TO.N,EXT_PWR*%
G36*
X177071800Y-93474999D02*
G01*
X177103281Y-93506480D01*
X177136766Y-93567803D01*
X177139600Y-93594161D01*
X177139600Y-94821818D01*
X177119915Y-94888857D01*
X177067111Y-94934612D01*
X177016220Y-94945816D01*
X172184220Y-94969976D01*
X172117083Y-94950627D01*
X172071065Y-94898053D01*
X172059600Y-94845978D01*
X172059600Y-93569981D01*
X172079285Y-93502942D01*
X172132089Y-93457187D01*
X172182979Y-93445983D01*
X172772998Y-93443033D01*
X172840132Y-93462381D01*
X172847248Y-93467260D01*
X172907313Y-93511590D01*
X172907315Y-93511591D01*
X172907318Y-93511593D01*
X172950045Y-93526544D01*
X173035499Y-93556446D01*
X173065930Y-93559300D01*
X173065934Y-93559300D01*
X173674470Y-93559300D01*
X173704899Y-93556446D01*
X173704901Y-93556446D01*
X173790354Y-93526544D01*
X173833082Y-93511593D01*
X173901291Y-93461252D01*
X173966916Y-93437282D01*
X173974251Y-93437026D01*
X174270719Y-93435544D01*
X174337852Y-93454892D01*
X174376874Y-93494444D01*
X174427884Y-93577145D01*
X174551854Y-93701115D01*
X174701075Y-93793156D01*
X174701080Y-93793158D01*
X174867502Y-93848305D01*
X174867509Y-93848306D01*
X174970219Y-93858799D01*
X175020199Y-93858798D01*
X175020200Y-93858798D01*
X175020200Y-93431797D01*
X175520200Y-93429297D01*
X175520200Y-93858799D01*
X175570172Y-93858799D01*
X175570186Y-93858798D01*
X175672897Y-93848305D01*
X175839319Y-93793158D01*
X175839324Y-93793156D01*
X175988545Y-93701115D01*
X176112517Y-93577143D01*
X176175685Y-93474731D01*
X176227632Y-93428006D01*
X176241871Y-93425688D01*
X176329669Y-93425249D01*
X176449193Y-93464855D01*
X176548483Y-93474999D01*
X176571800Y-93474998D01*
X176571800Y-93424039D01*
X177071800Y-93421539D01*
X177071800Y-93474999D01*
G37*
%TD.AperFunction*%
%TD*%
%TA.AperFunction,Conductor*%
%TO.N,VBUS*%
G36*
X226611462Y-92470185D02*
G01*
X226638571Y-92493802D01*
X227985253Y-94064932D01*
X228006293Y-94086142D01*
X228006297Y-94086146D01*
X228033402Y-94109760D01*
X228033405Y-94109762D01*
X228110494Y-94151990D01*
X228177526Y-94171673D01*
X228177528Y-94171673D01*
X228177534Y-94171675D01*
X228235432Y-94180000D01*
X228235436Y-94180000D01*
X228385641Y-94180000D01*
X228385653Y-94180000D01*
X228405798Y-94179010D01*
X228429990Y-94176627D01*
X228429994Y-94176626D01*
X228429998Y-94176626D01*
X228449921Y-94173671D01*
X228449930Y-94173669D01*
X228449938Y-94173668D01*
X228458912Y-94171882D01*
X228483103Y-94169500D01*
X229522274Y-94169500D01*
X229530813Y-94169143D01*
X229539363Y-94168787D01*
X229559927Y-94167070D01*
X229559933Y-94167068D01*
X229560859Y-94166905D01*
X229582510Y-94165000D01*
X229584263Y-94165000D01*
X229651302Y-94184685D01*
X229691650Y-94227000D01*
X229749882Y-94327861D01*
X229749884Y-94327863D01*
X229749885Y-94327865D01*
X229857035Y-94435015D01*
X229894399Y-94456587D01*
X229942615Y-94507152D01*
X229956400Y-94563974D01*
X229956400Y-94659545D01*
X229936715Y-94726584D01*
X229883911Y-94772339D01*
X229814753Y-94782283D01*
X229795459Y-94776990D01*
X229730152Y-94764000D01*
X229730148Y-94764000D01*
X228450652Y-94764000D01*
X228450647Y-94764000D01*
X228392170Y-94775631D01*
X228392169Y-94775632D01*
X228347317Y-94805602D01*
X228280640Y-94826480D01*
X228278426Y-94826500D01*
X228274984Y-94826500D01*
X228201738Y-94846126D01*
X228177700Y-94860002D01*
X228177698Y-94860004D01*
X228160153Y-94870134D01*
X228136060Y-94884044D01*
X228099926Y-94920180D01*
X228038604Y-94953666D01*
X228012244Y-94956500D01*
X227452900Y-94956500D01*
X227385861Y-94936815D01*
X227353700Y-94906900D01*
X226654400Y-93974500D01*
X225570178Y-93974500D01*
X225503139Y-93954815D01*
X225457384Y-93902011D01*
X225447440Y-93832853D01*
X225457384Y-93798988D01*
X225485165Y-93738156D01*
X225505647Y-93595700D01*
X225485165Y-93453243D01*
X225425377Y-93322327D01*
X225414684Y-93309986D01*
X225385662Y-93246429D01*
X225384400Y-93228786D01*
X225384400Y-92574500D01*
X225404085Y-92507461D01*
X225456889Y-92461706D01*
X225508400Y-92450500D01*
X226544423Y-92450500D01*
X226611462Y-92470185D01*
G37*
%TD.AperFunction*%
%TD*%
%TA.AperFunction,Conductor*%
%TO.N,VBAT*%
G36*
X217107439Y-106327767D02*
G01*
X217153194Y-106380571D01*
X217164400Y-106432082D01*
X217164400Y-107558082D01*
X217337707Y-107800349D01*
X217546400Y-108092083D01*
X217664400Y-108558082D01*
X215914400Y-108558082D01*
X215768400Y-108339082D01*
X215768400Y-108339081D01*
X215726226Y-108275820D01*
X215705418Y-108209120D01*
X215705400Y-108207037D01*
X215705400Y-106432082D01*
X215725085Y-106365043D01*
X215777889Y-106319288D01*
X215829400Y-106308082D01*
X217040400Y-106308082D01*
X217107439Y-106327767D01*
G37*
%TD.AperFunction*%
%TD*%
%TA.AperFunction,Conductor*%
%TO.N,Net-(D14-A)*%
G36*
X185289344Y-75076685D02*
G01*
X185335099Y-75129489D01*
X185346279Y-75178470D01*
X185368158Y-76250551D01*
X185349846Y-76317978D01*
X185333994Y-76338580D01*
X182383253Y-79438099D01*
X182322772Y-79473082D01*
X182293443Y-79476600D01*
X180898800Y-79476600D01*
X180459206Y-79757939D01*
X180294359Y-79863442D01*
X180227516Y-79883000D01*
X178051000Y-79883000D01*
X177983961Y-79863315D01*
X177938206Y-79810511D01*
X177927000Y-79759000D01*
X177927000Y-76501800D01*
X177946685Y-76434761D01*
X177999489Y-76389006D01*
X178051000Y-76377800D01*
X180228237Y-76377800D01*
X180293956Y-76396647D01*
X180873400Y-76758800D01*
X182473600Y-76758800D01*
X183286400Y-76225400D01*
X183286400Y-75181000D01*
X183306085Y-75113961D01*
X183358889Y-75068206D01*
X183410400Y-75057000D01*
X185222305Y-75057000D01*
X185289344Y-75076685D01*
G37*
%TD.AperFunction*%
%TD*%
%TA.AperFunction,Conductor*%
%TO.N,GND*%
G36*
X159228039Y-85029685D02*
G01*
X159273794Y-85082489D01*
X159285000Y-85134000D01*
X159285000Y-87804000D01*
X159615200Y-88312000D01*
X158700800Y-88312000D01*
X157151400Y-88312000D01*
X157151400Y-85134000D01*
X157171085Y-85066961D01*
X157223889Y-85021206D01*
X157275400Y-85010000D01*
X159161000Y-85010000D01*
X159228039Y-85029685D01*
G37*
%TD.AperFunction*%
%TD*%
%TA.AperFunction,Conductor*%
%TO.N,GND*%
G36*
X229589303Y-99784685D02*
G01*
X229635058Y-99837489D01*
X229642036Y-99856899D01*
X229650638Y-99889000D01*
X229674119Y-99976636D01*
X229712002Y-100042250D01*
X229749885Y-100107865D01*
X229857035Y-100215015D01*
X229988265Y-100290781D01*
X230134634Y-100330000D01*
X230134636Y-100330000D01*
X230286164Y-100330000D01*
X230286166Y-100330000D01*
X230432535Y-100290781D01*
X230563765Y-100215015D01*
X230627198Y-100151581D01*
X230688517Y-100118099D01*
X230758209Y-100123083D01*
X230785525Y-100137360D01*
X231421785Y-100578500D01*
X235420400Y-100578500D01*
X235487439Y-100598185D01*
X235533194Y-100650989D01*
X235544400Y-100702500D01*
X235544400Y-101978500D01*
X235524715Y-102045539D01*
X235471911Y-102091294D01*
X235420400Y-102102500D01*
X228048400Y-102102500D01*
X227981361Y-102082815D01*
X227935606Y-102030011D01*
X227924400Y-101978500D01*
X227924400Y-101378044D01*
X227944085Y-101311005D01*
X227945226Y-101309261D01*
X228432400Y-100578500D01*
X228432400Y-99889000D01*
X228452085Y-99821961D01*
X228504889Y-99776206D01*
X228556400Y-99765000D01*
X229522264Y-99765000D01*
X229589303Y-99784685D01*
G37*
%TD.AperFunction*%
%TD*%
%TA.AperFunction,Conductor*%
%TO.N,GND*%
G36*
X157131600Y-78409200D02*
G01*
X159781600Y-78609200D01*
X159606600Y-78309200D01*
X159606601Y-78309200D01*
X160160554Y-78309200D01*
X160227593Y-78328885D01*
X160267529Y-78370491D01*
X161081600Y-79759200D01*
X161707600Y-79759200D01*
X161774639Y-79778885D01*
X161820394Y-79831689D01*
X161831600Y-79883200D01*
X161831600Y-80335200D01*
X161811915Y-80402239D01*
X161759111Y-80447994D01*
X161707600Y-80459200D01*
X160458236Y-80459200D01*
X160391197Y-80439515D01*
X160347327Y-80390654D01*
X160231600Y-80159201D01*
X160231600Y-80159200D01*
X160231599Y-80159200D01*
X158531601Y-80159200D01*
X158531600Y-80159200D01*
X158531599Y-80159200D01*
X158531598Y-80159201D01*
X158381600Y-80459199D01*
X158381600Y-80837249D01*
X158361915Y-80904288D01*
X158309111Y-80950043D01*
X158259666Y-80961232D01*
X155507666Y-81007098D01*
X155440308Y-80988533D01*
X155393680Y-80936499D01*
X155381600Y-80883115D01*
X155381600Y-78433200D01*
X155401285Y-78366161D01*
X155454089Y-78320406D01*
X155505600Y-78309200D01*
X157131600Y-78309200D01*
X157131600Y-78409200D01*
G37*
%TD.AperFunction*%
%TD*%
%TA.AperFunction,Conductor*%
%TO.N,B+*%
G36*
X224107439Y-105077767D02*
G01*
X224153194Y-105130571D01*
X224164400Y-105182082D01*
X224164400Y-106028809D01*
X224151309Y-106084263D01*
X223414400Y-107558081D01*
X223414400Y-109934082D01*
X223394715Y-110001121D01*
X223341911Y-110046876D01*
X223290400Y-110058082D01*
X222914400Y-110058082D01*
X222456307Y-110058082D01*
X222389268Y-110038397D01*
X222353206Y-110002974D01*
X222342512Y-109986970D01*
X222255517Y-109928842D01*
X222255515Y-109928841D01*
X222255512Y-109928840D01*
X222178804Y-109913582D01*
X221464900Y-109913582D01*
X221397861Y-109893897D01*
X221352106Y-109841093D01*
X221340900Y-109789582D01*
X221340900Y-109188581D01*
X221360585Y-109121542D01*
X221413389Y-109075787D01*
X221464895Y-109064581D01*
X222178800Y-109064581D01*
X222199499Y-109060464D01*
X222223688Y-109058082D01*
X222414400Y-109058082D01*
X222414400Y-108847239D01*
X222415745Y-108833595D01*
X222415303Y-108833552D01*
X222415899Y-108827488D01*
X222415900Y-108827483D01*
X222415899Y-108650682D01*
X222415898Y-108650681D01*
X222415302Y-108644622D01*
X222415743Y-108644578D01*
X222414400Y-108630934D01*
X222414400Y-107508635D01*
X222425606Y-107457123D01*
X222476565Y-107345538D01*
X222497047Y-107203082D01*
X222476565Y-107060625D01*
X222425606Y-106949041D01*
X222414400Y-106897529D01*
X222414400Y-105182082D01*
X222434085Y-105115043D01*
X222486889Y-105069288D01*
X222538400Y-105058082D01*
X224040400Y-105058082D01*
X224107439Y-105077767D01*
G37*
%TD.AperFunction*%
%TD*%
M02*
