M48
; DRILL file {KiCad 7.0.10} date Tue Aug 13 20:59:27 2024
; FORMAT={-:-/ absolute / inch / decimal}
; #@! TF.CreationDate,2024-08-13T20:59:27-03:00
; #@! TF.GenerationSoftware,Kicad,Pcbnew,7.0.10
; #@! TF.FileFunction,Plated,1,2,PTH
FMAT,2
INCH
; #@! TA.AperFunction,Plated,PTH,ComponentDrill
T1C0.0295
; #@! TA.AperFunction,Plated,PTH,ComponentDrill
T2C0.0315
; #@! TA.AperFunction,Plated,PTH,ComponentDrill
T3C0.0354
; #@! TA.AperFunction,Plated,PTH,ComponentDrill
T4C0.0433
; #@! TA.AperFunction,Plated,PTH,ComponentDrill
T5C0.0472
; #@! TA.AperFunction,Plated,PTH,ComponentDrill
T6C0.0512
; #@! TA.AperFunction,Plated,PTH,ComponentDrill
T7C0.0630
%
G90
G05
T1
X5.0588Y-2.4788
X5.0588Y-2.5288
X5.0588Y-2.5788
T2
X6.4296Y-1.9504
X6.4296Y-2.0504
X6.4296Y-2.1504
X6.4296Y-2.2504
X6.5429Y-2.47
X6.6216Y-2.47
X6.7296Y-1.9504
X6.7296Y-2.0504
X6.7296Y-2.1504
X6.7296Y-2.2504
T3
X4.2496Y-2.452
X4.2748Y-2.0
X4.3496Y-2.452
X4.3748Y-2.0
X4.5998Y-2.9039
X4.6998Y-2.9039
X4.7248Y-1.7559
X4.8248Y-1.7559
X4.9248Y-3.3441
X5.0248Y-3.3441
X5.1748Y-2.0
X5.2248Y-3.7961
X5.2748Y-2.0
X5.3248Y-3.7961
X5.6248Y-2.35
X5.6248Y-4.248
X5.7248Y-2.35
X5.7248Y-4.248
X6.0252Y-3.7961
X6.0752Y-2.0
X6.1252Y-3.7961
X6.1752Y-2.0
X6.3252Y-3.3441
X6.4252Y-3.3441
X6.5252Y-1.7516
X6.6252Y-1.7516
X6.6502Y-2.9039
X6.7502Y-2.9039
X6.9752Y-2.0
X7.0004Y-2.452
X7.0752Y-2.0
X7.1004Y-2.452
T4
X5.51Y-2.28
X5.51Y-2.38
X5.51Y-2.48
X5.8428Y-2.28
X5.8428Y-2.38
X5.8428Y-2.48
T5
X5.0604Y-2.2485
X5.2604Y-2.2485
X5.2818Y-2.68
X5.5818Y-2.68
X5.7682Y-2.68
X6.0682Y-2.68
X6.81Y-2.46
X6.81Y-2.76
T6
X4.9332Y-2.943
X5.1301Y-2.7461
X5.1301Y-3.1398
X6.2216Y-2.7531
X6.2216Y-3.1469
X6.4184Y-2.95
T7
X4.515Y-2.1219
X4.7Y-2.0038
X4.7Y-2.24
M30
