G04 Layer: TopSilkscreenLayer*
G04 EasyEDA v6.5.42, 2024-06-01 20:13:01*
G04 56b61418f79f422a81827ce91bc8f804,a42f065a0689404bb1480e5e311d6757,10*
G04 Gerber Generator version 0.2*
G04 Scale: 100 percent, Rotated: No, Reflected: No *
G04 Dimensions in millimeters *
G04 leading zeros omitted , absolute positions ,4 integer and 5 decimal *
%FSLAX45Y45*%
%MOMM*%

%ADD10C,0.1524*%
%ADD11C,0.1500*%
%ADD12C,0.2540*%

%LPD*%
D10*
X2489271Y7456347D02*
G01*
X2489271Y7347381D01*
X2489271Y7347381D02*
G01*
X2551501Y7347381D01*
X2585791Y7456347D02*
G01*
X2585791Y7347381D01*
X2585791Y7456347D02*
G01*
X2653355Y7456347D01*
X2585791Y7404531D02*
G01*
X2627447Y7404531D01*
X2585791Y7347381D02*
G01*
X2653355Y7347381D01*
X2687645Y7456347D02*
G01*
X2687645Y7347381D01*
X2687645Y7456347D02*
G01*
X2724221Y7456347D01*
X2739715Y7451267D01*
X2750129Y7440853D01*
X2755209Y7430439D01*
X2760543Y7414691D01*
X2760543Y7388783D01*
X2755209Y7373289D01*
X2750129Y7362875D01*
X2739715Y7352461D01*
X2724221Y7347381D01*
X2687645Y7347381D01*
X2805247Y7456347D02*
G01*
X2862397Y7456347D01*
X2831155Y7414691D01*
X2846649Y7414691D01*
X2857063Y7409611D01*
X2862397Y7404531D01*
X2867477Y7388783D01*
X2867477Y7378369D01*
X2862397Y7362875D01*
X2851983Y7352461D01*
X2836235Y7347381D01*
X2820741Y7347381D01*
X2805247Y7352461D01*
X2799913Y7357541D01*
X2794833Y7367955D01*
X6873425Y4069918D02*
G01*
X6873425Y3960952D01*
X6873425Y3960952D02*
G01*
X6935655Y3960952D01*
X6969945Y4069918D02*
G01*
X6969945Y3960952D01*
X6969945Y4069918D02*
G01*
X7037509Y4069918D01*
X6969945Y4018102D02*
G01*
X7011601Y4018102D01*
X6969945Y3960952D02*
G01*
X7037509Y3960952D01*
X7071799Y4069918D02*
G01*
X7071799Y3960952D01*
X7071799Y4069918D02*
G01*
X7108375Y4069918D01*
X7123869Y4064838D01*
X7134283Y4054424D01*
X7139363Y4044010D01*
X7144697Y4028262D01*
X7144697Y4002354D01*
X7139363Y3986860D01*
X7134283Y3976446D01*
X7123869Y3966032D01*
X7108375Y3960952D01*
X7071799Y3960952D01*
X7230803Y4069918D02*
G01*
X7178987Y3997274D01*
X7256965Y3997274D01*
X7230803Y4069918D02*
G01*
X7230803Y3960952D01*
X1323525Y6444818D02*
G01*
X1323525Y6335852D01*
X1323525Y6335852D02*
G01*
X1385755Y6335852D01*
X1420045Y6444818D02*
G01*
X1420045Y6335852D01*
X1420045Y6444818D02*
G01*
X1487609Y6444818D01*
X1420045Y6393002D02*
G01*
X1461701Y6393002D01*
X1420045Y6335852D02*
G01*
X1487609Y6335852D01*
X1521899Y6444818D02*
G01*
X1521899Y6335852D01*
X1521899Y6444818D02*
G01*
X1558475Y6444818D01*
X1573969Y6439738D01*
X1584383Y6429324D01*
X1589463Y6418910D01*
X1594797Y6403162D01*
X1594797Y6377254D01*
X1589463Y6361760D01*
X1584383Y6351346D01*
X1573969Y6340932D01*
X1558475Y6335852D01*
X1521899Y6335852D01*
X1691317Y6444818D02*
G01*
X1639501Y6444818D01*
X1634167Y6398082D01*
X1639501Y6403162D01*
X1654995Y6408496D01*
X1670489Y6408496D01*
X1686237Y6403162D01*
X1696651Y6393002D01*
X1701731Y6377254D01*
X1701731Y6366840D01*
X1696651Y6351346D01*
X1686237Y6340932D01*
X1670489Y6335852D01*
X1654995Y6335852D01*
X1639501Y6340932D01*
X1634167Y6346012D01*
X1629087Y6356426D01*
X4603750Y3765804D02*
G01*
X4712715Y3765804D01*
X4603750Y3765804D02*
G01*
X4603750Y3812539D01*
X4608829Y3828034D01*
X4614163Y3833368D01*
X4624577Y3838447D01*
X4634991Y3838447D01*
X4645406Y3833368D01*
X4650486Y3828034D01*
X4655565Y3812539D01*
X4655565Y3765804D01*
X4655565Y3802126D02*
G01*
X4712715Y3838447D01*
X4624577Y3872737D02*
G01*
X4619243Y3883152D01*
X4603750Y3898900D01*
X4712715Y3898900D01*
X2437384Y6616700D02*
G01*
X2546350Y6616700D01*
X2437384Y6616700D02*
G01*
X2437384Y6663436D01*
X2442463Y6678929D01*
X2447797Y6684263D01*
X2458211Y6689344D01*
X2468625Y6689344D01*
X2479040Y6684263D01*
X2484120Y6678929D01*
X2489200Y6663436D01*
X2489200Y6616700D01*
X2489200Y6653021D02*
G01*
X2546350Y6689344D01*
X2437384Y6734047D02*
G01*
X2437384Y6791197D01*
X2479040Y6760210D01*
X2479040Y6775704D01*
X2484120Y6786118D01*
X2489200Y6791197D01*
X2504947Y6796531D01*
X2515361Y6796531D01*
X2530856Y6791197D01*
X2541270Y6780784D01*
X2546350Y6765289D01*
X2546350Y6749795D01*
X2541270Y6734047D01*
X2536190Y6728968D01*
X2525775Y6723634D01*
X6085829Y3263902D02*
G01*
X6194795Y3263902D01*
X6085829Y3263902D02*
G01*
X6085829Y3310638D01*
X6090909Y3326132D01*
X6096243Y3331466D01*
X6106657Y3336546D01*
X6117071Y3336546D01*
X6127485Y3331466D01*
X6132565Y3326132D01*
X6137645Y3310638D01*
X6137645Y3263902D01*
X6137645Y3300224D02*
G01*
X6194795Y3336546D01*
X6085829Y3422906D02*
G01*
X6158473Y3370836D01*
X6158473Y3448814D01*
X6085829Y3422906D02*
G01*
X6194795Y3422906D01*
X2030984Y6159500D02*
G01*
X2139950Y6159500D01*
X2030984Y6159500D02*
G01*
X2030984Y6206236D01*
X2036063Y6221729D01*
X2041397Y6227063D01*
X2051811Y6232144D01*
X2062225Y6232144D01*
X2072640Y6227063D01*
X2077720Y6221729D01*
X2082800Y6206236D01*
X2082800Y6159500D01*
X2082800Y6195821D02*
G01*
X2139950Y6232144D01*
X2030984Y6328918D02*
G01*
X2030984Y6276847D01*
X2077720Y6271768D01*
X2072640Y6276847D01*
X2067306Y6292595D01*
X2067306Y6308089D01*
X2072640Y6323584D01*
X2082800Y6333997D01*
X2098547Y6339331D01*
X2108961Y6339331D01*
X2124456Y6333997D01*
X2134870Y6323584D01*
X2139950Y6308089D01*
X2139950Y6292595D01*
X2134870Y6276847D01*
X2129790Y6271768D01*
X2119375Y6266434D01*
X4593404Y1538147D02*
G01*
X4593404Y1429181D01*
X4593404Y1429181D02*
G01*
X4655634Y1429181D01*
X4689924Y1538147D02*
G01*
X4689924Y1429181D01*
X4689924Y1538147D02*
G01*
X4757488Y1538147D01*
X4689924Y1486331D02*
G01*
X4731580Y1486331D01*
X4689924Y1429181D02*
G01*
X4757488Y1429181D01*
X4791778Y1538147D02*
G01*
X4791778Y1429181D01*
X4791778Y1538147D02*
G01*
X4828354Y1538147D01*
X4843848Y1533067D01*
X4854262Y1522653D01*
X4859342Y1512239D01*
X4864676Y1496491D01*
X4864676Y1470583D01*
X4859342Y1455089D01*
X4854262Y1444675D01*
X4843848Y1434261D01*
X4828354Y1429181D01*
X4791778Y1429181D01*
X4898966Y1517319D02*
G01*
X4909380Y1522653D01*
X4924874Y1538147D01*
X4924874Y1429181D01*
X1892366Y2096947D02*
G01*
X1892366Y1987981D01*
X1892366Y1987981D02*
G01*
X1954596Y1987981D01*
X1988886Y2096947D02*
G01*
X1988886Y1987981D01*
X1988886Y2096947D02*
G01*
X2056450Y2096947D01*
X1988886Y2045131D02*
G01*
X2030542Y2045131D01*
X1988886Y1987981D02*
G01*
X2056450Y1987981D01*
X2090740Y2096947D02*
G01*
X2090740Y1987981D01*
X2090740Y2096947D02*
G01*
X2127316Y2096947D01*
X2142810Y2091867D01*
X2153224Y2081453D01*
X2158304Y2071039D01*
X2163638Y2055291D01*
X2163638Y2029383D01*
X2158304Y2013889D01*
X2153224Y2003475D01*
X2142810Y1993061D01*
X2127316Y1987981D01*
X2090740Y1987981D01*
X2203008Y2071039D02*
G01*
X2203008Y2076119D01*
X2208342Y2086533D01*
X2213422Y2091867D01*
X2223836Y2096947D01*
X2244664Y2096947D01*
X2255078Y2091867D01*
X2260158Y2086533D01*
X2265492Y2076119D01*
X2265492Y2065705D01*
X2260158Y2055291D01*
X2249744Y2039797D01*
X2197928Y1987981D01*
X2270572Y1987981D01*
X2833578Y4762527D02*
G01*
X2823164Y4772941D01*
X2807670Y4778021D01*
X2786842Y4778021D01*
X2771348Y4772941D01*
X2760934Y4762527D01*
X2760934Y4752113D01*
X2766014Y4741699D01*
X2771348Y4736365D01*
X2781762Y4731285D01*
X2813004Y4720871D01*
X2823164Y4715791D01*
X2828498Y4710457D01*
X2833578Y4700043D01*
X2833578Y4684549D01*
X2823164Y4674135D01*
X2807670Y4669055D01*
X2786842Y4669055D01*
X2771348Y4674135D01*
X2760934Y4684549D01*
X2867868Y4778021D02*
G01*
X2867868Y4669055D01*
X2867868Y4778021D02*
G01*
X2914604Y4778021D01*
X2930352Y4772941D01*
X2935432Y4767607D01*
X2940766Y4757193D01*
X2940766Y4741699D01*
X2935432Y4731285D01*
X2930352Y4726205D01*
X2914604Y4720871D01*
X2867868Y4720871D01*
X3016458Y4778021D02*
G01*
X2975056Y4669055D01*
X3016458Y4778021D02*
G01*
X3058114Y4669055D01*
X2990550Y4705377D02*
G01*
X3042620Y4705377D01*
X3170382Y4752113D02*
G01*
X3165048Y4762527D01*
X3154634Y4772941D01*
X3144474Y4778021D01*
X3123646Y4778021D01*
X3113232Y4772941D01*
X3102818Y4762527D01*
X3097484Y4752113D01*
X3092404Y4736365D01*
X3092404Y4710457D01*
X3097484Y4694963D01*
X3102818Y4684549D01*
X3113232Y4674135D01*
X3123646Y4669055D01*
X3144474Y4669055D01*
X3154634Y4674135D01*
X3165048Y4684549D01*
X3170382Y4694963D01*
X3204672Y4778021D02*
G01*
X3204672Y4669055D01*
X3204672Y4778021D02*
G01*
X3272236Y4778021D01*
X3204672Y4726205D02*
G01*
X3246074Y4726205D01*
X3204672Y4669055D02*
G01*
X3272236Y4669055D01*
X3306526Y4778021D02*
G01*
X3306526Y4669055D01*
X3306526Y4778021D02*
G01*
X3353262Y4778021D01*
X3368756Y4772941D01*
X3374090Y4767607D01*
X3379170Y4757193D01*
X3379170Y4746779D01*
X3374090Y4736365D01*
X3368756Y4731285D01*
X3353262Y4726205D01*
X3306526Y4726205D01*
X3342848Y4726205D02*
G01*
X3379170Y4669055D01*
X3413460Y4757193D02*
G01*
X3423874Y4762527D01*
X3439368Y4778021D01*
X3439368Y4669055D01*
X3835285Y2985515D02*
G01*
X3835285Y2907537D01*
X3840365Y2892044D01*
X3850779Y2881629D01*
X3866527Y2876550D01*
X3876941Y2876550D01*
X3892435Y2881629D01*
X3902849Y2892044D01*
X3907929Y2907537D01*
X3907929Y2985515D01*
X3942219Y2964687D02*
G01*
X3952633Y2970021D01*
X3968381Y2985515D01*
X3968381Y2876550D01*
G36*
X2869488Y7617866D02*
G01*
X2843530Y7581900D01*
X2868523Y7545882D01*
G37*
G36*
X6872376Y3871417D02*
G01*
X6871411Y3799433D01*
X6897370Y3835400D01*
G37*
G36*
X1322476Y6246317D02*
G01*
X1321511Y6174333D01*
X1347470Y6210300D01*
G37*
G36*
X4926888Y1699666D02*
G01*
X4900930Y1663700D01*
X4925923Y1627682D01*
G37*
G36*
X2272588Y2258466D02*
G01*
X2246630Y2222500D01*
X2271623Y2186482D01*
G37*
D11*
X2820499Y7508900D02*
G01*
X2705501Y7508900D01*
X2705501Y7653898D01*
X2825501Y7653898D01*
X2887499Y7654899D02*
G01*
X3011500Y7654899D01*
X3011500Y7509901D01*
X2887499Y7509901D01*
X2705501Y7508900D02*
G01*
X2702499Y7508900D01*
X2682499Y7528900D01*
X2682499Y7630899D01*
X2685501Y7633898D01*
X2705501Y7653898D01*
X6920400Y3908399D02*
G01*
X7035398Y3908399D01*
X7035398Y3763401D01*
X6915398Y3763401D01*
X6853400Y3762400D02*
G01*
X6729399Y3762400D01*
X6729399Y3907398D01*
X6853400Y3907398D01*
X7035398Y3908399D02*
G01*
X7038400Y3908399D01*
X7058400Y3888399D01*
X7058400Y3786400D01*
X7055398Y3783401D01*
X7035398Y3763401D01*
X1370500Y6283299D02*
G01*
X1485498Y6283299D01*
X1485498Y6138301D01*
X1365498Y6138301D01*
X1303500Y6137300D02*
G01*
X1179499Y6137300D01*
X1179499Y6282298D01*
X1303500Y6282298D01*
X1485498Y6283299D02*
G01*
X1488500Y6283299D01*
X1508500Y6263299D01*
X1508500Y6161300D01*
X1505498Y6158301D01*
X1485498Y6138301D01*
D10*
X4429739Y3856278D02*
G01*
X4429739Y3760391D01*
X4561860Y3760391D01*
X4561860Y3856278D01*
X4429739Y3941521D02*
G01*
X4429739Y4037408D01*
X4561860Y4037408D01*
X4561860Y3941521D01*
X2720360Y6659321D02*
G01*
X2720360Y6755208D01*
X2588239Y6755208D01*
X2588239Y6659321D01*
X2720360Y6574078D02*
G01*
X2720360Y6478191D01*
X2588239Y6478191D01*
X2588239Y6574078D01*
X5910419Y3363869D02*
G01*
X5925421Y3269162D01*
X6055913Y3289830D01*
X6040915Y3384537D01*
X5897084Y3448062D02*
G01*
X5882086Y3542769D01*
X6012578Y3563437D01*
X6027580Y3468730D01*
X2313960Y6202121D02*
G01*
X2313960Y6298008D01*
X2181839Y6298008D01*
X2181839Y6202121D01*
X2313960Y6116878D02*
G01*
X2313960Y6020991D01*
X2181839Y6020991D01*
X2181839Y6116878D01*
D11*
X4877899Y1590700D02*
G01*
X4762901Y1590700D01*
X4762901Y1735698D01*
X4882901Y1735698D01*
X4944899Y1736699D02*
G01*
X5068900Y1736699D01*
X5068900Y1591701D01*
X4944899Y1591701D01*
X4762901Y1590700D02*
G01*
X4759899Y1590700D01*
X4739899Y1610700D01*
X4739899Y1712699D01*
X4742901Y1715698D01*
X4762901Y1735698D01*
X2223599Y2149500D02*
G01*
X2108601Y2149500D01*
X2108601Y2294498D01*
X2228601Y2294498D01*
X2290599Y2295499D02*
G01*
X2414600Y2295499D01*
X2414600Y2150501D01*
X2290599Y2150501D01*
X2108601Y2149500D02*
G01*
X2105599Y2149500D01*
X2085599Y2169500D01*
X2085599Y2271499D01*
X2088601Y2274498D01*
X2108601Y2294498D01*
D12*
X1544238Y4626155D02*
G01*
X2009416Y5091333D01*
X1729231Y4441162D02*
G01*
X2194410Y4906340D01*
X2307562Y3862831D02*
G01*
X2772740Y4328010D01*
X2487168Y3683228D02*
G01*
X2952343Y4148404D01*
X1104206Y3769438D02*
G01*
X1632247Y3241400D01*
X2483573Y3201885D01*
X1066490Y4622563D02*
G01*
X1100615Y3773030D01*
X1736417Y5278122D02*
G01*
X1695107Y5319430D01*
X1560403Y5184726D01*
X1064694Y4620768D02*
G01*
X1030569Y4654892D01*
X1165273Y4789596D01*
X3144522Y3870017D02*
G01*
X3185830Y3828707D01*
X3058309Y3701188D01*
X2487168Y3198294D02*
G01*
X2521292Y3164169D01*
X2648811Y3291690D01*
X1738213Y5279918D02*
G01*
X1808259Y5349963D01*
X3144522Y3887978D02*
G01*
X3207382Y3950840D01*
X3198075Y2812999D02*
G01*
X4498073Y2812999D01*
X4498073Y2013000D01*
X3198075Y2013000D01*
X3198075Y2812999D01*
G75*
G01*
X1544638Y4625759D02*
G03*
X1729897Y4440497I92811J-92450D01*
G75*
G01*
X2306897Y3863497D02*
G03*
X2486500Y3683894I90151J-89451D01*
G75*
G01*
X3144883Y3871882D02*
G02*
X3144883Y3888527I8324J8322D01*
G75*
G01*
X1815236Y5353957D02*
G02*
X2359500Y5206726I244400J-176134D01*
G75*
G01*
X3211022Y3954173D02*
G03*
X3042536Y4502290I-172409J246957D01*
G75*
G01*
X2358728Y5201455D02*
G03*
X3063156Y4501959I752130J52988D01*
G75*
G01
X1848731Y4451937D02*
G03X1848731Y4451937I-309880J0D01*
G75*
G01
X2628217Y3672451D02*
G03X2628217Y3672451I-309880J0D01*
G75*
G01
X4102087Y2413000D02*
G03X4102087Y2413000I-254000J0D01*
M02*
