G04 #@! TF.GenerationSoftware,KiCad,Pcbnew,8.0.4*
G04 #@! TF.CreationDate,2024-08-04T14:27:04+02:00*
G04 #@! TF.ProjectId,Neopixel,4e656f70-6978-4656-9c2e-6b696361645f,rev?*
G04 #@! TF.SameCoordinates,Original*
G04 #@! TF.FileFunction,Legend,Top*
G04 #@! TF.FilePolarity,Positive*
%FSLAX46Y46*%
G04 Gerber Fmt 4.6, Leading zero omitted, Abs format (unit mm)*
G04 Created by KiCad (PCBNEW 8.0.4) date 2024-08-04 14:27:04*
%MOMM*%
%LPD*%
G01*
G04 APERTURE LIST*
G04 Aperture macros list*
%AMRoundRect*
0 Rectangle with rounded corners*
0 $1 Rounding radius*
0 $2 $3 $4 $5 $6 $7 $8 $9 X,Y pos of 4 corners*
0 Add a 4 corners polygon primitive as box body*
4,1,4,$2,$3,$4,$5,$6,$7,$8,$9,$2,$3,0*
0 Add four circle primitives for the rounded corners*
1,1,$1+$1,$2,$3*
1,1,$1+$1,$4,$5*
1,1,$1+$1,$6,$7*
1,1,$1+$1,$8,$9*
0 Add four rect primitives between the rounded corners*
20,1,$1+$1,$2,$3,$4,$5,0*
20,1,$1+$1,$4,$5,$6,$7,0*
20,1,$1+$1,$6,$7,$8,$9,0*
20,1,$1+$1,$8,$9,$2,$3,0*%
G04 Aperture macros list end*
%ADD10C,0.100000*%
%ADD11C,0.150000*%
%ADD12C,0.120000*%
%ADD13R,1.500000X0.900000*%
%ADD14RoundRect,1.250000X-1.285750X-1.250000X1.285750X-1.250000X1.285750X1.250000X-1.285750X1.250000X0*%
G04 APERTURE END LIST*
D10*
X109238095Y-17005038D02*
X109142857Y-16957419D01*
X109142857Y-16957419D02*
X109000000Y-16957419D01*
X109000000Y-16957419D02*
X108857143Y-17005038D01*
X108857143Y-17005038D02*
X108761905Y-17100276D01*
X108761905Y-17100276D02*
X108714286Y-17195514D01*
X108714286Y-17195514D02*
X108666667Y-17385990D01*
X108666667Y-17385990D02*
X108666667Y-17528847D01*
X108666667Y-17528847D02*
X108714286Y-17719323D01*
X108714286Y-17719323D02*
X108761905Y-17814561D01*
X108761905Y-17814561D02*
X108857143Y-17909800D01*
X108857143Y-17909800D02*
X109000000Y-17957419D01*
X109000000Y-17957419D02*
X109095238Y-17957419D01*
X109095238Y-17957419D02*
X109238095Y-17909800D01*
X109238095Y-17909800D02*
X109285714Y-17862180D01*
X109285714Y-17862180D02*
X109285714Y-17528847D01*
X109285714Y-17528847D02*
X109095238Y-17528847D01*
X109714286Y-17957419D02*
X109714286Y-16957419D01*
X109714286Y-16957419D02*
X110285714Y-17957419D01*
X110285714Y-17957419D02*
X110285714Y-16957419D01*
X110761905Y-17957419D02*
X110761905Y-16957419D01*
X110761905Y-16957419D02*
X111000000Y-16957419D01*
X111000000Y-16957419D02*
X111142857Y-17005038D01*
X111142857Y-17005038D02*
X111238095Y-17100276D01*
X111238095Y-17100276D02*
X111285714Y-17195514D01*
X111285714Y-17195514D02*
X111333333Y-17385990D01*
X111333333Y-17385990D02*
X111333333Y-17528847D01*
X111333333Y-17528847D02*
X111285714Y-17719323D01*
X111285714Y-17719323D02*
X111238095Y-17814561D01*
X111238095Y-17814561D02*
X111142857Y-17909800D01*
X111142857Y-17909800D02*
X111000000Y-17957419D01*
X111000000Y-17957419D02*
X110761905Y-17957419D01*
D11*
X83785714Y-28954819D02*
X83785714Y-27954819D01*
X83785714Y-27954819D02*
X84023809Y-27954819D01*
X84023809Y-27954819D02*
X84166666Y-28002438D01*
X84166666Y-28002438D02*
X84261904Y-28097676D01*
X84261904Y-28097676D02*
X84309523Y-28192914D01*
X84309523Y-28192914D02*
X84357142Y-28383390D01*
X84357142Y-28383390D02*
X84357142Y-28526247D01*
X84357142Y-28526247D02*
X84309523Y-28716723D01*
X84309523Y-28716723D02*
X84261904Y-28811961D01*
X84261904Y-28811961D02*
X84166666Y-28907200D01*
X84166666Y-28907200D02*
X84023809Y-28954819D01*
X84023809Y-28954819D02*
X83785714Y-28954819D01*
X85214285Y-28288152D02*
X85214285Y-28954819D01*
X84976190Y-27907200D02*
X84738095Y-28621485D01*
X84738095Y-28621485D02*
X85357142Y-28621485D01*
X85785714Y-28954819D02*
X85976190Y-28954819D01*
X85976190Y-28954819D02*
X86071428Y-28907200D01*
X86071428Y-28907200D02*
X86119047Y-28859580D01*
X86119047Y-28859580D02*
X86214285Y-28716723D01*
X86214285Y-28716723D02*
X86261904Y-28526247D01*
X86261904Y-28526247D02*
X86261904Y-28145295D01*
X86261904Y-28145295D02*
X86214285Y-28050057D01*
X86214285Y-28050057D02*
X86166666Y-28002438D01*
X86166666Y-28002438D02*
X86071428Y-27954819D01*
X86071428Y-27954819D02*
X85880952Y-27954819D01*
X85880952Y-27954819D02*
X85785714Y-28002438D01*
X85785714Y-28002438D02*
X85738095Y-28050057D01*
X85738095Y-28050057D02*
X85690476Y-28145295D01*
X85690476Y-28145295D02*
X85690476Y-28383390D01*
X85690476Y-28383390D02*
X85738095Y-28478628D01*
X85738095Y-28478628D02*
X85785714Y-28526247D01*
X85785714Y-28526247D02*
X85880952Y-28573866D01*
X85880952Y-28573866D02*
X86071428Y-28573866D01*
X86071428Y-28573866D02*
X86166666Y-28526247D01*
X86166666Y-28526247D02*
X86214285Y-28478628D01*
X86214285Y-28478628D02*
X86261904Y-28383390D01*
X89435714Y-27054819D02*
X88864286Y-27054819D01*
X89150000Y-27054819D02*
X89150000Y-26054819D01*
X89150000Y-26054819D02*
X89054762Y-26197676D01*
X89054762Y-26197676D02*
X88959524Y-26292914D01*
X88959524Y-26292914D02*
X88864286Y-26340533D01*
X93785714Y-98954819D02*
X93785714Y-97954819D01*
X93785714Y-97954819D02*
X94023809Y-97954819D01*
X94023809Y-97954819D02*
X94166666Y-98002438D01*
X94166666Y-98002438D02*
X94261904Y-98097676D01*
X94261904Y-98097676D02*
X94309523Y-98192914D01*
X94309523Y-98192914D02*
X94357142Y-98383390D01*
X94357142Y-98383390D02*
X94357142Y-98526247D01*
X94357142Y-98526247D02*
X94309523Y-98716723D01*
X94309523Y-98716723D02*
X94261904Y-98811961D01*
X94261904Y-98811961D02*
X94166666Y-98907200D01*
X94166666Y-98907200D02*
X94023809Y-98954819D01*
X94023809Y-98954819D02*
X93785714Y-98954819D01*
X95261904Y-97954819D02*
X94785714Y-97954819D01*
X94785714Y-97954819D02*
X94738095Y-98431009D01*
X94738095Y-98431009D02*
X94785714Y-98383390D01*
X94785714Y-98383390D02*
X94880952Y-98335771D01*
X94880952Y-98335771D02*
X95119047Y-98335771D01*
X95119047Y-98335771D02*
X95214285Y-98383390D01*
X95214285Y-98383390D02*
X95261904Y-98431009D01*
X95261904Y-98431009D02*
X95309523Y-98526247D01*
X95309523Y-98526247D02*
X95309523Y-98764342D01*
X95309523Y-98764342D02*
X95261904Y-98859580D01*
X95261904Y-98859580D02*
X95214285Y-98907200D01*
X95214285Y-98907200D02*
X95119047Y-98954819D01*
X95119047Y-98954819D02*
X94880952Y-98954819D01*
X94880952Y-98954819D02*
X94785714Y-98907200D01*
X94785714Y-98907200D02*
X94738095Y-98859580D01*
X95642857Y-97954819D02*
X96309523Y-97954819D01*
X96309523Y-97954819D02*
X95880952Y-98954819D01*
X99435714Y-97054819D02*
X98864286Y-97054819D01*
X99150000Y-97054819D02*
X99150000Y-96054819D01*
X99150000Y-96054819D02*
X99054762Y-96197676D01*
X99054762Y-96197676D02*
X98959524Y-96292914D01*
X98959524Y-96292914D02*
X98864286Y-96340533D01*
X43785714Y-88954819D02*
X43785714Y-87954819D01*
X43785714Y-87954819D02*
X44023809Y-87954819D01*
X44023809Y-87954819D02*
X44166666Y-88002438D01*
X44166666Y-88002438D02*
X44261904Y-88097676D01*
X44261904Y-88097676D02*
X44309523Y-88192914D01*
X44309523Y-88192914D02*
X44357142Y-88383390D01*
X44357142Y-88383390D02*
X44357142Y-88526247D01*
X44357142Y-88526247D02*
X44309523Y-88716723D01*
X44309523Y-88716723D02*
X44261904Y-88811961D01*
X44261904Y-88811961D02*
X44166666Y-88907200D01*
X44166666Y-88907200D02*
X44023809Y-88954819D01*
X44023809Y-88954819D02*
X43785714Y-88954819D01*
X44738095Y-88050057D02*
X44785714Y-88002438D01*
X44785714Y-88002438D02*
X44880952Y-87954819D01*
X44880952Y-87954819D02*
X45119047Y-87954819D01*
X45119047Y-87954819D02*
X45214285Y-88002438D01*
X45214285Y-88002438D02*
X45261904Y-88050057D01*
X45261904Y-88050057D02*
X45309523Y-88145295D01*
X45309523Y-88145295D02*
X45309523Y-88240533D01*
X45309523Y-88240533D02*
X45261904Y-88383390D01*
X45261904Y-88383390D02*
X44690476Y-88954819D01*
X44690476Y-88954819D02*
X45309523Y-88954819D01*
X45642857Y-87954819D02*
X46261904Y-87954819D01*
X46261904Y-87954819D02*
X45928571Y-88335771D01*
X45928571Y-88335771D02*
X46071428Y-88335771D01*
X46071428Y-88335771D02*
X46166666Y-88383390D01*
X46166666Y-88383390D02*
X46214285Y-88431009D01*
X46214285Y-88431009D02*
X46261904Y-88526247D01*
X46261904Y-88526247D02*
X46261904Y-88764342D01*
X46261904Y-88764342D02*
X46214285Y-88859580D01*
X46214285Y-88859580D02*
X46166666Y-88907200D01*
X46166666Y-88907200D02*
X46071428Y-88954819D01*
X46071428Y-88954819D02*
X45785714Y-88954819D01*
X45785714Y-88954819D02*
X45690476Y-88907200D01*
X45690476Y-88907200D02*
X45642857Y-88859580D01*
X49435714Y-87054819D02*
X48864286Y-87054819D01*
X49150000Y-87054819D02*
X49150000Y-86054819D01*
X49150000Y-86054819D02*
X49054762Y-86197676D01*
X49054762Y-86197676D02*
X48959524Y-86292914D01*
X48959524Y-86292914D02*
X48864286Y-86340533D01*
X63785714Y-78954819D02*
X63785714Y-77954819D01*
X63785714Y-77954819D02*
X64023809Y-77954819D01*
X64023809Y-77954819D02*
X64166666Y-78002438D01*
X64166666Y-78002438D02*
X64261904Y-78097676D01*
X64261904Y-78097676D02*
X64309523Y-78192914D01*
X64309523Y-78192914D02*
X64357142Y-78383390D01*
X64357142Y-78383390D02*
X64357142Y-78526247D01*
X64357142Y-78526247D02*
X64309523Y-78716723D01*
X64309523Y-78716723D02*
X64261904Y-78811961D01*
X64261904Y-78811961D02*
X64166666Y-78907200D01*
X64166666Y-78907200D02*
X64023809Y-78954819D01*
X64023809Y-78954819D02*
X63785714Y-78954819D01*
X64690476Y-77954819D02*
X65309523Y-77954819D01*
X65309523Y-77954819D02*
X64976190Y-78335771D01*
X64976190Y-78335771D02*
X65119047Y-78335771D01*
X65119047Y-78335771D02*
X65214285Y-78383390D01*
X65214285Y-78383390D02*
X65261904Y-78431009D01*
X65261904Y-78431009D02*
X65309523Y-78526247D01*
X65309523Y-78526247D02*
X65309523Y-78764342D01*
X65309523Y-78764342D02*
X65261904Y-78859580D01*
X65261904Y-78859580D02*
X65214285Y-78907200D01*
X65214285Y-78907200D02*
X65119047Y-78954819D01*
X65119047Y-78954819D02*
X64833333Y-78954819D01*
X64833333Y-78954819D02*
X64738095Y-78907200D01*
X64738095Y-78907200D02*
X64690476Y-78859580D01*
X65880952Y-78383390D02*
X65785714Y-78335771D01*
X65785714Y-78335771D02*
X65738095Y-78288152D01*
X65738095Y-78288152D02*
X65690476Y-78192914D01*
X65690476Y-78192914D02*
X65690476Y-78145295D01*
X65690476Y-78145295D02*
X65738095Y-78050057D01*
X65738095Y-78050057D02*
X65785714Y-78002438D01*
X65785714Y-78002438D02*
X65880952Y-77954819D01*
X65880952Y-77954819D02*
X66071428Y-77954819D01*
X66071428Y-77954819D02*
X66166666Y-78002438D01*
X66166666Y-78002438D02*
X66214285Y-78050057D01*
X66214285Y-78050057D02*
X66261904Y-78145295D01*
X66261904Y-78145295D02*
X66261904Y-78192914D01*
X66261904Y-78192914D02*
X66214285Y-78288152D01*
X66214285Y-78288152D02*
X66166666Y-78335771D01*
X66166666Y-78335771D02*
X66071428Y-78383390D01*
X66071428Y-78383390D02*
X65880952Y-78383390D01*
X65880952Y-78383390D02*
X65785714Y-78431009D01*
X65785714Y-78431009D02*
X65738095Y-78478628D01*
X65738095Y-78478628D02*
X65690476Y-78573866D01*
X65690476Y-78573866D02*
X65690476Y-78764342D01*
X65690476Y-78764342D02*
X65738095Y-78859580D01*
X65738095Y-78859580D02*
X65785714Y-78907200D01*
X65785714Y-78907200D02*
X65880952Y-78954819D01*
X65880952Y-78954819D02*
X66071428Y-78954819D01*
X66071428Y-78954819D02*
X66166666Y-78907200D01*
X66166666Y-78907200D02*
X66214285Y-78859580D01*
X66214285Y-78859580D02*
X66261904Y-78764342D01*
X66261904Y-78764342D02*
X66261904Y-78573866D01*
X66261904Y-78573866D02*
X66214285Y-78478628D01*
X66214285Y-78478628D02*
X66166666Y-78431009D01*
X66166666Y-78431009D02*
X66071428Y-78383390D01*
X69435714Y-77054819D02*
X68864286Y-77054819D01*
X69150000Y-77054819D02*
X69150000Y-76054819D01*
X69150000Y-76054819D02*
X69054762Y-76197676D01*
X69054762Y-76197676D02*
X68959524Y-76292914D01*
X68959524Y-76292914D02*
X68864286Y-76340533D01*
X63785714Y-28954819D02*
X63785714Y-27954819D01*
X63785714Y-27954819D02*
X64023809Y-27954819D01*
X64023809Y-27954819D02*
X64166666Y-28002438D01*
X64166666Y-28002438D02*
X64261904Y-28097676D01*
X64261904Y-28097676D02*
X64309523Y-28192914D01*
X64309523Y-28192914D02*
X64357142Y-28383390D01*
X64357142Y-28383390D02*
X64357142Y-28526247D01*
X64357142Y-28526247D02*
X64309523Y-28716723D01*
X64309523Y-28716723D02*
X64261904Y-28811961D01*
X64261904Y-28811961D02*
X64166666Y-28907200D01*
X64166666Y-28907200D02*
X64023809Y-28954819D01*
X64023809Y-28954819D02*
X63785714Y-28954819D01*
X64690476Y-27954819D02*
X65309523Y-27954819D01*
X65309523Y-27954819D02*
X64976190Y-28335771D01*
X64976190Y-28335771D02*
X65119047Y-28335771D01*
X65119047Y-28335771D02*
X65214285Y-28383390D01*
X65214285Y-28383390D02*
X65261904Y-28431009D01*
X65261904Y-28431009D02*
X65309523Y-28526247D01*
X65309523Y-28526247D02*
X65309523Y-28764342D01*
X65309523Y-28764342D02*
X65261904Y-28859580D01*
X65261904Y-28859580D02*
X65214285Y-28907200D01*
X65214285Y-28907200D02*
X65119047Y-28954819D01*
X65119047Y-28954819D02*
X64833333Y-28954819D01*
X64833333Y-28954819D02*
X64738095Y-28907200D01*
X64738095Y-28907200D02*
X64690476Y-28859580D01*
X65642857Y-27954819D02*
X66261904Y-27954819D01*
X66261904Y-27954819D02*
X65928571Y-28335771D01*
X65928571Y-28335771D02*
X66071428Y-28335771D01*
X66071428Y-28335771D02*
X66166666Y-28383390D01*
X66166666Y-28383390D02*
X66214285Y-28431009D01*
X66214285Y-28431009D02*
X66261904Y-28526247D01*
X66261904Y-28526247D02*
X66261904Y-28764342D01*
X66261904Y-28764342D02*
X66214285Y-28859580D01*
X66214285Y-28859580D02*
X66166666Y-28907200D01*
X66166666Y-28907200D02*
X66071428Y-28954819D01*
X66071428Y-28954819D02*
X65785714Y-28954819D01*
X65785714Y-28954819D02*
X65690476Y-28907200D01*
X65690476Y-28907200D02*
X65642857Y-28859580D01*
X69435714Y-27054819D02*
X68864286Y-27054819D01*
X69150000Y-27054819D02*
X69150000Y-26054819D01*
X69150000Y-26054819D02*
X69054762Y-26197676D01*
X69054762Y-26197676D02*
X68959524Y-26292914D01*
X68959524Y-26292914D02*
X68864286Y-26340533D01*
X43785714Y-48954819D02*
X43785714Y-47954819D01*
X43785714Y-47954819D02*
X44023809Y-47954819D01*
X44023809Y-47954819D02*
X44166666Y-48002438D01*
X44166666Y-48002438D02*
X44261904Y-48097676D01*
X44261904Y-48097676D02*
X44309523Y-48192914D01*
X44309523Y-48192914D02*
X44357142Y-48383390D01*
X44357142Y-48383390D02*
X44357142Y-48526247D01*
X44357142Y-48526247D02*
X44309523Y-48716723D01*
X44309523Y-48716723D02*
X44261904Y-48811961D01*
X44261904Y-48811961D02*
X44166666Y-48907200D01*
X44166666Y-48907200D02*
X44023809Y-48954819D01*
X44023809Y-48954819D02*
X43785714Y-48954819D01*
X45309523Y-48954819D02*
X44738095Y-48954819D01*
X45023809Y-48954819D02*
X45023809Y-47954819D01*
X45023809Y-47954819D02*
X44928571Y-48097676D01*
X44928571Y-48097676D02*
X44833333Y-48192914D01*
X44833333Y-48192914D02*
X44738095Y-48240533D01*
X45785714Y-48954819D02*
X45976190Y-48954819D01*
X45976190Y-48954819D02*
X46071428Y-48907200D01*
X46071428Y-48907200D02*
X46119047Y-48859580D01*
X46119047Y-48859580D02*
X46214285Y-48716723D01*
X46214285Y-48716723D02*
X46261904Y-48526247D01*
X46261904Y-48526247D02*
X46261904Y-48145295D01*
X46261904Y-48145295D02*
X46214285Y-48050057D01*
X46214285Y-48050057D02*
X46166666Y-48002438D01*
X46166666Y-48002438D02*
X46071428Y-47954819D01*
X46071428Y-47954819D02*
X45880952Y-47954819D01*
X45880952Y-47954819D02*
X45785714Y-48002438D01*
X45785714Y-48002438D02*
X45738095Y-48050057D01*
X45738095Y-48050057D02*
X45690476Y-48145295D01*
X45690476Y-48145295D02*
X45690476Y-48383390D01*
X45690476Y-48383390D02*
X45738095Y-48478628D01*
X45738095Y-48478628D02*
X45785714Y-48526247D01*
X45785714Y-48526247D02*
X45880952Y-48573866D01*
X45880952Y-48573866D02*
X46071428Y-48573866D01*
X46071428Y-48573866D02*
X46166666Y-48526247D01*
X46166666Y-48526247D02*
X46214285Y-48478628D01*
X46214285Y-48478628D02*
X46261904Y-48383390D01*
X49435714Y-47054819D02*
X48864286Y-47054819D01*
X49150000Y-47054819D02*
X49150000Y-46054819D01*
X49150000Y-46054819D02*
X49054762Y-46197676D01*
X49054762Y-46197676D02*
X48959524Y-46292914D01*
X48959524Y-46292914D02*
X48864286Y-46340533D01*
X33785714Y-38954819D02*
X33785714Y-37954819D01*
X33785714Y-37954819D02*
X34023809Y-37954819D01*
X34023809Y-37954819D02*
X34166666Y-38002438D01*
X34166666Y-38002438D02*
X34261904Y-38097676D01*
X34261904Y-38097676D02*
X34309523Y-38192914D01*
X34309523Y-38192914D02*
X34357142Y-38383390D01*
X34357142Y-38383390D02*
X34357142Y-38526247D01*
X34357142Y-38526247D02*
X34309523Y-38716723D01*
X34309523Y-38716723D02*
X34261904Y-38811961D01*
X34261904Y-38811961D02*
X34166666Y-38907200D01*
X34166666Y-38907200D02*
X34023809Y-38954819D01*
X34023809Y-38954819D02*
X33785714Y-38954819D01*
X35309523Y-38954819D02*
X34738095Y-38954819D01*
X35023809Y-38954819D02*
X35023809Y-37954819D01*
X35023809Y-37954819D02*
X34928571Y-38097676D01*
X34928571Y-38097676D02*
X34833333Y-38192914D01*
X34833333Y-38192914D02*
X34738095Y-38240533D01*
X36214285Y-37954819D02*
X35738095Y-37954819D01*
X35738095Y-37954819D02*
X35690476Y-38431009D01*
X35690476Y-38431009D02*
X35738095Y-38383390D01*
X35738095Y-38383390D02*
X35833333Y-38335771D01*
X35833333Y-38335771D02*
X36071428Y-38335771D01*
X36071428Y-38335771D02*
X36166666Y-38383390D01*
X36166666Y-38383390D02*
X36214285Y-38431009D01*
X36214285Y-38431009D02*
X36261904Y-38526247D01*
X36261904Y-38526247D02*
X36261904Y-38764342D01*
X36261904Y-38764342D02*
X36214285Y-38859580D01*
X36214285Y-38859580D02*
X36166666Y-38907200D01*
X36166666Y-38907200D02*
X36071428Y-38954819D01*
X36071428Y-38954819D02*
X35833333Y-38954819D01*
X35833333Y-38954819D02*
X35738095Y-38907200D01*
X35738095Y-38907200D02*
X35690476Y-38859580D01*
X39435714Y-37054819D02*
X38864286Y-37054819D01*
X39150000Y-37054819D02*
X39150000Y-36054819D01*
X39150000Y-36054819D02*
X39054762Y-36197676D01*
X39054762Y-36197676D02*
X38959524Y-36292914D01*
X38959524Y-36292914D02*
X38864286Y-36340533D01*
X83785714Y-38954819D02*
X83785714Y-37954819D01*
X83785714Y-37954819D02*
X84023809Y-37954819D01*
X84023809Y-37954819D02*
X84166666Y-38002438D01*
X84166666Y-38002438D02*
X84261904Y-38097676D01*
X84261904Y-38097676D02*
X84309523Y-38192914D01*
X84309523Y-38192914D02*
X84357142Y-38383390D01*
X84357142Y-38383390D02*
X84357142Y-38526247D01*
X84357142Y-38526247D02*
X84309523Y-38716723D01*
X84309523Y-38716723D02*
X84261904Y-38811961D01*
X84261904Y-38811961D02*
X84166666Y-38907200D01*
X84166666Y-38907200D02*
X84023809Y-38954819D01*
X84023809Y-38954819D02*
X83785714Y-38954819D01*
X85261904Y-37954819D02*
X84785714Y-37954819D01*
X84785714Y-37954819D02*
X84738095Y-38431009D01*
X84738095Y-38431009D02*
X84785714Y-38383390D01*
X84785714Y-38383390D02*
X84880952Y-38335771D01*
X84880952Y-38335771D02*
X85119047Y-38335771D01*
X85119047Y-38335771D02*
X85214285Y-38383390D01*
X85214285Y-38383390D02*
X85261904Y-38431009D01*
X85261904Y-38431009D02*
X85309523Y-38526247D01*
X85309523Y-38526247D02*
X85309523Y-38764342D01*
X85309523Y-38764342D02*
X85261904Y-38859580D01*
X85261904Y-38859580D02*
X85214285Y-38907200D01*
X85214285Y-38907200D02*
X85119047Y-38954819D01*
X85119047Y-38954819D02*
X84880952Y-38954819D01*
X84880952Y-38954819D02*
X84785714Y-38907200D01*
X84785714Y-38907200D02*
X84738095Y-38859580D01*
X85928571Y-37954819D02*
X86023809Y-37954819D01*
X86023809Y-37954819D02*
X86119047Y-38002438D01*
X86119047Y-38002438D02*
X86166666Y-38050057D01*
X86166666Y-38050057D02*
X86214285Y-38145295D01*
X86214285Y-38145295D02*
X86261904Y-38335771D01*
X86261904Y-38335771D02*
X86261904Y-38573866D01*
X86261904Y-38573866D02*
X86214285Y-38764342D01*
X86214285Y-38764342D02*
X86166666Y-38859580D01*
X86166666Y-38859580D02*
X86119047Y-38907200D01*
X86119047Y-38907200D02*
X86023809Y-38954819D01*
X86023809Y-38954819D02*
X85928571Y-38954819D01*
X85928571Y-38954819D02*
X85833333Y-38907200D01*
X85833333Y-38907200D02*
X85785714Y-38859580D01*
X85785714Y-38859580D02*
X85738095Y-38764342D01*
X85738095Y-38764342D02*
X85690476Y-38573866D01*
X85690476Y-38573866D02*
X85690476Y-38335771D01*
X85690476Y-38335771D02*
X85738095Y-38145295D01*
X85738095Y-38145295D02*
X85785714Y-38050057D01*
X85785714Y-38050057D02*
X85833333Y-38002438D01*
X85833333Y-38002438D02*
X85928571Y-37954819D01*
X89435714Y-37054819D02*
X88864286Y-37054819D01*
X89150000Y-37054819D02*
X89150000Y-36054819D01*
X89150000Y-36054819D02*
X89054762Y-36197676D01*
X89054762Y-36197676D02*
X88959524Y-36292914D01*
X88959524Y-36292914D02*
X88864286Y-36340533D01*
X24261905Y-28954819D02*
X24261905Y-27954819D01*
X24261905Y-27954819D02*
X24500000Y-27954819D01*
X24500000Y-27954819D02*
X24642857Y-28002438D01*
X24642857Y-28002438D02*
X24738095Y-28097676D01*
X24738095Y-28097676D02*
X24785714Y-28192914D01*
X24785714Y-28192914D02*
X24833333Y-28383390D01*
X24833333Y-28383390D02*
X24833333Y-28526247D01*
X24833333Y-28526247D02*
X24785714Y-28716723D01*
X24785714Y-28716723D02*
X24738095Y-28811961D01*
X24738095Y-28811961D02*
X24642857Y-28907200D01*
X24642857Y-28907200D02*
X24500000Y-28954819D01*
X24500000Y-28954819D02*
X24261905Y-28954819D01*
X25785714Y-28954819D02*
X25214286Y-28954819D01*
X25500000Y-28954819D02*
X25500000Y-27954819D01*
X25500000Y-27954819D02*
X25404762Y-28097676D01*
X25404762Y-28097676D02*
X25309524Y-28192914D01*
X25309524Y-28192914D02*
X25214286Y-28240533D01*
X29435714Y-27054819D02*
X28864286Y-27054819D01*
X29150000Y-27054819D02*
X29150000Y-26054819D01*
X29150000Y-26054819D02*
X29054762Y-26197676D01*
X29054762Y-26197676D02*
X28959524Y-26292914D01*
X28959524Y-26292914D02*
X28864286Y-26340533D01*
X24261905Y-98954819D02*
X24261905Y-97954819D01*
X24261905Y-97954819D02*
X24500000Y-97954819D01*
X24500000Y-97954819D02*
X24642857Y-98002438D01*
X24642857Y-98002438D02*
X24738095Y-98097676D01*
X24738095Y-98097676D02*
X24785714Y-98192914D01*
X24785714Y-98192914D02*
X24833333Y-98383390D01*
X24833333Y-98383390D02*
X24833333Y-98526247D01*
X24833333Y-98526247D02*
X24785714Y-98716723D01*
X24785714Y-98716723D02*
X24738095Y-98811961D01*
X24738095Y-98811961D02*
X24642857Y-98907200D01*
X24642857Y-98907200D02*
X24500000Y-98954819D01*
X24500000Y-98954819D02*
X24261905Y-98954819D01*
X25404762Y-98383390D02*
X25309524Y-98335771D01*
X25309524Y-98335771D02*
X25261905Y-98288152D01*
X25261905Y-98288152D02*
X25214286Y-98192914D01*
X25214286Y-98192914D02*
X25214286Y-98145295D01*
X25214286Y-98145295D02*
X25261905Y-98050057D01*
X25261905Y-98050057D02*
X25309524Y-98002438D01*
X25309524Y-98002438D02*
X25404762Y-97954819D01*
X25404762Y-97954819D02*
X25595238Y-97954819D01*
X25595238Y-97954819D02*
X25690476Y-98002438D01*
X25690476Y-98002438D02*
X25738095Y-98050057D01*
X25738095Y-98050057D02*
X25785714Y-98145295D01*
X25785714Y-98145295D02*
X25785714Y-98192914D01*
X25785714Y-98192914D02*
X25738095Y-98288152D01*
X25738095Y-98288152D02*
X25690476Y-98335771D01*
X25690476Y-98335771D02*
X25595238Y-98383390D01*
X25595238Y-98383390D02*
X25404762Y-98383390D01*
X25404762Y-98383390D02*
X25309524Y-98431009D01*
X25309524Y-98431009D02*
X25261905Y-98478628D01*
X25261905Y-98478628D02*
X25214286Y-98573866D01*
X25214286Y-98573866D02*
X25214286Y-98764342D01*
X25214286Y-98764342D02*
X25261905Y-98859580D01*
X25261905Y-98859580D02*
X25309524Y-98907200D01*
X25309524Y-98907200D02*
X25404762Y-98954819D01*
X25404762Y-98954819D02*
X25595238Y-98954819D01*
X25595238Y-98954819D02*
X25690476Y-98907200D01*
X25690476Y-98907200D02*
X25738095Y-98859580D01*
X25738095Y-98859580D02*
X25785714Y-98764342D01*
X25785714Y-98764342D02*
X25785714Y-98573866D01*
X25785714Y-98573866D02*
X25738095Y-98478628D01*
X25738095Y-98478628D02*
X25690476Y-98431009D01*
X25690476Y-98431009D02*
X25595238Y-98383390D01*
X29435714Y-97054819D02*
X28864286Y-97054819D01*
X29150000Y-97054819D02*
X29150000Y-96054819D01*
X29150000Y-96054819D02*
X29054762Y-96197676D01*
X29054762Y-96197676D02*
X28959524Y-96292914D01*
X28959524Y-96292914D02*
X28864286Y-96340533D01*
X73785714Y-38954819D02*
X73785714Y-37954819D01*
X73785714Y-37954819D02*
X74023809Y-37954819D01*
X74023809Y-37954819D02*
X74166666Y-38002438D01*
X74166666Y-38002438D02*
X74261904Y-38097676D01*
X74261904Y-38097676D02*
X74309523Y-38192914D01*
X74309523Y-38192914D02*
X74357142Y-38383390D01*
X74357142Y-38383390D02*
X74357142Y-38526247D01*
X74357142Y-38526247D02*
X74309523Y-38716723D01*
X74309523Y-38716723D02*
X74261904Y-38811961D01*
X74261904Y-38811961D02*
X74166666Y-38907200D01*
X74166666Y-38907200D02*
X74023809Y-38954819D01*
X74023809Y-38954819D02*
X73785714Y-38954819D01*
X75214285Y-38288152D02*
X75214285Y-38954819D01*
X74976190Y-37907200D02*
X74738095Y-38621485D01*
X74738095Y-38621485D02*
X75357142Y-38621485D01*
X75642857Y-37954819D02*
X76309523Y-37954819D01*
X76309523Y-37954819D02*
X75880952Y-38954819D01*
X79435714Y-37054819D02*
X78864286Y-37054819D01*
X79150000Y-37054819D02*
X79150000Y-36054819D01*
X79150000Y-36054819D02*
X79054762Y-36197676D01*
X79054762Y-36197676D02*
X78959524Y-36292914D01*
X78959524Y-36292914D02*
X78864286Y-36340533D01*
X83785714Y-68954819D02*
X83785714Y-67954819D01*
X83785714Y-67954819D02*
X84023809Y-67954819D01*
X84023809Y-67954819D02*
X84166666Y-68002438D01*
X84166666Y-68002438D02*
X84261904Y-68097676D01*
X84261904Y-68097676D02*
X84309523Y-68192914D01*
X84309523Y-68192914D02*
X84357142Y-68383390D01*
X84357142Y-68383390D02*
X84357142Y-68526247D01*
X84357142Y-68526247D02*
X84309523Y-68716723D01*
X84309523Y-68716723D02*
X84261904Y-68811961D01*
X84261904Y-68811961D02*
X84166666Y-68907200D01*
X84166666Y-68907200D02*
X84023809Y-68954819D01*
X84023809Y-68954819D02*
X83785714Y-68954819D01*
X85261904Y-67954819D02*
X84785714Y-67954819D01*
X84785714Y-67954819D02*
X84738095Y-68431009D01*
X84738095Y-68431009D02*
X84785714Y-68383390D01*
X84785714Y-68383390D02*
X84880952Y-68335771D01*
X84880952Y-68335771D02*
X85119047Y-68335771D01*
X85119047Y-68335771D02*
X85214285Y-68383390D01*
X85214285Y-68383390D02*
X85261904Y-68431009D01*
X85261904Y-68431009D02*
X85309523Y-68526247D01*
X85309523Y-68526247D02*
X85309523Y-68764342D01*
X85309523Y-68764342D02*
X85261904Y-68859580D01*
X85261904Y-68859580D02*
X85214285Y-68907200D01*
X85214285Y-68907200D02*
X85119047Y-68954819D01*
X85119047Y-68954819D02*
X84880952Y-68954819D01*
X84880952Y-68954819D02*
X84785714Y-68907200D01*
X84785714Y-68907200D02*
X84738095Y-68859580D01*
X85642857Y-67954819D02*
X86261904Y-67954819D01*
X86261904Y-67954819D02*
X85928571Y-68335771D01*
X85928571Y-68335771D02*
X86071428Y-68335771D01*
X86071428Y-68335771D02*
X86166666Y-68383390D01*
X86166666Y-68383390D02*
X86214285Y-68431009D01*
X86214285Y-68431009D02*
X86261904Y-68526247D01*
X86261904Y-68526247D02*
X86261904Y-68764342D01*
X86261904Y-68764342D02*
X86214285Y-68859580D01*
X86214285Y-68859580D02*
X86166666Y-68907200D01*
X86166666Y-68907200D02*
X86071428Y-68954819D01*
X86071428Y-68954819D02*
X85785714Y-68954819D01*
X85785714Y-68954819D02*
X85690476Y-68907200D01*
X85690476Y-68907200D02*
X85642857Y-68859580D01*
X89435714Y-67054819D02*
X88864286Y-67054819D01*
X89150000Y-67054819D02*
X89150000Y-66054819D01*
X89150000Y-66054819D02*
X89054762Y-66197676D01*
X89054762Y-66197676D02*
X88959524Y-66292914D01*
X88959524Y-66292914D02*
X88864286Y-66340533D01*
X93785714Y-78954819D02*
X93785714Y-77954819D01*
X93785714Y-77954819D02*
X94023809Y-77954819D01*
X94023809Y-77954819D02*
X94166666Y-78002438D01*
X94166666Y-78002438D02*
X94261904Y-78097676D01*
X94261904Y-78097676D02*
X94309523Y-78192914D01*
X94309523Y-78192914D02*
X94357142Y-78383390D01*
X94357142Y-78383390D02*
X94357142Y-78526247D01*
X94357142Y-78526247D02*
X94309523Y-78716723D01*
X94309523Y-78716723D02*
X94261904Y-78811961D01*
X94261904Y-78811961D02*
X94166666Y-78907200D01*
X94166666Y-78907200D02*
X94023809Y-78954819D01*
X94023809Y-78954819D02*
X93785714Y-78954819D01*
X95261904Y-77954819D02*
X94785714Y-77954819D01*
X94785714Y-77954819D02*
X94738095Y-78431009D01*
X94738095Y-78431009D02*
X94785714Y-78383390D01*
X94785714Y-78383390D02*
X94880952Y-78335771D01*
X94880952Y-78335771D02*
X95119047Y-78335771D01*
X95119047Y-78335771D02*
X95214285Y-78383390D01*
X95214285Y-78383390D02*
X95261904Y-78431009D01*
X95261904Y-78431009D02*
X95309523Y-78526247D01*
X95309523Y-78526247D02*
X95309523Y-78764342D01*
X95309523Y-78764342D02*
X95261904Y-78859580D01*
X95261904Y-78859580D02*
X95214285Y-78907200D01*
X95214285Y-78907200D02*
X95119047Y-78954819D01*
X95119047Y-78954819D02*
X94880952Y-78954819D01*
X94880952Y-78954819D02*
X94785714Y-78907200D01*
X94785714Y-78907200D02*
X94738095Y-78859580D01*
X95785714Y-78954819D02*
X95976190Y-78954819D01*
X95976190Y-78954819D02*
X96071428Y-78907200D01*
X96071428Y-78907200D02*
X96119047Y-78859580D01*
X96119047Y-78859580D02*
X96214285Y-78716723D01*
X96214285Y-78716723D02*
X96261904Y-78526247D01*
X96261904Y-78526247D02*
X96261904Y-78145295D01*
X96261904Y-78145295D02*
X96214285Y-78050057D01*
X96214285Y-78050057D02*
X96166666Y-78002438D01*
X96166666Y-78002438D02*
X96071428Y-77954819D01*
X96071428Y-77954819D02*
X95880952Y-77954819D01*
X95880952Y-77954819D02*
X95785714Y-78002438D01*
X95785714Y-78002438D02*
X95738095Y-78050057D01*
X95738095Y-78050057D02*
X95690476Y-78145295D01*
X95690476Y-78145295D02*
X95690476Y-78383390D01*
X95690476Y-78383390D02*
X95738095Y-78478628D01*
X95738095Y-78478628D02*
X95785714Y-78526247D01*
X95785714Y-78526247D02*
X95880952Y-78573866D01*
X95880952Y-78573866D02*
X96071428Y-78573866D01*
X96071428Y-78573866D02*
X96166666Y-78526247D01*
X96166666Y-78526247D02*
X96214285Y-78478628D01*
X96214285Y-78478628D02*
X96261904Y-78383390D01*
X99435714Y-77054819D02*
X98864286Y-77054819D01*
X99150000Y-77054819D02*
X99150000Y-76054819D01*
X99150000Y-76054819D02*
X99054762Y-76197676D01*
X99054762Y-76197676D02*
X98959524Y-76292914D01*
X98959524Y-76292914D02*
X98864286Y-76340533D01*
X33785714Y-68954819D02*
X33785714Y-67954819D01*
X33785714Y-67954819D02*
X34023809Y-67954819D01*
X34023809Y-67954819D02*
X34166666Y-68002438D01*
X34166666Y-68002438D02*
X34261904Y-68097676D01*
X34261904Y-68097676D02*
X34309523Y-68192914D01*
X34309523Y-68192914D02*
X34357142Y-68383390D01*
X34357142Y-68383390D02*
X34357142Y-68526247D01*
X34357142Y-68526247D02*
X34309523Y-68716723D01*
X34309523Y-68716723D02*
X34261904Y-68811961D01*
X34261904Y-68811961D02*
X34166666Y-68907200D01*
X34166666Y-68907200D02*
X34023809Y-68954819D01*
X34023809Y-68954819D02*
X33785714Y-68954819D01*
X35309523Y-68954819D02*
X34738095Y-68954819D01*
X35023809Y-68954819D02*
X35023809Y-67954819D01*
X35023809Y-67954819D02*
X34928571Y-68097676D01*
X34928571Y-68097676D02*
X34833333Y-68192914D01*
X34833333Y-68192914D02*
X34738095Y-68240533D01*
X35690476Y-68050057D02*
X35738095Y-68002438D01*
X35738095Y-68002438D02*
X35833333Y-67954819D01*
X35833333Y-67954819D02*
X36071428Y-67954819D01*
X36071428Y-67954819D02*
X36166666Y-68002438D01*
X36166666Y-68002438D02*
X36214285Y-68050057D01*
X36214285Y-68050057D02*
X36261904Y-68145295D01*
X36261904Y-68145295D02*
X36261904Y-68240533D01*
X36261904Y-68240533D02*
X36214285Y-68383390D01*
X36214285Y-68383390D02*
X35642857Y-68954819D01*
X35642857Y-68954819D02*
X36261904Y-68954819D01*
X39435714Y-67054819D02*
X38864286Y-67054819D01*
X39150000Y-67054819D02*
X39150000Y-66054819D01*
X39150000Y-66054819D02*
X39054762Y-66197676D01*
X39054762Y-66197676D02*
X38959524Y-66292914D01*
X38959524Y-66292914D02*
X38864286Y-66340533D01*
X34261905Y-98954819D02*
X34261905Y-97954819D01*
X34261905Y-97954819D02*
X34500000Y-97954819D01*
X34500000Y-97954819D02*
X34642857Y-98002438D01*
X34642857Y-98002438D02*
X34738095Y-98097676D01*
X34738095Y-98097676D02*
X34785714Y-98192914D01*
X34785714Y-98192914D02*
X34833333Y-98383390D01*
X34833333Y-98383390D02*
X34833333Y-98526247D01*
X34833333Y-98526247D02*
X34785714Y-98716723D01*
X34785714Y-98716723D02*
X34738095Y-98811961D01*
X34738095Y-98811961D02*
X34642857Y-98907200D01*
X34642857Y-98907200D02*
X34500000Y-98954819D01*
X34500000Y-98954819D02*
X34261905Y-98954819D01*
X35309524Y-98954819D02*
X35500000Y-98954819D01*
X35500000Y-98954819D02*
X35595238Y-98907200D01*
X35595238Y-98907200D02*
X35642857Y-98859580D01*
X35642857Y-98859580D02*
X35738095Y-98716723D01*
X35738095Y-98716723D02*
X35785714Y-98526247D01*
X35785714Y-98526247D02*
X35785714Y-98145295D01*
X35785714Y-98145295D02*
X35738095Y-98050057D01*
X35738095Y-98050057D02*
X35690476Y-98002438D01*
X35690476Y-98002438D02*
X35595238Y-97954819D01*
X35595238Y-97954819D02*
X35404762Y-97954819D01*
X35404762Y-97954819D02*
X35309524Y-98002438D01*
X35309524Y-98002438D02*
X35261905Y-98050057D01*
X35261905Y-98050057D02*
X35214286Y-98145295D01*
X35214286Y-98145295D02*
X35214286Y-98383390D01*
X35214286Y-98383390D02*
X35261905Y-98478628D01*
X35261905Y-98478628D02*
X35309524Y-98526247D01*
X35309524Y-98526247D02*
X35404762Y-98573866D01*
X35404762Y-98573866D02*
X35595238Y-98573866D01*
X35595238Y-98573866D02*
X35690476Y-98526247D01*
X35690476Y-98526247D02*
X35738095Y-98478628D01*
X35738095Y-98478628D02*
X35785714Y-98383390D01*
X39435714Y-97054819D02*
X38864286Y-97054819D01*
X39150000Y-97054819D02*
X39150000Y-96054819D01*
X39150000Y-96054819D02*
X39054762Y-96197676D01*
X39054762Y-96197676D02*
X38959524Y-96292914D01*
X38959524Y-96292914D02*
X38864286Y-96340533D01*
X53785714Y-48954819D02*
X53785714Y-47954819D01*
X53785714Y-47954819D02*
X54023809Y-47954819D01*
X54023809Y-47954819D02*
X54166666Y-48002438D01*
X54166666Y-48002438D02*
X54261904Y-48097676D01*
X54261904Y-48097676D02*
X54309523Y-48192914D01*
X54309523Y-48192914D02*
X54357142Y-48383390D01*
X54357142Y-48383390D02*
X54357142Y-48526247D01*
X54357142Y-48526247D02*
X54309523Y-48716723D01*
X54309523Y-48716723D02*
X54261904Y-48811961D01*
X54261904Y-48811961D02*
X54166666Y-48907200D01*
X54166666Y-48907200D02*
X54023809Y-48954819D01*
X54023809Y-48954819D02*
X53785714Y-48954819D01*
X54690476Y-47954819D02*
X55309523Y-47954819D01*
X55309523Y-47954819D02*
X54976190Y-48335771D01*
X54976190Y-48335771D02*
X55119047Y-48335771D01*
X55119047Y-48335771D02*
X55214285Y-48383390D01*
X55214285Y-48383390D02*
X55261904Y-48431009D01*
X55261904Y-48431009D02*
X55309523Y-48526247D01*
X55309523Y-48526247D02*
X55309523Y-48764342D01*
X55309523Y-48764342D02*
X55261904Y-48859580D01*
X55261904Y-48859580D02*
X55214285Y-48907200D01*
X55214285Y-48907200D02*
X55119047Y-48954819D01*
X55119047Y-48954819D02*
X54833333Y-48954819D01*
X54833333Y-48954819D02*
X54738095Y-48907200D01*
X54738095Y-48907200D02*
X54690476Y-48859580D01*
X55928571Y-47954819D02*
X56023809Y-47954819D01*
X56023809Y-47954819D02*
X56119047Y-48002438D01*
X56119047Y-48002438D02*
X56166666Y-48050057D01*
X56166666Y-48050057D02*
X56214285Y-48145295D01*
X56214285Y-48145295D02*
X56261904Y-48335771D01*
X56261904Y-48335771D02*
X56261904Y-48573866D01*
X56261904Y-48573866D02*
X56214285Y-48764342D01*
X56214285Y-48764342D02*
X56166666Y-48859580D01*
X56166666Y-48859580D02*
X56119047Y-48907200D01*
X56119047Y-48907200D02*
X56023809Y-48954819D01*
X56023809Y-48954819D02*
X55928571Y-48954819D01*
X55928571Y-48954819D02*
X55833333Y-48907200D01*
X55833333Y-48907200D02*
X55785714Y-48859580D01*
X55785714Y-48859580D02*
X55738095Y-48764342D01*
X55738095Y-48764342D02*
X55690476Y-48573866D01*
X55690476Y-48573866D02*
X55690476Y-48335771D01*
X55690476Y-48335771D02*
X55738095Y-48145295D01*
X55738095Y-48145295D02*
X55785714Y-48050057D01*
X55785714Y-48050057D02*
X55833333Y-48002438D01*
X55833333Y-48002438D02*
X55928571Y-47954819D01*
X59435714Y-47054819D02*
X58864286Y-47054819D01*
X59150000Y-47054819D02*
X59150000Y-46054819D01*
X59150000Y-46054819D02*
X59054762Y-46197676D01*
X59054762Y-46197676D02*
X58959524Y-46292914D01*
X58959524Y-46292914D02*
X58864286Y-46340533D01*
X63785714Y-38954819D02*
X63785714Y-37954819D01*
X63785714Y-37954819D02*
X64023809Y-37954819D01*
X64023809Y-37954819D02*
X64166666Y-38002438D01*
X64166666Y-38002438D02*
X64261904Y-38097676D01*
X64261904Y-38097676D02*
X64309523Y-38192914D01*
X64309523Y-38192914D02*
X64357142Y-38383390D01*
X64357142Y-38383390D02*
X64357142Y-38526247D01*
X64357142Y-38526247D02*
X64309523Y-38716723D01*
X64309523Y-38716723D02*
X64261904Y-38811961D01*
X64261904Y-38811961D02*
X64166666Y-38907200D01*
X64166666Y-38907200D02*
X64023809Y-38954819D01*
X64023809Y-38954819D02*
X63785714Y-38954819D01*
X64690476Y-37954819D02*
X65309523Y-37954819D01*
X65309523Y-37954819D02*
X64976190Y-38335771D01*
X64976190Y-38335771D02*
X65119047Y-38335771D01*
X65119047Y-38335771D02*
X65214285Y-38383390D01*
X65214285Y-38383390D02*
X65261904Y-38431009D01*
X65261904Y-38431009D02*
X65309523Y-38526247D01*
X65309523Y-38526247D02*
X65309523Y-38764342D01*
X65309523Y-38764342D02*
X65261904Y-38859580D01*
X65261904Y-38859580D02*
X65214285Y-38907200D01*
X65214285Y-38907200D02*
X65119047Y-38954819D01*
X65119047Y-38954819D02*
X64833333Y-38954819D01*
X64833333Y-38954819D02*
X64738095Y-38907200D01*
X64738095Y-38907200D02*
X64690476Y-38859580D01*
X66166666Y-38288152D02*
X66166666Y-38954819D01*
X65928571Y-37907200D02*
X65690476Y-38621485D01*
X65690476Y-38621485D02*
X66309523Y-38621485D01*
X69435714Y-37054819D02*
X68864286Y-37054819D01*
X69150000Y-37054819D02*
X69150000Y-36054819D01*
X69150000Y-36054819D02*
X69054762Y-36197676D01*
X69054762Y-36197676D02*
X68959524Y-36292914D01*
X68959524Y-36292914D02*
X68864286Y-36340533D01*
D10*
X9809523Y-31957419D02*
X9333333Y-31957419D01*
X9333333Y-31957419D02*
X9285714Y-32433609D01*
X9285714Y-32433609D02*
X9333333Y-32385990D01*
X9333333Y-32385990D02*
X9428571Y-32338371D01*
X9428571Y-32338371D02*
X9666666Y-32338371D01*
X9666666Y-32338371D02*
X9761904Y-32385990D01*
X9761904Y-32385990D02*
X9809523Y-32433609D01*
X9809523Y-32433609D02*
X9857142Y-32528847D01*
X9857142Y-32528847D02*
X9857142Y-32766942D01*
X9857142Y-32766942D02*
X9809523Y-32862180D01*
X9809523Y-32862180D02*
X9761904Y-32909800D01*
X9761904Y-32909800D02*
X9666666Y-32957419D01*
X9666666Y-32957419D02*
X9428571Y-32957419D01*
X9428571Y-32957419D02*
X9333333Y-32909800D01*
X9333333Y-32909800D02*
X9285714Y-32862180D01*
X10142857Y-31957419D02*
X10476190Y-32957419D01*
X10476190Y-32957419D02*
X10809523Y-31957419D01*
D11*
X73785714Y-88954819D02*
X73785714Y-87954819D01*
X73785714Y-87954819D02*
X74023809Y-87954819D01*
X74023809Y-87954819D02*
X74166666Y-88002438D01*
X74166666Y-88002438D02*
X74261904Y-88097676D01*
X74261904Y-88097676D02*
X74309523Y-88192914D01*
X74309523Y-88192914D02*
X74357142Y-88383390D01*
X74357142Y-88383390D02*
X74357142Y-88526247D01*
X74357142Y-88526247D02*
X74309523Y-88716723D01*
X74309523Y-88716723D02*
X74261904Y-88811961D01*
X74261904Y-88811961D02*
X74166666Y-88907200D01*
X74166666Y-88907200D02*
X74023809Y-88954819D01*
X74023809Y-88954819D02*
X73785714Y-88954819D01*
X75214285Y-88288152D02*
X75214285Y-88954819D01*
X74976190Y-87907200D02*
X74738095Y-88621485D01*
X74738095Y-88621485D02*
X75357142Y-88621485D01*
X75690476Y-88050057D02*
X75738095Y-88002438D01*
X75738095Y-88002438D02*
X75833333Y-87954819D01*
X75833333Y-87954819D02*
X76071428Y-87954819D01*
X76071428Y-87954819D02*
X76166666Y-88002438D01*
X76166666Y-88002438D02*
X76214285Y-88050057D01*
X76214285Y-88050057D02*
X76261904Y-88145295D01*
X76261904Y-88145295D02*
X76261904Y-88240533D01*
X76261904Y-88240533D02*
X76214285Y-88383390D01*
X76214285Y-88383390D02*
X75642857Y-88954819D01*
X75642857Y-88954819D02*
X76261904Y-88954819D01*
X79435714Y-87054819D02*
X78864286Y-87054819D01*
X79150000Y-87054819D02*
X79150000Y-86054819D01*
X79150000Y-86054819D02*
X79054762Y-86197676D01*
X79054762Y-86197676D02*
X78959524Y-86292914D01*
X78959524Y-86292914D02*
X78864286Y-86340533D01*
X33785714Y-48954819D02*
X33785714Y-47954819D01*
X33785714Y-47954819D02*
X34023809Y-47954819D01*
X34023809Y-47954819D02*
X34166666Y-48002438D01*
X34166666Y-48002438D02*
X34261904Y-48097676D01*
X34261904Y-48097676D02*
X34309523Y-48192914D01*
X34309523Y-48192914D02*
X34357142Y-48383390D01*
X34357142Y-48383390D02*
X34357142Y-48526247D01*
X34357142Y-48526247D02*
X34309523Y-48716723D01*
X34309523Y-48716723D02*
X34261904Y-48811961D01*
X34261904Y-48811961D02*
X34166666Y-48907200D01*
X34166666Y-48907200D02*
X34023809Y-48954819D01*
X34023809Y-48954819D02*
X33785714Y-48954819D01*
X35309523Y-48954819D02*
X34738095Y-48954819D01*
X35023809Y-48954819D02*
X35023809Y-47954819D01*
X35023809Y-47954819D02*
X34928571Y-48097676D01*
X34928571Y-48097676D02*
X34833333Y-48192914D01*
X34833333Y-48192914D02*
X34738095Y-48240533D01*
X36166666Y-48288152D02*
X36166666Y-48954819D01*
X35928571Y-47907200D02*
X35690476Y-48621485D01*
X35690476Y-48621485D02*
X36309523Y-48621485D01*
X39435714Y-47054819D02*
X38864286Y-47054819D01*
X39150000Y-47054819D02*
X39150000Y-46054819D01*
X39150000Y-46054819D02*
X39054762Y-46197676D01*
X39054762Y-46197676D02*
X38959524Y-46292914D01*
X38959524Y-46292914D02*
X38864286Y-46340533D01*
X53785714Y-88954819D02*
X53785714Y-87954819D01*
X53785714Y-87954819D02*
X54023809Y-87954819D01*
X54023809Y-87954819D02*
X54166666Y-88002438D01*
X54166666Y-88002438D02*
X54261904Y-88097676D01*
X54261904Y-88097676D02*
X54309523Y-88192914D01*
X54309523Y-88192914D02*
X54357142Y-88383390D01*
X54357142Y-88383390D02*
X54357142Y-88526247D01*
X54357142Y-88526247D02*
X54309523Y-88716723D01*
X54309523Y-88716723D02*
X54261904Y-88811961D01*
X54261904Y-88811961D02*
X54166666Y-88907200D01*
X54166666Y-88907200D02*
X54023809Y-88954819D01*
X54023809Y-88954819D02*
X53785714Y-88954819D01*
X54738095Y-88050057D02*
X54785714Y-88002438D01*
X54785714Y-88002438D02*
X54880952Y-87954819D01*
X54880952Y-87954819D02*
X55119047Y-87954819D01*
X55119047Y-87954819D02*
X55214285Y-88002438D01*
X55214285Y-88002438D02*
X55261904Y-88050057D01*
X55261904Y-88050057D02*
X55309523Y-88145295D01*
X55309523Y-88145295D02*
X55309523Y-88240533D01*
X55309523Y-88240533D02*
X55261904Y-88383390D01*
X55261904Y-88383390D02*
X54690476Y-88954819D01*
X54690476Y-88954819D02*
X55309523Y-88954819D01*
X56166666Y-87954819D02*
X55976190Y-87954819D01*
X55976190Y-87954819D02*
X55880952Y-88002438D01*
X55880952Y-88002438D02*
X55833333Y-88050057D01*
X55833333Y-88050057D02*
X55738095Y-88192914D01*
X55738095Y-88192914D02*
X55690476Y-88383390D01*
X55690476Y-88383390D02*
X55690476Y-88764342D01*
X55690476Y-88764342D02*
X55738095Y-88859580D01*
X55738095Y-88859580D02*
X55785714Y-88907200D01*
X55785714Y-88907200D02*
X55880952Y-88954819D01*
X55880952Y-88954819D02*
X56071428Y-88954819D01*
X56071428Y-88954819D02*
X56166666Y-88907200D01*
X56166666Y-88907200D02*
X56214285Y-88859580D01*
X56214285Y-88859580D02*
X56261904Y-88764342D01*
X56261904Y-88764342D02*
X56261904Y-88526247D01*
X56261904Y-88526247D02*
X56214285Y-88431009D01*
X56214285Y-88431009D02*
X56166666Y-88383390D01*
X56166666Y-88383390D02*
X56071428Y-88335771D01*
X56071428Y-88335771D02*
X55880952Y-88335771D01*
X55880952Y-88335771D02*
X55785714Y-88383390D01*
X55785714Y-88383390D02*
X55738095Y-88431009D01*
X55738095Y-88431009D02*
X55690476Y-88526247D01*
X59435714Y-87054819D02*
X58864286Y-87054819D01*
X59150000Y-87054819D02*
X59150000Y-86054819D01*
X59150000Y-86054819D02*
X59054762Y-86197676D01*
X59054762Y-86197676D02*
X58959524Y-86292914D01*
X58959524Y-86292914D02*
X58864286Y-86340533D01*
X83785714Y-98954819D02*
X83785714Y-97954819D01*
X83785714Y-97954819D02*
X84023809Y-97954819D01*
X84023809Y-97954819D02*
X84166666Y-98002438D01*
X84166666Y-98002438D02*
X84261904Y-98097676D01*
X84261904Y-98097676D02*
X84309523Y-98192914D01*
X84309523Y-98192914D02*
X84357142Y-98383390D01*
X84357142Y-98383390D02*
X84357142Y-98526247D01*
X84357142Y-98526247D02*
X84309523Y-98716723D01*
X84309523Y-98716723D02*
X84261904Y-98811961D01*
X84261904Y-98811961D02*
X84166666Y-98907200D01*
X84166666Y-98907200D02*
X84023809Y-98954819D01*
X84023809Y-98954819D02*
X83785714Y-98954819D01*
X85261904Y-97954819D02*
X84785714Y-97954819D01*
X84785714Y-97954819D02*
X84738095Y-98431009D01*
X84738095Y-98431009D02*
X84785714Y-98383390D01*
X84785714Y-98383390D02*
X84880952Y-98335771D01*
X84880952Y-98335771D02*
X85119047Y-98335771D01*
X85119047Y-98335771D02*
X85214285Y-98383390D01*
X85214285Y-98383390D02*
X85261904Y-98431009D01*
X85261904Y-98431009D02*
X85309523Y-98526247D01*
X85309523Y-98526247D02*
X85309523Y-98764342D01*
X85309523Y-98764342D02*
X85261904Y-98859580D01*
X85261904Y-98859580D02*
X85214285Y-98907200D01*
X85214285Y-98907200D02*
X85119047Y-98954819D01*
X85119047Y-98954819D02*
X84880952Y-98954819D01*
X84880952Y-98954819D02*
X84785714Y-98907200D01*
X84785714Y-98907200D02*
X84738095Y-98859580D01*
X86166666Y-97954819D02*
X85976190Y-97954819D01*
X85976190Y-97954819D02*
X85880952Y-98002438D01*
X85880952Y-98002438D02*
X85833333Y-98050057D01*
X85833333Y-98050057D02*
X85738095Y-98192914D01*
X85738095Y-98192914D02*
X85690476Y-98383390D01*
X85690476Y-98383390D02*
X85690476Y-98764342D01*
X85690476Y-98764342D02*
X85738095Y-98859580D01*
X85738095Y-98859580D02*
X85785714Y-98907200D01*
X85785714Y-98907200D02*
X85880952Y-98954819D01*
X85880952Y-98954819D02*
X86071428Y-98954819D01*
X86071428Y-98954819D02*
X86166666Y-98907200D01*
X86166666Y-98907200D02*
X86214285Y-98859580D01*
X86214285Y-98859580D02*
X86261904Y-98764342D01*
X86261904Y-98764342D02*
X86261904Y-98526247D01*
X86261904Y-98526247D02*
X86214285Y-98431009D01*
X86214285Y-98431009D02*
X86166666Y-98383390D01*
X86166666Y-98383390D02*
X86071428Y-98335771D01*
X86071428Y-98335771D02*
X85880952Y-98335771D01*
X85880952Y-98335771D02*
X85785714Y-98383390D01*
X85785714Y-98383390D02*
X85738095Y-98431009D01*
X85738095Y-98431009D02*
X85690476Y-98526247D01*
X89435714Y-97054819D02*
X88864286Y-97054819D01*
X89150000Y-97054819D02*
X89150000Y-96054819D01*
X89150000Y-96054819D02*
X89054762Y-96197676D01*
X89054762Y-96197676D02*
X88959524Y-96292914D01*
X88959524Y-96292914D02*
X88864286Y-96340533D01*
X24261905Y-48954819D02*
X24261905Y-47954819D01*
X24261905Y-47954819D02*
X24500000Y-47954819D01*
X24500000Y-47954819D02*
X24642857Y-48002438D01*
X24642857Y-48002438D02*
X24738095Y-48097676D01*
X24738095Y-48097676D02*
X24785714Y-48192914D01*
X24785714Y-48192914D02*
X24833333Y-48383390D01*
X24833333Y-48383390D02*
X24833333Y-48526247D01*
X24833333Y-48526247D02*
X24785714Y-48716723D01*
X24785714Y-48716723D02*
X24738095Y-48811961D01*
X24738095Y-48811961D02*
X24642857Y-48907200D01*
X24642857Y-48907200D02*
X24500000Y-48954819D01*
X24500000Y-48954819D02*
X24261905Y-48954819D01*
X25166667Y-47954819D02*
X25785714Y-47954819D01*
X25785714Y-47954819D02*
X25452381Y-48335771D01*
X25452381Y-48335771D02*
X25595238Y-48335771D01*
X25595238Y-48335771D02*
X25690476Y-48383390D01*
X25690476Y-48383390D02*
X25738095Y-48431009D01*
X25738095Y-48431009D02*
X25785714Y-48526247D01*
X25785714Y-48526247D02*
X25785714Y-48764342D01*
X25785714Y-48764342D02*
X25738095Y-48859580D01*
X25738095Y-48859580D02*
X25690476Y-48907200D01*
X25690476Y-48907200D02*
X25595238Y-48954819D01*
X25595238Y-48954819D02*
X25309524Y-48954819D01*
X25309524Y-48954819D02*
X25214286Y-48907200D01*
X25214286Y-48907200D02*
X25166667Y-48859580D01*
X29435714Y-47054819D02*
X28864286Y-47054819D01*
X29150000Y-47054819D02*
X29150000Y-46054819D01*
X29150000Y-46054819D02*
X29054762Y-46197676D01*
X29054762Y-46197676D02*
X28959524Y-46292914D01*
X28959524Y-46292914D02*
X28864286Y-46340533D01*
X83785714Y-58954819D02*
X83785714Y-57954819D01*
X83785714Y-57954819D02*
X84023809Y-57954819D01*
X84023809Y-57954819D02*
X84166666Y-58002438D01*
X84166666Y-58002438D02*
X84261904Y-58097676D01*
X84261904Y-58097676D02*
X84309523Y-58192914D01*
X84309523Y-58192914D02*
X84357142Y-58383390D01*
X84357142Y-58383390D02*
X84357142Y-58526247D01*
X84357142Y-58526247D02*
X84309523Y-58716723D01*
X84309523Y-58716723D02*
X84261904Y-58811961D01*
X84261904Y-58811961D02*
X84166666Y-58907200D01*
X84166666Y-58907200D02*
X84023809Y-58954819D01*
X84023809Y-58954819D02*
X83785714Y-58954819D01*
X85261904Y-57954819D02*
X84785714Y-57954819D01*
X84785714Y-57954819D02*
X84738095Y-58431009D01*
X84738095Y-58431009D02*
X84785714Y-58383390D01*
X84785714Y-58383390D02*
X84880952Y-58335771D01*
X84880952Y-58335771D02*
X85119047Y-58335771D01*
X85119047Y-58335771D02*
X85214285Y-58383390D01*
X85214285Y-58383390D02*
X85261904Y-58431009D01*
X85261904Y-58431009D02*
X85309523Y-58526247D01*
X85309523Y-58526247D02*
X85309523Y-58764342D01*
X85309523Y-58764342D02*
X85261904Y-58859580D01*
X85261904Y-58859580D02*
X85214285Y-58907200D01*
X85214285Y-58907200D02*
X85119047Y-58954819D01*
X85119047Y-58954819D02*
X84880952Y-58954819D01*
X84880952Y-58954819D02*
X84785714Y-58907200D01*
X84785714Y-58907200D02*
X84738095Y-58859580D01*
X85690476Y-58050057D02*
X85738095Y-58002438D01*
X85738095Y-58002438D02*
X85833333Y-57954819D01*
X85833333Y-57954819D02*
X86071428Y-57954819D01*
X86071428Y-57954819D02*
X86166666Y-58002438D01*
X86166666Y-58002438D02*
X86214285Y-58050057D01*
X86214285Y-58050057D02*
X86261904Y-58145295D01*
X86261904Y-58145295D02*
X86261904Y-58240533D01*
X86261904Y-58240533D02*
X86214285Y-58383390D01*
X86214285Y-58383390D02*
X85642857Y-58954819D01*
X85642857Y-58954819D02*
X86261904Y-58954819D01*
X89435714Y-57054819D02*
X88864286Y-57054819D01*
X89150000Y-57054819D02*
X89150000Y-56054819D01*
X89150000Y-56054819D02*
X89054762Y-56197676D01*
X89054762Y-56197676D02*
X88959524Y-56292914D01*
X88959524Y-56292914D02*
X88864286Y-56340533D01*
X63785714Y-58954819D02*
X63785714Y-57954819D01*
X63785714Y-57954819D02*
X64023809Y-57954819D01*
X64023809Y-57954819D02*
X64166666Y-58002438D01*
X64166666Y-58002438D02*
X64261904Y-58097676D01*
X64261904Y-58097676D02*
X64309523Y-58192914D01*
X64309523Y-58192914D02*
X64357142Y-58383390D01*
X64357142Y-58383390D02*
X64357142Y-58526247D01*
X64357142Y-58526247D02*
X64309523Y-58716723D01*
X64309523Y-58716723D02*
X64261904Y-58811961D01*
X64261904Y-58811961D02*
X64166666Y-58907200D01*
X64166666Y-58907200D02*
X64023809Y-58954819D01*
X64023809Y-58954819D02*
X63785714Y-58954819D01*
X64690476Y-57954819D02*
X65309523Y-57954819D01*
X65309523Y-57954819D02*
X64976190Y-58335771D01*
X64976190Y-58335771D02*
X65119047Y-58335771D01*
X65119047Y-58335771D02*
X65214285Y-58383390D01*
X65214285Y-58383390D02*
X65261904Y-58431009D01*
X65261904Y-58431009D02*
X65309523Y-58526247D01*
X65309523Y-58526247D02*
X65309523Y-58764342D01*
X65309523Y-58764342D02*
X65261904Y-58859580D01*
X65261904Y-58859580D02*
X65214285Y-58907200D01*
X65214285Y-58907200D02*
X65119047Y-58954819D01*
X65119047Y-58954819D02*
X64833333Y-58954819D01*
X64833333Y-58954819D02*
X64738095Y-58907200D01*
X64738095Y-58907200D02*
X64690476Y-58859580D01*
X66166666Y-57954819D02*
X65976190Y-57954819D01*
X65976190Y-57954819D02*
X65880952Y-58002438D01*
X65880952Y-58002438D02*
X65833333Y-58050057D01*
X65833333Y-58050057D02*
X65738095Y-58192914D01*
X65738095Y-58192914D02*
X65690476Y-58383390D01*
X65690476Y-58383390D02*
X65690476Y-58764342D01*
X65690476Y-58764342D02*
X65738095Y-58859580D01*
X65738095Y-58859580D02*
X65785714Y-58907200D01*
X65785714Y-58907200D02*
X65880952Y-58954819D01*
X65880952Y-58954819D02*
X66071428Y-58954819D01*
X66071428Y-58954819D02*
X66166666Y-58907200D01*
X66166666Y-58907200D02*
X66214285Y-58859580D01*
X66214285Y-58859580D02*
X66261904Y-58764342D01*
X66261904Y-58764342D02*
X66261904Y-58526247D01*
X66261904Y-58526247D02*
X66214285Y-58431009D01*
X66214285Y-58431009D02*
X66166666Y-58383390D01*
X66166666Y-58383390D02*
X66071428Y-58335771D01*
X66071428Y-58335771D02*
X65880952Y-58335771D01*
X65880952Y-58335771D02*
X65785714Y-58383390D01*
X65785714Y-58383390D02*
X65738095Y-58431009D01*
X65738095Y-58431009D02*
X65690476Y-58526247D01*
X69435714Y-57054819D02*
X68864286Y-57054819D01*
X69150000Y-57054819D02*
X69150000Y-56054819D01*
X69150000Y-56054819D02*
X69054762Y-56197676D01*
X69054762Y-56197676D02*
X68959524Y-56292914D01*
X68959524Y-56292914D02*
X68864286Y-56340533D01*
X33785714Y-78954819D02*
X33785714Y-77954819D01*
X33785714Y-77954819D02*
X34023809Y-77954819D01*
X34023809Y-77954819D02*
X34166666Y-78002438D01*
X34166666Y-78002438D02*
X34261904Y-78097676D01*
X34261904Y-78097676D02*
X34309523Y-78192914D01*
X34309523Y-78192914D02*
X34357142Y-78383390D01*
X34357142Y-78383390D02*
X34357142Y-78526247D01*
X34357142Y-78526247D02*
X34309523Y-78716723D01*
X34309523Y-78716723D02*
X34261904Y-78811961D01*
X34261904Y-78811961D02*
X34166666Y-78907200D01*
X34166666Y-78907200D02*
X34023809Y-78954819D01*
X34023809Y-78954819D02*
X33785714Y-78954819D01*
X35309523Y-78954819D02*
X34738095Y-78954819D01*
X35023809Y-78954819D02*
X35023809Y-77954819D01*
X35023809Y-77954819D02*
X34928571Y-78097676D01*
X34928571Y-78097676D02*
X34833333Y-78192914D01*
X34833333Y-78192914D02*
X34738095Y-78240533D01*
X36261904Y-78954819D02*
X35690476Y-78954819D01*
X35976190Y-78954819D02*
X35976190Y-77954819D01*
X35976190Y-77954819D02*
X35880952Y-78097676D01*
X35880952Y-78097676D02*
X35785714Y-78192914D01*
X35785714Y-78192914D02*
X35690476Y-78240533D01*
X39435714Y-77054819D02*
X38864286Y-77054819D01*
X39150000Y-77054819D02*
X39150000Y-76054819D01*
X39150000Y-76054819D02*
X39054762Y-76197676D01*
X39054762Y-76197676D02*
X38959524Y-76292914D01*
X38959524Y-76292914D02*
X38864286Y-76340533D01*
X53785714Y-78954819D02*
X53785714Y-77954819D01*
X53785714Y-77954819D02*
X54023809Y-77954819D01*
X54023809Y-77954819D02*
X54166666Y-78002438D01*
X54166666Y-78002438D02*
X54261904Y-78097676D01*
X54261904Y-78097676D02*
X54309523Y-78192914D01*
X54309523Y-78192914D02*
X54357142Y-78383390D01*
X54357142Y-78383390D02*
X54357142Y-78526247D01*
X54357142Y-78526247D02*
X54309523Y-78716723D01*
X54309523Y-78716723D02*
X54261904Y-78811961D01*
X54261904Y-78811961D02*
X54166666Y-78907200D01*
X54166666Y-78907200D02*
X54023809Y-78954819D01*
X54023809Y-78954819D02*
X53785714Y-78954819D01*
X54738095Y-78050057D02*
X54785714Y-78002438D01*
X54785714Y-78002438D02*
X54880952Y-77954819D01*
X54880952Y-77954819D02*
X55119047Y-77954819D01*
X55119047Y-77954819D02*
X55214285Y-78002438D01*
X55214285Y-78002438D02*
X55261904Y-78050057D01*
X55261904Y-78050057D02*
X55309523Y-78145295D01*
X55309523Y-78145295D02*
X55309523Y-78240533D01*
X55309523Y-78240533D02*
X55261904Y-78383390D01*
X55261904Y-78383390D02*
X54690476Y-78954819D01*
X54690476Y-78954819D02*
X55309523Y-78954819D01*
X55642857Y-77954819D02*
X56309523Y-77954819D01*
X56309523Y-77954819D02*
X55880952Y-78954819D01*
X59435714Y-77054819D02*
X58864286Y-77054819D01*
X59150000Y-77054819D02*
X59150000Y-76054819D01*
X59150000Y-76054819D02*
X59054762Y-76197676D01*
X59054762Y-76197676D02*
X58959524Y-76292914D01*
X58959524Y-76292914D02*
X58864286Y-76340533D01*
X24261905Y-68954819D02*
X24261905Y-67954819D01*
X24261905Y-67954819D02*
X24500000Y-67954819D01*
X24500000Y-67954819D02*
X24642857Y-68002438D01*
X24642857Y-68002438D02*
X24738095Y-68097676D01*
X24738095Y-68097676D02*
X24785714Y-68192914D01*
X24785714Y-68192914D02*
X24833333Y-68383390D01*
X24833333Y-68383390D02*
X24833333Y-68526247D01*
X24833333Y-68526247D02*
X24785714Y-68716723D01*
X24785714Y-68716723D02*
X24738095Y-68811961D01*
X24738095Y-68811961D02*
X24642857Y-68907200D01*
X24642857Y-68907200D02*
X24500000Y-68954819D01*
X24500000Y-68954819D02*
X24261905Y-68954819D01*
X25738095Y-67954819D02*
X25261905Y-67954819D01*
X25261905Y-67954819D02*
X25214286Y-68431009D01*
X25214286Y-68431009D02*
X25261905Y-68383390D01*
X25261905Y-68383390D02*
X25357143Y-68335771D01*
X25357143Y-68335771D02*
X25595238Y-68335771D01*
X25595238Y-68335771D02*
X25690476Y-68383390D01*
X25690476Y-68383390D02*
X25738095Y-68431009D01*
X25738095Y-68431009D02*
X25785714Y-68526247D01*
X25785714Y-68526247D02*
X25785714Y-68764342D01*
X25785714Y-68764342D02*
X25738095Y-68859580D01*
X25738095Y-68859580D02*
X25690476Y-68907200D01*
X25690476Y-68907200D02*
X25595238Y-68954819D01*
X25595238Y-68954819D02*
X25357143Y-68954819D01*
X25357143Y-68954819D02*
X25261905Y-68907200D01*
X25261905Y-68907200D02*
X25214286Y-68859580D01*
X29435714Y-67054819D02*
X28864286Y-67054819D01*
X29150000Y-67054819D02*
X29150000Y-66054819D01*
X29150000Y-66054819D02*
X29054762Y-66197676D01*
X29054762Y-66197676D02*
X28959524Y-66292914D01*
X28959524Y-66292914D02*
X28864286Y-66340533D01*
X53785714Y-28954819D02*
X53785714Y-27954819D01*
X53785714Y-27954819D02*
X54023809Y-27954819D01*
X54023809Y-27954819D02*
X54166666Y-28002438D01*
X54166666Y-28002438D02*
X54261904Y-28097676D01*
X54261904Y-28097676D02*
X54309523Y-28192914D01*
X54309523Y-28192914D02*
X54357142Y-28383390D01*
X54357142Y-28383390D02*
X54357142Y-28526247D01*
X54357142Y-28526247D02*
X54309523Y-28716723D01*
X54309523Y-28716723D02*
X54261904Y-28811961D01*
X54261904Y-28811961D02*
X54166666Y-28907200D01*
X54166666Y-28907200D02*
X54023809Y-28954819D01*
X54023809Y-28954819D02*
X53785714Y-28954819D01*
X54690476Y-27954819D02*
X55309523Y-27954819D01*
X55309523Y-27954819D02*
X54976190Y-28335771D01*
X54976190Y-28335771D02*
X55119047Y-28335771D01*
X55119047Y-28335771D02*
X55214285Y-28383390D01*
X55214285Y-28383390D02*
X55261904Y-28431009D01*
X55261904Y-28431009D02*
X55309523Y-28526247D01*
X55309523Y-28526247D02*
X55309523Y-28764342D01*
X55309523Y-28764342D02*
X55261904Y-28859580D01*
X55261904Y-28859580D02*
X55214285Y-28907200D01*
X55214285Y-28907200D02*
X55119047Y-28954819D01*
X55119047Y-28954819D02*
X54833333Y-28954819D01*
X54833333Y-28954819D02*
X54738095Y-28907200D01*
X54738095Y-28907200D02*
X54690476Y-28859580D01*
X55690476Y-28050057D02*
X55738095Y-28002438D01*
X55738095Y-28002438D02*
X55833333Y-27954819D01*
X55833333Y-27954819D02*
X56071428Y-27954819D01*
X56071428Y-27954819D02*
X56166666Y-28002438D01*
X56166666Y-28002438D02*
X56214285Y-28050057D01*
X56214285Y-28050057D02*
X56261904Y-28145295D01*
X56261904Y-28145295D02*
X56261904Y-28240533D01*
X56261904Y-28240533D02*
X56214285Y-28383390D01*
X56214285Y-28383390D02*
X55642857Y-28954819D01*
X55642857Y-28954819D02*
X56261904Y-28954819D01*
X59435714Y-27054819D02*
X58864286Y-27054819D01*
X59150000Y-27054819D02*
X59150000Y-26054819D01*
X59150000Y-26054819D02*
X59054762Y-26197676D01*
X59054762Y-26197676D02*
X58959524Y-26292914D01*
X58959524Y-26292914D02*
X58864286Y-26340533D01*
X93785714Y-28954819D02*
X93785714Y-27954819D01*
X93785714Y-27954819D02*
X94023809Y-27954819D01*
X94023809Y-27954819D02*
X94166666Y-28002438D01*
X94166666Y-28002438D02*
X94261904Y-28097676D01*
X94261904Y-28097676D02*
X94309523Y-28192914D01*
X94309523Y-28192914D02*
X94357142Y-28383390D01*
X94357142Y-28383390D02*
X94357142Y-28526247D01*
X94357142Y-28526247D02*
X94309523Y-28716723D01*
X94309523Y-28716723D02*
X94261904Y-28811961D01*
X94261904Y-28811961D02*
X94166666Y-28907200D01*
X94166666Y-28907200D02*
X94023809Y-28954819D01*
X94023809Y-28954819D02*
X93785714Y-28954819D01*
X95214285Y-27954819D02*
X95023809Y-27954819D01*
X95023809Y-27954819D02*
X94928571Y-28002438D01*
X94928571Y-28002438D02*
X94880952Y-28050057D01*
X94880952Y-28050057D02*
X94785714Y-28192914D01*
X94785714Y-28192914D02*
X94738095Y-28383390D01*
X94738095Y-28383390D02*
X94738095Y-28764342D01*
X94738095Y-28764342D02*
X94785714Y-28859580D01*
X94785714Y-28859580D02*
X94833333Y-28907200D01*
X94833333Y-28907200D02*
X94928571Y-28954819D01*
X94928571Y-28954819D02*
X95119047Y-28954819D01*
X95119047Y-28954819D02*
X95214285Y-28907200D01*
X95214285Y-28907200D02*
X95261904Y-28859580D01*
X95261904Y-28859580D02*
X95309523Y-28764342D01*
X95309523Y-28764342D02*
X95309523Y-28526247D01*
X95309523Y-28526247D02*
X95261904Y-28431009D01*
X95261904Y-28431009D02*
X95214285Y-28383390D01*
X95214285Y-28383390D02*
X95119047Y-28335771D01*
X95119047Y-28335771D02*
X94928571Y-28335771D01*
X94928571Y-28335771D02*
X94833333Y-28383390D01*
X94833333Y-28383390D02*
X94785714Y-28431009D01*
X94785714Y-28431009D02*
X94738095Y-28526247D01*
X96166666Y-28288152D02*
X96166666Y-28954819D01*
X95928571Y-27907200D02*
X95690476Y-28621485D01*
X95690476Y-28621485D02*
X96309523Y-28621485D01*
X99435714Y-27054819D02*
X98864286Y-27054819D01*
X99150000Y-27054819D02*
X99150000Y-26054819D01*
X99150000Y-26054819D02*
X99054762Y-26197676D01*
X99054762Y-26197676D02*
X98959524Y-26292914D01*
X98959524Y-26292914D02*
X98864286Y-26340533D01*
D10*
X109809523Y-31957419D02*
X109333333Y-31957419D01*
X109333333Y-31957419D02*
X109285714Y-32433609D01*
X109285714Y-32433609D02*
X109333333Y-32385990D01*
X109333333Y-32385990D02*
X109428571Y-32338371D01*
X109428571Y-32338371D02*
X109666666Y-32338371D01*
X109666666Y-32338371D02*
X109761904Y-32385990D01*
X109761904Y-32385990D02*
X109809523Y-32433609D01*
X109809523Y-32433609D02*
X109857142Y-32528847D01*
X109857142Y-32528847D02*
X109857142Y-32766942D01*
X109857142Y-32766942D02*
X109809523Y-32862180D01*
X109809523Y-32862180D02*
X109761904Y-32909800D01*
X109761904Y-32909800D02*
X109666666Y-32957419D01*
X109666666Y-32957419D02*
X109428571Y-32957419D01*
X109428571Y-32957419D02*
X109333333Y-32909800D01*
X109333333Y-32909800D02*
X109285714Y-32862180D01*
X110142857Y-31957419D02*
X110476190Y-32957419D01*
X110476190Y-32957419D02*
X110809523Y-31957419D01*
D11*
X73785714Y-58954819D02*
X73785714Y-57954819D01*
X73785714Y-57954819D02*
X74023809Y-57954819D01*
X74023809Y-57954819D02*
X74166666Y-58002438D01*
X74166666Y-58002438D02*
X74261904Y-58097676D01*
X74261904Y-58097676D02*
X74309523Y-58192914D01*
X74309523Y-58192914D02*
X74357142Y-58383390D01*
X74357142Y-58383390D02*
X74357142Y-58526247D01*
X74357142Y-58526247D02*
X74309523Y-58716723D01*
X74309523Y-58716723D02*
X74261904Y-58811961D01*
X74261904Y-58811961D02*
X74166666Y-58907200D01*
X74166666Y-58907200D02*
X74023809Y-58954819D01*
X74023809Y-58954819D02*
X73785714Y-58954819D01*
X75214285Y-58288152D02*
X75214285Y-58954819D01*
X74976190Y-57907200D02*
X74738095Y-58621485D01*
X74738095Y-58621485D02*
X75357142Y-58621485D01*
X76214285Y-57954819D02*
X75738095Y-57954819D01*
X75738095Y-57954819D02*
X75690476Y-58431009D01*
X75690476Y-58431009D02*
X75738095Y-58383390D01*
X75738095Y-58383390D02*
X75833333Y-58335771D01*
X75833333Y-58335771D02*
X76071428Y-58335771D01*
X76071428Y-58335771D02*
X76166666Y-58383390D01*
X76166666Y-58383390D02*
X76214285Y-58431009D01*
X76214285Y-58431009D02*
X76261904Y-58526247D01*
X76261904Y-58526247D02*
X76261904Y-58764342D01*
X76261904Y-58764342D02*
X76214285Y-58859580D01*
X76214285Y-58859580D02*
X76166666Y-58907200D01*
X76166666Y-58907200D02*
X76071428Y-58954819D01*
X76071428Y-58954819D02*
X75833333Y-58954819D01*
X75833333Y-58954819D02*
X75738095Y-58907200D01*
X75738095Y-58907200D02*
X75690476Y-58859580D01*
X79435714Y-57054819D02*
X78864286Y-57054819D01*
X79150000Y-57054819D02*
X79150000Y-56054819D01*
X79150000Y-56054819D02*
X79054762Y-56197676D01*
X79054762Y-56197676D02*
X78959524Y-56292914D01*
X78959524Y-56292914D02*
X78864286Y-56340533D01*
X43785714Y-38954819D02*
X43785714Y-37954819D01*
X43785714Y-37954819D02*
X44023809Y-37954819D01*
X44023809Y-37954819D02*
X44166666Y-38002438D01*
X44166666Y-38002438D02*
X44261904Y-38097676D01*
X44261904Y-38097676D02*
X44309523Y-38192914D01*
X44309523Y-38192914D02*
X44357142Y-38383390D01*
X44357142Y-38383390D02*
X44357142Y-38526247D01*
X44357142Y-38526247D02*
X44309523Y-38716723D01*
X44309523Y-38716723D02*
X44261904Y-38811961D01*
X44261904Y-38811961D02*
X44166666Y-38907200D01*
X44166666Y-38907200D02*
X44023809Y-38954819D01*
X44023809Y-38954819D02*
X43785714Y-38954819D01*
X45309523Y-38954819D02*
X44738095Y-38954819D01*
X45023809Y-38954819D02*
X45023809Y-37954819D01*
X45023809Y-37954819D02*
X44928571Y-38097676D01*
X44928571Y-38097676D02*
X44833333Y-38192914D01*
X44833333Y-38192914D02*
X44738095Y-38240533D01*
X45880952Y-38383390D02*
X45785714Y-38335771D01*
X45785714Y-38335771D02*
X45738095Y-38288152D01*
X45738095Y-38288152D02*
X45690476Y-38192914D01*
X45690476Y-38192914D02*
X45690476Y-38145295D01*
X45690476Y-38145295D02*
X45738095Y-38050057D01*
X45738095Y-38050057D02*
X45785714Y-38002438D01*
X45785714Y-38002438D02*
X45880952Y-37954819D01*
X45880952Y-37954819D02*
X46071428Y-37954819D01*
X46071428Y-37954819D02*
X46166666Y-38002438D01*
X46166666Y-38002438D02*
X46214285Y-38050057D01*
X46214285Y-38050057D02*
X46261904Y-38145295D01*
X46261904Y-38145295D02*
X46261904Y-38192914D01*
X46261904Y-38192914D02*
X46214285Y-38288152D01*
X46214285Y-38288152D02*
X46166666Y-38335771D01*
X46166666Y-38335771D02*
X46071428Y-38383390D01*
X46071428Y-38383390D02*
X45880952Y-38383390D01*
X45880952Y-38383390D02*
X45785714Y-38431009D01*
X45785714Y-38431009D02*
X45738095Y-38478628D01*
X45738095Y-38478628D02*
X45690476Y-38573866D01*
X45690476Y-38573866D02*
X45690476Y-38764342D01*
X45690476Y-38764342D02*
X45738095Y-38859580D01*
X45738095Y-38859580D02*
X45785714Y-38907200D01*
X45785714Y-38907200D02*
X45880952Y-38954819D01*
X45880952Y-38954819D02*
X46071428Y-38954819D01*
X46071428Y-38954819D02*
X46166666Y-38907200D01*
X46166666Y-38907200D02*
X46214285Y-38859580D01*
X46214285Y-38859580D02*
X46261904Y-38764342D01*
X46261904Y-38764342D02*
X46261904Y-38573866D01*
X46261904Y-38573866D02*
X46214285Y-38478628D01*
X46214285Y-38478628D02*
X46166666Y-38431009D01*
X46166666Y-38431009D02*
X46071428Y-38383390D01*
X49435714Y-37054819D02*
X48864286Y-37054819D01*
X49150000Y-37054819D02*
X49150000Y-36054819D01*
X49150000Y-36054819D02*
X49054762Y-36197676D01*
X49054762Y-36197676D02*
X48959524Y-36292914D01*
X48959524Y-36292914D02*
X48864286Y-36340533D01*
X93785714Y-48954819D02*
X93785714Y-47954819D01*
X93785714Y-47954819D02*
X94023809Y-47954819D01*
X94023809Y-47954819D02*
X94166666Y-48002438D01*
X94166666Y-48002438D02*
X94261904Y-48097676D01*
X94261904Y-48097676D02*
X94309523Y-48192914D01*
X94309523Y-48192914D02*
X94357142Y-48383390D01*
X94357142Y-48383390D02*
X94357142Y-48526247D01*
X94357142Y-48526247D02*
X94309523Y-48716723D01*
X94309523Y-48716723D02*
X94261904Y-48811961D01*
X94261904Y-48811961D02*
X94166666Y-48907200D01*
X94166666Y-48907200D02*
X94023809Y-48954819D01*
X94023809Y-48954819D02*
X93785714Y-48954819D01*
X95214285Y-47954819D02*
X95023809Y-47954819D01*
X95023809Y-47954819D02*
X94928571Y-48002438D01*
X94928571Y-48002438D02*
X94880952Y-48050057D01*
X94880952Y-48050057D02*
X94785714Y-48192914D01*
X94785714Y-48192914D02*
X94738095Y-48383390D01*
X94738095Y-48383390D02*
X94738095Y-48764342D01*
X94738095Y-48764342D02*
X94785714Y-48859580D01*
X94785714Y-48859580D02*
X94833333Y-48907200D01*
X94833333Y-48907200D02*
X94928571Y-48954819D01*
X94928571Y-48954819D02*
X95119047Y-48954819D01*
X95119047Y-48954819D02*
X95214285Y-48907200D01*
X95214285Y-48907200D02*
X95261904Y-48859580D01*
X95261904Y-48859580D02*
X95309523Y-48764342D01*
X95309523Y-48764342D02*
X95309523Y-48526247D01*
X95309523Y-48526247D02*
X95261904Y-48431009D01*
X95261904Y-48431009D02*
X95214285Y-48383390D01*
X95214285Y-48383390D02*
X95119047Y-48335771D01*
X95119047Y-48335771D02*
X94928571Y-48335771D01*
X94928571Y-48335771D02*
X94833333Y-48383390D01*
X94833333Y-48383390D02*
X94785714Y-48431009D01*
X94785714Y-48431009D02*
X94738095Y-48526247D01*
X95690476Y-48050057D02*
X95738095Y-48002438D01*
X95738095Y-48002438D02*
X95833333Y-47954819D01*
X95833333Y-47954819D02*
X96071428Y-47954819D01*
X96071428Y-47954819D02*
X96166666Y-48002438D01*
X96166666Y-48002438D02*
X96214285Y-48050057D01*
X96214285Y-48050057D02*
X96261904Y-48145295D01*
X96261904Y-48145295D02*
X96261904Y-48240533D01*
X96261904Y-48240533D02*
X96214285Y-48383390D01*
X96214285Y-48383390D02*
X95642857Y-48954819D01*
X95642857Y-48954819D02*
X96261904Y-48954819D01*
X99435714Y-47054819D02*
X98864286Y-47054819D01*
X99150000Y-47054819D02*
X99150000Y-46054819D01*
X99150000Y-46054819D02*
X99054762Y-46197676D01*
X99054762Y-46197676D02*
X98959524Y-46292914D01*
X98959524Y-46292914D02*
X98864286Y-46340533D01*
X33785714Y-58954819D02*
X33785714Y-57954819D01*
X33785714Y-57954819D02*
X34023809Y-57954819D01*
X34023809Y-57954819D02*
X34166666Y-58002438D01*
X34166666Y-58002438D02*
X34261904Y-58097676D01*
X34261904Y-58097676D02*
X34309523Y-58192914D01*
X34309523Y-58192914D02*
X34357142Y-58383390D01*
X34357142Y-58383390D02*
X34357142Y-58526247D01*
X34357142Y-58526247D02*
X34309523Y-58716723D01*
X34309523Y-58716723D02*
X34261904Y-58811961D01*
X34261904Y-58811961D02*
X34166666Y-58907200D01*
X34166666Y-58907200D02*
X34023809Y-58954819D01*
X34023809Y-58954819D02*
X33785714Y-58954819D01*
X35309523Y-58954819D02*
X34738095Y-58954819D01*
X35023809Y-58954819D02*
X35023809Y-57954819D01*
X35023809Y-57954819D02*
X34928571Y-58097676D01*
X34928571Y-58097676D02*
X34833333Y-58192914D01*
X34833333Y-58192914D02*
X34738095Y-58240533D01*
X35642857Y-57954819D02*
X36261904Y-57954819D01*
X36261904Y-57954819D02*
X35928571Y-58335771D01*
X35928571Y-58335771D02*
X36071428Y-58335771D01*
X36071428Y-58335771D02*
X36166666Y-58383390D01*
X36166666Y-58383390D02*
X36214285Y-58431009D01*
X36214285Y-58431009D02*
X36261904Y-58526247D01*
X36261904Y-58526247D02*
X36261904Y-58764342D01*
X36261904Y-58764342D02*
X36214285Y-58859580D01*
X36214285Y-58859580D02*
X36166666Y-58907200D01*
X36166666Y-58907200D02*
X36071428Y-58954819D01*
X36071428Y-58954819D02*
X35785714Y-58954819D01*
X35785714Y-58954819D02*
X35690476Y-58907200D01*
X35690476Y-58907200D02*
X35642857Y-58859580D01*
X39435714Y-57054819D02*
X38864286Y-57054819D01*
X39150000Y-57054819D02*
X39150000Y-56054819D01*
X39150000Y-56054819D02*
X39054762Y-56197676D01*
X39054762Y-56197676D02*
X38959524Y-56292914D01*
X38959524Y-56292914D02*
X38864286Y-56340533D01*
X63785714Y-68954819D02*
X63785714Y-67954819D01*
X63785714Y-67954819D02*
X64023809Y-67954819D01*
X64023809Y-67954819D02*
X64166666Y-68002438D01*
X64166666Y-68002438D02*
X64261904Y-68097676D01*
X64261904Y-68097676D02*
X64309523Y-68192914D01*
X64309523Y-68192914D02*
X64357142Y-68383390D01*
X64357142Y-68383390D02*
X64357142Y-68526247D01*
X64357142Y-68526247D02*
X64309523Y-68716723D01*
X64309523Y-68716723D02*
X64261904Y-68811961D01*
X64261904Y-68811961D02*
X64166666Y-68907200D01*
X64166666Y-68907200D02*
X64023809Y-68954819D01*
X64023809Y-68954819D02*
X63785714Y-68954819D01*
X64690476Y-67954819D02*
X65309523Y-67954819D01*
X65309523Y-67954819D02*
X64976190Y-68335771D01*
X64976190Y-68335771D02*
X65119047Y-68335771D01*
X65119047Y-68335771D02*
X65214285Y-68383390D01*
X65214285Y-68383390D02*
X65261904Y-68431009D01*
X65261904Y-68431009D02*
X65309523Y-68526247D01*
X65309523Y-68526247D02*
X65309523Y-68764342D01*
X65309523Y-68764342D02*
X65261904Y-68859580D01*
X65261904Y-68859580D02*
X65214285Y-68907200D01*
X65214285Y-68907200D02*
X65119047Y-68954819D01*
X65119047Y-68954819D02*
X64833333Y-68954819D01*
X64833333Y-68954819D02*
X64738095Y-68907200D01*
X64738095Y-68907200D02*
X64690476Y-68859580D01*
X65642857Y-67954819D02*
X66309523Y-67954819D01*
X66309523Y-67954819D02*
X65880952Y-68954819D01*
X69435714Y-67054819D02*
X68864286Y-67054819D01*
X69150000Y-67054819D02*
X69150000Y-66054819D01*
X69150000Y-66054819D02*
X69054762Y-66197676D01*
X69054762Y-66197676D02*
X68959524Y-66292914D01*
X68959524Y-66292914D02*
X68864286Y-66340533D01*
X43785714Y-78954819D02*
X43785714Y-77954819D01*
X43785714Y-77954819D02*
X44023809Y-77954819D01*
X44023809Y-77954819D02*
X44166666Y-78002438D01*
X44166666Y-78002438D02*
X44261904Y-78097676D01*
X44261904Y-78097676D02*
X44309523Y-78192914D01*
X44309523Y-78192914D02*
X44357142Y-78383390D01*
X44357142Y-78383390D02*
X44357142Y-78526247D01*
X44357142Y-78526247D02*
X44309523Y-78716723D01*
X44309523Y-78716723D02*
X44261904Y-78811961D01*
X44261904Y-78811961D02*
X44166666Y-78907200D01*
X44166666Y-78907200D02*
X44023809Y-78954819D01*
X44023809Y-78954819D02*
X43785714Y-78954819D01*
X44738095Y-78050057D02*
X44785714Y-78002438D01*
X44785714Y-78002438D02*
X44880952Y-77954819D01*
X44880952Y-77954819D02*
X45119047Y-77954819D01*
X45119047Y-77954819D02*
X45214285Y-78002438D01*
X45214285Y-78002438D02*
X45261904Y-78050057D01*
X45261904Y-78050057D02*
X45309523Y-78145295D01*
X45309523Y-78145295D02*
X45309523Y-78240533D01*
X45309523Y-78240533D02*
X45261904Y-78383390D01*
X45261904Y-78383390D02*
X44690476Y-78954819D01*
X44690476Y-78954819D02*
X45309523Y-78954819D01*
X45690476Y-78050057D02*
X45738095Y-78002438D01*
X45738095Y-78002438D02*
X45833333Y-77954819D01*
X45833333Y-77954819D02*
X46071428Y-77954819D01*
X46071428Y-77954819D02*
X46166666Y-78002438D01*
X46166666Y-78002438D02*
X46214285Y-78050057D01*
X46214285Y-78050057D02*
X46261904Y-78145295D01*
X46261904Y-78145295D02*
X46261904Y-78240533D01*
X46261904Y-78240533D02*
X46214285Y-78383390D01*
X46214285Y-78383390D02*
X45642857Y-78954819D01*
X45642857Y-78954819D02*
X46261904Y-78954819D01*
X49435714Y-77054819D02*
X48864286Y-77054819D01*
X49150000Y-77054819D02*
X49150000Y-76054819D01*
X49150000Y-76054819D02*
X49054762Y-76197676D01*
X49054762Y-76197676D02*
X48959524Y-76292914D01*
X48959524Y-76292914D02*
X48864286Y-76340533D01*
D10*
X108547569Y-25457419D02*
X108547569Y-24457419D01*
X108547569Y-24457419D02*
X108785664Y-24457419D01*
X108785664Y-24457419D02*
X108928521Y-24505038D01*
X108928521Y-24505038D02*
X109023759Y-24600276D01*
X109023759Y-24600276D02*
X109071378Y-24695514D01*
X109071378Y-24695514D02*
X109118997Y-24885990D01*
X109118997Y-24885990D02*
X109118997Y-25028847D01*
X109118997Y-25028847D02*
X109071378Y-25219323D01*
X109071378Y-25219323D02*
X109023759Y-25314561D01*
X109023759Y-25314561D02*
X108928521Y-25409800D01*
X108928521Y-25409800D02*
X108785664Y-25457419D01*
X108785664Y-25457419D02*
X108547569Y-25457419D01*
X109690426Y-25457419D02*
X109595188Y-25409800D01*
X109595188Y-25409800D02*
X109547569Y-25362180D01*
X109547569Y-25362180D02*
X109499950Y-25266942D01*
X109499950Y-25266942D02*
X109499950Y-24981228D01*
X109499950Y-24981228D02*
X109547569Y-24885990D01*
X109547569Y-24885990D02*
X109595188Y-24838371D01*
X109595188Y-24838371D02*
X109690426Y-24790752D01*
X109690426Y-24790752D02*
X109833283Y-24790752D01*
X109833283Y-24790752D02*
X109928521Y-24838371D01*
X109928521Y-24838371D02*
X109976140Y-24885990D01*
X109976140Y-24885990D02*
X110023759Y-24981228D01*
X110023759Y-24981228D02*
X110023759Y-25266942D01*
X110023759Y-25266942D02*
X109976140Y-25362180D01*
X109976140Y-25362180D02*
X109928521Y-25409800D01*
X109928521Y-25409800D02*
X109833283Y-25457419D01*
X109833283Y-25457419D02*
X109690426Y-25457419D01*
X110880902Y-24790752D02*
X110880902Y-25457419D01*
X110452331Y-24790752D02*
X110452331Y-25314561D01*
X110452331Y-25314561D02*
X110499950Y-25409800D01*
X110499950Y-25409800D02*
X110595188Y-25457419D01*
X110595188Y-25457419D02*
X110738045Y-25457419D01*
X110738045Y-25457419D02*
X110833283Y-25409800D01*
X110833283Y-25409800D02*
X110880902Y-25362180D01*
X111214236Y-24790752D02*
X111595188Y-24790752D01*
X111357093Y-24457419D02*
X111357093Y-25314561D01*
X111357093Y-25314561D02*
X111404712Y-25409800D01*
X111404712Y-25409800D02*
X111499950Y-25457419D01*
X111499950Y-25457419D02*
X111595188Y-25457419D01*
D11*
X73785714Y-78954819D02*
X73785714Y-77954819D01*
X73785714Y-77954819D02*
X74023809Y-77954819D01*
X74023809Y-77954819D02*
X74166666Y-78002438D01*
X74166666Y-78002438D02*
X74261904Y-78097676D01*
X74261904Y-78097676D02*
X74309523Y-78192914D01*
X74309523Y-78192914D02*
X74357142Y-78383390D01*
X74357142Y-78383390D02*
X74357142Y-78526247D01*
X74357142Y-78526247D02*
X74309523Y-78716723D01*
X74309523Y-78716723D02*
X74261904Y-78811961D01*
X74261904Y-78811961D02*
X74166666Y-78907200D01*
X74166666Y-78907200D02*
X74023809Y-78954819D01*
X74023809Y-78954819D02*
X73785714Y-78954819D01*
X75214285Y-78288152D02*
X75214285Y-78954819D01*
X74976190Y-77907200D02*
X74738095Y-78621485D01*
X74738095Y-78621485D02*
X75357142Y-78621485D01*
X75642857Y-77954819D02*
X76261904Y-77954819D01*
X76261904Y-77954819D02*
X75928571Y-78335771D01*
X75928571Y-78335771D02*
X76071428Y-78335771D01*
X76071428Y-78335771D02*
X76166666Y-78383390D01*
X76166666Y-78383390D02*
X76214285Y-78431009D01*
X76214285Y-78431009D02*
X76261904Y-78526247D01*
X76261904Y-78526247D02*
X76261904Y-78764342D01*
X76261904Y-78764342D02*
X76214285Y-78859580D01*
X76214285Y-78859580D02*
X76166666Y-78907200D01*
X76166666Y-78907200D02*
X76071428Y-78954819D01*
X76071428Y-78954819D02*
X75785714Y-78954819D01*
X75785714Y-78954819D02*
X75690476Y-78907200D01*
X75690476Y-78907200D02*
X75642857Y-78859580D01*
X79435714Y-77054819D02*
X78864286Y-77054819D01*
X79150000Y-77054819D02*
X79150000Y-76054819D01*
X79150000Y-76054819D02*
X79054762Y-76197676D01*
X79054762Y-76197676D02*
X78959524Y-76292914D01*
X78959524Y-76292914D02*
X78864286Y-76340533D01*
X53785714Y-68954819D02*
X53785714Y-67954819D01*
X53785714Y-67954819D02*
X54023809Y-67954819D01*
X54023809Y-67954819D02*
X54166666Y-68002438D01*
X54166666Y-68002438D02*
X54261904Y-68097676D01*
X54261904Y-68097676D02*
X54309523Y-68192914D01*
X54309523Y-68192914D02*
X54357142Y-68383390D01*
X54357142Y-68383390D02*
X54357142Y-68526247D01*
X54357142Y-68526247D02*
X54309523Y-68716723D01*
X54309523Y-68716723D02*
X54261904Y-68811961D01*
X54261904Y-68811961D02*
X54166666Y-68907200D01*
X54166666Y-68907200D02*
X54023809Y-68954819D01*
X54023809Y-68954819D02*
X53785714Y-68954819D01*
X54738095Y-68050057D02*
X54785714Y-68002438D01*
X54785714Y-68002438D02*
X54880952Y-67954819D01*
X54880952Y-67954819D02*
X55119047Y-67954819D01*
X55119047Y-67954819D02*
X55214285Y-68002438D01*
X55214285Y-68002438D02*
X55261904Y-68050057D01*
X55261904Y-68050057D02*
X55309523Y-68145295D01*
X55309523Y-68145295D02*
X55309523Y-68240533D01*
X55309523Y-68240533D02*
X55261904Y-68383390D01*
X55261904Y-68383390D02*
X54690476Y-68954819D01*
X54690476Y-68954819D02*
X55309523Y-68954819D01*
X55880952Y-68383390D02*
X55785714Y-68335771D01*
X55785714Y-68335771D02*
X55738095Y-68288152D01*
X55738095Y-68288152D02*
X55690476Y-68192914D01*
X55690476Y-68192914D02*
X55690476Y-68145295D01*
X55690476Y-68145295D02*
X55738095Y-68050057D01*
X55738095Y-68050057D02*
X55785714Y-68002438D01*
X55785714Y-68002438D02*
X55880952Y-67954819D01*
X55880952Y-67954819D02*
X56071428Y-67954819D01*
X56071428Y-67954819D02*
X56166666Y-68002438D01*
X56166666Y-68002438D02*
X56214285Y-68050057D01*
X56214285Y-68050057D02*
X56261904Y-68145295D01*
X56261904Y-68145295D02*
X56261904Y-68192914D01*
X56261904Y-68192914D02*
X56214285Y-68288152D01*
X56214285Y-68288152D02*
X56166666Y-68335771D01*
X56166666Y-68335771D02*
X56071428Y-68383390D01*
X56071428Y-68383390D02*
X55880952Y-68383390D01*
X55880952Y-68383390D02*
X55785714Y-68431009D01*
X55785714Y-68431009D02*
X55738095Y-68478628D01*
X55738095Y-68478628D02*
X55690476Y-68573866D01*
X55690476Y-68573866D02*
X55690476Y-68764342D01*
X55690476Y-68764342D02*
X55738095Y-68859580D01*
X55738095Y-68859580D02*
X55785714Y-68907200D01*
X55785714Y-68907200D02*
X55880952Y-68954819D01*
X55880952Y-68954819D02*
X56071428Y-68954819D01*
X56071428Y-68954819D02*
X56166666Y-68907200D01*
X56166666Y-68907200D02*
X56214285Y-68859580D01*
X56214285Y-68859580D02*
X56261904Y-68764342D01*
X56261904Y-68764342D02*
X56261904Y-68573866D01*
X56261904Y-68573866D02*
X56214285Y-68478628D01*
X56214285Y-68478628D02*
X56166666Y-68431009D01*
X56166666Y-68431009D02*
X56071428Y-68383390D01*
X59435714Y-67054819D02*
X58864286Y-67054819D01*
X59150000Y-67054819D02*
X59150000Y-66054819D01*
X59150000Y-66054819D02*
X59054762Y-66197676D01*
X59054762Y-66197676D02*
X58959524Y-66292914D01*
X58959524Y-66292914D02*
X58864286Y-66340533D01*
X53785714Y-58954819D02*
X53785714Y-57954819D01*
X53785714Y-57954819D02*
X54023809Y-57954819D01*
X54023809Y-57954819D02*
X54166666Y-58002438D01*
X54166666Y-58002438D02*
X54261904Y-58097676D01*
X54261904Y-58097676D02*
X54309523Y-58192914D01*
X54309523Y-58192914D02*
X54357142Y-58383390D01*
X54357142Y-58383390D02*
X54357142Y-58526247D01*
X54357142Y-58526247D02*
X54309523Y-58716723D01*
X54309523Y-58716723D02*
X54261904Y-58811961D01*
X54261904Y-58811961D02*
X54166666Y-58907200D01*
X54166666Y-58907200D02*
X54023809Y-58954819D01*
X54023809Y-58954819D02*
X53785714Y-58954819D01*
X54738095Y-58050057D02*
X54785714Y-58002438D01*
X54785714Y-58002438D02*
X54880952Y-57954819D01*
X54880952Y-57954819D02*
X55119047Y-57954819D01*
X55119047Y-57954819D02*
X55214285Y-58002438D01*
X55214285Y-58002438D02*
X55261904Y-58050057D01*
X55261904Y-58050057D02*
X55309523Y-58145295D01*
X55309523Y-58145295D02*
X55309523Y-58240533D01*
X55309523Y-58240533D02*
X55261904Y-58383390D01*
X55261904Y-58383390D02*
X54690476Y-58954819D01*
X54690476Y-58954819D02*
X55309523Y-58954819D01*
X55785714Y-58954819D02*
X55976190Y-58954819D01*
X55976190Y-58954819D02*
X56071428Y-58907200D01*
X56071428Y-58907200D02*
X56119047Y-58859580D01*
X56119047Y-58859580D02*
X56214285Y-58716723D01*
X56214285Y-58716723D02*
X56261904Y-58526247D01*
X56261904Y-58526247D02*
X56261904Y-58145295D01*
X56261904Y-58145295D02*
X56214285Y-58050057D01*
X56214285Y-58050057D02*
X56166666Y-58002438D01*
X56166666Y-58002438D02*
X56071428Y-57954819D01*
X56071428Y-57954819D02*
X55880952Y-57954819D01*
X55880952Y-57954819D02*
X55785714Y-58002438D01*
X55785714Y-58002438D02*
X55738095Y-58050057D01*
X55738095Y-58050057D02*
X55690476Y-58145295D01*
X55690476Y-58145295D02*
X55690476Y-58383390D01*
X55690476Y-58383390D02*
X55738095Y-58478628D01*
X55738095Y-58478628D02*
X55785714Y-58526247D01*
X55785714Y-58526247D02*
X55880952Y-58573866D01*
X55880952Y-58573866D02*
X56071428Y-58573866D01*
X56071428Y-58573866D02*
X56166666Y-58526247D01*
X56166666Y-58526247D02*
X56214285Y-58478628D01*
X56214285Y-58478628D02*
X56261904Y-58383390D01*
X59435714Y-57054819D02*
X58864286Y-57054819D01*
X59150000Y-57054819D02*
X59150000Y-56054819D01*
X59150000Y-56054819D02*
X59054762Y-56197676D01*
X59054762Y-56197676D02*
X58959524Y-56292914D01*
X58959524Y-56292914D02*
X58864286Y-56340533D01*
X83785714Y-78954819D02*
X83785714Y-77954819D01*
X83785714Y-77954819D02*
X84023809Y-77954819D01*
X84023809Y-77954819D02*
X84166666Y-78002438D01*
X84166666Y-78002438D02*
X84261904Y-78097676D01*
X84261904Y-78097676D02*
X84309523Y-78192914D01*
X84309523Y-78192914D02*
X84357142Y-78383390D01*
X84357142Y-78383390D02*
X84357142Y-78526247D01*
X84357142Y-78526247D02*
X84309523Y-78716723D01*
X84309523Y-78716723D02*
X84261904Y-78811961D01*
X84261904Y-78811961D02*
X84166666Y-78907200D01*
X84166666Y-78907200D02*
X84023809Y-78954819D01*
X84023809Y-78954819D02*
X83785714Y-78954819D01*
X85261904Y-77954819D02*
X84785714Y-77954819D01*
X84785714Y-77954819D02*
X84738095Y-78431009D01*
X84738095Y-78431009D02*
X84785714Y-78383390D01*
X84785714Y-78383390D02*
X84880952Y-78335771D01*
X84880952Y-78335771D02*
X85119047Y-78335771D01*
X85119047Y-78335771D02*
X85214285Y-78383390D01*
X85214285Y-78383390D02*
X85261904Y-78431009D01*
X85261904Y-78431009D02*
X85309523Y-78526247D01*
X85309523Y-78526247D02*
X85309523Y-78764342D01*
X85309523Y-78764342D02*
X85261904Y-78859580D01*
X85261904Y-78859580D02*
X85214285Y-78907200D01*
X85214285Y-78907200D02*
X85119047Y-78954819D01*
X85119047Y-78954819D02*
X84880952Y-78954819D01*
X84880952Y-78954819D02*
X84785714Y-78907200D01*
X84785714Y-78907200D02*
X84738095Y-78859580D01*
X86166666Y-78288152D02*
X86166666Y-78954819D01*
X85928571Y-77907200D02*
X85690476Y-78621485D01*
X85690476Y-78621485D02*
X86309523Y-78621485D01*
X89435714Y-77054819D02*
X88864286Y-77054819D01*
X89150000Y-77054819D02*
X89150000Y-76054819D01*
X89150000Y-76054819D02*
X89054762Y-76197676D01*
X89054762Y-76197676D02*
X88959524Y-76292914D01*
X88959524Y-76292914D02*
X88864286Y-76340533D01*
X73785714Y-98954819D02*
X73785714Y-97954819D01*
X73785714Y-97954819D02*
X74023809Y-97954819D01*
X74023809Y-97954819D02*
X74166666Y-98002438D01*
X74166666Y-98002438D02*
X74261904Y-98097676D01*
X74261904Y-98097676D02*
X74309523Y-98192914D01*
X74309523Y-98192914D02*
X74357142Y-98383390D01*
X74357142Y-98383390D02*
X74357142Y-98526247D01*
X74357142Y-98526247D02*
X74309523Y-98716723D01*
X74309523Y-98716723D02*
X74261904Y-98811961D01*
X74261904Y-98811961D02*
X74166666Y-98907200D01*
X74166666Y-98907200D02*
X74023809Y-98954819D01*
X74023809Y-98954819D02*
X73785714Y-98954819D01*
X75214285Y-98288152D02*
X75214285Y-98954819D01*
X74976190Y-97907200D02*
X74738095Y-98621485D01*
X74738095Y-98621485D02*
X75357142Y-98621485D01*
X76261904Y-98954819D02*
X75690476Y-98954819D01*
X75976190Y-98954819D02*
X75976190Y-97954819D01*
X75976190Y-97954819D02*
X75880952Y-98097676D01*
X75880952Y-98097676D02*
X75785714Y-98192914D01*
X75785714Y-98192914D02*
X75690476Y-98240533D01*
X79435714Y-97054819D02*
X78864286Y-97054819D01*
X79150000Y-97054819D02*
X79150000Y-96054819D01*
X79150000Y-96054819D02*
X79054762Y-96197676D01*
X79054762Y-96197676D02*
X78959524Y-96292914D01*
X78959524Y-96292914D02*
X78864286Y-96340533D01*
X24261905Y-78954819D02*
X24261905Y-77954819D01*
X24261905Y-77954819D02*
X24500000Y-77954819D01*
X24500000Y-77954819D02*
X24642857Y-78002438D01*
X24642857Y-78002438D02*
X24738095Y-78097676D01*
X24738095Y-78097676D02*
X24785714Y-78192914D01*
X24785714Y-78192914D02*
X24833333Y-78383390D01*
X24833333Y-78383390D02*
X24833333Y-78526247D01*
X24833333Y-78526247D02*
X24785714Y-78716723D01*
X24785714Y-78716723D02*
X24738095Y-78811961D01*
X24738095Y-78811961D02*
X24642857Y-78907200D01*
X24642857Y-78907200D02*
X24500000Y-78954819D01*
X24500000Y-78954819D02*
X24261905Y-78954819D01*
X25690476Y-77954819D02*
X25500000Y-77954819D01*
X25500000Y-77954819D02*
X25404762Y-78002438D01*
X25404762Y-78002438D02*
X25357143Y-78050057D01*
X25357143Y-78050057D02*
X25261905Y-78192914D01*
X25261905Y-78192914D02*
X25214286Y-78383390D01*
X25214286Y-78383390D02*
X25214286Y-78764342D01*
X25214286Y-78764342D02*
X25261905Y-78859580D01*
X25261905Y-78859580D02*
X25309524Y-78907200D01*
X25309524Y-78907200D02*
X25404762Y-78954819D01*
X25404762Y-78954819D02*
X25595238Y-78954819D01*
X25595238Y-78954819D02*
X25690476Y-78907200D01*
X25690476Y-78907200D02*
X25738095Y-78859580D01*
X25738095Y-78859580D02*
X25785714Y-78764342D01*
X25785714Y-78764342D02*
X25785714Y-78526247D01*
X25785714Y-78526247D02*
X25738095Y-78431009D01*
X25738095Y-78431009D02*
X25690476Y-78383390D01*
X25690476Y-78383390D02*
X25595238Y-78335771D01*
X25595238Y-78335771D02*
X25404762Y-78335771D01*
X25404762Y-78335771D02*
X25309524Y-78383390D01*
X25309524Y-78383390D02*
X25261905Y-78431009D01*
X25261905Y-78431009D02*
X25214286Y-78526247D01*
X29435714Y-77054819D02*
X28864286Y-77054819D01*
X29150000Y-77054819D02*
X29150000Y-76054819D01*
X29150000Y-76054819D02*
X29054762Y-76197676D01*
X29054762Y-76197676D02*
X28959524Y-76292914D01*
X28959524Y-76292914D02*
X28864286Y-76340533D01*
X63785714Y-48954819D02*
X63785714Y-47954819D01*
X63785714Y-47954819D02*
X64023809Y-47954819D01*
X64023809Y-47954819D02*
X64166666Y-48002438D01*
X64166666Y-48002438D02*
X64261904Y-48097676D01*
X64261904Y-48097676D02*
X64309523Y-48192914D01*
X64309523Y-48192914D02*
X64357142Y-48383390D01*
X64357142Y-48383390D02*
X64357142Y-48526247D01*
X64357142Y-48526247D02*
X64309523Y-48716723D01*
X64309523Y-48716723D02*
X64261904Y-48811961D01*
X64261904Y-48811961D02*
X64166666Y-48907200D01*
X64166666Y-48907200D02*
X64023809Y-48954819D01*
X64023809Y-48954819D02*
X63785714Y-48954819D01*
X64690476Y-47954819D02*
X65309523Y-47954819D01*
X65309523Y-47954819D02*
X64976190Y-48335771D01*
X64976190Y-48335771D02*
X65119047Y-48335771D01*
X65119047Y-48335771D02*
X65214285Y-48383390D01*
X65214285Y-48383390D02*
X65261904Y-48431009D01*
X65261904Y-48431009D02*
X65309523Y-48526247D01*
X65309523Y-48526247D02*
X65309523Y-48764342D01*
X65309523Y-48764342D02*
X65261904Y-48859580D01*
X65261904Y-48859580D02*
X65214285Y-48907200D01*
X65214285Y-48907200D02*
X65119047Y-48954819D01*
X65119047Y-48954819D02*
X64833333Y-48954819D01*
X64833333Y-48954819D02*
X64738095Y-48907200D01*
X64738095Y-48907200D02*
X64690476Y-48859580D01*
X66214285Y-47954819D02*
X65738095Y-47954819D01*
X65738095Y-47954819D02*
X65690476Y-48431009D01*
X65690476Y-48431009D02*
X65738095Y-48383390D01*
X65738095Y-48383390D02*
X65833333Y-48335771D01*
X65833333Y-48335771D02*
X66071428Y-48335771D01*
X66071428Y-48335771D02*
X66166666Y-48383390D01*
X66166666Y-48383390D02*
X66214285Y-48431009D01*
X66214285Y-48431009D02*
X66261904Y-48526247D01*
X66261904Y-48526247D02*
X66261904Y-48764342D01*
X66261904Y-48764342D02*
X66214285Y-48859580D01*
X66214285Y-48859580D02*
X66166666Y-48907200D01*
X66166666Y-48907200D02*
X66071428Y-48954819D01*
X66071428Y-48954819D02*
X65833333Y-48954819D01*
X65833333Y-48954819D02*
X65738095Y-48907200D01*
X65738095Y-48907200D02*
X65690476Y-48859580D01*
X69435714Y-47054819D02*
X68864286Y-47054819D01*
X69150000Y-47054819D02*
X69150000Y-46054819D01*
X69150000Y-46054819D02*
X69054762Y-46197676D01*
X69054762Y-46197676D02*
X68959524Y-46292914D01*
X68959524Y-46292914D02*
X68864286Y-46340533D01*
X63785714Y-98954819D02*
X63785714Y-97954819D01*
X63785714Y-97954819D02*
X64023809Y-97954819D01*
X64023809Y-97954819D02*
X64166666Y-98002438D01*
X64166666Y-98002438D02*
X64261904Y-98097676D01*
X64261904Y-98097676D02*
X64309523Y-98192914D01*
X64309523Y-98192914D02*
X64357142Y-98383390D01*
X64357142Y-98383390D02*
X64357142Y-98526247D01*
X64357142Y-98526247D02*
X64309523Y-98716723D01*
X64309523Y-98716723D02*
X64261904Y-98811961D01*
X64261904Y-98811961D02*
X64166666Y-98907200D01*
X64166666Y-98907200D02*
X64023809Y-98954819D01*
X64023809Y-98954819D02*
X63785714Y-98954819D01*
X65214285Y-98288152D02*
X65214285Y-98954819D01*
X64976190Y-97907200D02*
X64738095Y-98621485D01*
X64738095Y-98621485D02*
X65357142Y-98621485D01*
X65928571Y-97954819D02*
X66023809Y-97954819D01*
X66023809Y-97954819D02*
X66119047Y-98002438D01*
X66119047Y-98002438D02*
X66166666Y-98050057D01*
X66166666Y-98050057D02*
X66214285Y-98145295D01*
X66214285Y-98145295D02*
X66261904Y-98335771D01*
X66261904Y-98335771D02*
X66261904Y-98573866D01*
X66261904Y-98573866D02*
X66214285Y-98764342D01*
X66214285Y-98764342D02*
X66166666Y-98859580D01*
X66166666Y-98859580D02*
X66119047Y-98907200D01*
X66119047Y-98907200D02*
X66023809Y-98954819D01*
X66023809Y-98954819D02*
X65928571Y-98954819D01*
X65928571Y-98954819D02*
X65833333Y-98907200D01*
X65833333Y-98907200D02*
X65785714Y-98859580D01*
X65785714Y-98859580D02*
X65738095Y-98764342D01*
X65738095Y-98764342D02*
X65690476Y-98573866D01*
X65690476Y-98573866D02*
X65690476Y-98335771D01*
X65690476Y-98335771D02*
X65738095Y-98145295D01*
X65738095Y-98145295D02*
X65785714Y-98050057D01*
X65785714Y-98050057D02*
X65833333Y-98002438D01*
X65833333Y-98002438D02*
X65928571Y-97954819D01*
X69435714Y-97054819D02*
X68864286Y-97054819D01*
X69150000Y-97054819D02*
X69150000Y-96054819D01*
X69150000Y-96054819D02*
X69054762Y-96197676D01*
X69054762Y-96197676D02*
X68959524Y-96292914D01*
X68959524Y-96292914D02*
X68864286Y-96340533D01*
D10*
X13773895Y-15707419D02*
X14345323Y-15707419D01*
X14059609Y-16707419D02*
X14059609Y-15707419D01*
X14678657Y-16707419D02*
X14678657Y-15707419D01*
X14678657Y-15707419D02*
X15059609Y-15707419D01*
X15059609Y-15707419D02*
X15154847Y-15755038D01*
X15154847Y-15755038D02*
X15202466Y-15802657D01*
X15202466Y-15802657D02*
X15250085Y-15897895D01*
X15250085Y-15897895D02*
X15250085Y-16040752D01*
X15250085Y-16040752D02*
X15202466Y-16135990D01*
X15202466Y-16135990D02*
X15154847Y-16183609D01*
X15154847Y-16183609D02*
X15059609Y-16231228D01*
X15059609Y-16231228D02*
X14678657Y-16231228D01*
X15583419Y-15707419D02*
X16202466Y-15707419D01*
X16202466Y-15707419D02*
X15869133Y-16088371D01*
X15869133Y-16088371D02*
X16011990Y-16088371D01*
X16011990Y-16088371D02*
X16107228Y-16135990D01*
X16107228Y-16135990D02*
X16154847Y-16183609D01*
X16154847Y-16183609D02*
X16202466Y-16278847D01*
X16202466Y-16278847D02*
X16202466Y-16516942D01*
X16202466Y-16516942D02*
X16154847Y-16612180D01*
X16154847Y-16612180D02*
X16107228Y-16659800D01*
X16107228Y-16659800D02*
X16011990Y-16707419D01*
X16011990Y-16707419D02*
X15726276Y-16707419D01*
X15726276Y-16707419D02*
X15631038Y-16659800D01*
X15631038Y-16659800D02*
X15583419Y-16612180D01*
X9238095Y-17005038D02*
X9142857Y-16957419D01*
X9142857Y-16957419D02*
X9000000Y-16957419D01*
X9000000Y-16957419D02*
X8857143Y-17005038D01*
X8857143Y-17005038D02*
X8761905Y-17100276D01*
X8761905Y-17100276D02*
X8714286Y-17195514D01*
X8714286Y-17195514D02*
X8666667Y-17385990D01*
X8666667Y-17385990D02*
X8666667Y-17528847D01*
X8666667Y-17528847D02*
X8714286Y-17719323D01*
X8714286Y-17719323D02*
X8761905Y-17814561D01*
X8761905Y-17814561D02*
X8857143Y-17909800D01*
X8857143Y-17909800D02*
X9000000Y-17957419D01*
X9000000Y-17957419D02*
X9095238Y-17957419D01*
X9095238Y-17957419D02*
X9238095Y-17909800D01*
X9238095Y-17909800D02*
X9285714Y-17862180D01*
X9285714Y-17862180D02*
X9285714Y-17528847D01*
X9285714Y-17528847D02*
X9095238Y-17528847D01*
X9714286Y-17957419D02*
X9714286Y-16957419D01*
X9714286Y-16957419D02*
X10285714Y-17957419D01*
X10285714Y-17957419D02*
X10285714Y-16957419D01*
X10761905Y-17957419D02*
X10761905Y-16957419D01*
X10761905Y-16957419D02*
X11000000Y-16957419D01*
X11000000Y-16957419D02*
X11142857Y-17005038D01*
X11142857Y-17005038D02*
X11238095Y-17100276D01*
X11238095Y-17100276D02*
X11285714Y-17195514D01*
X11285714Y-17195514D02*
X11333333Y-17385990D01*
X11333333Y-17385990D02*
X11333333Y-17528847D01*
X11333333Y-17528847D02*
X11285714Y-17719323D01*
X11285714Y-17719323D02*
X11238095Y-17814561D01*
X11238095Y-17814561D02*
X11142857Y-17909800D01*
X11142857Y-17909800D02*
X11000000Y-17957419D01*
X11000000Y-17957419D02*
X10761905Y-17957419D01*
D11*
X93785714Y-88954819D02*
X93785714Y-87954819D01*
X93785714Y-87954819D02*
X94023809Y-87954819D01*
X94023809Y-87954819D02*
X94166666Y-88002438D01*
X94166666Y-88002438D02*
X94261904Y-88097676D01*
X94261904Y-88097676D02*
X94309523Y-88192914D01*
X94309523Y-88192914D02*
X94357142Y-88383390D01*
X94357142Y-88383390D02*
X94357142Y-88526247D01*
X94357142Y-88526247D02*
X94309523Y-88716723D01*
X94309523Y-88716723D02*
X94261904Y-88811961D01*
X94261904Y-88811961D02*
X94166666Y-88907200D01*
X94166666Y-88907200D02*
X94023809Y-88954819D01*
X94023809Y-88954819D02*
X93785714Y-88954819D01*
X95261904Y-87954819D02*
X94785714Y-87954819D01*
X94785714Y-87954819D02*
X94738095Y-88431009D01*
X94738095Y-88431009D02*
X94785714Y-88383390D01*
X94785714Y-88383390D02*
X94880952Y-88335771D01*
X94880952Y-88335771D02*
X95119047Y-88335771D01*
X95119047Y-88335771D02*
X95214285Y-88383390D01*
X95214285Y-88383390D02*
X95261904Y-88431009D01*
X95261904Y-88431009D02*
X95309523Y-88526247D01*
X95309523Y-88526247D02*
X95309523Y-88764342D01*
X95309523Y-88764342D02*
X95261904Y-88859580D01*
X95261904Y-88859580D02*
X95214285Y-88907200D01*
X95214285Y-88907200D02*
X95119047Y-88954819D01*
X95119047Y-88954819D02*
X94880952Y-88954819D01*
X94880952Y-88954819D02*
X94785714Y-88907200D01*
X94785714Y-88907200D02*
X94738095Y-88859580D01*
X95880952Y-88383390D02*
X95785714Y-88335771D01*
X95785714Y-88335771D02*
X95738095Y-88288152D01*
X95738095Y-88288152D02*
X95690476Y-88192914D01*
X95690476Y-88192914D02*
X95690476Y-88145295D01*
X95690476Y-88145295D02*
X95738095Y-88050057D01*
X95738095Y-88050057D02*
X95785714Y-88002438D01*
X95785714Y-88002438D02*
X95880952Y-87954819D01*
X95880952Y-87954819D02*
X96071428Y-87954819D01*
X96071428Y-87954819D02*
X96166666Y-88002438D01*
X96166666Y-88002438D02*
X96214285Y-88050057D01*
X96214285Y-88050057D02*
X96261904Y-88145295D01*
X96261904Y-88145295D02*
X96261904Y-88192914D01*
X96261904Y-88192914D02*
X96214285Y-88288152D01*
X96214285Y-88288152D02*
X96166666Y-88335771D01*
X96166666Y-88335771D02*
X96071428Y-88383390D01*
X96071428Y-88383390D02*
X95880952Y-88383390D01*
X95880952Y-88383390D02*
X95785714Y-88431009D01*
X95785714Y-88431009D02*
X95738095Y-88478628D01*
X95738095Y-88478628D02*
X95690476Y-88573866D01*
X95690476Y-88573866D02*
X95690476Y-88764342D01*
X95690476Y-88764342D02*
X95738095Y-88859580D01*
X95738095Y-88859580D02*
X95785714Y-88907200D01*
X95785714Y-88907200D02*
X95880952Y-88954819D01*
X95880952Y-88954819D02*
X96071428Y-88954819D01*
X96071428Y-88954819D02*
X96166666Y-88907200D01*
X96166666Y-88907200D02*
X96214285Y-88859580D01*
X96214285Y-88859580D02*
X96261904Y-88764342D01*
X96261904Y-88764342D02*
X96261904Y-88573866D01*
X96261904Y-88573866D02*
X96214285Y-88478628D01*
X96214285Y-88478628D02*
X96166666Y-88431009D01*
X96166666Y-88431009D02*
X96071428Y-88383390D01*
X99435714Y-87054819D02*
X98864286Y-87054819D01*
X99150000Y-87054819D02*
X99150000Y-86054819D01*
X99150000Y-86054819D02*
X99054762Y-86197676D01*
X99054762Y-86197676D02*
X98959524Y-86292914D01*
X98959524Y-86292914D02*
X98864286Y-86340533D01*
X93785714Y-58954819D02*
X93785714Y-57954819D01*
X93785714Y-57954819D02*
X94023809Y-57954819D01*
X94023809Y-57954819D02*
X94166666Y-58002438D01*
X94166666Y-58002438D02*
X94261904Y-58097676D01*
X94261904Y-58097676D02*
X94309523Y-58192914D01*
X94309523Y-58192914D02*
X94357142Y-58383390D01*
X94357142Y-58383390D02*
X94357142Y-58526247D01*
X94357142Y-58526247D02*
X94309523Y-58716723D01*
X94309523Y-58716723D02*
X94261904Y-58811961D01*
X94261904Y-58811961D02*
X94166666Y-58907200D01*
X94166666Y-58907200D02*
X94023809Y-58954819D01*
X94023809Y-58954819D02*
X93785714Y-58954819D01*
X95214285Y-57954819D02*
X95023809Y-57954819D01*
X95023809Y-57954819D02*
X94928571Y-58002438D01*
X94928571Y-58002438D02*
X94880952Y-58050057D01*
X94880952Y-58050057D02*
X94785714Y-58192914D01*
X94785714Y-58192914D02*
X94738095Y-58383390D01*
X94738095Y-58383390D02*
X94738095Y-58764342D01*
X94738095Y-58764342D02*
X94785714Y-58859580D01*
X94785714Y-58859580D02*
X94833333Y-58907200D01*
X94833333Y-58907200D02*
X94928571Y-58954819D01*
X94928571Y-58954819D02*
X95119047Y-58954819D01*
X95119047Y-58954819D02*
X95214285Y-58907200D01*
X95214285Y-58907200D02*
X95261904Y-58859580D01*
X95261904Y-58859580D02*
X95309523Y-58764342D01*
X95309523Y-58764342D02*
X95309523Y-58526247D01*
X95309523Y-58526247D02*
X95261904Y-58431009D01*
X95261904Y-58431009D02*
X95214285Y-58383390D01*
X95214285Y-58383390D02*
X95119047Y-58335771D01*
X95119047Y-58335771D02*
X94928571Y-58335771D01*
X94928571Y-58335771D02*
X94833333Y-58383390D01*
X94833333Y-58383390D02*
X94785714Y-58431009D01*
X94785714Y-58431009D02*
X94738095Y-58526247D01*
X96261904Y-58954819D02*
X95690476Y-58954819D01*
X95976190Y-58954819D02*
X95976190Y-57954819D01*
X95976190Y-57954819D02*
X95880952Y-58097676D01*
X95880952Y-58097676D02*
X95785714Y-58192914D01*
X95785714Y-58192914D02*
X95690476Y-58240533D01*
X99435714Y-57054819D02*
X98864286Y-57054819D01*
X99150000Y-57054819D02*
X99150000Y-56054819D01*
X99150000Y-56054819D02*
X99054762Y-56197676D01*
X99054762Y-56197676D02*
X98959524Y-56292914D01*
X98959524Y-56292914D02*
X98864286Y-56340533D01*
X53785714Y-38954819D02*
X53785714Y-37954819D01*
X53785714Y-37954819D02*
X54023809Y-37954819D01*
X54023809Y-37954819D02*
X54166666Y-38002438D01*
X54166666Y-38002438D02*
X54261904Y-38097676D01*
X54261904Y-38097676D02*
X54309523Y-38192914D01*
X54309523Y-38192914D02*
X54357142Y-38383390D01*
X54357142Y-38383390D02*
X54357142Y-38526247D01*
X54357142Y-38526247D02*
X54309523Y-38716723D01*
X54309523Y-38716723D02*
X54261904Y-38811961D01*
X54261904Y-38811961D02*
X54166666Y-38907200D01*
X54166666Y-38907200D02*
X54023809Y-38954819D01*
X54023809Y-38954819D02*
X53785714Y-38954819D01*
X54690476Y-37954819D02*
X55309523Y-37954819D01*
X55309523Y-37954819D02*
X54976190Y-38335771D01*
X54976190Y-38335771D02*
X55119047Y-38335771D01*
X55119047Y-38335771D02*
X55214285Y-38383390D01*
X55214285Y-38383390D02*
X55261904Y-38431009D01*
X55261904Y-38431009D02*
X55309523Y-38526247D01*
X55309523Y-38526247D02*
X55309523Y-38764342D01*
X55309523Y-38764342D02*
X55261904Y-38859580D01*
X55261904Y-38859580D02*
X55214285Y-38907200D01*
X55214285Y-38907200D02*
X55119047Y-38954819D01*
X55119047Y-38954819D02*
X54833333Y-38954819D01*
X54833333Y-38954819D02*
X54738095Y-38907200D01*
X54738095Y-38907200D02*
X54690476Y-38859580D01*
X56261904Y-38954819D02*
X55690476Y-38954819D01*
X55976190Y-38954819D02*
X55976190Y-37954819D01*
X55976190Y-37954819D02*
X55880952Y-38097676D01*
X55880952Y-38097676D02*
X55785714Y-38192914D01*
X55785714Y-38192914D02*
X55690476Y-38240533D01*
X59435714Y-37054819D02*
X58864286Y-37054819D01*
X59150000Y-37054819D02*
X59150000Y-36054819D01*
X59150000Y-36054819D02*
X59054762Y-36197676D01*
X59054762Y-36197676D02*
X58959524Y-36292914D01*
X58959524Y-36292914D02*
X58864286Y-36340533D01*
X63785714Y-88954819D02*
X63785714Y-87954819D01*
X63785714Y-87954819D02*
X64023809Y-87954819D01*
X64023809Y-87954819D02*
X64166666Y-88002438D01*
X64166666Y-88002438D02*
X64261904Y-88097676D01*
X64261904Y-88097676D02*
X64309523Y-88192914D01*
X64309523Y-88192914D02*
X64357142Y-88383390D01*
X64357142Y-88383390D02*
X64357142Y-88526247D01*
X64357142Y-88526247D02*
X64309523Y-88716723D01*
X64309523Y-88716723D02*
X64261904Y-88811961D01*
X64261904Y-88811961D02*
X64166666Y-88907200D01*
X64166666Y-88907200D02*
X64023809Y-88954819D01*
X64023809Y-88954819D02*
X63785714Y-88954819D01*
X64690476Y-87954819D02*
X65309523Y-87954819D01*
X65309523Y-87954819D02*
X64976190Y-88335771D01*
X64976190Y-88335771D02*
X65119047Y-88335771D01*
X65119047Y-88335771D02*
X65214285Y-88383390D01*
X65214285Y-88383390D02*
X65261904Y-88431009D01*
X65261904Y-88431009D02*
X65309523Y-88526247D01*
X65309523Y-88526247D02*
X65309523Y-88764342D01*
X65309523Y-88764342D02*
X65261904Y-88859580D01*
X65261904Y-88859580D02*
X65214285Y-88907200D01*
X65214285Y-88907200D02*
X65119047Y-88954819D01*
X65119047Y-88954819D02*
X64833333Y-88954819D01*
X64833333Y-88954819D02*
X64738095Y-88907200D01*
X64738095Y-88907200D02*
X64690476Y-88859580D01*
X65785714Y-88954819D02*
X65976190Y-88954819D01*
X65976190Y-88954819D02*
X66071428Y-88907200D01*
X66071428Y-88907200D02*
X66119047Y-88859580D01*
X66119047Y-88859580D02*
X66214285Y-88716723D01*
X66214285Y-88716723D02*
X66261904Y-88526247D01*
X66261904Y-88526247D02*
X66261904Y-88145295D01*
X66261904Y-88145295D02*
X66214285Y-88050057D01*
X66214285Y-88050057D02*
X66166666Y-88002438D01*
X66166666Y-88002438D02*
X66071428Y-87954819D01*
X66071428Y-87954819D02*
X65880952Y-87954819D01*
X65880952Y-87954819D02*
X65785714Y-88002438D01*
X65785714Y-88002438D02*
X65738095Y-88050057D01*
X65738095Y-88050057D02*
X65690476Y-88145295D01*
X65690476Y-88145295D02*
X65690476Y-88383390D01*
X65690476Y-88383390D02*
X65738095Y-88478628D01*
X65738095Y-88478628D02*
X65785714Y-88526247D01*
X65785714Y-88526247D02*
X65880952Y-88573866D01*
X65880952Y-88573866D02*
X66071428Y-88573866D01*
X66071428Y-88573866D02*
X66166666Y-88526247D01*
X66166666Y-88526247D02*
X66214285Y-88478628D01*
X66214285Y-88478628D02*
X66261904Y-88383390D01*
X69435714Y-87054819D02*
X68864286Y-87054819D01*
X69150000Y-87054819D02*
X69150000Y-86054819D01*
X69150000Y-86054819D02*
X69054762Y-86197676D01*
X69054762Y-86197676D02*
X68959524Y-86292914D01*
X68959524Y-86292914D02*
X68864286Y-86340533D01*
D10*
X9047619Y-25457419D02*
X9047619Y-24457419D01*
X9047619Y-24457419D02*
X9285714Y-24457419D01*
X9285714Y-24457419D02*
X9428571Y-24505038D01*
X9428571Y-24505038D02*
X9523809Y-24600276D01*
X9523809Y-24600276D02*
X9571428Y-24695514D01*
X9571428Y-24695514D02*
X9619047Y-24885990D01*
X9619047Y-24885990D02*
X9619047Y-25028847D01*
X9619047Y-25028847D02*
X9571428Y-25219323D01*
X9571428Y-25219323D02*
X9523809Y-25314561D01*
X9523809Y-25314561D02*
X9428571Y-25409800D01*
X9428571Y-25409800D02*
X9285714Y-25457419D01*
X9285714Y-25457419D02*
X9047619Y-25457419D01*
X10047619Y-25457419D02*
X10047619Y-24790752D01*
X10047619Y-24457419D02*
X10000000Y-24505038D01*
X10000000Y-24505038D02*
X10047619Y-24552657D01*
X10047619Y-24552657D02*
X10095238Y-24505038D01*
X10095238Y-24505038D02*
X10047619Y-24457419D01*
X10047619Y-24457419D02*
X10047619Y-24552657D01*
X10523809Y-24790752D02*
X10523809Y-25457419D01*
X10523809Y-24885990D02*
X10571428Y-24838371D01*
X10571428Y-24838371D02*
X10666666Y-24790752D01*
X10666666Y-24790752D02*
X10809523Y-24790752D01*
X10809523Y-24790752D02*
X10904761Y-24838371D01*
X10904761Y-24838371D02*
X10952380Y-24933609D01*
X10952380Y-24933609D02*
X10952380Y-25457419D01*
D11*
X33785714Y-28954819D02*
X33785714Y-27954819D01*
X33785714Y-27954819D02*
X34023809Y-27954819D01*
X34023809Y-27954819D02*
X34166666Y-28002438D01*
X34166666Y-28002438D02*
X34261904Y-28097676D01*
X34261904Y-28097676D02*
X34309523Y-28192914D01*
X34309523Y-28192914D02*
X34357142Y-28383390D01*
X34357142Y-28383390D02*
X34357142Y-28526247D01*
X34357142Y-28526247D02*
X34309523Y-28716723D01*
X34309523Y-28716723D02*
X34261904Y-28811961D01*
X34261904Y-28811961D02*
X34166666Y-28907200D01*
X34166666Y-28907200D02*
X34023809Y-28954819D01*
X34023809Y-28954819D02*
X33785714Y-28954819D01*
X35309523Y-28954819D02*
X34738095Y-28954819D01*
X35023809Y-28954819D02*
X35023809Y-27954819D01*
X35023809Y-27954819D02*
X34928571Y-28097676D01*
X34928571Y-28097676D02*
X34833333Y-28192914D01*
X34833333Y-28192914D02*
X34738095Y-28240533D01*
X36166666Y-27954819D02*
X35976190Y-27954819D01*
X35976190Y-27954819D02*
X35880952Y-28002438D01*
X35880952Y-28002438D02*
X35833333Y-28050057D01*
X35833333Y-28050057D02*
X35738095Y-28192914D01*
X35738095Y-28192914D02*
X35690476Y-28383390D01*
X35690476Y-28383390D02*
X35690476Y-28764342D01*
X35690476Y-28764342D02*
X35738095Y-28859580D01*
X35738095Y-28859580D02*
X35785714Y-28907200D01*
X35785714Y-28907200D02*
X35880952Y-28954819D01*
X35880952Y-28954819D02*
X36071428Y-28954819D01*
X36071428Y-28954819D02*
X36166666Y-28907200D01*
X36166666Y-28907200D02*
X36214285Y-28859580D01*
X36214285Y-28859580D02*
X36261904Y-28764342D01*
X36261904Y-28764342D02*
X36261904Y-28526247D01*
X36261904Y-28526247D02*
X36214285Y-28431009D01*
X36214285Y-28431009D02*
X36166666Y-28383390D01*
X36166666Y-28383390D02*
X36071428Y-28335771D01*
X36071428Y-28335771D02*
X35880952Y-28335771D01*
X35880952Y-28335771D02*
X35785714Y-28383390D01*
X35785714Y-28383390D02*
X35738095Y-28431009D01*
X35738095Y-28431009D02*
X35690476Y-28526247D01*
X39435714Y-27054819D02*
X38864286Y-27054819D01*
X39150000Y-27054819D02*
X39150000Y-26054819D01*
X39150000Y-26054819D02*
X39054762Y-26197676D01*
X39054762Y-26197676D02*
X38959524Y-26292914D01*
X38959524Y-26292914D02*
X38864286Y-26340533D01*
X73785714Y-68954819D02*
X73785714Y-67954819D01*
X73785714Y-67954819D02*
X74023809Y-67954819D01*
X74023809Y-67954819D02*
X74166666Y-68002438D01*
X74166666Y-68002438D02*
X74261904Y-68097676D01*
X74261904Y-68097676D02*
X74309523Y-68192914D01*
X74309523Y-68192914D02*
X74357142Y-68383390D01*
X74357142Y-68383390D02*
X74357142Y-68526247D01*
X74357142Y-68526247D02*
X74309523Y-68716723D01*
X74309523Y-68716723D02*
X74261904Y-68811961D01*
X74261904Y-68811961D02*
X74166666Y-68907200D01*
X74166666Y-68907200D02*
X74023809Y-68954819D01*
X74023809Y-68954819D02*
X73785714Y-68954819D01*
X75214285Y-68288152D02*
X75214285Y-68954819D01*
X74976190Y-67907200D02*
X74738095Y-68621485D01*
X74738095Y-68621485D02*
X75357142Y-68621485D01*
X76166666Y-68288152D02*
X76166666Y-68954819D01*
X75928571Y-67907200D02*
X75690476Y-68621485D01*
X75690476Y-68621485D02*
X76309523Y-68621485D01*
X79435714Y-67054819D02*
X78864286Y-67054819D01*
X79150000Y-67054819D02*
X79150000Y-66054819D01*
X79150000Y-66054819D02*
X79054762Y-66197676D01*
X79054762Y-66197676D02*
X78959524Y-66292914D01*
X78959524Y-66292914D02*
X78864286Y-66340533D01*
X43785714Y-98954819D02*
X43785714Y-97954819D01*
X43785714Y-97954819D02*
X44023809Y-97954819D01*
X44023809Y-97954819D02*
X44166666Y-98002438D01*
X44166666Y-98002438D02*
X44261904Y-98097676D01*
X44261904Y-98097676D02*
X44309523Y-98192914D01*
X44309523Y-98192914D02*
X44357142Y-98383390D01*
X44357142Y-98383390D02*
X44357142Y-98526247D01*
X44357142Y-98526247D02*
X44309523Y-98716723D01*
X44309523Y-98716723D02*
X44261904Y-98811961D01*
X44261904Y-98811961D02*
X44166666Y-98907200D01*
X44166666Y-98907200D02*
X44023809Y-98954819D01*
X44023809Y-98954819D02*
X43785714Y-98954819D01*
X44738095Y-98050057D02*
X44785714Y-98002438D01*
X44785714Y-98002438D02*
X44880952Y-97954819D01*
X44880952Y-97954819D02*
X45119047Y-97954819D01*
X45119047Y-97954819D02*
X45214285Y-98002438D01*
X45214285Y-98002438D02*
X45261904Y-98050057D01*
X45261904Y-98050057D02*
X45309523Y-98145295D01*
X45309523Y-98145295D02*
X45309523Y-98240533D01*
X45309523Y-98240533D02*
X45261904Y-98383390D01*
X45261904Y-98383390D02*
X44690476Y-98954819D01*
X44690476Y-98954819D02*
X45309523Y-98954819D01*
X46166666Y-98288152D02*
X46166666Y-98954819D01*
X45928571Y-97907200D02*
X45690476Y-98621485D01*
X45690476Y-98621485D02*
X46309523Y-98621485D01*
X49435714Y-97054819D02*
X48864286Y-97054819D01*
X49150000Y-97054819D02*
X49150000Y-96054819D01*
X49150000Y-96054819D02*
X49054762Y-96197676D01*
X49054762Y-96197676D02*
X48959524Y-96292914D01*
X48959524Y-96292914D02*
X48864286Y-96340533D01*
X24261905Y-38954819D02*
X24261905Y-37954819D01*
X24261905Y-37954819D02*
X24500000Y-37954819D01*
X24500000Y-37954819D02*
X24642857Y-38002438D01*
X24642857Y-38002438D02*
X24738095Y-38097676D01*
X24738095Y-38097676D02*
X24785714Y-38192914D01*
X24785714Y-38192914D02*
X24833333Y-38383390D01*
X24833333Y-38383390D02*
X24833333Y-38526247D01*
X24833333Y-38526247D02*
X24785714Y-38716723D01*
X24785714Y-38716723D02*
X24738095Y-38811961D01*
X24738095Y-38811961D02*
X24642857Y-38907200D01*
X24642857Y-38907200D02*
X24500000Y-38954819D01*
X24500000Y-38954819D02*
X24261905Y-38954819D01*
X25214286Y-38050057D02*
X25261905Y-38002438D01*
X25261905Y-38002438D02*
X25357143Y-37954819D01*
X25357143Y-37954819D02*
X25595238Y-37954819D01*
X25595238Y-37954819D02*
X25690476Y-38002438D01*
X25690476Y-38002438D02*
X25738095Y-38050057D01*
X25738095Y-38050057D02*
X25785714Y-38145295D01*
X25785714Y-38145295D02*
X25785714Y-38240533D01*
X25785714Y-38240533D02*
X25738095Y-38383390D01*
X25738095Y-38383390D02*
X25166667Y-38954819D01*
X25166667Y-38954819D02*
X25785714Y-38954819D01*
X29435714Y-37054819D02*
X28864286Y-37054819D01*
X29150000Y-37054819D02*
X29150000Y-36054819D01*
X29150000Y-36054819D02*
X29054762Y-36197676D01*
X29054762Y-36197676D02*
X28959524Y-36292914D01*
X28959524Y-36292914D02*
X28864286Y-36340533D01*
X24261905Y-58954819D02*
X24261905Y-57954819D01*
X24261905Y-57954819D02*
X24500000Y-57954819D01*
X24500000Y-57954819D02*
X24642857Y-58002438D01*
X24642857Y-58002438D02*
X24738095Y-58097676D01*
X24738095Y-58097676D02*
X24785714Y-58192914D01*
X24785714Y-58192914D02*
X24833333Y-58383390D01*
X24833333Y-58383390D02*
X24833333Y-58526247D01*
X24833333Y-58526247D02*
X24785714Y-58716723D01*
X24785714Y-58716723D02*
X24738095Y-58811961D01*
X24738095Y-58811961D02*
X24642857Y-58907200D01*
X24642857Y-58907200D02*
X24500000Y-58954819D01*
X24500000Y-58954819D02*
X24261905Y-58954819D01*
X25690476Y-58288152D02*
X25690476Y-58954819D01*
X25452381Y-57907200D02*
X25214286Y-58621485D01*
X25214286Y-58621485D02*
X25833333Y-58621485D01*
X29435714Y-57054819D02*
X28864286Y-57054819D01*
X29150000Y-57054819D02*
X29150000Y-56054819D01*
X29150000Y-56054819D02*
X29054762Y-56197676D01*
X29054762Y-56197676D02*
X28959524Y-56292914D01*
X28959524Y-56292914D02*
X28864286Y-56340533D01*
X83785714Y-48954819D02*
X83785714Y-47954819D01*
X83785714Y-47954819D02*
X84023809Y-47954819D01*
X84023809Y-47954819D02*
X84166666Y-48002438D01*
X84166666Y-48002438D02*
X84261904Y-48097676D01*
X84261904Y-48097676D02*
X84309523Y-48192914D01*
X84309523Y-48192914D02*
X84357142Y-48383390D01*
X84357142Y-48383390D02*
X84357142Y-48526247D01*
X84357142Y-48526247D02*
X84309523Y-48716723D01*
X84309523Y-48716723D02*
X84261904Y-48811961D01*
X84261904Y-48811961D02*
X84166666Y-48907200D01*
X84166666Y-48907200D02*
X84023809Y-48954819D01*
X84023809Y-48954819D02*
X83785714Y-48954819D01*
X85261904Y-47954819D02*
X84785714Y-47954819D01*
X84785714Y-47954819D02*
X84738095Y-48431009D01*
X84738095Y-48431009D02*
X84785714Y-48383390D01*
X84785714Y-48383390D02*
X84880952Y-48335771D01*
X84880952Y-48335771D02*
X85119047Y-48335771D01*
X85119047Y-48335771D02*
X85214285Y-48383390D01*
X85214285Y-48383390D02*
X85261904Y-48431009D01*
X85261904Y-48431009D02*
X85309523Y-48526247D01*
X85309523Y-48526247D02*
X85309523Y-48764342D01*
X85309523Y-48764342D02*
X85261904Y-48859580D01*
X85261904Y-48859580D02*
X85214285Y-48907200D01*
X85214285Y-48907200D02*
X85119047Y-48954819D01*
X85119047Y-48954819D02*
X84880952Y-48954819D01*
X84880952Y-48954819D02*
X84785714Y-48907200D01*
X84785714Y-48907200D02*
X84738095Y-48859580D01*
X86261904Y-48954819D02*
X85690476Y-48954819D01*
X85976190Y-48954819D02*
X85976190Y-47954819D01*
X85976190Y-47954819D02*
X85880952Y-48097676D01*
X85880952Y-48097676D02*
X85785714Y-48192914D01*
X85785714Y-48192914D02*
X85690476Y-48240533D01*
X89435714Y-47054819D02*
X88864286Y-47054819D01*
X89150000Y-47054819D02*
X89150000Y-46054819D01*
X89150000Y-46054819D02*
X89054762Y-46197676D01*
X89054762Y-46197676D02*
X88959524Y-46292914D01*
X88959524Y-46292914D02*
X88864286Y-46340533D01*
X93785714Y-68954819D02*
X93785714Y-67954819D01*
X93785714Y-67954819D02*
X94023809Y-67954819D01*
X94023809Y-67954819D02*
X94166666Y-68002438D01*
X94166666Y-68002438D02*
X94261904Y-68097676D01*
X94261904Y-68097676D02*
X94309523Y-68192914D01*
X94309523Y-68192914D02*
X94357142Y-68383390D01*
X94357142Y-68383390D02*
X94357142Y-68526247D01*
X94357142Y-68526247D02*
X94309523Y-68716723D01*
X94309523Y-68716723D02*
X94261904Y-68811961D01*
X94261904Y-68811961D02*
X94166666Y-68907200D01*
X94166666Y-68907200D02*
X94023809Y-68954819D01*
X94023809Y-68954819D02*
X93785714Y-68954819D01*
X95214285Y-67954819D02*
X95023809Y-67954819D01*
X95023809Y-67954819D02*
X94928571Y-68002438D01*
X94928571Y-68002438D02*
X94880952Y-68050057D01*
X94880952Y-68050057D02*
X94785714Y-68192914D01*
X94785714Y-68192914D02*
X94738095Y-68383390D01*
X94738095Y-68383390D02*
X94738095Y-68764342D01*
X94738095Y-68764342D02*
X94785714Y-68859580D01*
X94785714Y-68859580D02*
X94833333Y-68907200D01*
X94833333Y-68907200D02*
X94928571Y-68954819D01*
X94928571Y-68954819D02*
X95119047Y-68954819D01*
X95119047Y-68954819D02*
X95214285Y-68907200D01*
X95214285Y-68907200D02*
X95261904Y-68859580D01*
X95261904Y-68859580D02*
X95309523Y-68764342D01*
X95309523Y-68764342D02*
X95309523Y-68526247D01*
X95309523Y-68526247D02*
X95261904Y-68431009D01*
X95261904Y-68431009D02*
X95214285Y-68383390D01*
X95214285Y-68383390D02*
X95119047Y-68335771D01*
X95119047Y-68335771D02*
X94928571Y-68335771D01*
X94928571Y-68335771D02*
X94833333Y-68383390D01*
X94833333Y-68383390D02*
X94785714Y-68431009D01*
X94785714Y-68431009D02*
X94738095Y-68526247D01*
X95928571Y-67954819D02*
X96023809Y-67954819D01*
X96023809Y-67954819D02*
X96119047Y-68002438D01*
X96119047Y-68002438D02*
X96166666Y-68050057D01*
X96166666Y-68050057D02*
X96214285Y-68145295D01*
X96214285Y-68145295D02*
X96261904Y-68335771D01*
X96261904Y-68335771D02*
X96261904Y-68573866D01*
X96261904Y-68573866D02*
X96214285Y-68764342D01*
X96214285Y-68764342D02*
X96166666Y-68859580D01*
X96166666Y-68859580D02*
X96119047Y-68907200D01*
X96119047Y-68907200D02*
X96023809Y-68954819D01*
X96023809Y-68954819D02*
X95928571Y-68954819D01*
X95928571Y-68954819D02*
X95833333Y-68907200D01*
X95833333Y-68907200D02*
X95785714Y-68859580D01*
X95785714Y-68859580D02*
X95738095Y-68764342D01*
X95738095Y-68764342D02*
X95690476Y-68573866D01*
X95690476Y-68573866D02*
X95690476Y-68335771D01*
X95690476Y-68335771D02*
X95738095Y-68145295D01*
X95738095Y-68145295D02*
X95785714Y-68050057D01*
X95785714Y-68050057D02*
X95833333Y-68002438D01*
X95833333Y-68002438D02*
X95928571Y-67954819D01*
X99435714Y-67054819D02*
X98864286Y-67054819D01*
X99150000Y-67054819D02*
X99150000Y-66054819D01*
X99150000Y-66054819D02*
X99054762Y-66197676D01*
X99054762Y-66197676D02*
X98959524Y-66292914D01*
X98959524Y-66292914D02*
X98864286Y-66340533D01*
X43785714Y-28954819D02*
X43785714Y-27954819D01*
X43785714Y-27954819D02*
X44023809Y-27954819D01*
X44023809Y-27954819D02*
X44166666Y-28002438D01*
X44166666Y-28002438D02*
X44261904Y-28097676D01*
X44261904Y-28097676D02*
X44309523Y-28192914D01*
X44309523Y-28192914D02*
X44357142Y-28383390D01*
X44357142Y-28383390D02*
X44357142Y-28526247D01*
X44357142Y-28526247D02*
X44309523Y-28716723D01*
X44309523Y-28716723D02*
X44261904Y-28811961D01*
X44261904Y-28811961D02*
X44166666Y-28907200D01*
X44166666Y-28907200D02*
X44023809Y-28954819D01*
X44023809Y-28954819D02*
X43785714Y-28954819D01*
X45309523Y-28954819D02*
X44738095Y-28954819D01*
X45023809Y-28954819D02*
X45023809Y-27954819D01*
X45023809Y-27954819D02*
X44928571Y-28097676D01*
X44928571Y-28097676D02*
X44833333Y-28192914D01*
X44833333Y-28192914D02*
X44738095Y-28240533D01*
X45642857Y-27954819D02*
X46309523Y-27954819D01*
X46309523Y-27954819D02*
X45880952Y-28954819D01*
X49435714Y-27054819D02*
X48864286Y-27054819D01*
X49150000Y-27054819D02*
X49150000Y-26054819D01*
X49150000Y-26054819D02*
X49054762Y-26197676D01*
X49054762Y-26197676D02*
X48959524Y-26292914D01*
X48959524Y-26292914D02*
X48864286Y-26340533D01*
X73785714Y-28954819D02*
X73785714Y-27954819D01*
X73785714Y-27954819D02*
X74023809Y-27954819D01*
X74023809Y-27954819D02*
X74166666Y-28002438D01*
X74166666Y-28002438D02*
X74261904Y-28097676D01*
X74261904Y-28097676D02*
X74309523Y-28192914D01*
X74309523Y-28192914D02*
X74357142Y-28383390D01*
X74357142Y-28383390D02*
X74357142Y-28526247D01*
X74357142Y-28526247D02*
X74309523Y-28716723D01*
X74309523Y-28716723D02*
X74261904Y-28811961D01*
X74261904Y-28811961D02*
X74166666Y-28907200D01*
X74166666Y-28907200D02*
X74023809Y-28954819D01*
X74023809Y-28954819D02*
X73785714Y-28954819D01*
X75214285Y-28288152D02*
X75214285Y-28954819D01*
X74976190Y-27907200D02*
X74738095Y-28621485D01*
X74738095Y-28621485D02*
X75357142Y-28621485D01*
X75880952Y-28383390D02*
X75785714Y-28335771D01*
X75785714Y-28335771D02*
X75738095Y-28288152D01*
X75738095Y-28288152D02*
X75690476Y-28192914D01*
X75690476Y-28192914D02*
X75690476Y-28145295D01*
X75690476Y-28145295D02*
X75738095Y-28050057D01*
X75738095Y-28050057D02*
X75785714Y-28002438D01*
X75785714Y-28002438D02*
X75880952Y-27954819D01*
X75880952Y-27954819D02*
X76071428Y-27954819D01*
X76071428Y-27954819D02*
X76166666Y-28002438D01*
X76166666Y-28002438D02*
X76214285Y-28050057D01*
X76214285Y-28050057D02*
X76261904Y-28145295D01*
X76261904Y-28145295D02*
X76261904Y-28192914D01*
X76261904Y-28192914D02*
X76214285Y-28288152D01*
X76214285Y-28288152D02*
X76166666Y-28335771D01*
X76166666Y-28335771D02*
X76071428Y-28383390D01*
X76071428Y-28383390D02*
X75880952Y-28383390D01*
X75880952Y-28383390D02*
X75785714Y-28431009D01*
X75785714Y-28431009D02*
X75738095Y-28478628D01*
X75738095Y-28478628D02*
X75690476Y-28573866D01*
X75690476Y-28573866D02*
X75690476Y-28764342D01*
X75690476Y-28764342D02*
X75738095Y-28859580D01*
X75738095Y-28859580D02*
X75785714Y-28907200D01*
X75785714Y-28907200D02*
X75880952Y-28954819D01*
X75880952Y-28954819D02*
X76071428Y-28954819D01*
X76071428Y-28954819D02*
X76166666Y-28907200D01*
X76166666Y-28907200D02*
X76214285Y-28859580D01*
X76214285Y-28859580D02*
X76261904Y-28764342D01*
X76261904Y-28764342D02*
X76261904Y-28573866D01*
X76261904Y-28573866D02*
X76214285Y-28478628D01*
X76214285Y-28478628D02*
X76166666Y-28431009D01*
X76166666Y-28431009D02*
X76071428Y-28383390D01*
X79435714Y-27054819D02*
X78864286Y-27054819D01*
X79150000Y-27054819D02*
X79150000Y-26054819D01*
X79150000Y-26054819D02*
X79054762Y-26197676D01*
X79054762Y-26197676D02*
X78959524Y-26292914D01*
X78959524Y-26292914D02*
X78864286Y-26340533D01*
X73785714Y-48954819D02*
X73785714Y-47954819D01*
X73785714Y-47954819D02*
X74023809Y-47954819D01*
X74023809Y-47954819D02*
X74166666Y-48002438D01*
X74166666Y-48002438D02*
X74261904Y-48097676D01*
X74261904Y-48097676D02*
X74309523Y-48192914D01*
X74309523Y-48192914D02*
X74357142Y-48383390D01*
X74357142Y-48383390D02*
X74357142Y-48526247D01*
X74357142Y-48526247D02*
X74309523Y-48716723D01*
X74309523Y-48716723D02*
X74261904Y-48811961D01*
X74261904Y-48811961D02*
X74166666Y-48907200D01*
X74166666Y-48907200D02*
X74023809Y-48954819D01*
X74023809Y-48954819D02*
X73785714Y-48954819D01*
X75214285Y-48288152D02*
X75214285Y-48954819D01*
X74976190Y-47907200D02*
X74738095Y-48621485D01*
X74738095Y-48621485D02*
X75357142Y-48621485D01*
X76166666Y-47954819D02*
X75976190Y-47954819D01*
X75976190Y-47954819D02*
X75880952Y-48002438D01*
X75880952Y-48002438D02*
X75833333Y-48050057D01*
X75833333Y-48050057D02*
X75738095Y-48192914D01*
X75738095Y-48192914D02*
X75690476Y-48383390D01*
X75690476Y-48383390D02*
X75690476Y-48764342D01*
X75690476Y-48764342D02*
X75738095Y-48859580D01*
X75738095Y-48859580D02*
X75785714Y-48907200D01*
X75785714Y-48907200D02*
X75880952Y-48954819D01*
X75880952Y-48954819D02*
X76071428Y-48954819D01*
X76071428Y-48954819D02*
X76166666Y-48907200D01*
X76166666Y-48907200D02*
X76214285Y-48859580D01*
X76214285Y-48859580D02*
X76261904Y-48764342D01*
X76261904Y-48764342D02*
X76261904Y-48526247D01*
X76261904Y-48526247D02*
X76214285Y-48431009D01*
X76214285Y-48431009D02*
X76166666Y-48383390D01*
X76166666Y-48383390D02*
X76071428Y-48335771D01*
X76071428Y-48335771D02*
X75880952Y-48335771D01*
X75880952Y-48335771D02*
X75785714Y-48383390D01*
X75785714Y-48383390D02*
X75738095Y-48431009D01*
X75738095Y-48431009D02*
X75690476Y-48526247D01*
X79435714Y-47054819D02*
X78864286Y-47054819D01*
X79150000Y-47054819D02*
X79150000Y-46054819D01*
X79150000Y-46054819D02*
X79054762Y-46197676D01*
X79054762Y-46197676D02*
X78959524Y-46292914D01*
X78959524Y-46292914D02*
X78864286Y-46340533D01*
X93785714Y-38954819D02*
X93785714Y-37954819D01*
X93785714Y-37954819D02*
X94023809Y-37954819D01*
X94023809Y-37954819D02*
X94166666Y-38002438D01*
X94166666Y-38002438D02*
X94261904Y-38097676D01*
X94261904Y-38097676D02*
X94309523Y-38192914D01*
X94309523Y-38192914D02*
X94357142Y-38383390D01*
X94357142Y-38383390D02*
X94357142Y-38526247D01*
X94357142Y-38526247D02*
X94309523Y-38716723D01*
X94309523Y-38716723D02*
X94261904Y-38811961D01*
X94261904Y-38811961D02*
X94166666Y-38907200D01*
X94166666Y-38907200D02*
X94023809Y-38954819D01*
X94023809Y-38954819D02*
X93785714Y-38954819D01*
X95214285Y-37954819D02*
X95023809Y-37954819D01*
X95023809Y-37954819D02*
X94928571Y-38002438D01*
X94928571Y-38002438D02*
X94880952Y-38050057D01*
X94880952Y-38050057D02*
X94785714Y-38192914D01*
X94785714Y-38192914D02*
X94738095Y-38383390D01*
X94738095Y-38383390D02*
X94738095Y-38764342D01*
X94738095Y-38764342D02*
X94785714Y-38859580D01*
X94785714Y-38859580D02*
X94833333Y-38907200D01*
X94833333Y-38907200D02*
X94928571Y-38954819D01*
X94928571Y-38954819D02*
X95119047Y-38954819D01*
X95119047Y-38954819D02*
X95214285Y-38907200D01*
X95214285Y-38907200D02*
X95261904Y-38859580D01*
X95261904Y-38859580D02*
X95309523Y-38764342D01*
X95309523Y-38764342D02*
X95309523Y-38526247D01*
X95309523Y-38526247D02*
X95261904Y-38431009D01*
X95261904Y-38431009D02*
X95214285Y-38383390D01*
X95214285Y-38383390D02*
X95119047Y-38335771D01*
X95119047Y-38335771D02*
X94928571Y-38335771D01*
X94928571Y-38335771D02*
X94833333Y-38383390D01*
X94833333Y-38383390D02*
X94785714Y-38431009D01*
X94785714Y-38431009D02*
X94738095Y-38526247D01*
X95642857Y-37954819D02*
X96261904Y-37954819D01*
X96261904Y-37954819D02*
X95928571Y-38335771D01*
X95928571Y-38335771D02*
X96071428Y-38335771D01*
X96071428Y-38335771D02*
X96166666Y-38383390D01*
X96166666Y-38383390D02*
X96214285Y-38431009D01*
X96214285Y-38431009D02*
X96261904Y-38526247D01*
X96261904Y-38526247D02*
X96261904Y-38764342D01*
X96261904Y-38764342D02*
X96214285Y-38859580D01*
X96214285Y-38859580D02*
X96166666Y-38907200D01*
X96166666Y-38907200D02*
X96071428Y-38954819D01*
X96071428Y-38954819D02*
X95785714Y-38954819D01*
X95785714Y-38954819D02*
X95690476Y-38907200D01*
X95690476Y-38907200D02*
X95642857Y-38859580D01*
X99435714Y-37054819D02*
X98864286Y-37054819D01*
X99150000Y-37054819D02*
X99150000Y-36054819D01*
X99150000Y-36054819D02*
X99054762Y-36197676D01*
X99054762Y-36197676D02*
X98959524Y-36292914D01*
X98959524Y-36292914D02*
X98864286Y-36340533D01*
X24261905Y-88954819D02*
X24261905Y-87954819D01*
X24261905Y-87954819D02*
X24500000Y-87954819D01*
X24500000Y-87954819D02*
X24642857Y-88002438D01*
X24642857Y-88002438D02*
X24738095Y-88097676D01*
X24738095Y-88097676D02*
X24785714Y-88192914D01*
X24785714Y-88192914D02*
X24833333Y-88383390D01*
X24833333Y-88383390D02*
X24833333Y-88526247D01*
X24833333Y-88526247D02*
X24785714Y-88716723D01*
X24785714Y-88716723D02*
X24738095Y-88811961D01*
X24738095Y-88811961D02*
X24642857Y-88907200D01*
X24642857Y-88907200D02*
X24500000Y-88954819D01*
X24500000Y-88954819D02*
X24261905Y-88954819D01*
X25166667Y-87954819D02*
X25833333Y-87954819D01*
X25833333Y-87954819D02*
X25404762Y-88954819D01*
X29435714Y-87054819D02*
X28864286Y-87054819D01*
X29150000Y-87054819D02*
X29150000Y-86054819D01*
X29150000Y-86054819D02*
X29054762Y-86197676D01*
X29054762Y-86197676D02*
X28959524Y-86292914D01*
X28959524Y-86292914D02*
X28864286Y-86340533D01*
X43785714Y-68954819D02*
X43785714Y-67954819D01*
X43785714Y-67954819D02*
X44023809Y-67954819D01*
X44023809Y-67954819D02*
X44166666Y-68002438D01*
X44166666Y-68002438D02*
X44261904Y-68097676D01*
X44261904Y-68097676D02*
X44309523Y-68192914D01*
X44309523Y-68192914D02*
X44357142Y-68383390D01*
X44357142Y-68383390D02*
X44357142Y-68526247D01*
X44357142Y-68526247D02*
X44309523Y-68716723D01*
X44309523Y-68716723D02*
X44261904Y-68811961D01*
X44261904Y-68811961D02*
X44166666Y-68907200D01*
X44166666Y-68907200D02*
X44023809Y-68954819D01*
X44023809Y-68954819D02*
X43785714Y-68954819D01*
X44738095Y-68050057D02*
X44785714Y-68002438D01*
X44785714Y-68002438D02*
X44880952Y-67954819D01*
X44880952Y-67954819D02*
X45119047Y-67954819D01*
X45119047Y-67954819D02*
X45214285Y-68002438D01*
X45214285Y-68002438D02*
X45261904Y-68050057D01*
X45261904Y-68050057D02*
X45309523Y-68145295D01*
X45309523Y-68145295D02*
X45309523Y-68240533D01*
X45309523Y-68240533D02*
X45261904Y-68383390D01*
X45261904Y-68383390D02*
X44690476Y-68954819D01*
X44690476Y-68954819D02*
X45309523Y-68954819D01*
X46261904Y-68954819D02*
X45690476Y-68954819D01*
X45976190Y-68954819D02*
X45976190Y-67954819D01*
X45976190Y-67954819D02*
X45880952Y-68097676D01*
X45880952Y-68097676D02*
X45785714Y-68192914D01*
X45785714Y-68192914D02*
X45690476Y-68240533D01*
X49435714Y-67054819D02*
X48864286Y-67054819D01*
X49150000Y-67054819D02*
X49150000Y-66054819D01*
X49150000Y-66054819D02*
X49054762Y-66197676D01*
X49054762Y-66197676D02*
X48959524Y-66292914D01*
X48959524Y-66292914D02*
X48864286Y-66340533D01*
X83785714Y-88954819D02*
X83785714Y-87954819D01*
X83785714Y-87954819D02*
X84023809Y-87954819D01*
X84023809Y-87954819D02*
X84166666Y-88002438D01*
X84166666Y-88002438D02*
X84261904Y-88097676D01*
X84261904Y-88097676D02*
X84309523Y-88192914D01*
X84309523Y-88192914D02*
X84357142Y-88383390D01*
X84357142Y-88383390D02*
X84357142Y-88526247D01*
X84357142Y-88526247D02*
X84309523Y-88716723D01*
X84309523Y-88716723D02*
X84261904Y-88811961D01*
X84261904Y-88811961D02*
X84166666Y-88907200D01*
X84166666Y-88907200D02*
X84023809Y-88954819D01*
X84023809Y-88954819D02*
X83785714Y-88954819D01*
X85261904Y-87954819D02*
X84785714Y-87954819D01*
X84785714Y-87954819D02*
X84738095Y-88431009D01*
X84738095Y-88431009D02*
X84785714Y-88383390D01*
X84785714Y-88383390D02*
X84880952Y-88335771D01*
X84880952Y-88335771D02*
X85119047Y-88335771D01*
X85119047Y-88335771D02*
X85214285Y-88383390D01*
X85214285Y-88383390D02*
X85261904Y-88431009D01*
X85261904Y-88431009D02*
X85309523Y-88526247D01*
X85309523Y-88526247D02*
X85309523Y-88764342D01*
X85309523Y-88764342D02*
X85261904Y-88859580D01*
X85261904Y-88859580D02*
X85214285Y-88907200D01*
X85214285Y-88907200D02*
X85119047Y-88954819D01*
X85119047Y-88954819D02*
X84880952Y-88954819D01*
X84880952Y-88954819D02*
X84785714Y-88907200D01*
X84785714Y-88907200D02*
X84738095Y-88859580D01*
X86214285Y-87954819D02*
X85738095Y-87954819D01*
X85738095Y-87954819D02*
X85690476Y-88431009D01*
X85690476Y-88431009D02*
X85738095Y-88383390D01*
X85738095Y-88383390D02*
X85833333Y-88335771D01*
X85833333Y-88335771D02*
X86071428Y-88335771D01*
X86071428Y-88335771D02*
X86166666Y-88383390D01*
X86166666Y-88383390D02*
X86214285Y-88431009D01*
X86214285Y-88431009D02*
X86261904Y-88526247D01*
X86261904Y-88526247D02*
X86261904Y-88764342D01*
X86261904Y-88764342D02*
X86214285Y-88859580D01*
X86214285Y-88859580D02*
X86166666Y-88907200D01*
X86166666Y-88907200D02*
X86071428Y-88954819D01*
X86071428Y-88954819D02*
X85833333Y-88954819D01*
X85833333Y-88954819D02*
X85738095Y-88907200D01*
X85738095Y-88907200D02*
X85690476Y-88859580D01*
X89435714Y-87054819D02*
X88864286Y-87054819D01*
X89150000Y-87054819D02*
X89150000Y-86054819D01*
X89150000Y-86054819D02*
X89054762Y-86197676D01*
X89054762Y-86197676D02*
X88959524Y-86292914D01*
X88959524Y-86292914D02*
X88864286Y-86340533D01*
X33785714Y-88954819D02*
X33785714Y-87954819D01*
X33785714Y-87954819D02*
X34023809Y-87954819D01*
X34023809Y-87954819D02*
X34166666Y-88002438D01*
X34166666Y-88002438D02*
X34261904Y-88097676D01*
X34261904Y-88097676D02*
X34309523Y-88192914D01*
X34309523Y-88192914D02*
X34357142Y-88383390D01*
X34357142Y-88383390D02*
X34357142Y-88526247D01*
X34357142Y-88526247D02*
X34309523Y-88716723D01*
X34309523Y-88716723D02*
X34261904Y-88811961D01*
X34261904Y-88811961D02*
X34166666Y-88907200D01*
X34166666Y-88907200D02*
X34023809Y-88954819D01*
X34023809Y-88954819D02*
X33785714Y-88954819D01*
X35309523Y-88954819D02*
X34738095Y-88954819D01*
X35023809Y-88954819D02*
X35023809Y-87954819D01*
X35023809Y-87954819D02*
X34928571Y-88097676D01*
X34928571Y-88097676D02*
X34833333Y-88192914D01*
X34833333Y-88192914D02*
X34738095Y-88240533D01*
X35928571Y-87954819D02*
X36023809Y-87954819D01*
X36023809Y-87954819D02*
X36119047Y-88002438D01*
X36119047Y-88002438D02*
X36166666Y-88050057D01*
X36166666Y-88050057D02*
X36214285Y-88145295D01*
X36214285Y-88145295D02*
X36261904Y-88335771D01*
X36261904Y-88335771D02*
X36261904Y-88573866D01*
X36261904Y-88573866D02*
X36214285Y-88764342D01*
X36214285Y-88764342D02*
X36166666Y-88859580D01*
X36166666Y-88859580D02*
X36119047Y-88907200D01*
X36119047Y-88907200D02*
X36023809Y-88954819D01*
X36023809Y-88954819D02*
X35928571Y-88954819D01*
X35928571Y-88954819D02*
X35833333Y-88907200D01*
X35833333Y-88907200D02*
X35785714Y-88859580D01*
X35785714Y-88859580D02*
X35738095Y-88764342D01*
X35738095Y-88764342D02*
X35690476Y-88573866D01*
X35690476Y-88573866D02*
X35690476Y-88335771D01*
X35690476Y-88335771D02*
X35738095Y-88145295D01*
X35738095Y-88145295D02*
X35785714Y-88050057D01*
X35785714Y-88050057D02*
X35833333Y-88002438D01*
X35833333Y-88002438D02*
X35928571Y-87954819D01*
X39435714Y-87054819D02*
X38864286Y-87054819D01*
X39150000Y-87054819D02*
X39150000Y-86054819D01*
X39150000Y-86054819D02*
X39054762Y-86197676D01*
X39054762Y-86197676D02*
X38959524Y-86292914D01*
X38959524Y-86292914D02*
X38864286Y-86340533D01*
X53785714Y-98954819D02*
X53785714Y-97954819D01*
X53785714Y-97954819D02*
X54023809Y-97954819D01*
X54023809Y-97954819D02*
X54166666Y-98002438D01*
X54166666Y-98002438D02*
X54261904Y-98097676D01*
X54261904Y-98097676D02*
X54309523Y-98192914D01*
X54309523Y-98192914D02*
X54357142Y-98383390D01*
X54357142Y-98383390D02*
X54357142Y-98526247D01*
X54357142Y-98526247D02*
X54309523Y-98716723D01*
X54309523Y-98716723D02*
X54261904Y-98811961D01*
X54261904Y-98811961D02*
X54166666Y-98907200D01*
X54166666Y-98907200D02*
X54023809Y-98954819D01*
X54023809Y-98954819D02*
X53785714Y-98954819D01*
X54738095Y-98050057D02*
X54785714Y-98002438D01*
X54785714Y-98002438D02*
X54880952Y-97954819D01*
X54880952Y-97954819D02*
X55119047Y-97954819D01*
X55119047Y-97954819D02*
X55214285Y-98002438D01*
X55214285Y-98002438D02*
X55261904Y-98050057D01*
X55261904Y-98050057D02*
X55309523Y-98145295D01*
X55309523Y-98145295D02*
X55309523Y-98240533D01*
X55309523Y-98240533D02*
X55261904Y-98383390D01*
X55261904Y-98383390D02*
X54690476Y-98954819D01*
X54690476Y-98954819D02*
X55309523Y-98954819D01*
X56214285Y-97954819D02*
X55738095Y-97954819D01*
X55738095Y-97954819D02*
X55690476Y-98431009D01*
X55690476Y-98431009D02*
X55738095Y-98383390D01*
X55738095Y-98383390D02*
X55833333Y-98335771D01*
X55833333Y-98335771D02*
X56071428Y-98335771D01*
X56071428Y-98335771D02*
X56166666Y-98383390D01*
X56166666Y-98383390D02*
X56214285Y-98431009D01*
X56214285Y-98431009D02*
X56261904Y-98526247D01*
X56261904Y-98526247D02*
X56261904Y-98764342D01*
X56261904Y-98764342D02*
X56214285Y-98859580D01*
X56214285Y-98859580D02*
X56166666Y-98907200D01*
X56166666Y-98907200D02*
X56071428Y-98954819D01*
X56071428Y-98954819D02*
X55833333Y-98954819D01*
X55833333Y-98954819D02*
X55738095Y-98907200D01*
X55738095Y-98907200D02*
X55690476Y-98859580D01*
X59435714Y-97054819D02*
X58864286Y-97054819D01*
X59150000Y-97054819D02*
X59150000Y-96054819D01*
X59150000Y-96054819D02*
X59054762Y-96197676D01*
X59054762Y-96197676D02*
X58959524Y-96292914D01*
X58959524Y-96292914D02*
X58864286Y-96340533D01*
X43785714Y-58954819D02*
X43785714Y-57954819D01*
X43785714Y-57954819D02*
X44023809Y-57954819D01*
X44023809Y-57954819D02*
X44166666Y-58002438D01*
X44166666Y-58002438D02*
X44261904Y-58097676D01*
X44261904Y-58097676D02*
X44309523Y-58192914D01*
X44309523Y-58192914D02*
X44357142Y-58383390D01*
X44357142Y-58383390D02*
X44357142Y-58526247D01*
X44357142Y-58526247D02*
X44309523Y-58716723D01*
X44309523Y-58716723D02*
X44261904Y-58811961D01*
X44261904Y-58811961D02*
X44166666Y-58907200D01*
X44166666Y-58907200D02*
X44023809Y-58954819D01*
X44023809Y-58954819D02*
X43785714Y-58954819D01*
X44738095Y-58050057D02*
X44785714Y-58002438D01*
X44785714Y-58002438D02*
X44880952Y-57954819D01*
X44880952Y-57954819D02*
X45119047Y-57954819D01*
X45119047Y-57954819D02*
X45214285Y-58002438D01*
X45214285Y-58002438D02*
X45261904Y-58050057D01*
X45261904Y-58050057D02*
X45309523Y-58145295D01*
X45309523Y-58145295D02*
X45309523Y-58240533D01*
X45309523Y-58240533D02*
X45261904Y-58383390D01*
X45261904Y-58383390D02*
X44690476Y-58954819D01*
X44690476Y-58954819D02*
X45309523Y-58954819D01*
X45928571Y-57954819D02*
X46023809Y-57954819D01*
X46023809Y-57954819D02*
X46119047Y-58002438D01*
X46119047Y-58002438D02*
X46166666Y-58050057D01*
X46166666Y-58050057D02*
X46214285Y-58145295D01*
X46214285Y-58145295D02*
X46261904Y-58335771D01*
X46261904Y-58335771D02*
X46261904Y-58573866D01*
X46261904Y-58573866D02*
X46214285Y-58764342D01*
X46214285Y-58764342D02*
X46166666Y-58859580D01*
X46166666Y-58859580D02*
X46119047Y-58907200D01*
X46119047Y-58907200D02*
X46023809Y-58954819D01*
X46023809Y-58954819D02*
X45928571Y-58954819D01*
X45928571Y-58954819D02*
X45833333Y-58907200D01*
X45833333Y-58907200D02*
X45785714Y-58859580D01*
X45785714Y-58859580D02*
X45738095Y-58764342D01*
X45738095Y-58764342D02*
X45690476Y-58573866D01*
X45690476Y-58573866D02*
X45690476Y-58335771D01*
X45690476Y-58335771D02*
X45738095Y-58145295D01*
X45738095Y-58145295D02*
X45785714Y-58050057D01*
X45785714Y-58050057D02*
X45833333Y-58002438D01*
X45833333Y-58002438D02*
X45928571Y-57954819D01*
X49435714Y-57054819D02*
X48864286Y-57054819D01*
X49150000Y-57054819D02*
X49150000Y-56054819D01*
X49150000Y-56054819D02*
X49054762Y-56197676D01*
X49054762Y-56197676D02*
X48959524Y-56292914D01*
X48959524Y-56292914D02*
X48864286Y-56340533D01*
D12*
G04 #@! TO.C,D49*
X81350000Y-22250000D02*
X81350000Y-23400000D01*
X88650000Y-22250000D02*
X81350000Y-22250000D01*
X88650000Y-27750000D02*
X81350000Y-27750000D01*
G04 #@! TO.C,D57*
X91350000Y-92250000D02*
X91350000Y-93400000D01*
X98650000Y-92250000D02*
X91350000Y-92250000D01*
X98650000Y-97750000D02*
X91350000Y-97750000D01*
G04 #@! TO.C,D23*
X41350000Y-82250000D02*
X41350000Y-83400000D01*
X48650000Y-82250000D02*
X41350000Y-82250000D01*
X48650000Y-87750000D02*
X41350000Y-87750000D01*
G04 #@! TO.C,D38*
X61350000Y-72250000D02*
X61350000Y-73400000D01*
X68650000Y-72250000D02*
X61350000Y-72250000D01*
X68650000Y-77750000D02*
X61350000Y-77750000D01*
G04 #@! TO.C,D33*
X61350000Y-22250000D02*
X61350000Y-23400000D01*
X68650000Y-22250000D02*
X61350000Y-22250000D01*
X68650000Y-27750000D02*
X61350000Y-27750000D01*
G04 #@! TO.C,D19*
X41350000Y-42250000D02*
X41350000Y-43400000D01*
X48650000Y-42250000D02*
X41350000Y-42250000D01*
X48650000Y-47750000D02*
X41350000Y-47750000D01*
G04 #@! TO.C,D15*
X31350000Y-32250000D02*
X31350000Y-33400000D01*
X38650000Y-32250000D02*
X31350000Y-32250000D01*
X38650000Y-37750000D02*
X31350000Y-37750000D01*
G04 #@! TO.C,D50*
X81350000Y-32250000D02*
X81350000Y-33400000D01*
X88650000Y-32250000D02*
X81350000Y-32250000D01*
X88650000Y-37750000D02*
X81350000Y-37750000D01*
G04 #@! TO.C,D1*
X21350000Y-22250000D02*
X21350000Y-23400000D01*
X28650000Y-22250000D02*
X21350000Y-22250000D01*
X28650000Y-27750000D02*
X21350000Y-27750000D01*
G04 #@! TO.C,D8*
X21350000Y-92250000D02*
X21350000Y-93400000D01*
X28650000Y-92250000D02*
X21350000Y-92250000D01*
X28650000Y-97750000D02*
X21350000Y-97750000D01*
G04 #@! TO.C,D47*
X71350000Y-32250000D02*
X71350000Y-33400000D01*
X78650000Y-32250000D02*
X71350000Y-32250000D01*
X78650000Y-37750000D02*
X71350000Y-37750000D01*
G04 #@! TO.C,D53*
X81350000Y-62250000D02*
X81350000Y-63400000D01*
X88650000Y-62250000D02*
X81350000Y-62250000D01*
X88650000Y-67750000D02*
X81350000Y-67750000D01*
G04 #@! TO.C,D59*
X91350000Y-72250000D02*
X91350000Y-73400000D01*
X98650000Y-72250000D02*
X91350000Y-72250000D01*
X98650000Y-77750000D02*
X91350000Y-77750000D01*
G04 #@! TO.C,D12*
X31350000Y-62250000D02*
X31350000Y-63400000D01*
X38650000Y-62250000D02*
X31350000Y-62250000D01*
X38650000Y-67750000D02*
X31350000Y-67750000D01*
G04 #@! TO.C,D9*
X31350000Y-92250000D02*
X31350000Y-93400000D01*
X38650000Y-92250000D02*
X31350000Y-92250000D01*
X38650000Y-97750000D02*
X31350000Y-97750000D01*
G04 #@! TO.C,D30*
X51350000Y-42250000D02*
X51350000Y-43400000D01*
X58650000Y-42250000D02*
X51350000Y-42250000D01*
X58650000Y-47750000D02*
X51350000Y-47750000D01*
G04 #@! TO.C,D34*
X61350000Y-32250000D02*
X61350000Y-33400000D01*
X68650000Y-32250000D02*
X61350000Y-32250000D01*
X68650000Y-37750000D02*
X61350000Y-37750000D01*
G04 #@! TO.C,D42*
X71350000Y-82250000D02*
X71350000Y-83400000D01*
X78650000Y-82250000D02*
X71350000Y-82250000D01*
X78650000Y-87750000D02*
X71350000Y-87750000D01*
G04 #@! TO.C,D14*
X31350000Y-42250000D02*
X31350000Y-43400000D01*
X38650000Y-42250000D02*
X31350000Y-42250000D01*
X38650000Y-47750000D02*
X31350000Y-47750000D01*
G04 #@! TO.C,D26*
X51350000Y-82250000D02*
X51350000Y-83400000D01*
X58650000Y-82250000D02*
X51350000Y-82250000D01*
X58650000Y-87750000D02*
X51350000Y-87750000D01*
G04 #@! TO.C,D56*
X81350000Y-92250000D02*
X81350000Y-93400000D01*
X88650000Y-92250000D02*
X81350000Y-92250000D01*
X88650000Y-97750000D02*
X81350000Y-97750000D01*
G04 #@! TO.C,D3*
X21350000Y-42250000D02*
X21350000Y-43400000D01*
X28650000Y-42250000D02*
X21350000Y-42250000D01*
X28650000Y-47750000D02*
X21350000Y-47750000D01*
G04 #@! TO.C,D52*
X81350000Y-52250000D02*
X81350000Y-53400000D01*
X88650000Y-52250000D02*
X81350000Y-52250000D01*
X88650000Y-57750000D02*
X81350000Y-57750000D01*
G04 #@! TO.C,D36*
X61350000Y-52250000D02*
X61350000Y-53400000D01*
X68650000Y-52250000D02*
X61350000Y-52250000D01*
X68650000Y-57750000D02*
X61350000Y-57750000D01*
G04 #@! TO.C,D11*
X31350000Y-72250000D02*
X31350000Y-73400000D01*
X38650000Y-72250000D02*
X31350000Y-72250000D01*
X38650000Y-77750000D02*
X31350000Y-77750000D01*
G04 #@! TO.C,D27*
X51350000Y-72250000D02*
X51350000Y-73400000D01*
X58650000Y-72250000D02*
X51350000Y-72250000D01*
X58650000Y-77750000D02*
X51350000Y-77750000D01*
G04 #@! TO.C,D5*
X21350000Y-62250000D02*
X21350000Y-63400000D01*
X28650000Y-62250000D02*
X21350000Y-62250000D01*
X28650000Y-67750000D02*
X21350000Y-67750000D01*
G04 #@! TO.C,D32*
X51350000Y-22250000D02*
X51350000Y-23400000D01*
X58650000Y-22250000D02*
X51350000Y-22250000D01*
X58650000Y-27750000D02*
X51350000Y-27750000D01*
G04 #@! TO.C,D64*
X91350000Y-22250000D02*
X91350000Y-23400000D01*
X98650000Y-22250000D02*
X91350000Y-22250000D01*
X98650000Y-27750000D02*
X91350000Y-27750000D01*
G04 #@! TO.C,D45*
X71350000Y-52250000D02*
X71350000Y-53400000D01*
X78650000Y-52250000D02*
X71350000Y-52250000D01*
X78650000Y-57750000D02*
X71350000Y-57750000D01*
G04 #@! TO.C,D18*
X41350000Y-32250000D02*
X41350000Y-33400000D01*
X48650000Y-32250000D02*
X41350000Y-32250000D01*
X48650000Y-37750000D02*
X41350000Y-37750000D01*
G04 #@! TO.C,D62*
X91350000Y-42250000D02*
X91350000Y-43400000D01*
X98650000Y-42250000D02*
X91350000Y-42250000D01*
X98650000Y-47750000D02*
X91350000Y-47750000D01*
G04 #@! TO.C,D13*
X31350000Y-52250000D02*
X31350000Y-53400000D01*
X38650000Y-52250000D02*
X31350000Y-52250000D01*
X38650000Y-57750000D02*
X31350000Y-57750000D01*
G04 #@! TO.C,D37*
X61350000Y-62250000D02*
X61350000Y-63400000D01*
X68650000Y-62250000D02*
X61350000Y-62250000D01*
X68650000Y-67750000D02*
X61350000Y-67750000D01*
G04 #@! TO.C,D22*
X41350000Y-72250000D02*
X41350000Y-73400000D01*
X48650000Y-72250000D02*
X41350000Y-72250000D01*
X48650000Y-77750000D02*
X41350000Y-77750000D01*
G04 #@! TO.C,D43*
X71350000Y-72250000D02*
X71350000Y-73400000D01*
X78650000Y-72250000D02*
X71350000Y-72250000D01*
X78650000Y-77750000D02*
X71350000Y-77750000D01*
G04 #@! TO.C,D28*
X51350000Y-62250000D02*
X51350000Y-63400000D01*
X58650000Y-62250000D02*
X51350000Y-62250000D01*
X58650000Y-67750000D02*
X51350000Y-67750000D01*
G04 #@! TO.C,D29*
X51350000Y-52250000D02*
X51350000Y-53400000D01*
X58650000Y-52250000D02*
X51350000Y-52250000D01*
X58650000Y-57750000D02*
X51350000Y-57750000D01*
G04 #@! TO.C,D54*
X81350000Y-72250000D02*
X81350000Y-73400000D01*
X88650000Y-72250000D02*
X81350000Y-72250000D01*
X88650000Y-77750000D02*
X81350000Y-77750000D01*
G04 #@! TO.C,D41*
X71350000Y-92250000D02*
X71350000Y-93400000D01*
X78650000Y-92250000D02*
X71350000Y-92250000D01*
X78650000Y-97750000D02*
X71350000Y-97750000D01*
G04 #@! TO.C,D6*
X21350000Y-72250000D02*
X21350000Y-73400000D01*
X28650000Y-72250000D02*
X21350000Y-72250000D01*
X28650000Y-77750000D02*
X21350000Y-77750000D01*
G04 #@! TO.C,D35*
X61350000Y-42250000D02*
X61350000Y-43400000D01*
X68650000Y-42250000D02*
X61350000Y-42250000D01*
X68650000Y-47750000D02*
X61350000Y-47750000D01*
G04 #@! TO.C,D40*
X61350000Y-92250000D02*
X61350000Y-93400000D01*
X68650000Y-92250000D02*
X61350000Y-92250000D01*
X68650000Y-97750000D02*
X61350000Y-97750000D01*
G04 #@! TO.C,D58*
X91350000Y-82250000D02*
X91350000Y-83400000D01*
X98650000Y-82250000D02*
X91350000Y-82250000D01*
X98650000Y-87750000D02*
X91350000Y-87750000D01*
G04 #@! TO.C,D61*
X91350000Y-52250000D02*
X91350000Y-53400000D01*
X98650000Y-52250000D02*
X91350000Y-52250000D01*
X98650000Y-57750000D02*
X91350000Y-57750000D01*
G04 #@! TO.C,D31*
X51350000Y-32250000D02*
X51350000Y-33400000D01*
X58650000Y-32250000D02*
X51350000Y-32250000D01*
X58650000Y-37750000D02*
X51350000Y-37750000D01*
G04 #@! TO.C,D39*
X61350000Y-82250000D02*
X61350000Y-83400000D01*
X68650000Y-82250000D02*
X61350000Y-82250000D01*
X68650000Y-87750000D02*
X61350000Y-87750000D01*
G04 #@! TO.C,D16*
X31350000Y-22250000D02*
X31350000Y-23400000D01*
X38650000Y-22250000D02*
X31350000Y-22250000D01*
X38650000Y-27750000D02*
X31350000Y-27750000D01*
G04 #@! TO.C,D44*
X71350000Y-62250000D02*
X71350000Y-63400000D01*
X78650000Y-62250000D02*
X71350000Y-62250000D01*
X78650000Y-67750000D02*
X71350000Y-67750000D01*
G04 #@! TO.C,D24*
X41350000Y-92250000D02*
X41350000Y-93400000D01*
X48650000Y-92250000D02*
X41350000Y-92250000D01*
X48650000Y-97750000D02*
X41350000Y-97750000D01*
G04 #@! TO.C,D2*
X21350000Y-32250000D02*
X21350000Y-33400000D01*
X28650000Y-32250000D02*
X21350000Y-32250000D01*
X28650000Y-37750000D02*
X21350000Y-37750000D01*
G04 #@! TO.C,D4*
X21350000Y-52250000D02*
X21350000Y-53400000D01*
X28650000Y-52250000D02*
X21350000Y-52250000D01*
X28650000Y-57750000D02*
X21350000Y-57750000D01*
G04 #@! TO.C,D51*
X81350000Y-42250000D02*
X81350000Y-43400000D01*
X88650000Y-42250000D02*
X81350000Y-42250000D01*
X88650000Y-47750000D02*
X81350000Y-47750000D01*
G04 #@! TO.C,D60*
X91350000Y-62250000D02*
X91350000Y-63400000D01*
X98650000Y-62250000D02*
X91350000Y-62250000D01*
X98650000Y-67750000D02*
X91350000Y-67750000D01*
G04 #@! TO.C,D17*
X41350000Y-22250000D02*
X41350000Y-23400000D01*
X48650000Y-22250000D02*
X41350000Y-22250000D01*
X48650000Y-27750000D02*
X41350000Y-27750000D01*
G04 #@! TO.C,D48*
X71350000Y-22250000D02*
X71350000Y-23400000D01*
X78650000Y-22250000D02*
X71350000Y-22250000D01*
X78650000Y-27750000D02*
X71350000Y-27750000D01*
G04 #@! TO.C,D46*
X71350000Y-42250000D02*
X71350000Y-43400000D01*
X78650000Y-42250000D02*
X71350000Y-42250000D01*
X78650000Y-47750000D02*
X71350000Y-47750000D01*
G04 #@! TO.C,D63*
X91350000Y-32250000D02*
X91350000Y-33400000D01*
X98650000Y-32250000D02*
X91350000Y-32250000D01*
X98650000Y-37750000D02*
X91350000Y-37750000D01*
G04 #@! TO.C,D7*
X21350000Y-82250000D02*
X21350000Y-83400000D01*
X28650000Y-82250000D02*
X21350000Y-82250000D01*
X28650000Y-87750000D02*
X21350000Y-87750000D01*
G04 #@! TO.C,D21*
X41350000Y-62250000D02*
X41350000Y-63400000D01*
X48650000Y-62250000D02*
X41350000Y-62250000D01*
X48650000Y-67750000D02*
X41350000Y-67750000D01*
G04 #@! TO.C,D55*
X81350000Y-82250000D02*
X81350000Y-83400000D01*
X88650000Y-82250000D02*
X81350000Y-82250000D01*
X88650000Y-87750000D02*
X81350000Y-87750000D01*
G04 #@! TO.C,D10*
X31350000Y-82250000D02*
X31350000Y-83400000D01*
X38650000Y-82250000D02*
X31350000Y-82250000D01*
X38650000Y-87750000D02*
X31350000Y-87750000D01*
G04 #@! TO.C,D25*
X51350000Y-92250000D02*
X51350000Y-93400000D01*
X58650000Y-92250000D02*
X51350000Y-92250000D01*
X58650000Y-97750000D02*
X51350000Y-97750000D01*
G04 #@! TO.C,D20*
X41350000Y-52250000D02*
X41350000Y-53400000D01*
X48650000Y-52250000D02*
X41350000Y-52250000D01*
X48650000Y-57750000D02*
X41350000Y-57750000D01*
G04 #@! TD*
%LPC*%
D13*
G04 #@! TO.C,D49*
X87450000Y-26650000D03*
X87450000Y-23350000D03*
X82550000Y-23350000D03*
X82550000Y-26650000D03*
G04 #@! TD*
G04 #@! TO.C,D57*
X97450000Y-96650000D03*
X97450000Y-93350000D03*
X92550000Y-93350000D03*
X92550000Y-96650000D03*
G04 #@! TD*
G04 #@! TO.C,D23*
X47450000Y-86650000D03*
X47450000Y-83350000D03*
X42550000Y-83350000D03*
X42550000Y-86650000D03*
G04 #@! TD*
G04 #@! TO.C,D38*
X67450000Y-76650000D03*
X67450000Y-73350000D03*
X62550000Y-73350000D03*
X62550000Y-76650000D03*
G04 #@! TD*
G04 #@! TO.C,D33*
X67450000Y-26650000D03*
X67450000Y-23350000D03*
X62550000Y-23350000D03*
X62550000Y-26650000D03*
G04 #@! TD*
G04 #@! TO.C,D19*
X47450000Y-46650000D03*
X47450000Y-43350000D03*
X42550000Y-43350000D03*
X42550000Y-46650000D03*
G04 #@! TD*
G04 #@! TO.C,D15*
X37450000Y-36650000D03*
X37450000Y-33350000D03*
X32550000Y-33350000D03*
X32550000Y-36650000D03*
G04 #@! TD*
G04 #@! TO.C,D50*
X87450000Y-36650000D03*
X87450000Y-33350000D03*
X82550000Y-33350000D03*
X82550000Y-36650000D03*
G04 #@! TD*
G04 #@! TO.C,D1*
X27450000Y-26650000D03*
X27450000Y-23350000D03*
X22550000Y-23350000D03*
X22550000Y-26650000D03*
G04 #@! TD*
G04 #@! TO.C,D8*
X27450000Y-96650000D03*
X27450000Y-93350000D03*
X22550000Y-93350000D03*
X22550000Y-96650000D03*
G04 #@! TD*
G04 #@! TO.C,D47*
X77450000Y-36650000D03*
X77450000Y-33350000D03*
X72550000Y-33350000D03*
X72550000Y-36650000D03*
G04 #@! TD*
G04 #@! TO.C,D53*
X87450000Y-66650000D03*
X87450000Y-63350000D03*
X82550000Y-63350000D03*
X82550000Y-66650000D03*
G04 #@! TD*
G04 #@! TO.C,D59*
X97450000Y-76650000D03*
X97450000Y-73350000D03*
X92550000Y-73350000D03*
X92550000Y-76650000D03*
G04 #@! TD*
G04 #@! TO.C,D12*
X37450000Y-66650000D03*
X37450000Y-63350000D03*
X32550000Y-63350000D03*
X32550000Y-66650000D03*
G04 #@! TD*
G04 #@! TO.C,D9*
X37450000Y-96650000D03*
X37450000Y-93350000D03*
X32550000Y-93350000D03*
X32550000Y-96650000D03*
G04 #@! TD*
G04 #@! TO.C,D30*
X57450000Y-46650000D03*
X57450000Y-43350000D03*
X52550000Y-43350000D03*
X52550000Y-46650000D03*
G04 #@! TD*
G04 #@! TO.C,D34*
X67450000Y-36650000D03*
X67450000Y-33350000D03*
X62550000Y-33350000D03*
X62550000Y-36650000D03*
G04 #@! TD*
D14*
G04 #@! TO.C,5V*
X15000050Y-32500000D03*
G04 #@! TD*
D13*
G04 #@! TO.C,D42*
X77450000Y-86650000D03*
X77450000Y-83350000D03*
X72550000Y-83350000D03*
X72550000Y-86650000D03*
G04 #@! TD*
G04 #@! TO.C,D14*
X37450000Y-46650000D03*
X37450000Y-43350000D03*
X32550000Y-43350000D03*
X32550000Y-46650000D03*
G04 #@! TD*
G04 #@! TO.C,D26*
X57450000Y-86650000D03*
X57450000Y-83350000D03*
X52550000Y-83350000D03*
X52550000Y-86650000D03*
G04 #@! TD*
G04 #@! TO.C,D56*
X87450000Y-96650000D03*
X87450000Y-93350000D03*
X82550000Y-93350000D03*
X82550000Y-96650000D03*
G04 #@! TD*
G04 #@! TO.C,D3*
X27450000Y-46650000D03*
X27450000Y-43350000D03*
X22550000Y-43350000D03*
X22550000Y-46650000D03*
G04 #@! TD*
G04 #@! TO.C,D52*
X87450000Y-56650000D03*
X87450000Y-53350000D03*
X82550000Y-53350000D03*
X82550000Y-56650000D03*
G04 #@! TD*
G04 #@! TO.C,D36*
X67450000Y-56650000D03*
X67450000Y-53350000D03*
X62550000Y-53350000D03*
X62550000Y-56650000D03*
G04 #@! TD*
G04 #@! TO.C,D11*
X37450000Y-76650000D03*
X37450000Y-73350000D03*
X32550000Y-73350000D03*
X32550000Y-76650000D03*
G04 #@! TD*
G04 #@! TO.C,D27*
X57450000Y-76650000D03*
X57450000Y-73350000D03*
X52550000Y-73350000D03*
X52550000Y-76650000D03*
G04 #@! TD*
G04 #@! TO.C,D5*
X27450000Y-66650000D03*
X27450000Y-63350000D03*
X22550000Y-63350000D03*
X22550000Y-66650000D03*
G04 #@! TD*
G04 #@! TO.C,D32*
X57450000Y-26650000D03*
X57450000Y-23350000D03*
X52550000Y-23350000D03*
X52550000Y-26650000D03*
G04 #@! TD*
G04 #@! TO.C,D64*
X97450000Y-26650000D03*
X97450000Y-23350000D03*
X92550000Y-23350000D03*
X92550000Y-26650000D03*
G04 #@! TD*
D14*
G04 #@! TO.C,5V*
X105000050Y-32500000D03*
G04 #@! TD*
D13*
G04 #@! TO.C,D45*
X77450000Y-56650000D03*
X77450000Y-53350000D03*
X72550000Y-53350000D03*
X72550000Y-56650000D03*
G04 #@! TD*
G04 #@! TO.C,D18*
X47450000Y-36650000D03*
X47450000Y-33350000D03*
X42550000Y-33350000D03*
X42550000Y-36650000D03*
G04 #@! TD*
G04 #@! TO.C,D62*
X97450000Y-46650000D03*
X97450000Y-43350000D03*
X92550000Y-43350000D03*
X92550000Y-46650000D03*
G04 #@! TD*
G04 #@! TO.C,D13*
X37450000Y-56650000D03*
X37450000Y-53350000D03*
X32550000Y-53350000D03*
X32550000Y-56650000D03*
G04 #@! TD*
G04 #@! TO.C,D37*
X67450000Y-66650000D03*
X67450000Y-63350000D03*
X62550000Y-63350000D03*
X62550000Y-66650000D03*
G04 #@! TD*
G04 #@! TO.C,D22*
X47450000Y-76650000D03*
X47450000Y-73350000D03*
X42550000Y-73350000D03*
X42550000Y-76650000D03*
G04 #@! TD*
D14*
G04 #@! TO.C,Dout*
X105000000Y-25000000D03*
G04 #@! TD*
D13*
G04 #@! TO.C,D43*
X77450000Y-76650000D03*
X77450000Y-73350000D03*
X72550000Y-73350000D03*
X72550000Y-76650000D03*
G04 #@! TD*
G04 #@! TO.C,D28*
X57450000Y-66650000D03*
X57450000Y-63350000D03*
X52550000Y-63350000D03*
X52550000Y-66650000D03*
G04 #@! TD*
G04 #@! TO.C,D29*
X57450000Y-56650000D03*
X57450000Y-53350000D03*
X52550000Y-53350000D03*
X52550000Y-56650000D03*
G04 #@! TD*
G04 #@! TO.C,D54*
X87450000Y-76650000D03*
X87450000Y-73350000D03*
X82550000Y-73350000D03*
X82550000Y-76650000D03*
G04 #@! TD*
G04 #@! TO.C,D41*
X77450000Y-96650000D03*
X77450000Y-93350000D03*
X72550000Y-93350000D03*
X72550000Y-96650000D03*
G04 #@! TD*
G04 #@! TO.C,D6*
X27450000Y-76650000D03*
X27450000Y-73350000D03*
X22550000Y-73350000D03*
X22550000Y-76650000D03*
G04 #@! TD*
G04 #@! TO.C,D35*
X67450000Y-46650000D03*
X67450000Y-43350000D03*
X62550000Y-43350000D03*
X62550000Y-46650000D03*
G04 #@! TD*
G04 #@! TO.C,D40*
X67450000Y-96650000D03*
X67450000Y-93350000D03*
X62550000Y-93350000D03*
X62550000Y-96650000D03*
G04 #@! TD*
D14*
G04 #@! TO.C,TP3*
X105000050Y-17500000D03*
G04 #@! TD*
G04 #@! TO.C,GND*
X15000050Y-17500000D03*
G04 #@! TD*
D13*
G04 #@! TO.C,D58*
X97450000Y-86650000D03*
X97450000Y-83350000D03*
X92550000Y-83350000D03*
X92550000Y-86650000D03*
G04 #@! TD*
G04 #@! TO.C,D61*
X97450000Y-56650000D03*
X97450000Y-53350000D03*
X92550000Y-53350000D03*
X92550000Y-56650000D03*
G04 #@! TD*
G04 #@! TO.C,D31*
X57450000Y-36650000D03*
X57450000Y-33350000D03*
X52550000Y-33350000D03*
X52550000Y-36650000D03*
G04 #@! TD*
G04 #@! TO.C,D39*
X67450000Y-86650000D03*
X67450000Y-83350000D03*
X62550000Y-83350000D03*
X62550000Y-86650000D03*
G04 #@! TD*
D14*
G04 #@! TO.C,Din*
X15000050Y-25000000D03*
G04 #@! TD*
D13*
G04 #@! TO.C,D16*
X37450000Y-26650000D03*
X37450000Y-23350000D03*
X32550000Y-23350000D03*
X32550000Y-26650000D03*
G04 #@! TD*
G04 #@! TO.C,D44*
X77450000Y-66650000D03*
X77450000Y-63350000D03*
X72550000Y-63350000D03*
X72550000Y-66650000D03*
G04 #@! TD*
G04 #@! TO.C,D24*
X47450000Y-96650000D03*
X47450000Y-93350000D03*
X42550000Y-93350000D03*
X42550000Y-96650000D03*
G04 #@! TD*
G04 #@! TO.C,D2*
X27450000Y-36650000D03*
X27450000Y-33350000D03*
X22550000Y-33350000D03*
X22550000Y-36650000D03*
G04 #@! TD*
G04 #@! TO.C,D4*
X27450000Y-56650000D03*
X27450000Y-53350000D03*
X22550000Y-53350000D03*
X22550000Y-56650000D03*
G04 #@! TD*
G04 #@! TO.C,D51*
X87450000Y-46650000D03*
X87450000Y-43350000D03*
X82550000Y-43350000D03*
X82550000Y-46650000D03*
G04 #@! TD*
G04 #@! TO.C,D60*
X97450000Y-66650000D03*
X97450000Y-63350000D03*
X92550000Y-63350000D03*
X92550000Y-66650000D03*
G04 #@! TD*
G04 #@! TO.C,D17*
X47450000Y-26650000D03*
X47450000Y-23350000D03*
X42550000Y-23350000D03*
X42550000Y-26650000D03*
G04 #@! TD*
G04 #@! TO.C,D48*
X77450000Y-26650000D03*
X77450000Y-23350000D03*
X72550000Y-23350000D03*
X72550000Y-26650000D03*
G04 #@! TD*
G04 #@! TO.C,D46*
X77450000Y-46650000D03*
X77450000Y-43350000D03*
X72550000Y-43350000D03*
X72550000Y-46650000D03*
G04 #@! TD*
G04 #@! TO.C,D63*
X97450000Y-36650000D03*
X97450000Y-33350000D03*
X92550000Y-33350000D03*
X92550000Y-36650000D03*
G04 #@! TD*
G04 #@! TO.C,D7*
X27450000Y-86650000D03*
X27450000Y-83350000D03*
X22550000Y-83350000D03*
X22550000Y-86650000D03*
G04 #@! TD*
G04 #@! TO.C,D21*
X47450000Y-66650000D03*
X47450000Y-63350000D03*
X42550000Y-63350000D03*
X42550000Y-66650000D03*
G04 #@! TD*
G04 #@! TO.C,D55*
X87450000Y-86650000D03*
X87450000Y-83350000D03*
X82550000Y-83350000D03*
X82550000Y-86650000D03*
G04 #@! TD*
G04 #@! TO.C,D10*
X37450000Y-86650000D03*
X37450000Y-83350000D03*
X32550000Y-83350000D03*
X32550000Y-86650000D03*
G04 #@! TD*
G04 #@! TO.C,D25*
X57450000Y-96650000D03*
X57450000Y-93350000D03*
X52550000Y-93350000D03*
X52550000Y-96650000D03*
G04 #@! TD*
G04 #@! TO.C,D20*
X47450000Y-56650000D03*
X47450000Y-53350000D03*
X42550000Y-53350000D03*
X42550000Y-56650000D03*
G04 #@! TD*
%LPD*%
M02*
