G04 #@! TF.GenerationSoftware,KiCad,Pcbnew,8.0.4*
G04 #@! TF.CreationDate,2024-08-04T14:27:04+02:00*
G04 #@! TF.ProjectId,Neopixel,4e656f70-6978-4656-9c2e-6b696361645f,rev?*
G04 #@! TF.SameCoordinates,Original*
G04 #@! TF.FileFunction,Copper,L1,Top*
G04 #@! TF.FilePolarity,Positive*
%FSLAX46Y46*%
G04 Gerber Fmt 4.6, Leading zero omitted, Abs format (unit mm)*
G04 Created by KiCad (PCBNEW 8.0.4) date 2024-08-04 14:27:04*
%MOMM*%
%LPD*%
G01*
G04 APERTURE LIST*
G04 Aperture macros list*
%AMRoundRect*
0 Rectangle with rounded corners*
0 $1 Rounding radius*
0 $2 $3 $4 $5 $6 $7 $8 $9 X,Y pos of 4 corners*
0 Add a 4 corners polygon primitive as box body*
4,1,4,$2,$3,$4,$5,$6,$7,$8,$9,$2,$3,0*
0 Add four circle primitives for the rounded corners*
1,1,$1+$1,$2,$3*
1,1,$1+$1,$4,$5*
1,1,$1+$1,$6,$7*
1,1,$1+$1,$8,$9*
0 Add four rect primitives between the rounded corners*
20,1,$1+$1,$2,$3,$4,$5,0*
20,1,$1+$1,$4,$5,$6,$7,0*
20,1,$1+$1,$6,$7,$8,$9,0*
20,1,$1+$1,$8,$9,$2,$3,0*%
G04 Aperture macros list end*
G04 #@! TA.AperFunction,SMDPad,CuDef*
%ADD10R,1.500000X0.900000*%
G04 #@! TD*
G04 #@! TA.AperFunction,SMDPad,CuDef*
%ADD11RoundRect,1.250000X-1.285750X-1.250000X1.285750X-1.250000X1.285750X1.250000X-1.285750X1.250000X0*%
G04 #@! TD*
G04 #@! TA.AperFunction,Conductor*
%ADD12C,0.200000*%
G04 #@! TD*
G04 APERTURE END LIST*
D10*
G04 #@! TO.P,D49,1,VDD*
G04 #@! TO.N,+5V*
X87450000Y-26650000D03*
G04 #@! TO.P,D49,2,DOUT*
G04 #@! TO.N,Net-(D49-DOUT)*
X87450000Y-23350000D03*
G04 #@! TO.P,D49,3,VSS*
G04 #@! TO.N,GND*
X82550000Y-23350000D03*
G04 #@! TO.P,D49,4,DIN*
G04 #@! TO.N,Net-(D48-DOUT)*
X82550000Y-26650000D03*
G04 #@! TD*
G04 #@! TO.P,D57,1,VDD*
G04 #@! TO.N,+5V*
X97450000Y-96650000D03*
G04 #@! TO.P,D57,2,DOUT*
G04 #@! TO.N,Net-(D57-DOUT)*
X97450000Y-93350000D03*
G04 #@! TO.P,D57,3,VSS*
G04 #@! TO.N,GND*
X92550000Y-93350000D03*
G04 #@! TO.P,D57,4,DIN*
G04 #@! TO.N,Net-(D56-DOUT)*
X92550000Y-96650000D03*
G04 #@! TD*
G04 #@! TO.P,D23,1,VDD*
G04 #@! TO.N,+5V*
X47450000Y-86650000D03*
G04 #@! TO.P,D23,2,DOUT*
G04 #@! TO.N,Net-(D23-DOUT)*
X47450000Y-83350000D03*
G04 #@! TO.P,D23,3,VSS*
G04 #@! TO.N,GND*
X42550000Y-83350000D03*
G04 #@! TO.P,D23,4,DIN*
G04 #@! TO.N,Net-(D22-DOUT)*
X42550000Y-86650000D03*
G04 #@! TD*
G04 #@! TO.P,D38,1,VDD*
G04 #@! TO.N,+5V*
X67450000Y-76650000D03*
G04 #@! TO.P,D38,2,DOUT*
G04 #@! TO.N,Net-(D38-DOUT)*
X67450000Y-73350000D03*
G04 #@! TO.P,D38,3,VSS*
G04 #@! TO.N,GND*
X62550000Y-73350000D03*
G04 #@! TO.P,D38,4,DIN*
G04 #@! TO.N,Net-(D37-DOUT)*
X62550000Y-76650000D03*
G04 #@! TD*
G04 #@! TO.P,D33,1,VDD*
G04 #@! TO.N,+5V*
X67450000Y-26650000D03*
G04 #@! TO.P,D33,2,DOUT*
G04 #@! TO.N,Net-(D33-DOUT)*
X67450000Y-23350000D03*
G04 #@! TO.P,D33,3,VSS*
G04 #@! TO.N,GND*
X62550000Y-23350000D03*
G04 #@! TO.P,D33,4,DIN*
G04 #@! TO.N,Net-(D32-DOUT)*
X62550000Y-26650000D03*
G04 #@! TD*
G04 #@! TO.P,D19,1,VDD*
G04 #@! TO.N,+5V*
X47450000Y-46650000D03*
G04 #@! TO.P,D19,2,DOUT*
G04 #@! TO.N,Net-(D19-DOUT)*
X47450000Y-43350000D03*
G04 #@! TO.P,D19,3,VSS*
G04 #@! TO.N,GND*
X42550000Y-43350000D03*
G04 #@! TO.P,D19,4,DIN*
G04 #@! TO.N,Net-(D18-DOUT)*
X42550000Y-46650000D03*
G04 #@! TD*
G04 #@! TO.P,D15,1,VDD*
G04 #@! TO.N,+5V*
X37450000Y-36650000D03*
G04 #@! TO.P,D15,2,DOUT*
G04 #@! TO.N,Net-(D15-DOUT)*
X37450000Y-33350000D03*
G04 #@! TO.P,D15,3,VSS*
G04 #@! TO.N,GND*
X32550000Y-33350000D03*
G04 #@! TO.P,D15,4,DIN*
G04 #@! TO.N,Net-(D14-DOUT)*
X32550000Y-36650000D03*
G04 #@! TD*
G04 #@! TO.P,D50,1,VDD*
G04 #@! TO.N,+5V*
X87450000Y-36650000D03*
G04 #@! TO.P,D50,2,DOUT*
G04 #@! TO.N,Net-(D50-DOUT)*
X87450000Y-33350000D03*
G04 #@! TO.P,D50,3,VSS*
G04 #@! TO.N,GND*
X82550000Y-33350000D03*
G04 #@! TO.P,D50,4,DIN*
G04 #@! TO.N,Net-(D49-DOUT)*
X82550000Y-36650000D03*
G04 #@! TD*
G04 #@! TO.P,D1,1,VDD*
G04 #@! TO.N,+5V*
X27450000Y-26650000D03*
G04 #@! TO.P,D1,2,DOUT*
G04 #@! TO.N,Net-(D1-DOUT)*
X27450000Y-23350000D03*
G04 #@! TO.P,D1,3,VSS*
G04 #@! TO.N,GND*
X22550000Y-23350000D03*
G04 #@! TO.P,D1,4,DIN*
G04 #@! TO.N,Net-(D1-DIN)*
X22550000Y-26650000D03*
G04 #@! TD*
G04 #@! TO.P,D8,1,VDD*
G04 #@! TO.N,+5V*
X27450000Y-96650000D03*
G04 #@! TO.P,D8,2,DOUT*
G04 #@! TO.N,Net-(D8-DOUT)*
X27450000Y-93350000D03*
G04 #@! TO.P,D8,3,VSS*
G04 #@! TO.N,GND*
X22550000Y-93350000D03*
G04 #@! TO.P,D8,4,DIN*
G04 #@! TO.N,Net-(D7-DOUT)*
X22550000Y-96650000D03*
G04 #@! TD*
G04 #@! TO.P,D47,1,VDD*
G04 #@! TO.N,+5V*
X77450000Y-36650000D03*
G04 #@! TO.P,D47,2,DOUT*
G04 #@! TO.N,Net-(D47-DOUT)*
X77450000Y-33350000D03*
G04 #@! TO.P,D47,3,VSS*
G04 #@! TO.N,GND*
X72550000Y-33350000D03*
G04 #@! TO.P,D47,4,DIN*
G04 #@! TO.N,Net-(D46-DOUT)*
X72550000Y-36650000D03*
G04 #@! TD*
G04 #@! TO.P,D53,1,VDD*
G04 #@! TO.N,+5V*
X87450000Y-66650000D03*
G04 #@! TO.P,D53,2,DOUT*
G04 #@! TO.N,Net-(D53-DOUT)*
X87450000Y-63350000D03*
G04 #@! TO.P,D53,3,VSS*
G04 #@! TO.N,GND*
X82550000Y-63350000D03*
G04 #@! TO.P,D53,4,DIN*
G04 #@! TO.N,Net-(D52-DOUT)*
X82550000Y-66650000D03*
G04 #@! TD*
G04 #@! TO.P,D59,1,VDD*
G04 #@! TO.N,+5V*
X97450000Y-76650000D03*
G04 #@! TO.P,D59,2,DOUT*
G04 #@! TO.N,Net-(D59-DOUT)*
X97450000Y-73350000D03*
G04 #@! TO.P,D59,3,VSS*
G04 #@! TO.N,GND*
X92550000Y-73350000D03*
G04 #@! TO.P,D59,4,DIN*
G04 #@! TO.N,Net-(D58-DOUT)*
X92550000Y-76650000D03*
G04 #@! TD*
G04 #@! TO.P,D12,1,VDD*
G04 #@! TO.N,+5V*
X37450000Y-66650000D03*
G04 #@! TO.P,D12,2,DOUT*
G04 #@! TO.N,Net-(D12-DOUT)*
X37450000Y-63350000D03*
G04 #@! TO.P,D12,3,VSS*
G04 #@! TO.N,GND*
X32550000Y-63350000D03*
G04 #@! TO.P,D12,4,DIN*
G04 #@! TO.N,Net-(D11-DOUT)*
X32550000Y-66650000D03*
G04 #@! TD*
G04 #@! TO.P,D9,1,VDD*
G04 #@! TO.N,+5V*
X37450000Y-96650000D03*
G04 #@! TO.P,D9,2,DOUT*
G04 #@! TO.N,Net-(D10-DIN)*
X37450000Y-93350000D03*
G04 #@! TO.P,D9,3,VSS*
G04 #@! TO.N,GND*
X32550000Y-93350000D03*
G04 #@! TO.P,D9,4,DIN*
G04 #@! TO.N,Net-(D8-DOUT)*
X32550000Y-96650000D03*
G04 #@! TD*
G04 #@! TO.P,D30,1,VDD*
G04 #@! TO.N,+5V*
X57450000Y-46650000D03*
G04 #@! TO.P,D30,2,DOUT*
G04 #@! TO.N,Net-(D30-DOUT)*
X57450000Y-43350000D03*
G04 #@! TO.P,D30,3,VSS*
G04 #@! TO.N,GND*
X52550000Y-43350000D03*
G04 #@! TO.P,D30,4,DIN*
G04 #@! TO.N,Net-(D29-DOUT)*
X52550000Y-46650000D03*
G04 #@! TD*
G04 #@! TO.P,D34,1,VDD*
G04 #@! TO.N,+5V*
X67450000Y-36650000D03*
G04 #@! TO.P,D34,2,DOUT*
G04 #@! TO.N,Net-(D34-DOUT)*
X67450000Y-33350000D03*
G04 #@! TO.P,D34,3,VSS*
G04 #@! TO.N,GND*
X62550000Y-33350000D03*
G04 #@! TO.P,D34,4,DIN*
G04 #@! TO.N,Net-(D33-DOUT)*
X62550000Y-36650000D03*
G04 #@! TD*
D11*
G04 #@! TO.P,5V,1,1*
G04 #@! TO.N,+5V*
X15000050Y-32500000D03*
G04 #@! TD*
D10*
G04 #@! TO.P,D42,1,VDD*
G04 #@! TO.N,+5V*
X77450000Y-86650000D03*
G04 #@! TO.P,D42,2,DOUT*
G04 #@! TO.N,Net-(D42-DOUT)*
X77450000Y-83350000D03*
G04 #@! TO.P,D42,3,VSS*
G04 #@! TO.N,GND*
X72550000Y-83350000D03*
G04 #@! TO.P,D42,4,DIN*
G04 #@! TO.N,Net-(D41-DOUT)*
X72550000Y-86650000D03*
G04 #@! TD*
G04 #@! TO.P,D14,1,VDD*
G04 #@! TO.N,+5V*
X37450000Y-46650000D03*
G04 #@! TO.P,D14,2,DOUT*
G04 #@! TO.N,Net-(D14-DOUT)*
X37450000Y-43350000D03*
G04 #@! TO.P,D14,3,VSS*
G04 #@! TO.N,GND*
X32550000Y-43350000D03*
G04 #@! TO.P,D14,4,DIN*
G04 #@! TO.N,Net-(D13-DOUT)*
X32550000Y-46650000D03*
G04 #@! TD*
G04 #@! TO.P,D26,1,VDD*
G04 #@! TO.N,+5V*
X57450000Y-86650000D03*
G04 #@! TO.P,D26,2,DOUT*
G04 #@! TO.N,Net-(D26-DOUT)*
X57450000Y-83350000D03*
G04 #@! TO.P,D26,3,VSS*
G04 #@! TO.N,GND*
X52550000Y-83350000D03*
G04 #@! TO.P,D26,4,DIN*
G04 #@! TO.N,Net-(D25-DOUT)*
X52550000Y-86650000D03*
G04 #@! TD*
G04 #@! TO.P,D56,1,VDD*
G04 #@! TO.N,+5V*
X87450000Y-96650000D03*
G04 #@! TO.P,D56,2,DOUT*
G04 #@! TO.N,Net-(D56-DOUT)*
X87450000Y-93350000D03*
G04 #@! TO.P,D56,3,VSS*
G04 #@! TO.N,GND*
X82550000Y-93350000D03*
G04 #@! TO.P,D56,4,DIN*
G04 #@! TO.N,Net-(D55-DOUT)*
X82550000Y-96650000D03*
G04 #@! TD*
G04 #@! TO.P,D3,1,VDD*
G04 #@! TO.N,+5V*
X27450000Y-46650000D03*
G04 #@! TO.P,D3,2,DOUT*
G04 #@! TO.N,Net-(D3-DOUT)*
X27450000Y-43350000D03*
G04 #@! TO.P,D3,3,VSS*
G04 #@! TO.N,GND*
X22550000Y-43350000D03*
G04 #@! TO.P,D3,4,DIN*
G04 #@! TO.N,Net-(D2-DOUT)*
X22550000Y-46650000D03*
G04 #@! TD*
G04 #@! TO.P,D52,1,VDD*
G04 #@! TO.N,+5V*
X87450000Y-56650000D03*
G04 #@! TO.P,D52,2,DOUT*
G04 #@! TO.N,Net-(D52-DOUT)*
X87450000Y-53350000D03*
G04 #@! TO.P,D52,3,VSS*
G04 #@! TO.N,GND*
X82550000Y-53350000D03*
G04 #@! TO.P,D52,4,DIN*
G04 #@! TO.N,Net-(D51-DOUT)*
X82550000Y-56650000D03*
G04 #@! TD*
G04 #@! TO.P,D36,1,VDD*
G04 #@! TO.N,+5V*
X67450000Y-56650000D03*
G04 #@! TO.P,D36,2,DOUT*
G04 #@! TO.N,Net-(D36-DOUT)*
X67450000Y-53350000D03*
G04 #@! TO.P,D36,3,VSS*
G04 #@! TO.N,GND*
X62550000Y-53350000D03*
G04 #@! TO.P,D36,4,DIN*
G04 #@! TO.N,Net-(D35-DOUT)*
X62550000Y-56650000D03*
G04 #@! TD*
G04 #@! TO.P,D11,1,VDD*
G04 #@! TO.N,+5V*
X37450000Y-76650000D03*
G04 #@! TO.P,D11,2,DOUT*
G04 #@! TO.N,Net-(D11-DOUT)*
X37450000Y-73350000D03*
G04 #@! TO.P,D11,3,VSS*
G04 #@! TO.N,GND*
X32550000Y-73350000D03*
G04 #@! TO.P,D11,4,DIN*
G04 #@! TO.N,Net-(D10-DOUT)*
X32550000Y-76650000D03*
G04 #@! TD*
G04 #@! TO.P,D27,1,VDD*
G04 #@! TO.N,+5V*
X57450000Y-76650000D03*
G04 #@! TO.P,D27,2,DOUT*
G04 #@! TO.N,Net-(D27-DOUT)*
X57450000Y-73350000D03*
G04 #@! TO.P,D27,3,VSS*
G04 #@! TO.N,GND*
X52550000Y-73350000D03*
G04 #@! TO.P,D27,4,DIN*
G04 #@! TO.N,Net-(D26-DOUT)*
X52550000Y-76650000D03*
G04 #@! TD*
G04 #@! TO.P,D5,1,VDD*
G04 #@! TO.N,+5V*
X27450000Y-66650000D03*
G04 #@! TO.P,D5,2,DOUT*
G04 #@! TO.N,Net-(D5-DOUT)*
X27450000Y-63350000D03*
G04 #@! TO.P,D5,3,VSS*
G04 #@! TO.N,GND*
X22550000Y-63350000D03*
G04 #@! TO.P,D5,4,DIN*
G04 #@! TO.N,Net-(D4-DOUT)*
X22550000Y-66650000D03*
G04 #@! TD*
G04 #@! TO.P,D32,1,VDD*
G04 #@! TO.N,+5V*
X57450000Y-26650000D03*
G04 #@! TO.P,D32,2,DOUT*
G04 #@! TO.N,Net-(D32-DOUT)*
X57450000Y-23350000D03*
G04 #@! TO.P,D32,3,VSS*
G04 #@! TO.N,GND*
X52550000Y-23350000D03*
G04 #@! TO.P,D32,4,DIN*
G04 #@! TO.N,Net-(D31-DOUT)*
X52550000Y-26650000D03*
G04 #@! TD*
G04 #@! TO.P,D64,1,VDD*
G04 #@! TO.N,+5V*
X97450000Y-26650000D03*
G04 #@! TO.P,D64,2,DOUT*
G04 #@! TO.N,Net-(D64-DOUT)*
X97450000Y-23350000D03*
G04 #@! TO.P,D64,3,VSS*
G04 #@! TO.N,GND*
X92550000Y-23350000D03*
G04 #@! TO.P,D64,4,DIN*
G04 #@! TO.N,Net-(D63-DOUT)*
X92550000Y-26650000D03*
G04 #@! TD*
D11*
G04 #@! TO.P,5V,1,1*
G04 #@! TO.N,+5V*
X105000050Y-32500000D03*
G04 #@! TD*
D10*
G04 #@! TO.P,D45,1,VDD*
G04 #@! TO.N,+5V*
X77450000Y-56650000D03*
G04 #@! TO.P,D45,2,DOUT*
G04 #@! TO.N,Net-(D45-DOUT)*
X77450000Y-53350000D03*
G04 #@! TO.P,D45,3,VSS*
G04 #@! TO.N,GND*
X72550000Y-53350000D03*
G04 #@! TO.P,D45,4,DIN*
G04 #@! TO.N,Net-(D44-DOUT)*
X72550000Y-56650000D03*
G04 #@! TD*
G04 #@! TO.P,D18,1,VDD*
G04 #@! TO.N,+5V*
X47450000Y-36650000D03*
G04 #@! TO.P,D18,2,DOUT*
G04 #@! TO.N,Net-(D18-DOUT)*
X47450000Y-33350000D03*
G04 #@! TO.P,D18,3,VSS*
G04 #@! TO.N,GND*
X42550000Y-33350000D03*
G04 #@! TO.P,D18,4,DIN*
G04 #@! TO.N,Net-(D17-DOUT)*
X42550000Y-36650000D03*
G04 #@! TD*
G04 #@! TO.P,D62,1,VDD*
G04 #@! TO.N,+5V*
X97450000Y-46650000D03*
G04 #@! TO.P,D62,2,DOUT*
G04 #@! TO.N,Net-(D62-DOUT)*
X97450000Y-43350000D03*
G04 #@! TO.P,D62,3,VSS*
G04 #@! TO.N,GND*
X92550000Y-43350000D03*
G04 #@! TO.P,D62,4,DIN*
G04 #@! TO.N,Net-(D61-DOUT)*
X92550000Y-46650000D03*
G04 #@! TD*
G04 #@! TO.P,D13,1,VDD*
G04 #@! TO.N,+5V*
X37450000Y-56650000D03*
G04 #@! TO.P,D13,2,DOUT*
G04 #@! TO.N,Net-(D13-DOUT)*
X37450000Y-53350000D03*
G04 #@! TO.P,D13,3,VSS*
G04 #@! TO.N,GND*
X32550000Y-53350000D03*
G04 #@! TO.P,D13,4,DIN*
G04 #@! TO.N,Net-(D12-DOUT)*
X32550000Y-56650000D03*
G04 #@! TD*
G04 #@! TO.P,D37,1,VDD*
G04 #@! TO.N,+5V*
X67450000Y-66650000D03*
G04 #@! TO.P,D37,2,DOUT*
G04 #@! TO.N,Net-(D37-DOUT)*
X67450000Y-63350000D03*
G04 #@! TO.P,D37,3,VSS*
G04 #@! TO.N,GND*
X62550000Y-63350000D03*
G04 #@! TO.P,D37,4,DIN*
G04 #@! TO.N,Net-(D36-DOUT)*
X62550000Y-66650000D03*
G04 #@! TD*
G04 #@! TO.P,D22,1,VDD*
G04 #@! TO.N,+5V*
X47450000Y-76650000D03*
G04 #@! TO.P,D22,2,DOUT*
G04 #@! TO.N,Net-(D22-DOUT)*
X47450000Y-73350000D03*
G04 #@! TO.P,D22,3,VSS*
G04 #@! TO.N,GND*
X42550000Y-73350000D03*
G04 #@! TO.P,D22,4,DIN*
G04 #@! TO.N,Net-(D21-DOUT)*
X42550000Y-76650000D03*
G04 #@! TD*
D11*
G04 #@! TO.P,Dout,1,1*
G04 #@! TO.N,Net-(D64-DOUT)*
X105000000Y-25000000D03*
G04 #@! TD*
D10*
G04 #@! TO.P,D43,1,VDD*
G04 #@! TO.N,+5V*
X77450000Y-76650000D03*
G04 #@! TO.P,D43,2,DOUT*
G04 #@! TO.N,Net-(D43-DOUT)*
X77450000Y-73350000D03*
G04 #@! TO.P,D43,3,VSS*
G04 #@! TO.N,GND*
X72550000Y-73350000D03*
G04 #@! TO.P,D43,4,DIN*
G04 #@! TO.N,Net-(D42-DOUT)*
X72550000Y-76650000D03*
G04 #@! TD*
G04 #@! TO.P,D28,1,VDD*
G04 #@! TO.N,+5V*
X57450000Y-66650000D03*
G04 #@! TO.P,D28,2,DOUT*
G04 #@! TO.N,Net-(D28-DOUT)*
X57450000Y-63350000D03*
G04 #@! TO.P,D28,3,VSS*
G04 #@! TO.N,GND*
X52550000Y-63350000D03*
G04 #@! TO.P,D28,4,DIN*
G04 #@! TO.N,Net-(D27-DOUT)*
X52550000Y-66650000D03*
G04 #@! TD*
G04 #@! TO.P,D29,1,VDD*
G04 #@! TO.N,+5V*
X57450000Y-56650000D03*
G04 #@! TO.P,D29,2,DOUT*
G04 #@! TO.N,Net-(D29-DOUT)*
X57450000Y-53350000D03*
G04 #@! TO.P,D29,3,VSS*
G04 #@! TO.N,GND*
X52550000Y-53350000D03*
G04 #@! TO.P,D29,4,DIN*
G04 #@! TO.N,Net-(D28-DOUT)*
X52550000Y-56650000D03*
G04 #@! TD*
G04 #@! TO.P,D54,1,VDD*
G04 #@! TO.N,+5V*
X87450000Y-76650000D03*
G04 #@! TO.P,D54,2,DOUT*
G04 #@! TO.N,Net-(D54-DOUT)*
X87450000Y-73350000D03*
G04 #@! TO.P,D54,3,VSS*
G04 #@! TO.N,GND*
X82550000Y-73350000D03*
G04 #@! TO.P,D54,4,DIN*
G04 #@! TO.N,Net-(D53-DOUT)*
X82550000Y-76650000D03*
G04 #@! TD*
G04 #@! TO.P,D41,1,VDD*
G04 #@! TO.N,+5V*
X77450000Y-96650000D03*
G04 #@! TO.P,D41,2,DOUT*
G04 #@! TO.N,Net-(D41-DOUT)*
X77450000Y-93350000D03*
G04 #@! TO.P,D41,3,VSS*
G04 #@! TO.N,GND*
X72550000Y-93350000D03*
G04 #@! TO.P,D41,4,DIN*
G04 #@! TO.N,Net-(D40-DOUT)*
X72550000Y-96650000D03*
G04 #@! TD*
G04 #@! TO.P,D6,1,VDD*
G04 #@! TO.N,+5V*
X27450000Y-76650000D03*
G04 #@! TO.P,D6,2,DOUT*
G04 #@! TO.N,Net-(D6-DOUT)*
X27450000Y-73350000D03*
G04 #@! TO.P,D6,3,VSS*
G04 #@! TO.N,GND*
X22550000Y-73350000D03*
G04 #@! TO.P,D6,4,DIN*
G04 #@! TO.N,Net-(D5-DOUT)*
X22550000Y-76650000D03*
G04 #@! TD*
G04 #@! TO.P,D35,1,VDD*
G04 #@! TO.N,+5V*
X67450000Y-46650000D03*
G04 #@! TO.P,D35,2,DOUT*
G04 #@! TO.N,Net-(D35-DOUT)*
X67450000Y-43350000D03*
G04 #@! TO.P,D35,3,VSS*
G04 #@! TO.N,GND*
X62550000Y-43350000D03*
G04 #@! TO.P,D35,4,DIN*
G04 #@! TO.N,Net-(D34-DOUT)*
X62550000Y-46650000D03*
G04 #@! TD*
G04 #@! TO.P,D40,1,VDD*
G04 #@! TO.N,+5V*
X67450000Y-96650000D03*
G04 #@! TO.P,D40,2,DOUT*
G04 #@! TO.N,Net-(D40-DOUT)*
X67450000Y-93350000D03*
G04 #@! TO.P,D40,3,VSS*
G04 #@! TO.N,GND*
X62550000Y-93350000D03*
G04 #@! TO.P,D40,4,DIN*
G04 #@! TO.N,Net-(D39-DOUT)*
X62550000Y-96650000D03*
G04 #@! TD*
D11*
G04 #@! TO.P,TP3,1,1*
G04 #@! TO.N,GND*
X105000050Y-17500000D03*
G04 #@! TD*
G04 #@! TO.P,GND,1,1*
G04 #@! TO.N,GND*
X15000050Y-17500000D03*
G04 #@! TD*
D10*
G04 #@! TO.P,D58,1,VDD*
G04 #@! TO.N,+5V*
X97450000Y-86650000D03*
G04 #@! TO.P,D58,2,DOUT*
G04 #@! TO.N,Net-(D58-DOUT)*
X97450000Y-83350000D03*
G04 #@! TO.P,D58,3,VSS*
G04 #@! TO.N,GND*
X92550000Y-83350000D03*
G04 #@! TO.P,D58,4,DIN*
G04 #@! TO.N,Net-(D57-DOUT)*
X92550000Y-86650000D03*
G04 #@! TD*
G04 #@! TO.P,D61,1,VDD*
G04 #@! TO.N,+5V*
X97450000Y-56650000D03*
G04 #@! TO.P,D61,2,DOUT*
G04 #@! TO.N,Net-(D61-DOUT)*
X97450000Y-53350000D03*
G04 #@! TO.P,D61,3,VSS*
G04 #@! TO.N,GND*
X92550000Y-53350000D03*
G04 #@! TO.P,D61,4,DIN*
G04 #@! TO.N,Net-(D60-DOUT)*
X92550000Y-56650000D03*
G04 #@! TD*
G04 #@! TO.P,D31,1,VDD*
G04 #@! TO.N,+5V*
X57450000Y-36650000D03*
G04 #@! TO.P,D31,2,DOUT*
G04 #@! TO.N,Net-(D31-DOUT)*
X57450000Y-33350000D03*
G04 #@! TO.P,D31,3,VSS*
G04 #@! TO.N,GND*
X52550000Y-33350000D03*
G04 #@! TO.P,D31,4,DIN*
G04 #@! TO.N,Net-(D30-DOUT)*
X52550000Y-36650000D03*
G04 #@! TD*
G04 #@! TO.P,D39,1,VDD*
G04 #@! TO.N,+5V*
X67450000Y-86650000D03*
G04 #@! TO.P,D39,2,DOUT*
G04 #@! TO.N,Net-(D39-DOUT)*
X67450000Y-83350000D03*
G04 #@! TO.P,D39,3,VSS*
G04 #@! TO.N,GND*
X62550000Y-83350000D03*
G04 #@! TO.P,D39,4,DIN*
G04 #@! TO.N,Net-(D38-DOUT)*
X62550000Y-86650000D03*
G04 #@! TD*
D11*
G04 #@! TO.P,Din,1,1*
G04 #@! TO.N,Net-(D1-DIN)*
X15000050Y-25000000D03*
G04 #@! TD*
D10*
G04 #@! TO.P,D16,1,VDD*
G04 #@! TO.N,+5V*
X37450000Y-26650000D03*
G04 #@! TO.P,D16,2,DOUT*
G04 #@! TO.N,Net-(D16-DOUT)*
X37450000Y-23350000D03*
G04 #@! TO.P,D16,3,VSS*
G04 #@! TO.N,GND*
X32550000Y-23350000D03*
G04 #@! TO.P,D16,4,DIN*
G04 #@! TO.N,Net-(D15-DOUT)*
X32550000Y-26650000D03*
G04 #@! TD*
G04 #@! TO.P,D44,1,VDD*
G04 #@! TO.N,+5V*
X77450000Y-66650000D03*
G04 #@! TO.P,D44,2,DOUT*
G04 #@! TO.N,Net-(D44-DOUT)*
X77450000Y-63350000D03*
G04 #@! TO.P,D44,3,VSS*
G04 #@! TO.N,GND*
X72550000Y-63350000D03*
G04 #@! TO.P,D44,4,DIN*
G04 #@! TO.N,Net-(D43-DOUT)*
X72550000Y-66650000D03*
G04 #@! TD*
G04 #@! TO.P,D24,1,VDD*
G04 #@! TO.N,+5V*
X47450000Y-96650000D03*
G04 #@! TO.P,D24,2,DOUT*
G04 #@! TO.N,Net-(D24-DOUT)*
X47450000Y-93350000D03*
G04 #@! TO.P,D24,3,VSS*
G04 #@! TO.N,GND*
X42550000Y-93350000D03*
G04 #@! TO.P,D24,4,DIN*
G04 #@! TO.N,Net-(D23-DOUT)*
X42550000Y-96650000D03*
G04 #@! TD*
G04 #@! TO.P,D2,1,VDD*
G04 #@! TO.N,+5V*
X27450000Y-36650000D03*
G04 #@! TO.P,D2,2,DOUT*
G04 #@! TO.N,Net-(D2-DOUT)*
X27450000Y-33350000D03*
G04 #@! TO.P,D2,3,VSS*
G04 #@! TO.N,GND*
X22550000Y-33350000D03*
G04 #@! TO.P,D2,4,DIN*
G04 #@! TO.N,Net-(D1-DOUT)*
X22550000Y-36650000D03*
G04 #@! TD*
G04 #@! TO.P,D4,1,VDD*
G04 #@! TO.N,+5V*
X27450000Y-56650000D03*
G04 #@! TO.P,D4,2,DOUT*
G04 #@! TO.N,Net-(D4-DOUT)*
X27450000Y-53350000D03*
G04 #@! TO.P,D4,3,VSS*
G04 #@! TO.N,GND*
X22550000Y-53350000D03*
G04 #@! TO.P,D4,4,DIN*
G04 #@! TO.N,Net-(D3-DOUT)*
X22550000Y-56650000D03*
G04 #@! TD*
G04 #@! TO.P,D51,1,VDD*
G04 #@! TO.N,+5V*
X87450000Y-46650000D03*
G04 #@! TO.P,D51,2,DOUT*
G04 #@! TO.N,Net-(D51-DOUT)*
X87450000Y-43350000D03*
G04 #@! TO.P,D51,3,VSS*
G04 #@! TO.N,GND*
X82550000Y-43350000D03*
G04 #@! TO.P,D51,4,DIN*
G04 #@! TO.N,Net-(D50-DOUT)*
X82550000Y-46650000D03*
G04 #@! TD*
G04 #@! TO.P,D60,1,VDD*
G04 #@! TO.N,+5V*
X97450000Y-66650000D03*
G04 #@! TO.P,D60,2,DOUT*
G04 #@! TO.N,Net-(D60-DOUT)*
X97450000Y-63350000D03*
G04 #@! TO.P,D60,3,VSS*
G04 #@! TO.N,GND*
X92550000Y-63350000D03*
G04 #@! TO.P,D60,4,DIN*
G04 #@! TO.N,Net-(D59-DOUT)*
X92550000Y-66650000D03*
G04 #@! TD*
G04 #@! TO.P,D17,1,VDD*
G04 #@! TO.N,+5V*
X47450000Y-26650000D03*
G04 #@! TO.P,D17,2,DOUT*
G04 #@! TO.N,Net-(D17-DOUT)*
X47450000Y-23350000D03*
G04 #@! TO.P,D17,3,VSS*
G04 #@! TO.N,GND*
X42550000Y-23350000D03*
G04 #@! TO.P,D17,4,DIN*
G04 #@! TO.N,Net-(D16-DOUT)*
X42550000Y-26650000D03*
G04 #@! TD*
G04 #@! TO.P,D48,1,VDD*
G04 #@! TO.N,+5V*
X77450000Y-26650000D03*
G04 #@! TO.P,D48,2,DOUT*
G04 #@! TO.N,Net-(D48-DOUT)*
X77450000Y-23350000D03*
G04 #@! TO.P,D48,3,VSS*
G04 #@! TO.N,GND*
X72550000Y-23350000D03*
G04 #@! TO.P,D48,4,DIN*
G04 #@! TO.N,Net-(D47-DOUT)*
X72550000Y-26650000D03*
G04 #@! TD*
G04 #@! TO.P,D46,1,VDD*
G04 #@! TO.N,+5V*
X77450000Y-46650000D03*
G04 #@! TO.P,D46,2,DOUT*
G04 #@! TO.N,Net-(D46-DOUT)*
X77450000Y-43350000D03*
G04 #@! TO.P,D46,3,VSS*
G04 #@! TO.N,GND*
X72550000Y-43350000D03*
G04 #@! TO.P,D46,4,DIN*
G04 #@! TO.N,Net-(D45-DOUT)*
X72550000Y-46650000D03*
G04 #@! TD*
G04 #@! TO.P,D63,1,VDD*
G04 #@! TO.N,+5V*
X97450000Y-36650000D03*
G04 #@! TO.P,D63,2,DOUT*
G04 #@! TO.N,Net-(D63-DOUT)*
X97450000Y-33350000D03*
G04 #@! TO.P,D63,3,VSS*
G04 #@! TO.N,GND*
X92550000Y-33350000D03*
G04 #@! TO.P,D63,4,DIN*
G04 #@! TO.N,Net-(D62-DOUT)*
X92550000Y-36650000D03*
G04 #@! TD*
G04 #@! TO.P,D7,1,VDD*
G04 #@! TO.N,+5V*
X27450000Y-86650000D03*
G04 #@! TO.P,D7,2,DOUT*
G04 #@! TO.N,Net-(D7-DOUT)*
X27450000Y-83350000D03*
G04 #@! TO.P,D7,3,VSS*
G04 #@! TO.N,GND*
X22550000Y-83350000D03*
G04 #@! TO.P,D7,4,DIN*
G04 #@! TO.N,Net-(D6-DOUT)*
X22550000Y-86650000D03*
G04 #@! TD*
G04 #@! TO.P,D21,1,VDD*
G04 #@! TO.N,+5V*
X47450000Y-66650000D03*
G04 #@! TO.P,D21,2,DOUT*
G04 #@! TO.N,Net-(D21-DOUT)*
X47450000Y-63350000D03*
G04 #@! TO.P,D21,3,VSS*
G04 #@! TO.N,GND*
X42550000Y-63350000D03*
G04 #@! TO.P,D21,4,DIN*
G04 #@! TO.N,Net-(D20-DOUT)*
X42550000Y-66650000D03*
G04 #@! TD*
G04 #@! TO.P,D55,1,VDD*
G04 #@! TO.N,+5V*
X87450000Y-86650000D03*
G04 #@! TO.P,D55,2,DOUT*
G04 #@! TO.N,Net-(D55-DOUT)*
X87450000Y-83350000D03*
G04 #@! TO.P,D55,3,VSS*
G04 #@! TO.N,GND*
X82550000Y-83350000D03*
G04 #@! TO.P,D55,4,DIN*
G04 #@! TO.N,Net-(D54-DOUT)*
X82550000Y-86650000D03*
G04 #@! TD*
G04 #@! TO.P,D10,1,VDD*
G04 #@! TO.N,+5V*
X37450000Y-86650000D03*
G04 #@! TO.P,D10,2,DOUT*
G04 #@! TO.N,Net-(D10-DOUT)*
X37450000Y-83350000D03*
G04 #@! TO.P,D10,3,VSS*
G04 #@! TO.N,GND*
X32550000Y-83350000D03*
G04 #@! TO.P,D10,4,DIN*
G04 #@! TO.N,Net-(D10-DIN)*
X32550000Y-86650000D03*
G04 #@! TD*
G04 #@! TO.P,D25,1,VDD*
G04 #@! TO.N,+5V*
X57450000Y-96650000D03*
G04 #@! TO.P,D25,2,DOUT*
G04 #@! TO.N,Net-(D25-DOUT)*
X57450000Y-93350000D03*
G04 #@! TO.P,D25,3,VSS*
G04 #@! TO.N,GND*
X52550000Y-93350000D03*
G04 #@! TO.P,D25,4,DIN*
G04 #@! TO.N,Net-(D24-DOUT)*
X52550000Y-96650000D03*
G04 #@! TD*
G04 #@! TO.P,D20,1,VDD*
G04 #@! TO.N,+5V*
X47450000Y-56650000D03*
G04 #@! TO.P,D20,2,DOUT*
G04 #@! TO.N,Net-(D20-DOUT)*
X47450000Y-53350000D03*
G04 #@! TO.P,D20,3,VSS*
G04 #@! TO.N,GND*
X42550000Y-53350000D03*
G04 #@! TO.P,D20,4,DIN*
G04 #@! TO.N,Net-(D19-DOUT)*
X42550000Y-56650000D03*
G04 #@! TD*
D12*
G04 #@! TO.N,+5V*
X87450000Y-96650000D02*
X86398300Y-96650000D01*
X27450000Y-96650000D02*
X28501700Y-96650000D01*
X69253400Y-77403200D02*
X70758300Y-75898300D01*
X58501700Y-96650000D02*
X59269600Y-97417900D01*
X88501700Y-86650000D02*
X89253400Y-85898300D01*
X87450000Y-86650000D02*
X88501700Y-86650000D01*
X97024200Y-26650000D02*
X102650600Y-32276400D01*
X77450000Y-66650000D02*
X78501700Y-66650000D01*
X68500200Y-76650000D02*
X69253400Y-77403200D01*
X98501700Y-36650700D02*
X98501700Y-46650000D01*
X37450000Y-56650000D02*
X36398300Y-56650000D01*
X98501700Y-66650000D02*
X98501700Y-56650000D01*
X95646600Y-25898300D02*
X89253400Y-25898300D01*
X87450000Y-46650000D02*
X88501700Y-46650000D01*
X87450000Y-26650000D02*
X88501700Y-26650000D01*
X95646600Y-97401700D02*
X96398300Y-96650000D01*
X98500600Y-36650000D02*
X98501000Y-36650000D01*
X68339000Y-22598300D02*
X71384900Y-25644200D01*
X77450000Y-86650000D02*
X76398300Y-86650000D01*
X95646600Y-85898300D02*
X96398300Y-86650000D01*
X89253400Y-25898300D02*
X88501700Y-26650000D01*
X48501700Y-65146600D02*
X49253400Y-65898300D01*
X69253400Y-97401700D02*
X68501700Y-96650000D01*
X49253400Y-35898300D02*
X48501700Y-36650000D01*
X48501700Y-46650000D02*
X49252700Y-47401000D01*
X66398300Y-22775000D02*
X66575000Y-22598300D01*
X49253400Y-45898300D02*
X55646600Y-45898300D01*
X33607300Y-50949300D02*
X30100100Y-47442100D01*
X68501700Y-36650000D02*
X70151700Y-35000000D01*
X28400900Y-76650000D02*
X28500200Y-76650000D01*
X55646600Y-35898300D02*
X49253400Y-35898300D01*
X66398300Y-26650000D02*
X65646600Y-27401700D01*
X98400900Y-86650000D02*
X98500200Y-86650000D01*
X33607300Y-54724100D02*
X34472400Y-54724100D01*
X47450000Y-96650000D02*
X48501700Y-96650000D01*
X48501700Y-46650000D02*
X49253400Y-45898300D01*
X30100100Y-47442100D02*
X31643900Y-45898300D01*
X55646600Y-55898300D02*
X56398300Y-56650000D01*
X29253400Y-65898300D02*
X28501700Y-66650000D01*
X70252800Y-44898900D02*
X68501700Y-46650000D01*
X35646600Y-75898300D02*
X36398300Y-76650000D01*
X59253400Y-27401700D02*
X58501700Y-26650000D01*
X67450000Y-86650000D02*
X66398300Y-86650000D01*
X28378500Y-32547800D02*
X29255100Y-33424400D01*
X98501700Y-86648500D02*
X98501700Y-76650000D01*
X89253400Y-55898300D02*
X88501700Y-56650000D01*
X70151700Y-35000000D02*
X71384900Y-35000000D01*
X97450000Y-46650000D02*
X98501700Y-46650000D01*
X31643900Y-45898300D02*
X35646600Y-45898300D01*
X27450000Y-76650000D02*
X28400900Y-76650000D01*
X23469200Y-37430000D02*
X24561600Y-36337600D01*
X55646600Y-97401700D02*
X49253400Y-97401700D01*
X47450000Y-96650000D02*
X46498300Y-96650000D01*
X49253400Y-37401700D02*
X48501700Y-36650000D01*
X29253400Y-85898300D02*
X29253400Y-77401700D01*
X67450000Y-96650000D02*
X66398300Y-96650000D01*
X30427600Y-54724100D02*
X33607300Y-54724100D01*
X77450000Y-96650000D02*
X78501700Y-96650000D01*
X37450000Y-96650000D02*
X38501700Y-96650000D01*
X47450000Y-76650000D02*
X48501700Y-76650000D01*
X50756800Y-25898300D02*
X49253400Y-27401700D01*
X49253400Y-65898300D02*
X55646600Y-65898300D01*
X46398300Y-96649800D02*
X45646400Y-97401700D01*
X28500200Y-76650000D02*
X28501700Y-76650000D01*
X88501700Y-36650000D02*
X88501700Y-46650000D01*
X47450000Y-26650000D02*
X48501700Y-26650000D01*
X27450000Y-66650000D02*
X28501700Y-66650000D01*
X56924200Y-76650000D02*
X56398300Y-76650000D01*
X27450000Y-36650000D02*
X28400900Y-36650000D01*
X28501700Y-66650000D02*
X29251900Y-67400200D01*
X89253400Y-85898300D02*
X95646600Y-85898300D01*
X69253400Y-85898300D02*
X75646600Y-85898300D01*
X28501700Y-46648500D02*
X28500200Y-46650000D01*
X75646600Y-75898300D02*
X76398300Y-76650000D01*
X29253400Y-97401700D02*
X35646600Y-97401700D01*
X19930100Y-37430000D02*
X23469200Y-37430000D01*
X75646600Y-25898300D02*
X76398300Y-26650000D01*
X29253400Y-65898300D02*
X29253400Y-57401700D01*
X37450000Y-76650000D02*
X36398300Y-76650000D01*
X45646400Y-97401700D02*
X39253400Y-97401700D01*
X37450000Y-86650000D02*
X36398300Y-86650000D01*
X97024200Y-26650000D02*
X96398300Y-26650000D01*
X96398300Y-26650000D02*
X95646600Y-25898300D01*
X27450000Y-86650000D02*
X26398300Y-86650000D01*
X30100100Y-47442100D02*
X29292300Y-47442100D01*
X57450000Y-46650000D02*
X56398300Y-46650000D01*
X49252700Y-55898300D02*
X55646600Y-55898300D01*
X29251900Y-67400200D02*
X29251900Y-75898300D01*
X71384900Y-25898300D02*
X71384900Y-35000000D01*
X67450000Y-56650000D02*
X68501700Y-56650000D01*
X57975900Y-96650000D02*
X58501700Y-96650000D01*
X56398300Y-36650000D02*
X55646600Y-35898300D01*
X74748300Y-35000000D02*
X76398300Y-36650000D01*
X95646600Y-55898300D02*
X96398300Y-56650000D01*
X29251900Y-75898300D02*
X35646600Y-75898300D01*
X76398300Y-46650000D02*
X74647200Y-44898900D01*
X29253400Y-77401700D02*
X28501700Y-76650000D01*
X76924200Y-96650000D02*
X77450000Y-96650000D01*
X75646600Y-85898300D02*
X76398300Y-86650000D01*
X68501700Y-46650000D02*
X68501700Y-55876600D01*
X68501700Y-55876600D02*
X68501700Y-56650000D01*
X35646600Y-45898300D02*
X36398300Y-46650000D01*
X77450000Y-56650000D02*
X76398300Y-56650000D01*
X97450000Y-86650000D02*
X98400900Y-86650000D01*
X97450000Y-36650000D02*
X98400900Y-36650000D01*
X102650600Y-32276400D02*
X102650600Y-32500000D01*
X21498300Y-91550000D02*
X21498300Y-93949700D01*
X70252800Y-38401100D02*
X68501700Y-36650000D01*
X55646600Y-85898300D02*
X49253400Y-85898300D01*
X27450000Y-46650000D02*
X28500200Y-46650000D01*
X97450000Y-76650000D02*
X98501700Y-76650000D01*
X49253400Y-77401700D02*
X50756800Y-75898300D01*
X47450000Y-86650000D02*
X48501700Y-86650000D01*
X56398300Y-96650000D02*
X55646600Y-97401700D01*
X98501000Y-36650000D02*
X98501700Y-36650700D01*
X98501700Y-56648500D02*
X98501700Y-46650000D01*
X65630400Y-97417900D02*
X66398300Y-96650000D01*
X48501000Y-56650000D02*
X49252700Y-55898300D01*
X56398300Y-86650000D02*
X55646600Y-85898300D01*
X36398300Y-66650000D02*
X35646600Y-65898300D01*
X50756800Y-75898300D02*
X55646600Y-75898300D01*
X86398300Y-66650000D02*
X85646600Y-67401700D01*
X56924200Y-76650000D02*
X57450000Y-76650000D01*
X47450000Y-46650000D02*
X48501700Y-46650000D01*
X28500200Y-76650000D02*
X29251900Y-75898300D01*
X49253400Y-45898300D02*
X49253400Y-37401700D01*
X67450000Y-76650000D02*
X68400900Y-76650000D01*
X97450000Y-96650000D02*
X97025000Y-96650000D01*
X46398300Y-96649800D02*
X46398300Y-86650000D01*
X66398300Y-66650000D02*
X66398300Y-56650000D01*
X68501700Y-86650000D02*
X69253400Y-85898300D01*
X35646600Y-65898300D02*
X29253400Y-65898300D01*
X57975900Y-96650000D02*
X57450000Y-96650000D01*
X28500000Y-36650000D02*
X28501700Y-36651700D01*
X76398300Y-96650000D02*
X75646600Y-97401700D01*
X49253400Y-85898300D02*
X49253400Y-77401700D01*
X67450000Y-86650000D02*
X68501700Y-86650000D01*
X98501700Y-76650000D02*
X98501700Y-66650000D01*
X55646600Y-25898300D02*
X50756800Y-25898300D01*
X98500200Y-36650000D02*
X98500600Y-36650000D01*
X28501700Y-96650000D02*
X29253400Y-97401700D01*
X98501700Y-95173300D02*
X98501700Y-86650000D01*
X85646600Y-97401700D02*
X86398300Y-96650000D01*
X33607300Y-54724100D02*
X33607300Y-50949300D01*
X97450000Y-86650000D02*
X96398300Y-86650000D01*
X86398300Y-58126700D02*
X86398300Y-66650000D01*
X67450000Y-36650000D02*
X68501700Y-36650000D01*
X75624900Y-55876600D02*
X76398300Y-56650000D01*
X77450000Y-36650000D02*
X76398300Y-36650000D01*
X36398300Y-26650000D02*
X35646600Y-25898300D01*
X47450000Y-66650000D02*
X48501700Y-66650000D01*
X70252800Y-44898900D02*
X70252800Y-38401100D01*
X69253400Y-77403200D02*
X69253400Y-85898300D01*
X49253400Y-85898300D02*
X48501700Y-86650000D01*
X49253400Y-27401700D02*
X48501700Y-26650000D01*
X37450000Y-36650000D02*
X36398300Y-36650000D01*
X29255100Y-33424400D02*
X29255100Y-35898300D01*
X57450000Y-96650000D02*
X56398300Y-96650000D01*
X87450000Y-56650000D02*
X87875000Y-56650000D01*
X98500200Y-86650000D02*
X98501700Y-86650000D01*
X76924200Y-96650000D02*
X76398300Y-96650000D01*
X28400900Y-36650000D02*
X28500000Y-36650000D01*
X49253400Y-35898300D02*
X49253400Y-27401700D01*
X87450000Y-96650000D02*
X88501700Y-96650000D01*
X29292300Y-47442100D02*
X28500200Y-46650000D01*
X79253400Y-97401700D02*
X85646600Y-97401700D01*
X89253400Y-47401700D02*
X89253400Y-55898300D01*
X47450000Y-56650000D02*
X48400900Y-56650000D01*
X98400900Y-36650000D02*
X98500200Y-36650000D01*
X26398300Y-86650000D02*
X21498300Y-91550000D01*
X87450000Y-66650000D02*
X86398300Y-66650000D01*
X75646600Y-97401700D02*
X69253400Y-97401700D01*
X95646600Y-75898300D02*
X89253400Y-75898300D01*
X37450000Y-26650000D02*
X36398300Y-26650000D01*
X57450000Y-86650000D02*
X56398300Y-86650000D01*
X77450000Y-76650000D02*
X76398300Y-76650000D01*
X57975900Y-26650000D02*
X57450000Y-26650000D01*
X67450000Y-46650000D02*
X68501700Y-46650000D01*
X74647200Y-44898900D02*
X70252800Y-44898900D01*
X98500200Y-56650000D02*
X98501700Y-56650000D01*
X97025000Y-96650000D02*
X96398300Y-96650000D01*
X97025000Y-96650000D02*
X98501700Y-95173300D01*
X87875000Y-56650000D02*
X88501700Y-56650000D01*
X87450000Y-36650000D02*
X88501700Y-36650000D01*
X29255100Y-35898300D02*
X35646600Y-35898300D01*
X78501700Y-96650000D02*
X79253400Y-97401700D01*
X36398300Y-86650000D02*
X35646600Y-85898300D01*
X49253400Y-97401700D02*
X48501700Y-96650000D01*
X88501700Y-46650000D02*
X89253400Y-47401700D01*
X88501700Y-96650000D02*
X89253400Y-97401700D01*
X27450000Y-26650000D02*
X28501700Y-26650000D01*
X29253400Y-25898300D02*
X28501700Y-26650000D01*
X55646600Y-75898300D02*
X56398300Y-76650000D01*
X57450000Y-26650000D02*
X56398300Y-26650000D01*
X97450000Y-66650000D02*
X98501700Y-66650000D01*
X35646600Y-35898300D02*
X36398300Y-36650000D01*
X24561600Y-36337600D02*
X24561600Y-34516800D01*
X29253400Y-57401700D02*
X28501700Y-56650000D01*
X29253400Y-85898300D02*
X28501700Y-86650000D01*
X68501700Y-55876600D02*
X75624900Y-55876600D01*
X48501700Y-66650000D02*
X48501700Y-76650000D01*
X28501700Y-36651700D02*
X28501700Y-46648500D01*
X55646600Y-45898300D02*
X56398300Y-46650000D01*
X49252700Y-47401000D02*
X49252700Y-55898300D01*
X49253400Y-65898300D02*
X48501700Y-66650000D01*
X98400900Y-56650000D02*
X98500200Y-56650000D01*
X89253400Y-55898300D02*
X95646600Y-55898300D01*
X79253400Y-67401700D02*
X78501700Y-66650000D01*
X56398300Y-26650000D02*
X55646600Y-25898300D01*
X28501700Y-36651700D02*
X29255100Y-35898300D01*
X48500200Y-56650000D02*
X48501000Y-56650000D01*
X87875000Y-56650000D02*
X86398300Y-58126700D01*
X97450000Y-56650000D02*
X98400900Y-56650000D01*
X89253400Y-75898300D02*
X88501700Y-76650000D01*
X27450000Y-86650000D02*
X28501700Y-86650000D01*
X37450000Y-66650000D02*
X36398300Y-66650000D01*
X35646600Y-25898300D02*
X29253400Y-25898300D01*
X28501700Y-56650000D02*
X30427600Y-54724100D01*
X24561600Y-34516800D02*
X26530600Y-32547800D01*
X47450000Y-86650000D02*
X46398300Y-86650000D01*
X15000100Y-32500000D02*
X19930100Y-37430000D01*
X89253400Y-97401700D02*
X95646600Y-97401700D01*
X49253400Y-77401700D02*
X48501700Y-76650000D01*
X66398300Y-96650000D02*
X66398300Y-86650000D01*
X48501000Y-56650000D02*
X48501700Y-56650000D01*
X28501700Y-32424600D02*
X28501700Y-26650000D01*
X67450000Y-26650000D02*
X66398300Y-26650000D01*
X57450000Y-66650000D02*
X56398300Y-66650000D01*
X48501700Y-56650000D02*
X48501700Y-65146600D01*
X57450000Y-56650000D02*
X56398300Y-56650000D01*
X71384900Y-25898300D02*
X75646600Y-25898300D01*
X37450000Y-46650000D02*
X36398300Y-46650000D01*
X67450000Y-96650000D02*
X68501700Y-96650000D01*
X66398300Y-26650000D02*
X66398300Y-22775000D01*
X71384900Y-35000000D02*
X74748300Y-35000000D01*
X21498300Y-93949700D02*
X24198600Y-96650000D01*
X67450000Y-56650000D02*
X66398300Y-56650000D01*
X85646600Y-67401700D02*
X79253400Y-67401700D01*
X97450000Y-76650000D02*
X96398300Y-76650000D01*
X77450000Y-26650000D02*
X76398300Y-26650000D01*
X97450000Y-56650000D02*
X96398300Y-56650000D01*
X98500200Y-56650000D02*
X98501700Y-56648500D01*
X70758300Y-75898300D02*
X75646600Y-75898300D01*
X48400900Y-56650000D02*
X48500200Y-56650000D01*
X35646600Y-85898300D02*
X29253400Y-85898300D01*
X46498300Y-96650000D02*
X46398500Y-96650000D01*
X55646600Y-65898300D02*
X56398300Y-66650000D01*
X57450000Y-36650000D02*
X56398300Y-36650000D01*
X57975900Y-26650000D02*
X58501700Y-26650000D01*
X28378500Y-32547800D02*
X28501700Y-32424600D01*
X37450000Y-96650000D02*
X36398300Y-96650000D01*
X35646600Y-97401700D02*
X36398300Y-96650000D01*
X47450000Y-36650000D02*
X48501700Y-36650000D01*
X98500600Y-36650000D02*
X102650600Y-32500000D01*
X46398500Y-96650000D02*
X46398300Y-96649800D01*
X34472400Y-54724100D02*
X36398300Y-56650000D01*
X68400900Y-76650000D02*
X68500200Y-76650000D01*
X67450000Y-66650000D02*
X66398300Y-66650000D01*
X24198600Y-96650000D02*
X27450000Y-96650000D01*
X39253400Y-97401700D02*
X38501700Y-96650000D01*
X98500200Y-86650000D02*
X98501700Y-86648500D01*
X59269600Y-97417900D02*
X65630400Y-97417900D01*
X26530600Y-32547800D02*
X28378500Y-32547800D01*
X66575000Y-22598300D02*
X68339000Y-22598300D01*
X77450000Y-46650000D02*
X76398300Y-46650000D01*
X87450000Y-76650000D02*
X88501700Y-76650000D01*
X96398300Y-76650000D02*
X95646600Y-75898300D01*
X102650600Y-32500000D02*
X105000100Y-32500000D01*
X97450000Y-26650000D02*
X97024200Y-26650000D01*
X27450000Y-56650000D02*
X28501700Y-56650000D01*
X65646600Y-27401700D02*
X59253400Y-27401700D01*
X71384900Y-25644200D02*
X71384900Y-25898300D01*
G04 #@! TO.N,Net-(D1-DIN)*
X22550000Y-26650000D02*
X16650100Y-26650000D01*
X16650100Y-26650000D02*
X15000100Y-25000000D01*
G04 #@! TO.N,GND*
X85415400Y-73757900D02*
X86575000Y-72598300D01*
X62550000Y-43350000D02*
X61498300Y-43350000D01*
X42550000Y-33350000D02*
X41498300Y-33350000D01*
X54353400Y-74101700D02*
X60746600Y-74101700D01*
X41499800Y-63350000D02*
X41498300Y-63350000D01*
X74353400Y-54101700D02*
X73601700Y-53350000D01*
X82550000Y-23350000D02*
X83601700Y-23350000D01*
X83401800Y-33350000D02*
X83601700Y-33350000D01*
X34353400Y-64101700D02*
X40746600Y-64101700D01*
X41498300Y-53351500D02*
X41498300Y-63348500D01*
X32550000Y-63350000D02*
X33601700Y-63350000D01*
X41122500Y-74101700D02*
X34353400Y-74101700D01*
X83601700Y-37320000D02*
X83601700Y-33549900D01*
X41498300Y-53350000D02*
X41498300Y-44477500D01*
X39995000Y-91846700D02*
X39995000Y-84101700D01*
X85200800Y-85048800D02*
X86398300Y-83851300D01*
X60746600Y-22598300D02*
X61498300Y-23350000D01*
X92550000Y-93350000D02*
X91498300Y-93350000D01*
X73601700Y-63350000D02*
X74353400Y-64101700D01*
X86398300Y-82737900D02*
X86565300Y-82570900D01*
X60746600Y-76648500D02*
X60746600Y-74101700D01*
X72550000Y-43350000D02*
X73601700Y-43350000D01*
X22562700Y-62477300D02*
X22562700Y-58342500D01*
X91499800Y-43350000D02*
X91498300Y-43350000D01*
X74477100Y-84225400D02*
X80622900Y-84225400D01*
X70746600Y-72598300D02*
X66553700Y-72598300D01*
X82550000Y-93350000D02*
X81498300Y-93350000D01*
X62550000Y-63350000D02*
X61498300Y-63350000D01*
X42550000Y-73350000D02*
X41498300Y-73350000D01*
X23600200Y-23350000D02*
X23601700Y-23351500D01*
X34353400Y-94101700D02*
X38356600Y-94101700D01*
X30746600Y-92598300D02*
X24353400Y-92598300D01*
X12144800Y-30614200D02*
X12144800Y-34441000D01*
X92550000Y-63350000D02*
X91498300Y-63350000D01*
X88297700Y-82570900D02*
X89076800Y-83350000D01*
X72975000Y-23350000D02*
X73601700Y-23350000D01*
X50746600Y-22598300D02*
X51498300Y-23350000D01*
X74353400Y-34101700D02*
X73601700Y-33350000D01*
X81498300Y-87401700D02*
X80622900Y-86526300D01*
X74353400Y-22598300D02*
X73601700Y-23350000D01*
X61498300Y-43350000D02*
X61008500Y-43839800D01*
X40746600Y-22598300D02*
X41498300Y-23350000D01*
X42550000Y-23350000D02*
X43401800Y-23350000D01*
X41498300Y-73350000D02*
X40746600Y-72598300D01*
X32550000Y-43350000D02*
X33601700Y-43350000D01*
X80746600Y-22598300D02*
X74353400Y-22598300D01*
X90746600Y-64101700D02*
X90746600Y-72598300D01*
X73601700Y-73350000D02*
X74353400Y-74101700D01*
X72550000Y-73350000D02*
X73601700Y-73350000D01*
X91498300Y-53350000D02*
X91498300Y-43351500D01*
X72024200Y-73350000D02*
X72550000Y-73350000D01*
X31498300Y-93350000D02*
X30746600Y-92598300D01*
X81499800Y-43350000D02*
X81498300Y-43350000D01*
X62550000Y-23350000D02*
X61498300Y-23350000D01*
X62550000Y-73350000D02*
X61498300Y-73350000D01*
X41498300Y-73350000D02*
X41122500Y-73725800D01*
X25200900Y-55704300D02*
X25200900Y-53930600D01*
X60746600Y-72598300D02*
X61498300Y-73350000D01*
X33601700Y-43350000D02*
X34353400Y-44101700D01*
X22550000Y-23350000D02*
X23500900Y-23350000D01*
X61599200Y-83350000D02*
X61499800Y-83350000D01*
X61499800Y-77401700D02*
X60746600Y-76648500D01*
X23500900Y-23350000D02*
X23600200Y-23350000D01*
X82024200Y-23350000D02*
X82550000Y-23350000D01*
X40303300Y-92155000D02*
X39995000Y-91846700D01*
X33601700Y-93350000D02*
X34353400Y-94101700D01*
X80746600Y-74101700D02*
X80746600Y-76666400D01*
X23601700Y-27260600D02*
X21180200Y-29682100D01*
X34375100Y-34123400D02*
X33601700Y-33350000D01*
X64755100Y-22196600D02*
X63601700Y-23350000D01*
X24354900Y-22598300D02*
X23601700Y-23351500D01*
X61008500Y-52860200D02*
X61498300Y-53350000D01*
X86398300Y-83851300D02*
X86398300Y-82737900D01*
X80746600Y-74101700D02*
X81498300Y-73350000D01*
X81498300Y-87401700D02*
X81498300Y-93350000D01*
X54353400Y-54101700D02*
X59767000Y-54101700D01*
X22975100Y-63350000D02*
X23435400Y-63350000D01*
X70746600Y-72598300D02*
X71498300Y-73350000D01*
X22550000Y-73350000D02*
X21499800Y-73350000D01*
X61498300Y-43350000D02*
X60746600Y-42598300D01*
X42024200Y-23350000D02*
X42550000Y-23350000D01*
X60746600Y-84101700D02*
X61498300Y-84853400D01*
X52550000Y-93350000D02*
X53601700Y-93350000D01*
X53601700Y-63350000D02*
X54353400Y-64101700D01*
X61498300Y-63350000D02*
X59767000Y-61618700D01*
X40746600Y-72598300D02*
X40746600Y-64101700D01*
X52550000Y-63350000D02*
X53601700Y-63350000D01*
X82125000Y-43350000D02*
X81499800Y-43350000D01*
X25200900Y-53930600D02*
X26533200Y-52598300D01*
X53601700Y-33350000D02*
X54353400Y-34101700D01*
X63438500Y-77401700D02*
X61499800Y-77401700D01*
X72024200Y-73350000D02*
X71498300Y-73350000D01*
X52550000Y-23350000D02*
X51498300Y-23350000D01*
X62550000Y-33350000D02*
X61498300Y-33350000D01*
X54353400Y-64101700D02*
X60746600Y-64101700D01*
X65078000Y-74074000D02*
X65078000Y-75762200D01*
X42550000Y-33350000D02*
X43601700Y-33350000D01*
X43601700Y-23549900D02*
X43401800Y-23350000D01*
X23601700Y-23351500D02*
X23601700Y-27260600D01*
X92550000Y-53350000D02*
X91498300Y-53350000D01*
X30746600Y-52598300D02*
X31498300Y-53350000D01*
X83601700Y-23350000D02*
X84353400Y-22598300D01*
X72550000Y-83350000D02*
X73601700Y-83350000D01*
X52550000Y-33350000D02*
X53601700Y-33350000D01*
X22550000Y-43350000D02*
X21599200Y-43350000D01*
X41498300Y-93350000D02*
X40303300Y-92155000D01*
X41498300Y-63348500D02*
X41499800Y-63350000D01*
X65078000Y-75762200D02*
X63438500Y-77401700D01*
X86398300Y-31187600D02*
X89335900Y-31187600D01*
X80746600Y-44101700D02*
X81498300Y-43350000D01*
X53601700Y-53350000D02*
X54353400Y-54101700D01*
X40746600Y-64101700D02*
X41498300Y-63350000D01*
X73601700Y-43350000D02*
X74353400Y-44101700D01*
X59767000Y-61618700D02*
X59767000Y-54101700D01*
X33601700Y-23350000D02*
X34353400Y-22598300D01*
X42550000Y-63350000D02*
X41499800Y-63350000D01*
X80622900Y-84225400D02*
X81498300Y-83350000D01*
X82125000Y-43350000D02*
X82125000Y-38796700D01*
X41122500Y-73725800D02*
X41122500Y-74101700D01*
X91498300Y-93350000D02*
X86398300Y-88250000D01*
X34353400Y-84101700D02*
X39995000Y-84101700D01*
X22550000Y-63350000D02*
X22975100Y-63350000D01*
X21326500Y-53197100D02*
X21479400Y-53350000D01*
X66553700Y-72598300D02*
X65078000Y-74074000D01*
X61008500Y-43839800D02*
X61008500Y-44101700D01*
X22562700Y-58342500D02*
X22562800Y-58342400D01*
X21479400Y-53350000D02*
X21479400Y-57259100D01*
X80744900Y-54101700D02*
X79619100Y-54101700D01*
X52550000Y-53350000D02*
X53601700Y-53350000D01*
X53601700Y-93350000D02*
X54353400Y-94101700D01*
X99451700Y-17500000D02*
X93601700Y-23350000D01*
X81498300Y-23350000D02*
X80746600Y-22598300D01*
X91498300Y-33350000D02*
X91498300Y-43350000D01*
X41122500Y-82974200D02*
X41498300Y-83350000D01*
X81498300Y-53348300D02*
X80744900Y-54101700D01*
X73075900Y-63350000D02*
X70746600Y-65679300D01*
X61499800Y-83350000D02*
X61499800Y-77401700D01*
X81599200Y-83350000D02*
X81499800Y-83350000D01*
X22562800Y-58342400D02*
X25200900Y-55704300D01*
X21479400Y-53350000D02*
X22550000Y-53350000D01*
X13076900Y-29682100D02*
X12144800Y-30614200D01*
X60746600Y-34101700D02*
X61498300Y-33350000D01*
X71498300Y-23350000D02*
X70344900Y-22196600D01*
X74353400Y-64101700D02*
X78867400Y-64101700D01*
X62550000Y-93350000D02*
X61498300Y-93350000D01*
X42550000Y-83350000D02*
X41498300Y-83350000D01*
X81499800Y-83350000D02*
X81498300Y-83350000D01*
X38356600Y-94101700D02*
X40303300Y-92155000D01*
X32024200Y-93350000D02*
X32550000Y-93350000D01*
X12144800Y-34441000D02*
X21326500Y-43622700D01*
X41599200Y-53350000D02*
X41499800Y-53350000D01*
X41122500Y-43725800D02*
X41498300Y-43350000D01*
X41499800Y-53350000D02*
X41498300Y-53351500D01*
X23435400Y-63350000D02*
X22562700Y-62477300D01*
X54353400Y-94101700D02*
X60746600Y-94101700D01*
X82550000Y-53350000D02*
X81599200Y-53350000D01*
X32550000Y-73350000D02*
X33601700Y-73350000D01*
X81499800Y-77419600D02*
X83487500Y-77419600D01*
X33075900Y-23350000D02*
X33601700Y-23350000D01*
X42550000Y-53350000D02*
X41599200Y-53350000D01*
X34353400Y-44101700D02*
X41122500Y-44101700D01*
X92550000Y-23350000D02*
X93601700Y-23350000D01*
X60746600Y-42598300D02*
X60746600Y-34101700D01*
X82550000Y-63350000D02*
X81498300Y-63350000D01*
X41498300Y-43350000D02*
X41498300Y-34123400D01*
X86398300Y-31187600D02*
X86398300Y-26073000D01*
X43601700Y-33350000D02*
X43601700Y-23549900D01*
X90746600Y-72598300D02*
X91498300Y-73350000D01*
X105000100Y-17500000D02*
X99451700Y-17500000D01*
X60746600Y-84101700D02*
X61498300Y-83350000D01*
X54353400Y-84101700D02*
X60746600Y-84101700D01*
X54353400Y-44101700D02*
X53601700Y-43350000D01*
X22975100Y-63350000D02*
X21498300Y-64826800D01*
X62550000Y-83350000D02*
X61599200Y-83350000D01*
X22550000Y-33350000D02*
X21498300Y-33350000D01*
X81498300Y-43351500D02*
X81499800Y-43350000D01*
X91498300Y-63350000D02*
X90746600Y-64101700D01*
X91498300Y-43351500D02*
X91499800Y-43350000D01*
X41498300Y-34123400D02*
X34375100Y-34123400D01*
X60746600Y-94101700D02*
X61498300Y-93350000D01*
X85764100Y-31187600D02*
X86398300Y-31187600D01*
X21498300Y-73348500D02*
X21499800Y-73350000D01*
X60746600Y-64101700D02*
X61498300Y-63350000D01*
X21498300Y-83350000D02*
X21498300Y-73350000D01*
X92550000Y-23350000D02*
X91498300Y-23350000D01*
X60746600Y-64101700D02*
X60746600Y-72598300D01*
X72975000Y-23350000D02*
X72550000Y-23350000D01*
X20850100Y-23350000D02*
X22550000Y-23350000D01*
X42024200Y-23350000D02*
X41498300Y-23350000D01*
X86398300Y-86028500D02*
X89076800Y-83350000D01*
X41498300Y-44477500D02*
X41122500Y-44101700D01*
X54353400Y-22598300D02*
X60746600Y-22598300D01*
X73075900Y-63350000D02*
X73601700Y-63350000D01*
X84353400Y-22598300D02*
X88369600Y-22598300D01*
X21326500Y-43622700D02*
X21326500Y-53197100D01*
X52550000Y-83350000D02*
X53601700Y-83350000D01*
X53601700Y-83350000D02*
X54353400Y-84101700D01*
X62550000Y-53350000D02*
X61498300Y-53350000D01*
X21498300Y-64826800D02*
X21498300Y-73348500D01*
X21180200Y-29682100D02*
X21180200Y-33031900D01*
X60746600Y-74101700D02*
X61498300Y-73350000D01*
X82550000Y-83350000D02*
X81599200Y-83350000D01*
X41122500Y-74101700D02*
X41122500Y-82974200D01*
X31498300Y-23350000D02*
X30746600Y-22598300D01*
X88369600Y-22598300D02*
X89121300Y-23350000D01*
X21180200Y-33031900D02*
X21498300Y-33350000D01*
X42550000Y-93350000D02*
X41498300Y-93350000D01*
X79619100Y-54101700D02*
X74353400Y-54101700D01*
X72550000Y-33350000D02*
X73601700Y-33350000D01*
X61008500Y-44101700D02*
X54353400Y-44101700D01*
X32550000Y-53350000D02*
X31498300Y-53350000D01*
X34353400Y-74101700D02*
X33601700Y-73350000D01*
X61499800Y-83350000D02*
X61498300Y-83350000D01*
X85415400Y-75491700D02*
X85415400Y-73757900D01*
X81498300Y-53348300D02*
X81498300Y-43351500D01*
X41122500Y-44101700D02*
X41122500Y-43725800D01*
X72550000Y-53350000D02*
X73601700Y-53350000D01*
X92550000Y-33350000D02*
X91498300Y-33350000D01*
X39995000Y-84101700D02*
X41122500Y-82974200D01*
X62550000Y-23350000D02*
X63601700Y-23350000D01*
X80746600Y-94101700D02*
X81498300Y-93350000D01*
X89121300Y-23350000D02*
X91498300Y-23350000D01*
X32024200Y-93350000D02*
X31498300Y-93350000D01*
X83601700Y-33549900D02*
X83401800Y-33350000D01*
X83448100Y-87401700D02*
X85200800Y-85649000D01*
X41499800Y-53350000D02*
X41498300Y-53350000D01*
X15000100Y-17500000D02*
X20850100Y-23350000D01*
X78867400Y-64101700D02*
X79619100Y-63350000D01*
X43601700Y-23549900D02*
X44553300Y-22598300D01*
X82125000Y-38796700D02*
X83601700Y-37320000D01*
X32550000Y-93350000D02*
X33601700Y-93350000D01*
X82125000Y-38796700D02*
X77430000Y-34101700D01*
X79619100Y-63350000D02*
X79619100Y-54101700D01*
X32550000Y-83350000D02*
X33601700Y-83350000D01*
X33075900Y-23350000D02*
X32550000Y-23350000D01*
X74353400Y-94101700D02*
X80746600Y-94101700D01*
X30746600Y-22598300D02*
X24354900Y-22598300D01*
X92550000Y-83350000D02*
X91508600Y-83350000D01*
X92550000Y-43350000D02*
X91499800Y-43350000D01*
X72550000Y-93350000D02*
X73601700Y-93350000D01*
X59767000Y-54101700D02*
X61008500Y-52860200D01*
X70746600Y-65679300D02*
X70746600Y-72598300D01*
X92550000Y-73350000D02*
X91498300Y-73350000D01*
X52550000Y-43350000D02*
X53601700Y-43350000D01*
X41498300Y-34123400D02*
X41498300Y-33350000D01*
X73601700Y-83350000D02*
X74477100Y-84225400D01*
X79619100Y-63350000D02*
X81498300Y-63350000D01*
X81599200Y-53350000D02*
X81500000Y-53350000D01*
X44553300Y-22598300D02*
X50746600Y-22598300D01*
X33601700Y-63350000D02*
X34353400Y-64101700D01*
X21499800Y-73350000D02*
X21498300Y-73350000D01*
X81500000Y-53350000D02*
X81498300Y-53348300D01*
X52550000Y-23350000D02*
X53601700Y-23350000D01*
X33601700Y-83350000D02*
X34353400Y-84101700D01*
X86398300Y-26073000D02*
X89121300Y-23350000D01*
X73601700Y-93350000D02*
X74353400Y-94101700D01*
X82550000Y-33350000D02*
X83401800Y-33350000D01*
X83487500Y-77419600D02*
X85415400Y-75491700D01*
X21479400Y-57259100D02*
X22562800Y-58342400D01*
X70344900Y-22196600D02*
X64755100Y-22196600D01*
X83601700Y-33350000D02*
X85764100Y-31187600D01*
X21180200Y-29682100D02*
X13076900Y-29682100D01*
X22550000Y-83350000D02*
X21498300Y-83350000D01*
X77430000Y-34101700D02*
X74353400Y-34101700D01*
X82550000Y-43350000D02*
X82125000Y-43350000D01*
X54353400Y-34101700D02*
X60746600Y-34101700D01*
X85200800Y-85649000D02*
X85200800Y-85048800D01*
X80622900Y-86526300D02*
X80622900Y-84225400D01*
X81498300Y-87401700D02*
X83448100Y-87401700D01*
X61498300Y-84853400D02*
X61498300Y-93350000D01*
X24353400Y-92598300D02*
X23601700Y-93350000D01*
X32550000Y-33350000D02*
X33601700Y-33350000D01*
X86575000Y-72598300D02*
X90746600Y-72598300D01*
X86398300Y-88250000D02*
X86398300Y-86028500D01*
X21599200Y-43350000D02*
X21326500Y-43622700D01*
X74353400Y-44101700D02*
X80746600Y-44101700D01*
X89335900Y-31187600D02*
X91498300Y-33350000D01*
X53601700Y-73350000D02*
X54353400Y-74101700D01*
X81499800Y-83350000D02*
X81499800Y-77419600D01*
X82550000Y-73350000D02*
X81498300Y-73350000D01*
X72550000Y-23350000D02*
X71498300Y-23350000D01*
X89076800Y-83350000D02*
X91508600Y-83350000D01*
X52550000Y-73350000D02*
X53601700Y-73350000D01*
X80746600Y-76666400D02*
X81499800Y-77419600D01*
X74353400Y-74101700D02*
X80746600Y-74101700D01*
X22550000Y-93350000D02*
X23601700Y-93350000D01*
X26533200Y-52598300D02*
X30746600Y-52598300D01*
X34353400Y-22598300D02*
X40746600Y-22598300D01*
X42550000Y-43350000D02*
X41498300Y-43350000D01*
X72550000Y-63350000D02*
X73075900Y-63350000D01*
X61008500Y-44101700D02*
X61008500Y-52860200D01*
X32550000Y-23350000D02*
X31498300Y-23350000D01*
X82024200Y-23350000D02*
X81498300Y-23350000D01*
X86565300Y-82570900D02*
X88297700Y-82570900D01*
X53601700Y-23350000D02*
X54353400Y-22598300D01*
G04 #@! TO.N,Net-(D1-DOUT)*
X24003400Y-25744900D02*
X24003400Y-36248300D01*
X24003400Y-36248300D02*
X23601700Y-36650000D01*
X22550000Y-36650000D02*
X23601700Y-36650000D01*
X26398300Y-23350000D02*
X24003400Y-25744900D01*
X27450000Y-23350000D02*
X26398300Y-23350000D01*
G04 #@! TO.N,Net-(D2-DOUT)*
X22550000Y-46650000D02*
X23601700Y-46650000D01*
X26398300Y-43853400D02*
X23601700Y-46650000D01*
X27450000Y-33350000D02*
X26398300Y-33350000D01*
X26398300Y-33350000D02*
X26398300Y-43853400D01*
G04 #@! TO.N,Net-(D3-DOUT)*
X27450000Y-44366900D02*
X27450000Y-43350000D01*
X23601700Y-56650000D02*
X23601700Y-48215200D01*
X23601700Y-48215200D02*
X27450000Y-44366900D01*
X22550000Y-56650000D02*
X23601700Y-56650000D01*
G04 #@! TO.N,Net-(D4-DOUT)*
X22550000Y-66650000D02*
X23601700Y-66650000D01*
X26398300Y-63853400D02*
X26398300Y-53350000D01*
X23601700Y-66650000D02*
X26398300Y-63853400D01*
X27450000Y-53350000D02*
X26398300Y-53350000D01*
G04 #@! TO.N,Net-(D5-DOUT)*
X23601700Y-67650200D02*
X27450000Y-63801900D01*
X22550000Y-76650000D02*
X23601700Y-76650000D01*
X27450000Y-63801900D02*
X27450000Y-63350000D01*
X23601700Y-76650000D02*
X23601700Y-67650200D01*
G04 #@! TO.N,Net-(D6-DOUT)*
X26398300Y-83853400D02*
X23601700Y-86650000D01*
X22550000Y-86650000D02*
X23601700Y-86650000D01*
X26398300Y-73350000D02*
X26398300Y-83853400D01*
X27450000Y-73350000D02*
X26398300Y-73350000D01*
G04 #@! TO.N,Net-(D7-DOUT)*
X21096600Y-96248300D02*
X21498300Y-96650000D01*
X27450000Y-83350000D02*
X27450000Y-84348500D01*
X21096600Y-90701900D02*
X21096600Y-96248300D01*
X27450000Y-84348500D02*
X21096600Y-90701900D01*
X22550000Y-96650000D02*
X21498300Y-96650000D01*
G04 #@! TO.N,Net-(D8-DOUT)*
X32550000Y-96650000D02*
X31498300Y-96650000D01*
X28501700Y-93653400D02*
X28501700Y-93350000D01*
X31498300Y-96650000D02*
X28501700Y-93653400D01*
X27450000Y-93350000D02*
X28501700Y-93350000D01*
G04 #@! TO.N,Net-(D10-DIN)*
X32550000Y-86650000D02*
X33601700Y-86650000D01*
X37450000Y-93350000D02*
X36398300Y-93350000D01*
X33601700Y-86650000D02*
X33601700Y-90553400D01*
X33601700Y-90553400D02*
X36398300Y-93350000D01*
G04 #@! TO.N,Net-(D10-DOUT)*
X32550000Y-76650000D02*
X33601700Y-76650000D01*
X36398300Y-83350000D02*
X36398300Y-79446600D01*
X37450000Y-83350000D02*
X36398300Y-83350000D01*
X36398300Y-79446600D02*
X33601700Y-76650000D01*
G04 #@! TO.N,Net-(D11-DOUT)*
X32550000Y-66650000D02*
X33601700Y-66650000D01*
X36398300Y-73350000D02*
X36398300Y-69446600D01*
X36398300Y-69446600D02*
X33601700Y-66650000D01*
X37450000Y-73350000D02*
X36398300Y-73350000D01*
G04 #@! TO.N,Net-(D12-DOUT)*
X33601700Y-56650000D02*
X33601700Y-60553400D01*
X37450000Y-63350000D02*
X36398300Y-63350000D01*
X32550000Y-56650000D02*
X33601700Y-56650000D01*
X33601700Y-60553400D02*
X36398300Y-63350000D01*
G04 #@! TO.N,Net-(D13-DOUT)*
X32550000Y-46650000D02*
X33601700Y-46650000D01*
X36398300Y-53350000D02*
X36398300Y-49446600D01*
X36398300Y-49446600D02*
X33601700Y-46650000D01*
X37450000Y-53350000D02*
X36398300Y-53350000D01*
G04 #@! TO.N,Net-(D14-DOUT)*
X32550000Y-36650000D02*
X33601700Y-36650000D01*
X36398300Y-39446600D02*
X33601700Y-36650000D01*
X36398300Y-43350000D02*
X36398300Y-39446600D01*
X37450000Y-43350000D02*
X36398300Y-43350000D01*
G04 #@! TO.N,Net-(D15-DOUT)*
X32550000Y-26650000D02*
X33601700Y-26650000D01*
X33601700Y-30553400D02*
X36398300Y-33350000D01*
X37450000Y-33350000D02*
X36398300Y-33350000D01*
X33601700Y-26650000D02*
X33601700Y-30553400D01*
G04 #@! TO.N,Net-(D16-DOUT)*
X41498300Y-26650000D02*
X38501700Y-23653400D01*
X38501700Y-23653400D02*
X38501700Y-23350000D01*
X42550000Y-26650000D02*
X41498300Y-26650000D01*
X37450000Y-23350000D02*
X38501700Y-23350000D01*
G04 #@! TO.N,Net-(D32-DOUT)*
X58501700Y-23653400D02*
X61498300Y-26650000D01*
X58501700Y-23350000D02*
X58501700Y-23653400D01*
X57450000Y-23350000D02*
X58501700Y-23350000D01*
X62550000Y-26650000D02*
X61498300Y-26650000D01*
G04 #@! TO.N,Net-(D33-DOUT)*
X68501700Y-30059000D02*
X63601700Y-34959000D01*
X68501700Y-23350000D02*
X68501700Y-30059000D01*
X62550000Y-36650000D02*
X63601700Y-36650000D01*
X67450000Y-23350000D02*
X68501700Y-23350000D01*
X63601700Y-34959000D02*
X63601700Y-36650000D01*
G04 #@! TO.N,Net-(D17-DOUT)*
X44003400Y-36248300D02*
X44003400Y-25744900D01*
X47450000Y-23350000D02*
X46398300Y-23350000D01*
X43601700Y-36650000D02*
X44003400Y-36248300D01*
X44003400Y-25744900D02*
X46398300Y-23350000D01*
X42550000Y-36650000D02*
X43601700Y-36650000D01*
G04 #@! TO.N,Net-(D35-DOUT)*
X67450000Y-43350000D02*
X66398300Y-43350000D01*
X62550000Y-56650000D02*
X63601700Y-56650000D01*
X66398300Y-43350000D02*
X66398300Y-44484800D01*
X63601700Y-47281400D02*
X63601700Y-56650000D01*
X66398300Y-44484800D02*
X63601700Y-47281400D01*
G04 #@! TO.N,Net-(D18-DOUT)*
X46398300Y-41784800D02*
X42550000Y-45633100D01*
X42550000Y-45633100D02*
X42550000Y-46650000D01*
X46398300Y-33350000D02*
X46398300Y-41784800D01*
X47450000Y-33350000D02*
X46398300Y-33350000D01*
G04 #@! TO.N,Net-(D19-DOUT)*
X42550000Y-56650000D02*
X43601700Y-56650000D01*
X43601700Y-56650000D02*
X43601700Y-46146600D01*
X47450000Y-43350000D02*
X46398300Y-43350000D01*
X43601700Y-46146600D02*
X46398300Y-43350000D01*
G04 #@! TO.N,Net-(D20-DOUT)*
X47450000Y-53350000D02*
X46398300Y-53350000D01*
X44799200Y-54949100D02*
X46398300Y-53350000D01*
X44799200Y-65452500D02*
X44799200Y-54949100D01*
X42550000Y-66650000D02*
X43601700Y-66650000D01*
X43601700Y-66650000D02*
X44799200Y-65452500D01*
G04 #@! TO.N,Net-(D21-DOUT)*
X46398300Y-72050000D02*
X43601700Y-74846600D01*
X46398300Y-63350000D02*
X46398300Y-72050000D01*
X43601700Y-74846600D02*
X43601700Y-76650000D01*
X42550000Y-76650000D02*
X43601700Y-76650000D01*
X47450000Y-63350000D02*
X46398300Y-63350000D01*
G04 #@! TO.N,Net-(D22-DOUT)*
X47450000Y-73350000D02*
X46398300Y-73350000D01*
X46398300Y-73350000D02*
X45903000Y-73845300D01*
X45903000Y-83297000D02*
X42550000Y-86650000D01*
X45903000Y-73845300D02*
X45903000Y-83297000D01*
G04 #@! TO.N,Net-(D23-DOUT)*
X43601700Y-87198300D02*
X46398300Y-84401700D01*
X46398300Y-84401700D02*
X46398300Y-83350000D01*
X43601700Y-96650000D02*
X43601700Y-87198300D01*
X42550000Y-96650000D02*
X43601700Y-96650000D01*
X47450000Y-83350000D02*
X46398300Y-83350000D01*
G04 #@! TO.N,Net-(D24-DOUT)*
X52550000Y-96650000D02*
X51498300Y-96650000D01*
X48501700Y-93653400D02*
X48501700Y-93350000D01*
X47450000Y-93350000D02*
X48501700Y-93350000D01*
X51498300Y-96650000D02*
X48501700Y-93653400D01*
G04 #@! TO.N,Net-(D25-DOUT)*
X56398300Y-93350000D02*
X56398300Y-89446600D01*
X52550000Y-86650000D02*
X53601700Y-86650000D01*
X56398300Y-89446600D02*
X53601700Y-86650000D01*
X57450000Y-93350000D02*
X56398300Y-93350000D01*
G04 #@! TO.N,Net-(D26-DOUT)*
X57450000Y-83350000D02*
X56398300Y-83350000D01*
X53601700Y-80553400D02*
X56398300Y-83350000D01*
X52550000Y-76650000D02*
X53601700Y-76650000D01*
X53601700Y-76650000D02*
X53601700Y-80553400D01*
G04 #@! TO.N,Net-(D27-DOUT)*
X53601700Y-66650000D02*
X53601700Y-70553400D01*
X52550000Y-66650000D02*
X53601700Y-66650000D01*
X53601700Y-70553400D02*
X56398300Y-73350000D01*
X57450000Y-73350000D02*
X56398300Y-73350000D01*
G04 #@! TO.N,Net-(D28-DOUT)*
X53601700Y-60553400D02*
X56398300Y-63350000D01*
X57450000Y-63350000D02*
X56398300Y-63350000D01*
X53601700Y-56650000D02*
X53601700Y-60553400D01*
X52550000Y-56650000D02*
X53601700Y-56650000D01*
G04 #@! TO.N,Net-(D29-DOUT)*
X52550000Y-46650000D02*
X53601700Y-46650000D01*
X56398300Y-49446600D02*
X53601700Y-46650000D01*
X56398300Y-53350000D02*
X56398300Y-49446600D01*
X57450000Y-53350000D02*
X56398300Y-53350000D01*
G04 #@! TO.N,Net-(D30-DOUT)*
X52550000Y-36650000D02*
X53601700Y-36650000D01*
X53601700Y-36650000D02*
X53601700Y-40553400D01*
X57450000Y-43350000D02*
X56398300Y-43350000D01*
X53601700Y-40553400D02*
X56398300Y-43350000D01*
G04 #@! TO.N,Net-(D31-DOUT)*
X52550000Y-26650000D02*
X53601700Y-26650000D01*
X56398300Y-33350000D02*
X56398300Y-29446600D01*
X56398300Y-29446600D02*
X53601700Y-26650000D01*
X57450000Y-33350000D02*
X56398300Y-33350000D01*
G04 #@! TO.N,Net-(D37-DOUT)*
X63601700Y-74846600D02*
X63601700Y-76650000D01*
X62550000Y-76650000D02*
X63601700Y-76650000D01*
X68501700Y-63350000D02*
X68501700Y-69946600D01*
X67450000Y-63350000D02*
X68501700Y-63350000D01*
X68501700Y-69946600D02*
X63601700Y-74846600D01*
G04 #@! TO.N,Net-(D39-DOUT)*
X64341900Y-95909800D02*
X63601700Y-96650000D01*
X67450000Y-83350000D02*
X66398300Y-83350000D01*
X62550000Y-96650000D02*
X63601700Y-96650000D01*
X64341900Y-85406400D02*
X64341900Y-95909800D01*
X66398300Y-83350000D02*
X64341900Y-85406400D01*
G04 #@! TO.N,Net-(D41-DOUT)*
X77450000Y-93350000D02*
X76398300Y-93350000D01*
X76398300Y-93350000D02*
X76398300Y-89446600D01*
X76398300Y-89446600D02*
X73601700Y-86650000D01*
X72550000Y-86650000D02*
X73601700Y-86650000D01*
G04 #@! TO.N,Net-(D43-DOUT)*
X72550000Y-66650000D02*
X73601700Y-66650000D01*
X73601700Y-66650000D02*
X73601700Y-70553400D01*
X77450000Y-73350000D02*
X76398300Y-73350000D01*
X73601700Y-70553400D02*
X76398300Y-73350000D01*
G04 #@! TO.N,Net-(D34-DOUT)*
X67450000Y-33350000D02*
X66398300Y-33350000D01*
X64539700Y-45712000D02*
X63601700Y-46650000D01*
X64539700Y-35208600D02*
X64539700Y-45712000D01*
X66398300Y-33350000D02*
X64539700Y-35208600D01*
X62550000Y-46650000D02*
X63601700Y-46650000D01*
G04 #@! TO.N,Net-(D45-DOUT)*
X73601700Y-50553400D02*
X76398300Y-53350000D01*
X77450000Y-53350000D02*
X76398300Y-53350000D01*
X73601700Y-46650000D02*
X73601700Y-50553400D01*
X72550000Y-46650000D02*
X73601700Y-46650000D01*
G04 #@! TO.N,Net-(D47-DOUT)*
X72550000Y-26650000D02*
X73601700Y-26650000D01*
X73601700Y-26650000D02*
X73601700Y-30553400D01*
X73601700Y-30553400D02*
X76398300Y-33350000D01*
X77450000Y-33350000D02*
X76398300Y-33350000D01*
G04 #@! TO.N,Net-(D36-DOUT)*
X63601700Y-66650000D02*
X65840000Y-64411700D01*
X62550000Y-66650000D02*
X63601700Y-66650000D01*
X65840000Y-53908300D02*
X66398300Y-53350000D01*
X67450000Y-53350000D02*
X66398300Y-53350000D01*
X65840000Y-64411700D02*
X65840000Y-53908300D01*
G04 #@! TO.N,Net-(D49-DOUT)*
X86398300Y-23350000D02*
X84744300Y-25004000D01*
X82550000Y-36650000D02*
X81498300Y-36650000D01*
X87450000Y-23350000D02*
X86398300Y-23350000D01*
X81498300Y-30646200D02*
X81498300Y-36650000D01*
X84744300Y-27400200D02*
X81498300Y-30646200D01*
X84744300Y-25004000D02*
X84744300Y-27400200D01*
G04 #@! TO.N,Net-(D38-DOUT)*
X63601700Y-86650000D02*
X63601700Y-78006700D01*
X67450000Y-73350000D02*
X66398300Y-73350000D01*
X66398300Y-75210100D02*
X66398300Y-73350000D01*
X63601700Y-78006700D02*
X66398300Y-75210100D01*
X62550000Y-86650000D02*
X63601700Y-86650000D01*
G04 #@! TO.N,Net-(D51-DOUT)*
X84003400Y-56248300D02*
X84003400Y-46796600D01*
X83601700Y-56650000D02*
X84003400Y-56248300D01*
X82550000Y-56650000D02*
X83601700Y-56650000D01*
X84003400Y-46796600D02*
X87450000Y-43350000D01*
G04 #@! TO.N,Net-(D40-DOUT)*
X67450000Y-93350000D02*
X68501700Y-93350000D01*
X71498300Y-96346600D02*
X71498300Y-96650000D01*
X72550000Y-96650000D02*
X71498300Y-96650000D01*
X68501700Y-93350000D02*
X71498300Y-96346600D01*
G04 #@! TO.N,Net-(D53-DOUT)*
X83601700Y-73897900D02*
X83601700Y-76650000D01*
X82550000Y-76650000D02*
X83601700Y-76650000D01*
X88501700Y-68997900D02*
X83601700Y-73897900D01*
X87450000Y-63350000D02*
X88501700Y-63350000D01*
X88501700Y-63350000D02*
X88501700Y-68997900D01*
G04 #@! TO.N,Net-(D42-DOUT)*
X73601700Y-76650000D02*
X73601700Y-80553400D01*
X77450000Y-83350000D02*
X76398300Y-83350000D01*
X73601700Y-80553400D02*
X76398300Y-83350000D01*
X72550000Y-76650000D02*
X73601700Y-76650000D01*
G04 #@! TO.N,Net-(D55-DOUT)*
X87450000Y-83367600D02*
X87450000Y-83350000D01*
X83601700Y-96650000D02*
X85602500Y-94649200D01*
X85602500Y-94649200D02*
X85602500Y-85215100D01*
X85602500Y-85215100D02*
X87450000Y-83367600D01*
X82550000Y-96650000D02*
X83601700Y-96650000D01*
G04 #@! TO.N,Net-(D44-DOUT)*
X76398300Y-63350000D02*
X76398300Y-59446600D01*
X72550000Y-56650000D02*
X73601700Y-56650000D01*
X77450000Y-63350000D02*
X76398300Y-63350000D01*
X76398300Y-59446600D02*
X73601700Y-56650000D01*
G04 #@! TO.N,Net-(D57-DOUT)*
X97450000Y-93350000D02*
X96398300Y-93350000D01*
X92550000Y-86650000D02*
X93601700Y-86650000D01*
X93601700Y-86650000D02*
X93601700Y-90553400D01*
X93601700Y-90553400D02*
X96398300Y-93350000D01*
G04 #@! TO.N,Net-(D46-DOUT)*
X77450000Y-43350000D02*
X76398300Y-43350000D01*
X76398300Y-39446600D02*
X73601700Y-36650000D01*
X72550000Y-36650000D02*
X73601700Y-36650000D01*
X76398300Y-43350000D02*
X76398300Y-39446600D01*
G04 #@! TO.N,Net-(D59-DOUT)*
X97450000Y-73350000D02*
X96398300Y-73350000D01*
X92550000Y-66650000D02*
X93601700Y-66650000D01*
X93601700Y-70553400D02*
X96398300Y-73350000D01*
X93601700Y-66650000D02*
X93601700Y-70553400D01*
G04 #@! TO.N,Net-(D48-DOUT)*
X77450000Y-23350000D02*
X78501700Y-23350000D01*
X82550000Y-26650000D02*
X81498300Y-26650000D01*
X81498300Y-26346600D02*
X81498300Y-26650000D01*
X78501700Y-23350000D02*
X81498300Y-26346600D01*
G04 #@! TO.N,Net-(D61-DOUT)*
X96398300Y-53350000D02*
X96398300Y-49446600D01*
X96398300Y-49446600D02*
X93601700Y-46650000D01*
X92550000Y-46650000D02*
X93601700Y-46650000D01*
X97450000Y-53350000D02*
X96398300Y-53350000D01*
G04 #@! TO.N,Net-(D50-DOUT)*
X83601700Y-38526500D02*
X86398300Y-35729900D01*
X86398300Y-35729900D02*
X86398300Y-33350000D01*
X83601700Y-46650000D02*
X83601700Y-38526500D01*
X82550000Y-46650000D02*
X83601700Y-46650000D01*
X87450000Y-33350000D02*
X86398300Y-33350000D01*
G04 #@! TO.N,Net-(D63-DOUT)*
X92550000Y-26650000D02*
X93601700Y-26650000D01*
X96398300Y-33350000D02*
X96398300Y-29446600D01*
X96398300Y-29446600D02*
X93601700Y-26650000D01*
X97450000Y-33350000D02*
X96398300Y-33350000D01*
G04 #@! TO.N,Net-(D52-DOUT)*
X87450000Y-53350000D02*
X86398300Y-53350000D01*
X84799200Y-65452500D02*
X83601700Y-66650000D01*
X84799200Y-54949100D02*
X84799200Y-65452500D01*
X86398300Y-53350000D02*
X84799200Y-54949100D01*
X82550000Y-66650000D02*
X83601700Y-66650000D01*
G04 #@! TO.N,Net-(D64-DOUT)*
X97450000Y-23350000D02*
X103350100Y-23350000D01*
X103350100Y-23350000D02*
X105000100Y-25000000D01*
G04 #@! TO.N,Net-(D54-DOUT)*
X83601700Y-85598300D02*
X85845000Y-83355000D01*
X85845000Y-73903300D02*
X86398300Y-73350000D01*
X83601700Y-86650000D02*
X83601700Y-85598300D01*
X87450000Y-73350000D02*
X86398300Y-73350000D01*
X82550000Y-86650000D02*
X83601700Y-86650000D01*
X85845000Y-83355000D02*
X85845000Y-73903300D01*
G04 #@! TO.N,Net-(D56-DOUT)*
X91498300Y-96346600D02*
X91498300Y-96650000D01*
X88501700Y-93350000D02*
X91498300Y-96346600D01*
X92550000Y-96650000D02*
X91498300Y-96650000D01*
X87450000Y-93350000D02*
X88501700Y-93350000D01*
G04 #@! TO.N,Net-(D58-DOUT)*
X92550000Y-76650000D02*
X93601700Y-76650000D01*
X97450000Y-83350000D02*
X96398300Y-83350000D01*
X96398300Y-83350000D02*
X96398300Y-79446600D01*
X96398300Y-79446600D02*
X93601700Y-76650000D01*
G04 #@! TO.N,Net-(D60-DOUT)*
X96398300Y-59446600D02*
X93601700Y-56650000D01*
X96398300Y-63350000D02*
X96398300Y-59446600D01*
X92550000Y-56650000D02*
X93601700Y-56650000D01*
X97450000Y-63350000D02*
X96398300Y-63350000D01*
G04 #@! TO.N,Net-(D62-DOUT)*
X93601700Y-40553400D02*
X96398300Y-43350000D01*
X97450000Y-43350000D02*
X96398300Y-43350000D01*
X93601700Y-36650000D02*
X93601700Y-40553400D01*
X92550000Y-36650000D02*
X93601700Y-36650000D01*
G04 #@! TD*
M02*
