G04 #@! TF.GenerationSoftware,KiCad,Pcbnew,8.0.4*
G04 #@! TF.CreationDate,2024-08-04T14:27:04+02:00*
G04 #@! TF.ProjectId,Neopixel,4e656f70-6978-4656-9c2e-6b696361645f,rev?*
G04 #@! TF.SameCoordinates,Original*
G04 #@! TF.FileFunction,Other,User*
%FSLAX46Y46*%
G04 Gerber Fmt 4.6, Leading zero omitted, Abs format (unit mm)*
G04 Created by KiCad (PCBNEW 8.0.4) date 2024-08-04 14:27:04*
%MOMM*%
%LPD*%
G01*
G04 APERTURE LIST*
%ADD10C,0.050000*%
G04 APERTURE END LIST*
D10*
G04 #@! TO.C,D49*
X81550000Y-22250000D02*
X81550000Y-27750000D01*
X81550000Y-27750000D02*
X88450000Y-27750000D01*
X88450000Y-22250000D02*
X81550000Y-22250000D01*
X88450000Y-27750000D02*
X88450000Y-22250000D01*
G04 #@! TO.C,D57*
X91550000Y-92250000D02*
X91550000Y-97750000D01*
X91550000Y-97750000D02*
X98450000Y-97750000D01*
X98450000Y-92250000D02*
X91550000Y-92250000D01*
X98450000Y-97750000D02*
X98450000Y-92250000D01*
G04 #@! TO.C,D23*
X41550000Y-82250000D02*
X41550000Y-87750000D01*
X41550000Y-87750000D02*
X48450000Y-87750000D01*
X48450000Y-82250000D02*
X41550000Y-82250000D01*
X48450000Y-87750000D02*
X48450000Y-82250000D01*
G04 #@! TO.C,D38*
X61550000Y-72250000D02*
X61550000Y-77750000D01*
X61550000Y-77750000D02*
X68450000Y-77750000D01*
X68450000Y-72250000D02*
X61550000Y-72250000D01*
X68450000Y-77750000D02*
X68450000Y-72250000D01*
G04 #@! TO.C,D33*
X61550000Y-22250000D02*
X61550000Y-27750000D01*
X61550000Y-27750000D02*
X68450000Y-27750000D01*
X68450000Y-22250000D02*
X61550000Y-22250000D01*
X68450000Y-27750000D02*
X68450000Y-22250000D01*
G04 #@! TO.C,D19*
X41550000Y-42250000D02*
X41550000Y-47750000D01*
X41550000Y-47750000D02*
X48450000Y-47750000D01*
X48450000Y-42250000D02*
X41550000Y-42250000D01*
X48450000Y-47750000D02*
X48450000Y-42250000D01*
G04 #@! TO.C,D15*
X31550000Y-32250000D02*
X31550000Y-37750000D01*
X31550000Y-37750000D02*
X38450000Y-37750000D01*
X38450000Y-32250000D02*
X31550000Y-32250000D01*
X38450000Y-37750000D02*
X38450000Y-32250000D01*
G04 #@! TO.C,D50*
X81550000Y-32250000D02*
X81550000Y-37750000D01*
X81550000Y-37750000D02*
X88450000Y-37750000D01*
X88450000Y-32250000D02*
X81550000Y-32250000D01*
X88450000Y-37750000D02*
X88450000Y-32250000D01*
G04 #@! TO.C,D1*
X21550000Y-22250000D02*
X21550000Y-27750000D01*
X21550000Y-27750000D02*
X28450000Y-27750000D01*
X28450000Y-22250000D02*
X21550000Y-22250000D01*
X28450000Y-27750000D02*
X28450000Y-22250000D01*
G04 #@! TO.C,D8*
X21550000Y-92250000D02*
X21550000Y-97750000D01*
X21550000Y-97750000D02*
X28450000Y-97750000D01*
X28450000Y-92250000D02*
X21550000Y-92250000D01*
X28450000Y-97750000D02*
X28450000Y-92250000D01*
G04 #@! TO.C,D47*
X71550000Y-32250000D02*
X71550000Y-37750000D01*
X71550000Y-37750000D02*
X78450000Y-37750000D01*
X78450000Y-32250000D02*
X71550000Y-32250000D01*
X78450000Y-37750000D02*
X78450000Y-32250000D01*
G04 #@! TO.C,D53*
X81550000Y-62250000D02*
X81550000Y-67750000D01*
X81550000Y-67750000D02*
X88450000Y-67750000D01*
X88450000Y-62250000D02*
X81550000Y-62250000D01*
X88450000Y-67750000D02*
X88450000Y-62250000D01*
G04 #@! TO.C,D59*
X91550000Y-72250000D02*
X91550000Y-77750000D01*
X91550000Y-77750000D02*
X98450000Y-77750000D01*
X98450000Y-72250000D02*
X91550000Y-72250000D01*
X98450000Y-77750000D02*
X98450000Y-72250000D01*
G04 #@! TO.C,D12*
X31550000Y-62250000D02*
X31550000Y-67750000D01*
X31550000Y-67750000D02*
X38450000Y-67750000D01*
X38450000Y-62250000D02*
X31550000Y-62250000D01*
X38450000Y-67750000D02*
X38450000Y-62250000D01*
G04 #@! TO.C,D9*
X31550000Y-92250000D02*
X31550000Y-97750000D01*
X31550000Y-97750000D02*
X38450000Y-97750000D01*
X38450000Y-92250000D02*
X31550000Y-92250000D01*
X38450000Y-97750000D02*
X38450000Y-92250000D01*
G04 #@! TO.C,D30*
X51550000Y-42250000D02*
X51550000Y-47750000D01*
X51550000Y-47750000D02*
X58450000Y-47750000D01*
X58450000Y-42250000D02*
X51550000Y-42250000D01*
X58450000Y-47750000D02*
X58450000Y-42250000D01*
G04 #@! TO.C,D34*
X61550000Y-32250000D02*
X61550000Y-37750000D01*
X61550000Y-37750000D02*
X68450000Y-37750000D01*
X68450000Y-32250000D02*
X61550000Y-32250000D01*
X68450000Y-37750000D02*
X68450000Y-32250000D01*
G04 #@! TO.C,D42*
X71550000Y-82250000D02*
X71550000Y-87750000D01*
X71550000Y-87750000D02*
X78450000Y-87750000D01*
X78450000Y-82250000D02*
X71550000Y-82250000D01*
X78450000Y-87750000D02*
X78450000Y-82250000D01*
G04 #@! TO.C,D14*
X31550000Y-42250000D02*
X31550000Y-47750000D01*
X31550000Y-47750000D02*
X38450000Y-47750000D01*
X38450000Y-42250000D02*
X31550000Y-42250000D01*
X38450000Y-47750000D02*
X38450000Y-42250000D01*
G04 #@! TO.C,D26*
X51550000Y-82250000D02*
X51550000Y-87750000D01*
X51550000Y-87750000D02*
X58450000Y-87750000D01*
X58450000Y-82250000D02*
X51550000Y-82250000D01*
X58450000Y-87750000D02*
X58450000Y-82250000D01*
G04 #@! TO.C,D56*
X81550000Y-92250000D02*
X81550000Y-97750000D01*
X81550000Y-97750000D02*
X88450000Y-97750000D01*
X88450000Y-92250000D02*
X81550000Y-92250000D01*
X88450000Y-97750000D02*
X88450000Y-92250000D01*
G04 #@! TO.C,D3*
X21550000Y-42250000D02*
X21550000Y-47750000D01*
X21550000Y-47750000D02*
X28450000Y-47750000D01*
X28450000Y-42250000D02*
X21550000Y-42250000D01*
X28450000Y-47750000D02*
X28450000Y-42250000D01*
G04 #@! TO.C,D52*
X81550000Y-52250000D02*
X81550000Y-57750000D01*
X81550000Y-57750000D02*
X88450000Y-57750000D01*
X88450000Y-52250000D02*
X81550000Y-52250000D01*
X88450000Y-57750000D02*
X88450000Y-52250000D01*
G04 #@! TO.C,D36*
X61550000Y-52250000D02*
X61550000Y-57750000D01*
X61550000Y-57750000D02*
X68450000Y-57750000D01*
X68450000Y-52250000D02*
X61550000Y-52250000D01*
X68450000Y-57750000D02*
X68450000Y-52250000D01*
G04 #@! TO.C,D11*
X31550000Y-72250000D02*
X31550000Y-77750000D01*
X31550000Y-77750000D02*
X38450000Y-77750000D01*
X38450000Y-72250000D02*
X31550000Y-72250000D01*
X38450000Y-77750000D02*
X38450000Y-72250000D01*
G04 #@! TO.C,D27*
X51550000Y-72250000D02*
X51550000Y-77750000D01*
X51550000Y-77750000D02*
X58450000Y-77750000D01*
X58450000Y-72250000D02*
X51550000Y-72250000D01*
X58450000Y-77750000D02*
X58450000Y-72250000D01*
G04 #@! TO.C,D5*
X21550000Y-62250000D02*
X21550000Y-67750000D01*
X21550000Y-67750000D02*
X28450000Y-67750000D01*
X28450000Y-62250000D02*
X21550000Y-62250000D01*
X28450000Y-67750000D02*
X28450000Y-62250000D01*
G04 #@! TO.C,D32*
X51550000Y-22250000D02*
X51550000Y-27750000D01*
X51550000Y-27750000D02*
X58450000Y-27750000D01*
X58450000Y-22250000D02*
X51550000Y-22250000D01*
X58450000Y-27750000D02*
X58450000Y-22250000D01*
G04 #@! TO.C,D64*
X91550000Y-22250000D02*
X91550000Y-27750000D01*
X91550000Y-27750000D02*
X98450000Y-27750000D01*
X98450000Y-22250000D02*
X91550000Y-22250000D01*
X98450000Y-27750000D02*
X98450000Y-22250000D01*
G04 #@! TO.C,D45*
X71550000Y-52250000D02*
X71550000Y-57750000D01*
X71550000Y-57750000D02*
X78450000Y-57750000D01*
X78450000Y-52250000D02*
X71550000Y-52250000D01*
X78450000Y-57750000D02*
X78450000Y-52250000D01*
G04 #@! TO.C,D18*
X41550000Y-32250000D02*
X41550000Y-37750000D01*
X41550000Y-37750000D02*
X48450000Y-37750000D01*
X48450000Y-32250000D02*
X41550000Y-32250000D01*
X48450000Y-37750000D02*
X48450000Y-32250000D01*
G04 #@! TO.C,D62*
X91550000Y-42250000D02*
X91550000Y-47750000D01*
X91550000Y-47750000D02*
X98450000Y-47750000D01*
X98450000Y-42250000D02*
X91550000Y-42250000D01*
X98450000Y-47750000D02*
X98450000Y-42250000D01*
G04 #@! TO.C,D13*
X31550000Y-52250000D02*
X31550000Y-57750000D01*
X31550000Y-57750000D02*
X38450000Y-57750000D01*
X38450000Y-52250000D02*
X31550000Y-52250000D01*
X38450000Y-57750000D02*
X38450000Y-52250000D01*
G04 #@! TO.C,D37*
X61550000Y-62250000D02*
X61550000Y-67750000D01*
X61550000Y-67750000D02*
X68450000Y-67750000D01*
X68450000Y-62250000D02*
X61550000Y-62250000D01*
X68450000Y-67750000D02*
X68450000Y-62250000D01*
G04 #@! TO.C,D22*
X41550000Y-72250000D02*
X41550000Y-77750000D01*
X41550000Y-77750000D02*
X48450000Y-77750000D01*
X48450000Y-72250000D02*
X41550000Y-72250000D01*
X48450000Y-77750000D02*
X48450000Y-72250000D01*
G04 #@! TO.C,D43*
X71550000Y-72250000D02*
X71550000Y-77750000D01*
X71550000Y-77750000D02*
X78450000Y-77750000D01*
X78450000Y-72250000D02*
X71550000Y-72250000D01*
X78450000Y-77750000D02*
X78450000Y-72250000D01*
G04 #@! TO.C,D28*
X51550000Y-62250000D02*
X51550000Y-67750000D01*
X51550000Y-67750000D02*
X58450000Y-67750000D01*
X58450000Y-62250000D02*
X51550000Y-62250000D01*
X58450000Y-67750000D02*
X58450000Y-62250000D01*
G04 #@! TO.C,D29*
X51550000Y-52250000D02*
X51550000Y-57750000D01*
X51550000Y-57750000D02*
X58450000Y-57750000D01*
X58450000Y-52250000D02*
X51550000Y-52250000D01*
X58450000Y-57750000D02*
X58450000Y-52250000D01*
G04 #@! TO.C,D54*
X81550000Y-72250000D02*
X81550000Y-77750000D01*
X81550000Y-77750000D02*
X88450000Y-77750000D01*
X88450000Y-72250000D02*
X81550000Y-72250000D01*
X88450000Y-77750000D02*
X88450000Y-72250000D01*
G04 #@! TO.C,D41*
X71550000Y-92250000D02*
X71550000Y-97750000D01*
X71550000Y-97750000D02*
X78450000Y-97750000D01*
X78450000Y-92250000D02*
X71550000Y-92250000D01*
X78450000Y-97750000D02*
X78450000Y-92250000D01*
G04 #@! TO.C,D6*
X21550000Y-72250000D02*
X21550000Y-77750000D01*
X21550000Y-77750000D02*
X28450000Y-77750000D01*
X28450000Y-72250000D02*
X21550000Y-72250000D01*
X28450000Y-77750000D02*
X28450000Y-72250000D01*
G04 #@! TO.C,D35*
X61550000Y-42250000D02*
X61550000Y-47750000D01*
X61550000Y-47750000D02*
X68450000Y-47750000D01*
X68450000Y-42250000D02*
X61550000Y-42250000D01*
X68450000Y-47750000D02*
X68450000Y-42250000D01*
G04 #@! TO.C,D40*
X61550000Y-92250000D02*
X61550000Y-97750000D01*
X61550000Y-97750000D02*
X68450000Y-97750000D01*
X68450000Y-92250000D02*
X61550000Y-92250000D01*
X68450000Y-97750000D02*
X68450000Y-92250000D01*
G04 #@! TO.C,D58*
X91550000Y-82250000D02*
X91550000Y-87750000D01*
X91550000Y-87750000D02*
X98450000Y-87750000D01*
X98450000Y-82250000D02*
X91550000Y-82250000D01*
X98450000Y-87750000D02*
X98450000Y-82250000D01*
G04 #@! TO.C,D61*
X91550000Y-52250000D02*
X91550000Y-57750000D01*
X91550000Y-57750000D02*
X98450000Y-57750000D01*
X98450000Y-52250000D02*
X91550000Y-52250000D01*
X98450000Y-57750000D02*
X98450000Y-52250000D01*
G04 #@! TO.C,D31*
X51550000Y-32250000D02*
X51550000Y-37750000D01*
X51550000Y-37750000D02*
X58450000Y-37750000D01*
X58450000Y-32250000D02*
X51550000Y-32250000D01*
X58450000Y-37750000D02*
X58450000Y-32250000D01*
G04 #@! TO.C,D39*
X61550000Y-82250000D02*
X61550000Y-87750000D01*
X61550000Y-87750000D02*
X68450000Y-87750000D01*
X68450000Y-82250000D02*
X61550000Y-82250000D01*
X68450000Y-87750000D02*
X68450000Y-82250000D01*
G04 #@! TO.C,D16*
X31550000Y-22250000D02*
X31550000Y-27750000D01*
X31550000Y-27750000D02*
X38450000Y-27750000D01*
X38450000Y-22250000D02*
X31550000Y-22250000D01*
X38450000Y-27750000D02*
X38450000Y-22250000D01*
G04 #@! TO.C,D44*
X71550000Y-62250000D02*
X71550000Y-67750000D01*
X71550000Y-67750000D02*
X78450000Y-67750000D01*
X78450000Y-62250000D02*
X71550000Y-62250000D01*
X78450000Y-67750000D02*
X78450000Y-62250000D01*
G04 #@! TO.C,D24*
X41550000Y-92250000D02*
X41550000Y-97750000D01*
X41550000Y-97750000D02*
X48450000Y-97750000D01*
X48450000Y-92250000D02*
X41550000Y-92250000D01*
X48450000Y-97750000D02*
X48450000Y-92250000D01*
G04 #@! TO.C,D2*
X21550000Y-32250000D02*
X21550000Y-37750000D01*
X21550000Y-37750000D02*
X28450000Y-37750000D01*
X28450000Y-32250000D02*
X21550000Y-32250000D01*
X28450000Y-37750000D02*
X28450000Y-32250000D01*
G04 #@! TO.C,D4*
X21550000Y-52250000D02*
X21550000Y-57750000D01*
X21550000Y-57750000D02*
X28450000Y-57750000D01*
X28450000Y-52250000D02*
X21550000Y-52250000D01*
X28450000Y-57750000D02*
X28450000Y-52250000D01*
G04 #@! TO.C,D51*
X81550000Y-42250000D02*
X81550000Y-47750000D01*
X81550000Y-47750000D02*
X88450000Y-47750000D01*
X88450000Y-42250000D02*
X81550000Y-42250000D01*
X88450000Y-47750000D02*
X88450000Y-42250000D01*
G04 #@! TO.C,D60*
X91550000Y-62250000D02*
X91550000Y-67750000D01*
X91550000Y-67750000D02*
X98450000Y-67750000D01*
X98450000Y-62250000D02*
X91550000Y-62250000D01*
X98450000Y-67750000D02*
X98450000Y-62250000D01*
G04 #@! TO.C,D17*
X41550000Y-22250000D02*
X41550000Y-27750000D01*
X41550000Y-27750000D02*
X48450000Y-27750000D01*
X48450000Y-22250000D02*
X41550000Y-22250000D01*
X48450000Y-27750000D02*
X48450000Y-22250000D01*
G04 #@! TO.C,D48*
X71550000Y-22250000D02*
X71550000Y-27750000D01*
X71550000Y-27750000D02*
X78450000Y-27750000D01*
X78450000Y-22250000D02*
X71550000Y-22250000D01*
X78450000Y-27750000D02*
X78450000Y-22250000D01*
G04 #@! TO.C,D46*
X71550000Y-42250000D02*
X71550000Y-47750000D01*
X71550000Y-47750000D02*
X78450000Y-47750000D01*
X78450000Y-42250000D02*
X71550000Y-42250000D01*
X78450000Y-47750000D02*
X78450000Y-42250000D01*
G04 #@! TO.C,D63*
X91550000Y-32250000D02*
X91550000Y-37750000D01*
X91550000Y-37750000D02*
X98450000Y-37750000D01*
X98450000Y-32250000D02*
X91550000Y-32250000D01*
X98450000Y-37750000D02*
X98450000Y-32250000D01*
G04 #@! TO.C,D7*
X21550000Y-82250000D02*
X21550000Y-87750000D01*
X21550000Y-87750000D02*
X28450000Y-87750000D01*
X28450000Y-82250000D02*
X21550000Y-82250000D01*
X28450000Y-87750000D02*
X28450000Y-82250000D01*
G04 #@! TO.C,D21*
X41550000Y-62250000D02*
X41550000Y-67750000D01*
X41550000Y-67750000D02*
X48450000Y-67750000D01*
X48450000Y-62250000D02*
X41550000Y-62250000D01*
X48450000Y-67750000D02*
X48450000Y-62250000D01*
G04 #@! TO.C,D55*
X81550000Y-82250000D02*
X81550000Y-87750000D01*
X81550000Y-87750000D02*
X88450000Y-87750000D01*
X88450000Y-82250000D02*
X81550000Y-82250000D01*
X88450000Y-87750000D02*
X88450000Y-82250000D01*
G04 #@! TO.C,D10*
X31550000Y-82250000D02*
X31550000Y-87750000D01*
X31550000Y-87750000D02*
X38450000Y-87750000D01*
X38450000Y-82250000D02*
X31550000Y-82250000D01*
X38450000Y-87750000D02*
X38450000Y-82250000D01*
G04 #@! TO.C,D25*
X51550000Y-92250000D02*
X51550000Y-97750000D01*
X51550000Y-97750000D02*
X58450000Y-97750000D01*
X58450000Y-92250000D02*
X51550000Y-92250000D01*
X58450000Y-97750000D02*
X58450000Y-92250000D01*
G04 #@! TO.C,D20*
X41550000Y-52250000D02*
X41550000Y-57750000D01*
X41550000Y-57750000D02*
X48450000Y-57750000D01*
X48450000Y-52250000D02*
X41550000Y-52250000D01*
X48450000Y-57750000D02*
X48450000Y-52250000D01*
G04 #@! TD*
M02*
