%TF.GenerationSoftware,KiCad,Pcbnew,7.0.10*%
%TF.CreationDate,2024-02-10T22:50:59-05:00*%
%TF.ProjectId,blahajergo,626c6168-616a-4657-9267-6f2e6b696361,rev?*%
%TF.SameCoordinates,Original*%
%TF.FileFunction,Paste,Bot*%
%TF.FilePolarity,Positive*%
%FSLAX46Y46*%
G04 Gerber Fmt 4.6, Leading zero omitted, Abs format (unit mm)*
G04 Created by KiCad (PCBNEW 7.0.10) date 2024-02-10 22:50:59*
%MOMM*%
%LPD*%
G01*
G04 APERTURE LIST*
G04 Aperture macros list*
%AMRoundRect*
0 Rectangle with rounded corners*
0 $1 Rounding radius*
0 $2 $3 $4 $5 $6 $7 $8 $9 X,Y pos of 4 corners*
0 Add a 4 corners polygon primitive as box body*
4,1,4,$2,$3,$4,$5,$6,$7,$8,$9,$2,$3,0*
0 Add four circle primitives for the rounded corners*
1,1,$1+$1,$2,$3*
1,1,$1+$1,$4,$5*
1,1,$1+$1,$6,$7*
1,1,$1+$1,$8,$9*
0 Add four rect primitives between the rounded corners*
20,1,$1+$1,$2,$3,$4,$5,0*
20,1,$1+$1,$4,$5,$6,$7,0*
20,1,$1+$1,$6,$7,$8,$9,0*
20,1,$1+$1,$8,$9,$2,$3,0*%
%AMRotRect*
0 Rectangle, with rotation*
0 The origin of the aperture is its center*
0 $1 length*
0 $2 width*
0 $3 Rotation angle, in degrees counterclockwise*
0 Add horizontal line*
21,1,$1,$2,0,0,$3*%
G04 Aperture macros list end*
%ADD10RoundRect,0.250000X-1.025000X-1.000000X1.025000X-1.000000X1.025000X1.000000X-1.025000X1.000000X0*%
%ADD11R,0.900000X1.200000*%
%ADD12RoundRect,0.250000X-0.895490X-1.117462X1.139229X-0.867630X0.895490X1.117462X-1.139229X0.867630X0*%
%ADD13RoundRect,0.250000X0.353525X-1.387676X1.378525X0.387676X-0.353525X1.387676X-1.378525X-0.387676X0*%
%ADD14RoundRect,0.250000X-1.248893X-0.700636X0.731255X-1.231215X1.248893X0.700636X-0.731255X1.231215X0*%
%ADD15RotRect,0.900000X1.200000X7.000000*%
%ADD16RotRect,0.900000X1.200000X15.000000*%
%ADD17RotRect,0.900000X1.200000X353.000000*%
%ADD18RoundRect,0.250000X-0.731255X-1.231215X1.248893X-0.700636X0.731255X1.231215X-1.248893X0.700636X0*%
%ADD19RotRect,0.900000X1.200000X60.000000*%
%ADD20RoundRect,0.250000X-1.378525X0.387676X-0.353525X-1.387676X1.378525X-0.387676X0.353525X1.387676X0*%
%ADD21RoundRect,0.250000X-1.139229X-0.867630X0.895490X-1.117462X1.139229X0.867630X-0.895490X1.117462X0*%
%ADD22RotRect,0.900000X1.200000X345.000000*%
%ADD23RotRect,0.900000X1.200000X300.000000*%
G04 APERTURE END LIST*
D10*
%TO.C,S47*%
X127153105Y-98686896D03*
X139153105Y-100886896D03*
%TD*%
D11*
%TO.C,D29*%
X201003105Y-113686896D03*
X204303105Y-113686896D03*
%TD*%
%TO.C,D8*%
X243106647Y-164643310D03*
X246406647Y-164643310D03*
%TD*%
%TO.C,D37*%
X165003105Y-107686896D03*
X168303105Y-107686896D03*
%TD*%
%TO.C,D45*%
X147003105Y-156686896D03*
X150303105Y-156686896D03*
%TD*%
D10*
%TO.C,S31*%
X199159532Y-136681213D03*
X211159532Y-138881213D03*
%TD*%
%TO.C,S43*%
X145153105Y-111686896D03*
X157153105Y-113886896D03*
%TD*%
%TO.C,S1*%
X223256647Y-102643310D03*
X235256647Y-104843310D03*
%TD*%
%TO.C,S34*%
X181153105Y-119686896D03*
X193153105Y-121886896D03*
%TD*%
D11*
%TO.C,D1*%
X225106647Y-113643310D03*
X228406647Y-113643310D03*
%TD*%
D10*
%TO.C,S30*%
X199147050Y-119673862D03*
X211147050Y-121873862D03*
%TD*%
%TO.C,S42*%
X145153105Y-94686896D03*
X157153105Y-96886896D03*
%TD*%
D11*
%TO.C,D30*%
X201003105Y-130686896D03*
X204303105Y-130686896D03*
%TD*%
D10*
%TO.C,S38*%
X163153105Y-113686896D03*
X175153105Y-115886896D03*
%TD*%
%TO.C,S39*%
X163153105Y-130686896D03*
X175153105Y-132886896D03*
%TD*%
D11*
%TO.C,D41*%
X140307760Y-183250322D03*
X143607760Y-183250322D03*
%TD*%
D12*
%TO.C,S46*%
X116869027Y-173923835D03*
X129047694Y-174645004D03*
%TD*%
D13*
%TO.C,S28*%
X344750409Y-188850802D03*
X352655664Y-179558497D03*
%TD*%
D10*
%TO.C,S33*%
X181153105Y-102686896D03*
X193153105Y-104886896D03*
%TD*%
D11*
%TO.C,D31*%
X201003105Y-147686896D03*
X204303105Y-147686896D03*
%TD*%
D10*
%TO.C,S22*%
X295256647Y-149643310D03*
X307256647Y-151843310D03*
%TD*%
%TO.C,S10*%
X259256647Y-113643310D03*
X271256647Y-115843310D03*
%TD*%
D14*
%TO.C,S23*%
X327229745Y-177070906D03*
X338251453Y-182301772D03*
%TD*%
D10*
%TO.C,S35*%
X181153105Y-136686896D03*
X193153105Y-138886896D03*
%TD*%
%TO.C,S15*%
X277256647Y-111643310D03*
X289256647Y-113843310D03*
%TD*%
D11*
%TO.C,D54*%
X111003105Y-147686896D03*
X114303105Y-147686896D03*
%TD*%
%TO.C,D17*%
X279106647Y-156643310D03*
X282406647Y-156643310D03*
%TD*%
D10*
%TO.C,S2*%
X223256647Y-119643310D03*
X235256647Y-121843310D03*
%TD*%
D11*
%TO.C,D4*%
X225106647Y-164643310D03*
X228406647Y-164643310D03*
%TD*%
D10*
%TO.C,S37*%
X163153105Y-96686896D03*
X175153105Y-98886896D03*
%TD*%
%TO.C,S29*%
X199153105Y-102686896D03*
X211153105Y-104886896D03*
%TD*%
D11*
%TO.C,D25*%
X315106647Y-130643310D03*
X318406647Y-130643310D03*
%TD*%
%TO.C,D19*%
X297106647Y-109643310D03*
X300406647Y-109643310D03*
%TD*%
D10*
%TO.C,S44*%
X145153105Y-128686896D03*
X157153105Y-130886896D03*
%TD*%
D15*
%TO.C,D46*%
X120083433Y-184616384D03*
X123358835Y-184214216D03*
%TD*%
D16*
%TO.C,D51*%
X100052499Y-189072594D03*
X103240055Y-188218492D03*
%TD*%
D10*
%TO.C,S24*%
X313256647Y-102643310D03*
X325256647Y-104843310D03*
%TD*%
D11*
%TO.C,D9*%
X261106647Y-107643310D03*
X264406647Y-107643310D03*
%TD*%
D10*
%TO.C,S49*%
X127153105Y-132686896D03*
X139153105Y-134886896D03*
%TD*%
%TO.C,S25*%
X313256647Y-119643310D03*
X325256647Y-121843310D03*
%TD*%
D17*
%TO.C,D18*%
X306050917Y-184170630D03*
X309326319Y-184572798D03*
%TD*%
D11*
%TO.C,D36*%
X183003105Y-164686896D03*
X186303105Y-164686896D03*
%TD*%
D10*
%TO.C,S48*%
X127153105Y-115686896D03*
X139153105Y-117886896D03*
%TD*%
D11*
%TO.C,D50*%
X129003105Y-160686896D03*
X132303105Y-160686896D03*
%TD*%
D10*
%TO.C,S8*%
X241256647Y-153643310D03*
X253256647Y-155843310D03*
%TD*%
D11*
%TO.C,D52*%
X111003105Y-113686896D03*
X114303105Y-113686896D03*
%TD*%
%TO.C,D39*%
X165003105Y-141686896D03*
X168303105Y-141686896D03*
%TD*%
%TO.C,D33*%
X183003105Y-113686896D03*
X186303105Y-113686896D03*
%TD*%
D10*
%TO.C,S53*%
X109153105Y-119686896D03*
X121153105Y-121886896D03*
%TD*%
D11*
%TO.C,D53*%
X111003105Y-130686896D03*
X114303105Y-130686896D03*
%TD*%
D18*
%TO.C,S51*%
X95418526Y-178926226D03*
X107579038Y-177945434D03*
%TD*%
D10*
%TO.C,S55*%
X109153105Y-153686896D03*
X121153105Y-155886896D03*
%TD*%
D11*
%TO.C,D24*%
X315106647Y-113643310D03*
X318406647Y-113643310D03*
%TD*%
D10*
%TO.C,S11*%
X259256647Y-130643310D03*
X271256647Y-132843310D03*
%TD*%
D11*
%TO.C,D48*%
X129003105Y-126686896D03*
X132303105Y-126686896D03*
%TD*%
%TO.C,D34*%
X183003105Y-130686896D03*
X186303105Y-130686896D03*
%TD*%
%TO.C,D43*%
X147003105Y-122686896D03*
X150303105Y-122686896D03*
%TD*%
D10*
%TO.C,S16*%
X277256647Y-128643310D03*
X289256647Y-130843310D03*
%TD*%
D11*
%TO.C,D47*%
X129003105Y-109686896D03*
X132303105Y-109686896D03*
%TD*%
%TO.C,D44*%
X146997050Y-139673862D03*
X150297050Y-139673862D03*
%TD*%
%TO.C,D27*%
X315106647Y-164643310D03*
X318406647Y-164643310D03*
%TD*%
%TO.C,D42*%
X147003105Y-105686896D03*
X150303105Y-105686896D03*
%TD*%
%TO.C,D7*%
X243106647Y-147643310D03*
X246406647Y-147643310D03*
%TD*%
D10*
%TO.C,S21*%
X295256647Y-132643310D03*
X307256647Y-134843310D03*
%TD*%
D11*
%TO.C,D2*%
X225106647Y-130643310D03*
X228406647Y-130643310D03*
%TD*%
%TO.C,D16*%
X279106647Y-139643310D03*
X282406647Y-139643310D03*
%TD*%
D10*
%TO.C,S5*%
X241256647Y-102643310D03*
X253256647Y-104843310D03*
%TD*%
D11*
%TO.C,D14*%
X279106647Y-105643310D03*
X282406647Y-105643310D03*
%TD*%
%TO.C,D15*%
X279106647Y-122643310D03*
X282406647Y-122643310D03*
%TD*%
D10*
%TO.C,S4*%
X223256647Y-153643310D03*
X235256647Y-155843310D03*
%TD*%
%TO.C,S50*%
X127153105Y-149686896D03*
X139153105Y-151886896D03*
%TD*%
%TO.C,S6*%
X241256647Y-119643310D03*
X253256647Y-121843310D03*
%TD*%
%TO.C,S20*%
X295256647Y-115643310D03*
X307256647Y-117843310D03*
%TD*%
%TO.C,S32*%
X199153105Y-153686896D03*
X211153105Y-155886896D03*
%TD*%
%TO.C,S26*%
X313256647Y-136643310D03*
X325256647Y-138843310D03*
%TD*%
D11*
%TO.C,D38*%
X165003105Y-124686896D03*
X168303105Y-124686896D03*
%TD*%
D19*
%TO.C,D28*%
X355201688Y-192748655D03*
X356851688Y-189890771D03*
%TD*%
D10*
%TO.C,S41*%
X138457760Y-172250322D03*
X150457760Y-174450322D03*
%TD*%
D11*
%TO.C,D32*%
X201003105Y-164686896D03*
X204303105Y-164686896D03*
%TD*%
%TO.C,D10*%
X261106647Y-124643310D03*
X264406647Y-124643310D03*
%TD*%
%TO.C,D11*%
X261106647Y-141643310D03*
X264406647Y-141643310D03*
%TD*%
D10*
%TO.C,S17*%
X277256647Y-145643310D03*
X289256647Y-147843310D03*
%TD*%
%TO.C,S9*%
X259256647Y-96643310D03*
X271256647Y-98843310D03*
%TD*%
D11*
%TO.C,D13*%
X285801992Y-183206736D03*
X289101992Y-183206736D03*
%TD*%
%TO.C,D21*%
X297106647Y-143643310D03*
X300406647Y-143643310D03*
%TD*%
%TO.C,D20*%
X297106647Y-126643310D03*
X300406647Y-126643310D03*
%TD*%
D10*
%TO.C,S12*%
X259256647Y-147643310D03*
X271256647Y-149843310D03*
%TD*%
D11*
%TO.C,D22*%
X297106647Y-160643310D03*
X300406647Y-160643310D03*
%TD*%
%TO.C,D6*%
X243106647Y-130643310D03*
X246406647Y-130643310D03*
%TD*%
D10*
%TO.C,S45*%
X145153105Y-145686896D03*
X157153105Y-147886896D03*
%TD*%
D11*
%TO.C,D26*%
X315106647Y-147643310D03*
X318406647Y-147643310D03*
%TD*%
%TO.C,D35*%
X183003105Y-147686896D03*
X186303105Y-147686896D03*
%TD*%
D20*
%TO.C,S56*%
X81159343Y-182832210D03*
X85254088Y-194324515D03*
%TD*%
D11*
%TO.C,D3*%
X225106647Y-147643310D03*
X228406647Y-147643310D03*
%TD*%
%TO.C,D40*%
X165003105Y-158686896D03*
X168303105Y-158686896D03*
%TD*%
D10*
%TO.C,S13*%
X283951992Y-172206736D03*
X295951992Y-174406736D03*
%TD*%
%TO.C,S3*%
X223256647Y-136643310D03*
X235256647Y-138843310D03*
%TD*%
D11*
%TO.C,D12*%
X261106647Y-158643310D03*
X264406647Y-158643310D03*
%TD*%
D21*
%TO.C,S18*%
X305592902Y-173027163D03*
X317235343Y-176673197D03*
%TD*%
D10*
%TO.C,S36*%
X181153105Y-153686896D03*
X193153105Y-155886896D03*
%TD*%
%TO.C,S52*%
X109153105Y-102686896D03*
X121153105Y-104886896D03*
%TD*%
%TO.C,S7*%
X241256647Y-136643310D03*
X253256647Y-138843310D03*
%TD*%
%TO.C,S14*%
X277256647Y-94643310D03*
X289256647Y-96843310D03*
%TD*%
D22*
%TO.C,D23*%
X326169697Y-188174906D03*
X329357253Y-189029008D03*
%TD*%
D11*
%TO.C,D5*%
X243106647Y-113643310D03*
X246406647Y-113643310D03*
%TD*%
D10*
%TO.C,S54*%
X109153105Y-136686896D03*
X121153105Y-138886896D03*
%TD*%
D11*
%TO.C,D49*%
X129003105Y-143686896D03*
X132303105Y-143686896D03*
%TD*%
D23*
%TO.C,D56*%
X72558064Y-189934357D03*
X74208064Y-192792241D03*
%TD*%
D10*
%TO.C,S19*%
X295256647Y-98643310D03*
X307256647Y-100843310D03*
%TD*%
%TO.C,S27*%
X313256647Y-153643310D03*
X325256647Y-155843310D03*
%TD*%
%TO.C,S40*%
X163153105Y-147686896D03*
X175153105Y-149886896D03*
%TD*%
D11*
%TO.C,D55*%
X111003105Y-164686896D03*
X114303105Y-164686896D03*
%TD*%
M02*
