%TF.GenerationSoftware,KiCad,Pcbnew,7.0.10*%
%TF.CreationDate,2024-02-10T22:50:59-05:00*%
%TF.ProjectId,blahajergo,626c6168-616a-4657-9267-6f2e6b696361,rev?*%
%TF.SameCoordinates,Original*%
%TF.FileFunction,Paste,Top*%
%TF.FilePolarity,Positive*%
%FSLAX46Y46*%
G04 Gerber Fmt 4.6, Leading zero omitted, Abs format (unit mm)*
G04 Created by KiCad (PCBNEW 7.0.10) date 2024-02-10 22:50:59*
%MOMM*%
%LPD*%
G01*
G04 APERTURE LIST*
G04 Aperture macros list*
%AMRotRect*
0 Rectangle, with rotation*
0 The origin of the aperture is its center*
0 $1 length*
0 $2 width*
0 $3 Rotation angle, in degrees counterclockwise*
0 Add horizontal line*
21,1,$1,$2,0,0,$3*%
G04 Aperture macros list end*
%ADD10R,0.900000X1.200000*%
%ADD11R,0.900000X0.900000*%
%ADD12R,1.250000X0.900000*%
%ADD13R,1.100000X1.800000*%
%ADD14RotRect,0.900000X1.200000X7.000000*%
%ADD15RotRect,0.900000X1.200000X15.000000*%
%ADD16RotRect,0.900000X1.200000X353.000000*%
%ADD17RotRect,0.900000X1.200000X60.000000*%
%ADD18RotRect,0.900000X1.200000X345.000000*%
%ADD19RotRect,0.900000X1.200000X300.000000*%
G04 APERTURE END LIST*
D10*
%TO.C,D29*%
X201003105Y-113686896D03*
X204303105Y-113686896D03*
%TD*%
%TO.C,D8*%
X243106647Y-164643310D03*
X246406647Y-164643310D03*
%TD*%
%TO.C,D37*%
X165003105Y-107686896D03*
X168303105Y-107686896D03*
%TD*%
%TO.C,D45*%
X147003105Y-156686896D03*
X150303105Y-156686896D03*
%TD*%
%TO.C,D1*%
X225106647Y-113643310D03*
X228406647Y-113643310D03*
%TD*%
%TO.C,D30*%
X201003105Y-130686896D03*
X204303105Y-130686896D03*
%TD*%
%TO.C,D41*%
X140307760Y-183250322D03*
X143607760Y-183250322D03*
%TD*%
%TO.C,D31*%
X201003105Y-147686896D03*
X204303105Y-147686896D03*
%TD*%
%TO.C,D54*%
X111003105Y-147686896D03*
X114303105Y-147686896D03*
%TD*%
%TO.C,D17*%
X279106647Y-156643310D03*
X282406647Y-156643310D03*
%TD*%
%TO.C,D4*%
X225106647Y-164643310D03*
X228406647Y-164643310D03*
%TD*%
%TO.C,D25*%
X315106647Y-130643310D03*
X318406647Y-130643310D03*
%TD*%
D11*
%TO.C,SW4*%
X75553105Y-159636896D03*
X77753105Y-159636896D03*
X75553105Y-152236896D03*
X77753105Y-152236896D03*
D12*
X78728105Y-153686896D03*
X78728105Y-156686896D03*
X78728105Y-158186896D03*
%TD*%
D10*
%TO.C,D19*%
X297106647Y-109643310D03*
X300406647Y-109643310D03*
%TD*%
D13*
%TO.C,SW3*%
X85933282Y-148244930D03*
X85933282Y-142044930D03*
X89633282Y-148244930D03*
X89633282Y-142044930D03*
%TD*%
D14*
%TO.C,D46*%
X120083433Y-184616384D03*
X123358835Y-184214216D03*
%TD*%
D15*
%TO.C,D51*%
X100052499Y-189072594D03*
X103240055Y-188218492D03*
%TD*%
D10*
%TO.C,D9*%
X261106647Y-107643310D03*
X264406647Y-107643310D03*
%TD*%
D16*
%TO.C,D18*%
X306050917Y-184170630D03*
X309326319Y-184572798D03*
%TD*%
D10*
%TO.C,D36*%
X183003105Y-164686896D03*
X186303105Y-164686896D03*
%TD*%
%TO.C,D50*%
X129003105Y-160686896D03*
X132303105Y-160686896D03*
%TD*%
%TO.C,D52*%
X111003105Y-113686896D03*
X114303105Y-113686896D03*
%TD*%
%TO.C,D39*%
X165003105Y-141686896D03*
X168303105Y-141686896D03*
%TD*%
%TO.C,D33*%
X183003105Y-113686896D03*
X186303105Y-113686896D03*
%TD*%
%TO.C,D53*%
X111003105Y-130686896D03*
X114303105Y-130686896D03*
%TD*%
%TO.C,D24*%
X315106647Y-113643310D03*
X318406647Y-113643310D03*
%TD*%
%TO.C,D48*%
X129003105Y-126686896D03*
X132303105Y-126686896D03*
%TD*%
%TO.C,D34*%
X183003105Y-130686896D03*
X186303105Y-130686896D03*
%TD*%
%TO.C,D43*%
X147003105Y-122686896D03*
X150303105Y-122686896D03*
%TD*%
%TO.C,D47*%
X129003105Y-109686896D03*
X132303105Y-109686896D03*
%TD*%
%TO.C,D44*%
X146997050Y-139673862D03*
X150297050Y-139673862D03*
%TD*%
%TO.C,D27*%
X315106647Y-164643310D03*
X318406647Y-164643310D03*
%TD*%
%TO.C,D42*%
X147003105Y-105686896D03*
X150303105Y-105686896D03*
%TD*%
%TO.C,D7*%
X243106647Y-147643310D03*
X246406647Y-147643310D03*
%TD*%
%TO.C,D2*%
X225106647Y-130643310D03*
X228406647Y-130643310D03*
%TD*%
%TO.C,D16*%
X279106647Y-139643310D03*
X282406647Y-139643310D03*
%TD*%
%TO.C,D14*%
X279106647Y-105643310D03*
X282406647Y-105643310D03*
%TD*%
D11*
%TO.C,SW2*%
X353856647Y-152193310D03*
X351656647Y-152193310D03*
X353856647Y-159593310D03*
X351656647Y-159593310D03*
D12*
X350681647Y-158143310D03*
X350681647Y-155143310D03*
X350681647Y-153643310D03*
%TD*%
D10*
%TO.C,D15*%
X279106647Y-122643310D03*
X282406647Y-122643310D03*
%TD*%
%TO.C,D38*%
X165003105Y-124686896D03*
X168303105Y-124686896D03*
%TD*%
D17*
%TO.C,D28*%
X355201688Y-192748655D03*
X356851688Y-189890771D03*
%TD*%
D10*
%TO.C,D32*%
X201003105Y-164686896D03*
X204303105Y-164686896D03*
%TD*%
%TO.C,D10*%
X261106647Y-124643310D03*
X264406647Y-124643310D03*
%TD*%
%TO.C,D11*%
X261106647Y-141643310D03*
X264406647Y-141643310D03*
%TD*%
%TO.C,D13*%
X285801992Y-183206736D03*
X289101992Y-183206736D03*
%TD*%
%TO.C,D21*%
X297106647Y-143643310D03*
X300406647Y-143643310D03*
%TD*%
%TO.C,D20*%
X297106647Y-126643310D03*
X300406647Y-126643310D03*
%TD*%
%TO.C,D22*%
X297106647Y-160643310D03*
X300406647Y-160643310D03*
%TD*%
%TO.C,D6*%
X243106647Y-130643310D03*
X246406647Y-130643310D03*
%TD*%
%TO.C,D26*%
X315106647Y-147643310D03*
X318406647Y-147643310D03*
%TD*%
D13*
%TO.C,SW1*%
X339776470Y-148201344D03*
X339776470Y-142001344D03*
X343476470Y-148201344D03*
X343476470Y-142001344D03*
%TD*%
D10*
%TO.C,D35*%
X183003105Y-147686896D03*
X186303105Y-147686896D03*
%TD*%
%TO.C,D3*%
X225106647Y-147643310D03*
X228406647Y-147643310D03*
%TD*%
%TO.C,D40*%
X165003105Y-158686896D03*
X168303105Y-158686896D03*
%TD*%
%TO.C,D12*%
X261106647Y-158643310D03*
X264406647Y-158643310D03*
%TD*%
D18*
%TO.C,D23*%
X326169697Y-188174906D03*
X329357253Y-189029008D03*
%TD*%
D10*
%TO.C,D5*%
X243106647Y-113643310D03*
X246406647Y-113643310D03*
%TD*%
%TO.C,D49*%
X129003105Y-143686896D03*
X132303105Y-143686896D03*
%TD*%
D19*
%TO.C,D56*%
X72558064Y-189934357D03*
X74208064Y-192792241D03*
%TD*%
D10*
%TO.C,D55*%
X111003105Y-164686896D03*
X114303105Y-164686896D03*
%TD*%
M02*
