%TF.GenerationSoftware,KiCad,Pcbnew,7.0.10*%
%TF.CreationDate,2024-02-10T22:50:59-05:00*%
%TF.ProjectId,blahajergo,626c6168-616a-4657-9267-6f2e6b696361,rev?*%
%TF.SameCoordinates,Original*%
%TF.FileFunction,Soldermask,Top*%
%TF.FilePolarity,Negative*%
%FSLAX46Y46*%
G04 Gerber Fmt 4.6, Leading zero omitted, Abs format (unit mm)*
G04 Created by KiCad (PCBNEW 7.0.10) date 2024-02-10 22:50:59*
%MOMM*%
%LPD*%
G01*
G04 APERTURE LIST*
G04 Aperture macros list*
%AMRoundRect*
0 Rectangle with rounded corners*
0 $1 Rounding radius*
0 $2 $3 $4 $5 $6 $7 $8 $9 X,Y pos of 4 corners*
0 Add a 4 corners polygon primitive as box body*
4,1,4,$2,$3,$4,$5,$6,$7,$8,$9,$2,$3,0*
0 Add four circle primitives for the rounded corners*
1,1,$1+$1,$2,$3*
1,1,$1+$1,$4,$5*
1,1,$1+$1,$6,$7*
1,1,$1+$1,$8,$9*
0 Add four rect primitives between the rounded corners*
20,1,$1+$1,$2,$3,$4,$5,0*
20,1,$1+$1,$4,$5,$6,$7,0*
20,1,$1+$1,$6,$7,$8,$9,0*
20,1,$1+$1,$8,$9,$2,$3,0*%
%AMRotRect*
0 Rectangle, with rotation*
0 The origin of the aperture is its center*
0 $1 length*
0 $2 width*
0 $3 Rotation angle, in degrees counterclockwise*
0 Add horizontal line*
21,1,$1,$2,0,0,$3*%
G04 Aperture macros list end*
%ADD10C,1.900000*%
%ADD11C,3.050000*%
%ADD12C,3.450000*%
%ADD13R,1.778000X1.778000*%
%ADD14R,0.900000X1.200000*%
%ADD15C,1.905000*%
%ADD16RoundRect,0.250000X-0.350000X-0.625000X0.350000X-0.625000X0.350000X0.625000X-0.350000X0.625000X0*%
%ADD17O,1.200000X1.750000*%
%ADD18R,1.700000X1.700000*%
%ADD19O,1.700000X1.700000*%
%ADD20R,1.752600X1.752600*%
%ADD21C,1.752600*%
%ADD22R,0.900000X0.900000*%
%ADD23C,1.000000*%
%ADD24R,1.250000X0.900000*%
%ADD25R,1.100000X1.800000*%
%ADD26RotRect,1.778000X1.778000X7.000000*%
%ADD27RotRect,0.900000X1.200000X7.000000*%
%ADD28RotRect,1.778000X1.778000X15.000000*%
%ADD29RotRect,0.900000X1.200000X15.000000*%
%ADD30RotRect,1.778000X1.778000X353.000000*%
%ADD31RotRect,0.900000X1.200000X353.000000*%
%ADD32C,0.700000*%
%ADD33C,4.400000*%
%ADD34C,0.500000*%
%ADD35RotRect,1.778000X1.778000X60.000000*%
%ADD36RotRect,0.900000X1.200000X60.000000*%
%ADD37RotRect,1.778000X1.778000X345.000000*%
%ADD38RotRect,0.900000X1.200000X345.000000*%
%ADD39RotRect,1.778000X1.778000X300.000000*%
%ADD40RotRect,0.900000X1.200000X300.000000*%
G04 APERTURE END LIST*
D10*
%TO.C,S47*%
X125153105Y-104686896D03*
D11*
X130653105Y-98786896D03*
D12*
X130653105Y-104686896D03*
D11*
X135653105Y-100886896D03*
D10*
X136153105Y-104686896D03*
%TD*%
D13*
%TO.C,D29*%
X198843105Y-113686896D03*
D14*
X201003105Y-113686896D03*
X204303105Y-113686896D03*
D15*
X206463105Y-113686896D03*
%TD*%
D13*
%TO.C,D8*%
X240946647Y-164643310D03*
D14*
X243106647Y-164643310D03*
X246406647Y-164643310D03*
D15*
X248566647Y-164643310D03*
%TD*%
D13*
%TO.C,D37*%
X162843105Y-107686896D03*
D14*
X165003105Y-107686896D03*
X168303105Y-107686896D03*
D15*
X170463105Y-107686896D03*
%TD*%
D13*
%TO.C,D45*%
X144843105Y-156686896D03*
D14*
X147003105Y-156686896D03*
X150303105Y-156686896D03*
D15*
X152463105Y-156686896D03*
%TD*%
D16*
%TO.C,J3*%
X76709532Y-135631213D03*
D17*
X78709532Y-135631213D03*
%TD*%
D10*
%TO.C,S31*%
X197159532Y-142681213D03*
D11*
X202659532Y-136781213D03*
D12*
X202659532Y-142681213D03*
D11*
X207659532Y-138881213D03*
D10*
X208159532Y-142681213D03*
%TD*%
%TO.C,S43*%
X143153105Y-117686896D03*
D11*
X148653105Y-111786896D03*
D12*
X148653105Y-117686896D03*
D11*
X153653105Y-113886896D03*
D10*
X154153105Y-117686896D03*
%TD*%
%TO.C,S1*%
X221256647Y-108643310D03*
D11*
X226756647Y-102743310D03*
D12*
X226756647Y-108643310D03*
D11*
X231756647Y-104843310D03*
D10*
X232256647Y-108643310D03*
%TD*%
%TO.C,S34*%
X179153105Y-125686896D03*
D11*
X184653105Y-119786896D03*
D12*
X184653105Y-125686896D03*
D11*
X189653105Y-121886896D03*
D10*
X190153105Y-125686896D03*
%TD*%
D13*
%TO.C,D1*%
X222946647Y-113643310D03*
D14*
X225106647Y-113643310D03*
X228406647Y-113643310D03*
D15*
X230566647Y-113643310D03*
%TD*%
D10*
%TO.C,S30*%
X197147050Y-125673862D03*
D11*
X202647050Y-119773862D03*
D12*
X202647050Y-125673862D03*
D11*
X207647050Y-121873862D03*
D10*
X208147050Y-125673862D03*
%TD*%
%TO.C,S42*%
X143153105Y-100686896D03*
D11*
X148653105Y-94786896D03*
D12*
X148653105Y-100686896D03*
D11*
X153653105Y-96886896D03*
D10*
X154153105Y-100686896D03*
%TD*%
D13*
%TO.C,D30*%
X198843105Y-130686896D03*
D14*
X201003105Y-130686896D03*
X204303105Y-130686896D03*
D15*
X206463105Y-130686896D03*
%TD*%
D18*
%TO.C,J4*%
X91678282Y-135719930D03*
D19*
X89138282Y-135719930D03*
X86598282Y-135719930D03*
X84058282Y-135719930D03*
%TD*%
D10*
%TO.C,S38*%
X161153105Y-119686896D03*
D11*
X166653105Y-113786896D03*
D12*
X166653105Y-119686896D03*
D11*
X171653105Y-115886896D03*
D10*
X172153105Y-119686896D03*
%TD*%
%TO.C,S39*%
X161153105Y-136686896D03*
D11*
X166653105Y-130786896D03*
D12*
X166653105Y-136686896D03*
D11*
X171653105Y-132886896D03*
D10*
X172153105Y-136686896D03*
%TD*%
D13*
%TO.C,D41*%
X138147760Y-183250322D03*
D14*
X140307760Y-183250322D03*
X143607760Y-183250322D03*
D15*
X145767760Y-183250322D03*
%TD*%
D10*
%TO.C,S46*%
X115615151Y-180122850D03*
D11*
X120355126Y-173596547D03*
D12*
X121074155Y-179452569D03*
D11*
X125573782Y-175071547D03*
D10*
X126533159Y-178782288D03*
%TD*%
%TO.C,S28*%
X348946561Y-193582853D03*
D11*
X346587011Y-185869713D03*
D12*
X351696561Y-188819713D03*
D11*
X350905664Y-182589586D03*
D10*
X354446561Y-184056573D03*
%TD*%
%TO.C,S33*%
X179153105Y-108686896D03*
D11*
X184653105Y-102786896D03*
D12*
X184653105Y-108686896D03*
D11*
X189653105Y-104886896D03*
D10*
X190153105Y-108686896D03*
%TD*%
D13*
%TO.C,D31*%
X198843105Y-147686896D03*
D14*
X201003105Y-147686896D03*
X204303105Y-147686896D03*
D15*
X206463105Y-147686896D03*
%TD*%
D10*
%TO.C,S22*%
X293256647Y-155643310D03*
D11*
X298756647Y-149743310D03*
D12*
X298756647Y-155643310D03*
D11*
X303756647Y-151843310D03*
D10*
X304256647Y-155643310D03*
%TD*%
%TO.C,S10*%
X257256647Y-119643310D03*
D11*
X262756647Y-113743310D03*
D12*
X262756647Y-119643310D03*
D11*
X267756647Y-115843310D03*
D10*
X268256647Y-119643310D03*
%TD*%
%TO.C,S23*%
X323744979Y-182348823D03*
D11*
X330584603Y-178073366D03*
D12*
X329057571Y-183772328D03*
D11*
X334870713Y-181395905D03*
D10*
X334370163Y-185195833D03*
%TD*%
%TO.C,S35*%
X179153105Y-142686896D03*
D11*
X184653105Y-136786896D03*
D12*
X184653105Y-142686896D03*
D11*
X189653105Y-138886896D03*
D10*
X190153105Y-142686896D03*
%TD*%
%TO.C,S15*%
X275256647Y-117643310D03*
D11*
X280756647Y-111743310D03*
D12*
X280756647Y-117643310D03*
D11*
X285756647Y-113843310D03*
D10*
X286256647Y-117643310D03*
%TD*%
D13*
%TO.C,D54*%
X108843105Y-147686896D03*
D14*
X111003105Y-147686896D03*
X114303105Y-147686896D03*
D15*
X116463105Y-147686896D03*
%TD*%
D13*
%TO.C,D17*%
X276946647Y-156643310D03*
D14*
X279106647Y-156643310D03*
X282406647Y-156643310D03*
D15*
X284566647Y-156643310D03*
%TD*%
D16*
%TO.C,J2*%
X350706647Y-135593310D03*
D17*
X352706647Y-135593310D03*
%TD*%
D10*
%TO.C,S2*%
X221256647Y-125643310D03*
D11*
X226756647Y-119743310D03*
D12*
X226756647Y-125643310D03*
D11*
X231756647Y-121843310D03*
D10*
X232256647Y-125643310D03*
%TD*%
D20*
%TO.C,U2*%
X80163282Y-103207964D03*
D21*
X80163282Y-105747964D03*
X80163282Y-108287964D03*
X80163282Y-110827964D03*
X80163282Y-113367964D03*
X80163282Y-115907964D03*
X80163282Y-118447964D03*
X80163282Y-120987964D03*
X80163282Y-123527964D03*
X80163282Y-126067964D03*
X80163282Y-128607964D03*
X80163282Y-131147964D03*
X95403282Y-131147964D03*
X95403282Y-128607964D03*
X95403282Y-126067964D03*
X95403282Y-123527964D03*
X95403282Y-120987964D03*
X95403282Y-118447964D03*
X95403282Y-115907964D03*
X95403282Y-113367964D03*
X95403282Y-110827964D03*
X95403282Y-108287964D03*
X95403282Y-105747964D03*
X95403282Y-103207964D03*
%TD*%
D13*
%TO.C,D4*%
X222946647Y-164643310D03*
D14*
X225106647Y-164643310D03*
X228406647Y-164643310D03*
D15*
X230566647Y-164643310D03*
%TD*%
D10*
%TO.C,S37*%
X161153105Y-102686896D03*
D11*
X166653105Y-96786896D03*
D12*
X166653105Y-102686896D03*
D11*
X171653105Y-98886896D03*
D10*
X172153105Y-102686896D03*
%TD*%
%TO.C,S29*%
X197153105Y-108686896D03*
D11*
X202653105Y-102786896D03*
D12*
X202653105Y-108686896D03*
D11*
X207653105Y-104886896D03*
D10*
X208153105Y-108686896D03*
%TD*%
D13*
%TO.C,D25*%
X312946647Y-130643310D03*
D14*
X315106647Y-130643310D03*
X318406647Y-130643310D03*
D15*
X320566647Y-130643310D03*
%TD*%
D22*
%TO.C,SW4*%
X75553105Y-159636896D03*
X77753105Y-159636896D03*
D23*
X76653105Y-157436896D03*
X76653105Y-154436896D03*
D22*
X75553105Y-152236896D03*
X77753105Y-152236896D03*
D24*
X78728105Y-153686896D03*
X78728105Y-156686896D03*
X78728105Y-158186896D03*
%TD*%
D13*
%TO.C,D19*%
X294946647Y-109643310D03*
D14*
X297106647Y-109643310D03*
X300406647Y-109643310D03*
D15*
X302566647Y-109643310D03*
%TD*%
D10*
%TO.C,S44*%
X143153105Y-134686896D03*
D11*
X148653105Y-128786896D03*
D12*
X148653105Y-134686896D03*
D11*
X153653105Y-130886896D03*
D10*
X154153105Y-134686896D03*
%TD*%
D25*
%TO.C,SW3*%
X85933282Y-148244930D03*
X85933282Y-142044930D03*
X89633282Y-148244930D03*
X89633282Y-142044930D03*
%TD*%
D26*
%TO.C,D46*%
X117939533Y-184879622D03*
D27*
X120083433Y-184616384D03*
X123358835Y-184214216D03*
D15*
X125502735Y-183950978D03*
%TD*%
D28*
%TO.C,D51*%
X97966100Y-189631644D03*
D29*
X100052499Y-189072594D03*
X103240055Y-188218492D03*
D15*
X105326454Y-187659442D03*
%TD*%
D10*
%TO.C,S24*%
X311256647Y-108643310D03*
D11*
X316756647Y-102743310D03*
D12*
X316756647Y-108643310D03*
D11*
X321756647Y-104843310D03*
D10*
X322256647Y-108643310D03*
%TD*%
D13*
%TO.C,D9*%
X258946647Y-107643310D03*
D14*
X261106647Y-107643310D03*
X264406647Y-107643310D03*
D15*
X266566647Y-107643310D03*
%TD*%
D10*
%TO.C,S49*%
X125153105Y-138686896D03*
D11*
X130653105Y-132786896D03*
D12*
X130653105Y-138686896D03*
D11*
X135653105Y-134886896D03*
D10*
X136153105Y-138686896D03*
%TD*%
%TO.C,S25*%
X311256647Y-125643310D03*
D11*
X316756647Y-119743310D03*
D12*
X316756647Y-125643310D03*
D11*
X321756647Y-121843310D03*
D10*
X322256647Y-125643310D03*
%TD*%
D30*
%TO.C,D18*%
X303907017Y-183907392D03*
D31*
X306050917Y-184170630D03*
X309326319Y-184572798D03*
D15*
X311470219Y-184836036D03*
%TD*%
D13*
%TO.C,D36*%
X180843105Y-164686896D03*
D14*
X183003105Y-164686896D03*
X186303105Y-164686896D03*
D15*
X188463105Y-164686896D03*
%TD*%
D10*
%TO.C,S48*%
X125153105Y-121686896D03*
D11*
X130653105Y-115786896D03*
D12*
X130653105Y-121686896D03*
D11*
X135653105Y-117886896D03*
D10*
X136153105Y-121686896D03*
%TD*%
D13*
%TO.C,D50*%
X126843105Y-160686896D03*
D14*
X129003105Y-160686896D03*
X132303105Y-160686896D03*
D15*
X134463105Y-160686896D03*
%TD*%
D10*
%TO.C,S8*%
X239256647Y-159643310D03*
D11*
X244756647Y-153743310D03*
D12*
X244756647Y-159643310D03*
D11*
X249756647Y-155843310D03*
D10*
X250256647Y-159643310D03*
%TD*%
D13*
%TO.C,D52*%
X108843105Y-113686896D03*
D14*
X111003105Y-113686896D03*
X114303105Y-113686896D03*
D15*
X116463105Y-113686896D03*
%TD*%
D13*
%TO.C,D39*%
X162843105Y-141686896D03*
D14*
X165003105Y-141686896D03*
X168303105Y-141686896D03*
D15*
X170463105Y-141686896D03*
%TD*%
D13*
%TO.C,D33*%
X180843105Y-113686896D03*
D14*
X183003105Y-113686896D03*
X186303105Y-113686896D03*
D15*
X188463105Y-113686896D03*
%TD*%
D10*
%TO.C,S53*%
X107153105Y-125686896D03*
D11*
X112653105Y-119786896D03*
D12*
X112653105Y-125686896D03*
D11*
X117653105Y-121886896D03*
D10*
X118153105Y-125686896D03*
%TD*%
D13*
%TO.C,D53*%
X108843105Y-130686896D03*
D14*
X111003105Y-130686896D03*
X114303105Y-130686896D03*
D15*
X116463105Y-130686896D03*
%TD*%
D10*
%TO.C,S51*%
X95039589Y-185239419D03*
D11*
X98825149Y-178116952D03*
D12*
X100352181Y-183815914D03*
D11*
X104198298Y-178851301D03*
D10*
X105664773Y-182392409D03*
%TD*%
%TO.C,S55*%
X107153105Y-159686896D03*
D11*
X112653105Y-153786896D03*
D12*
X112653105Y-159686896D03*
D11*
X117653105Y-155886896D03*
D10*
X118153105Y-159686896D03*
%TD*%
D13*
%TO.C,D24*%
X312946647Y-113643310D03*
D14*
X315106647Y-113643310D03*
X318406647Y-113643310D03*
D15*
X320566647Y-113643310D03*
%TD*%
D10*
%TO.C,S11*%
X257256647Y-136643310D03*
D11*
X262756647Y-130743310D03*
D12*
X262756647Y-136643310D03*
D11*
X267756647Y-132843310D03*
D10*
X268256647Y-136643310D03*
%TD*%
D13*
%TO.C,D48*%
X126843105Y-126686896D03*
D14*
X129003105Y-126686896D03*
X132303105Y-126686896D03*
D15*
X134463105Y-126686896D03*
%TD*%
D13*
%TO.C,D34*%
X180843105Y-130686896D03*
D14*
X183003105Y-130686896D03*
X186303105Y-130686896D03*
D15*
X188463105Y-130686896D03*
%TD*%
D13*
%TO.C,D43*%
X144843105Y-122686896D03*
D14*
X147003105Y-122686896D03*
X150303105Y-122686896D03*
D15*
X152463105Y-122686896D03*
%TD*%
D18*
%TO.C,J1*%
X345521470Y-135676344D03*
D19*
X342981470Y-135676344D03*
X340441470Y-135676344D03*
X337901470Y-135676344D03*
%TD*%
D10*
%TO.C,S16*%
X275256647Y-134643310D03*
D11*
X280756647Y-128743310D03*
D12*
X280756647Y-134643310D03*
D11*
X285756647Y-130843310D03*
D10*
X286256647Y-134643310D03*
%TD*%
D32*
%TO.C,_6*%
X338481647Y-159968310D03*
X338964921Y-158801584D03*
X338964921Y-161135036D03*
X340131647Y-158318310D03*
D33*
X340131647Y-159968310D03*
D32*
X340131647Y-161618310D03*
X341298373Y-158801584D03*
X341298373Y-161135036D03*
X341781647Y-159968310D03*
%TD*%
D13*
%TO.C,D47*%
X126843105Y-109686896D03*
D14*
X129003105Y-109686896D03*
X132303105Y-109686896D03*
D15*
X134463105Y-109686896D03*
%TD*%
D13*
%TO.C,D44*%
X144837050Y-139673862D03*
D14*
X146997050Y-139673862D03*
X150297050Y-139673862D03*
D15*
X152457050Y-139673862D03*
%TD*%
D13*
%TO.C,D27*%
X312946647Y-164643310D03*
D14*
X315106647Y-164643310D03*
X318406647Y-164643310D03*
D15*
X320566647Y-164643310D03*
%TD*%
D13*
%TO.C,D42*%
X144843105Y-105686896D03*
D14*
X147003105Y-105686896D03*
X150303105Y-105686896D03*
D15*
X152463105Y-105686896D03*
%TD*%
D13*
%TO.C,D7*%
X240946647Y-147643310D03*
D14*
X243106647Y-147643310D03*
X246406647Y-147643310D03*
D15*
X248566647Y-147643310D03*
%TD*%
D32*
%TO.C,_1*%
X234131647Y-151168310D03*
X234614921Y-150001584D03*
X234614921Y-152335036D03*
X235781647Y-149518310D03*
D33*
X235781647Y-151168310D03*
D32*
X235781647Y-152818310D03*
X236948373Y-150001584D03*
X236948373Y-152335036D03*
X237431647Y-151168310D03*
%TD*%
D10*
%TO.C,S21*%
X293256647Y-138643310D03*
D11*
X298756647Y-132743310D03*
D12*
X298756647Y-138643310D03*
D11*
X303756647Y-134843310D03*
D10*
X304256647Y-138643310D03*
%TD*%
D13*
%TO.C,D2*%
X222946647Y-130643310D03*
D14*
X225106647Y-130643310D03*
X228406647Y-130643310D03*
D15*
X230566647Y-130643310D03*
%TD*%
D13*
%TO.C,D16*%
X276946647Y-139643310D03*
D14*
X279106647Y-139643310D03*
X282406647Y-139643310D03*
D15*
X284566647Y-139643310D03*
%TD*%
D32*
%TO.C,_3*%
X287931647Y-126168310D03*
X288414921Y-125001584D03*
X288414921Y-127335036D03*
X289581647Y-124518310D03*
D33*
X289581647Y-126168310D03*
D32*
X289581647Y-127818310D03*
X290748373Y-125001584D03*
X290748373Y-127335036D03*
X291231647Y-126168310D03*
%TD*%
D10*
%TO.C,S5*%
X239256647Y-108643310D03*
D11*
X244756647Y-102743310D03*
D12*
X244756647Y-108643310D03*
D11*
X249756647Y-104843310D03*
D10*
X250256647Y-108643310D03*
%TD*%
D34*
%TO.C,mouse-bite-2mm-slot*%
X213956690Y-133993310D03*
X215456690Y-133993310D03*
X213956690Y-133243310D03*
X215456690Y-133243310D03*
X213956690Y-132493310D03*
X215456690Y-132493310D03*
%TD*%
D13*
%TO.C,D14*%
X276946647Y-105643310D03*
D14*
X279106647Y-105643310D03*
X282406647Y-105643310D03*
D15*
X284566647Y-105643310D03*
%TD*%
D22*
%TO.C,SW2*%
X353856647Y-152193310D03*
X351656647Y-152193310D03*
D23*
X352756647Y-154393310D03*
X352756647Y-157393310D03*
D22*
X353856647Y-159593310D03*
X351656647Y-159593310D03*
D24*
X350681647Y-158143310D03*
X350681647Y-155143310D03*
X350681647Y-153643310D03*
%TD*%
D13*
%TO.C,D15*%
X276946647Y-122643310D03*
D14*
X279106647Y-122643310D03*
X282406647Y-122643310D03*
D15*
X284566647Y-122643310D03*
%TD*%
D10*
%TO.C,S4*%
X221256647Y-159643310D03*
D11*
X226756647Y-153743310D03*
D12*
X226756647Y-159643310D03*
D11*
X231756647Y-155843310D03*
D10*
X232256647Y-159643310D03*
%TD*%
%TO.C,S50*%
X125153105Y-155686896D03*
D11*
X130653105Y-149786896D03*
D12*
X130653105Y-155686896D03*
D11*
X135653105Y-151886896D03*
D10*
X136153105Y-155686896D03*
%TD*%
%TO.C,S6*%
X239256647Y-125643310D03*
D11*
X244756647Y-119743310D03*
D12*
X244756647Y-125643310D03*
D11*
X249756647Y-121843310D03*
D10*
X250256647Y-125643310D03*
%TD*%
%TO.C,S20*%
X293256647Y-121643310D03*
D11*
X298756647Y-115743310D03*
D12*
X298756647Y-121643310D03*
D11*
X303756647Y-117843310D03*
D10*
X304256647Y-121643310D03*
%TD*%
%TO.C,S32*%
X197153105Y-159686896D03*
D11*
X202653105Y-153786896D03*
D12*
X202653105Y-159686896D03*
D11*
X207653105Y-155886896D03*
D10*
X208153105Y-159686896D03*
%TD*%
%TO.C,S26*%
X311256647Y-142643310D03*
D11*
X316756647Y-136743310D03*
D12*
X316756647Y-142643310D03*
D11*
X321756647Y-138843310D03*
D10*
X322256647Y-142643310D03*
%TD*%
D13*
%TO.C,D38*%
X162843105Y-124686896D03*
D14*
X165003105Y-124686896D03*
X168303105Y-124686896D03*
D15*
X170463105Y-124686896D03*
%TD*%
D35*
%TO.C,D28*%
X354121688Y-194619270D03*
D36*
X355201688Y-192748655D03*
X356851688Y-189890771D03*
D15*
X357931688Y-188020156D03*
%TD*%
D10*
%TO.C,S41*%
X136457760Y-178250322D03*
D11*
X141957760Y-172350322D03*
D12*
X141957760Y-178250322D03*
D11*
X146957760Y-174450322D03*
D10*
X147457760Y-178250322D03*
%TD*%
D13*
%TO.C,D32*%
X198843105Y-164686896D03*
D14*
X201003105Y-164686896D03*
X204303105Y-164686896D03*
D15*
X206463105Y-164686896D03*
%TD*%
D32*
%TO.C,_5*%
X327389921Y-109976584D03*
X327873195Y-108809858D03*
X327873195Y-111143310D03*
X329039921Y-108326584D03*
D33*
X329039921Y-109976584D03*
D32*
X329039921Y-111626584D03*
X330206647Y-108809858D03*
X330206647Y-111143310D03*
X330689921Y-109976584D03*
%TD*%
D13*
%TO.C,D10*%
X258946647Y-124643310D03*
D14*
X261106647Y-124643310D03*
X264406647Y-124643310D03*
D15*
X266566647Y-124643310D03*
%TD*%
D13*
%TO.C,D11*%
X258946647Y-141643310D03*
D14*
X261106647Y-141643310D03*
X264406647Y-141643310D03*
D15*
X266566647Y-141643310D03*
%TD*%
D34*
%TO.C,mouse-bite-2mm-slot*%
X213956690Y-149993310D03*
X215456690Y-149993310D03*
X213956690Y-149243310D03*
X215456690Y-149243310D03*
X213956690Y-148493310D03*
X215456690Y-148493310D03*
%TD*%
D10*
%TO.C,S17*%
X275256647Y-151643310D03*
D11*
X280756647Y-145743310D03*
D12*
X280756647Y-151643310D03*
D11*
X285756647Y-147843310D03*
D10*
X286256647Y-151643310D03*
%TD*%
%TO.C,S9*%
X257256647Y-102643310D03*
D11*
X262756647Y-96743310D03*
D12*
X262756647Y-102643310D03*
D11*
X267756647Y-98843310D03*
D10*
X268256647Y-102643310D03*
%TD*%
D13*
%TO.C,D13*%
X283641992Y-183206736D03*
D14*
X285801992Y-183206736D03*
X289101992Y-183206736D03*
D15*
X291261992Y-183206736D03*
%TD*%
D13*
%TO.C,D21*%
X294946647Y-143643310D03*
D14*
X297106647Y-143643310D03*
X300406647Y-143643310D03*
D15*
X302566647Y-143643310D03*
%TD*%
D20*
%TO.C,U1*%
X334006470Y-103164378D03*
D21*
X334006470Y-105704378D03*
X334006470Y-108244378D03*
X334006470Y-110784378D03*
X334006470Y-113324378D03*
X334006470Y-115864378D03*
X334006470Y-118404378D03*
X334006470Y-120944378D03*
X334006470Y-123484378D03*
X334006470Y-126024378D03*
X334006470Y-128564378D03*
X334006470Y-131104378D03*
X349246470Y-131104378D03*
X349246470Y-128564378D03*
X349246470Y-126024378D03*
X349246470Y-123484378D03*
X349246470Y-120944378D03*
X349246470Y-118404378D03*
X349246470Y-115864378D03*
X349246470Y-113324378D03*
X349246470Y-110784378D03*
X349246470Y-108244378D03*
X349246470Y-105704378D03*
X349246470Y-103164378D03*
%TD*%
D13*
%TO.C,D20*%
X294946647Y-126643310D03*
D14*
X297106647Y-126643310D03*
X300406647Y-126643310D03*
D15*
X302566647Y-126643310D03*
%TD*%
D10*
%TO.C,S12*%
X257256647Y-153643310D03*
D11*
X262756647Y-147743310D03*
D12*
X262756647Y-153643310D03*
D11*
X267756647Y-149843310D03*
D10*
X268256647Y-153643310D03*
%TD*%
D13*
%TO.C,D22*%
X294946647Y-160643310D03*
D14*
X297106647Y-160643310D03*
X300406647Y-160643310D03*
D15*
X302566647Y-160643310D03*
%TD*%
D13*
%TO.C,D6*%
X240946647Y-130643310D03*
D14*
X243106647Y-130643310D03*
X246406647Y-130643310D03*
D15*
X248566647Y-130643310D03*
%TD*%
D10*
%TO.C,S45*%
X143153105Y-151686896D03*
D11*
X148653105Y-145786896D03*
D12*
X148653105Y-151686896D03*
D11*
X153653105Y-147886896D03*
D10*
X154153105Y-151686896D03*
%TD*%
D13*
%TO.C,D26*%
X312946647Y-147643310D03*
D14*
X315106647Y-147643310D03*
X318406647Y-147643310D03*
D15*
X320566647Y-147643310D03*
%TD*%
D25*
%TO.C,SW1*%
X339776470Y-148201344D03*
X339776470Y-142001344D03*
X343476470Y-148201344D03*
X343476470Y-142001344D03*
%TD*%
D13*
%TO.C,D35*%
X180843105Y-147686896D03*
D14*
X183003105Y-147686896D03*
X186303105Y-147686896D03*
D15*
X188463105Y-147686896D03*
%TD*%
D10*
%TO.C,S56*%
X74963191Y-184100159D03*
D11*
X82822741Y-185913299D03*
D12*
X77713191Y-188863299D03*
D11*
X83504088Y-191293426D03*
D10*
X80463191Y-193626439D03*
%TD*%
D32*
%TO.C,_4*%
X286676470Y-166276344D03*
X287159744Y-165109618D03*
X287159744Y-167443070D03*
X288326470Y-164626344D03*
D33*
X288326470Y-166276344D03*
D32*
X288326470Y-167926344D03*
X289493196Y-165109618D03*
X289493196Y-167443070D03*
X289976470Y-166276344D03*
%TD*%
D13*
%TO.C,D3*%
X222946647Y-147643310D03*
D14*
X225106647Y-147643310D03*
X228406647Y-147643310D03*
D15*
X230566647Y-147643310D03*
%TD*%
D13*
%TO.C,D40*%
X162843105Y-158686896D03*
D14*
X165003105Y-158686896D03*
X168303105Y-158686896D03*
D15*
X170463105Y-158686896D03*
%TD*%
D10*
%TO.C,S13*%
X281951992Y-178206736D03*
D11*
X287451992Y-172306736D03*
D12*
X287451992Y-178206736D03*
D11*
X292451992Y-174406736D03*
D10*
X292951992Y-178206736D03*
%TD*%
%TO.C,S3*%
X221256647Y-142643310D03*
D11*
X226756647Y-136743310D03*
D12*
X226756647Y-142643310D03*
D11*
X231756647Y-138843310D03*
D10*
X232256647Y-142643310D03*
%TD*%
D13*
%TO.C,D12*%
X258946647Y-158643310D03*
D14*
X261106647Y-158643310D03*
X264406647Y-158643310D03*
D15*
X266566647Y-158643310D03*
%TD*%
D10*
%TO.C,S18*%
X302876593Y-178738702D03*
D11*
X309054626Y-173552961D03*
D12*
X308335597Y-179408983D03*
D11*
X313761431Y-176246654D03*
D10*
X313794601Y-180079264D03*
%TD*%
%TO.C,S36*%
X179153105Y-159686896D03*
D11*
X184653105Y-153786896D03*
D12*
X184653105Y-159686896D03*
D11*
X189653105Y-155886896D03*
D10*
X190153105Y-159686896D03*
%TD*%
%TO.C,S52*%
X107153105Y-108686896D03*
D11*
X112653105Y-102786896D03*
D12*
X112653105Y-108686896D03*
D11*
X117653105Y-104886896D03*
D10*
X118153105Y-108686896D03*
%TD*%
%TO.C,S7*%
X239256647Y-142643310D03*
D11*
X244756647Y-136743310D03*
D12*
X244756647Y-142643310D03*
D11*
X249756647Y-138843310D03*
D10*
X250256647Y-142643310D03*
%TD*%
%TO.C,S14*%
X275256647Y-100643310D03*
D11*
X280756647Y-94743310D03*
D12*
X280756647Y-100643310D03*
D11*
X285756647Y-96843310D03*
D10*
X286256647Y-100643310D03*
%TD*%
D37*
%TO.C,D23*%
X324083298Y-187615856D03*
D38*
X326169697Y-188174906D03*
X329357253Y-189029008D03*
D15*
X331443652Y-189588058D03*
%TD*%
D13*
%TO.C,D5*%
X240946647Y-113643310D03*
D14*
X243106647Y-113643310D03*
X246406647Y-113643310D03*
D15*
X248566647Y-113643310D03*
%TD*%
D10*
%TO.C,S54*%
X107153105Y-142686896D03*
D11*
X112653105Y-136786896D03*
D12*
X112653105Y-142686896D03*
D11*
X117653105Y-138886896D03*
D10*
X118153105Y-142686896D03*
%TD*%
D13*
%TO.C,D49*%
X126843105Y-143686896D03*
D14*
X129003105Y-143686896D03*
X132303105Y-143686896D03*
D15*
X134463105Y-143686896D03*
%TD*%
D39*
%TO.C,D56*%
X71478064Y-188063742D03*
D40*
X72558064Y-189934357D03*
X74208064Y-192792241D03*
D15*
X75288064Y-194662856D03*
%TD*%
D10*
%TO.C,S19*%
X293256647Y-104643310D03*
D11*
X298756647Y-98743310D03*
D12*
X298756647Y-104643310D03*
D11*
X303756647Y-100843310D03*
D10*
X304256647Y-104643310D03*
%TD*%
%TO.C,S27*%
X311256647Y-159643310D03*
D11*
X316756647Y-153743310D03*
D12*
X316756647Y-159643310D03*
D11*
X321756647Y-155843310D03*
D10*
X322256647Y-159643310D03*
%TD*%
D34*
%TO.C,mouse-bite-2mm-slot*%
X213956690Y-117943310D03*
X215456690Y-117943310D03*
X213956690Y-117193310D03*
X215456690Y-117193310D03*
X213956690Y-116443310D03*
X215456690Y-116443310D03*
%TD*%
D10*
%TO.C,S40*%
X161153105Y-153686896D03*
D11*
X166653105Y-147786896D03*
D12*
X166653105Y-153686896D03*
D11*
X171653105Y-149886896D03*
D10*
X172153105Y-153686896D03*
%TD*%
D13*
%TO.C,D55*%
X108843105Y-164686896D03*
D14*
X111003105Y-164686896D03*
X114303105Y-164686896D03*
D15*
X116463105Y-164686896D03*
%TD*%
D32*
%TO.C,_2*%
X234131647Y-117143310D03*
X234614921Y-115976584D03*
X234614921Y-118310036D03*
X235781647Y-115493310D03*
D33*
X235781647Y-117143310D03*
D32*
X235781647Y-118793310D03*
X236948373Y-115976584D03*
X236948373Y-118310036D03*
X237431647Y-117143310D03*
%TD*%
%TO.C,_6*%
X90922050Y-159998862D03*
X90438776Y-161165588D03*
X90438776Y-158832136D03*
X89272050Y-161648862D03*
D33*
X89272050Y-159998862D03*
D32*
X89272050Y-158348862D03*
X88105324Y-161165588D03*
X88105324Y-158832136D03*
X87622050Y-159998862D03*
%TD*%
%TO.C,_4*%
X142733282Y-166319930D03*
X142250008Y-167486656D03*
X142250008Y-165153204D03*
X141083282Y-167969930D03*
D33*
X141083282Y-166319930D03*
D32*
X141083282Y-164669930D03*
X139916556Y-167486656D03*
X139916556Y-165153204D03*
X139433282Y-166319930D03*
%TD*%
%TO.C,_5*%
X102019831Y-110020170D03*
X101536557Y-111186896D03*
X101536557Y-108853444D03*
X100369831Y-111670170D03*
D33*
X100369831Y-110020170D03*
D32*
X100369831Y-108370170D03*
X99203105Y-111186896D03*
X99203105Y-108853444D03*
X98719831Y-110020170D03*
%TD*%
%TO.C,_1*%
X195272050Y-151198862D03*
X194788776Y-152365588D03*
X194788776Y-150032136D03*
X193622050Y-152848862D03*
D33*
X193622050Y-151198862D03*
D32*
X193622050Y-149548862D03*
X192455324Y-152365588D03*
X192455324Y-150032136D03*
X191972050Y-151198862D03*
%TD*%
%TO.C,_3*%
X141478105Y-126211896D03*
X140994831Y-127378622D03*
X140994831Y-125045170D03*
X139828105Y-127861896D03*
D33*
X139828105Y-126211896D03*
D32*
X139828105Y-124561896D03*
X138661379Y-127378622D03*
X138661379Y-125045170D03*
X138178105Y-126211896D03*
%TD*%
%TO.C,_2*%
X195278105Y-117186896D03*
X194794831Y-118353622D03*
X194794831Y-116020170D03*
X193628105Y-118836896D03*
D33*
X193628105Y-117186896D03*
D32*
X193628105Y-115536896D03*
X192461379Y-118353622D03*
X192461379Y-116020170D03*
X191978105Y-117186896D03*
%TD*%
M02*
