M48
; DRILL file {KiCad 7.0.10} date Sat 10 Feb 2024 10:50:59 PM EST
; FORMAT={-:-/ absolute / inch / decimal}
; #@! TF.CreationDate,2024-02-10T22:50:59-05:00
; #@! TF.GenerationSoftware,Kicad,Pcbnew,7.0.10
; #@! TF.FileFunction,NonPlated,1,2,NPTH
FMAT,2
INCH
; #@! TA.AperFunction,NonPlated,NPTH,ComponentDrill
T1C0.0197
; #@! TA.AperFunction,NonPlated,NPTH,ComponentDrill
T2C0.0354
; #@! TA.AperFunction,NonPlated,NPTH,ComponentDrill
T3C0.0748
; #@! TA.AperFunction,NonPlated,NPTH,ComponentDrill
T4C0.1201
; #@! TA.AperFunction,NonPlated,NPTH,ComponentDrill
T5C0.1358
%
G90
G05
T1
X8.4235Y-4.5844
X8.4235Y-4.6139
X8.4235Y-4.6434
X8.4235Y-5.2163
X8.4235Y-5.2458
X8.4235Y-5.2753
X8.4235Y-5.8462
X8.4235Y-5.8757
X8.4235Y-5.9052
X8.4825Y-4.5844
X8.4825Y-4.6139
X8.4825Y-4.6434
X8.4825Y-5.2163
X8.4825Y-5.2458
X8.4825Y-5.2753
X8.4825Y-5.8462
X8.4825Y-5.8757
X8.4825Y-5.9052
T2
X3.0178Y-6.0802
X3.0178Y-6.1983
X13.8881Y-6.0785
X13.8881Y-6.1966
T3
X2.9513Y-7.248
X3.1678Y-7.6231
X3.7417Y-7.2929
X4.16Y-7.1808
X4.2186Y-4.279
X4.2186Y-4.9483
X4.2186Y-5.6176
X4.2186Y-6.2869
X4.5518Y-7.0915
X4.6517Y-4.279
X4.6517Y-4.9483
X4.6517Y-5.6176
X4.6517Y-6.2869
X4.9273Y-4.1215
X4.9273Y-4.7908
X4.9273Y-5.4601
X4.9273Y-6.1294
X4.9816Y-7.0387
X5.3604Y-4.1215
X5.3604Y-4.7908
X5.3604Y-5.4601
X5.3604Y-6.1294
X5.3724Y-7.0177
X5.6359Y-3.9641
X5.6359Y-4.6333
X5.6359Y-5.3026
X5.6359Y-5.9719
X5.8054Y-7.0177
X6.069Y-3.9641
X6.069Y-4.6333
X6.069Y-5.3026
X6.069Y-5.9719
X6.3446Y-4.0428
X6.3446Y-4.7121
X6.3446Y-5.3814
X6.3446Y-6.0507
X6.7777Y-4.0428
X6.7777Y-4.7121
X6.7777Y-5.3814
X6.7777Y-6.0507
X7.0533Y-4.279
X7.0533Y-4.9483
X7.0533Y-5.6176
X7.0533Y-6.2869
X7.4863Y-4.279
X7.4863Y-4.9483
X7.4863Y-5.6176
X7.4863Y-6.2869
X7.7617Y-4.9478
X7.7619Y-4.279
X7.7619Y-6.2869
X7.7622Y-5.6174
X8.1948Y-4.9478
X8.195Y-4.279
X8.195Y-6.2869
X8.1953Y-5.6174
X8.7109Y-4.2773
X8.7109Y-4.9466
X8.7109Y-5.6159
X8.7109Y-6.2852
X9.144Y-4.2773
X9.144Y-4.9466
X9.144Y-5.6159
X9.144Y-6.2852
X9.4196Y-4.2773
X9.4196Y-4.9466
X9.4196Y-5.6159
X9.4196Y-6.2852
X9.8526Y-4.2773
X9.8526Y-4.9466
X9.8526Y-5.6159
X9.8526Y-6.2852
X10.1282Y-4.0411
X10.1282Y-4.7104
X10.1282Y-5.3797
X10.1282Y-6.0489
X10.5613Y-4.0411
X10.5613Y-4.7104
X10.5613Y-5.3797
X10.5613Y-6.0489
X10.8369Y-3.9623
X10.8369Y-4.6316
X10.8369Y-5.3009
X10.8369Y-5.9702
X11.1005Y-7.016
X11.2699Y-3.9623
X11.2699Y-4.6316
X11.2699Y-5.3009
X11.2699Y-5.9702
X11.5335Y-7.016
X11.5455Y-4.1198
X11.5455Y-4.7891
X11.5455Y-5.4584
X11.5455Y-6.1277
X11.9243Y-7.037
X11.9786Y-4.1198
X11.9786Y-4.7891
X11.9786Y-5.4584
X11.9786Y-6.1277
X12.2542Y-4.2773
X12.2542Y-4.9466
X12.2542Y-5.6159
X12.2542Y-6.2852
X12.3541Y-7.0897
X12.6873Y-4.2773
X12.6873Y-4.9466
X12.6873Y-5.6159
X12.6873Y-6.2852
X12.7459Y-7.1791
X13.1642Y-7.2912
X13.7381Y-7.6214
X13.9546Y-7.2463
T4
X3.2607Y-7.3194
X3.2876Y-7.5312
X3.8908Y-7.0125
X4.1023Y-7.0414
X4.4352Y-4.0467
X4.4352Y-4.716
X4.4352Y-5.3853
X4.4352Y-6.0546
X4.632Y-4.1294
X4.632Y-4.7987
X4.632Y-5.468
X4.632Y-6.1373
X4.7384Y-6.8345
X4.9438Y-6.8926
X5.1438Y-3.8892
X5.1438Y-4.5585
X5.1438Y-5.2278
X5.1438Y-5.8971
X5.3407Y-3.9719
X5.3407Y-4.6412
X5.3407Y-5.3105
X5.3407Y-5.9798
X5.5889Y-6.7854
X5.7857Y-6.8681
X5.8525Y-3.7318
X5.8525Y-4.4011
X5.8525Y-5.0704
X5.8525Y-5.7396
X6.0493Y-3.8144
X6.0493Y-4.4837
X6.0493Y-5.153
X6.0493Y-5.8223
X6.5611Y-3.8105
X6.5611Y-4.4798
X6.5611Y-5.1491
X6.5611Y-5.8184
X6.758Y-3.8932
X6.758Y-4.5625
X6.758Y-5.2318
X6.758Y-5.9011
X7.2698Y-4.0467
X7.2698Y-4.716
X7.2698Y-5.3853
X7.2698Y-6.0546
X7.4667Y-4.1294
X7.4667Y-4.7987
X7.4667Y-5.468
X7.4667Y-6.1373
X7.9782Y-4.7155
X7.9785Y-4.0467
X7.9785Y-6.0546
X7.9787Y-5.3851
X8.1751Y-4.7982
X8.1753Y-4.1294
X8.1753Y-6.1373
X8.1756Y-5.4678
X8.9274Y-4.045
X8.9274Y-4.7143
X8.9274Y-5.3836
X8.9274Y-6.0529
X9.1243Y-4.1277
X9.1243Y-4.797
X9.1243Y-5.4663
X9.1243Y-6.1356
X9.6361Y-4.045
X9.6361Y-4.7143
X9.6361Y-5.3836
X9.6361Y-6.0529
X9.8329Y-4.1277
X9.8329Y-4.797
X9.8329Y-5.4663
X9.8329Y-6.1356
X10.3447Y-3.8088
X10.3447Y-4.4781
X10.3447Y-5.1474
X10.3447Y-5.8167
X10.5416Y-3.8915
X10.5416Y-4.5608
X10.5416Y-5.2301
X10.5416Y-5.8993
X11.0534Y-3.7301
X11.0534Y-4.3993
X11.0534Y-5.0686
X11.0534Y-5.7379
X11.2503Y-3.8127
X11.2503Y-4.482
X11.2503Y-5.1513
X11.2503Y-5.8206
X11.317Y-6.7837
X11.5139Y-6.8664
X11.7621Y-3.8875
X11.7621Y-4.5568
X11.7621Y-5.2261
X11.7621Y-5.8954
X11.9589Y-3.9702
X11.9589Y-4.6395
X11.9589Y-5.3088
X11.9589Y-5.9781
X12.1675Y-6.8328
X12.3528Y-6.9388
X12.4707Y-4.045
X12.4707Y-4.7143
X12.4707Y-5.3836
X12.4707Y-6.0529
X12.6676Y-4.1277
X12.6676Y-4.797
X12.6676Y-5.4663
X12.6676Y-6.1356
X13.0151Y-7.0108
X13.1839Y-7.1416
X13.6452Y-7.3177
X13.8152Y-7.1886
T5
X3.0596Y-7.4356
X3.9509Y-7.2368
X4.4352Y-4.279
X4.4352Y-4.9483
X4.4352Y-5.6176
X4.4352Y-6.2869
X4.7667Y-7.0651
X5.1438Y-4.1215
X5.1438Y-4.7908
X5.1438Y-5.4601
X5.1438Y-6.1294
X5.5889Y-7.0177
X5.8525Y-3.9641
X5.8525Y-4.6333
X5.8525Y-5.3026
X5.8525Y-5.9719
X6.5611Y-4.0428
X6.5611Y-4.7121
X6.5611Y-5.3814
X6.5611Y-6.0507
X7.2698Y-4.279
X7.2698Y-4.9483
X7.2698Y-5.6176
X7.2698Y-6.2869
X7.9782Y-4.9478
X7.9785Y-4.279
X7.9785Y-6.2869
X7.9787Y-5.6174
X8.9274Y-4.2773
X8.9274Y-4.9466
X8.9274Y-5.6159
X8.9274Y-6.2852
X9.6361Y-4.2773
X9.6361Y-4.9466
X9.6361Y-5.6159
X9.6361Y-6.2852
X10.3447Y-4.0411
X10.3447Y-4.7104
X10.3447Y-5.3797
X10.3447Y-6.0489
X11.0534Y-3.9623
X11.0534Y-4.6316
X11.0534Y-5.3009
X11.0534Y-5.9702
X11.317Y-7.016
X11.7621Y-4.1198
X11.7621Y-4.7891
X11.7621Y-5.4584
X11.7621Y-6.1277
X12.1392Y-7.0633
X12.4707Y-4.2773
X12.4707Y-4.9466
X12.4707Y-5.6159
X12.4707Y-6.2852
X12.955Y-7.2351
X13.8463Y-7.4338
M30
