M48
; DRILL file {KiCad 7.0.10} date Sat 10 Feb 2024 10:50:59 PM EST
; FORMAT={-:-/ absolute / inch / decimal}
; #@! TF.CreationDate,2024-02-10T22:50:59-05:00
; #@! TF.GenerationSoftware,Kicad,Pcbnew,7.0.10
; #@! TF.FileFunction,Plated,1,2,PTH
FMAT,2
INCH
; #@! TA.AperFunction,Plated,PTH,ComponentDrill
T1C0.0157
; #@! TA.AperFunction,Plated,PTH,ComponentDrill
T2C0.0295
; #@! TA.AperFunction,Plated,PTH,ComponentDrill
T3C0.0390
; #@! TA.AperFunction,Plated,PTH,ComponentDrill
T4C0.0394
; #@! TA.AperFunction,Plated,PTH,ComponentDrill
T5C0.0430
; #@! TA.AperFunction,Plated,PTH,ComponentDrill
T6C0.0866
%
G90
G05
T1
X3.4497Y-6.2992
X3.4687Y-6.2532
X3.4687Y-6.3451
X3.5146Y-6.2342
X3.5146Y-6.3641
X3.5606Y-6.2532
X3.5606Y-6.3451
X3.5796Y-6.2992
X3.8866Y-4.3315
X3.9056Y-4.2856
X3.9056Y-4.3774
X3.9516Y-4.2665
X3.9516Y-4.3965
X3.9975Y-4.2856
X3.9975Y-4.3774
X4.0165Y-4.3315
X5.4401Y-4.969
X5.4591Y-4.923
X5.4591Y-5.0149
X5.4895Y-6.548
X5.505Y-4.904
X5.505Y-5.0339
X5.5085Y-6.5021
X5.5085Y-6.594
X5.551Y-4.923
X5.551Y-5.0149
X5.5545Y-6.4831
X5.5545Y-6.613
X5.57Y-4.969
X5.6004Y-6.5021
X5.6004Y-6.594
X5.6194Y-6.548
X7.558Y-5.9527
X7.5582Y-4.6137
X7.577Y-5.9068
X7.577Y-5.9986
X7.5772Y-4.5677
X7.5772Y-4.6596
X7.6229Y-5.8878
X7.6229Y-6.0177
X7.6232Y-4.5487
X7.6232Y-4.6786
X7.6688Y-5.9068
X7.6688Y-5.9986
X7.6691Y-4.5677
X7.6691Y-4.6596
X7.6879Y-5.9527
X7.6881Y-4.6137
X9.2178Y-4.6119
X9.2178Y-5.9515
X9.2368Y-4.566
X9.2368Y-4.6579
X9.2368Y-5.9056
X9.2368Y-5.9974
X9.2827Y-4.547
X9.2827Y-4.6769
X9.2827Y-5.8865
X9.2827Y-6.0165
X9.3287Y-4.566
X9.3287Y-4.6579
X9.3287Y-5.9056
X9.3287Y-5.9974
X9.3477Y-4.6119
X9.3477Y-5.9515
X11.2865Y-6.5463
X11.3055Y-6.5004
X11.3055Y-6.5922
X11.3359Y-4.9673
X11.3514Y-6.4814
X11.3514Y-6.6113
X11.3549Y-4.9213
X11.3549Y-5.0132
X11.3974Y-6.5004
X11.3974Y-6.5922
X11.4009Y-4.9023
X11.4009Y-5.0322
X11.4164Y-6.5463
X11.4468Y-4.9213
X11.4468Y-5.0132
X11.4658Y-4.9673
X12.8894Y-4.3298
X12.9084Y-4.2839
X12.9084Y-4.3757
X12.9543Y-4.2648
X12.9543Y-4.3947
X13.0003Y-4.2839
X13.0003Y-4.3757
X13.0193Y-4.3298
X13.326Y-6.298
X13.3451Y-6.252
X13.3451Y-6.3439
X13.391Y-6.233
X13.391Y-6.3629
X13.4369Y-6.252
X13.4369Y-6.3439
X13.456Y-6.298
T2
X3.0201Y-5.3398
X3.0988Y-5.3398
X13.8073Y-5.3383
X13.8861Y-5.3383
T3
X2.8141Y-7.4041
X2.9641Y-7.6639
X3.8569Y-7.4658
X4.1467Y-7.3882
X4.2852Y-4.4759
X4.2852Y-5.1452
X4.2852Y-5.8144
X4.2852Y-6.4837
X4.5852Y-4.4759
X4.5852Y-5.1452
X4.5852Y-5.8144
X4.5852Y-6.4837
X4.6433Y-7.2787
X4.9411Y-7.2422
X4.9938Y-4.3184
X4.9938Y-4.9877
X4.9938Y-5.657
X4.9938Y-6.3263
X5.2938Y-4.3184
X5.2938Y-4.9877
X5.2938Y-5.657
X5.2938Y-6.3263
X5.4389Y-7.2146
X5.7022Y-5.499
X5.7025Y-4.1609
X5.7025Y-4.8302
X5.7025Y-6.1688
X5.7389Y-7.2146
X6.0022Y-5.499
X6.0025Y-4.1609
X6.0025Y-4.8302
X6.0025Y-6.1688
X6.4111Y-4.2396
X6.4111Y-4.9089
X6.4111Y-5.5782
X6.4111Y-6.2475
X6.7111Y-4.2396
X6.7111Y-4.9089
X6.7111Y-5.5782
X6.7111Y-6.2475
X7.1198Y-4.4759
X7.1198Y-5.1452
X7.1198Y-5.8144
X7.1198Y-6.4837
X7.4198Y-4.4759
X7.4198Y-5.1452
X7.4198Y-5.8144
X7.4198Y-6.4837
X7.8285Y-4.4759
X7.8285Y-5.1452
X7.8285Y-5.8144
X7.8285Y-6.4837
X8.1285Y-4.4759
X8.1285Y-5.1452
X8.1285Y-5.8144
X8.1285Y-6.4837
X8.7774Y-4.4741
X8.7774Y-5.1434
X8.7774Y-5.8127
X8.7774Y-6.482
X9.0774Y-4.4741
X9.0774Y-5.1434
X9.0774Y-5.8127
X9.0774Y-6.482
X9.4861Y-4.4741
X9.4861Y-5.1434
X9.4861Y-5.8127
X9.4861Y-6.482
X9.7861Y-4.4741
X9.7861Y-5.1434
X9.7861Y-5.8127
X9.7861Y-6.482
X10.1947Y-4.2379
X10.1947Y-4.9072
X10.1947Y-5.5765
X10.1947Y-6.2458
X10.4947Y-4.2379
X10.4947Y-4.9072
X10.4947Y-5.5765
X10.4947Y-6.2458
X10.9034Y-4.1592
X10.9034Y-4.8285
X10.9034Y-5.4978
X10.9034Y-6.1671
X11.167Y-7.2129
X11.2034Y-4.1592
X11.2034Y-4.8285
X11.2034Y-5.4978
X11.2034Y-6.1671
X11.467Y-7.2129
X11.6121Y-4.3167
X11.6121Y-4.986
X11.6121Y-5.6552
X11.6121Y-6.3245
X11.9121Y-4.3167
X11.9121Y-4.986
X11.9121Y-5.6552
X11.9121Y-6.3245
X11.9648Y-7.2404
X12.2626Y-7.277
X12.3207Y-4.4741
X12.3207Y-5.1434
X12.3207Y-5.8127
X12.3207Y-6.482
X12.6207Y-4.4741
X12.6207Y-5.1434
X12.6207Y-5.8127
X12.6207Y-6.482
X12.7592Y-7.3865
X13.049Y-7.4641
X13.9418Y-7.6622
X14.0918Y-7.4024
T4
X3.3094Y-5.3433
X3.4094Y-5.3433
X3.5094Y-5.3433
X3.6094Y-5.3433
X13.3032Y-5.3416
X13.4032Y-5.3416
X13.5032Y-5.3416
X13.6032Y-5.3416
T5
X3.156Y-4.0633
X3.156Y-4.1633
X3.156Y-4.2633
X3.156Y-4.3633
X3.156Y-4.4633
X3.156Y-4.5633
X3.156Y-4.6633
X3.156Y-4.7633
X3.156Y-4.8633
X3.156Y-4.9633
X3.156Y-5.0633
X3.156Y-5.1633
X3.756Y-4.0633
X3.756Y-4.1633
X3.756Y-4.2633
X3.756Y-4.3633
X3.756Y-4.4633
X3.756Y-4.5633
X3.756Y-4.6633
X3.756Y-4.7633
X3.756Y-4.8633
X3.756Y-4.9633
X3.756Y-5.0633
X3.756Y-5.1633
X13.1499Y-4.0616
X13.1499Y-4.1616
X13.1499Y-4.2616
X13.1499Y-4.3616
X13.1499Y-4.4616
X13.1499Y-4.5616
X13.1499Y-4.6616
X13.1499Y-4.7616
X13.1499Y-4.8616
X13.1499Y-4.9616
X13.1499Y-5.0616
X13.1499Y-5.1616
X13.7499Y-4.0616
X13.7499Y-4.1616
X13.7499Y-4.2616
X13.7499Y-4.3616
X13.7499Y-4.4616
X13.7499Y-4.5616
X13.7499Y-4.6616
X13.7499Y-4.7616
X13.7499Y-4.8616
X13.7499Y-4.9616
X13.7499Y-5.0616
X13.7499Y-5.1616
T6
X3.5146Y-6.2992
X3.9516Y-4.3315
X5.505Y-4.969
X5.5545Y-6.548
X7.6229Y-5.9527
X7.6232Y-4.6137
X9.2827Y-4.6119
X9.2827Y-5.9515
X11.3514Y-6.5463
X11.4009Y-4.9673
X12.9543Y-4.3298
X13.391Y-6.298
M30
