%TF.GenerationSoftware,KiCad,Pcbnew,7.0.10*%
%TF.CreationDate,2024-02-10T22:50:59-05:00*%
%TF.ProjectId,blahajergo,626c6168-616a-4657-9267-6f2e6b696361,rev?*%
%TF.SameCoordinates,Original*%
%TF.FileFunction,Copper,L1,Top*%
%TF.FilePolarity,Positive*%
%FSLAX46Y46*%
G04 Gerber Fmt 4.6, Leading zero omitted, Abs format (unit mm)*
G04 Created by KiCad (PCBNEW 7.0.10) date 2024-02-10 22:50:59*
%MOMM*%
%LPD*%
G01*
G04 APERTURE LIST*
G04 Aperture macros list*
%AMRoundRect*
0 Rectangle with rounded corners*
0 $1 Rounding radius*
0 $2 $3 $4 $5 $6 $7 $8 $9 X,Y pos of 4 corners*
0 Add a 4 corners polygon primitive as box body*
4,1,4,$2,$3,$4,$5,$6,$7,$8,$9,$2,$3,0*
0 Add four circle primitives for the rounded corners*
1,1,$1+$1,$2,$3*
1,1,$1+$1,$4,$5*
1,1,$1+$1,$6,$7*
1,1,$1+$1,$8,$9*
0 Add four rect primitives between the rounded corners*
20,1,$1+$1,$2,$3,$4,$5,0*
20,1,$1+$1,$4,$5,$6,$7,0*
20,1,$1+$1,$6,$7,$8,$9,0*
20,1,$1+$1,$8,$9,$2,$3,0*%
%AMRotRect*
0 Rectangle, with rotation*
0 The origin of the aperture is its center*
0 $1 length*
0 $2 width*
0 $3 Rotation angle, in degrees counterclockwise*
0 Add horizontal line*
21,1,$1,$2,0,0,$3*%
G04 Aperture macros list end*
%TA.AperFunction,ComponentPad*%
%ADD10R,1.778000X1.778000*%
%TD*%
%TA.AperFunction,SMDPad,CuDef*%
%ADD11R,0.900000X1.200000*%
%TD*%
%TA.AperFunction,ComponentPad*%
%ADD12C,1.905000*%
%TD*%
%TA.AperFunction,ComponentPad*%
%ADD13RoundRect,0.250000X-0.350000X-0.625000X0.350000X-0.625000X0.350000X0.625000X-0.350000X0.625000X0*%
%TD*%
%TA.AperFunction,ComponentPad*%
%ADD14O,1.200000X1.750000*%
%TD*%
%TA.AperFunction,ComponentPad*%
%ADD15R,1.700000X1.700000*%
%TD*%
%TA.AperFunction,ComponentPad*%
%ADD16O,1.700000X1.700000*%
%TD*%
%TA.AperFunction,ComponentPad*%
%ADD17R,1.752600X1.752600*%
%TD*%
%TA.AperFunction,ComponentPad*%
%ADD18C,1.752600*%
%TD*%
%TA.AperFunction,SMDPad,CuDef*%
%ADD19R,0.900000X0.900000*%
%TD*%
%TA.AperFunction,WasherPad*%
%ADD20C,1.000000*%
%TD*%
%TA.AperFunction,SMDPad,CuDef*%
%ADD21R,1.250000X0.900000*%
%TD*%
%TA.AperFunction,SMDPad,CuDef*%
%ADD22R,1.100000X1.800000*%
%TD*%
%TA.AperFunction,ComponentPad*%
%ADD23RotRect,1.778000X1.778000X7.000000*%
%TD*%
%TA.AperFunction,SMDPad,CuDef*%
%ADD24RotRect,0.900000X1.200000X7.000000*%
%TD*%
%TA.AperFunction,ComponentPad*%
%ADD25RotRect,1.778000X1.778000X15.000000*%
%TD*%
%TA.AperFunction,SMDPad,CuDef*%
%ADD26RotRect,0.900000X1.200000X15.000000*%
%TD*%
%TA.AperFunction,ComponentPad*%
%ADD27RotRect,1.778000X1.778000X353.000000*%
%TD*%
%TA.AperFunction,SMDPad,CuDef*%
%ADD28RotRect,0.900000X1.200000X353.000000*%
%TD*%
%TA.AperFunction,ComponentPad*%
%ADD29C,0.700000*%
%TD*%
%TA.AperFunction,ComponentPad*%
%ADD30C,4.400000*%
%TD*%
%TA.AperFunction,ComponentPad*%
%ADD31RotRect,1.778000X1.778000X60.000000*%
%TD*%
%TA.AperFunction,SMDPad,CuDef*%
%ADD32RotRect,0.900000X1.200000X60.000000*%
%TD*%
%TA.AperFunction,ComponentPad*%
%ADD33RotRect,1.778000X1.778000X345.000000*%
%TD*%
%TA.AperFunction,SMDPad,CuDef*%
%ADD34RotRect,0.900000X1.200000X345.000000*%
%TD*%
%TA.AperFunction,ComponentPad*%
%ADD35RotRect,1.778000X1.778000X300.000000*%
%TD*%
%TA.AperFunction,SMDPad,CuDef*%
%ADD36RotRect,0.900000X1.200000X300.000000*%
%TD*%
%TA.AperFunction,Conductor*%
%ADD37C,0.250000*%
%TD*%
G04 APERTURE END LIST*
D10*
%TO.P,D29,1,K*%
%TO.N,R_ROW1*%
X198843105Y-113686896D03*
D11*
X201003105Y-113686896D03*
%TO.P,D29,2,A*%
%TO.N,Net-(D29-A)*%
X204303105Y-113686896D03*
D12*
X206463105Y-113686896D03*
%TD*%
D10*
%TO.P,D8,1,K*%
%TO.N,L_ROW4*%
X240946647Y-164643310D03*
D11*
X243106647Y-164643310D03*
%TO.P,D8,2,A*%
%TO.N,Net-(D8-A)*%
X246406647Y-164643310D03*
D12*
X248566647Y-164643310D03*
%TD*%
D10*
%TO.P,D37,1,K*%
%TO.N,R_ROW1*%
X162843105Y-107686896D03*
D11*
X165003105Y-107686896D03*
%TO.P,D37,2,A*%
%TO.N,Net-(D37-A)*%
X168303105Y-107686896D03*
D12*
X170463105Y-107686896D03*
%TD*%
D10*
%TO.P,D45,1,K*%
%TO.N,R_ROW4*%
X144843105Y-156686896D03*
D11*
X147003105Y-156686896D03*
%TO.P,D45,2,A*%
%TO.N,Net-(D45-A)*%
X150303105Y-156686896D03*
D12*
X152463105Y-156686896D03*
%TD*%
D13*
%TO.P,J3,1,Pin_1*%
%TO.N,R_BAT_IN*%
X76709532Y-135631213D03*
D14*
%TO.P,J3,2,Pin_2*%
%TO.N,GND*%
X78709532Y-135631213D03*
%TD*%
D10*
%TO.P,D1,1,K*%
%TO.N,L_ROW1*%
X222946647Y-113643310D03*
D11*
X225106647Y-113643310D03*
%TO.P,D1,2,A*%
%TO.N,Net-(D1-A)*%
X228406647Y-113643310D03*
D12*
X230566647Y-113643310D03*
%TD*%
D10*
%TO.P,D30,1,K*%
%TO.N,R_ROW2*%
X198843105Y-130686896D03*
D11*
X201003105Y-130686896D03*
%TO.P,D30,2,A*%
%TO.N,Net-(D30-A)*%
X204303105Y-130686896D03*
D12*
X206463105Y-130686896D03*
%TD*%
D15*
%TO.P,J4,1,GND*%
%TO.N,GND*%
X91678282Y-135719930D03*
D16*
%TO.P,J4,2,VCC*%
%TO.N,VCC*%
X89138282Y-135719930D03*
%TO.P,J4,3,SCL*%
%TO.N,R_SCL*%
X86598282Y-135719930D03*
%TO.P,J4,4,SDA*%
%TO.N,R_SDA*%
X84058282Y-135719930D03*
%TD*%
D10*
%TO.P,D41,1,K*%
%TO.N,R_ROW5*%
X138147760Y-183250322D03*
D11*
X140307760Y-183250322D03*
%TO.P,D41,2,A*%
%TO.N,Net-(D41-A)*%
X143607760Y-183250322D03*
D12*
X145767760Y-183250322D03*
%TD*%
D10*
%TO.P,D31,1,K*%
%TO.N,R_ROW3*%
X198843105Y-147686896D03*
D11*
X201003105Y-147686896D03*
%TO.P,D31,2,A*%
%TO.N,Net-(D31-A)*%
X204303105Y-147686896D03*
D12*
X206463105Y-147686896D03*
%TD*%
D10*
%TO.P,D54,1,K*%
%TO.N,R_ROW3*%
X108843105Y-147686896D03*
D11*
X111003105Y-147686896D03*
%TO.P,D54,2,A*%
%TO.N,Net-(D54-A)*%
X114303105Y-147686896D03*
D12*
X116463105Y-147686896D03*
%TD*%
D10*
%TO.P,D17,1,K*%
%TO.N,L_ROW4*%
X276946647Y-156643310D03*
D11*
X279106647Y-156643310D03*
%TO.P,D17,2,A*%
%TO.N,Net-(D17-A)*%
X282406647Y-156643310D03*
D12*
X284566647Y-156643310D03*
%TD*%
D13*
%TO.P,J2,1,Pin_1*%
%TO.N,L_BAT_IN*%
X350706647Y-135593310D03*
D14*
%TO.P,J2,2,Pin_2*%
%TO.N,GND*%
X352706647Y-135593310D03*
%TD*%
D17*
%TO.P,U2,1,D1*%
%TO.N,R_COL1*%
X80163282Y-103207964D03*
D18*
%TO.P,U2,2,D0*%
%TO.N,R_COL2*%
X80163282Y-105747964D03*
%TO.P,U2,3,GND*%
%TO.N,GND*%
X80163282Y-108287964D03*
%TO.P,U2,4,GND*%
X80163282Y-110827964D03*
%TO.P,U2,5,D2*%
%TO.N,R_SDA*%
X80163282Y-113367964D03*
%TO.P,U2,6,D3*%
%TO.N,R_SCL*%
X80163282Y-115907964D03*
%TO.P,U2,7,D4*%
%TO.N,R_ROW1*%
X80163282Y-118447964D03*
%TO.P,U2,8,D5*%
%TO.N,R_ROW2*%
X80163282Y-120987964D03*
%TO.P,U2,9,D6*%
%TO.N,R_ROW3*%
X80163282Y-123527964D03*
%TO.P,U2,10,D7*%
%TO.N,R_ROW4*%
X80163282Y-126067964D03*
%TO.P,U2,11,D8*%
%TO.N,R_ROW5*%
X80163282Y-128607964D03*
%TO.P,U2,12,D9*%
%TO.N,R_COL3*%
X80163282Y-131147964D03*
%TO.P,U2,13,D10*%
%TO.N,R_COL6*%
X95403282Y-131147964D03*
%TO.P,U2,14,D16*%
%TO.N,R_COL5*%
X95403282Y-128607964D03*
%TO.P,U2,15,D14*%
%TO.N,R_COL4*%
X95403282Y-126067964D03*
%TO.P,U2,16,D15*%
%TO.N,unconnected-(U2-D15-Pad16)*%
X95403282Y-123527964D03*
%TO.P,U2,17,D18*%
%TO.N,unconnected-(U2-D18-Pad17)*%
X95403282Y-120987964D03*
%TO.P,U2,18,D19*%
%TO.N,unconnected-(U2-D19-Pad18)*%
X95403282Y-118447964D03*
%TO.P,U2,19,D20*%
%TO.N,unconnected-(U2-D20-Pad19)*%
X95403282Y-115907964D03*
%TO.P,U2,20,D21*%
%TO.N,unconnected-(U2-D21-Pad20)*%
X95403282Y-113367964D03*
%TO.P,U2,21,3.3v*%
%TO.N,VCC*%
X95403282Y-110827964D03*
%TO.P,U2,22,RST*%
%TO.N,R_RST*%
X95403282Y-108287964D03*
%TO.P,U2,23,GND*%
%TO.N,GND*%
X95403282Y-105747964D03*
%TO.P,U2,24,B+*%
%TO.N,R_BAT_RAW*%
X95403282Y-103207964D03*
%TD*%
D10*
%TO.P,D4,1,K*%
%TO.N,L_ROW4*%
X222946647Y-164643310D03*
D11*
X225106647Y-164643310D03*
%TO.P,D4,2,A*%
%TO.N,Net-(D4-A)*%
X228406647Y-164643310D03*
D12*
X230566647Y-164643310D03*
%TD*%
D10*
%TO.P,D25,1,K*%
%TO.N,L_ROW2*%
X312946647Y-130643310D03*
D11*
X315106647Y-130643310D03*
%TO.P,D25,2,A*%
%TO.N,Net-(D25-A)*%
X318406647Y-130643310D03*
D12*
X320566647Y-130643310D03*
%TD*%
D19*
%TO.P,SW4,*%
%TO.N,*%
X75553105Y-159636896D03*
X77753105Y-159636896D03*
D20*
X76653105Y-157436896D03*
X76653105Y-154436896D03*
D19*
X75553105Y-152236896D03*
X77753105Y-152236896D03*
D21*
%TO.P,SW4,1,A*%
%TO.N,R_BAT_RAW*%
X78728105Y-153686896D03*
%TO.P,SW4,2,B*%
%TO.N,R_BAT_IN*%
X78728105Y-156686896D03*
%TO.P,SW4,3,C*%
%TO.N,unconnected-(SW4-C-Pad3)*%
X78728105Y-158186896D03*
%TD*%
D10*
%TO.P,D19,1,K*%
%TO.N,L_ROW1*%
X294946647Y-109643310D03*
D11*
X297106647Y-109643310D03*
%TO.P,D19,2,A*%
%TO.N,Net-(D19-A)*%
X300406647Y-109643310D03*
D12*
X302566647Y-109643310D03*
%TD*%
D22*
%TO.P,SW3,1,1*%
%TO.N,GND*%
X85933282Y-148244930D03*
X85933282Y-142044930D03*
%TO.P,SW3,2,2*%
%TO.N,R_RST*%
X89633282Y-148244930D03*
X89633282Y-142044930D03*
%TD*%
D23*
%TO.P,D46,1,K*%
%TO.N,R_ROW5*%
X117939533Y-184879622D03*
D24*
X120083433Y-184616384D03*
%TO.P,D46,2,A*%
%TO.N,Net-(D46-A)*%
X123358835Y-184214216D03*
D12*
X125502735Y-183950978D03*
%TD*%
D25*
%TO.P,D51,1,K*%
%TO.N,R_ROW5*%
X97966100Y-189631644D03*
D26*
X100052499Y-189072594D03*
%TO.P,D51,2,A*%
%TO.N,Net-(D51-A)*%
X103240055Y-188218492D03*
D12*
X105326454Y-187659442D03*
%TD*%
D10*
%TO.P,D9,1,K*%
%TO.N,L_ROW1*%
X258946647Y-107643310D03*
D11*
X261106647Y-107643310D03*
%TO.P,D9,2,A*%
%TO.N,Net-(D9-A)*%
X264406647Y-107643310D03*
D12*
X266566647Y-107643310D03*
%TD*%
D27*
%TO.P,D18,1,K*%
%TO.N,L_ROW5*%
X303907017Y-183907392D03*
D28*
X306050917Y-184170630D03*
%TO.P,D18,2,A*%
%TO.N,Net-(D18-A)*%
X309326319Y-184572798D03*
D12*
X311470219Y-184836036D03*
%TD*%
D10*
%TO.P,D36,1,K*%
%TO.N,R_ROW4*%
X180843105Y-164686896D03*
D11*
X183003105Y-164686896D03*
%TO.P,D36,2,A*%
%TO.N,Net-(D36-A)*%
X186303105Y-164686896D03*
D12*
X188463105Y-164686896D03*
%TD*%
D10*
%TO.P,D50,1,K*%
%TO.N,R_ROW4*%
X126843105Y-160686896D03*
D11*
X129003105Y-160686896D03*
%TO.P,D50,2,A*%
%TO.N,Net-(D50-A)*%
X132303105Y-160686896D03*
D12*
X134463105Y-160686896D03*
%TD*%
D10*
%TO.P,D52,1,K*%
%TO.N,R_ROW1*%
X108843105Y-113686896D03*
D11*
X111003105Y-113686896D03*
%TO.P,D52,2,A*%
%TO.N,Net-(D52-A)*%
X114303105Y-113686896D03*
D12*
X116463105Y-113686896D03*
%TD*%
D10*
%TO.P,D39,1,K*%
%TO.N,R_ROW3*%
X162843105Y-141686896D03*
D11*
X165003105Y-141686896D03*
%TO.P,D39,2,A*%
%TO.N,Net-(D39-A)*%
X168303105Y-141686896D03*
D12*
X170463105Y-141686896D03*
%TD*%
D10*
%TO.P,D33,1,K*%
%TO.N,R_ROW1*%
X180843105Y-113686896D03*
D11*
X183003105Y-113686896D03*
%TO.P,D33,2,A*%
%TO.N,Net-(D33-A)*%
X186303105Y-113686896D03*
D12*
X188463105Y-113686896D03*
%TD*%
D10*
%TO.P,D53,1,K*%
%TO.N,R_ROW2*%
X108843105Y-130686896D03*
D11*
X111003105Y-130686896D03*
%TO.P,D53,2,A*%
%TO.N,Net-(D53-A)*%
X114303105Y-130686896D03*
D12*
X116463105Y-130686896D03*
%TD*%
D10*
%TO.P,D24,1,K*%
%TO.N,L_ROW1*%
X312946647Y-113643310D03*
D11*
X315106647Y-113643310D03*
%TO.P,D24,2,A*%
%TO.N,Net-(D24-A)*%
X318406647Y-113643310D03*
D12*
X320566647Y-113643310D03*
%TD*%
D10*
%TO.P,D48,1,K*%
%TO.N,R_ROW2*%
X126843105Y-126686896D03*
D11*
X129003105Y-126686896D03*
%TO.P,D48,2,A*%
%TO.N,Net-(D48-A)*%
X132303105Y-126686896D03*
D12*
X134463105Y-126686896D03*
%TD*%
D10*
%TO.P,D34,1,K*%
%TO.N,R_ROW2*%
X180843105Y-130686896D03*
D11*
X183003105Y-130686896D03*
%TO.P,D34,2,A*%
%TO.N,Net-(D34-A)*%
X186303105Y-130686896D03*
D12*
X188463105Y-130686896D03*
%TD*%
D10*
%TO.P,D43,1,K*%
%TO.N,R_ROW2*%
X144843105Y-122686896D03*
D11*
X147003105Y-122686896D03*
%TO.P,D43,2,A*%
%TO.N,Net-(D43-A)*%
X150303105Y-122686896D03*
D12*
X152463105Y-122686896D03*
%TD*%
D15*
%TO.P,J1,1,GND*%
%TO.N,GND*%
X345521470Y-135676344D03*
D16*
%TO.P,J1,2,VCC*%
%TO.N,VCC*%
X342981470Y-135676344D03*
%TO.P,J1,3,SCL*%
%TO.N,L_SCL*%
X340441470Y-135676344D03*
%TO.P,J1,4,SDA*%
%TO.N,L_SDA*%
X337901470Y-135676344D03*
%TD*%
D29*
%TO.P,_6,1*%
%TO.N,N/C*%
X338481647Y-159968310D03*
X338964921Y-158801584D03*
X338964921Y-161135036D03*
X340131647Y-158318310D03*
D30*
X340131647Y-159968310D03*
D29*
X340131647Y-161618310D03*
X341298373Y-158801584D03*
X341298373Y-161135036D03*
X341781647Y-159968310D03*
%TD*%
D10*
%TO.P,D47,1,K*%
%TO.N,R_ROW1*%
X126843105Y-109686896D03*
D11*
X129003105Y-109686896D03*
%TO.P,D47,2,A*%
%TO.N,Net-(D47-A)*%
X132303105Y-109686896D03*
D12*
X134463105Y-109686896D03*
%TD*%
D10*
%TO.P,D44,1,K*%
%TO.N,R_ROW3*%
X144837050Y-139673862D03*
D11*
X146997050Y-139673862D03*
%TO.P,D44,2,A*%
%TO.N,Net-(D44-A)*%
X150297050Y-139673862D03*
D12*
X152457050Y-139673862D03*
%TD*%
D10*
%TO.P,D27,1,K*%
%TO.N,L_ROW4*%
X312946647Y-164643310D03*
D11*
X315106647Y-164643310D03*
%TO.P,D27,2,A*%
%TO.N,Net-(D27-A)*%
X318406647Y-164643310D03*
D12*
X320566647Y-164643310D03*
%TD*%
D10*
%TO.P,D42,1,K*%
%TO.N,R_ROW1*%
X144843105Y-105686896D03*
D11*
X147003105Y-105686896D03*
%TO.P,D42,2,A*%
%TO.N,Net-(D42-A)*%
X150303105Y-105686896D03*
D12*
X152463105Y-105686896D03*
%TD*%
D10*
%TO.P,D7,1,K*%
%TO.N,L_ROW3*%
X240946647Y-147643310D03*
D11*
X243106647Y-147643310D03*
%TO.P,D7,2,A*%
%TO.N,Net-(D7-A)*%
X246406647Y-147643310D03*
D12*
X248566647Y-147643310D03*
%TD*%
D29*
%TO.P,_1,1*%
%TO.N,N/C*%
X234131647Y-151168310D03*
X234614921Y-150001584D03*
X234614921Y-152335036D03*
X235781647Y-149518310D03*
D30*
X235781647Y-151168310D03*
D29*
X235781647Y-152818310D03*
X236948373Y-150001584D03*
X236948373Y-152335036D03*
X237431647Y-151168310D03*
%TD*%
D10*
%TO.P,D2,1,K*%
%TO.N,L_ROW2*%
X222946647Y-130643310D03*
D11*
X225106647Y-130643310D03*
%TO.P,D2,2,A*%
%TO.N,Net-(D2-A)*%
X228406647Y-130643310D03*
D12*
X230566647Y-130643310D03*
%TD*%
D10*
%TO.P,D16,1,K*%
%TO.N,L_ROW3*%
X276946647Y-139643310D03*
D11*
X279106647Y-139643310D03*
%TO.P,D16,2,A*%
%TO.N,Net-(D16-A)*%
X282406647Y-139643310D03*
D12*
X284566647Y-139643310D03*
%TD*%
D29*
%TO.P,_3,1*%
%TO.N,N/C*%
X287931647Y-126168310D03*
X288414921Y-125001584D03*
X288414921Y-127335036D03*
X289581647Y-124518310D03*
D30*
X289581647Y-126168310D03*
D29*
X289581647Y-127818310D03*
X290748373Y-125001584D03*
X290748373Y-127335036D03*
X291231647Y-126168310D03*
%TD*%
D10*
%TO.P,D14,1,K*%
%TO.N,L_ROW1*%
X276946647Y-105643310D03*
D11*
X279106647Y-105643310D03*
%TO.P,D14,2,A*%
%TO.N,Net-(D14-A)*%
X282406647Y-105643310D03*
D12*
X284566647Y-105643310D03*
%TD*%
D19*
%TO.P,SW2,*%
%TO.N,*%
X353856647Y-152193310D03*
X351656647Y-152193310D03*
D20*
X352756647Y-154393310D03*
X352756647Y-157393310D03*
D19*
X353856647Y-159593310D03*
X351656647Y-159593310D03*
D21*
%TO.P,SW2,1,A*%
%TO.N,L_BAT_RAW*%
X350681647Y-158143310D03*
%TO.P,SW2,2,B*%
%TO.N,L_BAT_IN*%
X350681647Y-155143310D03*
%TO.P,SW2,3,C*%
%TO.N,unconnected-(SW2-C-Pad3)*%
X350681647Y-153643310D03*
%TD*%
D10*
%TO.P,D15,1,K*%
%TO.N,L_ROW2*%
X276946647Y-122643310D03*
D11*
X279106647Y-122643310D03*
%TO.P,D15,2,A*%
%TO.N,Net-(D15-A)*%
X282406647Y-122643310D03*
D12*
X284566647Y-122643310D03*
%TD*%
D10*
%TO.P,D38,1,K*%
%TO.N,R_ROW2*%
X162843105Y-124686896D03*
D11*
X165003105Y-124686896D03*
%TO.P,D38,2,A*%
%TO.N,Net-(D38-A)*%
X168303105Y-124686896D03*
D12*
X170463105Y-124686896D03*
%TD*%
D31*
%TO.P,D28,1,K*%
%TO.N,L_ROW5*%
X354121688Y-194619270D03*
D32*
X355201688Y-192748655D03*
%TO.P,D28,2,A*%
%TO.N,Net-(D28-A)*%
X356851688Y-189890771D03*
D12*
X357931688Y-188020156D03*
%TD*%
D10*
%TO.P,D32,1,K*%
%TO.N,R_ROW4*%
X198843105Y-164686896D03*
D11*
X201003105Y-164686896D03*
%TO.P,D32,2,A*%
%TO.N,Net-(D32-A)*%
X204303105Y-164686896D03*
D12*
X206463105Y-164686896D03*
%TD*%
D29*
%TO.P,_5,1*%
%TO.N,N/C*%
X327389921Y-109976584D03*
X327873195Y-108809858D03*
X327873195Y-111143310D03*
X329039921Y-108326584D03*
D30*
X329039921Y-109976584D03*
D29*
X329039921Y-111626584D03*
X330206647Y-108809858D03*
X330206647Y-111143310D03*
X330689921Y-109976584D03*
%TD*%
D10*
%TO.P,D10,1,K*%
%TO.N,L_ROW2*%
X258946647Y-124643310D03*
D11*
X261106647Y-124643310D03*
%TO.P,D10,2,A*%
%TO.N,Net-(D10-A)*%
X264406647Y-124643310D03*
D12*
X266566647Y-124643310D03*
%TD*%
D10*
%TO.P,D11,1,K*%
%TO.N,L_ROW3*%
X258946647Y-141643310D03*
D11*
X261106647Y-141643310D03*
%TO.P,D11,2,A*%
%TO.N,Net-(D11-A)*%
X264406647Y-141643310D03*
D12*
X266566647Y-141643310D03*
%TD*%
D10*
%TO.P,D13,1,K*%
%TO.N,L_ROW5*%
X283641992Y-183206736D03*
D11*
X285801992Y-183206736D03*
%TO.P,D13,2,A*%
%TO.N,Net-(D13-A)*%
X289101992Y-183206736D03*
D12*
X291261992Y-183206736D03*
%TD*%
D10*
%TO.P,D21,1,K*%
%TO.N,L_ROW3*%
X294946647Y-143643310D03*
D11*
X297106647Y-143643310D03*
%TO.P,D21,2,A*%
%TO.N,Net-(D21-A)*%
X300406647Y-143643310D03*
D12*
X302566647Y-143643310D03*
%TD*%
D17*
%TO.P,U1,1,D1*%
%TO.N,L_COL1*%
X334006470Y-103164378D03*
D18*
%TO.P,U1,2,D0*%
%TO.N,L_COL2*%
X334006470Y-105704378D03*
%TO.P,U1,3,GND*%
%TO.N,GND*%
X334006470Y-108244378D03*
%TO.P,U1,4,GND*%
X334006470Y-110784378D03*
%TO.P,U1,5,D2*%
%TO.N,L_SDA*%
X334006470Y-113324378D03*
%TO.P,U1,6,D3*%
%TO.N,L_SCL*%
X334006470Y-115864378D03*
%TO.P,U1,7,D4*%
%TO.N,L_ROW1*%
X334006470Y-118404378D03*
%TO.P,U1,8,D5*%
%TO.N,L_ROW2*%
X334006470Y-120944378D03*
%TO.P,U1,9,D6*%
%TO.N,L_ROW3*%
X334006470Y-123484378D03*
%TO.P,U1,10,D7*%
%TO.N,L_ROW4*%
X334006470Y-126024378D03*
%TO.P,U1,11,D8*%
%TO.N,L_ROW5*%
X334006470Y-128564378D03*
%TO.P,U1,12,D9*%
%TO.N,L_COL3*%
X334006470Y-131104378D03*
%TO.P,U1,13,D10*%
%TO.N,L_COL6*%
X349246470Y-131104378D03*
%TO.P,U1,14,D16*%
%TO.N,L_COL5*%
X349246470Y-128564378D03*
%TO.P,U1,15,D14*%
%TO.N,L_COL4*%
X349246470Y-126024378D03*
%TO.P,U1,16,D15*%
%TO.N,unconnected-(U1-D15-Pad16)*%
X349246470Y-123484378D03*
%TO.P,U1,17,D18*%
%TO.N,unconnected-(U1-D18-Pad17)*%
X349246470Y-120944378D03*
%TO.P,U1,18,D19*%
%TO.N,unconnected-(U1-D19-Pad18)*%
X349246470Y-118404378D03*
%TO.P,U1,19,D20*%
%TO.N,unconnected-(U1-D20-Pad19)*%
X349246470Y-115864378D03*
%TO.P,U1,20,D21*%
%TO.N,unconnected-(U1-D21-Pad20)*%
X349246470Y-113324378D03*
%TO.P,U1,21,3.3v*%
%TO.N,VCC*%
X349246470Y-110784378D03*
%TO.P,U1,22,RST*%
%TO.N,L_RST*%
X349246470Y-108244378D03*
%TO.P,U1,23,GND*%
%TO.N,GND*%
X349246470Y-105704378D03*
%TO.P,U1,24,B+*%
%TO.N,L_BAT_RAW*%
X349246470Y-103164378D03*
%TD*%
D10*
%TO.P,D20,1,K*%
%TO.N,L_ROW2*%
X294946647Y-126643310D03*
D11*
X297106647Y-126643310D03*
%TO.P,D20,2,A*%
%TO.N,Net-(D20-A)*%
X300406647Y-126643310D03*
D12*
X302566647Y-126643310D03*
%TD*%
D10*
%TO.P,D22,1,K*%
%TO.N,L_ROW4*%
X294946647Y-160643310D03*
D11*
X297106647Y-160643310D03*
%TO.P,D22,2,A*%
%TO.N,Net-(D22-A)*%
X300406647Y-160643310D03*
D12*
X302566647Y-160643310D03*
%TD*%
D10*
%TO.P,D6,1,K*%
%TO.N,L_ROW2*%
X240946647Y-130643310D03*
D11*
X243106647Y-130643310D03*
%TO.P,D6,2,A*%
%TO.N,Net-(D6-A)*%
X246406647Y-130643310D03*
D12*
X248566647Y-130643310D03*
%TD*%
D10*
%TO.P,D26,1,K*%
%TO.N,L_ROW3*%
X312946647Y-147643310D03*
D11*
X315106647Y-147643310D03*
%TO.P,D26,2,A*%
%TO.N,Net-(D26-A)*%
X318406647Y-147643310D03*
D12*
X320566647Y-147643310D03*
%TD*%
D22*
%TO.P,SW1,1,1*%
%TO.N,GND*%
X339776470Y-148201344D03*
X339776470Y-142001344D03*
%TO.P,SW1,2,2*%
%TO.N,L_RST*%
X343476470Y-148201344D03*
X343476470Y-142001344D03*
%TD*%
D10*
%TO.P,D35,1,K*%
%TO.N,R_ROW3*%
X180843105Y-147686896D03*
D11*
X183003105Y-147686896D03*
%TO.P,D35,2,A*%
%TO.N,Net-(D35-A)*%
X186303105Y-147686896D03*
D12*
X188463105Y-147686896D03*
%TD*%
D29*
%TO.P,_4,1*%
%TO.N,N/C*%
X286676470Y-166276344D03*
X287159744Y-165109618D03*
X287159744Y-167443070D03*
X288326470Y-164626344D03*
D30*
X288326470Y-166276344D03*
D29*
X288326470Y-167926344D03*
X289493196Y-165109618D03*
X289493196Y-167443070D03*
X289976470Y-166276344D03*
%TD*%
D10*
%TO.P,D3,1,K*%
%TO.N,L_ROW3*%
X222946647Y-147643310D03*
D11*
X225106647Y-147643310D03*
%TO.P,D3,2,A*%
%TO.N,Net-(D3-A)*%
X228406647Y-147643310D03*
D12*
X230566647Y-147643310D03*
%TD*%
D10*
%TO.P,D40,1,K*%
%TO.N,R_ROW4*%
X162843105Y-158686896D03*
D11*
X165003105Y-158686896D03*
%TO.P,D40,2,A*%
%TO.N,Net-(D40-A)*%
X168303105Y-158686896D03*
D12*
X170463105Y-158686896D03*
%TD*%
D10*
%TO.P,D12,1,K*%
%TO.N,L_ROW4*%
X258946647Y-158643310D03*
D11*
X261106647Y-158643310D03*
%TO.P,D12,2,A*%
%TO.N,Net-(D12-A)*%
X264406647Y-158643310D03*
D12*
X266566647Y-158643310D03*
%TD*%
D33*
%TO.P,D23,1,K*%
%TO.N,L_ROW5*%
X324083298Y-187615856D03*
D34*
X326169697Y-188174906D03*
%TO.P,D23,2,A*%
%TO.N,Net-(D23-A)*%
X329357253Y-189029008D03*
D12*
X331443652Y-189588058D03*
%TD*%
D10*
%TO.P,D5,1,K*%
%TO.N,L_ROW1*%
X240946647Y-113643310D03*
D11*
X243106647Y-113643310D03*
%TO.P,D5,2,A*%
%TO.N,Net-(D5-A)*%
X246406647Y-113643310D03*
D12*
X248566647Y-113643310D03*
%TD*%
D10*
%TO.P,D49,1,K*%
%TO.N,R_ROW3*%
X126843105Y-143686896D03*
D11*
X129003105Y-143686896D03*
%TO.P,D49,2,A*%
%TO.N,Net-(D49-A)*%
X132303105Y-143686896D03*
D12*
X134463105Y-143686896D03*
%TD*%
D35*
%TO.P,D56,1,K*%
%TO.N,R_ROW5*%
X71478064Y-188063742D03*
D36*
X72558064Y-189934357D03*
%TO.P,D56,2,A*%
%TO.N,Net-(D56-A)*%
X74208064Y-192792241D03*
D12*
X75288064Y-194662856D03*
%TD*%
D10*
%TO.P,D55,1,K*%
%TO.N,R_ROW4*%
X108843105Y-164686896D03*
D11*
X111003105Y-164686896D03*
%TO.P,D55,2,A*%
%TO.N,Net-(D55-A)*%
X114303105Y-164686896D03*
D12*
X116463105Y-164686896D03*
%TD*%
D29*
%TO.P,_2,1*%
%TO.N,N/C*%
X234131647Y-117143310D03*
X234614921Y-115976584D03*
X234614921Y-118310036D03*
X235781647Y-115493310D03*
D30*
X235781647Y-117143310D03*
D29*
X235781647Y-118793310D03*
X236948373Y-115976584D03*
X236948373Y-118310036D03*
X237431647Y-117143310D03*
%TD*%
%TO.P,_6,1*%
%TO.N,N/C*%
X90922050Y-159998862D03*
X90438776Y-161165588D03*
X90438776Y-158832136D03*
X89272050Y-161648862D03*
D30*
X89272050Y-159998862D03*
D29*
X89272050Y-158348862D03*
X88105324Y-161165588D03*
X88105324Y-158832136D03*
X87622050Y-159998862D03*
%TD*%
%TO.P,_4,1*%
%TO.N,N/C*%
X142733282Y-166319930D03*
X142250008Y-167486656D03*
X142250008Y-165153204D03*
X141083282Y-167969930D03*
D30*
X141083282Y-166319930D03*
D29*
X141083282Y-164669930D03*
X139916556Y-167486656D03*
X139916556Y-165153204D03*
X139433282Y-166319930D03*
%TD*%
%TO.P,_5,1*%
%TO.N,N/C*%
X102019831Y-110020170D03*
X101536557Y-111186896D03*
X101536557Y-108853444D03*
X100369831Y-111670170D03*
D30*
X100369831Y-110020170D03*
D29*
X100369831Y-108370170D03*
X99203105Y-111186896D03*
X99203105Y-108853444D03*
X98719831Y-110020170D03*
%TD*%
%TO.P,_1,1*%
%TO.N,N/C*%
X195272050Y-151198862D03*
X194788776Y-152365588D03*
X194788776Y-150032136D03*
X193622050Y-152848862D03*
D30*
X193622050Y-151198862D03*
D29*
X193622050Y-149548862D03*
X192455324Y-152365588D03*
X192455324Y-150032136D03*
X191972050Y-151198862D03*
%TD*%
%TO.P,_3,1*%
%TO.N,N/C*%
X141478105Y-126211896D03*
X140994831Y-127378622D03*
X140994831Y-125045170D03*
X139828105Y-127861896D03*
D30*
X139828105Y-126211896D03*
D29*
X139828105Y-124561896D03*
X138661379Y-127378622D03*
X138661379Y-125045170D03*
X138178105Y-126211896D03*
%TD*%
%TO.P,_2,1*%
%TO.N,N/C*%
X195278105Y-117186896D03*
X194794831Y-118353622D03*
X194794831Y-116020170D03*
X193628105Y-118836896D03*
D30*
X193628105Y-117186896D03*
D29*
X193628105Y-115536896D03*
X192461379Y-118353622D03*
X192461379Y-116020170D03*
X191978105Y-117186896D03*
%TD*%
D37*
%TO.N,GND*%
X337628182Y-108244378D02*
X334006470Y-108244378D01*
X339176470Y-109792665D02*
X339176470Y-137502079D01*
X75384532Y-131043713D02*
X75384532Y-131618713D01*
X78709532Y-135431213D02*
X78709532Y-135631213D01*
X78616510Y-108287964D02*
X80163282Y-108287964D01*
X78568110Y-135089791D02*
X75587825Y-132109506D01*
X354101470Y-107833082D02*
X354101470Y-132190055D01*
X85933282Y-142044930D02*
X85933282Y-148244930D01*
X85933282Y-142044930D02*
X85933282Y-138003343D01*
X352706647Y-135082238D02*
X352706647Y-135593310D01*
X339776470Y-142001344D02*
X339776470Y-138950608D01*
X85334532Y-136557832D02*
X85334532Y-108664127D01*
X75384532Y-111519942D02*
X75384532Y-131043713D01*
X351972765Y-105704378D02*
X349246470Y-105704378D01*
X353068028Y-134209784D02*
X353404058Y-133873755D01*
X88250695Y-105747964D02*
X95403282Y-105747964D01*
X339776470Y-142001344D02*
X339776470Y-148201344D01*
X339776462Y-138950608D02*
G75*
G03*
X339476470Y-138226344I-1024262J8D01*
G01*
X354101492Y-107833082D02*
G75*
G03*
X353477987Y-106327861I-2128692J-18D01*
G01*
X78616510Y-108287959D02*
G75*
G03*
X76331157Y-109234589I-10J-3231941D01*
G01*
X339176475Y-137502079D02*
G75*
G03*
X339476471Y-138226343I1024225J-21D01*
G01*
X85933236Y-138003343D02*
G75*
G03*
X85633907Y-137280588I-1022136J43D01*
G01*
X76331138Y-109234570D02*
G75*
G03*
X75384532Y-111519942I2285362J-2285330D01*
G01*
X353404072Y-133873769D02*
G75*
G03*
X354101470Y-132190055I-1683672J1683669D01*
G01*
X78709525Y-135431213D02*
G75*
G03*
X78568109Y-135089792I-482825J13D01*
G01*
X338723003Y-108697845D02*
G75*
G03*
X337628182Y-108244378I-1094803J-1094855D01*
G01*
X353478008Y-106327840D02*
G75*
G03*
X351972765Y-105704378I-1505208J-1505260D01*
G01*
X85334520Y-136557832D02*
G75*
G03*
X85633907Y-137280588I1022180J32D01*
G01*
X353068006Y-134209762D02*
G75*
G03*
X352706647Y-135082238I872494J-872438D01*
G01*
X88250695Y-105747953D02*
G75*
G03*
X86188657Y-106602089I5J-2916147D01*
G01*
X75384518Y-131618713D02*
G75*
G03*
X75587825Y-132109506I694082J13D01*
G01*
X339176499Y-109792665D02*
G75*
G03*
X338722987Y-108697861I-1548299J-35D01*
G01*
X86188642Y-106602074D02*
G75*
G03*
X85334532Y-108664127I2062058J-2062026D01*
G01*
%TO.N,VCC*%
X90441830Y-112123914D02*
X90438031Y-112127713D01*
X93570531Y-110827964D02*
X95403282Y-110827964D01*
X89138282Y-115265586D02*
X89138282Y-135719930D01*
X342981470Y-114475084D02*
X342981470Y-135676344D01*
X346672176Y-110784378D02*
X349246470Y-110784378D01*
X90438039Y-112127721D02*
G75*
G03*
X89138282Y-115265586I3137861J-3137879D01*
G01*
X93570531Y-110827982D02*
G75*
G03*
X90441831Y-112123915I-31J-4424618D01*
G01*
X346672176Y-110784367D02*
G75*
G03*
X344062454Y-111865362I24J-3690733D01*
G01*
X344062456Y-111865364D02*
G75*
G03*
X342981470Y-114475084I2609744J-2609736D01*
G01*
%TO.N,Net-(D1-A)*%
X230566647Y-113643310D02*
X228406647Y-113643310D01*
%TO.N,Net-(D2-A)*%
X230566647Y-130643310D02*
X228406647Y-130643310D01*
%TO.N,Net-(D3-A)*%
X230566647Y-147643310D02*
X228406647Y-147643310D01*
%TO.N,Net-(D4-A)*%
X230566647Y-164643310D02*
X228406647Y-164643310D01*
%TO.N,Net-(D5-A)*%
X246406647Y-113643310D02*
X248566647Y-113643310D01*
%TO.N,Net-(D6-A)*%
X248566647Y-130643310D02*
X246406647Y-130643310D01*
%TO.N,Net-(D7-A)*%
X248566647Y-147643310D02*
X246406647Y-147643310D01*
%TO.N,Net-(D8-A)*%
X248566647Y-164643310D02*
X246406647Y-164643310D01*
%TO.N,Net-(D9-A)*%
X264406647Y-107643310D02*
X266566647Y-107643310D01*
%TO.N,Net-(D10-A)*%
X266566647Y-124643310D02*
X264406647Y-124643310D01*
%TO.N,Net-(D11-A)*%
X266566647Y-141643310D02*
X264406647Y-141643310D01*
%TO.N,Net-(D12-A)*%
X266566647Y-158643310D02*
X264406647Y-158643310D01*
%TO.N,Net-(D13-A)*%
X291261992Y-183206736D02*
X289101992Y-183206736D01*
%TO.N,Net-(D14-A)*%
X282406647Y-105643310D02*
X284566647Y-105643310D01*
%TO.N,Net-(D15-A)*%
X282406647Y-122643310D02*
X284566647Y-122643310D01*
%TO.N,Net-(D16-A)*%
X284566647Y-139643310D02*
X282406647Y-139643310D01*
%TO.N,Net-(D17-A)*%
X284566647Y-156643310D02*
X282406647Y-156643310D01*
%TO.N,Net-(D18-A)*%
X309775694Y-184836036D02*
X311470219Y-184836036D01*
X309457938Y-184704417D02*
X309326319Y-184572798D01*
X309457949Y-184704406D02*
G75*
G03*
X309775694Y-184836036I317751J317706D01*
G01*
%TO.N,Net-(D19-A)*%
X300406647Y-109643310D02*
X302566647Y-109643310D01*
%TO.N,Net-(D20-A)*%
X300406647Y-126643310D02*
X302566647Y-126643310D01*
%TO.N,Net-(D21-A)*%
X300406647Y-143643310D02*
X302566647Y-143643310D01*
%TO.N,Net-(D22-A)*%
X300406647Y-160643310D02*
X302566647Y-160643310D01*
%TO.N,Net-(D23-A)*%
X330311611Y-189588058D02*
X331443652Y-189588058D01*
X329636778Y-189308533D02*
X329357253Y-189029008D01*
X329636772Y-189308539D02*
G75*
G03*
X330311611Y-189588058I674828J674839D01*
G01*
%TO.N,Net-(D24-A)*%
X318406647Y-113643310D02*
X320566647Y-113643310D01*
%TO.N,Net-(D25-A)*%
X320566647Y-130643310D02*
X318406647Y-130643310D01*
%TO.N,Net-(D26-A)*%
X318406647Y-147643310D02*
X320566647Y-147643310D01*
%TO.N,Net-(D27-A)*%
X318406647Y-164643310D02*
X320566647Y-164643310D01*
%TO.N,Net-(D28-A)*%
X357652163Y-189090295D02*
X356851688Y-189890771D01*
X357931688Y-188415463D02*
X357931688Y-188020156D01*
X357652188Y-189090320D02*
G75*
G03*
X357931688Y-188415463I-674888J674820D01*
G01*
%TO.N,L_ROW1*%
X276946647Y-106921879D02*
X276946647Y-105643310D01*
X259372046Y-109271920D02*
X259436558Y-109336432D01*
X312182541Y-113643310D02*
X313710752Y-113643310D01*
X240946647Y-114643326D02*
X240946647Y-113643310D01*
X232590711Y-115237102D02*
X232520262Y-115307550D01*
X294946647Y-109643310D02*
X297106647Y-109643310D01*
X277851111Y-107826344D02*
X286441681Y-107826344D01*
X222946647Y-113643310D02*
X222946647Y-114801904D01*
X275303075Y-105643310D02*
X276946647Y-105643310D01*
X276946647Y-105643310D02*
X279106647Y-105643310D01*
X225046086Y-116901344D02*
X228672506Y-116901344D01*
X222946647Y-113643310D02*
X225106647Y-113643310D01*
X313486951Y-115711825D02*
X313936558Y-116161432D01*
X294946647Y-109643310D02*
X290828224Y-109643310D01*
X257940575Y-107643310D02*
X258645844Y-107643310D01*
X308120382Y-113643310D02*
X312182541Y-113643310D01*
X248818538Y-116401344D02*
X242704664Y-116401344D01*
X259247449Y-107643310D02*
X261106647Y-107643310D01*
X252288969Y-114963843D02*
X252780714Y-114472099D01*
X258946647Y-107944112D02*
X258946647Y-108244915D01*
X294946647Y-109643310D02*
X294946647Y-111108491D01*
X313710752Y-113643310D02*
X315106647Y-113643310D01*
X326640441Y-117151344D02*
X316326416Y-117151344D01*
X272497323Y-106805490D02*
X271070262Y-108232551D01*
X259247449Y-107643310D02*
X258645844Y-107643310D01*
X240946647Y-113643310D02*
X236438467Y-113643310D01*
X256223103Y-108354709D02*
X254672225Y-109905588D01*
X304699523Y-112226344D02*
X296064499Y-112226344D01*
X240946647Y-113643310D02*
X243106647Y-113643310D01*
X267222506Y-109826344D02*
X260619309Y-109826344D01*
X329665532Y-118404378D02*
X334006470Y-118404378D01*
X259247449Y-107643347D02*
G75*
G03*
X258946647Y-107944112I-49J-300753D01*
G01*
X295274060Y-111898930D02*
G75*
G03*
X296064499Y-112226344I790440J790430D01*
G01*
X223561564Y-116286426D02*
G75*
G03*
X225046086Y-116901344I1484536J1484526D01*
G01*
X267222506Y-109826349D02*
G75*
G03*
X271070262Y-108232551I-6J5441549D01*
G01*
X257940575Y-107643297D02*
G75*
G03*
X256223103Y-108354709I25J-2428903D01*
G01*
X306409929Y-112934851D02*
G75*
G03*
X304699523Y-112226344I-1710429J-1710349D01*
G01*
X313710752Y-113643247D02*
G75*
G03*
X312946647Y-114407415I48J-764153D01*
G01*
X248818538Y-116401365D02*
G75*
G03*
X252288968Y-114963842I-38J4907965D01*
G01*
X240946639Y-114643326D02*
G75*
G03*
X241461558Y-115886432I1758061J26D01*
G01*
X222946648Y-114801904D02*
G75*
G03*
X223561558Y-116286432I2099452J4D01*
G01*
X259436557Y-109336433D02*
G75*
G03*
X260619309Y-109826344I1182743J1182733D01*
G01*
X277211557Y-107561433D02*
G75*
G03*
X277851111Y-107826344I639543J639533D01*
G01*
X312946648Y-114407415D02*
G75*
G03*
X313486951Y-115711825I1844752J15D01*
G01*
X254672199Y-109905562D02*
G75*
G03*
X253726470Y-112188844I2283301J-2283238D01*
G01*
X276946659Y-106921879D02*
G75*
G03*
X277211559Y-107561431I904441J-21D01*
G01*
X288634929Y-108734851D02*
G75*
G03*
X290828224Y-109643310I2193271J2193351D01*
G01*
X236438467Y-113643299D02*
G75*
G03*
X232590712Y-115237103I33J-5441601D01*
G01*
X312946590Y-114407415D02*
G75*
G03*
X312182541Y-113643310I-764090J15D01*
G01*
X258946622Y-108244915D02*
G75*
G03*
X259372047Y-109271919I1452378J15D01*
G01*
X252780684Y-114472069D02*
G75*
G03*
X253726470Y-112188844I-2283184J2283269D01*
G01*
X294946654Y-111108491D02*
G75*
G03*
X295274059Y-111898931I1117846J-9D01*
G01*
X288634963Y-108734817D02*
G75*
G03*
X286441681Y-107826344I-2193263J-2193283D01*
G01*
X328152965Y-117777883D02*
G75*
G03*
X326640441Y-117151344I-1512565J-1512517D01*
G01*
X313936555Y-116161435D02*
G75*
G03*
X316326416Y-117151344I2389845J2389835D01*
G01*
X328152967Y-117777881D02*
G75*
G03*
X329665532Y-118404378I1512533J1512581D01*
G01*
X228672506Y-116901348D02*
G75*
G03*
X232520261Y-115307549I-6J5441548D01*
G01*
X306409962Y-112934818D02*
G75*
G03*
X308120382Y-113643310I1710438J1710418D01*
G01*
X275303075Y-105643280D02*
G75*
G03*
X272497323Y-106805490I25J-3967920D01*
G01*
X258946590Y-107944112D02*
G75*
G03*
X258645844Y-107643310I-300790J12D01*
G01*
X241461570Y-115886420D02*
G75*
G03*
X242704664Y-116401344I1243130J1243120D01*
G01*
%TO.N,L_ROW2*%
X295651990Y-129001344D02*
X305990424Y-129001344D01*
X295095041Y-126643310D02*
X297106647Y-126643310D01*
X295138970Y-128788844D02*
X294936558Y-128586432D01*
X253629807Y-127273006D02*
X255309455Y-125593358D01*
X223586558Y-132386432D02*
X223336690Y-132136564D01*
X266322506Y-127126344D02*
X259723078Y-127126344D01*
X322772506Y-128376344D02*
X314448598Y-128376344D01*
X331162410Y-120944378D02*
X334006470Y-120944378D01*
X275003075Y-122643310D02*
X276946647Y-122643310D01*
X276946647Y-122643310D02*
X279106647Y-122643310D01*
X271685191Y-124017622D02*
X270170262Y-125532550D01*
X327510264Y-125892549D02*
X326620262Y-126782550D01*
X258946647Y-126349912D02*
X258946647Y-124643310D01*
X249094578Y-133426344D02*
X242533954Y-133426344D01*
X223222449Y-130643310D02*
X225106647Y-130643310D01*
X294946647Y-126791704D02*
X294946647Y-128541899D01*
X240946647Y-130643310D02*
X243106647Y-130643310D01*
X252551470Y-129876344D02*
X252551470Y-129969452D01*
X328376470Y-123801344D02*
X328376470Y-123730318D01*
X222946647Y-130919112D02*
X222946647Y-131194915D01*
X237512488Y-131540325D02*
X237217986Y-131834826D01*
X278149855Y-124976344D02*
X283657446Y-124976344D01*
X312946647Y-130260802D02*
X312946647Y-129878295D01*
X312564139Y-130643310D02*
X309954481Y-130643310D01*
X294946647Y-126494915D02*
X294946647Y-126791704D01*
X313329154Y-130643310D02*
X315106647Y-130643310D01*
X289438970Y-122651344D02*
X289270493Y-122651344D01*
X234341410Y-133026344D02*
X225131441Y-133026344D01*
X292533101Y-123932975D02*
X294841716Y-126241590D01*
X313329154Y-130643310D02*
X312564139Y-130643310D01*
X258946647Y-124643310D02*
X261106647Y-124643310D01*
X276946647Y-123773135D02*
X276946647Y-122643310D01*
X239678075Y-130643310D02*
X240946647Y-130643310D01*
X258946647Y-124643310D02*
X257603075Y-124643310D01*
X240946647Y-130643310D02*
X240946647Y-131839036D01*
X307972450Y-129822330D02*
G75*
G03*
X305990424Y-129001344I-1982050J-1982070D01*
G01*
X223586527Y-132386463D02*
G75*
G03*
X225131441Y-133026344I1544873J1544963D01*
G01*
X327510234Y-125892519D02*
G75*
G03*
X328376470Y-123801344I-2091134J2091219D01*
G01*
X283657446Y-124976370D02*
G75*
G03*
X286463969Y-123813843I-46J3969070D01*
G01*
X234341410Y-133026335D02*
G75*
G03*
X237217986Y-131834826I-10J4068135D01*
G01*
X241411573Y-132961417D02*
G75*
G03*
X242533954Y-133426344I1122427J1122417D01*
G01*
X276946606Y-123773135D02*
G75*
G03*
X277299058Y-124623932I1203194J35D01*
G01*
X222946625Y-131194915D02*
G75*
G03*
X223336691Y-132136563I1331675J15D01*
G01*
X292533115Y-123932961D02*
G75*
G03*
X289438970Y-122651344I-3094115J-3094139D01*
G01*
X251538939Y-132413813D02*
G75*
G03*
X252551470Y-129969452I-2444339J2444413D01*
G01*
X257603075Y-124643299D02*
G75*
G03*
X255309456Y-125593359I25J-3243701D01*
G01*
X312564139Y-130643347D02*
G75*
G03*
X312946647Y-130260802I-39J382547D01*
G01*
X275003075Y-122643291D02*
G75*
G03*
X271685192Y-124017623I25J-4692209D01*
G01*
X294946638Y-126494915D02*
G75*
G03*
X294841716Y-126241590I-358238J15D01*
G01*
X322772506Y-128376348D02*
G75*
G03*
X326620261Y-126782549I-6J5441548D01*
G01*
X331162410Y-120944380D02*
G75*
G03*
X329192453Y-121760361I-10J-2785920D01*
G01*
X294946590Y-126494915D02*
G75*
G03*
X295095041Y-126643310I148410J15D01*
G01*
X314448598Y-128376344D02*
G75*
G03*
X313386558Y-128816255I2J-1501956D01*
G01*
X295095041Y-126643347D02*
G75*
G03*
X294946647Y-126791704I-41J-148353D01*
G01*
X294936559Y-128566256D02*
G75*
G03*
X294946647Y-128541899I-24359J24356D01*
G01*
X313386560Y-128816257D02*
G75*
G03*
X312946647Y-129878295I1062040J-1062043D01*
G01*
X295138970Y-128788844D02*
G75*
G03*
X295651990Y-129001344I513030J513044D01*
G01*
X329192446Y-121760354D02*
G75*
G03*
X328376470Y-123730318I1969954J-1969946D01*
G01*
X289270493Y-122651349D02*
G75*
G03*
X286463970Y-123813844I7J-3969051D01*
G01*
X266322506Y-127126348D02*
G75*
G03*
X270170261Y-125532549I-6J5441548D01*
G01*
X312946690Y-130260802D02*
G75*
G03*
X313329154Y-130643310I382510J2D01*
G01*
X307972463Y-129822317D02*
G75*
G03*
X309954481Y-130643310I1982037J1982017D01*
G01*
X294936515Y-128566212D02*
G75*
G03*
X294936558Y-128586432I10085J-10088D01*
G01*
X239678075Y-130643289D02*
G75*
G03*
X237512488Y-131540325I25J-3062611D01*
G01*
X249094578Y-133426313D02*
G75*
G03*
X251538970Y-132413844I22J3456913D01*
G01*
X277299073Y-124623917D02*
G75*
G03*
X278149855Y-124976344I850827J850817D01*
G01*
X240946635Y-131839036D02*
G75*
G03*
X241411558Y-132961432I1587365J36D01*
G01*
X223222449Y-130643347D02*
G75*
G03*
X222946647Y-130919112I-49J-275753D01*
G01*
X259174066Y-126898924D02*
G75*
G03*
X259723078Y-127126344I549034J549024D01*
G01*
X253629795Y-127272994D02*
G75*
G03*
X252551470Y-129876344I2603305J-2603306D01*
G01*
X258946645Y-126349912D02*
G75*
G03*
X259174058Y-126898932I776455J12D01*
G01*
%TO.N,L_ROW3*%
X258946647Y-143175648D02*
X258946647Y-141977596D01*
X240946647Y-147643310D02*
X235457951Y-147643310D01*
X242405921Y-150376344D02*
X249740289Y-150376344D01*
X223710752Y-147643310D02*
X225106647Y-147643310D01*
X240946647Y-148917069D02*
X240946647Y-147643310D01*
X329026470Y-127012909D02*
X329026470Y-138747380D01*
X287761803Y-143643310D02*
X294946647Y-143643310D01*
X258612361Y-141643310D02*
X259280933Y-141643310D01*
X312415575Y-147643310D02*
X308116613Y-147643310D01*
X257136752Y-142116061D02*
X253813126Y-145439687D01*
X283858102Y-142026344D02*
X278405921Y-142026344D01*
X258612361Y-141643310D02*
X258278075Y-141643310D01*
X259280933Y-141643310D02*
X261106647Y-141643310D01*
X224619309Y-150151344D02*
X229403022Y-150151344D01*
X252063969Y-149413843D02*
X252239813Y-149238000D01*
X314704664Y-145551344D02*
X322222506Y-145551344D01*
X312415575Y-147643310D02*
X313477718Y-147643310D01*
X270695262Y-143382551D02*
X273546327Y-140531486D01*
X294946647Y-143643310D02*
X297106647Y-143643310D01*
X295723078Y-145701344D02*
X303428292Y-145701344D01*
X266847506Y-144976344D02*
X260747342Y-144976344D01*
X313477718Y-147643310D02*
X315106647Y-147643310D01*
X222946647Y-148407415D02*
X222946647Y-148478681D01*
X275690575Y-139643310D02*
X276946647Y-139643310D01*
X276946647Y-139643310D02*
X279106647Y-139643310D01*
X327432676Y-142595136D02*
X326070262Y-143957551D01*
X330063522Y-124514291D02*
X330059952Y-124517860D01*
X332549953Y-123484378D02*
X334006470Y-123484378D01*
X276946647Y-140567069D02*
X276946647Y-139643310D01*
X313322171Y-146205642D02*
X313461558Y-146066255D01*
X240946647Y-147643310D02*
X243106647Y-147643310D01*
X294946647Y-143643310D02*
X294946647Y-144924912D01*
X313322145Y-146205616D02*
G75*
G03*
X312946647Y-147112238I906655J-906584D01*
G01*
X223710752Y-147643247D02*
G75*
G03*
X222946647Y-148407415I48J-764153D01*
G01*
X332549953Y-123484409D02*
G75*
G03*
X330063522Y-124514291I-53J-3516291D01*
G01*
X258278075Y-141643297D02*
G75*
G03*
X257136752Y-142116061I25J-1614103D01*
G01*
X314704664Y-145551330D02*
G75*
G03*
X313461558Y-146066255I36J-1758070D01*
G01*
X327432691Y-142595151D02*
G75*
G03*
X329026470Y-138747380I-3847791J3847751D01*
G01*
X229403022Y-150151370D02*
G75*
G03*
X232430486Y-148897326I-22J4281470D01*
G01*
X249740289Y-150376345D02*
G75*
G03*
X252063968Y-149413842I11J3286145D01*
G01*
X330059949Y-124517857D02*
G75*
G03*
X329026470Y-127012909I2495051J-2495043D01*
G01*
X240946663Y-148917069D02*
G75*
G03*
X241374059Y-149948931I1459237J-31D01*
G01*
X312946590Y-147112238D02*
G75*
G03*
X313477718Y-147643310I531110J38D01*
G01*
X253813101Y-145439662D02*
G75*
G03*
X253026470Y-147338844I1899199J-1899138D01*
G01*
X322222506Y-145551349D02*
G75*
G03*
X326070262Y-143957551I-6J5441549D01*
G01*
X223436557Y-149661433D02*
G75*
G03*
X224619309Y-150151344I1182743J1182733D01*
G01*
X222946658Y-148478681D02*
G75*
G03*
X223436558Y-149661432I1672642J-19D01*
G01*
X305772453Y-146672327D02*
G75*
G03*
X308116613Y-147643310I2344147J2344127D01*
G01*
X258946690Y-141977596D02*
G75*
G03*
X258612361Y-141643310I-334290J-4D01*
G01*
X259474047Y-144448943D02*
G75*
G03*
X260747342Y-144976344I1273253J1273243D01*
G01*
X241374054Y-149948936D02*
G75*
G03*
X242405921Y-150376344I1031846J1031836D01*
G01*
X277374054Y-141598936D02*
G75*
G03*
X278405921Y-142026344I1031846J1031836D01*
G01*
X295174066Y-145473924D02*
G75*
G03*
X295723078Y-145701344I549034J549024D01*
G01*
X305772459Y-146672321D02*
G75*
G03*
X303428292Y-145701344I-2344159J-2344179D01*
G01*
X276946663Y-140567069D02*
G75*
G03*
X277374059Y-141598931I1459237J-31D01*
G01*
X252239803Y-149237990D02*
G75*
G03*
X253026470Y-147338844I-1899203J1899190D01*
G01*
X266847506Y-144976349D02*
G75*
G03*
X270695262Y-143382551I-6J5441549D01*
G01*
X312415575Y-147643247D02*
G75*
G03*
X312946647Y-147112238I25J531047D01*
G01*
X235457951Y-147643350D02*
G75*
G03*
X232430488Y-148897328I-51J-4281450D01*
G01*
X285809956Y-142834824D02*
G75*
G03*
X287761803Y-143643310I1951844J1951824D01*
G01*
X285809956Y-142834824D02*
G75*
G03*
X283858102Y-142026344I-1951856J-1951876D01*
G01*
X259280933Y-141643347D02*
G75*
G03*
X258946647Y-141977596I-33J-334253D01*
G01*
X258946671Y-143175648D02*
G75*
G03*
X259474058Y-144448932I1800629J-52D01*
G01*
X294946645Y-144924912D02*
G75*
G03*
X295174058Y-145473932I776455J12D01*
G01*
X275690575Y-139643282D02*
G75*
G03*
X273546327Y-140531486I25J-3032418D01*
G01*
%TO.N,L_ROW4*%
X312653075Y-164643310D02*
X313240218Y-164643310D01*
X279182677Y-161932551D02*
X278026120Y-160775994D01*
X241560752Y-164643310D02*
X243106647Y-164643310D01*
X295190218Y-160643310D02*
X297106647Y-160643310D01*
X275553075Y-156643310D02*
X276946647Y-156643310D01*
X293017986Y-162084826D02*
X294287272Y-160815541D01*
X298141990Y-164643310D02*
X312653075Y-164643310D01*
X295699083Y-163523957D02*
X295882541Y-163707415D01*
X315728928Y-162426344D02*
X321972506Y-162426344D01*
X313154233Y-163848580D02*
X313761558Y-163241255D01*
X224875375Y-167626344D02*
X231067146Y-167626344D01*
X330990707Y-126812106D02*
X330727453Y-127075361D01*
X328082677Y-158570136D02*
X325820262Y-160832551D01*
X295190218Y-160643310D02*
X294703075Y-160643310D01*
X332892453Y-126024378D02*
X334006470Y-126024378D01*
X259218433Y-158643310D02*
X261106647Y-158643310D01*
X313240218Y-164643310D02*
X315106647Y-164643310D01*
X241380885Y-166305759D02*
X241661558Y-166586432D01*
X289537857Y-163526344D02*
X283030433Y-163526344D01*
X276946647Y-158169915D02*
X276946647Y-156643310D01*
X240332541Y-164643310D02*
X241560752Y-164643310D01*
X222946647Y-165697615D02*
X222946647Y-164643310D01*
X250879198Y-167301344D02*
X243387507Y-167301344D01*
X258403075Y-158643310D02*
X258674861Y-158643310D01*
X329676470Y-154722380D02*
X329676470Y-129612658D01*
X240332541Y-164643310D02*
X238268827Y-164643310D01*
X273174100Y-157628713D02*
X270645262Y-160157551D01*
X253226470Y-164601344D02*
X253226470Y-164954072D01*
X260064499Y-161751344D02*
X266797506Y-161751344D01*
X258674861Y-158643310D02*
X259218433Y-158643310D01*
X276946647Y-156643310D02*
X279106647Y-156643310D01*
X254163386Y-162339427D02*
X257475140Y-159027673D01*
X294946647Y-161707415D02*
X294946647Y-160886881D01*
X258946647Y-160633491D02*
X258946647Y-158915096D01*
X222946647Y-164643310D02*
X225106647Y-164643310D01*
X241560752Y-164643247D02*
G75*
G03*
X240946647Y-165257415I48J-614153D01*
G01*
X241661558Y-166586432D02*
G75*
G03*
X243387507Y-167301344I1725942J1725932D01*
G01*
X295882553Y-163707403D02*
G75*
G03*
X298141990Y-164643310I2259447J2259403D01*
G01*
X294703075Y-160643280D02*
G75*
G03*
X294287273Y-160815542I25J-588020D01*
G01*
X252538984Y-166613858D02*
G75*
G03*
X253226470Y-164954072I-1659784J1659758D01*
G01*
X250879198Y-167301350D02*
G75*
G03*
X252538969Y-166613843I2J2347250D01*
G01*
X328082692Y-158570151D02*
G75*
G03*
X329676470Y-154722380I-3847792J3847751D01*
G01*
X275553075Y-156643296D02*
G75*
G03*
X273174101Y-157628714I25J-3364404D01*
G01*
X238268827Y-164643339D02*
G75*
G03*
X234667987Y-166134827I-27J-5092361D01*
G01*
X295190218Y-160643347D02*
G75*
G03*
X294946647Y-160886881I-18J-243553D01*
G01*
X259274060Y-161423930D02*
G75*
G03*
X260064499Y-161751344I790440J790430D01*
G01*
X332892453Y-126024400D02*
G75*
G03*
X330990708Y-126812107I-53J-2689400D01*
G01*
X240946590Y-165257415D02*
G75*
G03*
X240332541Y-164643310I-614090J15D01*
G01*
X258946654Y-160633491D02*
G75*
G03*
X259274059Y-161423931I1117846J-9D01*
G01*
X312653075Y-164643247D02*
G75*
G03*
X312946647Y-164349738I25J293547D01*
G01*
X258403075Y-158643290D02*
G75*
G03*
X257475140Y-159027673I25J-1312310D01*
G01*
X330727484Y-127075392D02*
G75*
G03*
X329676470Y-129612658I2537216J-2537308D01*
G01*
X223511567Y-167061423D02*
G75*
G03*
X224875375Y-167626344I1363833J1363823D01*
G01*
X266797506Y-161751349D02*
G75*
G03*
X270645262Y-160157551I-6J5441549D01*
G01*
X321972506Y-162426349D02*
G75*
G03*
X325820262Y-160832551I-6J5441549D01*
G01*
X279182661Y-161932567D02*
G75*
G03*
X283030433Y-163526344I3847739J3847767D01*
G01*
X294946690Y-160886881D02*
G75*
G03*
X294703075Y-160643310I-243590J-19D01*
G01*
X294946629Y-161707415D02*
G75*
G03*
X295699083Y-163523957I2568971J15D01*
G01*
X231067146Y-167626380D02*
G75*
G03*
X234667986Y-166134826I-46J5092380D01*
G01*
X254163365Y-162339406D02*
G75*
G03*
X253226470Y-164601344I2261935J-2261894D01*
G01*
X289537857Y-163526313D02*
G75*
G03*
X293017986Y-162084826I43J4921613D01*
G01*
X240946628Y-165257415D02*
G75*
G03*
X241380885Y-166305759I1482572J15D01*
G01*
X259218433Y-158643347D02*
G75*
G03*
X258946647Y-158915096I-33J-271753D01*
G01*
X258946690Y-158915096D02*
G75*
G03*
X258674861Y-158643310I-271790J-4D01*
G01*
X315728928Y-162426357D02*
G75*
G03*
X313761559Y-163241256I-28J-2782243D01*
G01*
X222946644Y-165697615D02*
G75*
G03*
X223511559Y-167061431I1928756J15D01*
G01*
X276946637Y-158169915D02*
G75*
G03*
X278026120Y-160775994I3685563J15D01*
G01*
X313154212Y-163848559D02*
G75*
G03*
X312946647Y-164349738I501188J-501141D01*
G01*
X312946590Y-164349738D02*
G75*
G03*
X313240218Y-164643310I293610J38D01*
G01*
%TO.N,L_ROW5*%
X341293106Y-195526344D02*
X340238970Y-195526344D01*
X324929884Y-190729758D02*
X324884915Y-190684789D01*
X354121688Y-195676664D02*
X354121688Y-195287698D01*
X341376470Y-188623006D02*
X341376470Y-178155307D01*
X323803773Y-187336331D02*
X323601042Y-187133600D01*
X283897057Y-183206736D02*
X285801992Y-183206736D01*
X347097506Y-191226344D02*
X343979807Y-191226344D01*
X284621731Y-184696605D02*
X283822350Y-183897224D01*
X355201688Y-193143962D02*
X355201688Y-192748655D01*
X353433042Y-194619270D02*
X353453260Y-194619270D01*
X303907017Y-184219641D02*
X303907017Y-184093529D01*
X336245262Y-193170136D02*
X337443582Y-194368456D01*
X343284833Y-196351344D02*
X353447008Y-196351344D01*
X324083298Y-188749514D02*
X324083298Y-188011164D01*
X332397506Y-191576344D02*
X326973723Y-191576344D01*
X304356392Y-184170630D02*
X306050917Y-184170630D01*
X350945262Y-192820136D02*
X352257449Y-194132323D01*
X333134953Y-128564378D02*
X334006470Y-128564378D01*
X330751470Y-131145465D02*
X330751470Y-163022380D01*
X304966743Y-185591617D02*
X304127810Y-184752684D01*
X354922163Y-193818794D02*
X354594337Y-194146619D01*
X286987030Y-185676344D02*
X294650632Y-185676344D01*
X307525149Y-186651344D02*
X322436773Y-186651344D01*
X331507452Y-129320360D02*
X331647180Y-129180633D01*
X323803773Y-187336331D02*
X324362823Y-187895381D01*
X325037656Y-188174906D02*
X326169697Y-188174906D01*
X339782677Y-174307551D02*
X332345262Y-166870136D01*
X303720879Y-183907392D02*
X298921259Y-183907392D01*
X354121730Y-195287698D02*
G75*
G03*
X353453260Y-194619270I-668430J-2D01*
G01*
X324362757Y-187895447D02*
G75*
G03*
X324083298Y-188011164I-115757J-115753D01*
G01*
X353924098Y-196153754D02*
G75*
G03*
X354121688Y-195676664I-477098J477054D01*
G01*
X337443603Y-194368435D02*
G75*
G03*
X340238970Y-195526344I2795397J2795335D01*
G01*
X333134953Y-128564343D02*
G75*
G03*
X331647181Y-129180634I47J-2104057D01*
G01*
X354922189Y-193818820D02*
G75*
G03*
X355201688Y-193143962I-674889J674820D01*
G01*
X294650632Y-185676350D02*
G75*
G03*
X296785945Y-184791867I-32J3019850D01*
G01*
X298921259Y-183907369D02*
G75*
G03*
X296785946Y-184791868I41J-3019831D01*
G01*
X283642000Y-183461801D02*
G75*
G03*
X283822351Y-183897223I615800J1D01*
G01*
X330751479Y-163022380D02*
G75*
G03*
X332345263Y-166870135I5441521J-20D01*
G01*
X304038629Y-184039018D02*
G75*
G03*
X303907017Y-184093529I-54529J-54482D01*
G01*
X304038653Y-184038994D02*
G75*
G03*
X303720879Y-183907392I-317753J-317806D01*
G01*
X303907002Y-184219641D02*
G75*
G03*
X304127811Y-184752683I753898J41D01*
G01*
X350945260Y-192820138D02*
G75*
G03*
X347097506Y-191226344I-3847760J-3847762D01*
G01*
X303907008Y-184093529D02*
G75*
G03*
X303720879Y-183907392I-186108J29D01*
G01*
X304038649Y-184038998D02*
G75*
G03*
X304356392Y-184170630I317751J317698D01*
G01*
X342288957Y-195938857D02*
G75*
G03*
X343284833Y-196351344I995843J995857D01*
G01*
X323601062Y-187133580D02*
G75*
G03*
X322436773Y-186651344I-1164262J-1164320D01*
G01*
X353453260Y-194619227D02*
G75*
G03*
X354594336Y-194146618I40J1613727D01*
G01*
X324083311Y-188011164D02*
G75*
G03*
X323803772Y-187336332I-954411J-36D01*
G01*
X284621715Y-184696621D02*
G75*
G03*
X286987030Y-185676344I2365285J2365321D01*
G01*
X336245260Y-193170138D02*
G75*
G03*
X332397506Y-191576344I-3847760J-3847762D01*
G01*
X324362835Y-187895369D02*
G75*
G03*
X325037656Y-188174906I674865J674869D01*
G01*
X341376464Y-188623006D02*
G75*
G03*
X342138970Y-190463844I2603336J6D01*
G01*
X354594342Y-194146624D02*
G75*
G03*
X354121688Y-195287698I1141058J-1141076D01*
G01*
X283897057Y-183206692D02*
G75*
G03*
X283641992Y-183461801I43J-255108D01*
G01*
X324929868Y-190729774D02*
G75*
G03*
X326973723Y-191576344I2043832J2043874D01*
G01*
X352257421Y-194132351D02*
G75*
G03*
X353433042Y-194619270I1175579J1175651D01*
G01*
X342138965Y-190463849D02*
G75*
G03*
X343979807Y-191226344I1840835J1840849D01*
G01*
X304966766Y-185591594D02*
G75*
G03*
X307525149Y-186651344I2558434J2558394D01*
G01*
X342288965Y-195938849D02*
G75*
G03*
X341293106Y-195526344I-995865J-995851D01*
G01*
X341376458Y-178155307D02*
G75*
G03*
X339782677Y-174307551I-5441558J7D01*
G01*
X353447008Y-196351360D02*
G75*
G03*
X353924079Y-196153735I-8J674660D01*
G01*
X324083291Y-188749514D02*
G75*
G03*
X324884915Y-190684789I2736909J14D01*
G01*
X331507461Y-129320369D02*
G75*
G03*
X330751470Y-131145465I1825139J-1825131D01*
G01*
%TO.N,R_ROW1*%
X198843105Y-113686896D02*
X201003105Y-113686896D01*
X111858584Y-117006213D02*
X115580568Y-117006213D01*
X181644550Y-113686896D02*
X183003105Y-113686896D01*
X75934532Y-115816030D02*
X75934532Y-114197418D01*
X109392134Y-115788815D02*
X109726318Y-116122999D01*
X124556606Y-110284138D02*
X119428324Y-115412420D01*
X145100233Y-105686896D02*
X147003105Y-105686896D01*
X125998477Y-109686896D02*
X126279160Y-109686896D01*
X183218419Y-116681213D02*
X187267230Y-116681213D01*
X127407050Y-109686896D02*
X129003105Y-109686896D01*
X162843105Y-107686896D02*
X165003105Y-107686896D01*
X127407050Y-109686896D02*
X126279160Y-109686896D01*
X144843105Y-105944024D02*
X144843105Y-106539532D01*
X81487044Y-112106213D02*
X78025737Y-112106213D01*
X78566465Y-118447964D02*
X80163282Y-118447964D01*
X138978324Y-111037420D02*
X144147032Y-105868712D01*
X103909532Y-108742198D02*
X103909532Y-108475236D01*
X105260802Y-112004453D02*
X106271543Y-113015194D01*
X181538818Y-115985499D02*
X181409812Y-115856493D01*
X180041660Y-113686896D02*
X177696835Y-113686896D01*
X109619550Y-113686896D02*
X111003105Y-113686896D01*
X144585977Y-105686896D02*
X145100233Y-105686896D01*
X127241874Y-111213555D02*
X127751318Y-111722999D01*
X108066660Y-113686896D02*
X109619550Y-113686896D01*
X129943939Y-112631213D02*
X135130568Y-112631213D01*
X85490738Y-106100005D02*
X82880027Y-108710717D01*
X194496150Y-113686896D02*
X198843105Y-113686896D01*
X82084532Y-110631213D02*
X82084532Y-111508725D01*
X89338495Y-104506213D02*
X99940508Y-104506213D01*
X145990468Y-107686896D02*
X162843105Y-107686896D01*
X165431807Y-111556213D02*
X172552911Y-111556213D01*
X108066660Y-113686896D02*
X107893175Y-113686896D01*
X162843105Y-108967510D02*
X162843105Y-107686896D01*
X180041660Y-113686896D02*
X181644550Y-113686896D01*
X135130568Y-112631200D02*
G75*
G03*
X138978324Y-111037420I32J5441500D01*
G01*
X76547030Y-112718711D02*
G75*
G03*
X75934532Y-114197418I1478670J-1478689D01*
G01*
X175124864Y-112621563D02*
G75*
G03*
X172552911Y-111556213I-2571964J-2571937D01*
G01*
X78025737Y-112106235D02*
G75*
G03*
X76547033Y-112718714I-37J-2091165D01*
G01*
X181538809Y-115985508D02*
G75*
G03*
X183218419Y-116681213I1679591J1679608D01*
G01*
X108843074Y-114463341D02*
G75*
G03*
X109392134Y-115788815I1874526J41D01*
G01*
X125998477Y-109686877D02*
G75*
G03*
X124556606Y-110284138I23J-2039123D01*
G01*
X109619550Y-113686905D02*
G75*
G03*
X108843105Y-114463341I-50J-776395D01*
G01*
X126843080Y-110250841D02*
G75*
G03*
X127241874Y-111213555I1361520J41D01*
G01*
X194496150Y-113686927D02*
G75*
G03*
X190881690Y-115184054I-50J-5111573D01*
G01*
X144585977Y-105686892D02*
G75*
G03*
X144147032Y-105868712I23J-620808D01*
G01*
X103909503Y-108475236D02*
G75*
G03*
X102747031Y-105668714I-3969003J36D01*
G01*
X82880026Y-108710716D02*
G75*
G03*
X82084532Y-110631213I1920474J-1920484D01*
G01*
X108843104Y-114463341D02*
G75*
G03*
X108066660Y-113686896I-776404J41D01*
G01*
X180843087Y-114488341D02*
G75*
G03*
X181409812Y-115856493I1934913J41D01*
G01*
X115580568Y-117006200D02*
G75*
G03*
X119428324Y-115412420I32J5441500D01*
G01*
X162843096Y-108967510D02*
G75*
G03*
X163601318Y-110797999I2588704J10D01*
G01*
X144843092Y-106539532D02*
G75*
G03*
X145179161Y-107350840I1147408J32D01*
G01*
X103909546Y-108742198D02*
G75*
G03*
X105260802Y-112004453I4613554J-2D01*
G01*
X145100233Y-105686905D02*
G75*
G03*
X144843105Y-105944024I-33J-257095D01*
G01*
X144843104Y-105944024D02*
G75*
G03*
X144585977Y-105686896I-257104J24D01*
G01*
X102747020Y-105668725D02*
G75*
G03*
X99940508Y-104506213I-2806520J-2806475D01*
G01*
X106271563Y-113015174D02*
G75*
G03*
X107893175Y-113686896I1621637J1621574D01*
G01*
X127751303Y-111723014D02*
G75*
G03*
X129943939Y-112631213I2192597J2192614D01*
G01*
X181644550Y-113686905D02*
G75*
G03*
X180843105Y-114488341I-50J-801395D01*
G01*
X75934521Y-115816030D02*
G75*
G03*
X76705407Y-117677088I2631979J30D01*
G01*
X126843104Y-110250841D02*
G75*
G03*
X126279160Y-109686896I-563904J41D01*
G01*
X89338495Y-104506220D02*
G75*
G03*
X85490738Y-106100005I5J-5441580D01*
G01*
X145179169Y-107350832D02*
G75*
G03*
X145990468Y-107686896I811331J811332D01*
G01*
X180843104Y-114488341D02*
G75*
G03*
X180041660Y-113686896I-801404J41D01*
G01*
X163601312Y-110798005D02*
G75*
G03*
X165431807Y-111556213I1830488J1830505D01*
G01*
X187267230Y-116681235D02*
G75*
G03*
X190881690Y-115184054I-30J5111635D01*
G01*
X76705418Y-117677077D02*
G75*
G03*
X78566465Y-118447964I1861082J1861077D01*
G01*
X109726319Y-116122998D02*
G75*
G03*
X111858584Y-117006213I2132281J2132298D01*
G01*
X81909528Y-111931209D02*
G75*
G03*
X82084532Y-111508725I-422528J422509D01*
G01*
X81487044Y-112106237D02*
G75*
G03*
X81909532Y-111931213I-44J597537D01*
G01*
X127407050Y-109686905D02*
G75*
G03*
X126843105Y-110250841I-50J-563895D01*
G01*
X175124857Y-112621570D02*
G75*
G03*
X177696835Y-113686896I2571943J2571970D01*
G01*
%TO.N,Net-(D29-A)*%
X206463105Y-113686896D02*
X204303105Y-113686896D01*
%TO.N,R_ROW2*%
X189365973Y-133506213D02*
X184029295Y-133506213D01*
X125267222Y-127098522D02*
X120178324Y-132187420D01*
X81749305Y-120987964D02*
X80163282Y-120987964D01*
X110663609Y-133781213D02*
X116330568Y-133781213D01*
X91059532Y-142803269D02*
X91059532Y-148759461D01*
X126552041Y-126686896D02*
X127134169Y-126686896D01*
X162843105Y-124686896D02*
X165003105Y-124686896D01*
X165267159Y-128181213D02*
X173762746Y-128181213D01*
X92496099Y-139669645D02*
X92259531Y-139906212D01*
X181319550Y-130686896D02*
X180366660Y-130686896D01*
X94422964Y-135017779D02*
X97160056Y-132280688D01*
X198843105Y-130686896D02*
X201003105Y-130686896D01*
X84134532Y-140146682D02*
X84134532Y-149143560D01*
X108843105Y-130686896D02*
X111003105Y-130686896D01*
X89437780Y-150381213D02*
X85372184Y-150381213D01*
X181319550Y-130686896D02*
X183003105Y-130686896D01*
X136734532Y-127136974D02*
X136734532Y-125152499D01*
X126552041Y-126686896D02*
X126260977Y-126686896D01*
X108843105Y-131960708D02*
X108843105Y-130686896D01*
X126843105Y-126977960D02*
X126843105Y-128218550D01*
X144843105Y-122686896D02*
X139200135Y-122686896D01*
X144843105Y-122686896D02*
X144843105Y-123582210D01*
X108843105Y-130686896D02*
X101007812Y-130686896D01*
X127134169Y-126686896D02*
X129003105Y-126686896D01*
X145947790Y-124686896D02*
X162843105Y-124686896D01*
X82309532Y-135740743D02*
X82309532Y-135073675D01*
X198843105Y-130686896D02*
X196172407Y-130686896D01*
X177049243Y-129695924D02*
X176787373Y-129434054D01*
X134515293Y-129356213D02*
X127980767Y-129356213D01*
X179441660Y-130686896D02*
X180366660Y-130686896D01*
X163547032Y-127468713D02*
X162838818Y-126760499D01*
X181180002Y-131976683D02*
X181776318Y-132572999D01*
X144843105Y-122686896D02*
X147003105Y-122686896D01*
X83359532Y-132538750D02*
X83359532Y-122598190D01*
X162843105Y-126741577D02*
X162843105Y-124686896D01*
X109376311Y-133248006D02*
G75*
G03*
X110663609Y-133781213I1287289J1287306D01*
G01*
X196172407Y-130686909D02*
G75*
G03*
X192769190Y-132096554I-7J-4812891D01*
G01*
X180843104Y-131163341D02*
G75*
G03*
X180366660Y-130686896I-476404J41D01*
G01*
X83359536Y-122598190D02*
G75*
G03*
X82887906Y-121459589I-1610236J-10D01*
G01*
X82834500Y-133806181D02*
G75*
G03*
X83359532Y-132538750I-1267400J1267481D01*
G01*
X101007812Y-130686891D02*
G75*
G03*
X97160056Y-132280688I-12J-5441509D01*
G01*
X177049261Y-129695906D02*
G75*
G03*
X179441660Y-130686896I2392439J2392406D01*
G01*
X189365973Y-133506182D02*
G75*
G03*
X192769189Y-132096553I27J4812882D01*
G01*
X82309501Y-135740743D02*
G75*
G03*
X83222032Y-137943713I3115499J43D01*
G01*
X181776316Y-132573001D02*
G75*
G03*
X184029295Y-133506213I2252984J2253001D01*
G01*
X94422958Y-135017773D02*
G75*
G03*
X93459532Y-137343713I2325942J-2325927D01*
G01*
X180843063Y-131163341D02*
G75*
G03*
X181180002Y-131976683I1150237J41D01*
G01*
X145166662Y-124363339D02*
G75*
G03*
X145947790Y-124686896I781138J781139D01*
G01*
X126843150Y-128218550D02*
G75*
G03*
X127176318Y-129022999I1137650J-50D01*
G01*
X139200135Y-122686921D02*
G75*
G03*
X137456690Y-123409054I-35J-2465579D01*
G01*
X92496086Y-139669632D02*
G75*
G03*
X93459532Y-137343713I-2325886J2325932D01*
G01*
X162838823Y-126751931D02*
G75*
G03*
X162843105Y-126741577I-10323J10331D01*
G01*
X162838806Y-126751914D02*
G75*
G03*
X162838818Y-126760499I4294J-4286D01*
G01*
X134515293Y-129356215D02*
G75*
G03*
X136084531Y-128706212I7J2219215D01*
G01*
X176787354Y-129434073D02*
G75*
G03*
X173762746Y-128181213I-3024654J-3024627D01*
G01*
X89437780Y-150381210D02*
G75*
G03*
X90584532Y-149906213I20J1621710D01*
G01*
X84497048Y-150018697D02*
G75*
G03*
X85372184Y-150381213I875152J875097D01*
G01*
X127176324Y-129022993D02*
G75*
G03*
X127980767Y-129356213I804476J804493D01*
G01*
X108843097Y-131960708D02*
G75*
G03*
X109376318Y-133247999I1820503J8D01*
G01*
X84134565Y-149143560D02*
G75*
G03*
X84497032Y-150018713I1237635J-40D01*
G01*
X163547055Y-127468690D02*
G75*
G03*
X165267159Y-128181213I1720145J1720090D01*
G01*
X90584547Y-149906228D02*
G75*
G03*
X91059532Y-148759461I-1146747J1146728D01*
G01*
X144843101Y-123582210D02*
G75*
G03*
X145166660Y-124363341I1104699J10D01*
G01*
X181319550Y-130686905D02*
G75*
G03*
X180843105Y-131163341I-50J-476395D01*
G01*
X127134169Y-126686905D02*
G75*
G03*
X126843105Y-126977960I31J-291095D01*
G01*
X92259545Y-139906226D02*
G75*
G03*
X91059532Y-142803269I2897055J-2897074D01*
G01*
X126260977Y-126686886D02*
G75*
G03*
X125267222Y-127098522I23J-1405414D01*
G01*
X82834543Y-133806224D02*
G75*
G03*
X82309532Y-135073675I1267457J-1267476D01*
G01*
X84134555Y-140146682D02*
G75*
G03*
X83222032Y-137943713I-3115455J-18D01*
G01*
X126843104Y-126977960D02*
G75*
G03*
X126552041Y-126686896I-291104J-40D01*
G01*
X116330568Y-133781200D02*
G75*
G03*
X120178324Y-132187420I32J5441500D01*
G01*
X82887906Y-121459589D02*
G75*
G03*
X81749305Y-120987964I-1138606J-1138611D01*
G01*
X136084543Y-128706224D02*
G75*
G03*
X136734532Y-127136974I-1569243J1569224D01*
G01*
X137456698Y-123409062D02*
G75*
G03*
X136734532Y-125152499I1743402J-1743438D01*
G01*
%TO.N,Net-(D30-A)*%
X204303105Y-130686896D02*
X206463105Y-130686896D01*
%TO.N,R_ROW3*%
X133380568Y-147231213D02*
X129730551Y-147231213D01*
X108843105Y-147686896D02*
X108843105Y-148682675D01*
X144425758Y-139673862D02*
X145248342Y-139673862D01*
X162843105Y-143372319D02*
X162843105Y-141686896D01*
X137228324Y-145637420D02*
X142610228Y-140255516D01*
X92007279Y-148158464D02*
X92044190Y-148121554D01*
X162843105Y-141686896D02*
X165003105Y-141686896D01*
X181594550Y-147686896D02*
X180091660Y-147686896D01*
X145909394Y-141686896D02*
X162843105Y-141686896D01*
X179689728Y-147686896D02*
X180091660Y-147686896D01*
X126417742Y-143798002D02*
X121178324Y-149037420D01*
X82609532Y-132690527D02*
X82609532Y-124557774D01*
X110791642Y-150631213D02*
X117330568Y-150631213D01*
X85455027Y-150956213D02*
X89432970Y-150956213D01*
X127498200Y-146194881D02*
X127688818Y-146385499D01*
X127000233Y-143686896D02*
X129003105Y-143686896D01*
X144837050Y-140614551D02*
X144837050Y-140085154D01*
X126843105Y-144613341D02*
X126843105Y-143844024D01*
X180843105Y-148471063D02*
X180843105Y-148438341D01*
X91211784Y-150078960D02*
X90972031Y-150318712D01*
X198843105Y-147686896D02*
X201003105Y-147686896D01*
X108843105Y-147686896D02*
X111003105Y-147686896D01*
X174272704Y-146556213D02*
X176960018Y-146556213D01*
X144425758Y-139673862D02*
X144014466Y-139673862D01*
X187978105Y-150206213D02*
X182578254Y-150206213D01*
X108843105Y-147686896D02*
X93093548Y-147686896D01*
X81809532Y-136361453D02*
X81809532Y-134621898D01*
X81579721Y-123527964D02*
X80163282Y-123527964D01*
X83534532Y-140525972D02*
X83534532Y-149035717D01*
X126685977Y-143686896D02*
X127000233Y-143686896D01*
X181594550Y-147686896D02*
X183003105Y-147686896D01*
X198843105Y-147686896D02*
X194060275Y-147686896D01*
X171496359Y-145406213D02*
X164876998Y-145406213D01*
X145248342Y-139673862D02*
X146997050Y-139673862D01*
X163438815Y-144810502D02*
G75*
G03*
X164876998Y-145406213I1438185J1438202D01*
G01*
X93093548Y-147686927D02*
G75*
G03*
X92044191Y-148121555I-48J-1483973D01*
G01*
X126685977Y-143686869D02*
G75*
G03*
X126417742Y-143798002I23J-379331D01*
G01*
X172884521Y-145981224D02*
G75*
G03*
X174272704Y-146556213I1388179J1388224D01*
G01*
X145151124Y-141372821D02*
G75*
G03*
X145909394Y-141686896I758276J758321D01*
G01*
X82307902Y-123829593D02*
G75*
G03*
X81579721Y-123527964I-728202J-728207D01*
G01*
X109413802Y-150060515D02*
G75*
G03*
X110791642Y-150631213I1377798J1377815D01*
G01*
X83534559Y-140525972D02*
G75*
G03*
X82672032Y-138443713I-2944759J-28D01*
G01*
X84097015Y-150393730D02*
G75*
G03*
X85455027Y-150956213I1357985J1358030D01*
G01*
X194060275Y-147686867D02*
G75*
G03*
X191019191Y-148946555I25J-4300733D01*
G01*
X82209536Y-133656217D02*
G75*
G03*
X81809532Y-134621898I965664J-965683D01*
G01*
X127688849Y-146385468D02*
G75*
G03*
X129730551Y-147231213I2041751J2041668D01*
G01*
X144014466Y-139673822D02*
G75*
G03*
X142610228Y-140255516I34J-1985878D01*
G01*
X178324862Y-147121565D02*
G75*
G03*
X176960018Y-146556213I-1364862J-1364835D01*
G01*
X181594550Y-147686905D02*
G75*
G03*
X180843105Y-148438341I-50J-751395D01*
G01*
X82209528Y-133656209D02*
G75*
G03*
X82609532Y-132690527I-965728J965709D01*
G01*
X126843064Y-144613341D02*
G75*
G03*
X127498200Y-146194881I2236636J41D01*
G01*
X180843104Y-148438341D02*
G75*
G03*
X180091660Y-147686896I-751404J41D01*
G01*
X91211786Y-150078962D02*
G75*
G03*
X91609532Y-149118713I-960286J960262D01*
G01*
X133380568Y-147231200D02*
G75*
G03*
X137228324Y-145637420I32J5441500D01*
G01*
X180843145Y-148471063D02*
G75*
G03*
X181351319Y-149697998I1735155J-37D01*
G01*
X127000233Y-143686905D02*
G75*
G03*
X126843105Y-143844024I-33J-157095D01*
G01*
X92007279Y-148158464D02*
G75*
G03*
X91609532Y-149118713I960221J-960236D01*
G01*
X126843104Y-143844024D02*
G75*
G03*
X126685977Y-143686896I-157104J24D01*
G01*
X108843110Y-148682675D02*
G75*
G03*
X109413818Y-150060499I1948490J-25D01*
G01*
X181351348Y-149697969D02*
G75*
G03*
X182578254Y-150206213I1226952J1226869D01*
G01*
X145248342Y-139673950D02*
G75*
G03*
X144837050Y-140085154I-42J-411250D01*
G01*
X162843092Y-143372319D02*
G75*
G03*
X163438818Y-144810499I2033908J19D01*
G01*
X144837087Y-140614551D02*
G75*
G03*
X145151133Y-141372812I1072313J-49D01*
G01*
X117330568Y-150631200D02*
G75*
G03*
X121178324Y-149037420I32J5441500D01*
G01*
X81809568Y-136361453D02*
G75*
G03*
X82672033Y-138443712I2944732J-47D01*
G01*
X82609543Y-124557774D02*
G75*
G03*
X82307906Y-123829589I-1029843J-26D01*
G01*
X172884555Y-145981190D02*
G75*
G03*
X171496359Y-145406213I-1388155J-1388210D01*
G01*
X187978105Y-150206225D02*
G75*
G03*
X191019190Y-148946554I-5J4300725D01*
G01*
X144837138Y-140085154D02*
G75*
G03*
X144425758Y-139673862I-411338J-46D01*
G01*
X178324859Y-147121568D02*
G75*
G03*
X179689728Y-147686896I1364841J1364868D01*
G01*
X83534512Y-149035717D02*
G75*
G03*
X84097032Y-150393713I1920488J17D01*
G01*
X89432970Y-150956175D02*
G75*
G03*
X90972030Y-150318711I30J2176575D01*
G01*
%TO.N,Net-(D31-A)*%
X206463105Y-147686896D02*
X204303105Y-147686896D01*
%TO.N,R_ROW4*%
X82909532Y-140815616D02*
X82909532Y-149158941D01*
X126843105Y-160479768D02*
X126843105Y-160894024D01*
X198843105Y-164686896D02*
X198843105Y-165799636D01*
X108466660Y-164686896D02*
X108523477Y-164686896D01*
X107824028Y-164420709D02*
X105853324Y-162450005D01*
X126843105Y-160894024D02*
X126843105Y-160929768D01*
X109162733Y-164686896D02*
X108523477Y-164686896D01*
X144843105Y-157279768D02*
X144843105Y-156094024D01*
X81234532Y-134376187D02*
X81234532Y-136771809D01*
X104259532Y-158602249D02*
X104259532Y-156798244D01*
X162843105Y-159087618D02*
X162843105Y-159488341D01*
X81934532Y-132686238D02*
X81934532Y-126858779D01*
X98967500Y-151506213D02*
X85256803Y-151506213D01*
X180629160Y-164686896D02*
X169494178Y-164686896D01*
X144843105Y-155189065D02*
X144843105Y-156094024D01*
X124353165Y-162631213D02*
X111261097Y-162631213D01*
X157391140Y-157262821D02*
X156328324Y-156200005D01*
X163409812Y-160856493D02*
X165646422Y-163093103D01*
X163243827Y-158686896D02*
X165003105Y-158686896D01*
X160829160Y-158686896D02*
X162442382Y-158686896D01*
X145425957Y-154606213D02*
X152480568Y-154606213D01*
X145435977Y-156686896D02*
X147003105Y-156686896D01*
X126671368Y-161344376D02*
X126113818Y-161901926D01*
X180629160Y-164686896D02*
X181057050Y-164686896D01*
X162442382Y-158686896D02*
X163243827Y-158686896D01*
X109069115Y-163821628D02*
X109551318Y-163339426D01*
X127726318Y-159389426D02*
X126989566Y-160126178D01*
X109162733Y-164686896D02*
X111003105Y-164686896D01*
X143761528Y-158506213D02*
X129858584Y-158506213D01*
X144843105Y-157279768D02*
X144843105Y-157424636D01*
X198843105Y-164686896D02*
X201003105Y-164686896D01*
X181726318Y-165997999D02*
X180994386Y-165266067D01*
X81143716Y-126067964D02*
X80163282Y-126067964D01*
X181057050Y-164686896D02*
X183003105Y-164686896D01*
X197761528Y-166881213D02*
X183858584Y-166881213D01*
X127050233Y-160686896D02*
X129003105Y-160686896D01*
X180843104Y-164900841D02*
G75*
G03*
X180629160Y-164686896I-213904J41D01*
G01*
X81702903Y-126299592D02*
G75*
G03*
X81143716Y-126067964I-559203J-559208D01*
G01*
X145435977Y-156686905D02*
G75*
G03*
X144843105Y-157279768I23J-592895D01*
G01*
X198526306Y-166564414D02*
G75*
G03*
X198843105Y-165799636I-764806J764814D01*
G01*
X111261097Y-162631209D02*
G75*
G03*
X109551318Y-163339426I3J-2417991D01*
G01*
X126671376Y-161344384D02*
G75*
G03*
X126843105Y-160929768I-414576J414584D01*
G01*
X104259500Y-156798244D02*
G75*
G03*
X102709532Y-153056213I-5292000J44D01*
G01*
X181057050Y-164686905D02*
G75*
G03*
X180843105Y-164900841I-50J-213895D01*
G01*
X126843104Y-160479768D02*
G75*
G03*
X127050233Y-160686896I207096J-32D01*
G01*
X108523477Y-164686905D02*
G75*
G03*
X108843105Y-164367268I23J319605D01*
G01*
X145013848Y-154776956D02*
G75*
G03*
X144843105Y-155189065I412052J-412144D01*
G01*
X83597022Y-150818723D02*
G75*
G03*
X85256803Y-151506213I1659778J1659823D01*
G01*
X124353165Y-162631195D02*
G75*
G03*
X126113818Y-161901926I35J2489895D01*
G01*
X157391159Y-157262802D02*
G75*
G03*
X160829160Y-158686896I3438041J3438002D01*
G01*
X144843104Y-156094024D02*
G75*
G03*
X145435977Y-156686896I592896J24D01*
G01*
X162843104Y-159087618D02*
G75*
G03*
X162442382Y-158686896I-400704J18D01*
G01*
X81234516Y-136771809D02*
G75*
G03*
X82072033Y-138793712I2859384J9D01*
G01*
X156328348Y-156199981D02*
G75*
G03*
X152480568Y-154606213I-3847748J-3847819D01*
G01*
X109069123Y-163821636D02*
G75*
G03*
X108843105Y-164367268I545677J-545664D01*
G01*
X107824053Y-164420684D02*
G75*
G03*
X108466660Y-164686896I642647J642584D01*
G01*
X162843087Y-159488341D02*
G75*
G03*
X163409812Y-160856493I1934913J41D01*
G01*
X81584540Y-133531221D02*
G75*
G03*
X81234532Y-134376187I844960J-844979D01*
G01*
X144526306Y-158189414D02*
G75*
G03*
X144843105Y-157424636I-764806J764814D01*
G01*
X181726319Y-165997998D02*
G75*
G03*
X183858584Y-166881213I2132281J2132298D01*
G01*
X102709522Y-153056223D02*
G75*
G03*
X98967500Y-151506213I-3742022J-3741977D01*
G01*
X126989594Y-160126206D02*
G75*
G03*
X126843105Y-160479768I353506J-353594D01*
G01*
X145425957Y-154606193D02*
G75*
G03*
X145013819Y-154776927I43J-582907D01*
G01*
X82909511Y-140815616D02*
G75*
G03*
X82072031Y-138793714I-2859411J16D01*
G01*
X127050233Y-160686905D02*
G75*
G03*
X126843105Y-160894024I-33J-207095D01*
G01*
X180843072Y-164900841D02*
G75*
G03*
X180994386Y-165266067I516528J41D01*
G01*
X104259503Y-158602249D02*
G75*
G03*
X105853324Y-162450005I5441597J49D01*
G01*
X108843104Y-164367268D02*
G75*
G03*
X109162733Y-164686896I319596J-32D01*
G01*
X81584525Y-133531206D02*
G75*
G03*
X81934532Y-132686238I-845025J845006D01*
G01*
X81934541Y-126858779D02*
G75*
G03*
X81702907Y-126299588I-790841J-21D01*
G01*
X143761528Y-158506221D02*
G75*
G03*
X144526318Y-158189426I-28J1081621D01*
G01*
X197761528Y-166881221D02*
G75*
G03*
X198526318Y-166564426I-28J1081621D01*
G01*
X82909502Y-149158941D02*
G75*
G03*
X83597032Y-150818713I2347298J41D01*
G01*
X165646423Y-163093102D02*
G75*
G03*
X169494178Y-164686896I3847777J3847802D01*
G01*
X129858584Y-158506204D02*
G75*
G03*
X127726318Y-159389426I16J-3015496D01*
G01*
X163243827Y-158686905D02*
G75*
G03*
X162843105Y-159087618I-27J-400695D01*
G01*
%TO.N,Net-(D32-A)*%
X204303105Y-164686896D02*
X206463105Y-164686896D01*
%TO.N,Net-(D33-A)*%
X188463105Y-113686896D02*
X186303105Y-113686896D01*
%TO.N,Net-(D34-A)*%
X186303105Y-130686896D02*
X188463105Y-130686896D01*
%TO.N,Net-(D35-A)*%
X188463105Y-147686896D02*
X186303105Y-147686896D01*
%TO.N,Net-(D36-A)*%
X186303105Y-164686896D02*
X188463105Y-164686896D01*
%TO.N,Net-(D37-A)*%
X170463105Y-107686896D02*
X168303105Y-107686896D01*
%TO.N,Net-(D38-A)*%
X168303105Y-124686896D02*
X170463105Y-124686896D01*
%TO.N,Net-(D39-A)*%
X168303105Y-141686896D02*
X170463105Y-141686896D01*
%TO.N,Net-(D40-A)*%
X168303105Y-158686896D02*
X170463105Y-158686896D01*
%TO.N,R_ROW5*%
X89467069Y-195248675D02*
X88903282Y-195812463D01*
X118388908Y-184616384D02*
X120083433Y-184616384D01*
X97570791Y-189631644D02*
X94946017Y-189631644D01*
X78409532Y-129330495D02*
X78409532Y-130996288D01*
X134344386Y-183250322D02*
X138147760Y-183250322D01*
X70559532Y-190744243D02*
X70559532Y-189631774D01*
X90951994Y-191663750D02*
X91596816Y-191018928D01*
X72558064Y-189539049D02*
X72558064Y-189934357D01*
X85749715Y-197118713D02*
X77425995Y-197118713D01*
X98920458Y-189072594D02*
X100052499Y-189072594D01*
X117753395Y-184879622D02*
X113940086Y-184879622D01*
X138147760Y-183250322D02*
X140307760Y-183250322D01*
X80715739Y-174475005D02*
X73016396Y-182174348D01*
X79132063Y-128607964D02*
X80163282Y-128607964D01*
X120406300Y-186781213D02*
X126305568Y-186781213D01*
X71478064Y-185888211D02*
X71478064Y-187414241D01*
X110092330Y-186473414D02*
X107168893Y-189396851D01*
X130153324Y-185187420D02*
X130496629Y-184844114D01*
X82309532Y-170627249D02*
X82309532Y-141404005D01*
X100286059Y-190990644D02*
X103321137Y-190990644D01*
X118100962Y-185497643D02*
X118662032Y-186058713D01*
X117939533Y-185107918D02*
X117939533Y-185065759D01*
X80509532Y-136066137D02*
X80509532Y-137058420D01*
X71805432Y-193752113D02*
X73578239Y-195524920D01*
X71937330Y-188523008D02*
X72278539Y-188864217D01*
X98245625Y-189911168D02*
X98645600Y-190311143D01*
X98245582Y-189352076D02*
G75*
G03*
X98245625Y-189911168I279518J-279524D01*
G01*
X97570791Y-189631642D02*
G75*
G03*
X98245625Y-189352119I9J954342D01*
G01*
X117939524Y-185107918D02*
G75*
G03*
X118100962Y-185497643I551176J18D01*
G01*
X82309516Y-141404005D02*
G75*
G03*
X81409532Y-139231213I-3072816J5D01*
G01*
X79132063Y-128607939D02*
G75*
G03*
X78621156Y-128819588I37J-722561D01*
G01*
X71937330Y-188523008D02*
G75*
G03*
X71018798Y-188523008I-459266J-459263D01*
G01*
X117939578Y-185065759D02*
G75*
G03*
X117753395Y-184879622I-186178J-41D01*
G01*
X90951979Y-191663735D02*
G75*
G03*
X90209532Y-193456213I1792521J-1792465D01*
G01*
X118388908Y-184616373D02*
G75*
G03*
X118071152Y-184748003I-8J-449327D01*
G01*
X71018803Y-188523013D02*
G75*
G03*
X70559532Y-189631774I1108797J-1108787D01*
G01*
X118071174Y-184748025D02*
G75*
G03*
X117939533Y-185065759I317726J-317775D01*
G01*
X118662022Y-186058723D02*
G75*
G03*
X120406300Y-186781213I1744278J1744323D01*
G01*
X70559501Y-190744243D02*
G75*
G03*
X71805432Y-193752113I4253799J43D01*
G01*
X98245628Y-189911165D02*
G75*
G03*
X97570791Y-189631644I-674828J-674835D01*
G01*
X71018784Y-188522994D02*
G75*
G03*
X71478064Y-187414241I-1108784J1108794D01*
G01*
X89467065Y-195248671D02*
G75*
G03*
X90209532Y-193456213I-1792465J1792471D01*
G01*
X103321137Y-190990671D02*
G75*
G03*
X107168893Y-189396851I-37J5441571D01*
G01*
X113940086Y-184879621D02*
G75*
G03*
X110092331Y-186473415I14J-5441579D01*
G01*
X78409553Y-130996288D02*
G75*
G03*
X79459532Y-133531213I3584947J-12D01*
G01*
X80509511Y-137058420D02*
G75*
G03*
X81409533Y-139231212I3072789J20D01*
G01*
X126305568Y-186781200D02*
G75*
G03*
X130153324Y-185187420I32J5441500D01*
G01*
X80509503Y-136066137D02*
G75*
G03*
X79459532Y-133531213I-3584903J37D01*
G01*
X72558097Y-189539049D02*
G75*
G03*
X72278539Y-188864217I-954397J-51D01*
G01*
X85749715Y-197118724D02*
G75*
G03*
X88903281Y-195812462I-15J4459824D01*
G01*
X71478036Y-187414241D02*
G75*
G03*
X71937330Y-188523008I1568064J41D01*
G01*
X94946017Y-189631648D02*
G75*
G03*
X91596817Y-191018929I-17J-4736452D01*
G01*
X80715737Y-174475003D02*
G75*
G03*
X82309532Y-170627249I-3847767J3847763D01*
G01*
X73016382Y-182174334D02*
G75*
G03*
X71478064Y-185888211I3713918J-3713866D01*
G01*
X134344386Y-183250320D02*
G75*
G03*
X130496629Y-184844114I14J-5441580D01*
G01*
X98645623Y-190311120D02*
G75*
G03*
X100286059Y-190990644I1640477J1640420D01*
G01*
X73578249Y-195524910D02*
G75*
G03*
X77425995Y-197118713I3847751J3847710D01*
G01*
X98920458Y-189072550D02*
G75*
G03*
X98245626Y-189352120I42J-954350D01*
G01*
X117753395Y-184879605D02*
G75*
G03*
X118071152Y-184748003I5J449405D01*
G01*
X78621151Y-128819583D02*
G75*
G03*
X78409532Y-129330495I510949J-510917D01*
G01*
%TO.N,Net-(D41-A)*%
X143607760Y-183250322D02*
X145767760Y-183250322D01*
%TO.N,Net-(D42-A)*%
X152463105Y-105686896D02*
X150303105Y-105686896D01*
%TO.N,Net-(D43-A)*%
X150303105Y-122686896D02*
X152463105Y-122686896D01*
%TO.N,Net-(D44-A)*%
X152457050Y-139673862D02*
X150297050Y-139673862D01*
%TO.N,Net-(D45-A)*%
X150303105Y-156686896D02*
X152463105Y-156686896D01*
%TO.N,Net-(D46-A)*%
X123808210Y-183950978D02*
X125502735Y-183950978D01*
X123490454Y-184082597D02*
X123358835Y-184214216D01*
X123808210Y-183950970D02*
G75*
G03*
X123490454Y-184082597I-10J-449330D01*
G01*
%TO.N,Net-(D47-A)*%
X134463105Y-109686896D02*
X132303105Y-109686896D01*
%TO.N,Net-(D48-A)*%
X132303105Y-126686896D02*
X134463105Y-126686896D01*
%TO.N,Net-(D49-A)*%
X134463105Y-143686896D02*
X132303105Y-143686896D01*
%TO.N,Net-(D50-A)*%
X132303105Y-160686896D02*
X134463105Y-160686896D01*
%TO.N,Net-(D51-A)*%
X104194413Y-187659442D02*
X105326454Y-187659442D01*
X103519580Y-187938967D02*
X103240055Y-188218492D01*
X104194413Y-187659452D02*
G75*
G03*
X103519581Y-187938968I-13J-954348D01*
G01*
%TO.N,Net-(D52-A)*%
X114303105Y-113686896D02*
X116463105Y-113686896D01*
%TO.N,Net-(D53-A)*%
X116463105Y-130686896D02*
X114303105Y-130686896D01*
%TO.N,Net-(D54-A)*%
X114303105Y-147686896D02*
X116463105Y-147686896D01*
%TO.N,Net-(D55-A)*%
X114303105Y-164686896D02*
X116463105Y-164686896D01*
%TO.N,Net-(D56-A)*%
X75288064Y-194267548D02*
X75288064Y-194662856D01*
X75008539Y-193592716D02*
X74208064Y-192792241D01*
X75288098Y-194267548D02*
G75*
G03*
X75008539Y-193592716I-954398J-52D01*
G01*
%TO.N,L_SDA*%
X337901470Y-115162873D02*
X337901470Y-135676344D01*
X336062974Y-113324378D02*
X334006470Y-113324378D01*
X337363005Y-113862843D02*
G75*
G03*
X336062974Y-113324378I-1300005J-1300057D01*
G01*
X337901496Y-115162873D02*
G75*
G03*
X337362987Y-113862861I-1838496J-27D01*
G01*
%TO.N,L_BAT_IN*%
X350337541Y-155143310D02*
X350681647Y-155143310D01*
X349722453Y-154872327D02*
X349750116Y-154899990D01*
X349451470Y-154218116D02*
X349451470Y-153388888D01*
X350706647Y-150358622D02*
X350706647Y-135593310D01*
X350079063Y-151873760D02*
G75*
G03*
X349451470Y-153388888I1515137J-1515140D01*
G01*
X349750102Y-154900004D02*
G75*
G03*
X350337541Y-155143310I587398J587404D01*
G01*
X350079052Y-151873749D02*
G75*
G03*
X350706647Y-150358622I-1515152J1515149D01*
G01*
X349451470Y-154218116D02*
G75*
G03*
X349722454Y-154872326I925230J16D01*
G01*
%TO.N,R_BAT_RAW*%
X74809532Y-135976403D02*
X74809532Y-106610176D01*
X90293156Y-103207964D02*
X95403282Y-103207964D01*
X80413495Y-101006213D02*
X84977658Y-101006213D01*
X76728324Y-148950005D02*
X77760390Y-149982071D01*
X75134532Y-136761022D02*
X75134532Y-145102249D01*
X78728105Y-152318341D02*
X78728105Y-153686896D01*
X76565739Y-102600005D02*
X76403324Y-102762419D01*
X87635420Y-102107075D02*
G75*
G03*
X84977658Y-101006213I-2657720J-2657725D01*
G01*
X80413495Y-101006221D02*
G75*
G03*
X76565740Y-102600006I5J-5441579D01*
G01*
X76403333Y-102762428D02*
G75*
G03*
X74809532Y-106610176I3847767J-3847772D01*
G01*
X75134509Y-136761022D02*
G75*
G03*
X74972032Y-136368713I-554809J22D01*
G01*
X87635421Y-102107074D02*
G75*
G03*
X90293156Y-103207964I2657779J2657774D01*
G01*
X75134503Y-145102249D02*
G75*
G03*
X76728324Y-148950005I5441597J49D01*
G01*
X74809518Y-135976403D02*
G75*
G03*
X74972032Y-136368713I554782J3D01*
G01*
X78728069Y-152318341D02*
G75*
G03*
X77760389Y-149982072I-3303969J41D01*
G01*
%TO.N,R_SDA*%
X82330691Y-113367964D02*
X80163282Y-113367964D01*
X84058282Y-115095554D02*
X84058282Y-135719930D01*
X83552275Y-113873970D02*
G75*
G03*
X82330691Y-113367964I-1221575J-1221530D01*
G01*
X84058316Y-115095554D02*
G75*
G03*
X83552281Y-113873964I-1727616J-46D01*
G01*
%TO.N,L_RST*%
X343980283Y-140072530D02*
X344969103Y-139083710D01*
X343476470Y-141466969D02*
X343476470Y-141288844D01*
X343476470Y-142001344D02*
X343476470Y-142713844D01*
X343476470Y-142001344D02*
X343476470Y-141823219D01*
X353601470Y-132219757D02*
X353601470Y-111585127D01*
X343476470Y-141466969D02*
X343476470Y-141823219D01*
X343476470Y-142713844D02*
X343476470Y-148201344D01*
X347491330Y-138226344D02*
X347038970Y-138226344D01*
X349326470Y-135036483D02*
X349326470Y-136391204D01*
X352492337Y-109092211D02*
X352622987Y-109222861D01*
X350445487Y-108244378D02*
X349246470Y-108244378D01*
X352619883Y-133201344D02*
X351161609Y-133201344D01*
X352492352Y-109092196D02*
G75*
G03*
X350445487Y-108244378I-2046852J-2046904D01*
G01*
X353313988Y-132913862D02*
G75*
G03*
X353601470Y-132219757I-694088J694062D01*
G01*
X347038970Y-138226329D02*
G75*
G03*
X344969103Y-139083710I30J-2927271D01*
G01*
X351161609Y-133201356D02*
G75*
G03*
X349863970Y-133738844I-9J-1835144D01*
G01*
X347491330Y-138226364D02*
G75*
G03*
X348788970Y-137688844I-30J1835164D01*
G01*
X349863980Y-133738854D02*
G75*
G03*
X349326470Y-135036483I1297620J-1297646D01*
G01*
X348788974Y-137688848D02*
G75*
G03*
X349326470Y-136391204I-1297674J1297648D01*
G01*
X352619883Y-133201344D02*
G75*
G03*
X353313969Y-132913843I17J981544D01*
G01*
X343980261Y-140072508D02*
G75*
G03*
X343476470Y-141288844I1216339J-1216292D01*
G01*
X353601444Y-111585127D02*
G75*
G03*
X352622987Y-109222861I-3340744J27D01*
G01*
%TO.N,L_BAT_RAW*%
X351701470Y-153660443D02*
X351701470Y-155755220D01*
X351191558Y-156986255D02*
X350910446Y-157267367D01*
X352751470Y-152849567D02*
X352751470Y-152126344D01*
X354701470Y-106238844D02*
X354701470Y-106120094D01*
X350792987Y-103164378D02*
X349246470Y-103164378D01*
X350681647Y-157819738D02*
X350681647Y-158143310D01*
X354533532Y-105358406D02*
X353433056Y-104257930D01*
X353387866Y-150589947D02*
X353726470Y-150251344D01*
X354701470Y-105763844D02*
X354701470Y-105882594D01*
X354701470Y-105882594D02*
X354701470Y-106120094D01*
X354701470Y-147897485D02*
X354701470Y-106713844D01*
X354701470Y-106238844D02*
X354701470Y-106713844D01*
X352085569Y-153276344D02*
X352324693Y-153276344D01*
X353726480Y-150251354D02*
G75*
G03*
X354701470Y-147897485I-2353880J2353854D01*
G01*
X352324693Y-153276348D02*
G75*
G03*
X352626469Y-153151343I7J426748D01*
G01*
X353433062Y-104257924D02*
G75*
G03*
X350792987Y-103164378I-2640062J-2640076D01*
G01*
X352626485Y-153151359D02*
G75*
G03*
X352751470Y-152849567I-301785J301759D01*
G01*
X353387837Y-150589918D02*
G75*
G03*
X352751470Y-152126344I1536463J-1536382D01*
G01*
X350910431Y-157267352D02*
G75*
G03*
X350681647Y-157819738I552369J-552348D01*
G01*
X351813942Y-153388816D02*
G75*
G03*
X351701470Y-153660443I271658J-271584D01*
G01*
X354701440Y-105763844D02*
G75*
G03*
X354533532Y-105358406I-573340J44D01*
G01*
X352085569Y-153276310D02*
G75*
G03*
X351813970Y-153388844I31J-384090D01*
G01*
X351191553Y-156986250D02*
G75*
G03*
X351701470Y-155755220I-1231053J1231050D01*
G01*
%TO.N,R_RST*%
X93828031Y-108287964D02*
X95403282Y-108287964D01*
X89453324Y-111087420D02*
X91138910Y-109401834D01*
X89633282Y-142044930D02*
X89633282Y-148244930D01*
X89633282Y-142044930D02*
X89633282Y-140584193D01*
X87859532Y-114935176D02*
X87859532Y-136301982D01*
X87859541Y-136301982D02*
G75*
G03*
X88746407Y-138443088I3027959J-18D01*
G01*
X89633286Y-140584193D02*
G75*
G03*
X88746407Y-138443088I-3027986J-7D01*
G01*
X93828031Y-108287999D02*
G75*
G03*
X91138910Y-109401834I-31J-3803001D01*
G01*
X89453332Y-111087428D02*
G75*
G03*
X87859532Y-114935176I3847768J-3847772D01*
G01*
%TO.N,R_BAT_IN*%
X76709532Y-136393713D02*
X76709532Y-135631213D01*
X79909532Y-142610176D02*
X79909532Y-154884732D01*
X78790977Y-156686896D02*
X78728105Y-156686896D01*
X78315739Y-138762420D02*
X77248700Y-137695381D01*
X78898306Y-156642438D02*
X79381690Y-156159054D01*
X76709532Y-136393713D02*
G75*
G03*
X77248700Y-137695381I1840868J13D01*
G01*
X79909553Y-142610176D02*
G75*
G03*
X78315739Y-138762420I-5441553J-24D01*
G01*
X79381668Y-156159032D02*
G75*
G03*
X79909532Y-154884732I-1274268J1274332D01*
G01*
X78790977Y-156686876D02*
G75*
G03*
X78898306Y-156642438I23J151776D01*
G01*
%TD*%
M02*
