%TF.GenerationSoftware,KiCad,Pcbnew,7.0.10*%
%TF.CreationDate,2024-02-10T22:50:59-05:00*%
%TF.ProjectId,blahajergo,626c6168-616a-4657-9267-6f2e6b696361,rev?*%
%TF.SameCoordinates,Original*%
%TF.FileFunction,Profile,NP*%
%FSLAX46Y46*%
G04 Gerber Fmt 4.6, Leading zero omitted, Abs format (unit mm)*
G04 Created by KiCad (PCBNEW 7.0.10) date 2024-02-10 22:50:59*
%MOMM*%
%LPD*%
G01*
G04 APERTURE LIST*
%TA.AperFunction,Profile*%
%ADD10C,0.100000*%
%TD*%
%TA.AperFunction,Profile*%
%ADD11C,0.150000*%
%TD*%
G04 APERTURE END LIST*
D10*
X215756690Y-168143310D02*
G75*
G03*
X217756647Y-170143310I2000010J10D01*
G01*
X336595359Y-196662472D02*
X315841645Y-191101531D01*
X75746157Y-206456185D02*
G75*
G03*
X78672652Y-207060328I1732043J999985D01*
G01*
X213656690Y-147243310D02*
G75*
G03*
X215756690Y-147243310I1050000J0D01*
G01*
X76256431Y-170619855D02*
G75*
G03*
X76686213Y-167460588I-981841J1742435D01*
G01*
X213653135Y-99881150D02*
G75*
G03*
X211981903Y-97908362I-1999935J50D01*
G01*
X62020688Y-178641184D02*
G75*
G03*
X61270456Y-181383646I982112J-1742516D01*
G01*
X160249422Y-168037625D02*
G75*
G03*
X157998027Y-169505670I-316522J-1974975D01*
G01*
X213656691Y-151233310D02*
X213653105Y-168186896D01*
X327542332Y-98095676D02*
G75*
G03*
X327976191Y-98143310I433768J1951176D01*
G01*
X350737129Y-207016703D02*
G75*
G03*
X353663643Y-206412627I1194471J1604203D01*
G01*
X113568107Y-191145117D02*
X92814393Y-196706058D01*
X368139297Y-181340060D02*
X353663643Y-206412627D01*
X92137537Y-197033795D02*
X78672653Y-207060329D01*
X354668225Y-165479545D02*
X352723539Y-167417002D01*
X353153316Y-170576278D02*
X367389047Y-178597628D01*
X213656690Y-115193310D02*
G75*
G03*
X215756690Y-115193310I1050000J0D01*
G01*
X159763197Y-90199128D02*
X177598935Y-92180877D01*
X213656690Y-119193310D02*
X213656690Y-131243310D01*
X368139330Y-181340079D02*
G75*
G03*
X367389047Y-178597628I-1732130J999979D01*
G01*
X295958424Y-188491719D02*
X278013208Y-188689526D01*
X101433561Y-98186901D02*
G75*
G03*
X101867422Y-98139269I139J1998501D01*
G01*
X355256690Y-100143310D02*
G75*
G03*
X353256647Y-98143310I-1999890J110D01*
G01*
X76153105Y-98186896D02*
X101433561Y-98186896D01*
X211653105Y-170186896D02*
X173812437Y-170186896D01*
X62020705Y-178641214D02*
X76256436Y-170619864D01*
X215756690Y-147243310D02*
X215756690Y-135243310D01*
X215756690Y-151253216D02*
X215756647Y-168143310D01*
X177706870Y-92195857D02*
X211981903Y-97908362D01*
X296241033Y-188508639D02*
G75*
G03*
X295958424Y-188491718I-260433J-1981161D01*
G01*
X101867422Y-98139270D02*
X137438788Y-90234522D01*
X269867418Y-90143310D02*
G75*
G03*
X269646555Y-90155544I-18J-1999490D01*
G01*
X352723598Y-167417061D02*
G75*
G03*
X353153317Y-170576276I1411502J-1416839D01*
G01*
X215756690Y-135243310D02*
G75*
G03*
X213656690Y-135243310I-1050000J0D01*
G01*
X215756647Y-99837564D02*
X215756690Y-115193310D01*
X151396544Y-188733112D02*
X133451328Y-188535305D01*
X215756709Y-151253216D02*
G75*
G03*
X213656692Y-151233310I-1050009J9916D01*
G01*
X350737099Y-207016743D02*
X337272215Y-196990209D01*
X271411744Y-169462079D02*
G75*
G03*
X269160328Y-167994029I-1934744J-506721D01*
G01*
X215756690Y-131243310D02*
X215756690Y-119193310D01*
X217427848Y-97864767D02*
G75*
G03*
X215756647Y-99837564I328852J-1972833D01*
G01*
X173495781Y-170161672D02*
G75*
G03*
X173812437Y-170186896I316819J1977072D01*
G01*
X213656690Y-131243310D02*
G75*
G03*
X215756690Y-131243310I1050000J0D01*
G01*
X211653105Y-170186905D02*
G75*
G03*
X213653105Y-168186896I95J1999905D01*
G01*
X74153105Y-164106286D02*
X74153105Y-100186896D01*
X327976191Y-98143310D02*
X353256647Y-98143310D01*
X213656690Y-115193310D02*
X213653105Y-99881150D01*
X269867418Y-90143310D02*
X291537103Y-90143310D01*
X315841645Y-191101532D02*
G75*
G03*
X315584572Y-191050430I-517245J-1929868D01*
G01*
X137872649Y-90186896D02*
X159542334Y-90186896D01*
X75746109Y-206456213D02*
X61270455Y-181383646D01*
X255597315Y-170143310D02*
X217756647Y-170143310D01*
X255597315Y-170143307D02*
G75*
G03*
X255913970Y-170118082I-115J2001607D01*
G01*
X251810817Y-92137289D02*
G75*
G03*
X251702882Y-92152272I220983J-1988211D01*
G01*
X355256647Y-100143310D02*
X355256647Y-164062700D01*
X213656690Y-135243310D02*
X213656690Y-147243310D01*
X76686213Y-167460588D02*
X74741527Y-165523131D01*
X217427849Y-97864776D02*
X251702882Y-92152271D01*
X354668244Y-165479564D02*
G75*
G03*
X355256648Y-164062700I-1411444J1416764D01*
G01*
X173495782Y-170161669D02*
X160249425Y-168037615D01*
X337272218Y-196990205D02*
G75*
G03*
X336595360Y-196662472I-1194518J-1604195D01*
G01*
X113825181Y-191094020D02*
G75*
G03*
X113568107Y-191145118I260619J-1983380D01*
G01*
X133451328Y-188535304D02*
G75*
G03*
X133168719Y-188552230I-21928J-2001696D01*
G01*
X215756690Y-119193310D02*
G75*
G03*
X213656690Y-119193310I-1050000J0D01*
G01*
X291970966Y-90190927D02*
G75*
G03*
X291537103Y-90143310I-433766J-1951873D01*
G01*
X151396544Y-188733127D02*
G75*
G03*
X153353333Y-187239953I22156J1999727D01*
G01*
X76153105Y-98186905D02*
G75*
G03*
X74153105Y-100186896I95J-2000095D01*
G01*
X137872649Y-90186898D02*
G75*
G03*
X137438788Y-90234523I-49J-1999602D01*
G01*
X159763196Y-90199134D02*
G75*
G03*
X159542334Y-90186896I-220996J-1989266D01*
G01*
X251810817Y-92137291D02*
X269646555Y-90155542D01*
X276056374Y-187196379D02*
G75*
G03*
X278013208Y-188689527I1934626J506579D01*
G01*
X276056419Y-187196367D02*
X271411726Y-169462084D01*
X133168719Y-188552229D02*
X113825180Y-191094015D01*
D11*
X92814391Y-196706052D02*
G75*
G03*
X92137537Y-197033795I517509J-1931548D01*
G01*
D10*
X315584572Y-191050429D02*
X296241033Y-188508643D01*
X269160327Y-167994029D02*
X255913970Y-170118083D01*
X157998026Y-169505670D02*
X153353333Y-187239953D01*
X177706870Y-92195855D02*
G75*
G03*
X177598935Y-92180877I-328470J-1970645D01*
G01*
X291970964Y-90190936D02*
X327542330Y-98095684D01*
X74153084Y-164106286D02*
G75*
G03*
X74741527Y-165523131I1999916J-14D01*
G01*
M02*
