<?xml version="1.0" encoding="UTF-8" standalone="no"?>
<svg
   width="1200"
   height="800"
   viewBox="0 0 9600 6400"
   version="1.1"
   id="svg14"
   sodipodi:docname="Flag of Québec.svg"
   inkscape:version="1.2.2 (b0a8486541, 2022-12-01)"
   xmlns:inkscape="http://www.inkscape.org/namespaces/inkscape"
   xmlns:sodipodi="http://sodipodi.sourceforge.net/DTD/sodipodi-0.dtd"
   xmlns="http://www.w3.org/2000/svg"
   xmlns:svg="http://www.w3.org/2000/svg"
   xmlns:rdf="http://www.w3.org/1999/02/22-rdf-syntax-ns#"
   xmlns:cc="http://creativecommons.org/ns#"
   xmlns:dc="http://purl.org/dc/elements/1.1/">
  <defs
     id="defs18" />
  <sodipodi:namedview
     id="namedview16"
     pagecolor="#ffffff"
     bordercolor="#000000"
     borderopacity="0.25"
     inkscape:showpageshadow="2"
     inkscape:pageopacity="0.0"
     inkscape:pagecheckerboard="true"
     inkscape:deskcolor="#d1d1d1"
     showgrid="false"
     inkscape:zoom="0.54125"
     inkscape:cx="518.2448"
     inkscape:cy="419.39954"
     inkscape:window-width="1890"
     inkscape:window-height="991"
     inkscape:window-x="1095"
     inkscape:window-y="882"
     inkscape:window-maximized="0"
     inkscape:current-layer="svg14" />
  <title
     id="title2">Flag of Québec</title>
  <path
     fill="#003da5"
     d="m4000 0v2400H0V0zm-1691 1622v-129h-115c0-66 32-130 66-150 20-17 65-25 104-5 51 29 54 113 28 151 243-45 219-280 136-365-67-69-140-79-196-58-128 46-214 199-218 427h-67c0-207 36-273 130-534 48-123 19-275-65-415-31-50-69-95-112-144-43 49-81 94-112 144-84 140-113 292-65 415 94 261 130 327 130 534h-67c-4-228-90-381-218-427-56-21-129-11-196 58-83 85-107 320 136 365-26-38-23-122 28-151 39-20 84-12 104 5 34 20 66 84 66 150h-115v129h239c-3 67-39 119-106 148 8 28 49 85 105 81 11 60 21 94 71 149 50-55 60-89 71-149 56 4 97-53 105-81-67-29-103-81-106-148z"
     id="path6" />
  <path
     fill="#003da5"
     d="M 4000,0 V 2400 H 0 V 0 Z M 2309,1622 v -129 h -115 c 0,-66 32,-130 66,-150 20,-17 65,-25 104,-5 51,29 54,113 28,151 243,-45 219,-280 136,-365 -67,-69 -140,-79 -196,-58 -128,46 -214,199 -218,427 h -67 c 0,-207 36,-273 130,-534 48,-123 19,-275 -65,-415 -31,-50 -69,-95 -112,-144 -43,49 -81,94 -112,144 -84,140 -113,292 -65,415 94,261 130,327 130,534 h -67 c -4,-228 -90,-381 -218,-427 -56,-21 -129,-11 -196,58 -83,85 -107,320 136,365 -26,-38 -23,-122 28,-151 39,-20 84,-12 104,5 34,20 66,84 66,150 h -115 v 129 h 239 c -3,67 -39,119 -106,148 8,28 49,85 105,81 11,60 21,94 71,149 50,-55 60,-89 71,-149 56,4 97,-53 105,-81 -67,-29 -103,-81 -106,-148 z"
     id="path912"
     transform="translate(5600)" />
  <path
     fill="#003da5"
     d="M 4000,0 V 2400 H 0 V 0 Z M 2309,1622 v -129 h -115 c 0,-66 32,-130 66,-150 20,-17 65,-25 104,-5 51,29 54,113 28,151 243,-45 219,-280 136,-365 -67,-69 -140,-79 -196,-58 -128,46 -214,199 -218,427 h -67 c 0,-207 36,-273 130,-534 48,-123 19,-275 -65,-415 -31,-50 -69,-95 -112,-144 -43,49 -81,94 -112,144 -84,140 -113,292 -65,415 94,261 130,327 130,534 h -67 c -4,-228 -90,-381 -218,-427 -56,-21 -129,-11 -196,58 -83,85 -107,320 136,365 -26,-38 -23,-122 28,-151 39,-20 84,-12 104,5 34,20 66,84 66,150 h -115 v 129 h 239 c -3,67 -39,119 -106,148 8,28 49,85 105,81 11,60 21,94 71,149 50,-55 60,-89 71,-149 56,4 97,-53 105,-81 -67,-29 -103,-81 -106,-148 z"
     id="path916"
     transform="translate(0,4000)" />
  <path
     fill="#003da5"
     d="M 4000,0 V 2400 H 0 V 0 Z M 2309,1622 v -129 h -115 c 0,-66 32,-130 66,-150 20,-17 65,-25 104,-5 51,29 54,113 28,151 243,-45 219,-280 136,-365 -67,-69 -140,-79 -196,-58 -128,46 -214,199 -218,427 h -67 c 0,-207 36,-273 130,-534 48,-123 19,-275 -65,-415 -31,-50 -69,-95 -112,-144 -43,49 -81,94 -112,144 -84,140 -113,292 -65,415 94,261 130,327 130,534 h -67 c -4,-228 -90,-381 -218,-427 -56,-21 -129,-11 -196,58 -83,85 -107,320 136,365 -26,-38 -23,-122 28,-151 39,-20 84,-12 104,5 34,20 66,84 66,150 h -115 v 129 h 239 c -3,67 -39,119 -106,148 8,28 49,85 105,81 11,60 21,94 71,149 50,-55 60,-89 71,-149 56,4 97,-53 105,-81 -67,-29 -103,-81 -106,-148 z"
     id="path920"
     transform="translate(5600,4000)" />
  <metadata
     id="metadata301">
    <rdf:RDF>
      <cc:Work
         rdf:about="">
        <dc:title>Flag of Québec</dc:title>
      </cc:Work>
    </rdf:RDF>
  </metadata>
</svg>
