%TF.GenerationSoftware,KiCad,Pcbnew,8.0.3*%
%TF.CreationDate,2024-07-12T23:04:24-04:00*%
%TF.ProjectId,pcb_ruler,7063625f-7275-46c6-9572-2e6b69636164,rev?*%
%TF.SameCoordinates,Original*%
%TF.FileFunction,Drillmap*%
%TF.FilePolarity,Positive*%
%FSLAX45Y45*%
G04 Gerber Fmt 4.5, Leading zero omitted, Abs format (unit mm)*
G04 Created by KiCad (PCBNEW 8.0.3) date 2024-07-12 23:04:24*
%MOMM*%
%LPD*%
G01*
G04 APERTURE LIST*
%ADD10C,0.050000*%
%ADD11C,0.200000*%
%ADD12C,0.840000*%
G04 APERTURE END LIST*
D10*
X7620000Y-12700000D02*
X38100000Y-12700000D01*
X38100000Y-15240000D01*
X7620000Y-15240000D01*
X7620000Y-12700000D01*
D11*
D12*
X36156000Y-13550000D02*
X36996000Y-14390000D01*
X36996000Y-13550000D02*
X36156000Y-14390000D01*
D11*
X7878277Y-15553984D02*
X7878277Y-15353984D01*
X7878277Y-15353984D02*
X7925896Y-15353984D01*
X7925896Y-15353984D02*
X7954467Y-15363508D01*
X7954467Y-15363508D02*
X7973515Y-15382555D01*
X7973515Y-15382555D02*
X7983039Y-15401603D01*
X7983039Y-15401603D02*
X7992562Y-15439698D01*
X7992562Y-15439698D02*
X7992562Y-15468269D01*
X7992562Y-15468269D02*
X7983039Y-15506365D01*
X7983039Y-15506365D02*
X7973515Y-15525412D01*
X7973515Y-15525412D02*
X7954467Y-15544460D01*
X7954467Y-15544460D02*
X7925896Y-15553984D01*
X7925896Y-15553984D02*
X7878277Y-15553984D01*
X8078277Y-15553984D02*
X8078277Y-15420650D01*
X8078277Y-15458746D02*
X8087801Y-15439698D01*
X8087801Y-15439698D02*
X8097324Y-15430174D01*
X8097324Y-15430174D02*
X8116372Y-15420650D01*
X8116372Y-15420650D02*
X8135420Y-15420650D01*
X8202086Y-15553984D02*
X8202086Y-15420650D01*
X8202086Y-15353984D02*
X8192562Y-15363508D01*
X8192562Y-15363508D02*
X8202086Y-15373031D01*
X8202086Y-15373031D02*
X8211610Y-15363508D01*
X8211610Y-15363508D02*
X8202086Y-15353984D01*
X8202086Y-15353984D02*
X8202086Y-15373031D01*
X8325896Y-15553984D02*
X8306848Y-15544460D01*
X8306848Y-15544460D02*
X8297324Y-15525412D01*
X8297324Y-15525412D02*
X8297324Y-15353984D01*
X8430658Y-15553984D02*
X8411610Y-15544460D01*
X8411610Y-15544460D02*
X8402086Y-15525412D01*
X8402086Y-15525412D02*
X8402086Y-15353984D01*
X8659229Y-15553984D02*
X8659229Y-15353984D01*
X8659229Y-15353984D02*
X8725896Y-15496841D01*
X8725896Y-15496841D02*
X8792563Y-15353984D01*
X8792563Y-15353984D02*
X8792563Y-15553984D01*
X8973515Y-15553984D02*
X8973515Y-15449222D01*
X8973515Y-15449222D02*
X8963991Y-15430174D01*
X8963991Y-15430174D02*
X8944944Y-15420650D01*
X8944944Y-15420650D02*
X8906848Y-15420650D01*
X8906848Y-15420650D02*
X8887801Y-15430174D01*
X8973515Y-15544460D02*
X8954467Y-15553984D01*
X8954467Y-15553984D02*
X8906848Y-15553984D01*
X8906848Y-15553984D02*
X8887801Y-15544460D01*
X8887801Y-15544460D02*
X8878277Y-15525412D01*
X8878277Y-15525412D02*
X8878277Y-15506365D01*
X8878277Y-15506365D02*
X8887801Y-15487317D01*
X8887801Y-15487317D02*
X8906848Y-15477793D01*
X8906848Y-15477793D02*
X8954467Y-15477793D01*
X8954467Y-15477793D02*
X8973515Y-15468269D01*
X9068753Y-15420650D02*
X9068753Y-15620650D01*
X9068753Y-15430174D02*
X9087801Y-15420650D01*
X9087801Y-15420650D02*
X9125896Y-15420650D01*
X9125896Y-15420650D02*
X9144944Y-15430174D01*
X9144944Y-15430174D02*
X9154467Y-15439698D01*
X9154467Y-15439698D02*
X9163991Y-15458746D01*
X9163991Y-15458746D02*
X9163991Y-15515888D01*
X9163991Y-15515888D02*
X9154467Y-15534936D01*
X9154467Y-15534936D02*
X9144944Y-15544460D01*
X9144944Y-15544460D02*
X9125896Y-15553984D01*
X9125896Y-15553984D02*
X9087801Y-15553984D01*
X9087801Y-15553984D02*
X9068753Y-15544460D01*
X9249705Y-15534936D02*
X9259229Y-15544460D01*
X9259229Y-15544460D02*
X9249705Y-15553984D01*
X9249705Y-15553984D02*
X9240182Y-15544460D01*
X9240182Y-15544460D02*
X9249705Y-15534936D01*
X9249705Y-15534936D02*
X9249705Y-15553984D01*
X9249705Y-15430174D02*
X9259229Y-15439698D01*
X9259229Y-15439698D02*
X9249705Y-15449222D01*
X9249705Y-15449222D02*
X9240182Y-15439698D01*
X9240182Y-15439698D02*
X9249705Y-15430174D01*
X9249705Y-15430174D02*
X9249705Y-15449222D01*
X7417500Y-15782500D02*
X7617500Y-15982500D01*
X7617500Y-15782500D02*
X7417500Y-15982500D01*
X7906848Y-15859698D02*
X7887801Y-15850174D01*
X7887801Y-15850174D02*
X7878277Y-15840650D01*
X7878277Y-15840650D02*
X7868753Y-15821603D01*
X7868753Y-15821603D02*
X7868753Y-15812079D01*
X7868753Y-15812079D02*
X7878277Y-15793031D01*
X7878277Y-15793031D02*
X7887801Y-15783508D01*
X7887801Y-15783508D02*
X7906848Y-15773984D01*
X7906848Y-15773984D02*
X7944943Y-15773984D01*
X7944943Y-15773984D02*
X7963991Y-15783508D01*
X7963991Y-15783508D02*
X7973515Y-15793031D01*
X7973515Y-15793031D02*
X7983039Y-15812079D01*
X7983039Y-15812079D02*
X7983039Y-15821603D01*
X7983039Y-15821603D02*
X7973515Y-15840650D01*
X7973515Y-15840650D02*
X7963991Y-15850174D01*
X7963991Y-15850174D02*
X7944943Y-15859698D01*
X7944943Y-15859698D02*
X7906848Y-15859698D01*
X7906848Y-15859698D02*
X7887801Y-15869222D01*
X7887801Y-15869222D02*
X7878277Y-15878746D01*
X7878277Y-15878746D02*
X7868753Y-15897793D01*
X7868753Y-15897793D02*
X7868753Y-15935888D01*
X7868753Y-15935888D02*
X7878277Y-15954936D01*
X7878277Y-15954936D02*
X7887801Y-15964460D01*
X7887801Y-15964460D02*
X7906848Y-15973984D01*
X7906848Y-15973984D02*
X7944943Y-15973984D01*
X7944943Y-15973984D02*
X7963991Y-15964460D01*
X7963991Y-15964460D02*
X7973515Y-15954936D01*
X7973515Y-15954936D02*
X7983039Y-15935888D01*
X7983039Y-15935888D02*
X7983039Y-15897793D01*
X7983039Y-15897793D02*
X7973515Y-15878746D01*
X7973515Y-15878746D02*
X7963991Y-15869222D01*
X7963991Y-15869222D02*
X7944943Y-15859698D01*
X8068753Y-15954936D02*
X8078277Y-15964460D01*
X8078277Y-15964460D02*
X8068753Y-15973984D01*
X8068753Y-15973984D02*
X8059229Y-15964460D01*
X8059229Y-15964460D02*
X8068753Y-15954936D01*
X8068753Y-15954936D02*
X8068753Y-15973984D01*
X8249705Y-15840650D02*
X8249705Y-15973984D01*
X8202086Y-15764460D02*
X8154467Y-15907317D01*
X8154467Y-15907317D02*
X8278277Y-15907317D01*
X8392563Y-15773984D02*
X8411610Y-15773984D01*
X8411610Y-15773984D02*
X8430658Y-15783508D01*
X8430658Y-15783508D02*
X8440182Y-15793031D01*
X8440182Y-15793031D02*
X8449705Y-15812079D01*
X8449705Y-15812079D02*
X8459229Y-15850174D01*
X8459229Y-15850174D02*
X8459229Y-15897793D01*
X8459229Y-15897793D02*
X8449705Y-15935888D01*
X8449705Y-15935888D02*
X8440182Y-15954936D01*
X8440182Y-15954936D02*
X8430658Y-15964460D01*
X8430658Y-15964460D02*
X8411610Y-15973984D01*
X8411610Y-15973984D02*
X8392563Y-15973984D01*
X8392563Y-15973984D02*
X8373515Y-15964460D01*
X8373515Y-15964460D02*
X8363991Y-15954936D01*
X8363991Y-15954936D02*
X8354467Y-15935888D01*
X8354467Y-15935888D02*
X8344943Y-15897793D01*
X8344943Y-15897793D02*
X8344943Y-15850174D01*
X8344943Y-15850174D02*
X8354467Y-15812079D01*
X8354467Y-15812079D02*
X8363991Y-15793031D01*
X8363991Y-15793031D02*
X8373515Y-15783508D01*
X8373515Y-15783508D02*
X8392563Y-15773984D01*
X8583039Y-15773984D02*
X8602086Y-15773984D01*
X8602086Y-15773984D02*
X8621134Y-15783508D01*
X8621134Y-15783508D02*
X8630658Y-15793031D01*
X8630658Y-15793031D02*
X8640182Y-15812079D01*
X8640182Y-15812079D02*
X8649705Y-15850174D01*
X8649705Y-15850174D02*
X8649705Y-15897793D01*
X8649705Y-15897793D02*
X8640182Y-15935888D01*
X8640182Y-15935888D02*
X8630658Y-15954936D01*
X8630658Y-15954936D02*
X8621134Y-15964460D01*
X8621134Y-15964460D02*
X8602086Y-15973984D01*
X8602086Y-15973984D02*
X8583039Y-15973984D01*
X8583039Y-15973984D02*
X8563991Y-15964460D01*
X8563991Y-15964460D02*
X8554467Y-15954936D01*
X8554467Y-15954936D02*
X8544944Y-15935888D01*
X8544944Y-15935888D02*
X8535420Y-15897793D01*
X8535420Y-15897793D02*
X8535420Y-15850174D01*
X8535420Y-15850174D02*
X8544944Y-15812079D01*
X8544944Y-15812079D02*
X8554467Y-15793031D01*
X8554467Y-15793031D02*
X8563991Y-15783508D01*
X8563991Y-15783508D02*
X8583039Y-15773984D01*
X8735420Y-15973984D02*
X8735420Y-15840650D01*
X8735420Y-15859698D02*
X8744944Y-15850174D01*
X8744944Y-15850174D02*
X8763991Y-15840650D01*
X8763991Y-15840650D02*
X8792563Y-15840650D01*
X8792563Y-15840650D02*
X8811610Y-15850174D01*
X8811610Y-15850174D02*
X8821134Y-15869222D01*
X8821134Y-15869222D02*
X8821134Y-15973984D01*
X8821134Y-15869222D02*
X8830658Y-15850174D01*
X8830658Y-15850174D02*
X8849705Y-15840650D01*
X8849705Y-15840650D02*
X8878277Y-15840650D01*
X8878277Y-15840650D02*
X8897325Y-15850174D01*
X8897325Y-15850174D02*
X8906848Y-15869222D01*
X8906848Y-15869222D02*
X8906848Y-15973984D01*
X9002086Y-15973984D02*
X9002086Y-15840650D01*
X9002086Y-15859698D02*
X9011610Y-15850174D01*
X9011610Y-15850174D02*
X9030658Y-15840650D01*
X9030658Y-15840650D02*
X9059229Y-15840650D01*
X9059229Y-15840650D02*
X9078277Y-15850174D01*
X9078277Y-15850174D02*
X9087801Y-15869222D01*
X9087801Y-15869222D02*
X9087801Y-15973984D01*
X9087801Y-15869222D02*
X9097325Y-15850174D01*
X9097325Y-15850174D02*
X9116372Y-15840650D01*
X9116372Y-15840650D02*
X9144944Y-15840650D01*
X9144944Y-15840650D02*
X9163991Y-15850174D01*
X9163991Y-15850174D02*
X9173515Y-15869222D01*
X9173515Y-15869222D02*
X9173515Y-15973984D01*
X9563991Y-15764460D02*
X9392563Y-16021603D01*
X9821134Y-15773984D02*
X9840182Y-15773984D01*
X9840182Y-15773984D02*
X9859229Y-15783508D01*
X9859229Y-15783508D02*
X9868753Y-15793031D01*
X9868753Y-15793031D02*
X9878277Y-15812079D01*
X9878277Y-15812079D02*
X9887801Y-15850174D01*
X9887801Y-15850174D02*
X9887801Y-15897793D01*
X9887801Y-15897793D02*
X9878277Y-15935888D01*
X9878277Y-15935888D02*
X9868753Y-15954936D01*
X9868753Y-15954936D02*
X9859229Y-15964460D01*
X9859229Y-15964460D02*
X9840182Y-15973984D01*
X9840182Y-15973984D02*
X9821134Y-15973984D01*
X9821134Y-15973984D02*
X9802087Y-15964460D01*
X9802087Y-15964460D02*
X9792563Y-15954936D01*
X9792563Y-15954936D02*
X9783039Y-15935888D01*
X9783039Y-15935888D02*
X9773515Y-15897793D01*
X9773515Y-15897793D02*
X9773515Y-15850174D01*
X9773515Y-15850174D02*
X9783039Y-15812079D01*
X9783039Y-15812079D02*
X9792563Y-15793031D01*
X9792563Y-15793031D02*
X9802087Y-15783508D01*
X9802087Y-15783508D02*
X9821134Y-15773984D01*
X9973515Y-15954936D02*
X9983039Y-15964460D01*
X9983039Y-15964460D02*
X9973515Y-15973984D01*
X9973515Y-15973984D02*
X9963991Y-15964460D01*
X9963991Y-15964460D02*
X9973515Y-15954936D01*
X9973515Y-15954936D02*
X9973515Y-15973984D01*
X10049706Y-15773984D02*
X10173515Y-15773984D01*
X10173515Y-15773984D02*
X10106848Y-15850174D01*
X10106848Y-15850174D02*
X10135420Y-15850174D01*
X10135420Y-15850174D02*
X10154468Y-15859698D01*
X10154468Y-15859698D02*
X10163991Y-15869222D01*
X10163991Y-15869222D02*
X10173515Y-15888269D01*
X10173515Y-15888269D02*
X10173515Y-15935888D01*
X10173515Y-15935888D02*
X10163991Y-15954936D01*
X10163991Y-15954936D02*
X10154468Y-15964460D01*
X10154468Y-15964460D02*
X10135420Y-15973984D01*
X10135420Y-15973984D02*
X10078277Y-15973984D01*
X10078277Y-15973984D02*
X10059229Y-15964460D01*
X10059229Y-15964460D02*
X10049706Y-15954936D01*
X10240182Y-15773984D02*
X10363991Y-15773984D01*
X10363991Y-15773984D02*
X10297325Y-15850174D01*
X10297325Y-15850174D02*
X10325896Y-15850174D01*
X10325896Y-15850174D02*
X10344944Y-15859698D01*
X10344944Y-15859698D02*
X10354468Y-15869222D01*
X10354468Y-15869222D02*
X10363991Y-15888269D01*
X10363991Y-15888269D02*
X10363991Y-15935888D01*
X10363991Y-15935888D02*
X10354468Y-15954936D01*
X10354468Y-15954936D02*
X10344944Y-15964460D01*
X10344944Y-15964460D02*
X10325896Y-15973984D01*
X10325896Y-15973984D02*
X10268753Y-15973984D01*
X10268753Y-15973984D02*
X10249706Y-15964460D01*
X10249706Y-15964460D02*
X10240182Y-15954936D01*
X10487801Y-15773984D02*
X10506849Y-15773984D01*
X10506849Y-15773984D02*
X10525896Y-15783508D01*
X10525896Y-15783508D02*
X10535420Y-15793031D01*
X10535420Y-15793031D02*
X10544944Y-15812079D01*
X10544944Y-15812079D02*
X10554468Y-15850174D01*
X10554468Y-15850174D02*
X10554468Y-15897793D01*
X10554468Y-15897793D02*
X10544944Y-15935888D01*
X10544944Y-15935888D02*
X10535420Y-15954936D01*
X10535420Y-15954936D02*
X10525896Y-15964460D01*
X10525896Y-15964460D02*
X10506849Y-15973984D01*
X10506849Y-15973984D02*
X10487801Y-15973984D01*
X10487801Y-15973984D02*
X10468753Y-15964460D01*
X10468753Y-15964460D02*
X10459229Y-15954936D01*
X10459229Y-15954936D02*
X10449706Y-15935888D01*
X10449706Y-15935888D02*
X10440182Y-15897793D01*
X10440182Y-15897793D02*
X10440182Y-15850174D01*
X10440182Y-15850174D02*
X10449706Y-15812079D01*
X10449706Y-15812079D02*
X10459229Y-15793031D01*
X10459229Y-15793031D02*
X10468753Y-15783508D01*
X10468753Y-15783508D02*
X10487801Y-15773984D01*
X10621134Y-15773984D02*
X10754468Y-15773984D01*
X10754468Y-15773984D02*
X10668753Y-15973984D01*
X10821134Y-15773984D02*
X10821134Y-15812079D01*
X10897325Y-15773984D02*
X10897325Y-15812079D01*
X11192563Y-16050174D02*
X11183039Y-16040650D01*
X11183039Y-16040650D02*
X11163991Y-16012079D01*
X11163991Y-16012079D02*
X11154468Y-15993031D01*
X11154468Y-15993031D02*
X11144944Y-15964460D01*
X11144944Y-15964460D02*
X11135420Y-15916841D01*
X11135420Y-15916841D02*
X11135420Y-15878746D01*
X11135420Y-15878746D02*
X11144944Y-15831127D01*
X11144944Y-15831127D02*
X11154468Y-15802555D01*
X11154468Y-15802555D02*
X11163991Y-15783508D01*
X11163991Y-15783508D02*
X11183039Y-15754936D01*
X11183039Y-15754936D02*
X11192563Y-15745412D01*
X11373515Y-15973984D02*
X11259229Y-15973984D01*
X11316372Y-15973984D02*
X11316372Y-15773984D01*
X11316372Y-15773984D02*
X11297325Y-15802555D01*
X11297325Y-15802555D02*
X11278277Y-15821603D01*
X11278277Y-15821603D02*
X11259229Y-15831127D01*
X11611610Y-15973984D02*
X11611610Y-15773984D01*
X11697325Y-15973984D02*
X11697325Y-15869222D01*
X11697325Y-15869222D02*
X11687801Y-15850174D01*
X11687801Y-15850174D02*
X11668753Y-15840650D01*
X11668753Y-15840650D02*
X11640182Y-15840650D01*
X11640182Y-15840650D02*
X11621134Y-15850174D01*
X11621134Y-15850174D02*
X11611610Y-15859698D01*
X11821134Y-15973984D02*
X11802087Y-15964460D01*
X11802087Y-15964460D02*
X11792563Y-15954936D01*
X11792563Y-15954936D02*
X11783039Y-15935888D01*
X11783039Y-15935888D02*
X11783039Y-15878746D01*
X11783039Y-15878746D02*
X11792563Y-15859698D01*
X11792563Y-15859698D02*
X11802087Y-15850174D01*
X11802087Y-15850174D02*
X11821134Y-15840650D01*
X11821134Y-15840650D02*
X11849706Y-15840650D01*
X11849706Y-15840650D02*
X11868753Y-15850174D01*
X11868753Y-15850174D02*
X11878277Y-15859698D01*
X11878277Y-15859698D02*
X11887801Y-15878746D01*
X11887801Y-15878746D02*
X11887801Y-15935888D01*
X11887801Y-15935888D02*
X11878277Y-15954936D01*
X11878277Y-15954936D02*
X11868753Y-15964460D01*
X11868753Y-15964460D02*
X11849706Y-15973984D01*
X11849706Y-15973984D02*
X11821134Y-15973984D01*
X12002087Y-15973984D02*
X11983039Y-15964460D01*
X11983039Y-15964460D02*
X11973515Y-15945412D01*
X11973515Y-15945412D02*
X11973515Y-15773984D01*
X12154468Y-15964460D02*
X12135420Y-15973984D01*
X12135420Y-15973984D02*
X12097325Y-15973984D01*
X12097325Y-15973984D02*
X12078277Y-15964460D01*
X12078277Y-15964460D02*
X12068753Y-15945412D01*
X12068753Y-15945412D02*
X12068753Y-15869222D01*
X12068753Y-15869222D02*
X12078277Y-15850174D01*
X12078277Y-15850174D02*
X12097325Y-15840650D01*
X12097325Y-15840650D02*
X12135420Y-15840650D01*
X12135420Y-15840650D02*
X12154468Y-15850174D01*
X12154468Y-15850174D02*
X12163991Y-15869222D01*
X12163991Y-15869222D02*
X12163991Y-15888269D01*
X12163991Y-15888269D02*
X12068753Y-15907317D01*
X12230658Y-16050174D02*
X12240182Y-16040650D01*
X12240182Y-16040650D02*
X12259230Y-16012079D01*
X12259230Y-16012079D02*
X12268753Y-15993031D01*
X12268753Y-15993031D02*
X12278277Y-15964460D01*
X12278277Y-15964460D02*
X12287801Y-15916841D01*
X12287801Y-15916841D02*
X12287801Y-15878746D01*
X12287801Y-15878746D02*
X12278277Y-15831127D01*
X12278277Y-15831127D02*
X12268753Y-15802555D01*
X12268753Y-15802555D02*
X12259230Y-15783508D01*
X12259230Y-15783508D02*
X12240182Y-15754936D01*
X12240182Y-15754936D02*
X12230658Y-15745412D01*
M02*
