G04 #@! TF.GenerationSoftware,KiCad,Pcbnew,8.0.3*
G04 #@! TF.CreationDate,2024-07-12T23:03:37-04:00*
G04 #@! TF.ProjectId,pcb_ruler,7063625f-7275-46c6-9572-2e6b69636164,rev?*
G04 #@! TF.SameCoordinates,Original*
G04 #@! TF.FileFunction,Copper,L2,Bot*
G04 #@! TF.FilePolarity,Positive*
%FSLAX46Y46*%
G04 Gerber Fmt 4.6, Leading zero omitted, Abs format (unit mm)*
G04 Created by KiCad (PCBNEW 8.0.3) date 2024-07-12 23:03:37*
%MOMM*%
%LPD*%
G01*
G04 APERTURE LIST*
G04 #@! TA.AperFunction,ComponentPad*
%ADD10C,9.400000*%
G04 #@! TD*
G04 APERTURE END LIST*
D10*
X365760000Y-139700000D03*
G04 #@! TA.AperFunction,Conductor*
G36*
X380996632Y-127003368D02*
G01*
X381000000Y-127011500D01*
X381000000Y-152388500D01*
X380996632Y-152396632D01*
X380988500Y-152400000D01*
X76211500Y-152400000D01*
X76203368Y-152396632D01*
X76200000Y-152388500D01*
X76200000Y-139700000D01*
X360958501Y-139700000D01*
X360962497Y-139895867D01*
X360974477Y-140091360D01*
X360994422Y-140286227D01*
X361022299Y-140480123D01*
X361058064Y-140672724D01*
X361101655Y-140863708D01*
X361152994Y-141052736D01*
X361212008Y-141239533D01*
X361278581Y-141423740D01*
X361333012Y-141557068D01*
X361352624Y-141605107D01*
X361433999Y-141783292D01*
X361522574Y-141958010D01*
X361618201Y-142128970D01*
X361720722Y-142295886D01*
X361829966Y-142458482D01*
X361829971Y-142458489D01*
X361945748Y-142616484D01*
X362067883Y-142769636D01*
X362067885Y-142769638D01*
X362196164Y-142917680D01*
X362330374Y-143060366D01*
X362330380Y-143060372D01*
X362330383Y-143060375D01*
X362470276Y-143197443D01*
X362470284Y-143197450D01*
X362470293Y-143197459D01*
X362615687Y-143328731D01*
X362688395Y-143389180D01*
X362766323Y-143453971D01*
X362921908Y-143572935D01*
X363082275Y-143685497D01*
X363236319Y-143784494D01*
X363247049Y-143791390D01*
X363416022Y-143890485D01*
X363588897Y-143982605D01*
X363765385Y-144067597D01*
X363945193Y-144145320D01*
X363945196Y-144145321D01*
X364128016Y-144215642D01*
X364128022Y-144215644D01*
X364313567Y-144278452D01*
X364501519Y-144333640D01*
X364691549Y-144381111D01*
X364691554Y-144381112D01*
X364691566Y-144381115D01*
X364883391Y-144420800D01*
X365076675Y-144452627D01*
X365271097Y-144476543D01*
X365466332Y-144492510D01*
X365466337Y-144492510D01*
X365466347Y-144492511D01*
X365662045Y-144500500D01*
X365662056Y-144500500D01*
X365857955Y-144500500D01*
X366053652Y-144492511D01*
X366053660Y-144492510D01*
X366053668Y-144492510D01*
X366248903Y-144476543D01*
X366443325Y-144452627D01*
X366636609Y-144420800D01*
X366828434Y-144381115D01*
X367018481Y-144333640D01*
X367206433Y-144278452D01*
X367391978Y-144215644D01*
X367574807Y-144145320D01*
X367754615Y-144067597D01*
X367931103Y-143982605D01*
X368103978Y-143890485D01*
X368272951Y-143791390D01*
X368375793Y-143725296D01*
X368437724Y-143685497D01*
X368437731Y-143685491D01*
X368437742Y-143685485D01*
X368598075Y-143572947D01*
X368753686Y-143453963D01*
X368904313Y-143328731D01*
X369049707Y-143197459D01*
X369189626Y-143060366D01*
X369323836Y-142917680D01*
X369452115Y-142769638D01*
X369574249Y-142616487D01*
X369690034Y-142458482D01*
X369799278Y-142295886D01*
X369901799Y-142128970D01*
X369997426Y-141958010D01*
X370086001Y-141783292D01*
X370167376Y-141605107D01*
X370241414Y-141423751D01*
X370307994Y-141239526D01*
X370367005Y-141052739D01*
X370418347Y-140863700D01*
X370461936Y-140672724D01*
X370497699Y-140480129D01*
X370525577Y-140286236D01*
X370545522Y-140091367D01*
X370557503Y-139895846D01*
X370561499Y-139700000D01*
X370557503Y-139504154D01*
X370545522Y-139308633D01*
X370525577Y-139113764D01*
X370497699Y-138919871D01*
X370461936Y-138727276D01*
X370418347Y-138536300D01*
X370367005Y-138347261D01*
X370307994Y-138160474D01*
X370241414Y-137976249D01*
X370167376Y-137794893D01*
X370086001Y-137616708D01*
X369997426Y-137441990D01*
X369901799Y-137271030D01*
X369799278Y-137104114D01*
X369690034Y-136941518D01*
X369666314Y-136909149D01*
X369574251Y-136783515D01*
X369452116Y-136630363D01*
X369432353Y-136607555D01*
X369323836Y-136482320D01*
X369189626Y-136339634D01*
X369189616Y-136339624D01*
X369049723Y-136202556D01*
X369049714Y-136202548D01*
X369049707Y-136202541D01*
X368904313Y-136071269D01*
X368856999Y-136031931D01*
X368753676Y-135946028D01*
X368598091Y-135827064D01*
X368437724Y-135714502D01*
X368272967Y-135608620D01*
X368272961Y-135608617D01*
X368272951Y-135608610D01*
X368103978Y-135509515D01*
X368103976Y-135509513D01*
X368103971Y-135509511D01*
X368040666Y-135475778D01*
X367931103Y-135417395D01*
X367842859Y-135374899D01*
X367754614Y-135332402D01*
X367574803Y-135254678D01*
X367391983Y-135184357D01*
X367206428Y-135121546D01*
X367018480Y-135066359D01*
X366828450Y-135018888D01*
X366636590Y-134979196D01*
X366443332Y-134947374D01*
X366443328Y-134947373D01*
X366443325Y-134947373D01*
X366400524Y-134942108D01*
X366248907Y-134923457D01*
X366053652Y-134907488D01*
X365857955Y-134899500D01*
X365857944Y-134899500D01*
X365662056Y-134899500D01*
X365662045Y-134899500D01*
X365466347Y-134907488D01*
X365271092Y-134923457D01*
X365076667Y-134947374D01*
X364883409Y-134979196D01*
X364691549Y-135018888D01*
X364501519Y-135066359D01*
X364313571Y-135121546D01*
X364128016Y-135184357D01*
X363945196Y-135254678D01*
X363765385Y-135332402D01*
X363588895Y-135417396D01*
X363416028Y-135509511D01*
X363247032Y-135608620D01*
X363082275Y-135714502D01*
X362921908Y-135827064D01*
X362766323Y-135946028D01*
X362615696Y-136071261D01*
X362470276Y-136202556D01*
X362330383Y-136339624D01*
X362196162Y-136482322D01*
X362067883Y-136630363D01*
X361945748Y-136783515D01*
X361829971Y-136941510D01*
X361720720Y-137104117D01*
X361618206Y-137271021D01*
X361522568Y-137442001D01*
X361434002Y-137616701D01*
X361352625Y-137794890D01*
X361278581Y-137976259D01*
X361212008Y-138160466D01*
X361152994Y-138347263D01*
X361101655Y-138536291D01*
X361058064Y-138727275D01*
X361022299Y-138919876D01*
X360994422Y-139113772D01*
X360974477Y-139308639D01*
X360962497Y-139504132D01*
X360958501Y-139700000D01*
X76200000Y-139700000D01*
X76200000Y-127011500D01*
X76203368Y-127003368D01*
X76211500Y-127000000D01*
X380988500Y-127000000D01*
X380996632Y-127003368D01*
G37*
G04 #@! TD.AperFunction*
M02*
