%TF.GenerationSoftware,KiCad,Pcbnew,8.0.3*%
%TF.CreationDate,2024-07-12T23:04:24-04:00*%
%TF.ProjectId,pcb_ruler,7063625f-7275-46c6-9572-2e6b69636164,rev?*%
%TF.SameCoordinates,Original*%
%TF.FileFunction,Drillmap*%
%TF.FilePolarity,Positive*%
%FSLAX45Y45*%
G04 Gerber Fmt 4.5, Leading zero omitted, Abs format (unit mm)*
G04 Created by KiCad (PCBNEW 8.0.3) date 2024-07-12 23:04:24*
%MOMM*%
%LPD*%
G01*
G04 APERTURE LIST*
%ADD10C,0.050000*%
%ADD11C,0.200000*%
G04 APERTURE END LIST*
D10*
X7620000Y-12700000D02*
X38100000Y-12700000D01*
X38100000Y-15240000D01*
X7620000Y-15240000D01*
X7620000Y-12700000D01*
D11*
X7878277Y-15553984D02*
X7878277Y-15353984D01*
X7878277Y-15353984D02*
X7925896Y-15353984D01*
X7925896Y-15353984D02*
X7954467Y-15363508D01*
X7954467Y-15363508D02*
X7973515Y-15382555D01*
X7973515Y-15382555D02*
X7983039Y-15401603D01*
X7983039Y-15401603D02*
X7992562Y-15439698D01*
X7992562Y-15439698D02*
X7992562Y-15468269D01*
X7992562Y-15468269D02*
X7983039Y-15506365D01*
X7983039Y-15506365D02*
X7973515Y-15525412D01*
X7973515Y-15525412D02*
X7954467Y-15544460D01*
X7954467Y-15544460D02*
X7925896Y-15553984D01*
X7925896Y-15553984D02*
X7878277Y-15553984D01*
X8078277Y-15553984D02*
X8078277Y-15420650D01*
X8078277Y-15458746D02*
X8087801Y-15439698D01*
X8087801Y-15439698D02*
X8097324Y-15430174D01*
X8097324Y-15430174D02*
X8116372Y-15420650D01*
X8116372Y-15420650D02*
X8135420Y-15420650D01*
X8202086Y-15553984D02*
X8202086Y-15420650D01*
X8202086Y-15353984D02*
X8192562Y-15363508D01*
X8192562Y-15363508D02*
X8202086Y-15373031D01*
X8202086Y-15373031D02*
X8211610Y-15363508D01*
X8211610Y-15363508D02*
X8202086Y-15353984D01*
X8202086Y-15353984D02*
X8202086Y-15373031D01*
X8325896Y-15553984D02*
X8306848Y-15544460D01*
X8306848Y-15544460D02*
X8297324Y-15525412D01*
X8297324Y-15525412D02*
X8297324Y-15353984D01*
X8430658Y-15553984D02*
X8411610Y-15544460D01*
X8411610Y-15544460D02*
X8402086Y-15525412D01*
X8402086Y-15525412D02*
X8402086Y-15353984D01*
X8659229Y-15553984D02*
X8659229Y-15353984D01*
X8659229Y-15353984D02*
X8725896Y-15496841D01*
X8725896Y-15496841D02*
X8792563Y-15353984D01*
X8792563Y-15353984D02*
X8792563Y-15553984D01*
X8973515Y-15553984D02*
X8973515Y-15449222D01*
X8973515Y-15449222D02*
X8963991Y-15430174D01*
X8963991Y-15430174D02*
X8944944Y-15420650D01*
X8944944Y-15420650D02*
X8906848Y-15420650D01*
X8906848Y-15420650D02*
X8887801Y-15430174D01*
X8973515Y-15544460D02*
X8954467Y-15553984D01*
X8954467Y-15553984D02*
X8906848Y-15553984D01*
X8906848Y-15553984D02*
X8887801Y-15544460D01*
X8887801Y-15544460D02*
X8878277Y-15525412D01*
X8878277Y-15525412D02*
X8878277Y-15506365D01*
X8878277Y-15506365D02*
X8887801Y-15487317D01*
X8887801Y-15487317D02*
X8906848Y-15477793D01*
X8906848Y-15477793D02*
X8954467Y-15477793D01*
X8954467Y-15477793D02*
X8973515Y-15468269D01*
X9068753Y-15420650D02*
X9068753Y-15620650D01*
X9068753Y-15430174D02*
X9087801Y-15420650D01*
X9087801Y-15420650D02*
X9125896Y-15420650D01*
X9125896Y-15420650D02*
X9144944Y-15430174D01*
X9144944Y-15430174D02*
X9154467Y-15439698D01*
X9154467Y-15439698D02*
X9163991Y-15458746D01*
X9163991Y-15458746D02*
X9163991Y-15515888D01*
X9163991Y-15515888D02*
X9154467Y-15534936D01*
X9154467Y-15534936D02*
X9144944Y-15544460D01*
X9144944Y-15544460D02*
X9125896Y-15553984D01*
X9125896Y-15553984D02*
X9087801Y-15553984D01*
X9087801Y-15553984D02*
X9068753Y-15544460D01*
X9249705Y-15534936D02*
X9259229Y-15544460D01*
X9259229Y-15544460D02*
X9249705Y-15553984D01*
X9249705Y-15553984D02*
X9240182Y-15544460D01*
X9240182Y-15544460D02*
X9249705Y-15534936D01*
X9249705Y-15534936D02*
X9249705Y-15553984D01*
X9249705Y-15430174D02*
X9259229Y-15439698D01*
X9259229Y-15439698D02*
X9249705Y-15449222D01*
X9249705Y-15449222D02*
X9240182Y-15439698D01*
X9240182Y-15439698D02*
X9249705Y-15430174D01*
X9249705Y-15430174D02*
X9249705Y-15449222D01*
M02*
