G04 #@! TF.GenerationSoftware,KiCad,Pcbnew,8.0.3*
G04 #@! TF.CreationDate,2024-07-12T23:03:38-04:00*
G04 #@! TF.ProjectId,pcb_ruler,7063625f-7275-46c6-9572-2e6b69636164,rev?*
G04 #@! TF.SameCoordinates,Original*
G04 #@! TF.FileFunction,Soldermask,Bot*
G04 #@! TF.FilePolarity,Negative*
%FSLAX46Y46*%
G04 Gerber Fmt 4.6, Leading zero omitted, Abs format (unit mm)*
G04 Created by KiCad (PCBNEW 8.0.3) date 2024-07-12 23:03:38*
%MOMM*%
%LPD*%
G01*
G04 APERTURE LIST*
%ADD10C,0.100000*%
%ADD11C,0.423333*%
%ADD12C,0.000000*%
%ADD13C,0.150000*%
%ADD14C,9.400000*%
G04 APERTURE END LIST*
D10*
X137070042Y-142621000D02*
X139356042Y-141986000D01*
X141642042Y-142621000D01*
X142023042Y-138430000D01*
X142404042Y-138430000D01*
X142023042Y-143256000D01*
X139356042Y-142494000D01*
X136689042Y-143256000D01*
X136308042Y-138430000D01*
X136689042Y-138430000D01*
X137070042Y-142621000D01*
G36*
X137070042Y-142621000D02*
G01*
X139356042Y-141986000D01*
X141642042Y-142621000D01*
X142023042Y-138430000D01*
X142404042Y-138430000D01*
X142023042Y-143256000D01*
X139356042Y-142494000D01*
X136689042Y-143256000D01*
X136308042Y-138430000D01*
X136689042Y-138430000D01*
X137070042Y-142621000D01*
G37*
D11*
X156626127Y-139373367D02*
X156929722Y-139861806D01*
X154722081Y-138920294D02*
X154642741Y-138952112D01*
D12*
G36*
X108114042Y-141853708D02*
G01*
X107373209Y-141107583D01*
X107373209Y-138303000D01*
X108114042Y-138303000D01*
X108114042Y-141853708D01*
G37*
D11*
X152147283Y-135957443D02*
X152277078Y-135969250D01*
D12*
G36*
X112717792Y-139239625D02*
G01*
X111982250Y-139985750D01*
X111982250Y-138303000D01*
X112717792Y-138303000D01*
X112717792Y-139239625D01*
G37*
D11*
X153215319Y-136255252D02*
X153413124Y-136355185D01*
X150009590Y-136467742D02*
X149691787Y-136059289D01*
X155067735Y-138488506D02*
X155043093Y-138556830D01*
X151272240Y-137739709D02*
X150964230Y-137472947D01*
X154642741Y-138952112D02*
X154552725Y-138978925D01*
X152277078Y-135969250D02*
X152407562Y-135987085D01*
X154893796Y-138791883D02*
X154843738Y-138842156D01*
X151894755Y-135951407D02*
X152019426Y-135951539D01*
X154110869Y-139033567D02*
X153986198Y-139033435D01*
X150992235Y-136363858D02*
X151027013Y-136303397D01*
D12*
G36*
X115665250Y-136149291D02*
G01*
X115681125Y-136149291D01*
X116384917Y-133482292D01*
X117295083Y-133482292D01*
X118004167Y-136149291D01*
X118014751Y-136149291D01*
X118014751Y-133482292D01*
X119141875Y-133482292D01*
X119141875Y-137736791D01*
X117512042Y-137736791D01*
X116855875Y-135355541D01*
X116845291Y-135355541D01*
X116189125Y-137736791D01*
X114575167Y-137736791D01*
X114575167Y-133482292D01*
X115665250Y-133482292D01*
X115665250Y-136149291D01*
G37*
G36*
X121114077Y-133389043D02*
G01*
X121205518Y-133394992D01*
X121294689Y-133404805D01*
X121381542Y-133418399D01*
X121466026Y-133435690D01*
X121548094Y-133456596D01*
X121627694Y-133481032D01*
X121704778Y-133508915D01*
X121779296Y-133540163D01*
X121851199Y-133574692D01*
X121920438Y-133612418D01*
X121986962Y-133653258D01*
X122050724Y-133697129D01*
X122111672Y-133743947D01*
X122169758Y-133793630D01*
X122224933Y-133846094D01*
X122277146Y-133901255D01*
X122326349Y-133959030D01*
X122372492Y-134019336D01*
X122415526Y-134082090D01*
X122455401Y-134147207D01*
X122492068Y-134214606D01*
X122525477Y-134284202D01*
X122555579Y-134355913D01*
X122582325Y-134429654D01*
X122605666Y-134505343D01*
X122625550Y-134582896D01*
X122641931Y-134662230D01*
X122654757Y-134743261D01*
X122663980Y-134825907D01*
X122669550Y-134910084D01*
X122671417Y-134995708D01*
X122669550Y-135081813D01*
X122663980Y-135166440D01*
X122654757Y-135249508D01*
X122641931Y-135330933D01*
X122625550Y-135410634D01*
X122605666Y-135488527D01*
X122582325Y-135564531D01*
X122555579Y-135638563D01*
X122525477Y-135710541D01*
X122492068Y-135780383D01*
X122455401Y-135848005D01*
X122415526Y-135913327D01*
X122372492Y-135976265D01*
X122326349Y-136036736D01*
X122277146Y-136094660D01*
X122224933Y-136149953D01*
X122169758Y-136202533D01*
X122111672Y-136252318D01*
X122050724Y-136299225D01*
X121986962Y-136343171D01*
X121920438Y-136384076D01*
X121851199Y-136421855D01*
X121779296Y-136456427D01*
X121704778Y-136487710D01*
X121627694Y-136515621D01*
X121548094Y-136540078D01*
X121466026Y-136560998D01*
X121381542Y-136578299D01*
X121294689Y-136591899D01*
X121205518Y-136601715D01*
X121114077Y-136607665D01*
X121020416Y-136609667D01*
X120926710Y-136607650D01*
X120835137Y-136601657D01*
X120745751Y-136591772D01*
X120658609Y-136578082D01*
X120573765Y-136560671D01*
X120491274Y-136539624D01*
X120411192Y-136515028D01*
X120333575Y-136486966D01*
X120258476Y-136455525D01*
X120185952Y-136420789D01*
X120116057Y-136382844D01*
X120048848Y-136341776D01*
X119984378Y-136297669D01*
X119922704Y-136250608D01*
X119863881Y-136200680D01*
X119807963Y-136147968D01*
X119755007Y-136092560D01*
X119705067Y-136034539D01*
X119658198Y-135973991D01*
X119614456Y-135911001D01*
X119573896Y-135845655D01*
X119536573Y-135778037D01*
X119502543Y-135708234D01*
X119471860Y-135636330D01*
X119444580Y-135562411D01*
X119420758Y-135486562D01*
X119400450Y-135408867D01*
X119383710Y-135329414D01*
X119370594Y-135248285D01*
X119361158Y-135165568D01*
X119355455Y-135081347D01*
X119353542Y-134995708D01*
X120496541Y-134995708D01*
X120498527Y-135089923D01*
X120501010Y-135135463D01*
X120504489Y-135179914D01*
X120508963Y-135223245D01*
X120514435Y-135265424D01*
X120520905Y-135306419D01*
X120528374Y-135346198D01*
X120536842Y-135384729D01*
X120546312Y-135421981D01*
X120556783Y-135457920D01*
X120568257Y-135492515D01*
X120580735Y-135525734D01*
X120594218Y-135557546D01*
X120608707Y-135587918D01*
X120624202Y-135616817D01*
X120640705Y-135644214D01*
X120658217Y-135670074D01*
X120676738Y-135694367D01*
X120696270Y-135717059D01*
X120716814Y-135738121D01*
X120738370Y-135757518D01*
X120760939Y-135775220D01*
X120784523Y-135791194D01*
X120809123Y-135805409D01*
X120834739Y-135817832D01*
X120861372Y-135828432D01*
X120889024Y-135837176D01*
X120917694Y-135844033D01*
X120947386Y-135848970D01*
X120978098Y-135851956D01*
X121009833Y-135852958D01*
X121041598Y-135851956D01*
X121072399Y-135848970D01*
X121102233Y-135844033D01*
X121131097Y-135837176D01*
X121158988Y-135828432D01*
X121185903Y-135817832D01*
X121211840Y-135805409D01*
X121236795Y-135791194D01*
X121260766Y-135775220D01*
X121283750Y-135757518D01*
X121305743Y-135738121D01*
X121326743Y-135717059D01*
X121346747Y-135694367D01*
X121365752Y-135670074D01*
X121400754Y-135616817D01*
X121431725Y-135557546D01*
X121458642Y-135492515D01*
X121481481Y-135421981D01*
X121500221Y-135346198D01*
X121514836Y-135265424D01*
X121525304Y-135179914D01*
X121531602Y-135089923D01*
X121533707Y-134995708D01*
X121533180Y-134948088D01*
X121531602Y-134901493D01*
X121528976Y-134855953D01*
X121525304Y-134811502D01*
X121520590Y-134768171D01*
X121514836Y-134725992D01*
X121508045Y-134684997D01*
X121500221Y-134645218D01*
X121491365Y-134606687D01*
X121481481Y-134569436D01*
X121470573Y-134533497D01*
X121458642Y-134498901D01*
X121445691Y-134465682D01*
X121431725Y-134433871D01*
X121416745Y-134403499D01*
X121400754Y-134374599D01*
X121383755Y-134347203D01*
X121365752Y-134321343D01*
X121346747Y-134297050D01*
X121326743Y-134274357D01*
X121305743Y-134253296D01*
X121283750Y-134233898D01*
X121260766Y-134216196D01*
X121236795Y-134200222D01*
X121211840Y-134186007D01*
X121185903Y-134173584D01*
X121158988Y-134162985D01*
X121131097Y-134154240D01*
X121102233Y-134147384D01*
X121072399Y-134142447D01*
X121041598Y-134139461D01*
X121009833Y-134138458D01*
X120978098Y-134139461D01*
X120947386Y-134142447D01*
X120917694Y-134147384D01*
X120889024Y-134154240D01*
X120861372Y-134162985D01*
X120834739Y-134173584D01*
X120809123Y-134186007D01*
X120784523Y-134200222D01*
X120760939Y-134216196D01*
X120738370Y-134233898D01*
X120716814Y-134253296D01*
X120696270Y-134274357D01*
X120676738Y-134297050D01*
X120658217Y-134321343D01*
X120624202Y-134374599D01*
X120594218Y-134433871D01*
X120568257Y-134498901D01*
X120546312Y-134569436D01*
X120528374Y-134645218D01*
X120514435Y-134725992D01*
X120504489Y-134811502D01*
X120498527Y-134901493D01*
X120496541Y-134995708D01*
X119353542Y-134995708D01*
X119355455Y-134910084D01*
X119361158Y-134825907D01*
X119370594Y-134743261D01*
X119383710Y-134662230D01*
X119400450Y-134582896D01*
X119420758Y-134505343D01*
X119444580Y-134429654D01*
X119471860Y-134355913D01*
X119502543Y-134284202D01*
X119536573Y-134214606D01*
X119573896Y-134147207D01*
X119614456Y-134082090D01*
X119658198Y-134019336D01*
X119705067Y-133959030D01*
X119755007Y-133901255D01*
X119807963Y-133846094D01*
X119863881Y-133793630D01*
X119922704Y-133743947D01*
X119984378Y-133697129D01*
X120048848Y-133653258D01*
X120116057Y-133612418D01*
X120185952Y-133574692D01*
X120258476Y-133540163D01*
X120333575Y-133508915D01*
X120411192Y-133481032D01*
X120491274Y-133456596D01*
X120573765Y-133435690D01*
X120658609Y-133418399D01*
X120745751Y-133404805D01*
X120835137Y-133394992D01*
X120926710Y-133389043D01*
X121020416Y-133387042D01*
X121114077Y-133389043D01*
G37*
D11*
X155115876Y-138170534D02*
X155111384Y-138257157D01*
X152911425Y-136121278D02*
X153215319Y-136255252D01*
X153964728Y-134592451D02*
X154166764Y-135079936D01*
X154657149Y-136323745D02*
X154781765Y-136671181D01*
X155115356Y-138078802D02*
X155115876Y-138170534D01*
D12*
G36*
X113215209Y-134588250D02*
G01*
X105034292Y-134588250D01*
X105034292Y-133482292D01*
X113215209Y-133482292D01*
X113215209Y-134588250D01*
G37*
G36*
X113215209Y-142123583D02*
G01*
X110257167Y-142123583D01*
X113215209Y-139123208D01*
X113215209Y-142123583D01*
G37*
D11*
X153468137Y-138973897D02*
X153340019Y-138943619D01*
X151774518Y-135956920D02*
X151894755Y-135951407D01*
D12*
G36*
X157695070Y-136195117D02*
G01*
X158132252Y-136671367D01*
X159740395Y-136673823D01*
X159832000Y-136195117D01*
X160234761Y-136195117D01*
X159771016Y-138459062D01*
X159368354Y-138463299D01*
X158053702Y-137094701D01*
X158523857Y-137094701D01*
X159472695Y-138048838D01*
X159661577Y-137084320D01*
X158523857Y-137094701D01*
X158053702Y-137094701D01*
X157189360Y-136194891D01*
X157695070Y-136195117D01*
G37*
G36*
X124539375Y-142123583D02*
G01*
X123660957Y-142123583D01*
X123660957Y-141462125D01*
X124539375Y-141462125D01*
X124539375Y-142123583D01*
G37*
D11*
X151027013Y-136303397D02*
X151066873Y-136246546D01*
D12*
G36*
X107193292Y-140922375D02*
G01*
X106452459Y-140170958D01*
X106452459Y-138303000D01*
X107193292Y-138303000D01*
X107193292Y-140922375D01*
G37*
D11*
X156313837Y-138925684D02*
X156626127Y-139373367D01*
X150894240Y-136727817D02*
X150903754Y-136646090D01*
D12*
G36*
X111797042Y-140170958D02*
G01*
X111061501Y-140922375D01*
X111061501Y-138303000D01*
X111797042Y-138303000D01*
X111797042Y-140170958D01*
G37*
D11*
X155037935Y-137535985D02*
X155063361Y-137656483D01*
X153884533Y-136628564D02*
X154151769Y-136805057D01*
X154938750Y-138738428D02*
X154893796Y-138791883D01*
X151223859Y-138313793D02*
X151118802Y-137997084D01*
X150998066Y-137575883D02*
X150967689Y-137448989D01*
D12*
G36*
X128307041Y-139456583D02*
G01*
X128492249Y-139657666D01*
X128963208Y-138805708D01*
X129958042Y-138805708D01*
X129074332Y-140297958D01*
X129862792Y-141171083D01*
X128878542Y-141171083D01*
X128307041Y-140467291D01*
X128307041Y-142123583D01*
X127444499Y-142123583D01*
X127444499Y-138805708D01*
X128307041Y-138805708D01*
X128307041Y-139456583D01*
G37*
D11*
X152019426Y-135951539D02*
X152147283Y-135957443D01*
D12*
G36*
X118193313Y-138748682D02*
G01*
X118248760Y-138752244D01*
X118302749Y-138758208D01*
X118355234Y-138766599D01*
X118406169Y-138777440D01*
X118455507Y-138790753D01*
X118503202Y-138806562D01*
X118549207Y-138824890D01*
X118593476Y-138845761D01*
X118635961Y-138869198D01*
X118676618Y-138895223D01*
X118715398Y-138923861D01*
X118734071Y-138939167D01*
X118752257Y-138955134D01*
X118769950Y-138971766D01*
X118787146Y-138989066D01*
X118803838Y-139007037D01*
X118820020Y-139025680D01*
X118835686Y-139045000D01*
X118850832Y-139065000D01*
X118861415Y-139065000D01*
X118864573Y-139041798D01*
X118868072Y-139019783D01*
X118871881Y-138998899D01*
X118875968Y-138979093D01*
X118880304Y-138960310D01*
X118884857Y-138942496D01*
X118889596Y-138925596D01*
X118894490Y-138909557D01*
X118899508Y-138894324D01*
X118904619Y-138879843D01*
X118914996Y-138852920D01*
X118925372Y-138828353D01*
X118935501Y-138805709D01*
X119798041Y-138805709D01*
X119798041Y-138842750D01*
X119784822Y-138852371D01*
X119772905Y-138863410D01*
X119762229Y-138875922D01*
X119752731Y-138889961D01*
X119744349Y-138905582D01*
X119737021Y-138922838D01*
X119730685Y-138941784D01*
X119725280Y-138962474D01*
X119720743Y-138984962D01*
X119717012Y-139009303D01*
X119714025Y-139035551D01*
X119711721Y-139063759D01*
X119710036Y-139093984D01*
X119708909Y-139126278D01*
X119708083Y-139197291D01*
X119708083Y-140382625D01*
X119706656Y-140441225D01*
X119702378Y-140497956D01*
X119695246Y-140552812D01*
X119690611Y-140579534D01*
X119685263Y-140605784D01*
X119679201Y-140631562D01*
X119672426Y-140656865D01*
X119664938Y-140681694D01*
X119656737Y-140706047D01*
X119647823Y-140729923D01*
X119638196Y-140753322D01*
X119627856Y-140776242D01*
X119616802Y-140798682D01*
X119605035Y-140820642D01*
X119592555Y-140842120D01*
X119579363Y-140863116D01*
X119565456Y-140883628D01*
X119550837Y-140903656D01*
X119535505Y-140923198D01*
X119519459Y-140942254D01*
X119502701Y-140960822D01*
X119485229Y-140978902D01*
X119467044Y-140996493D01*
X119448146Y-141013594D01*
X119428535Y-141030203D01*
X119408210Y-141046320D01*
X119387173Y-141061944D01*
X119365422Y-141077074D01*
X119342958Y-141091708D01*
X119308586Y-141111804D01*
X119272864Y-141130434D01*
X119235686Y-141147623D01*
X119196941Y-141163394D01*
X119156522Y-141177769D01*
X119114321Y-141190772D01*
X119070228Y-141202426D01*
X119024135Y-141212755D01*
X118975933Y-141221782D01*
X118925515Y-141229529D01*
X118872771Y-141236021D01*
X118817594Y-141241280D01*
X118759874Y-141245330D01*
X118699503Y-141248195D01*
X118636372Y-141249896D01*
X118570374Y-141250458D01*
X118502021Y-141249351D01*
X118435864Y-141246064D01*
X118371899Y-141240652D01*
X118310121Y-141233167D01*
X118250525Y-141223663D01*
X118193106Y-141212193D01*
X118137860Y-141198810D01*
X118084781Y-141183568D01*
X118033865Y-141166520D01*
X117985106Y-141147719D01*
X117938501Y-141127218D01*
X117894044Y-141105072D01*
X117851730Y-141081332D01*
X117811554Y-141056053D01*
X117773512Y-141029287D01*
X117737599Y-141001088D01*
X117703809Y-140971510D01*
X117672139Y-140940605D01*
X117642583Y-140908427D01*
X117615136Y-140875029D01*
X117589794Y-140840464D01*
X117566551Y-140804786D01*
X117545403Y-140768048D01*
X117526345Y-140730304D01*
X117509373Y-140691606D01*
X117494481Y-140652007D01*
X117481664Y-140611562D01*
X117470917Y-140570324D01*
X117462237Y-140528345D01*
X117455617Y-140485679D01*
X117451054Y-140442380D01*
X117448541Y-140398500D01*
X118279332Y-140398500D01*
X118285106Y-140429555D01*
X118292530Y-140459168D01*
X118301645Y-140487262D01*
X118312488Y-140513759D01*
X118318570Y-140526384D01*
X118325098Y-140538582D01*
X118332078Y-140550341D01*
X118339515Y-140561653D01*
X118347412Y-140572507D01*
X118355776Y-140582894D01*
X118364611Y-140592805D01*
X118373921Y-140602229D01*
X118383712Y-140611157D01*
X118393988Y-140619579D01*
X118404755Y-140627486D01*
X118416017Y-140634868D01*
X118427778Y-140641714D01*
X118440045Y-140648017D01*
X118452821Y-140653765D01*
X118466112Y-140658949D01*
X118479922Y-140663559D01*
X118494256Y-140667587D01*
X118509119Y-140671021D01*
X118524516Y-140673852D01*
X118540452Y-140676072D01*
X118556932Y-140677669D01*
X118573960Y-140678634D01*
X118591541Y-140678958D01*
X118609015Y-140678681D01*
X118625727Y-140677856D01*
X118641692Y-140676494D01*
X118656922Y-140674607D01*
X118671431Y-140672204D01*
X118685233Y-140669296D01*
X118698341Y-140665894D01*
X118710769Y-140662008D01*
X118722530Y-140657650D01*
X118733638Y-140652829D01*
X118744107Y-140647557D01*
X118753950Y-140641844D01*
X118763180Y-140635701D01*
X118771812Y-140629138D01*
X118779858Y-140622166D01*
X118787333Y-140614797D01*
X118794249Y-140607039D01*
X118800621Y-140598905D01*
X118806462Y-140590404D01*
X118811786Y-140581548D01*
X118816606Y-140572347D01*
X118820935Y-140562811D01*
X118824788Y-140552952D01*
X118828178Y-140542780D01*
X118831118Y-140532306D01*
X118833622Y-140521540D01*
X118837377Y-140499176D01*
X118839550Y-140475773D01*
X118840250Y-140451416D01*
X118838641Y-140424667D01*
X118833583Y-140399895D01*
X118824727Y-140376967D01*
X118811724Y-140355753D01*
X118794225Y-140336120D01*
X118771882Y-140317936D01*
X118744345Y-140301070D01*
X118711265Y-140285390D01*
X118672295Y-140270765D01*
X118627084Y-140257061D01*
X118575285Y-140244149D01*
X118516548Y-140231895D01*
X118450525Y-140220168D01*
X118376867Y-140208837D01*
X118205249Y-140186833D01*
X118120627Y-140175667D01*
X118037756Y-140161749D01*
X117957148Y-140144685D01*
X117879316Y-140124077D01*
X117804770Y-140099532D01*
X117768889Y-140085660D01*
X117734022Y-140070654D01*
X117700233Y-140054467D01*
X117667584Y-140037048D01*
X117636142Y-140018348D01*
X117605968Y-139998318D01*
X117577128Y-139976908D01*
X117549685Y-139954068D01*
X117523703Y-139929751D01*
X117499246Y-139903905D01*
X117476378Y-139876482D01*
X117455163Y-139847431D01*
X117435665Y-139816705D01*
X117417948Y-139784253D01*
X117402076Y-139750026D01*
X117388113Y-139713975D01*
X117376122Y-139676049D01*
X117366168Y-139636200D01*
X117358315Y-139594379D01*
X117352627Y-139550535D01*
X117349167Y-139504620D01*
X117348771Y-139488333D01*
X118194667Y-139488333D01*
X118195621Y-139513398D01*
X118198574Y-139537044D01*
X118203667Y-139559341D01*
X118211038Y-139580359D01*
X118215622Y-139590410D01*
X118220828Y-139600168D01*
X118226674Y-139609640D01*
X118233176Y-139618837D01*
X118240353Y-139627766D01*
X118248222Y-139636437D01*
X118256800Y-139644857D01*
X118266104Y-139653037D01*
X118286964Y-139668706D01*
X118310939Y-139683515D01*
X118338170Y-139697534D01*
X118368796Y-139710832D01*
X118402956Y-139723478D01*
X118440791Y-139735543D01*
X118482439Y-139747097D01*
X118528041Y-139758208D01*
X118581660Y-139770363D01*
X118631559Y-139783013D01*
X118677985Y-139796160D01*
X118721187Y-139809802D01*
X118761412Y-139823941D01*
X118798908Y-139838576D01*
X118833925Y-139853706D01*
X118866709Y-139869333D01*
X118866709Y-139662958D01*
X118866141Y-139637144D01*
X118864461Y-139612282D01*
X118861703Y-139588361D01*
X118857903Y-139565372D01*
X118853095Y-139543306D01*
X118847314Y-139522153D01*
X118840596Y-139501902D01*
X118832974Y-139482545D01*
X118824484Y-139464072D01*
X118815161Y-139446473D01*
X118805040Y-139429738D01*
X118794155Y-139413857D01*
X118782541Y-139398822D01*
X118770234Y-139384621D01*
X118757268Y-139371246D01*
X118743677Y-139358687D01*
X118729498Y-139346935D01*
X118714765Y-139335978D01*
X118699512Y-139325809D01*
X118683774Y-139316416D01*
X118667587Y-139307791D01*
X118650986Y-139299924D01*
X118634004Y-139292804D01*
X118616678Y-139286423D01*
X118581130Y-139275837D01*
X118544621Y-139268088D01*
X118507429Y-139263099D01*
X118469835Y-139260792D01*
X118443200Y-139261603D01*
X118416990Y-139264058D01*
X118391386Y-139268187D01*
X118378866Y-139270889D01*
X118366564Y-139274021D01*
X118354503Y-139277587D01*
X118342704Y-139281591D01*
X118331190Y-139286038D01*
X118319983Y-139290929D01*
X118309106Y-139296271D01*
X118298580Y-139302066D01*
X118288428Y-139308318D01*
X118278673Y-139315031D01*
X118269336Y-139322210D01*
X118260440Y-139329857D01*
X118252007Y-139337978D01*
X118244060Y-139346575D01*
X118236620Y-139355652D01*
X118229710Y-139365214D01*
X118223353Y-139375265D01*
X118217570Y-139385807D01*
X118212384Y-139396846D01*
X118207818Y-139408385D01*
X118203892Y-139420427D01*
X118200631Y-139432978D01*
X118198055Y-139446039D01*
X118196188Y-139459617D01*
X118195051Y-139473713D01*
X118194667Y-139488333D01*
X117348771Y-139488333D01*
X117347999Y-139456583D01*
X117348969Y-139413579D01*
X117351854Y-139371880D01*
X117356615Y-139331492D01*
X117363212Y-139292417D01*
X117371609Y-139254661D01*
X117381764Y-139218226D01*
X117393641Y-139183116D01*
X117407199Y-139149336D01*
X117422401Y-139116889D01*
X117439208Y-139085779D01*
X117457580Y-139056010D01*
X117477479Y-139027586D01*
X117498867Y-139000511D01*
X117521704Y-138974788D01*
X117545952Y-138950422D01*
X117571572Y-138927416D01*
X117598525Y-138905775D01*
X117626772Y-138885502D01*
X117656276Y-138866600D01*
X117686996Y-138849075D01*
X117718895Y-138832929D01*
X117751933Y-138818167D01*
X117786071Y-138804793D01*
X117821272Y-138792810D01*
X117857496Y-138782222D01*
X117894704Y-138773033D01*
X117971919Y-138758868D01*
X118052606Y-138750347D01*
X118136456Y-138747500D01*
X118193313Y-138748682D01*
G37*
G36*
X110876292Y-141107583D02*
G01*
X110140750Y-141853708D01*
X110140750Y-138303000D01*
X110876292Y-138303000D01*
X110876292Y-141107583D01*
G37*
D11*
X157077264Y-140121784D02*
X157221437Y-140392522D01*
D12*
G36*
X127947206Y-135122707D02*
G01*
X127947716Y-135153227D01*
X127949237Y-135183251D01*
X127951758Y-135212748D01*
X127955268Y-135241687D01*
X127959754Y-135270036D01*
X127965205Y-135297766D01*
X127971610Y-135324844D01*
X127978956Y-135351241D01*
X127987233Y-135376924D01*
X127996428Y-135401863D01*
X128006530Y-135426027D01*
X128017528Y-135449385D01*
X128029409Y-135471905D01*
X128042162Y-135493558D01*
X128055776Y-135514311D01*
X128070238Y-135534134D01*
X128085538Y-135552996D01*
X128101663Y-135570865D01*
X128118602Y-135587712D01*
X128136343Y-135603504D01*
X128154875Y-135618211D01*
X128174185Y-135631802D01*
X128194264Y-135644246D01*
X128215098Y-135655511D01*
X128236676Y-135665568D01*
X128258987Y-135674384D01*
X128282018Y-135681928D01*
X128305759Y-135688171D01*
X128330197Y-135693080D01*
X128355322Y-135696625D01*
X128381121Y-135698775D01*
X128407582Y-135699498D01*
X128434403Y-135698896D01*
X128460299Y-135697103D01*
X128485274Y-135694135D01*
X128509333Y-135690010D01*
X128532482Y-135684746D01*
X128554724Y-135678360D01*
X128576066Y-135670869D01*
X128596511Y-135662291D01*
X128616065Y-135652644D01*
X128634732Y-135641944D01*
X128652518Y-135630209D01*
X128669426Y-135617457D01*
X128685463Y-135603705D01*
X128700632Y-135588970D01*
X128714939Y-135573271D01*
X128728389Y-135556623D01*
X128740986Y-135539046D01*
X128752735Y-135520556D01*
X128763641Y-135501171D01*
X128773709Y-135480907D01*
X128782944Y-135459784D01*
X128791350Y-135437817D01*
X128805697Y-135391424D01*
X128816787Y-135341869D01*
X128824662Y-135289291D01*
X128829358Y-135233829D01*
X128830914Y-135175624D01*
X128830914Y-133487583D01*
X129952750Y-133487583D01*
X129952750Y-135450791D01*
X129951696Y-135515121D01*
X129948537Y-135578103D01*
X129943275Y-135639691D01*
X129935914Y-135699841D01*
X129926455Y-135758506D01*
X129914903Y-135815641D01*
X129901260Y-135871201D01*
X129885529Y-135925140D01*
X129867713Y-135977412D01*
X129847814Y-136027972D01*
X129825836Y-136076774D01*
X129801782Y-136123774D01*
X129775654Y-136168924D01*
X129747456Y-136212180D01*
X129717190Y-136253497D01*
X129684859Y-136292828D01*
X129650466Y-136330128D01*
X129614014Y-136365352D01*
X129575506Y-136398454D01*
X129534945Y-136429388D01*
X129492334Y-136458109D01*
X129447675Y-136484572D01*
X129400972Y-136508730D01*
X129352227Y-136530539D01*
X129301444Y-136549953D01*
X129248625Y-136566926D01*
X129193773Y-136581413D01*
X129136892Y-136593368D01*
X129077983Y-136602745D01*
X129017050Y-136609500D01*
X128954096Y-136613586D01*
X128889124Y-136614958D01*
X128811972Y-136612856D01*
X128737247Y-136606576D01*
X128664893Y-136596157D01*
X128629589Y-136589407D01*
X128594857Y-136581637D01*
X128560692Y-136572852D01*
X128527085Y-136563056D01*
X128494031Y-136552254D01*
X128461522Y-136540451D01*
X128429552Y-136527652D01*
X128398114Y-136513862D01*
X128336806Y-136483328D01*
X128277545Y-136448887D01*
X128220276Y-136410578D01*
X128164945Y-136368440D01*
X128111497Y-136322511D01*
X128059879Y-136272830D01*
X128010036Y-136219437D01*
X127961913Y-136162370D01*
X127915457Y-136101666D01*
X127894289Y-136101666D01*
X127894289Y-136519708D01*
X126825372Y-136519708D01*
X126825372Y-133487583D01*
X127947206Y-133487583D01*
X127947206Y-135122707D01*
G37*
D11*
X152537487Y-136011077D02*
X152665605Y-136041355D01*
X152790306Y-138729722D02*
X152592500Y-138629788D01*
X154231106Y-139028054D02*
X154110869Y-139033567D01*
X153858341Y-139027530D02*
X153728546Y-139015724D01*
X150942262Y-137328491D02*
X150921797Y-137214174D01*
X154513056Y-135943869D02*
X154657149Y-136323745D01*
D10*
X139991042Y-137541000D02*
X139991042Y-141351000D01*
X141413442Y-141732000D01*
X141388042Y-142240000D01*
X139610042Y-141732000D01*
X139610042Y-137668000D01*
X137705042Y-134366000D01*
X135292042Y-138557000D01*
X134911042Y-138176000D01*
X137705042Y-133350000D01*
X139991042Y-137541000D01*
G36*
X139991042Y-137541000D02*
G01*
X139991042Y-141351000D01*
X141413442Y-141732000D01*
X141388042Y-142240000D01*
X139610042Y-141732000D01*
X139610042Y-137668000D01*
X137705042Y-134366000D01*
X135292042Y-138557000D01*
X134911042Y-138176000D01*
X137705042Y-133350000D01*
X139991042Y-137541000D01*
G37*
D11*
X155099322Y-137879148D02*
X155109835Y-137981744D01*
X154818342Y-138863463D02*
X154789496Y-138883600D01*
X151283543Y-136064680D02*
X151362883Y-136032862D01*
X150962531Y-136428144D02*
X150992235Y-136363858D01*
X151187282Y-136121511D02*
X151216128Y-136101374D01*
D12*
G36*
X163349817Y-136570826D02*
G01*
X161662485Y-136588800D01*
X162340384Y-138438798D01*
X161841690Y-138444075D01*
X161020481Y-136204689D01*
X163233400Y-136195117D01*
X163349817Y-136570826D01*
G37*
G36*
X166932061Y-138475826D02*
G01*
X166284467Y-138475826D01*
X164657653Y-136829333D01*
X164341010Y-138463299D01*
X163828429Y-138462470D01*
X164275856Y-136195117D01*
X164731244Y-136189826D01*
X166932061Y-138475826D01*
G37*
D11*
X154972239Y-137275586D02*
X155007557Y-137409091D01*
X150937889Y-136496468D02*
X150962531Y-136428144D01*
D12*
G36*
X121126838Y-138764346D02*
G01*
X121184209Y-138767178D01*
X121240216Y-138771746D01*
X121294921Y-138777927D01*
X121348385Y-138785596D01*
X121400672Y-138794629D01*
X121451842Y-138804902D01*
X121501958Y-138816292D01*
X121501958Y-139461875D01*
X121452551Y-139458267D01*
X121405602Y-139455581D01*
X121361211Y-139454120D01*
X121319478Y-139454186D01*
X121299640Y-139454886D01*
X121280505Y-139456081D01*
X121262085Y-139457809D01*
X121244392Y-139460108D01*
X121227440Y-139463015D01*
X121211240Y-139466569D01*
X121195806Y-139470806D01*
X121181150Y-139475766D01*
X121167285Y-139481485D01*
X121154223Y-139488001D01*
X121141977Y-139495353D01*
X121130559Y-139503578D01*
X121119982Y-139512714D01*
X121110259Y-139522798D01*
X121101402Y-139533868D01*
X121093424Y-139545963D01*
X121086337Y-139559120D01*
X121080155Y-139573376D01*
X121074889Y-139588770D01*
X121070552Y-139605339D01*
X121067157Y-139623121D01*
X121064716Y-139642155D01*
X121063243Y-139662477D01*
X121062749Y-139684125D01*
X121062749Y-140641916D01*
X121512541Y-140641916D01*
X121512541Y-141171083D01*
X121062749Y-141171083D01*
X121062749Y-141938375D01*
X120205499Y-141938375D01*
X120205499Y-141171083D01*
X119893291Y-141171083D01*
X119893291Y-140641916D01*
X120200206Y-140641916D01*
X120200206Y-139493625D01*
X120201059Y-139441714D01*
X120203616Y-139392115D01*
X120207876Y-139344786D01*
X120213838Y-139299683D01*
X120221503Y-139256762D01*
X120230867Y-139215979D01*
X120241931Y-139177291D01*
X120254694Y-139140654D01*
X120269154Y-139106025D01*
X120285311Y-139073360D01*
X120303164Y-139042615D01*
X120322711Y-139013747D01*
X120343952Y-138986712D01*
X120366885Y-138961467D01*
X120391510Y-138937968D01*
X120417827Y-138916172D01*
X120445833Y-138896034D01*
X120475527Y-138877511D01*
X120506910Y-138860560D01*
X120539980Y-138845137D01*
X120574735Y-138831199D01*
X120611176Y-138818701D01*
X120649300Y-138807600D01*
X120689108Y-138797853D01*
X120773768Y-138782246D01*
X120865149Y-138771529D01*
X120963242Y-138765355D01*
X121068041Y-138763375D01*
X121126838Y-138764346D01*
G37*
D11*
X149075902Y-135123168D02*
X148928360Y-134863189D01*
D12*
G36*
X122623793Y-139779375D02*
G01*
X122624674Y-139828596D01*
X122627306Y-139876046D01*
X122631672Y-139921721D01*
X122637756Y-139965617D01*
X122645542Y-140007730D01*
X122655012Y-140048056D01*
X122666151Y-140086592D01*
X122678942Y-140123333D01*
X122693369Y-140158276D01*
X122709414Y-140191417D01*
X122727062Y-140222752D01*
X122746297Y-140252276D01*
X122767101Y-140279987D01*
X122789458Y-140305880D01*
X122813352Y-140329952D01*
X122838766Y-140352198D01*
X122865684Y-140372615D01*
X122894090Y-140391198D01*
X122923966Y-140407944D01*
X122955297Y-140422850D01*
X122988065Y-140435910D01*
X123022255Y-140447122D01*
X123057850Y-140456481D01*
X123094833Y-140463984D01*
X123133188Y-140469627D01*
X123172899Y-140473405D01*
X123213949Y-140475315D01*
X123256322Y-140475353D01*
X123300000Y-140473515D01*
X123344969Y-140469798D01*
X123391210Y-140464197D01*
X123438709Y-140456708D01*
X123454584Y-140456708D01*
X123454584Y-141202833D01*
X123443670Y-141206781D01*
X123430771Y-141210605D01*
X123415888Y-141214181D01*
X123399021Y-141217385D01*
X123380169Y-141220093D01*
X123359333Y-141222181D01*
X123336513Y-141223524D01*
X123324359Y-141223878D01*
X123311708Y-141224000D01*
X123256012Y-141222679D01*
X123201999Y-141218646D01*
X123149613Y-141211791D01*
X123098801Y-141202006D01*
X123073968Y-141195981D01*
X123049508Y-141189183D01*
X123025414Y-141181598D01*
X123001680Y-141173212D01*
X122978298Y-141164013D01*
X122955263Y-141153986D01*
X122932566Y-141143118D01*
X122910202Y-141131396D01*
X122888164Y-141118805D01*
X122866444Y-141105333D01*
X122845036Y-141090965D01*
X122823934Y-141075688D01*
X122803130Y-141059490D01*
X122782617Y-141042355D01*
X122762390Y-141024270D01*
X122742440Y-141005222D01*
X122722762Y-140985198D01*
X122703348Y-140964184D01*
X122684192Y-140942165D01*
X122665287Y-140919130D01*
X122628203Y-140869952D01*
X122592041Y-140816541D01*
X122581458Y-140816541D01*
X122581458Y-141171083D01*
X121745375Y-141171083D01*
X121745375Y-138811000D01*
X122623793Y-138811000D01*
X122623793Y-139779375D01*
G37*
D11*
X153728546Y-139015724D02*
X153598062Y-138997889D01*
X151659965Y-135967950D02*
X151774518Y-135956920D01*
X153214957Y-138906928D02*
X153094199Y-138863696D01*
X151492568Y-139041105D02*
X151348475Y-138661228D01*
X155087323Y-138415928D02*
X155067735Y-138488506D01*
X155063361Y-137656483D02*
X155083827Y-137770799D01*
X150921797Y-137214174D02*
X150906302Y-137105825D01*
X155109835Y-137981744D02*
X155115356Y-138078802D01*
X155041395Y-137512027D02*
X155356629Y-137811927D01*
X150906302Y-137105825D02*
X150895789Y-137003229D01*
D12*
G36*
X105346501Y-139054416D02*
G01*
X104610959Y-138303000D01*
X105346501Y-138303000D01*
X105346501Y-139054416D01*
G37*
D11*
X150967689Y-137448989D02*
X150942262Y-137328491D01*
D12*
G36*
X111807624Y-137525125D02*
G01*
X111818208Y-137525125D01*
X111818208Y-135445500D01*
X111818007Y-135434231D01*
X111817405Y-135423245D01*
X111816407Y-135412548D01*
X111815014Y-135402144D01*
X111813230Y-135392039D01*
X111811057Y-135382237D01*
X111808498Y-135372743D01*
X111805557Y-135363563D01*
X111802236Y-135354700D01*
X111798538Y-135346159D01*
X111794466Y-135337946D01*
X111790023Y-135330066D01*
X111785212Y-135322523D01*
X111780035Y-135315321D01*
X111774497Y-135308467D01*
X111768598Y-135301964D01*
X111762343Y-135295818D01*
X111755735Y-135290034D01*
X111748775Y-135284615D01*
X111741468Y-135279568D01*
X111733816Y-135274897D01*
X111725822Y-135270606D01*
X111717488Y-135266701D01*
X111708819Y-135263187D01*
X111699816Y-135260068D01*
X111690482Y-135257349D01*
X111680822Y-135255035D01*
X111670836Y-135253130D01*
X111660529Y-135251641D01*
X111649903Y-135250571D01*
X111638962Y-135249926D01*
X111627707Y-135249710D01*
X111421333Y-135249710D01*
X111421333Y-134815793D01*
X113215208Y-134815793D01*
X113215208Y-135249710D01*
X112945332Y-135249710D01*
X112934078Y-135249926D01*
X112923136Y-135250571D01*
X112912510Y-135251641D01*
X112902203Y-135253130D01*
X112892218Y-135255035D01*
X112882557Y-135257349D01*
X112873224Y-135260068D01*
X112864221Y-135263187D01*
X112855552Y-135266701D01*
X112847219Y-135270606D01*
X112839224Y-135274897D01*
X112831572Y-135279568D01*
X112824265Y-135284615D01*
X112817306Y-135290034D01*
X112810697Y-135295818D01*
X112804442Y-135301964D01*
X112798544Y-135308467D01*
X112793005Y-135315321D01*
X112787828Y-135322523D01*
X112783017Y-135330066D01*
X112778574Y-135337946D01*
X112774502Y-135346159D01*
X112770804Y-135354700D01*
X112767483Y-135363563D01*
X112764542Y-135372743D01*
X112761983Y-135382237D01*
X112759811Y-135392039D01*
X112758026Y-135402144D01*
X112756633Y-135412548D01*
X112755635Y-135423245D01*
X112755034Y-135434231D01*
X112754833Y-135445500D01*
X112754833Y-137456333D01*
X112755034Y-137467603D01*
X112755635Y-137478589D01*
X112756633Y-137489286D01*
X112758026Y-137499690D01*
X112759811Y-137509795D01*
X112761983Y-137519597D01*
X112764542Y-137529091D01*
X112767483Y-137538271D01*
X112770804Y-137547134D01*
X112774502Y-137555675D01*
X112778574Y-137563888D01*
X112783017Y-137571768D01*
X112787828Y-137579311D01*
X112793005Y-137586513D01*
X112798544Y-137593367D01*
X112804442Y-137599870D01*
X112810697Y-137606016D01*
X112817306Y-137611801D01*
X112824265Y-137617219D01*
X112831572Y-137622266D01*
X112839224Y-137626938D01*
X112847219Y-137631228D01*
X112855552Y-137635133D01*
X112864221Y-137638648D01*
X112873224Y-137641767D01*
X112882557Y-137644486D01*
X112892218Y-137646800D01*
X112902203Y-137648704D01*
X112912510Y-137650193D01*
X112923136Y-137651263D01*
X112934078Y-137651909D01*
X112945332Y-137652125D01*
X113215208Y-137652125D01*
X113215208Y-138086041D01*
X111458375Y-138086041D01*
X110876292Y-136075208D01*
X110865709Y-136075208D01*
X110299500Y-138086041D01*
X108505626Y-138086041D01*
X108505626Y-137652125D01*
X108801959Y-137652125D01*
X108813214Y-137651908D01*
X108824155Y-137651263D01*
X108834781Y-137650193D01*
X108845088Y-137648704D01*
X108855073Y-137646800D01*
X108864734Y-137644486D01*
X108874067Y-137641767D01*
X108883070Y-137638647D01*
X108891740Y-137635133D01*
X108900073Y-137631228D01*
X108908067Y-137626937D01*
X108915719Y-137622266D01*
X108923027Y-137617219D01*
X108929986Y-137611800D01*
X108936595Y-137606016D01*
X108942850Y-137599870D01*
X108948748Y-137593367D01*
X108954287Y-137586513D01*
X108959463Y-137579311D01*
X108964275Y-137571768D01*
X108968718Y-137563887D01*
X108972790Y-137555675D01*
X108976487Y-137547134D01*
X108979808Y-137538271D01*
X108982750Y-137529090D01*
X108985308Y-137519597D01*
X108987481Y-137509795D01*
X108989265Y-137499690D01*
X108990658Y-137489286D01*
X108991657Y-137478589D01*
X108992258Y-137467603D01*
X108992459Y-137456333D01*
X108992459Y-135445500D01*
X108992258Y-135434230D01*
X108991657Y-135423244D01*
X108990658Y-135412547D01*
X108989265Y-135402143D01*
X108987481Y-135392038D01*
X108985308Y-135382236D01*
X108982750Y-135372743D01*
X108979809Y-135363562D01*
X108976488Y-135354699D01*
X108972790Y-135346159D01*
X108968718Y-135337946D01*
X108964275Y-135330065D01*
X108959463Y-135322522D01*
X108954287Y-135315321D01*
X108948748Y-135308466D01*
X108942850Y-135301964D01*
X108936595Y-135295818D01*
X108929986Y-135290033D01*
X108923027Y-135284615D01*
X108915720Y-135279567D01*
X108908067Y-135274896D01*
X108900073Y-135270605D01*
X108891740Y-135266700D01*
X108883070Y-135263186D01*
X108874068Y-135260067D01*
X108864734Y-135257348D01*
X108855074Y-135255034D01*
X108845088Y-135253130D01*
X108834781Y-135251640D01*
X108824155Y-135250570D01*
X108813214Y-135249925D01*
X108801959Y-135249709D01*
X108505626Y-135249709D01*
X108505626Y-134815792D01*
X109934376Y-134815792D01*
X109934376Y-135249709D01*
X109728001Y-135249709D01*
X109716746Y-135249925D01*
X109705804Y-135250570D01*
X109695179Y-135251640D01*
X109684872Y-135253130D01*
X109674886Y-135255034D01*
X109665226Y-135257348D01*
X109655892Y-135260067D01*
X109646889Y-135263186D01*
X109638220Y-135266700D01*
X109629887Y-135270605D01*
X109621892Y-135274896D01*
X109614240Y-135279567D01*
X109606933Y-135284615D01*
X109599974Y-135290033D01*
X109593365Y-135295818D01*
X109587110Y-135301964D01*
X109581212Y-135308466D01*
X109575673Y-135315321D01*
X109570496Y-135322522D01*
X109565685Y-135330065D01*
X109561242Y-135337946D01*
X109557170Y-135346159D01*
X109553472Y-135354699D01*
X109550151Y-135363562D01*
X109547210Y-135372743D01*
X109544652Y-135382236D01*
X109542479Y-135392038D01*
X109540695Y-135402143D01*
X109539302Y-135412547D01*
X109538303Y-135423244D01*
X109537702Y-135434230D01*
X109537501Y-135445500D01*
X109537501Y-137578042D01*
X109548084Y-137578042D01*
X110310083Y-134810500D01*
X111029749Y-134810500D01*
X111807624Y-137525125D01*
G37*
D11*
X153598062Y-138997889D02*
X153468137Y-138973897D01*
X154151769Y-136805057D02*
X154435781Y-137010115D01*
D12*
G36*
X109034792Y-142790333D02*
G01*
X108293959Y-142044208D01*
X108293959Y-138303000D01*
X109034792Y-138303000D01*
X109034792Y-142790333D01*
G37*
D11*
X155013388Y-138621116D02*
X154978611Y-138681577D01*
X150903754Y-136646090D02*
X150918300Y-136569045D01*
X150895789Y-137003229D02*
X150890267Y-136906172D01*
X148928360Y-134863189D02*
X148784187Y-134592451D01*
X151656057Y-139455137D02*
X151492568Y-139041105D01*
X154781765Y-136671181D02*
X154886822Y-136987890D01*
D12*
G36*
X126123873Y-138732933D02*
G01*
X126188251Y-138736819D01*
X126251175Y-138743223D01*
X126312602Y-138752089D01*
X126372486Y-138763358D01*
X126430783Y-138776971D01*
X126487449Y-138792871D01*
X126542438Y-138811000D01*
X126595706Y-138831299D01*
X126647209Y-138853711D01*
X126696902Y-138878176D01*
X126744741Y-138904638D01*
X126790680Y-138933037D01*
X126834676Y-138963316D01*
X126876684Y-138995417D01*
X126916658Y-139029281D01*
X126954555Y-139064851D01*
X126990331Y-139102067D01*
X127023939Y-139140873D01*
X127055337Y-139181210D01*
X127084479Y-139223019D01*
X127111321Y-139266243D01*
X127135818Y-139310824D01*
X127157925Y-139356703D01*
X127177599Y-139403822D01*
X127194794Y-139452124D01*
X127209466Y-139501549D01*
X127221570Y-139552040D01*
X127231062Y-139603539D01*
X127237897Y-139655987D01*
X127242031Y-139709327D01*
X127243419Y-139763500D01*
X126396752Y-139763500D01*
X126391726Y-139714390D01*
X126384577Y-139668281D01*
X126380201Y-139646358D01*
X126375288Y-139625194D01*
X126369837Y-139604792D01*
X126363844Y-139585154D01*
X126357310Y-139566284D01*
X126350230Y-139548183D01*
X126342604Y-139530857D01*
X126334430Y-139514306D01*
X126325706Y-139498534D01*
X126316429Y-139483544D01*
X126306598Y-139469339D01*
X126296210Y-139455922D01*
X126285265Y-139443295D01*
X126273759Y-139431462D01*
X126261692Y-139420425D01*
X126249061Y-139410188D01*
X126235863Y-139400753D01*
X126222098Y-139392123D01*
X126207764Y-139384302D01*
X126192857Y-139377291D01*
X126177377Y-139371094D01*
X126161322Y-139365714D01*
X126144689Y-139361154D01*
X126127476Y-139357416D01*
X126109683Y-139354504D01*
X126091306Y-139352420D01*
X126072343Y-139351168D01*
X126052794Y-139350750D01*
X126027881Y-139351445D01*
X126003744Y-139353521D01*
X125980384Y-139356963D01*
X125957802Y-139361757D01*
X125935999Y-139367888D01*
X125914976Y-139375341D01*
X125894734Y-139384103D01*
X125875274Y-139394158D01*
X125856597Y-139405492D01*
X125838704Y-139418091D01*
X125821596Y-139431939D01*
X125805273Y-139447023D01*
X125789737Y-139463328D01*
X125774989Y-139480839D01*
X125761030Y-139499542D01*
X125747860Y-139519422D01*
X125723894Y-139562656D01*
X125703098Y-139610424D01*
X125685480Y-139662611D01*
X125671048Y-139719100D01*
X125659810Y-139779774D01*
X125651773Y-139844518D01*
X125646945Y-139913216D01*
X125645334Y-139985750D01*
X125646826Y-140059275D01*
X125648696Y-140094604D01*
X125651318Y-140128956D01*
X125654696Y-140162315D01*
X125658833Y-140194667D01*
X125663732Y-140225996D01*
X125669395Y-140256286D01*
X125675825Y-140285522D01*
X125683026Y-140313689D01*
X125690999Y-140340770D01*
X125699749Y-140366750D01*
X125709278Y-140391614D01*
X125719589Y-140415346D01*
X125730685Y-140437932D01*
X125742569Y-140459354D01*
X125755243Y-140479598D01*
X125768710Y-140498649D01*
X125782975Y-140516490D01*
X125798038Y-140533107D01*
X125813904Y-140548483D01*
X125830575Y-140562604D01*
X125848054Y-140575453D01*
X125866344Y-140587015D01*
X125885448Y-140597276D01*
X125905369Y-140606218D01*
X125926109Y-140613828D01*
X125947672Y-140620088D01*
X125970061Y-140624985D01*
X125993278Y-140628501D01*
X126017326Y-140630623D01*
X126042209Y-140631333D01*
X126059806Y-140630978D01*
X126076883Y-140629915D01*
X126093446Y-140628150D01*
X126109502Y-140625690D01*
X126125059Y-140622540D01*
X126140122Y-140618706D01*
X126154699Y-140614194D01*
X126168796Y-140609009D01*
X126182421Y-140603158D01*
X126195579Y-140596645D01*
X126208278Y-140589478D01*
X126220524Y-140581662D01*
X126232325Y-140573202D01*
X126243687Y-140564105D01*
X126254617Y-140554376D01*
X126265121Y-140544021D01*
X126275207Y-140533046D01*
X126284881Y-140521456D01*
X126294150Y-140509258D01*
X126303020Y-140496458D01*
X126319594Y-140469072D01*
X126334657Y-140439345D01*
X126348262Y-140407324D01*
X126360464Y-140373054D01*
X126371317Y-140336584D01*
X126380876Y-140297958D01*
X127227542Y-140297958D01*
X127220478Y-140349560D01*
X127211210Y-140400160D01*
X127199768Y-140449715D01*
X127186180Y-140498184D01*
X127170477Y-140545525D01*
X127152686Y-140591696D01*
X127132837Y-140636656D01*
X127110960Y-140680364D01*
X127087082Y-140722777D01*
X127061234Y-140763853D01*
X127033444Y-140803552D01*
X127003741Y-140841832D01*
X126972155Y-140878650D01*
X126938714Y-140913966D01*
X126903448Y-140947737D01*
X126866386Y-140979922D01*
X126827556Y-141010479D01*
X126786987Y-141039366D01*
X126744710Y-141066543D01*
X126700752Y-141091966D01*
X126655144Y-141115596D01*
X126607913Y-141137389D01*
X126559090Y-141157304D01*
X126508702Y-141175300D01*
X126456780Y-141191335D01*
X126403352Y-141205367D01*
X126348448Y-141217354D01*
X126292096Y-141227255D01*
X126234325Y-141235029D01*
X126175165Y-141240633D01*
X126114644Y-141244026D01*
X126052792Y-141245166D01*
X125980634Y-141243596D01*
X125910043Y-141238929D01*
X125841065Y-141231231D01*
X125773750Y-141220568D01*
X125708143Y-141207007D01*
X125644294Y-141190612D01*
X125582248Y-141171449D01*
X125522054Y-141149586D01*
X125463760Y-141125087D01*
X125407411Y-141098018D01*
X125353057Y-141068445D01*
X125300745Y-141036435D01*
X125250521Y-141002053D01*
X125202434Y-140965364D01*
X125156531Y-140926436D01*
X125112860Y-140885333D01*
X125071467Y-140842122D01*
X125032401Y-140796868D01*
X124995708Y-140749638D01*
X124961438Y-140700497D01*
X124929635Y-140649511D01*
X124900350Y-140596746D01*
X124873628Y-140542268D01*
X124849517Y-140486143D01*
X124828065Y-140428437D01*
X124809319Y-140369215D01*
X124793327Y-140308543D01*
X124780136Y-140246488D01*
X124769794Y-140183116D01*
X124762348Y-140118491D01*
X124757845Y-140052680D01*
X124756334Y-139985750D01*
X124757846Y-139918834D01*
X124762349Y-139853068D01*
X124769798Y-139788515D01*
X124780147Y-139725239D01*
X124793347Y-139663304D01*
X124809354Y-139602773D01*
X124828120Y-139543712D01*
X124849600Y-139486184D01*
X124873745Y-139430252D01*
X124900511Y-139375981D01*
X124929850Y-139323435D01*
X124961717Y-139272677D01*
X124996063Y-139223772D01*
X125032844Y-139176784D01*
X125072012Y-139131776D01*
X125113521Y-139088813D01*
X125157325Y-139047958D01*
X125203376Y-139009275D01*
X125251629Y-138972828D01*
X125302037Y-138938682D01*
X125354553Y-138906900D01*
X125409131Y-138877546D01*
X125465725Y-138850685D01*
X125524287Y-138826379D01*
X125584772Y-138804693D01*
X125647133Y-138785692D01*
X125711323Y-138769438D01*
X125777296Y-138755996D01*
X125845005Y-138745430D01*
X125914404Y-138737803D01*
X125985447Y-138733180D01*
X126058086Y-138731625D01*
X126123873Y-138732933D01*
G37*
D11*
X155675904Y-138146487D02*
X155996034Y-138517232D01*
X151033384Y-137709387D02*
X150998066Y-137575883D01*
X155111384Y-138257157D02*
X155101870Y-138338884D01*
X153340019Y-138943619D02*
X153214957Y-138906928D01*
X149379497Y-135611606D02*
X149075902Y-135123168D01*
D12*
G36*
X166425370Y-136190054D02*
G01*
X166862552Y-136666304D01*
X168470694Y-136668759D01*
X168562299Y-136190054D01*
X168965059Y-136190054D01*
X168501314Y-138453998D01*
X168098651Y-138458233D01*
X166784001Y-137089635D01*
X167254155Y-137089635D01*
X168202993Y-138043772D01*
X168391877Y-137079254D01*
X167254155Y-137089635D01*
X166784001Y-137089635D01*
X165919660Y-136189826D01*
X166425370Y-136190054D01*
G37*
G36*
X106272542Y-139985750D02*
G01*
X105531709Y-139239625D01*
X105531709Y-138303000D01*
X106272542Y-138303000D01*
X106272542Y-139985750D01*
G37*
G36*
X126417917Y-137736791D02*
G01*
X125296083Y-137736791D01*
X125296083Y-136884833D01*
X126417917Y-136884833D01*
X126417917Y-137736791D01*
G37*
D11*
X150890267Y-136906172D02*
X150889748Y-136814439D01*
X150964230Y-137472947D02*
X150648995Y-137173047D01*
X151118802Y-137997084D02*
X151033384Y-137709387D01*
X151362883Y-136032862D02*
X151452898Y-136006049D01*
X154349567Y-135529837D02*
X154513056Y-135943869D01*
X151161885Y-136142818D02*
X151187282Y-136121511D01*
X155043093Y-138556830D02*
X155013388Y-138621116D01*
D10*
X143825310Y-138176000D02*
X143444310Y-138557000D01*
X141031310Y-134366000D01*
X139126310Y-137668000D01*
X139126310Y-141732000D01*
X137324042Y-142240000D01*
X137298642Y-141732000D01*
X138745310Y-141351000D01*
X138745310Y-137541000D01*
X141031310Y-133350000D01*
X143825310Y-138176000D01*
G36*
X143825310Y-138176000D02*
G01*
X143444310Y-138557000D01*
X141031310Y-134366000D01*
X139126310Y-137668000D01*
X139126310Y-141732000D01*
X137324042Y-142240000D01*
X137298642Y-141732000D01*
X138745310Y-141351000D01*
X138745310Y-137541000D01*
X141031310Y-133350000D01*
X143825310Y-138176000D01*
G37*
D11*
X151452898Y-136006049D02*
X151552342Y-135984369D01*
D12*
G36*
X123957292Y-134725834D02*
G01*
X123958421Y-134788698D01*
X123961792Y-134849294D01*
X123967386Y-134907619D01*
X123975183Y-134963669D01*
X123985161Y-135017441D01*
X123997301Y-135068929D01*
X124011583Y-135118131D01*
X124027985Y-135165042D01*
X124046489Y-135209659D01*
X124067072Y-135251977D01*
X124089715Y-135291994D01*
X124114399Y-135329704D01*
X124141101Y-135365104D01*
X124169802Y-135398191D01*
X124200482Y-135428959D01*
X124233120Y-135457407D01*
X124267696Y-135483528D01*
X124304189Y-135507321D01*
X124342579Y-135528780D01*
X124382847Y-135547902D01*
X124424971Y-135564684D01*
X124468931Y-135579120D01*
X124514706Y-135591208D01*
X124562278Y-135600943D01*
X124611624Y-135608322D01*
X124662725Y-135613340D01*
X124715560Y-135615995D01*
X124770110Y-135616281D01*
X124826353Y-135614195D01*
X124884270Y-135609733D01*
X124943839Y-135602892D01*
X125005042Y-135593667D01*
X125026207Y-135593667D01*
X125026207Y-136551459D01*
X125019011Y-136555303D01*
X125011303Y-136558900D01*
X125003069Y-136562249D01*
X124994292Y-136565349D01*
X124984956Y-136568202D01*
X124975047Y-136570806D01*
X124964549Y-136573163D01*
X124953447Y-136575271D01*
X124941724Y-136577132D01*
X124929365Y-136578744D01*
X124916356Y-136580108D01*
X124902680Y-136581224D01*
X124873266Y-136582713D01*
X124840999Y-136583209D01*
X124769674Y-136581511D01*
X124700511Y-136576325D01*
X124633442Y-136567512D01*
X124568396Y-136554931D01*
X124536609Y-136547185D01*
X124505303Y-136538444D01*
X124474467Y-136528692D01*
X124444093Y-136517910D01*
X124414173Y-136506082D01*
X124384698Y-136493191D01*
X124355658Y-136479218D01*
X124327046Y-136464146D01*
X124298853Y-136447958D01*
X124271069Y-136430636D01*
X124243687Y-136412164D01*
X124216696Y-136392522D01*
X124190090Y-136371695D01*
X124163859Y-136349665D01*
X124137994Y-136326413D01*
X124112486Y-136301923D01*
X124087327Y-136276178D01*
X124062508Y-136249159D01*
X124038021Y-136220850D01*
X124013856Y-136191232D01*
X123966460Y-136128003D01*
X123920250Y-136059333D01*
X123904375Y-136059333D01*
X123904375Y-136514417D01*
X122835457Y-136514417D01*
X122835457Y-133482292D01*
X123957292Y-133482292D01*
X123957292Y-134725834D01*
G37*
D11*
X155996034Y-138517232D02*
X156313837Y-138925684D01*
X152121091Y-138356409D02*
X151853855Y-138179917D01*
X150918300Y-136569045D02*
X150937889Y-136496468D01*
X151066873Y-136246546D02*
X151111828Y-136193091D01*
X152592500Y-138629788D02*
X152368367Y-138505859D01*
X154345659Y-139017024D02*
X154231106Y-139028054D01*
X154552725Y-138978925D02*
X154453282Y-139000605D01*
X152665605Y-136041355D02*
X152790667Y-136078046D01*
X151838860Y-139905038D02*
X151656057Y-139455137D01*
X155083827Y-137770799D02*
X155099322Y-137879148D01*
X153986198Y-139033435D02*
X153858341Y-139027530D01*
X150329720Y-136838486D02*
X150009590Y-136467742D01*
X154978611Y-138681577D02*
X154938750Y-138738428D01*
X151552342Y-135984369D02*
X151659965Y-135967950D01*
X154733384Y-137245264D02*
X155041395Y-137512027D01*
X150648995Y-137173047D02*
X150329720Y-136838486D01*
X152368367Y-138505859D02*
X152121091Y-138356409D01*
X152040896Y-140392523D02*
X151838860Y-139905038D01*
D12*
G36*
X106986917Y-135249709D02*
G01*
X106653542Y-135249709D01*
X106642287Y-135249925D01*
X106631346Y-135250570D01*
X106620720Y-135251640D01*
X106610413Y-135253130D01*
X106600428Y-135255034D01*
X106590767Y-135257348D01*
X106581434Y-135260067D01*
X106572431Y-135263186D01*
X106563761Y-135266700D01*
X106555428Y-135270605D01*
X106547434Y-135274896D01*
X106539782Y-135279567D01*
X106532474Y-135284615D01*
X106525515Y-135290033D01*
X106518906Y-135295818D01*
X106512652Y-135301964D01*
X106506753Y-135308466D01*
X106501214Y-135315321D01*
X106496038Y-135322522D01*
X106491227Y-135330065D01*
X106486783Y-135337946D01*
X106482712Y-135346159D01*
X106479014Y-135354699D01*
X106475693Y-135363562D01*
X106472751Y-135372743D01*
X106470193Y-135382236D01*
X106468020Y-135392038D01*
X106466236Y-135402143D01*
X106464843Y-135412547D01*
X106463844Y-135423244D01*
X106463243Y-135434230D01*
X106463042Y-135445500D01*
X106463042Y-136223374D01*
X107008084Y-136223374D01*
X107172773Y-136226392D01*
X107327455Y-136235611D01*
X107401016Y-136242624D01*
X107472044Y-136251280D01*
X107540527Y-136261610D01*
X107606456Y-136273645D01*
X107669818Y-136287417D01*
X107730604Y-136302956D01*
X107788804Y-136320294D01*
X107844405Y-136339460D01*
X107897398Y-136360488D01*
X107947772Y-136383406D01*
X107995516Y-136408247D01*
X108040620Y-136435041D01*
X108083073Y-136463820D01*
X108122865Y-136494614D01*
X108159984Y-136527454D01*
X108194420Y-136562372D01*
X108226162Y-136599398D01*
X108255200Y-136638564D01*
X108281523Y-136679900D01*
X108305121Y-136723437D01*
X108325982Y-136769207D01*
X108344097Y-136817240D01*
X108359453Y-136867568D01*
X108372042Y-136920221D01*
X108381852Y-136975230D01*
X108388872Y-137032627D01*
X108393091Y-137092443D01*
X108394500Y-137154708D01*
X108393094Y-137216492D01*
X108388895Y-137275857D01*
X108381930Y-137332832D01*
X108372228Y-137387448D01*
X108359817Y-137439735D01*
X108344724Y-137489722D01*
X108326979Y-137537440D01*
X108306609Y-137582919D01*
X108283642Y-137626189D01*
X108258107Y-137667280D01*
X108230031Y-137706221D01*
X108199443Y-137743044D01*
X108166370Y-137777777D01*
X108130841Y-137810452D01*
X108092884Y-137841097D01*
X108052526Y-137869744D01*
X108009797Y-137896422D01*
X107964724Y-137921161D01*
X107917336Y-137943991D01*
X107867659Y-137964942D01*
X107761556Y-138001329D01*
X107646639Y-138030561D01*
X107523134Y-138052879D01*
X107391265Y-138068523D01*
X107251256Y-138077733D01*
X107103334Y-138080749D01*
X105034292Y-138080749D01*
X105034292Y-137646833D01*
X105341209Y-137646833D01*
X106463042Y-137646833D01*
X106965750Y-137646833D01*
X106991387Y-137646277D01*
X107016683Y-137644619D01*
X107041606Y-137641871D01*
X107066127Y-137638048D01*
X107090213Y-137633163D01*
X107113834Y-137627230D01*
X107136960Y-137620262D01*
X107159558Y-137612272D01*
X107181598Y-137603275D01*
X107203049Y-137593284D01*
X107223879Y-137582312D01*
X107244059Y-137570373D01*
X107263557Y-137557481D01*
X107282341Y-137543648D01*
X107300381Y-137528890D01*
X107317646Y-137513219D01*
X107334105Y-137496648D01*
X107349727Y-137479192D01*
X107364481Y-137460864D01*
X107378335Y-137441678D01*
X107391260Y-137421646D01*
X107403223Y-137400784D01*
X107414194Y-137379103D01*
X107424141Y-137356618D01*
X107433035Y-137333343D01*
X107440843Y-137309291D01*
X107447535Y-137284475D01*
X107453080Y-137258909D01*
X107457447Y-137232606D01*
X107460604Y-137205581D01*
X107462521Y-137177847D01*
X107463167Y-137149417D01*
X107462489Y-137121002D01*
X107460469Y-137093311D01*
X107457128Y-137066358D01*
X107452491Y-137040152D01*
X107446578Y-137014706D01*
X107439413Y-136990031D01*
X107431017Y-136966139D01*
X107421413Y-136943042D01*
X107410623Y-136920750D01*
X107398669Y-136899277D01*
X107385573Y-136878633D01*
X107371359Y-136858830D01*
X107356048Y-136839879D01*
X107339662Y-136821793D01*
X107322224Y-136804583D01*
X107303756Y-136788260D01*
X107284280Y-136772837D01*
X107263819Y-136758324D01*
X107242395Y-136744734D01*
X107220030Y-136732078D01*
X107196746Y-136720367D01*
X107172566Y-136709614D01*
X107147512Y-136699830D01*
X107121607Y-136691026D01*
X107094872Y-136683214D01*
X107067330Y-136676407D01*
X107009913Y-136665849D01*
X106949536Y-136659447D01*
X106886376Y-136657292D01*
X106463042Y-136657292D01*
X106463042Y-137646833D01*
X105341209Y-137646833D01*
X105352464Y-137646617D01*
X105363405Y-137645971D01*
X105374031Y-137644901D01*
X105384338Y-137643412D01*
X105394323Y-137641508D01*
X105403984Y-137639194D01*
X105413317Y-137636475D01*
X105422320Y-137633356D01*
X105430990Y-137629841D01*
X105439323Y-137625936D01*
X105447317Y-137621646D01*
X105454969Y-137616974D01*
X105462277Y-137611927D01*
X105469236Y-137606509D01*
X105475845Y-137600724D01*
X105482100Y-137594578D01*
X105487998Y-137588075D01*
X105493537Y-137581221D01*
X105498713Y-137574020D01*
X105503525Y-137566476D01*
X105507968Y-137558596D01*
X105512040Y-137550383D01*
X105515738Y-137541843D01*
X105519059Y-137532980D01*
X105522000Y-137523799D01*
X105524558Y-137514305D01*
X105526731Y-137504503D01*
X105528515Y-137494398D01*
X105529908Y-137483995D01*
X105530907Y-137473297D01*
X105531508Y-137462311D01*
X105531709Y-137451042D01*
X105531709Y-136657292D01*
X105531709Y-135445500D01*
X105531508Y-135434230D01*
X105530907Y-135423244D01*
X105529908Y-135412547D01*
X105528515Y-135402143D01*
X105526731Y-135392038D01*
X105524558Y-135382236D01*
X105522000Y-135372743D01*
X105519059Y-135363562D01*
X105515738Y-135354699D01*
X105512040Y-135346159D01*
X105507968Y-135337946D01*
X105503525Y-135330065D01*
X105498713Y-135322522D01*
X105493537Y-135315321D01*
X105487998Y-135308466D01*
X105482100Y-135301964D01*
X105475845Y-135295818D01*
X105469236Y-135290033D01*
X105462277Y-135284615D01*
X105454969Y-135279567D01*
X105447317Y-135274896D01*
X105439323Y-135270605D01*
X105430990Y-135266700D01*
X105422320Y-135263186D01*
X105413317Y-135260067D01*
X105403984Y-135257348D01*
X105394323Y-135255034D01*
X105384338Y-135253130D01*
X105374031Y-135251640D01*
X105363405Y-135250570D01*
X105352464Y-135249925D01*
X105341209Y-135249709D01*
X105039584Y-135249709D01*
X105039584Y-134815792D01*
X106986917Y-134815792D01*
X106986917Y-135249709D01*
G37*
D11*
X154886822Y-136987890D02*
X154972239Y-137275586D01*
X154453282Y-139000605D02*
X154345659Y-139017024D01*
X155007557Y-137409091D02*
X155037935Y-137535985D01*
X154435781Y-137010115D02*
X154733384Y-137245264D01*
X154166764Y-135079936D02*
X154349567Y-135529837D01*
X153637257Y-136479115D02*
X153884533Y-136628564D01*
X153413124Y-136355185D02*
X153637257Y-136479115D01*
X152790667Y-136078046D02*
X152911425Y-136121278D01*
X156929722Y-139861806D02*
X157077264Y-140121784D01*
X151853855Y-138179917D02*
X151569843Y-137974858D01*
X151348475Y-138661228D02*
X151223859Y-138313793D01*
X151111828Y-136193091D02*
X151161885Y-136142818D01*
D12*
G36*
X115585875Y-139816416D02*
G01*
X116316125Y-139816416D01*
X116378531Y-139817817D01*
X116439710Y-139821981D01*
X116499612Y-139828847D01*
X116558188Y-139838358D01*
X116615387Y-139850454D01*
X116671161Y-139865076D01*
X116725461Y-139882165D01*
X116778236Y-139901662D01*
X116829438Y-139923507D01*
X116879017Y-139947642D01*
X116926924Y-139974008D01*
X116973108Y-140002545D01*
X117017522Y-140033194D01*
X117060115Y-140065896D01*
X117100837Y-140100592D01*
X117139641Y-140137224D01*
X117176475Y-140175731D01*
X117211291Y-140216055D01*
X117244040Y-140258136D01*
X117274671Y-140301917D01*
X117303136Y-140347336D01*
X117329385Y-140394336D01*
X117353368Y-140442857D01*
X117375037Y-140492840D01*
X117394342Y-140544227D01*
X117411232Y-140596957D01*
X117425660Y-140650972D01*
X117437576Y-140706212D01*
X117446929Y-140762620D01*
X117453672Y-140820134D01*
X117457753Y-140878697D01*
X117459125Y-140938250D01*
X117457581Y-141006890D01*
X117452975Y-141073880D01*
X117445347Y-141139179D01*
X117434734Y-141202750D01*
X117421175Y-141264554D01*
X117404710Y-141324552D01*
X117385376Y-141382704D01*
X117363214Y-141438974D01*
X117338260Y-141493320D01*
X117310555Y-141545706D01*
X117280137Y-141596092D01*
X117247045Y-141644439D01*
X117211317Y-141690709D01*
X117172993Y-141734863D01*
X117132110Y-141776861D01*
X117088709Y-141816666D01*
X117046968Y-141852379D01*
X117003081Y-141886068D01*
X116957008Y-141917695D01*
X116908710Y-141947222D01*
X116858148Y-141974609D01*
X116805284Y-141999818D01*
X116750080Y-142022810D01*
X116692495Y-142043547D01*
X116632493Y-142061989D01*
X116570033Y-142078097D01*
X116505077Y-142091834D01*
X116437586Y-142103160D01*
X116367522Y-142112037D01*
X116294845Y-142118426D01*
X116219518Y-142122287D01*
X116141500Y-142123583D01*
X114617500Y-142123583D01*
X114617500Y-141319250D01*
X115585875Y-141319250D01*
X116099166Y-141319250D01*
X116122652Y-141318833D01*
X116145481Y-141317591D01*
X116167648Y-141315535D01*
X116189145Y-141312676D01*
X116209969Y-141309027D01*
X116230112Y-141304599D01*
X116249569Y-141299404D01*
X116268334Y-141293453D01*
X116286402Y-141286757D01*
X116303766Y-141279330D01*
X116320421Y-141271181D01*
X116336361Y-141262323D01*
X116351580Y-141252767D01*
X116366072Y-141242526D01*
X116379832Y-141231610D01*
X116392854Y-141220031D01*
X116405131Y-141207801D01*
X116416659Y-141194932D01*
X116427430Y-141181434D01*
X116437440Y-141167321D01*
X116446683Y-141152603D01*
X116455152Y-141137292D01*
X116462843Y-141121399D01*
X116469748Y-141104937D01*
X116475863Y-141087917D01*
X116481182Y-141070350D01*
X116485698Y-141052249D01*
X116489406Y-141033624D01*
X116492300Y-141014487D01*
X116494375Y-140994851D01*
X116495624Y-140974726D01*
X116496041Y-140954125D01*
X116495609Y-140932997D01*
X116494319Y-140912289D01*
X116492182Y-140892017D01*
X116489210Y-140872197D01*
X116485411Y-140852846D01*
X116480798Y-140833981D01*
X116475381Y-140815618D01*
X116469170Y-140797773D01*
X116462176Y-140780462D01*
X116454409Y-140763704D01*
X116445882Y-140747513D01*
X116436603Y-140731906D01*
X116426584Y-140716900D01*
X116415836Y-140702511D01*
X116404368Y-140688756D01*
X116392192Y-140675651D01*
X116379319Y-140663212D01*
X116365759Y-140651457D01*
X116351522Y-140640402D01*
X116336619Y-140630062D01*
X116321062Y-140620455D01*
X116304860Y-140611597D01*
X116288025Y-140603504D01*
X116270567Y-140596193D01*
X116252496Y-140589681D01*
X116233823Y-140583983D01*
X116214560Y-140579117D01*
X116194716Y-140575099D01*
X116174302Y-140571945D01*
X116153330Y-140569672D01*
X116131809Y-140568295D01*
X116109750Y-140567833D01*
X115585875Y-140567833D01*
X115585875Y-141319250D01*
X114617500Y-141319250D01*
X114617500Y-140567833D01*
X114617500Y-138805708D01*
X115585875Y-138805708D01*
X115585875Y-139816416D01*
G37*
D11*
X155101870Y-138338884D02*
X155087323Y-138415928D01*
X155356629Y-137811927D02*
X155675904Y-138146487D01*
X154789496Y-138883600D02*
X154722081Y-138920294D01*
X152407562Y-135987085D02*
X152537487Y-136011077D01*
X154843738Y-138842156D02*
X154818342Y-138863463D01*
X151216128Y-136101374D02*
X151283543Y-136064680D01*
D12*
G36*
X126417917Y-136519708D02*
G01*
X125296083Y-136519708D01*
X125296083Y-133487583D01*
X126417917Y-133487583D01*
X126417917Y-136519708D01*
G37*
D11*
X151569843Y-137974858D02*
X151272240Y-137739709D01*
X153094199Y-138863696D02*
X152790306Y-138729722D01*
D12*
G36*
X109955542Y-142044208D02*
G01*
X109220000Y-142790333D01*
X109220000Y-138303000D01*
X109955542Y-138303000D01*
X109955542Y-142044208D01*
G37*
D11*
X150889748Y-136814439D02*
X150894240Y-136727817D01*
D12*
G36*
X124539375Y-141171083D02*
G01*
X123660957Y-141171083D01*
X123660957Y-138805708D01*
X124539375Y-138805708D01*
X124539375Y-141171083D01*
G37*
D11*
X149691787Y-136059289D02*
X149379497Y-135611606D01*
D12*
G36*
X112903000Y-139054416D02*
G01*
X112903000Y-138303000D01*
X113638542Y-138303000D01*
X112903000Y-139054416D01*
G37*
G36*
X107992334Y-142123583D02*
G01*
X105034292Y-142123583D01*
X105034292Y-139123208D01*
X107992334Y-142123583D01*
G37*
D13*
G36*
X133612922Y-130842000D02*
G01*
X134144883Y-130842000D01*
X134480961Y-132118413D01*
X134850745Y-130842000D01*
X135368539Y-130842000D01*
X135925902Y-132780311D01*
X135435950Y-132780311D01*
X135122343Y-131478496D01*
X134769167Y-132769076D01*
X134240137Y-132769076D01*
X133901128Y-131439418D01*
X133598756Y-132780311D01*
X133052629Y-132780311D01*
X133612922Y-130842000D01*
G37*
G36*
X136114946Y-130842000D02*
G01*
X137509084Y-130842000D01*
X137509084Y-131267471D01*
X136599035Y-131267471D01*
X136599035Y-131604037D01*
X137430926Y-131604037D01*
X137430926Y-132029997D01*
X136599035Y-132029997D01*
X136599035Y-132354351D01*
X137509084Y-132354351D01*
X137509084Y-132780311D01*
X136114946Y-132780311D01*
X136114946Y-130842000D01*
G37*
G36*
X137848093Y-130842000D02*
G01*
X139135741Y-130842000D01*
X139135741Y-131270401D01*
X138332182Y-131270401D01*
X138332182Y-132780311D01*
X137848093Y-132780311D01*
X137848093Y-130842000D01*
G37*
G36*
X139409293Y-130842000D02*
G01*
X139879705Y-130842000D01*
X139879705Y-131930834D01*
X140282706Y-131140464D01*
X140649558Y-131140464D01*
X141061352Y-131981148D01*
X141061352Y-130842000D01*
X141531763Y-130842000D01*
X141531763Y-132780311D01*
X141069656Y-132780311D01*
X140489823Y-131648978D01*
X139876774Y-132780311D01*
X139409293Y-132780311D01*
X139409293Y-130842000D01*
G37*
G36*
X141927925Y-130842000D02*
G01*
X143322064Y-130842000D01*
X143322064Y-131267471D01*
X142412015Y-131267471D01*
X142412015Y-131604037D01*
X143243906Y-131604037D01*
X143243906Y-132029997D01*
X142412015Y-132029997D01*
X142412015Y-132354351D01*
X143322064Y-132354351D01*
X143322064Y-132780311D01*
X141927925Y-132780311D01*
X141927925Y-130842000D01*
G37*
G36*
X143661073Y-130842000D02*
G01*
X144159328Y-130842000D01*
X144159328Y-131799920D01*
X144775308Y-130842000D01*
X145424994Y-130842000D01*
X144713759Y-131886382D01*
X145380054Y-132780311D01*
X144794848Y-132780311D01*
X144159328Y-131905921D01*
X144159328Y-132780311D01*
X143661073Y-132780311D01*
X143661073Y-130842000D01*
G37*
D14*
X365760000Y-139700000D03*
M02*
